<?xml version="1.0" encoding="UTF-8"?><svg id="a" xmlns="http://www.w3.org/2000/svg" viewBox="0 0 671.21 56.2"><defs><style>.b{fill:#fff;}</style></defs><path class="b" d="M228.2,13.92c-2.14,1.78-3.23,4.2-3.23,7.17,0,2.28,.63,4.29,1.88,5.97,1.16,1.56,2.76,2.67,4.78,3.28l-11.73,19.46h4.73l11.42-18.87h9.26v12.77h4.27V11.26h-12.77c-3.59,0-6.48,.9-8.6,2.67Zm17.11,1.07v12.2h-9.73c-2-.04-3.57-.62-4.68-1.73-1.1-1.11-1.66-2.56-1.66-4.31,0-1.89,.66-3.4,1.96-4.49,1.32-1.11,3.18-1.67,5.52-1.67h8.59Zm27.77-3.74h20.29v3.8h-16.03v28.65h-4.27V11.26Zm-56.01,31.67v.78h-4.39l-.09-.25c-.3-.86-.52-2.06-.63-3.58-1.16,1.3-2.58,2.33-4.23,3.08-1.94,.89-4.03,1.34-6.21,1.34-3.13,0-5.7-.89-7.65-2.65-1.96-1.76-2.95-4.03-2.95-6.72,0-3.2,1.35-5.77,4.01-7.63,2.62-1.83,6.3-2.76,10.95-2.76h.76v3.45h-.67c-3.41,.04-6.1,.66-8,1.86-1.85,1.16-2.78,2.77-2.78,4.79,0,1.66,.62,3.05,1.85,4.14,1.24,1.1,2.89,1.66,4.89,1.66,2.26,0,4.31-.55,6.09-1.64,1.75-1.07,3.04-2.52,3.85-4.3v-13.19c0-2.15-.66-3.85-1.98-5.07-1.32-1.23-3.29-1.85-5.85-1.85-2.34,0-4.31,.6-5.83,1.8-1.5,1.17-2.26,2.59-2.26,4.22v.38l-4.27-.04v-.37c0-2.63,1.23-4.93,3.66-6.84,2.4-1.89,5.39-2.85,8.87-2.85s6.51,.92,8.61,2.74c2.12,1.83,3.22,4.42,3.28,7.67v15.01c0,3,.32,5.27,.94,6.74l.02,.1ZM149.52,15.24c-2.68-3.03-6.23-4.56-10.53-4.56-2.79,0-5.33,.7-7.54,2.09-2.21,1.39-3.94,3.36-5.15,5.85-1.2,2.48-1.81,5.31-1.81,8.4v.7c0,4.96,1.36,9,4.03,12.01,2.69,3.03,6.23,4.56,10.52,4.56,2.81,0,5.35-.69,7.55-2.05,2.2-1.36,3.93-3.32,5.14-5.82,1.2-2.49,1.81-5.33,1.81-8.44v-.73c0-4.95-1.35-9-4.02-12.01h0Zm-.22,11.78v.67c0,3.88-.96,7.04-2.86,9.39-1.88,2.33-4.37,3.51-7.4,3.51s-5.55-1.18-7.43-3.51c-1.9-2.35-2.86-5.41-2.86-9.1v-.64c0-3.86,.97-7.02,2.88-9.39,1.89-2.35,4.36-3.54,7.35-3.54,2,0,3.8,.54,5.36,1.59,1.56,1.06,2.78,2.58,3.65,4.52h0c.87,1.96,1.31,4.14,1.31,6.5Zm30.24-.04c1.35-.59,2.43-1.39,3.21-2.41,1-1.3,1.51-2.8,1.51-4.46,0-2.89-1.14-5.12-3.39-6.62-2.2-1.47-5.39-2.22-9.47-2.22h-12.01V43.71h13.91c3.83,0,6.85-.8,8.97-2.37,2.15-1.6,3.24-3.88,3.24-6.79,0-1.92-.67-3.63-1.99-5.09-1.05-1.16-2.4-1.99-4-2.48Zm-7.4-1.53h-3.28v3.68h4.57c2.54,0,4.52,.5,5.87,1.48,1.32,.96,1.98,2.27,1.98,3.89,0,1.78-.67,3.15-1.98,4.09-1.35,.96-3.33,1.45-5.88,1.45h-9.79V15h7.77c2.89,0,5.09,.43,6.53,1.28,1.38,.81,2.09,2.13,2.09,3.91,0,3.41-2.65,5.18-7.89,5.25ZM113.77,.3h4.38V55.89h-4.38V23.26h-17.13v-3.81h17.13V.3Zm-27.98,0h4.35V43.71h-4.35V.3Zm484.26,14.83c2.2,2.92,3.31,7.02,3.31,12.18v.5c0,5-1.13,9.04-3.36,11.99-2.25,2.99-5.31,4.5-9.09,4.5-1.49,0-2.88-.18-4.16-.54v-3.67c1.05,.33,2.17,.5,3.34,.5,2.81,0,5.02-1.13,6.59-3.37,1.6-2.28,2.41-5.65,2.41-10.02,0-3.94-.81-7.09-2.42-9.36-1.58-2.23-3.81-3.36-6.64-3.36-2.06,0-3.85,.5-5.33,1.49-1.46,.98-2.59,2.42-3.38,4.28V55.89h-4.24V11.26h3.99l.15,3.77c2.32-2.89,5.54-4.36,9.6-4.36s7,1.5,9.22,4.46Zm22.89-4.46c-2.79,0-5.33,.7-7.54,2.09-2.21,1.39-3.94,3.36-5.15,5.85-1.2,2.48-1.81,5.31-1.81,8.4v.7c0,4.96,1.36,9,4.03,12.01,2.69,3.03,6.23,4.56,10.52,4.56,2.81,0,5.35-.69,7.55-2.05,2.2-1.36,3.93-3.32,5.14-5.82,1.2-2.49,1.81-5.33,1.81-8.44v-.73c0-4.95-1.35-9-4.02-12.01-2.68-3.03-6.22-4.56-10.53-4.56Zm10.32,16.34v.67c0,3.88-.96,7.04-2.86,9.39-1.88,2.33-4.37,3.51-7.4,3.51s-5.55-1.18-7.43-3.51c-1.9-2.35-2.86-5.41-2.86-9.1v-.64c0-3.86,.97-7.02,2.88-9.39,1.89-2.35,4.36-3.54,7.35-3.54,2,0,3.8,.54,5.36,1.59,1.56,1.06,2.78,2.58,3.65,4.52,.87,1.95,1.31,4.14,1.31,6.5Zm9.96-15.76h24.86V43.71h-4.27V15.05h-16.33v28.65h-4.27V11.26Zm-128.59,28.65h22.94v3.8h-27.29V.3h27.15v3.8h-22.79v15.36h19.95v3.8h-19.95v16.65Zm-97.66-28.65h26.91v3.74h-11.54v28.71h-4.27V15h-11.1v-3.74Zm68.24,27.96c.52,.55,.78,1.22,.78,2s-.26,1.44-.79,1.95c-.52,.51-1.23,.77-2.11,.77s-1.59-.26-2.1-.77c-.51-.51-.77-1.17-.77-1.95s.25-1.45,.76-2c.51-.56,1.22-.84,2.11-.84s1.6,.28,2.12,.84Zm-74.07-24.48c2.31,2.68,3.47,6.39,3.47,11.01v2.34h-17.07v-3.74h12.83c-.09-2.94-.94-5.36-2.52-7.2-1.56-1.82-3.63-2.74-6.16-2.74s-4.67,.94-6.39,2.78c-1.74,1.87-2.82,4.42-3.2,7.58-.08,.75-.11,1.65-.11,2.95v.67c0,3.49,1.01,6.42,3,8.73,1.98,2.3,4.5,3.46,7.49,3.46,1.81,0,3.43-.33,4.8-.99,1.38-.66,2.65-1.72,3.78-3.17l.23-.29,2.78,2.11-.2,.3c-2.64,3.82-6.52,5.76-11.53,5.76-2.75,0-5.28-.69-7.51-2.05s-3.98-3.28-5.22-5.7c-1.23-2.41-1.86-5.16-1.86-8.15v-1.26c0-3.09,.61-5.91,1.81-8.4,1.21-2.49,2.91-4.48,5.07-5.91,2.16-1.43,4.54-2.16,7.06-2.16,3.94,0,7.12,1.37,9.44,4.07Zm-28.4,19.89c0,2.96-1.16,5.34-3.46,7.07-2.26,1.7-5.3,2.57-9.01,2.57s-6.64-.92-9.02-2.74c-2.41-1.84-3.63-4.29-3.63-7.27v-.38h4.27v.38c0,1.78,.8,3.29,2.39,4.49,1.61,1.22,3.63,1.84,6,1.84,2.58,0,4.62-.54,6.06-1.61,1.41-1.04,2.12-2.48,2.12-4.28,0-1.99-.64-3.43-1.92-4.29-1.32-.89-3.39-1.34-6.15-1.34h-5.21v-3.8h5.79c4.65-.11,6.92-1.83,6.92-5.25,0-1.78-.67-3.16-1.98-4.12-1.35-.98-3.26-1.48-5.67-1.48-2.17,0-4.06,.56-5.6,1.67-1.5,1.08-2.26,2.46-2.26,4.1v.38h-4.24v-.38c0-2.75,1.19-5.05,3.53-6.83,2.31-1.76,5.19-2.65,8.56-2.65,3.7,0,6.64,.81,8.72,2.42,2.12,1.63,3.19,3.97,3.19,6.95,0,1.6-.5,3.07-1.48,4.36-.8,1.05-1.92,1.92-3.32,2.59,3.58,1.29,5.39,3.85,5.39,7.61Zm-30.06,8.3v.78h-4.39l-.09-.25c-.3-.86-.52-2.06-.63-3.58-1.16,1.3-2.58,2.33-4.23,3.08-1.94,.89-4.03,1.34-6.21,1.34-3.13,0-5.7-.89-7.65-2.65-1.96-1.76-2.95-4.03-2.95-6.72,0-3.2,1.35-5.77,4.01-7.63,2.62-1.83,6.3-2.76,10.95-2.76h.76v3.45h-.67c-3.41,.04-6.1,.66-8,1.86-1.85,1.16-2.78,2.77-2.78,4.79,0,1.66,.62,3.05,1.85,4.14,1.24,1.1,2.89,1.66,4.89,1.66,2.26,0,4.31-.55,6.09-1.64,1.75-1.07,3.04-2.52,3.85-4.3v-13.19c0-2.15-.66-3.85-1.98-5.07-1.32-1.23-3.29-1.85-5.85-1.85-2.34,0-4.31,.6-5.83,1.8-1.5,1.17-2.26,2.59-2.26,4.22v.38l-4.27-.04v-.37c0-2.63,1.23-4.93,3.66-6.84,2.4-1.89,5.39-2.85,8.87-2.85s6.51,.92,8.61,2.74c2.12,1.83,3.22,4.42,3.28,7.67v15.01c0,3,.32,5.27,.94,6.74l.02,.1Zm120.23,0v.78h-4.39l-.09-.25c-.3-.86-.52-2.06-.63-3.58-1.16,1.3-2.58,2.33-4.23,3.08-1.94,.89-4.03,1.34-6.21,1.34-3.13,0-5.7-.89-7.65-2.65-1.96-1.76-2.95-4.03-2.95-6.72,0-3.2,1.35-5.77,4.01-7.63,2.62-1.83,6.3-2.76,10.95-2.76h.76v3.45h-.67c-3.41,.04-6.1,.66-8,1.86-1.85,1.16-2.78,2.77-2.78,4.79,0,1.66,.62,3.05,1.85,4.14,1.24,1.1,2.89,1.66,4.89,1.66,2.26,0,4.31-.55,6.09-1.64,1.75-1.07,3.04-2.52,3.85-4.3v-13.19c0-2.15-.66-3.85-1.98-5.07-1.32-1.23-3.29-1.85-5.85-1.85-2.34,0-4.31,.6-5.83,1.8-1.5,1.17-2.26,2.59-2.26,4.22v.38l-4.27-.04v-.37c0-2.63,1.23-4.93,3.66-6.84,2.4-1.89,5.39-2.85,8.87-2.85s6.51,.92,8.61,2.74c2.12,1.83,3.22,4.42,3.28,7.67v15.01c0,3,.32,5.27,.94,6.74l.02,.1Zm228.31,0v.78h-4.39l-.09-.25c-.3-.86-.52-2.06-.63-3.58-1.16,1.3-2.58,2.33-4.23,3.08-1.94,.89-4.03,1.34-6.21,1.34-3.13,0-5.7-.89-7.65-2.65-1.96-1.76-2.95-4.03-2.95-6.72,0-3.2,1.35-5.77,4.01-7.63,2.62-1.83,6.3-2.76,10.95-2.76h.76v3.45h-.67c-3.41,.04-6.1,.66-8,1.86-1.85,1.16-2.78,2.77-2.78,4.79,0,1.66,.62,3.05,1.85,4.14,1.24,1.1,2.89,1.66,4.89,1.66,2.26,0,4.31-.55,6.09-1.64,1.75-1.07,3.04-2.52,3.85-4.3v-13.19c0-2.15-.66-3.85-1.98-5.07-1.32-1.23-3.29-1.85-5.85-1.85-2.34,0-4.31,.6-5.83,1.8-1.5,1.17-2.26,2.59-2.26,4.22v.38l-4.27-.04v-.37c0-2.63,1.23-4.93,3.66-6.84,2.4-1.89,5.39-2.85,8.87-2.85s6.51,.92,8.61,2.74c2.12,1.83,3.22,4.42,3.28,7.67v15.01c0,3,.32,5.27,.94,6.74l.02,.1Zm-137.11-15.93c1.35-.59,2.43-1.39,3.21-2.41,1-1.3,1.51-2.8,1.51-4.46,0-2.89-1.14-5.12-3.39-6.62-2.2-1.47-5.39-2.22-9.47-2.22h-12.01V43.74h13.91c3.83,0,6.85-.8,8.97-2.37,2.15-1.6,3.24-3.88,3.24-6.79,0-1.92-.67-3.63-1.99-5.09-1.05-1.16-2.4-1.99-4-2.48Zm-7.4-1.53h-3.28v3.68h4.57c2.54,0,4.52,.5,5.87,1.48,1.32,.96,1.98,2.27,1.98,3.89,0,1.78-.67,3.15-1.98,4.09-1.35,.96-3.33,1.45-5.88,1.45h-9.79V15.03h7.77c2.89,0,5.09,.43,6.53,1.28,1.38,.81,2.09,2.13,2.09,3.91,0,3.41-2.65,5.18-7.89,5.25Z"/><path class="b" d="M42.02,49.63c.66,1.29,.14,2.88-1.15,3.54-.38,.19-.79,.29-1.19,.29-.96,0-1.88-.52-2.35-1.44-.66-1.29-.14-2.88,1.15-3.54,.63-.32,1.34-.38,2.01-.16s1.21,.68,1.53,1.31Zm1.4-45.12c-.59-.38-1.3-.51-1.98-.37-.69,.15-1.28,.55-1.66,1.14-.38,.59-.51,1.29-.37,1.98,.15,.69,.55,1.28,1.14,1.66,.44,.29,.94,.42,1.43,.42,.86,0,1.71-.42,2.21-1.2,.79-1.22,.44-2.85-.77-3.64Zm10.28,22.3c-1.44-.07-2.69,1.04-2.76,2.49s1.04,2.69,2.49,2.76c.05,0,.1,0,.14,0,.65,0,1.27-.24,1.76-.68,.52-.47,.83-1.12,.87-1.82,.08-1.45-1.04-2.69-2.49-2.76ZM8.14,12c-1.22-.79-2.85-.44-3.64,.77-.79,1.22-.44,2.85,.77,3.64,.44,.29,.94,.42,1.43,.42,.86,0,1.71-.42,2.21-1.2,.38-.59,.51-1.29,.37-1.98-.15-.69-.55-1.28-1.14-1.66Zm-1.95,25.17c-.67-.22-1.38-.16-2.01,.16-1.29,.66-1.81,2.25-1.15,3.54,.46,.91,1.39,1.44,2.35,1.44,.4,0,.81-.09,1.19-.29,1.29-.66,1.81-2.25,1.15-3.54-.32-.63-.86-1.09-1.53-1.31Zm-.93-10.27c.08-1.45-1.04-2.69-2.49-2.76-.05,0-.09,0-.14,0-.65,0-1.27,.24-1.76,.68-.52,.47-.83,1.12-.87,1.82-.04,.7,.2,1.38,.67,1.9,.47,.52,1.12,.83,1.82,.87,.05,0,.09,0,.14,0,1.39,0,2.55-1.09,2.63-2.49Zm45.57-7.75c.4,0,.81-.09,1.19-.29,.63-.32,1.09-.86,1.31-1.53,.22-.67,.16-1.38-.16-2.01-.66-1.29-2.24-1.81-3.54-1.15-.63,.32-1.09,.86-1.31,1.53-.22,.67-.16,1.38,.16,2.01,.46,.91,1.39,1.44,2.35,1.44ZM17.33,2.87c-.67-.22-1.38-.16-2.01,.16-1.29,.66-1.81,2.25-1.15,3.54,.32,.63,.86,1.09,1.53,1.31,.27,.09,.54,.13,.82,.13,.41,0,.82-.1,1.19-.29,.63-.32,1.09-.86,1.31-1.53,.22-.67,.16-1.38-.16-2.01-.32-.63-.86-1.09-1.53-1.31Zm9.57,48.07c-.71-.03-1.38,.2-1.9,.67-.52,.47-.83,1.12-.87,1.82-.08,1.45,1.04,2.69,2.49,2.76,.05,0,.09,0,.14,0,1.39,0,2.55-1.09,2.63-2.49,.08-1.45-1.04-2.69-2.49-2.76Zm-11.26-3.66c-.59-.38-1.29-.51-1.98-.37-.69,.15-1.28,.55-1.66,1.14-.38,.59-.51,1.29-.37,1.98,.15,.69,.55,1.28,1.14,1.66,.43,.28,.92,.43,1.43,.43,.18,0,.37-.02,.55-.06,.69-.15,1.28-.55,1.66-1.14,.38-.59,.51-1.29,.37-1.98-.15-.69-.55-1.28-1.14-1.66ZM29.57,0c-.69-.03-1.38,.2-1.9,.67-.52,.47-.83,1.12-.87,1.82s.2,1.38,.67,1.9c.47,.52,1.12,.83,1.82,.87,.05,0,.09,0,.14,0,1.39,0,2.55-1.09,2.62-2.49,.08-1.45-1.04-2.69-2.49-2.76Zm21.35,39.78c-1.22-.79-2.85-.44-3.64,.77-.38,.59-.51,1.29-.37,1.98,.15,.69,.55,1.28,1.14,1.66,.44,.29,.94,.42,1.43,.42,.86,0,1.71-.42,2.21-1.2,.38-.59,.51-1.29,.37-1.98-.15-.69-.55-1.28-1.14-1.66Z"/></svg>