<?xml version="1.0" encoding="utf-8"?>
<!-- Generator: Adobe Illustrator 23.0.6, SVG Export Plug-In . SVG Version: 6.00 Build 0)  -->
<svg version="1.1" id="logo" xmlns="http://www.w3.org/2000/svg" xmlns:xlink="http://www.w3.org/1999/xlink" x="0px" y="0px"
	 viewBox="0 0 6992.3 628.6" style="enable-background:new 0 0 6992.3 628.6;" xml:space="preserve">
<style type="text/css">
	.st0{fill:#A6A6A6;}
</style>
<path id="logoPath" class="st0" d="M2258.7,165c-13-1.7-26.1-3-39.3-3.9c-13.2-0.9-25.2-1.3-36-1.3c-48.5,0-86.5,10.2-114,30.5
	c-27.5,20.4-41.2,49.6-41.2,87.7c0,22.5,5.4,41.3,16.2,56.2c10.8,14.9,25.3,27.2,43.5,36.7c-12.2,16.9-24.7,37-37.7,60.4
	s-25.7,49.2-38.3,77.3h99c10-19.5,20.4-39.5,31.3-60.1c10.9-20.6,23.3-41.1,37.2-61.4h50v121.5h96.8V176.7
	c-8.2-2.2-18.3-4.2-30.2-6.2C2284.1,168.6,2271.7,166.7,2258.7,165z M2182.6,318.1c-6.9,0-13.9-0.6-20.8-1.9
	c-6.9-1.3-13.2-3.6-18.8-6.8c-5.6-3.3-10.1-7.6-13.6-13c-3.5-5.4-5.2-12-5.2-19.8c0-12.5,4.3-22.8,13-30.8c8.6-8,24.9-12,48.7-12
	c6.5,0,14.3,0.4,23.4,1c9.1,0.6,15.8,1.2,20.1,1.6l0,81.7H2182.6z M2667.8,457.2c0,19.5-6.2,34.3-18.5,44.5S2623,517,2607.4,517
	s-29.5-5.1-41.9-15.3c-12.4-10.2-18.5-25-18.5-44.5s6.2-34.3,18.5-44.5s26.3-15.3,41.9-15.3c15.6,0,29.6,5.1,41.9,15.3
	C2661.6,422.9,2667.8,437.7,2667.8,457.2z M697.5,58.5h101.3l-2.4,570.2H695l2.4-311.1H527.3v190.9H426v-450h101.3v172.1h170.1
	L697.5,58.5z M1169.1,207.2c-14.7-15.6-32.3-27.7-52.9-36.4s-43.2-13-67.9-13c-24.2,0-46.6,4.3-67.2,13s-38.4,20.8-53.3,36.4
	c-15,15.6-26.7,34.4-35.1,56.5c-8.5,22.1-12.7,46.6-12.7,73.4s4.1,51.4,12.3,73.7c8.2,22.4,19.7,41.4,34.4,57.2s32.3,28,52.9,36.7
	c20.5,8.7,43.4,13,68.5,13c25.6,0,48.6-4.3,69.2-13c20.5-8.7,38.2-20.9,52.9-36.7c14.7-15.8,26-34.9,33.8-57.2
	c7.8-22.3,11.7-46.9,11.7-73.7c0-26.9-4.1-51.3-12.2-73.4C1195.3,241.6,1183.8,222.8,1169.1,207.2z M1099.1,408.2
	c-11.9,17.5-28.9,26.3-51,26.3s-39.2-8.8-51.3-26.3c-12.1-17.5-18.2-41.2-18.2-71.1c0-29.9,6.1-53.4,18.2-70.5
	c12.1-17.1,29.2-25.7,51.3-25.7s39.1,8.6,51,25.7c11.9,17.1,17.9,40.6,17.9,70.5C1117,366.9,1111,390.6,1099.1,408.2z M198.7,0h13
	v77.3h-16.2c-19.5,0-32.6,4.3-39.3,13s-10.1,22.1-10.1,40.3V217c0,22.5-3,41.6-9.1,57.2c-6.1,15.6-18.2,29-36.4,40.3
	c18.2,11.3,30.3,24.7,36.4,40.3c6.1,15.6,9.1,34.6,9.1,57.1v86.4c0,18.2,3.3,31.6,10.1,40.3c6.7,8.7,19.8,13,39.3,13h16.2v77.3h-13
	c-27.3,0-50.1-2.6-68.5-7.8S97.1,608.3,86,598.4c-11-10-18.9-22.2-23.7-36.7s-7.1-31.1-7.1-49.7v-98.1c0-18.2-4.3-32.9-13-44.2
	c-8.7-11.3-22.7-16.9-42.2-16.9V276c19.5,0,33.5-5.6,42.2-16.9s13-26,13-44.2v-98.1c0-18.6,2.4-35.2,7.1-49.7
	C67.1,52.7,75,40.5,86,30.5S111.8,13,130.2,7.8C148.6,2.6,171.4,0,198.7,0z M1918.7,195.4c-11.5-12.1-26.8-21.4-45.8-27.9
	c-19-6.4-42.8-9.7-71.4-9.7c-11.3,0-22.4,0.6-33.6,1.7c-11,1.1-21.5,2.4-31.5,3.9s-19.2,3.3-27.6,5.2c-8.4,1.9-15.5,3.8-21.1,5.5
	L1700,252c11.7-4.4,25.6-7.7,41.6-10.1c16-2.4,32.2-3.6,48.7-3.6c24.7,0,42,4.9,52,14.9c9.9,10,14.9,23.2,14.9,39.6v9.1
	c-6.1-1.7-14-3.1-23.7-4.2c-9.7-1.1-20.8-1.6-33.4-1.6c-18.6,0-36.6,1.8-53.9,5.5c-17.3,3.7-32.7,9.7-46.1,17.9
	s-24.1,19.3-32.1,33.1c-8,13.9-12,30.8-12,50.7c0,20.8,3.5,38.3,10.4,52.6c6.9,14.2,16.9,25.8,29.9,34.7s28.4,15.3,46.4,19.2
	c18,3.9,38,5.8,60.1,5.8c35,0,64.9-2.1,89.6-6.2c24.7-4.1,43.9-7.7,57.8-10.7V297.4c0-21.2-2.3-40.5-7.1-57.8
	C1938.3,222.2,1930.2,207.5,1918.7,195.4z M1857.4,438.4c-5.2,0.9-12.1,1.6-20.8,2c-8.7,0.4-17.8,0.6-27.3,0.6
	c-17.8,0-31.7-3-41.8-8.8c-10.2-5.8-15.3-16.3-15.3-31.5c0-7.8,1.7-14.3,5.2-19.5s8.2-9.3,14.3-12.3c6.1-3.1,13.1-5.1,21.1-6.2
	c8.1-1.1,16.6-1.6,25.7-1.6c6.5,0,13.6,0.4,21.4,1.3c7.8,0.9,13.6,1.7,17.5,2.6V438.4z M1586.7,351c-5.2-6.7-10.9-12.4-17.2-17.2
	c-6.3-4.7-12.4-8.4-18.5-11c11.2-5.7,20.5-14.7,27.9-27.3c7.3-12.6,11-26.4,11-41.6c0-11.3-2.6-22.5-7.8-33.8
	c-5.2-11.2-13.8-21.4-25.7-30.5c-12-9.1-27.5-16.5-46.8-22.1c-19.3-5.6-43-8.4-71.1-8.4c-12.2,0-25.2,0.4-39,1
	c-13.8,0.6-27.5,1.6-40.9,2.9s-26.1,2.7-38,4.2c-11.9,1.5-22,3.2-30.2,4.9v327.3c8.2,1.7,18.3,3.6,30.2,5.5
	c11.9,1.9,24.6,3.7,38,5.2s27,2.7,40.9,3.6c13.9,0.9,26.9,1.3,39,1.3c31.1,0,57.3-3,78.8-9.2c21.2-6,38.3-14,51.3-24
	c13-9.9,22.2-21.4,27.6-34.4s8.1-26.4,8.1-40.3c0-12.1-1.7-22.8-4.9-32.1C1596.1,365.7,1591.9,357.7,1586.7,351z M1387.1,237.1
	c6.1-0.9,14-1.7,23.7-2.3c9.7-0.7,17.6-1,23.7-1c18.2,0,32.9,2.3,44.2,7.1c11.3,4.7,16.9,13.6,16.9,26.6c0,13.9-4.9,22.9-14.9,27
	c-10,4.1-23,6.2-39,6.2l-54.6,0V237.1z M1490.6,432.3c-12.2,5.4-29.1,8.1-50.7,8.1c-8.7,0-18.1-0.4-28.3-1
	c-10.2-0.7-18.3-1.4-24.4-2.3l0.1-71.4h56.5c21.2,0,37.4,2.7,48.4,8.1c11.1,5.4,16.6,15.1,16.6,28.9
	C1508.8,417,1502.7,426.9,1490.6,432.3z M5761,166.9h-266.4c0,19-0.2,40.7-0.6,64.9c-0.5,24.3-2.1,48.6-4.9,73.1
	s-7.6,47.6-14.3,69.5c-6.7,21.9-16.1,40.2-28.2,54.9h-42.2v176.6h82.5v-97.4h249.4v97.4h82.5V429.3H5761V166.9z M5664.2,429.3
	h-118.1c7.8-12.6,14-26.4,18.8-41.6c4.8-15.1,8.6-30.6,11.4-46.4c2.8-15.9,4.7-31.9,5.8-48.1s2-31.9,2.9-47.1h79.2V429.3z
	 M6024.7,157.8c-20.8,0-41,3.9-60.7,11.7c-19.7,7.8-37.1,19.2-52.3,34.4c-15.2,15.1-27.4,34.1-36.7,56.8c-9.4,22.8-14,49.3-14,79.6
	c0,25.1,3.6,48.5,10.6,70.2c7.1,21.7,18.2,40.4,33.1,56.2s33.8,28.2,56.5,37.3c22.7,9.1,49.5,13.6,80.2,13.6
	c12.1,0,24.3-0.6,36.4-1.9c12.1-1.3,23.5-3,34.1-4.9s20.2-4.2,28.9-6.8c8.7-2.6,15.6-5.2,20.8-7.8l-13-78.6
	c-10.8,4.8-24.8,8.8-41.9,12c-17.1,3.3-34.6,4.9-52.3,4.9c-27.7,0-49.8-5.8-66.2-17.5s-25.7-27.5-27.9-47.4h219.5
	c0.4-5.2,0.9-11.2,1.3-17.9c0.5-6.7,0.7-12.9,0.7-18.5c0-57.6-14.1-101.2-42.2-130.9C6111.5,172.6,6073.2,157.8,6024.7,157.8z
	 M6088.3,303.4h-127.8c1.3-8.3,3.4-16.4,6.2-24.4s6.8-15,12-21.1c5.2-6,11.7-10.9,19.5-14.6s17.1-5.5,27.9-5.5
	c11.2,0,20.6,1.9,28.2,5.8c7.5,3.9,13.8,8.8,18.8,14.9c4.9,6.1,8.6,13,11,20.8C6086.4,287.1,6087.9,295.1,6088.3,303.4L6088.3,303.4
	z M5082.3,166.9h315v79.2h-109.1v262.4h-96.8V246.1h-109.1V166.9z M2667.8,226.7c0,19.5-6.2,34.3-18.5,44.5s-26.3,15.3-41.9,15.3
	c-15.6,0-29.5-5.1-41.9-15.3c-12.3-10.2-18.5-25-18.5-44.5s6.2-34.3,18.5-44.5s26.3-15.3,41.9-15.3c15.6,0,29.6,5.1,41.9,15.3
	C2661.6,192.3,2667.8,207.2,2667.8,226.7z M6316.3,166.8h256.5v341.6H6476V246.1h-66.3c-0.4,12.6-1,25.9-1.6,39.9
	c-0.6,14.1-1.8,28.1-3.6,42.2c-1.7,14.1-4,27.8-6.8,41.2c-2.8,13.4-6.4,26-10.7,37.7c-5.2,13.9-11.8,26.7-19.8,38.6
	c-8,11.9-18.2,22.6-30.5,32.1s-27.3,17.4-44.8,23.7c-17.5,6.3-38,10.5-61.4,12.7l-13-80.5c22.1-4.3,39.2-10.5,51.3-18.5
	c12.1-8,21.2-18.3,27.3-30.8c4.8-10.8,8.5-23.4,11.4-37.7c2.8-14.3,4.9-29.3,6.2-45.1c1.3-15.8,2.1-31.9,2.3-48.4
	c0.2-16.4,0.3-32.2,0.3-47.4V166.8z M4993.5,207.2c-14.7-15.6-32.3-27.7-52.9-36.4s-43.2-13-67.9-13c-24.2,0-46.6,4.3-67.2,13
	c-20.6,8.7-38.4,20.8-53.3,36.4c-15,15.6-26.7,34.4-35.1,56.5c-8.5,22.1-12.7,46.6-12.7,73.4s4.1,51.4,12.3,73.7
	c8.2,22.4,19.7,41.4,34.4,57.2c14.7,15.8,32.3,28,52.9,36.7c20.5,8.7,43.4,13,68.5,13c25.6,0,48.6-4.3,69.2-13
	c20.5-8.7,38.2-20.9,52.9-36.7c14.7-15.8,26-34.9,33.8-57.2c7.8-22.3,11.7-46.9,11.7-73.7c0-26.9-4.1-51.3-12.2-73.4
	C5019.7,241.6,5008.2,222.8,4993.5,207.2z M4923.5,408.2c-11.9,17.5-28.9,26.3-51,26.3c-22.1,0-39.2-8.8-51.3-26.3
	S4803,367,4803,337.1c0-29.9,6.1-53.4,18.2-70.5c12.1-17.1,29.2-25.7,51.3-25.7s39.1,8.6,51,25.7c11.9,17.1,17.9,40.6,17.9,70.5
	C4941.4,366.9,4935.5,390.6,4923.5,408.2z M6992.3,276.1v76.5c-19.5,0-33.6,5.6-42.2,16.9c-8.7,11.3-13,26-13,44.2v98.1
	c0,18.6-2.4,35.2-7.1,49.7c-4.8,14.5-12.7,26.7-23.7,36.7c-11,9.9-25.8,17.5-44.2,22.7c-18.4,5.2-41.2,7.8-68.5,7.8h-13v-77.3h16.2
	c19.5,0,32.6-4.3,39.3-13c6.7-8.7,10.1-22.1,10.1-40.3v-86.4c0-22.5,3-41.6,9.1-57.1c6.1-15.6,18.2-29,36.4-40.3
	c-18.2-11.2-30.3-24.7-36.4-40.3c-6.1-15.6-9.1-34.6-9.1-57.2v-86.4c0-18.2-3.4-31.6-10.1-40.3s-19.8-13-39.3-13h-16.2V0h13
	c27.3,0,50.1,2.6,68.5,7.8s33.1,12.8,44.2,22.7c11,10,18.9,22.2,23.7,36.7c4.8,14.5,7.1,31.1,7.1,49.7V215c0,18.2,4.3,32.9,13,44.2
	C6958.8,270.5,6972.8,276.1,6992.3,276.1z M3286.6,58.5h-297.4V76c0,32.9-0.5,64.3-1.6,94.2c-1,29.8-3.9,58.9-8.4,87
	c-4.6,28.1-11.4,55.8-20.5,83.1c-9.1,27.3-21.7,54.8-37.7,82.5h-64.9v205.8h97.4V508.5h313v120.2h97.4V422.8h-77.3V58.5z
	 M3188,422.8h-161.7c10.9-19.5,19.9-40.6,27-63.3c7.1-22.7,12.9-46.1,17.2-70.1c4.3-24.1,7.5-48.4,9.7-73.1
	c2.1-24.7,3.6-48.7,4.5-72.1H3188V422.8z M3662.4,195.4c-11.5-12.1-26.8-21.4-45.8-27.9c-19-6.4-42.8-9.7-71.4-9.7
	c-11.3,0-22.4,0.6-33.6,1.7c-11,1.1-21.5,2.4-31.5,3.9s-19.2,3.3-27.6,5.2c-8.4,1.9-15.5,3.8-21.1,5.5l12.3,77.9
	c11.7-4.4,25.6-7.7,41.6-10.1c16-2.4,32.2-3.6,48.7-3.6c24.7,0,42,4.9,52,14.9c9.9,10,14.9,23.2,14.9,39.6v9.1
	c-6.1-1.7-14-3.1-23.7-4.2c-9.7-1.1-20.8-1.6-33.4-1.6c-18.6,0-36.6,1.8-53.9,5.5s-32.7,9.7-46.1,17.9
	c-13.4,8.2-24.1,19.3-32.1,33.1c-8,13.9-12,30.8-12,50.7c0,20.8,3.5,38.3,10.4,52.6c6.9,14.2,16.9,25.8,29.9,34.7
	s28.4,15.3,46.4,19.2c18,3.9,38,5.8,60.1,5.8c35,0,64.9-2.1,89.6-6.2c24.7-4.1,43.9-7.7,57.8-10.7V297.4c0-21.2-2.3-40.5-7.1-57.8
	C3682,222.2,3673.9,207.5,3662.4,195.4z M3601.1,438.4c-5.2,0.9-12.1,1.6-20.8,2c-8.7,0.4-17.8,0.6-27.3,0.6
	c-17.8,0-31.8-3-41.8-8.8c-10.2-5.8-15.3-16.3-15.3-31.5c0-7.8,1.7-14.3,5.2-19.5s8.2-9.3,14.3-12.3c6.1-3.1,13.1-5.1,21.1-6.2
	c8.1-1.1,16.6-1.6,25.7-1.6c6.5,0,13.6,0.4,21.4,1.3c7.8,0.9,13.6,1.7,17.5,2.6V438.4z M4362.4,195.4
	c-11.5-12.1-26.8-21.4-45.8-27.9c-19-6.4-42.8-9.7-71.4-9.7c-11.2,0-22.4,0.6-33.6,1.7c-11,1.1-21.5,2.4-31.5,3.9
	s-19.2,3.3-27.6,5.2c-8.4,1.9-15.5,3.8-21.1,5.5l12.3,77.9c11.7-4.4,25.6-7.7,41.6-10.1c16-2.4,32.2-3.6,48.7-3.6
	c24.7,0,42,4.9,52,14.9c9.9,10,14.9,23.2,14.9,39.6v9.1c-6.1-1.7-14-3.1-23.7-4.2c-9.7-1.1-20.8-1.6-33.4-1.6
	c-18.6,0-36.6,1.8-53.9,5.5c-17.3,3.7-32.7,9.7-46.1,17.9s-24.1,19.3-32.1,33.1c-8,13.9-12,30.8-12,50.7c0,20.8,3.5,38.3,10.4,52.6
	c6.9,14.2,16.9,25.8,29.9,34.7s28.4,15.3,46.4,19.2c18,3.9,38,5.8,60.1,5.8c35,0,64.9-2.1,89.6-6.2c24.7-4.1,43.9-7.7,57.8-10.7
	V297.4c0-21.2-2.3-40.5-7.1-57.8C4382,222.2,4373.9,207.5,4362.4,195.4z M4301.1,438.4c-5.2,0.9-12.1,1.6-20.8,2
	c-8.7,0.4-17.8,0.6-27.3,0.6c-17.7,0-31.7-3-41.8-8.8c-10.2-5.8-15.3-16.3-15.3-31.5c0-7.8,1.7-14.3,5.2-19.5s8.2-9.3,14.3-12.3
	c6.1-3.1,13.1-5.1,21.1-6.2c8.1-1.1,16.6-1.6,25.7-1.6c6.5,0,13.6,0.4,21.4,1.3c7.8,0.9,13.6,1.7,17.5,2.6V438.4z M4064.1,166.9
	l0,79.2H3955v262.4h-96.8V246.1h-109.1v-79.2H4064.1z M4462.8,270.8h188.3v87.7h-188.3V270.8z"/>
</svg>
