<?xml version="1.0" encoding="UTF-8"?><svg id="a" xmlns="http://www.w3.org/2000/svg" viewBox="0 0 672.45 58.19"><defs><style>.b{fill:#fff;}</style></defs><g><path class="b" d="M218.3,43.78l-.02-.05c-.61-1.44-.92-3.67-.92-6.64v-15.01c-.06-3.33-1.19-5.98-3.37-7.86-2.15-1.86-5.1-2.8-8.77-2.8s-6.58,.98-9.03,2.9c-2.49,1.96-3.75,4.33-3.75,7.04v.62l4.77,.04v-.63c0-1.55,.73-2.9,2.16-4.02,1.48-1.16,3.39-1.74,5.68-1.74,2.5,0,4.41,.6,5.68,1.78,1.26,1.17,1.9,2.82,1.9,4.89v13.14c-.79,1.71-2.04,3.11-3.73,4.14-1.74,1.07-3.74,1.61-5.96,1.61-1.94,0-3.53-.54-4.73-1.6-1.17-1.04-1.77-2.37-1.77-3.96,0-1.93,.9-3.47,2.67-4.58,1.86-1.17,4.51-1.78,7.87-1.82h1.67v-3.95h-1.76c-4.7,0-8.43,.94-11.1,2.81-2.73,1.91-4.12,4.55-4.12,7.84,0,2.77,1.02,5.1,3.03,6.91,1.99,1.8,4.62,2.71,7.82,2.71,2.21,0,4.33-.46,6.31-1.36,1.5-.68,2.82-1.6,3.93-2.73,.13,1.29,.33,2.34,.63,3.17l.12,.33h4.82v-1.08l-.03-.1Z"/><path class="b" d="M181.21,27.93c1.13-.57,2.04-1.32,2.74-2.22,1.04-1.35,1.57-2.9,1.57-4.61,0-2.98-1.18-5.28-3.5-6.83-2.24-1.5-5.48-2.26-9.6-2.26h-12.26V44.96h14.16c3.89,0,6.96-.82,9.12-2.42,2.22-1.65,3.34-4,3.34-6.99,0-1.99-.69-3.75-2.05-5.25-.95-1.05-2.13-1.83-3.51-2.35Zm-1.05,11.44c-1.31,.93-3.24,1.41-5.73,1.41h-9.54V16.24h7.52c2.84,0,5,.42,6.41,1.25,1.32,.78,1.96,1.99,1.96,3.69,0,3.29-2.5,4.93-7.64,5h-4.28v4.18h5.57c2.49,0,4.42,.48,5.73,1.43,1.25,.91,1.88,2.15,1.88,3.68,0,1.69-.63,3-1.88,3.89Z"/><polygon class="b" points="613.96 44.96 618.72 44.96 618.72 16.3 634.55 16.3 634.55 44.96 639.32 44.96 639.32 12.01 613.96 12.01 613.96 44.96"/><path class="b" d="M229.04,14.73c-2.2,1.83-3.32,4.31-3.32,7.36,0,2.33,.65,4.39,1.92,6.11,1.13,1.53,2.68,2.63,4.6,3.28l-11.8,19.56h5.31l11.42-18.87h8.87v12.77h4.77V12.01h-13.02c-3.65,0-6.6,.92-8.76,2.72Zm1.45,7.42c0-1.81,.63-3.25,1.87-4.3,1.27-1.07,3.08-1.61,5.36-1.61h8.34v11.7h-9.47c-1.93-.04-3.45-.59-4.5-1.66-1.06-1.06-1.59-2.45-1.59-4.13Z"/><rect class="b" x="86.54" y="1.05" width="4.85" height="43.91"/><polygon class="b" points="114.52 20.21 96.63 20.21 96.63 24.51 114.52 24.51 114.52 57.14 119.4 57.14 119.4 1.05 114.52 1.05 114.52 20.21"/><polygon class="b" points="273.83 44.96 278.6 44.96 278.6 16.3 294.62 16.3 294.62 12.01 273.83 12.01 273.83 44.96"/><path class="b" d="M139.98,11.42c-2.84,0-5.42,.72-7.67,2.13-2.25,1.42-4.01,3.42-5.24,5.95-1.22,2.51-1.83,5.38-1.83,8.5v.7c0,5.02,1.38,9.12,4.1,12.18,2.74,3.08,6.34,4.65,10.71,4.65,2.86,0,5.44-.7,7.68-2.09,2.24-1.38,4-3.38,5.23-5.93,1.22-2.52,1.83-5.4,1.83-8.55v-.73c0-5.02-1.37-9.11-4.08-12.18-2.73-3.08-6.34-4.65-10.72-4.65Zm.06,29.91c-2.97,0-5.4-1.15-7.23-3.41-1.86-2.31-2.81-5.31-2.81-8.94v-.64c0-3.8,.95-6.91,2.82-9.23,1.84-2.28,4.25-3.44,7.16-3.44,1.95,0,3.7,.52,5.21,1.55,1.52,1.03,2.71,2.52,3.56,4.41,.86,1.92,1.29,4.08,1.29,6.4v.67c0,3.82-.94,6.93-2.81,9.23-1.83,2.27-4.25,3.41-7.2,3.41Z"/><path class="b" d="M561.82,11.42c-3.9,0-7.04,1.33-9.37,3.96l-.13-3.37h-4.48V57.14h4.74V21.28c.77-1.79,1.86-3.18,3.27-4.12,1.43-.96,3.18-1.45,5.19-1.45,2.74,0,4.91,1.09,6.43,3.25,1.58,2.23,2.38,5.33,2.38,9.22,0,4.32-.79,7.65-2.36,9.88-1.52,2.17-3.67,3.26-6.39,3.26-1.23,0-2.41-.19-3.51-.57l-.83-.29v3.86l.09,.39,.34,.11c1.43,.47,3.02,.71,4.73,.71,3.86,0,6.99-1.55,9.29-4.6,2.26-3,3.41-7.08,3.41-12.14v-.5c0-5.21-1.13-9.36-3.36-12.33-2.27-3.02-5.44-4.56-9.42-4.56Z"/><path class="b" d="M672.44,43.88l-.02-.1-.02-.05c-.61-1.44-.92-3.67-.92-6.64v-15.01c-.06-3.33-1.19-5.98-3.37-7.86-2.15-1.86-5.1-2.8-8.77-2.8s-6.58,.98-9.03,2.9c-2.49,1.96-3.75,4.33-3.75,7.04v.62l4.77,.04v-.63c0-1.55,.73-2.9,2.16-4.02,1.48-1.16,3.39-1.74,5.68-1.74,2.5,0,4.41,.6,5.68,1.78,1.26,1.17,1.9,2.81,1.9,4.89v13.14c-.79,1.71-2.04,3.11-3.73,4.14-1.74,1.07-3.74,1.61-5.96,1.61-1.94,0-3.53-.54-4.73-1.6-1.17-1.04-1.77-2.37-1.77-3.96,0-1.93,.9-3.47,2.67-4.58,1.86-1.17,4.51-1.78,7.87-1.82h1.67v-3.95h-1.76c-4.7,0-8.43,.94-11.1,2.81-2.73,1.91-4.12,4.55-4.12,7.84,0,2.77,1.02,5.09,3.03,6.91,2,1.8,4.62,2.71,7.82,2.71,2.21,0,4.33-.46,6.31-1.36,1.5-.68,2.82-1.6,3.93-2.73,.13,1.29,.33,2.34,.63,3.17l.12,.33h4.82v-1.07Z"/><polygon class="b" points="485.87 24.51 505.82 24.51 505.82 20.21 485.87 20.21 485.87 5.35 508.66 5.35 508.66 1.05 481.01 1.05 481.01 44.96 508.81 44.96 508.81 40.66 485.87 40.66 485.87 24.51"/><path class="b" d="M593.93,11.42c-2.84,0-5.42,.72-7.67,2.13-2.25,1.42-4.01,3.42-5.24,5.95-1.22,2.52-1.83,5.38-1.83,8.5v.7c0,5.02,1.38,9.12,4.1,12.18,2.74,3.08,6.34,4.65,10.71,4.65,2.86,0,5.45-.7,7.68-2.09,2.24-1.39,4-3.38,5.23-5.93,1.22-2.52,1.83-5.4,1.83-8.55v-.73c0-5.02-1.37-9.11-4.08-12.18-2.73-3.08-6.34-4.65-10.72-4.65Zm.06,29.91c-2.97,0-5.4-1.15-7.23-3.41-1.86-2.31-2.81-5.31-2.81-8.94v-.64c0-3.8,.95-6.91,2.82-9.23,1.84-2.28,4.25-3.44,7.16-3.44,1.95,0,3.71,.52,5.21,1.55,1.52,1.03,2.71,2.52,3.56,4.41,.86,1.92,1.29,4.07,1.29,6.4v.67c0,3.82-.94,6.93-2.81,9.23-1.83,2.27-4.25,3.41-7.2,3.41Z"/><path class="b" d="M323.89,43.78l-.02-.05c-.61-1.44-.92-3.67-.92-6.64v-15.01c-.06-3.33-1.19-5.98-3.36-7.86-2.15-1.86-5.1-2.8-8.77-2.8s-6.58,.98-9.03,2.9c-2.49,1.96-3.75,4.33-3.75,7.04v.62l4.77,.04v-.63c0-1.55,.73-2.9,2.16-4.02,1.48-1.16,3.39-1.74,5.68-1.74,2.5,0,4.41,.6,5.68,1.78,1.26,1.17,1.89,2.82,1.89,4.89v13.14c-.79,1.71-2.04,3.11-3.73,4.14-1.74,1.07-3.74,1.61-5.96,1.61-1.94,0-3.53-.54-4.73-1.6-1.17-1.04-1.77-2.37-1.77-3.96,0-1.93,.9-3.47,2.67-4.58,1.86-1.17,4.51-1.78,7.87-1.82h1.67v-3.95h-1.76c-4.7,0-8.43,.94-11.09,2.81-2.73,1.91-4.12,4.55-4.12,7.84,0,2.77,1.02,5.1,3.03,6.91,1.99,1.8,4.62,2.71,7.82,2.71,2.21,0,4.33-.46,6.31-1.36,1.5-.68,2.82-1.6,3.93-2.73,.13,1.29,.33,2.34,.63,3.17l.12,.33h4.82v-1.08l-.03-.1Z"/><path class="b" d="M454.07,39.14c-.96,0-1.73,.31-2.29,.92-.55,.6-.82,1.32-.82,2.17s.28,1.57,.84,2.13c.56,.56,1.32,.84,2.27,.84s1.72-.28,2.28-.84c.57-.56,.86-1.28,.86-2.13s-.28-1.57-.84-2.17c-.57-.61-1.34-.91-2.3-.91Z"/><path class="b" d="M535.76,27.93c1.12-.57,2.04-1.32,2.74-2.22,1.04-1.35,1.57-2.9,1.57-4.61,0-2.98-1.18-5.28-3.5-6.83-2.24-1.5-5.47-2.26-9.61-2.26h-12.26V44.96h14.16c3.89,0,6.96-.82,9.12-2.42,2.22-1.65,3.34-4,3.34-6.99,0-1.99-.69-3.75-2.05-5.25-.95-1.05-2.13-1.83-3.51-2.35Zm-1.05,11.44c-1.31,.93-3.24,1.41-5.73,1.41h-9.54V16.24h7.52c2.84,0,5,.42,6.41,1.25,1.32,.78,1.96,1.98,1.96,3.69,0,3.29-2.5,4.93-7.64,5h-4.28v4.18h5.57c2.49,0,4.42,.48,5.73,1.43,1.25,.91,1.88,2.15,1.88,3.68,0,1.69-.63,3-1.88,3.89Z"/><path class="b" d="M444.12,43.78l-.02-.05c-.61-1.44-.92-3.67-.92-6.64v-15.01c-.06-3.33-1.19-5.98-3.37-7.86-2.15-1.86-5.1-2.8-8.77-2.8s-6.58,.98-9.03,2.9c-2.49,1.96-3.75,4.33-3.75,7.04v.62l4.77,.04v-.63c0-1.55,.73-2.9,2.16-4.02,1.48-1.16,3.39-1.74,5.68-1.74,2.5,0,4.41,.6,5.68,1.78,1.26,1.17,1.9,2.81,1.9,4.89v13.14c-.79,1.71-2.04,3.11-3.73,4.14-1.74,1.07-3.74,1.61-5.96,1.61-1.94,0-3.53-.54-4.73-1.6-1.17-1.04-1.77-2.37-1.77-3.96,0-1.93,.9-3.47,2.67-4.58,1.86-1.17,4.51-1.78,7.87-1.82h1.67v-3.95h-1.76c-4.7,0-8.43,.94-11.1,2.81-2.73,1.91-4.12,4.55-4.12,7.84,0,2.77,1.02,5.09,3.03,6.91,1.99,1.8,4.62,2.71,7.82,2.71,2.21,0,4.33-.46,6.31-1.36,1.5-.68,2.82-1.6,3.93-2.73,.13,1.29,.33,2.34,.63,3.17l.12,.33h4.82v-1.07l-.03-.1Z"/><path class="b" d="M348.95,27.99c1.21-.65,2.18-1.45,2.91-2.41,1.02-1.34,1.53-2.85,1.53-4.51,0-3.06-1.11-5.46-3.29-7.15-2.13-1.64-5.12-2.47-8.88-2.47-3.42,0-6.36,.91-8.71,2.71-2.41,1.84-3.63,4.2-3.63,7.03v.62h4.74v-.62c0-1.56,.73-2.87,2.16-3.9,1.5-1.08,3.33-1.63,5.45-1.63,2.35,0,4.21,.48,5.52,1.43,1.25,.91,1.88,2.22,1.88,3.92,0,3.3-2.12,4.89-6.67,5h-6.04v4.3h5.46c2.71,0,4.73,.44,6.01,1.3,1.2,.81,1.81,2.18,1.81,4.08,0,1.72-.68,3.09-2.02,4.08-1.4,1.04-3.38,1.56-5.91,1.56-2.31,0-4.28-.6-5.85-1.79-1.52-1.15-2.29-2.59-2.29-4.29v-.62h-4.77v.62c0,3.06,1.26,5.58,3.73,7.47,2.42,1.85,5.51,2.79,9.17,2.79s6.86-.88,9.17-2.62c2.36-1.78,3.56-4.22,3.56-7.27,0-3.69-1.69-6.26-5.03-7.64Z"/><path class="b" d="M372.68,11.42c-2.57,0-5,.74-7.2,2.2-2.19,1.45-3.93,3.47-5.15,6.01-1.22,2.52-1.83,5.38-1.83,8.5v1.26c0,3.04,.63,5.82,1.88,8.27,1.26,2.47,3.05,4.42,5.31,5.8s4.84,2.08,7.64,2.08c5.1,0,9.05-1.97,11.73-5.86l.34-.49-3.16-2.4-.38,.48c-1.11,1.42-2.35,2.46-3.69,3.1-1.34,.64-2.92,.96-4.7,.96-2.92,0-5.38-1.13-7.3-3.37-1.95-2.26-2.94-5.15-2.94-8.57v-.67c0-1.29,.03-2.18,.11-2.92,.37-3.11,1.43-5.61,3.13-7.44,1.68-1.79,3.77-2.7,6.21-2.7s4.46,.89,5.97,2.65c1.5,1.74,2.32,4.03,2.45,6.79h-13.58v4.24h18.32v-2.59c0-4.68-1.19-8.44-3.54-11.17-2.37-2.76-5.61-4.16-9.63-4.16Z"/><polygon class="b" points="387.7 16.24 398.81 16.24 398.81 44.96 403.57 44.96 403.57 16.24 415.11 16.24 415.11 12.01 387.7 12.01 387.7 16.24"/></g><g><path class="b" d="M41.8,48.37c-.92-.3-1.91-.22-2.77,.22-.86,.44-1.5,1.19-1.8,2.11-.3,.92-.22,1.91,.22,2.77,.62,1.22,1.86,1.98,3.24,1.98,.57,0,1.14-.14,1.64-.4,.86-.44,1.5-1.19,1.8-2.11,.3-.92,.22-1.91-.22-2.77-.44-.86-1.19-1.5-2.11-1.8Z"/><path class="b" d="M44.97,4.66h0c-.81-.53-1.78-.71-2.73-.51-.95,.2-1.76,.76-2.29,1.57-.53,.81-.71,1.78-.51,2.73,.2,.95,.76,1.76,1.57,2.29,.59,.38,1.27,.59,1.97,.59,1.24,0,2.38-.62,3.05-1.65,1.09-1.68,.61-3.93-1.07-5.02Z"/><path class="b" d="M54.76,26.81h0c-2.02-.1-3.71,1.44-3.81,3.44-.1,2,1.44,3.71,3.45,3.81h.18c.9,0,1.76-.33,2.43-.93,.72-.65,1.14-1.54,1.2-2.51,.1-2-1.44-3.71-3.43-3.81Z"/><path class="b" d="M9.69,12.16c-.81-.53-1.78-.71-2.73-.51-.95,.2-1.76,.76-2.29,1.57-1.09,1.68-.61,3.93,1.07,5.02,.59,.38,1.27,.59,1.97,.59,1.24,0,2.38-.62,3.05-1.65,.53-.81,.71-1.78,.51-2.73-.2-.95-.76-1.76-1.57-2.29Z"/><path class="b" d="M7.5,37.22c-.92-.3-1.91-.22-2.77,.22-.86,.44-1.5,1.19-1.8,2.11-.3,.92-.22,1.91,.22,2.77,.62,1.22,1.86,1.98,3.24,1.98,.57,0,1.14-.14,1.64-.4,1.78-.91,2.49-3.1,1.59-4.88-.44-.86-1.19-1.51-2.11-1.81Z"/><path class="b" d="M3.63,31.39c1.93,0,3.52-1.51,3.62-3.44h0c.1-2-1.44-3.71-3.45-3.82h-.18c-.9,0-1.76,.33-2.43,.93C.48,25.71,.06,26.6,0,27.57c-.05,.97,.28,1.9,.93,2.62,.65,.72,1.54,1.14,2.52,1.2h.18Z"/><path class="b" d="M51.83,21.15c.57,0,1.14-.14,1.64-.4,.86-.44,1.5-1.19,1.8-2.11,.3-.92,.22-1.91-.22-2.77-.91-1.78-3.1-2.5-4.88-1.59-.86,.44-1.5,1.19-1.8,2.11-.3,.92-.22,1.91,.22,2.77,.62,1.22,1.86,1.98,3.24,1.98Z"/><path class="b" d="M18.64,2.92h0c-.92-.3-1.91-.22-2.77,.22-.86,.44-1.5,1.19-1.8,2.11-.3,.92-.22,1.91,.22,2.77,.44,.86,1.19,1.5,2.11,1.81,.37,.12,.74,.18,1.13,.18,.57,0,1.14-.14,1.64-.4,.86-.44,1.5-1.19,1.81-2.11,.3-.92,.22-1.91-.22-2.77-.44-.86-1.19-1.5-2.11-1.81Z"/><path class="b" d="M27.95,50.94h-.02c-.98-.03-1.9,.29-2.6,.93-.72,.65-1.14,1.54-1.2,2.51-.1,2,1.44,3.71,3.45,3.82h.18c1.93,0,3.52-1.51,3.62-3.44,.1-2-1.44-3.71-3.43-3.81Z"/><path class="b" d="M17.19,47.44c-.81-.53-1.78-.71-2.73-.51-.95,.2-1.76,.76-2.29,1.57-.53,.81-.71,1.78-.51,2.73,.2,.95,.76,1.76,1.57,2.29,.59,.38,1.27,.59,1.97,.59,.25,0,.51-.03,.76-.08,.95-.2,1.76-.76,2.29-1.57,.53-.81,.71-1.78,.51-2.73-.2-.95-.76-1.76-1.57-2.29Z"/><path class="b" d="M30.62,0h-.02c-.97-.03-1.9,.29-2.6,.93-.72,.65-1.14,1.54-1.2,2.51s.28,1.9,.93,2.62c.65,.72,1.54,1.14,2.52,1.2h.18c1.93,0,3.52-1.51,3.62-3.44,.1-2-1.44-3.71-3.43-3.81Z"/><path class="b" d="M52.46,39.94c-.81-.53-1.78-.71-2.73-.51-.95,.2-1.76,.76-2.29,1.57-.53,.81-.71,1.78-.51,2.73,.2,.95,.76,1.76,1.57,2.29,.59,.38,1.27,.59,1.97,.59,1.24,0,2.38-.62,3.05-1.65,.53-.81,.71-1.78,.51-2.73-.2-.95-.76-1.76-1.57-2.29Z"/></g></svg>
