<?xml version="1.0" encoding="UTF-8"?><svg id="a" xmlns="http://www.w3.org/2000/svg" viewBox="0 0 671.95 58.19"><defs><style>.b{fill:#fff;}</style></defs><path class="b" d="M115.02,20.71h-17.88v3.3h17.88V56.64h3.88V1.55h-3.88V20.71Zm35.31-4.31c2.63,2.97,3.96,6.95,3.96,11.85v.73c0,3.07-.6,5.88-1.79,8.33-1.19,2.46-2.88,4.39-5.04,5.72-2.16,1.33-4.65,2.01-7.42,2.01-4.22,0-7.69-1.51-10.33-4.48-2.64-2.97-3.97-6.95-3.97-11.85v-.7c0-3.05,.6-5.84,1.79-8.29,1.19-2.45,2.89-4.38,5.06-5.75,2.17-1.36,4.66-2.06,7.41-2.06,4.24,0,7.72,1.51,10.35,4.48Zm-1.12,5.01c-.88-1.98-2.14-3.54-3.74-4.62-1.59-1.08-3.44-1.63-5.5-1.63-3.07,0-5.61,1.22-7.55,3.63-1.95,2.42-2.93,5.63-2.93,9.55v.64c0,3.74,.98,6.86,2.92,9.25,1.93,2.39,4.49,3.6,7.62,3.6s5.66-1.21,7.59-3.6c1.94-2.4,2.92-5.61,2.92-9.55v-.67c0-2.39-.45-4.61-1.34-6.6Zm-62.17,23.04h3.85V1.55h-3.85V44.46Zm355.64-7.36v-15c-.06-3.19-1.13-5.71-3.19-7.49-2.05-1.78-4.9-2.68-8.45-2.68s-6.36,.94-8.72,2.79c-2.36,1.86-3.56,4.1-3.56,6.65v.12l3.77,.03v-.13c0-1.71,.79-3.19,2.35-4.41,1.57-1.23,3.59-1.85,5.99-1.85,2.63,0,4.66,.64,6.02,1.92,1.36,1.27,2.05,3.04,2.05,5.25v13.25c-.83,1.85-2.16,3.35-3.97,4.46-1.82,1.12-3.91,1.68-6.22,1.68-2.07,0-3.77-.58-5.06-1.73-1.28-1.14-1.94-2.6-1.94-4.33,0-2.11,.98-3.8,2.9-5.01,1.94-1.22,4.68-1.86,8.14-1.9h1.17v-2.95h-1.26c-4.59,0-8.23,.91-10.81,2.72-2.59,1.81-3.91,4.31-3.91,7.43,0,2.62,.96,4.82,2.87,6.54,1.9,1.71,4.42,2.58,7.48,2.58,2.14,0,4.19-.44,6.1-1.32,1.81-.82,3.34-2,4.54-3.48,.11,1.79,.33,3.18,.66,4.13l.03,.08h3.96v-.53c-.64-1.5-.97-3.8-.97-6.84Zm96.22-6.47c1.28,1.41,1.92,3.06,1.92,4.92,0,2.82-1.06,5.04-3.14,6.59-2.07,1.54-5.04,2.32-8.82,2.32h-13.66V12.51h11.76c4.03,0,7.17,.73,9.33,2.17,2.18,1.45,3.28,3.61,3.28,6.42,0,1.6-.49,3.05-1.46,4.31-.89,1.15-2.17,2.03-3.81,2.61,1.88,.44,3.43,1.31,4.61,2.61Zm-3.07-9.44c0-1.88-.74-3.26-2.21-4.13-1.49-.87-3.73-1.32-6.66-1.32h-8.02v25.53h10.04c2.6,0,4.62-.5,6.02-1.5,1.38-.99,2.09-2.43,2.09-4.29,0-1.71-.7-3.08-2.09-4.09-1.4-1.01-3.42-1.53-6.02-1.53h-5.07v-3.18h3.78c5.4-.08,8.14-1.93,8.14-5.5Zm-81.76,18.45c-.81,0-1.46,.25-1.92,.76-.46,.5-.69,1.12-.69,1.83s.23,1.31,.7,1.77c.46,.46,1.11,.7,1.92,.7s1.46-.23,1.93-.7c.47-.46,.71-1.06,.71-1.77s-.24-1.33-.71-1.83c-.47-.5-1.12-.76-1.94-.76Zm107.75-27.71c-4.23,0-7.53,1.62-9.82,4.82l-.17-4.23h-3.5V56.64h3.74V21.18c.81-1.93,1.98-3.42,3.49-4.43,1.51-1.02,3.35-1.53,5.47-1.53,2.91,0,5.21,1.17,6.84,3.46,1.64,2.31,2.47,5.51,2.47,9.51,0,4.43-.83,7.85-2.45,10.17-1.62,2.31-3.9,3.48-6.8,3.48-1.28,0-2.52-.2-3.67-.6l-.17-.06v3.16l.09,.03c1.38,.45,2.91,.68,4.57,.68,3.7,0,6.69-1.48,8.89-4.4,2.19-2.91,3.31-6.89,3.31-11.84v-.5c0-5.1-1.1-9.15-3.26-12.03-2.17-2.89-5.21-4.36-9.02-4.36Zm-76.46,12.09h19.95v-3.3h-19.95V4.85h22.79V1.55h-26.65V44.46h26.79v-3.3h-22.94V24.01Zm186.58,19.92c-.63-1.5-.96-3.8-.96-6.84v-15c-.06-3.19-1.13-5.71-3.19-7.49-2.05-1.78-4.9-2.68-8.45-2.68s-6.36,.94-8.72,2.79c-2.36,1.86-3.56,4.1-3.56,6.65v.12l3.77,.03v-.13c0-1.71,.79-3.19,2.35-4.41,1.57-1.23,3.59-1.85,5.99-1.85,2.63,0,4.66,.64,6.02,1.92,1.36,1.27,2.05,3.04,2.05,5.25v13.25c-.83,1.85-2.16,3.35-3.97,4.46-1.82,1.12-3.91,1.68-6.22,1.68-2.07,0-3.77-.58-5.06-1.73-1.28-1.14-1.94-2.6-1.94-4.33,0-2.11,.98-3.8,2.9-5.01,1.94-1.22,4.68-1.86,8.14-1.9h1.17v-2.95h-1.26c-4.59,0-8.23,.91-10.81,2.72-2.59,1.81-3.91,4.31-3.91,7.43,0,2.62,.96,4.82,2.87,6.54,1.9,1.71,4.42,2.58,7.48,2.58,2.14,0,4.19-.44,6.1-1.32,1.81-.82,3.34-2,4.54-3.48,.11,1.79,.33,3.18,.66,4.13l.03,.08h3.96v-.53Zm-57.5,.53h3.77V15.8h16.83v28.65h3.77V12.51h-24.36v31.95Zm-10.18-28.05c2.63,2.97,3.96,6.95,3.96,11.85v.73c0,3.07-.6,5.88-1.79,8.33-1.19,2.46-2.88,4.39-5.04,5.72-2.16,1.33-4.65,2.01-7.42,2.01-4.22,0-7.69-1.51-10.33-4.48-2.64-2.97-3.97-6.95-3.97-11.85v-.7c0-3.05,.6-5.84,1.79-8.29,1.19-2.45,2.89-4.38,5.06-5.75,2.17-1.36,4.66-2.06,7.41-2.06,4.24,0,7.72,1.51,10.35,4.48Zm-1.12,5.01c-.88-1.98-2.14-3.54-3.74-4.62-1.59-1.08-3.44-1.63-5.5-1.63-3.07,0-5.61,1.22-7.55,3.63-1.95,2.42-2.93,5.63-2.93,9.55v.64c0,3.74,.98,6.86,2.92,9.25,1.93,2.39,4.49,3.6,7.62,3.6s5.66-1.21,7.59-3.6c1.94-2.4,2.92-5.61,2.92-9.55v-.67c0-2.39-.45-4.61-1.34-6.6Zm-386.3,15.68v-15c-.06-3.18-1.13-5.71-3.19-7.49-2.05-1.78-4.9-2.68-8.45-2.68s-6.36,.94-8.72,2.79c-2.36,1.86-3.56,4.1-3.56,6.65v.12l3.77,.03v-.13c0-1.71,.79-3.19,2.35-4.41,1.57-1.23,3.59-1.85,5.99-1.85,2.63,0,4.66,.64,6.02,1.92,1.36,1.27,2.05,3.04,2.05,5.25v13.25c-.83,1.85-2.16,3.35-3.97,4.46-1.82,1.12-3.91,1.68-6.22,1.68-2.07,0-3.77-.58-5.06-1.73-1.28-1.14-1.94-2.6-1.94-4.33,0-2.11,.98-3.8,2.9-5.01,1.94-1.22,4.68-1.86,8.14-1.9h1.17v-2.95h-1.26c-4.6,0-8.23,.91-10.81,2.72-2.59,1.81-3.91,4.31-3.91,7.43,0,2.62,.96,4.82,2.87,6.54,1.9,1.71,4.42,2.58,7.48,2.58,2.14,0,4.19-.44,6.1-1.32,1.81-.82,3.34-2,4.54-3.48,.11,1.79,.33,3.18,.66,4.13l.03,.08h3.96v-.53c-.64-1.5-.97-3.8-.97-6.84Zm57.47,7.36h3.77V15.8h16.03v-3.3h-19.79v31.95Zm-36.53-31.95h12.52v31.95h-3.77v-12.77h-9.65l-11.42,18.87h-4.14l11.67-19.35c-2.11-.58-3.78-1.69-4.96-3.28-1.21-1.64-1.83-3.59-1.83-5.82,0-2.9,1.05-5.25,3.14-6.98,2.08-1.73,4.92-2.61,8.44-2.61Zm-7.81,9.65c0,1.81,.58,3.32,1.74,4.48,1.15,1.16,2.78,1.77,4.85,1.81h9.98V15.74h-8.84c-2.4,0-4.31,.58-5.68,1.73-1.36,1.14-2.05,2.72-2.05,4.68Zm158.21-6.41h11.1v28.71h3.77V15.74h11.54v-3.24h-26.41v3.24Zm-203.85,14.88c1.28,1.41,1.92,3.06,1.92,4.92,0,2.82-1.06,5.04-3.14,6.59-2.07,1.54-5.04,2.32-8.82,2.32h-13.66V12.51h11.76c4.03,0,7.17,.73,9.33,2.17,2.18,1.45,3.28,3.61,3.28,6.42,0,1.6-.49,3.05-1.46,4.31-.89,1.15-2.17,2.03-3.81,2.61,1.88,.44,3.43,1.31,4.61,2.61Zm-3.07-9.44c0-1.88-.74-3.26-2.21-4.13-1.49-.87-3.73-1.32-6.66-1.32h-8.02v25.53h10.04c2.6,0,4.62-.5,6.02-1.5,1.38-.99,2.09-2.43,2.09-4.29,0-1.71-.7-3.08-2.09-4.09-1.4-1.01-3.42-1.53-6.02-1.53h-5.07v-3.18h3.78c5.4-.08,8.14-1.93,8.14-5.5Zm141.17,15.91v-15c-.06-3.19-1.13-5.71-3.19-7.49-2.05-1.78-4.9-2.68-8.45-2.68s-6.36,.94-8.72,2.79c-2.36,1.86-3.56,4.1-3.56,6.65v.12l3.77,.03v-.13c0-1.71,.79-3.19,2.35-4.41,1.57-1.23,3.59-1.85,5.99-1.85,2.63,0,4.66,.64,6.02,1.92,1.36,1.27,2.05,3.04,2.05,5.25v13.25c-.83,1.85-2.16,3.35-3.97,4.46-1.82,1.12-3.91,1.68-6.22,1.68-2.07,0-3.77-.58-5.06-1.73-1.28-1.14-1.94-2.6-1.94-4.33,0-2.11,.98-3.8,2.9-5.01,1.94-1.22,4.68-1.86,8.14-1.9h1.17v-2.95h-1.26c-4.59,0-8.23,.91-10.81,2.72-2.59,1.81-3.91,4.31-3.91,7.43,0,2.62,.96,4.82,2.87,6.54,1.9,1.71,4.42,2.58,7.48,2.58,2.14,0,4.19-.44,6.1-1.32,1.81-.82,3.33-1.99,4.54-3.48,.11,1.79,.33,3.18,.66,4.13l.03,.08h3.96v-.53c-.64-1.5-.97-3.8-.97-6.84Zm50.23-25.17c-2.47,0-4.8,.71-6.92,2.12-2.12,1.4-3.79,3.36-4.98,5.81-1.18,2.45-1.79,5.24-1.79,8.29v1.26c0,2.96,.62,5.66,1.83,8.04,1.22,2.38,2.94,4.27,5.13,5.6,2.19,1.33,4.67,2.01,7.38,2.01,4.92,0,8.73-1.9,11.32-5.65l.07-.1-2.39-1.82-.08,.1c-1.15,1.48-2.45,2.57-3.87,3.25-1.41,.67-3.06,1.01-4.91,1.01-3.07,0-5.66-1.19-7.68-3.55-2.03-2.36-3.06-5.35-3.06-8.9v-.67c0-1.3,.03-2.21,.12-2.97,.39-3.22,1.48-5.82,3.26-7.72,1.77-1.9,3.99-2.86,6.57-2.86s4.74,.95,6.35,2.83c1.61,1.88,2.48,4.36,2.58,7.36v.26h-13.58v3.24h17.32v-2.09c0-4.56-1.15-8.21-3.41-10.85-2.27-2.64-5.38-3.98-9.25-3.98Zm-25.04,16.13c1.65-.68,2.93-1.61,3.82-2.78,.95-1.25,1.43-2.66,1.43-4.21,0-2.9-1.04-5.17-3.1-6.75-2.04-1.57-4.93-2.37-8.57-2.37-3.31,0-6.14,.88-8.41,2.6-2.28,1.74-3.43,3.97-3.43,6.63v.12h3.74v-.12c0-1.73,.8-3.18,2.37-4.31,1.58-1.14,3.52-1.72,5.74-1.72,2.46,0,4.42,.51,5.82,1.53,1.38,1.01,2.09,2.46,2.09,4.32,0,3.58-2.35,5.38-7.17,5.5h-5.54v3.3h4.96c2.81,0,4.93,.47,6.29,1.38,1.34,.91,2.03,2.42,2.03,4.5,0,1.88-.75,3.39-2.22,4.48-1.48,1.1-3.57,1.66-6.21,1.66-2.42,0-4.49-.64-6.15-1.89-1.65-1.25-2.48-2.83-2.48-4.69v-.12h-3.77v.12c0,2.9,1.19,5.28,3.54,7.07,2.34,1.79,5.32,2.69,8.87,2.69s6.65-.85,8.86-2.52c2.23-1.68,3.36-3.99,3.36-6.87,0-3.86-1.96-6.4-5.83-7.58Z"/><g><path class="b" d="M41.8,48.37c-.92-.3-1.91-.22-2.77,.22-.86,.44-1.5,1.19-1.8,2.11-.3,.92-.22,1.91,.22,2.77,.62,1.22,1.86,1.98,3.24,1.98,.57,0,1.14-.14,1.64-.4,.86-.44,1.5-1.19,1.8-2.11,.3-.92,.22-1.91-.22-2.77-.44-.86-1.19-1.5-2.11-1.8Z"/><path class="b" d="M44.97,4.66h0c-.81-.53-1.78-.71-2.73-.51-.95,.2-1.76,.76-2.29,1.57-.53,.81-.71,1.78-.51,2.73,.2,.95,.76,1.76,1.57,2.29,.59,.38,1.27,.59,1.97,.59,1.24,0,2.38-.62,3.05-1.65,1.09-1.68,.61-3.93-1.07-5.02Z"/><path class="b" d="M54.76,26.81h0c-2.02-.1-3.71,1.44-3.81,3.44-.1,2,1.44,3.71,3.45,3.81h.18c.9,0,1.76-.33,2.43-.93,.72-.65,1.14-1.54,1.2-2.51,.1-2-1.44-3.71-3.43-3.81Z"/><path class="b" d="M9.69,12.16c-.81-.53-1.78-.71-2.73-.51-.95,.2-1.76,.76-2.29,1.57-1.09,1.68-.61,3.93,1.07,5.02,.59,.38,1.27,.59,1.97,.59,1.24,0,2.38-.62,3.05-1.65,.53-.81,.71-1.78,.51-2.73-.2-.95-.76-1.76-1.57-2.29Z"/><path class="b" d="M7.5,37.22c-.92-.3-1.91-.22-2.77,.22-.86,.44-1.5,1.19-1.8,2.11-.3,.92-.22,1.91,.22,2.77,.62,1.22,1.86,1.98,3.24,1.98,.57,0,1.14-.14,1.64-.4,1.78-.91,2.49-3.1,1.59-4.88-.44-.86-1.19-1.51-2.11-1.81Z"/><path class="b" d="M3.63,31.39c1.93,0,3.52-1.51,3.62-3.44h0c.1-2-1.44-3.71-3.45-3.82h-.18c-.9,0-1.76,.33-2.43,.93C.48,25.71,.06,26.6,0,27.57c-.05,.97,.28,1.9,.93,2.62,.65,.72,1.54,1.14,2.52,1.2h.18Z"/><path class="b" d="M51.83,21.15c.57,0,1.14-.14,1.64-.4,.86-.44,1.5-1.19,1.8-2.11,.3-.92,.22-1.91-.22-2.77-.91-1.78-3.1-2.5-4.88-1.59-.86,.44-1.5,1.19-1.8,2.11-.3,.92-.22,1.91,.22,2.77,.62,1.22,1.86,1.98,3.24,1.98Z"/><path class="b" d="M18.64,2.92h0c-.92-.3-1.91-.22-2.77,.22-.86,.44-1.5,1.19-1.8,2.11-.3,.92-.22,1.91,.22,2.77,.44,.86,1.19,1.5,2.11,1.81,.37,.12,.74,.18,1.13,.18,.57,0,1.14-.14,1.64-.4,.86-.44,1.5-1.19,1.81-2.11,.3-.92,.22-1.91-.22-2.77-.44-.86-1.19-1.5-2.11-1.81Z"/><path class="b" d="M27.95,50.94h-.02c-.98-.03-1.9,.29-2.6,.93-.72,.65-1.14,1.54-1.2,2.51-.1,2,1.44,3.71,3.45,3.82h.18c1.93,0,3.52-1.51,3.62-3.44,.1-2-1.44-3.71-3.43-3.81Z"/><path class="b" d="M17.19,47.44c-.81-.53-1.78-.71-2.73-.51-.95,.2-1.76,.76-2.29,1.57-.53,.81-.71,1.78-.51,2.73,.2,.95,.76,1.76,1.57,2.29,.59,.38,1.27,.59,1.97,.59,.25,0,.51-.03,.76-.08,.95-.2,1.76-.76,2.29-1.57,.53-.81,.71-1.78,.51-2.73-.2-.95-.76-1.76-1.57-2.29Z"/><path class="b" d="M30.62,0h-.02c-.97-.03-1.9,.29-2.6,.93-.72,.65-1.14,1.54-1.2,2.51s.28,1.9,.93,2.62c.65,.72,1.54,1.14,2.52,1.2h.18c1.93,0,3.52-1.51,3.62-3.44,.1-2-1.44-3.71-3.43-3.81Z"/><path class="b" d="M52.46,39.94c-.81-.53-1.78-.71-2.73-.51-.95,.2-1.76,.76-2.29,1.57-.53,.81-.71,1.78-.51,2.73,.2,.95,.76,1.76,1.57,2.29,.59,.38,1.27,.59,1.97,.59,1.24,0,2.38-.62,3.05-1.65,.53-.81,.71-1.78,.51-2.73-.2-.95-.76-1.76-1.57-2.29Z"/></g></svg>