<?xml version="1.0" encoding="utf-8"?>
<!-- Generator: Adobe Illustrator 23.0.6, SVG Export Plug-In . SVG Version: 6.00 Build 0)  -->
<svg version="1.1" id="Слой_1" xmlns="http://www.w3.org/2000/svg" xmlns:xlink="http://www.w3.org/1999/xlink" x="0px" y="0px"
	 viewBox="0 0 710 435" style="enable-background:new 0 0 710 435;" xml:space="preserve">
<style type="text/css">
	.st0{fill:#FFFFFF;}
	.st1{fill:#A6A6A6;}
	.st2{fill:#494A4D;}
	.st3{fill:none;stroke:#BF381D;stroke-width:2;stroke-linecap:round;}
	.st4{fill:none;stroke:#00ABE5;stroke-width:2;stroke-linecap:round;}
</style>
<g>
	<path class="st0" d="M0-0.5h710v435H0V-0.5z"/>
	<path class="st1" d="M542.2,426c0.5,0,0.8-0.1,1-0.4c0.2-0.3,0.3-0.6,0.3-1.1v-2.3c0-0.5,0.1-0.9,0.2-1.2c0.1-0.4,0.3-0.6,0.6-0.9
		c0.3-0.2,0.6-0.4,1.1-0.6c0.4-0.1,1-0.2,1.6-0.2h0.3v1.9h-0.4c-0.5,0-0.8,0.1-1,0.3c-0.2,0.2-0.2,0.5-0.2,1v2.1
		c0,0.5-0.1,1-0.2,1.4c-0.1,0.4-0.4,0.7-0.9,1c0.4,0.3,0.7,0.6,0.9,1c0.2,0.4,0.2,0.8,0.2,1.4v2.1c0,0.4,0.1,0.8,0.2,1
		c0.2,0.2,0.5,0.3,1,0.3h0.4v1.9H547c-0.7,0-1.2-0.1-1.6-0.2c-0.4-0.1-0.8-0.3-1.1-0.5c-0.3-0.2-0.5-0.5-0.6-0.9
		c-0.1-0.4-0.2-0.8-0.2-1.2v-2.4c0-0.4-0.1-0.8-0.3-1.1s-0.5-0.4-1-0.4V426z"/>
	<path class="st1" d="M558.9,420.8h2.4l-0.1,13.7h-2.4l0.1-7.5h-4.1v4.6h-2.4v-10.8h2.4v4.1h4.1V420.8L558.9,420.8z"/>
	<path class="st1" d="M571.4,427.5c0,0.6-0.1,1.2-0.3,1.8c-0.2,0.5-0.5,1-0.8,1.4c-0.4,0.4-0.8,0.7-1.3,0.9c-0.5,0.2-1,0.3-1.7,0.3
		c-0.6,0-1.1-0.1-1.6-0.3c-0.5-0.2-0.9-0.5-1.3-0.9c-0.4-0.4-0.6-0.8-0.8-1.4c-0.2-0.5-0.3-1.1-0.3-1.8c0-0.6,0.1-1.2,0.3-1.8
		c0.2-0.5,0.5-1,0.8-1.4c0.4-0.4,0.8-0.7,1.3-0.9c0.5-0.2,1-0.3,1.6-0.3c0.6,0,1.1,0.1,1.6,0.3c0.5,0.2,0.9,0.5,1.3,0.9
		c0.4,0.4,0.6,0.8,0.8,1.4C571.3,426.3,571.4,426.9,571.4,427.5z M569,427.5c0-0.7-0.1-1.3-0.4-1.7c-0.3-0.4-0.7-0.6-1.2-0.6
		c-0.5,0-0.9,0.2-1.2,0.6c-0.3,0.4-0.4,1-0.4,1.7c0,0.7,0.2,1.3,0.4,1.7c0.3,0.4,0.7,0.6,1.2,0.6c0.5,0,0.9-0.2,1.2-0.6
		C568.8,428.8,569,428.2,569,427.5z"/>
	<path class="st1" d="M576.7,431.8c-0.3,0-0.6,0-0.9,0c-0.3,0-0.7-0.1-1-0.1c-0.3,0-0.6-0.1-0.9-0.1c-0.3,0-0.5-0.1-0.7-0.1v-7.9
		c0.2,0,0.4-0.1,0.7-0.1c0.3,0,0.6-0.1,0.9-0.1c0.3,0,0.7-0.1,1-0.1c0.3,0,0.6,0,0.9,0c0.7,0,1.2,0.1,1.7,0.2
		c0.5,0.1,0.8,0.3,1.1,0.5c0.3,0.2,0.5,0.5,0.6,0.7c0.1,0.3,0.2,0.5,0.2,0.8c0,0.4-0.1,0.7-0.3,1c-0.2,0.3-0.4,0.5-0.7,0.6
		c0.1,0.1,0.3,0.1,0.4,0.3c0.2,0.1,0.3,0.2,0.4,0.4c0.1,0.2,0.2,0.3,0.3,0.6c0.1,0.2,0.1,0.5,0.1,0.8c0,0.3-0.1,0.7-0.2,1
		c-0.1,0.3-0.3,0.6-0.7,0.8s-0.7,0.4-1.2,0.6C578.1,431.7,577.5,431.8,576.7,431.8z M576.8,426.6c0.4,0,0.7,0,0.9-0.1
		c0.2-0.1,0.4-0.3,0.4-0.6c0-0.3-0.1-0.5-0.4-0.6c-0.3-0.1-0.6-0.2-1.1-0.2c-0.1,0-0.3,0-0.6,0c-0.2,0-0.4,0-0.6,0.1v1.5H576.8
		L576.8,426.6z M575.5,429.9c0.1,0,0.3,0,0.6,0.1c0.2,0,0.5,0,0.7,0c0.5,0,0.9-0.1,1.2-0.2c0.3-0.1,0.4-0.4,0.4-0.7
		c0-0.3-0.1-0.6-0.4-0.7c-0.3-0.1-0.7-0.2-1.2-0.2h-1.4V429.9L575.5,429.9z"/>
	<path class="st1" d="M585.4,423.2c0.7,0,1.3,0.1,1.7,0.2c0.5,0.2,0.8,0.4,1.1,0.7c0.3,0.3,0.5,0.6,0.6,1.1c0.1,0.4,0.2,0.9,0.2,1.4
		v4.8c-0.3,0.1-0.8,0.1-1.4,0.2c-0.6,0.1-1.3,0.1-2.1,0.1c-0.5,0-1,0-1.4-0.1c-0.4-0.1-0.8-0.2-1.1-0.5c-0.3-0.2-0.6-0.5-0.7-0.8
		c-0.2-0.4-0.2-0.8-0.2-1.3c0-0.5,0.1-0.9,0.3-1.2c0.2-0.3,0.5-0.6,0.8-0.8c0.3-0.2,0.7-0.3,1.1-0.4c0.4-0.1,0.9-0.1,1.3-0.1
		c0.3,0,0.6,0,0.8,0c0.2,0,0.4,0.1,0.6,0.1v-0.2c0-0.4-0.1-0.7-0.4-1c-0.2-0.2-0.7-0.3-1.2-0.3c-0.4,0-0.8,0-1.2,0.1
		c-0.4,0.1-0.7,0.1-1,0.2l-0.3-1.9c0.1,0,0.3-0.1,0.5-0.1c0.2,0,0.4-0.1,0.7-0.1c0.2,0,0.5-0.1,0.8-0.1
		C584.9,423.2,585.2,423.2,585.4,423.2z M585.6,430c0.2,0,0.4,0,0.7,0c0.2,0,0.4,0,0.5,0v-1.8c-0.1,0-0.2,0-0.4-0.1
		c-0.2,0-0.4,0-0.5,0c-0.2,0-0.4,0-0.6,0c-0.2,0-0.4,0.1-0.5,0.2c-0.2,0.1-0.3,0.2-0.4,0.3c-0.1,0.1-0.1,0.3-0.1,0.5
		c0,0.4,0.1,0.6,0.4,0.8C584.8,429.9,585.2,430,585.6,430z"/>
	<path class="st1" d="M594.5,428.7c-0.3,0.5-0.6,1-0.9,1.5c-0.3,0.5-0.5,1-0.8,1.4h-2.4c0.3-0.7,0.6-1.3,0.9-1.8s0.6-1,0.9-1.5
		c-0.4-0.2-0.8-0.5-1-0.9c-0.3-0.4-0.4-0.8-0.4-1.3c0-0.9,0.3-1.6,1-2.1c0.7-0.5,1.6-0.7,2.7-0.7c0.3,0,0.5,0,0.9,0
		c0.3,0,0.6,0.1,0.9,0.1c0.3,0,0.6,0.1,0.9,0.1c0.3,0,0.5,0.1,0.7,0.1v8h-2.3v-2.9H594.5z M595.7,425.1c-0.1,0-0.3,0-0.5,0
		c-0.2,0-0.4,0-0.6,0c-0.6,0-1,0.1-1.2,0.3c-0.2,0.2-0.3,0.4-0.3,0.7c0,0.2,0,0.4,0.1,0.5c0.1,0.1,0.2,0.2,0.3,0.3
		c0.1,0.1,0.3,0.1,0.5,0.2c0.2,0,0.3,0,0.5,0h1.1V425.1L595.7,425.1z"/>
	<path class="st1" d="M606.2,424.9c0,0.5-0.2,0.8-0.4,1.1c-0.3,0.2-0.6,0.4-1,0.4c-0.4,0-0.7-0.1-1-0.4c-0.3-0.2-0.5-0.6-0.5-1.1
		s0.2-0.8,0.5-1.1c0.3-0.2,0.6-0.4,1-0.4c0.4,0,0.7,0.1,1,0.4C606.1,424,606.2,424.4,606.2,424.9z M606.2,430.4
		c0,0.5-0.2,0.8-0.4,1.1c-0.3,0.2-0.6,0.4-1,0.4c-0.4,0-0.7-0.1-1-0.4c-0.3-0.2-0.5-0.6-0.5-1.1s0.2-0.8,0.5-1.1
		c0.3-0.2,0.6-0.4,1-0.4c0.4,0,0.7,0.1,1,0.4C606.1,429.6,606.2,429.9,606.2,430.4z"/>
	<path class="st1" d="M610.7,429.5h1.6c0.4-0.7,0.7-1.3,0.9-2c0.2-0.7,0.4-1.3,0.5-2c0.1-0.7,0.2-1.4,0.2-2.1c0-0.7,0-1.5,0-2.3
		v-0.4h7.1v8.7h1.9v5h-2.3v-2.9h-7.5v2.9h-2.3V429.5z M616.2,422.9c0,0.6-0.1,1.1-0.1,1.7c0,0.6-0.1,1.2-0.2,1.8
		c-0.1,0.6-0.2,1.1-0.4,1.7c-0.2,0.6-0.4,1.1-0.6,1.5h3.9v-6.7H616.2z"/>
	<path class="st1" d="M627.3,423.2c0.7,0,1.3,0.1,1.7,0.2c0.5,0.2,0.8,0.4,1.1,0.7c0.3,0.3,0.5,0.6,0.6,1.1c0.1,0.4,0.2,0.9,0.2,1.4
		v4.8c-0.3,0.1-0.8,0.1-1.4,0.2c-0.6,0.1-1.3,0.1-2.2,0.1c-0.5,0-1,0-1.4-0.1c-0.4-0.1-0.8-0.2-1.1-0.5c-0.3-0.2-0.5-0.5-0.7-0.8
		c-0.2-0.4-0.2-0.8-0.2-1.3c0-0.5,0.1-0.9,0.3-1.2c0.2-0.3,0.4-0.6,0.8-0.8c0.3-0.2,0.7-0.3,1.1-0.4c0.4-0.1,0.9-0.1,1.3-0.1
		c0.3,0,0.6,0,0.8,0c0.2,0,0.4,0.1,0.6,0.1v-0.2c0-0.4-0.1-0.7-0.4-1c-0.2-0.2-0.7-0.3-1.2-0.3c-0.4,0-0.8,0-1.2,0.1
		c-0.4,0.1-0.7,0.1-1,0.2l-0.3-1.9c0.1,0,0.3-0.1,0.5-0.1c0.2,0,0.4-0.1,0.7-0.1c0.2,0,0.5-0.1,0.8-0.1
		C626.7,423.2,627,423.2,627.3,423.2z M627.5,430c0.2,0,0.4,0,0.7,0c0.2,0,0.4,0,0.5,0v-1.8c-0.1,0-0.2,0-0.4-0.1
		c-0.2,0-0.4,0-0.5,0c-0.2,0-0.4,0-0.6,0c-0.2,0-0.4,0.1-0.5,0.2c-0.1,0.1-0.2,0.2-0.3,0.3c-0.1,0.1-0.1,0.3-0.1,0.5
		c0,0.4,0.1,0.6,0.4,0.8C626.7,429.9,627,430,627.5,430z"/>
	<path class="st1" d="M639.7,425.3h-2.6v6.3h-2.3v-6.3h-2.6v-1.9h7.6V425.3L639.7,425.3z"/>
	<path class="st1" d="M644.1,423.2c0.7,0,1.3,0.1,1.7,0.2c0.5,0.2,0.8,0.4,1.1,0.7c0.3,0.3,0.5,0.6,0.6,1.1c0.1,0.4,0.2,0.9,0.2,1.4
		v4.8c-0.3,0.1-0.8,0.1-1.4,0.2c-0.6,0.1-1.3,0.1-2.2,0.1c-0.5,0-1,0-1.4-0.1c-0.4-0.1-0.8-0.2-1.1-0.5c-0.3-0.2-0.6-0.5-0.7-0.8
		c-0.2-0.4-0.2-0.8-0.2-1.3c0-0.5,0.1-0.9,0.3-1.2c0.2-0.3,0.4-0.6,0.8-0.8c0.3-0.2,0.7-0.3,1.1-0.4c0.4-0.1,0.8-0.1,1.3-0.1
		c0.3,0,0.6,0,0.8,0c0.2,0,0.4,0.1,0.6,0.1v-0.2c0-0.4-0.1-0.7-0.4-1c-0.2-0.2-0.7-0.3-1.2-0.3c-0.4,0-0.8,0-1.2,0.1
		c-0.4,0.1-0.7,0.1-1,0.2l-0.3-1.9c0.1,0,0.3-0.1,0.5-0.1c0.2,0,0.4-0.1,0.7-0.1c0.2,0,0.5-0.1,0.8-0.1
		C643.5,423.2,643.8,423.2,644.1,423.2z M644.3,430c0.2,0,0.4,0,0.7,0c0.2,0,0.4,0,0.5,0v-1.8c-0.1,0-0.2,0-0.4-0.1
		c-0.2,0-0.4,0-0.5,0c-0.2,0-0.4,0-0.6,0c-0.2,0-0.4,0.1-0.5,0.2c-0.1,0.1-0.2,0.2-0.3,0.3c-0.1,0.1-0.1,0.3-0.1,0.5
		c0,0.4,0.1,0.6,0.4,0.8C643.5,429.9,643.8,430,644.3,430z"/>
	<path class="st1" d="M649.3,425.9h4.5v2.1h-4.5V425.9z"/>
	<path class="st1" d="M663.2,427.5c0,0.6-0.1,1.2-0.3,1.8c-0.2,0.5-0.5,1-0.8,1.4c-0.4,0.4-0.8,0.7-1.3,0.9
		c-0.5,0.2-1.1,0.3-1.7,0.3c-0.6,0-1.2-0.1-1.6-0.3c-0.5-0.2-0.9-0.5-1.3-0.9c-0.3-0.4-0.6-0.8-0.8-1.4c-0.2-0.5-0.3-1.1-0.3-1.8
		c0-0.6,0.1-1.2,0.3-1.8c0.2-0.5,0.5-1,0.8-1.4c0.4-0.4,0.8-0.7,1.3-0.9c0.5-0.2,1-0.3,1.6-0.3c0.6,0,1.1,0.1,1.6,0.3
		c0.5,0.2,0.9,0.5,1.3,0.9c0.3,0.4,0.6,0.8,0.8,1.4C663,426.3,663.2,426.9,663.2,427.5z M660.8,427.5c0-0.7-0.2-1.3-0.4-1.7
		c-0.3-0.4-0.7-0.6-1.2-0.6c-0.5,0-0.9,0.2-1.2,0.6c-0.3,0.4-0.4,1-0.4,1.7c0,0.7,0.1,1.3,0.4,1.7c0.3,0.4,0.7,0.6,1.2,0.6
		c0.5,0,0.9-0.2,1.2-0.6C660.6,428.8,660.8,428.2,660.8,427.5z"/>
	<path class="st1" d="M671.7,425.3h-2.6v6.3h-2.3v-6.3h-2.6v-1.9h7.6V425.3z"/>
	<path class="st1" d="M671.9,429.7h1c0.3-0.4,0.5-0.8,0.7-1.3c0.2-0.5,0.3-1.1,0.3-1.7c0.1-0.6,0.1-1.2,0.1-1.8c0-0.6,0-1.1,0-1.6
		h6.4v6.3h1.4v4.2h-2v-2.3h-6v2.3h-2V429.7z M678.1,429.7v-4.4h-1.9c0,0.4,0,0.7-0.1,1.1c0,0.4-0.1,0.8-0.1,1.2
		c-0.1,0.4-0.2,0.8-0.3,1.1c-0.1,0.4-0.3,0.7-0.4,1H678.1L678.1,429.7z"/>
	<path class="st1" d="M682.8,427.6c0-0.7,0.1-1.4,0.3-1.9c0.2-0.5,0.5-1,0.9-1.4c0.4-0.4,0.8-0.6,1.2-0.8c0.5-0.2,1-0.3,1.5-0.3
		c1.2,0,2.1,0.4,2.8,1.1c0.7,0.7,1,1.8,1,3.1c0,0.1,0,0.3,0,0.5s0,0.3,0,0.4h-5.3c0.1,0.5,0.3,0.9,0.7,1.1c0.4,0.3,0.9,0.4,1.6,0.4
		c0.4,0,0.8,0,1.3-0.1s0.7-0.2,1-0.3l0.3,1.9c-0.1,0.1-0.3,0.1-0.5,0.2c-0.2,0.1-0.4,0.1-0.7,0.2c-0.2,0-0.5,0.1-0.8,0.1
		s-0.6,0.1-0.9,0.1c-0.7,0-1.4-0.1-1.9-0.3c-0.5-0.2-1-0.5-1.3-0.9s-0.6-0.8-0.8-1.3C682.9,428.7,682.8,428.2,682.8,427.6z
		 M688.3,426.7c0-0.2,0-0.4-0.1-0.6c0-0.2-0.1-0.3-0.3-0.5c-0.1-0.1-0.3-0.3-0.5-0.4c-0.2-0.1-0.4-0.1-0.7-0.1
		c-0.3,0-0.5,0.1-0.7,0.1c-0.2,0.1-0.3,0.2-0.5,0.4c-0.1,0.1-0.2,0.3-0.3,0.5c-0.1,0.2-0.1,0.4-0.2,0.6H688.3L688.3,426.7
		L688.3,426.7z"/>
	<path class="st1" d="M696,425.3c0,0.3,0,0.6,0,1c0,0.3,0,0.7-0.1,1c0,0.3-0.1,0.7-0.2,1c-0.1,0.3-0.2,0.6-0.3,0.9
		c-0.1,0.3-0.3,0.6-0.5,0.9c-0.2,0.3-0.4,0.5-0.7,0.8c-0.3,0.2-0.7,0.4-1.1,0.6c-0.4,0.1-0.9,0.2-1.5,0.3l-0.3-1.9
		c0.5-0.1,0.9-0.3,1.2-0.5c0.3-0.2,0.5-0.4,0.7-0.7c0.1-0.3,0.2-0.6,0.3-0.9c0.1-0.3,0.1-0.7,0.1-1.1c0-0.4,0.1-0.8,0.1-1.2
		c0-0.4,0-0.8,0-1.1v-0.9h6.1v8.2h-2.3v-6.3H696z"/>
	<path class="st1" d="M710,427.9c-0.5,0-0.8,0.1-1,0.4c-0.2,0.3-0.3,0.6-0.3,1.1v2.4c0,0.5-0.1,0.8-0.2,1.2
		c-0.1,0.3-0.3,0.6-0.6,0.9c-0.3,0.2-0.6,0.4-1.1,0.5c-0.5,0.1-1,0.2-1.7,0.2h-0.3v-1.9h0.4c0.5,0,0.8-0.1,0.9-0.3
		c0.2-0.2,0.2-0.5,0.2-1v-2.1c0-0.5,0.1-1,0.2-1.4c0.2-0.4,0.4-0.7,0.9-1c-0.4-0.3-0.7-0.6-0.9-1c-0.1-0.4-0.2-0.8-0.2-1.4v-2.1
		c0-0.4-0.1-0.8-0.2-1c-0.2-0.2-0.5-0.3-0.9-0.3h-0.4v-1.9h0.3c0.7,0,1.2,0.1,1.7,0.2c0.4,0.1,0.8,0.3,1.1,0.6
		c0.3,0.2,0.5,0.5,0.6,0.9c0.1,0.3,0.2,0.8,0.2,1.2v2.4c0,0.4,0.1,0.8,0.3,1.1c0.2,0.3,0.5,0.4,1,0.4V427.9z"/>
	<path class="st2" d="M14.9,19.1h-2.8v-3.7h-9v3.7H0.2L0,13h1.1c0.6-0.5,1.1-1.2,1.4-2.2c0.3-1,0.5-2.2,0.7-3.6l0.4-6.6h9.8V13h1.8
		L14.9,19.1z M4.7,13h5.7V3H6.6L6.3,7C6.1,9.6,5.5,11.6,4.7,13z M20.7,11.3l2-6.9H26l-4.5,12.8l-0.2,0.6C20.6,19.2,19.5,20,18,20
		c-0.4,0-0.9-0.1-1.3-0.2v-2.2l0.5,0c0.6,0,1-0.1,1.3-0.3c0.3-0.2,0.5-0.4,0.7-0.9l0.3-0.9L15.5,4.4h3.2L20.7,11.3z M32.6,5
		C34,5,35.2,5.5,36,6.4s1.3,2.2,1.3,3.8v0.1c0,1.6-0.5,2.9-1.4,3.9c-0.9,1-2.2,1.4-3.8,1.4c-1.6,0-2.9-0.5-3.8-1.6
		c-0.9-1.1-1.4-2.5-1.4-4.2V9.4c0-2.5,0.4-4.4,1.3-5.9c0.8-1.4,2.1-2.3,3.8-2.7c0.9-0.2,1.4-0.4,1.7-0.6c0.2-0.2,0.4-0.4,0.4-0.8
		h2.4c0,1.1-0.3,1.9-0.9,2.4c-0.6,0.5-1.6,1-3.1,1.2c-0.9,0.2-1.6,0.5-2.1,1c-0.5,0.5-0.9,1.2-1,2.2C30.2,5.4,31.3,5,32.6,5z
		 M32.1,7.4c-0.7,0-1.2,0.2-1.6,0.7s-0.6,1.2-0.6,2.3c0,0.9,0.2,1.7,0.6,2.2c0.4,0.5,1,0.7,1.7,0.7c0.7,0,1.3-0.2,1.7-0.7
		c0.4-0.5,0.6-1.2,0.6-2.1v-0.2c0-0.9-0.2-1.6-0.6-2.1C33.3,7.6,32.8,7.4,32.1,7.4z M45.8,4.4h3v11.1h-3V8.6L42,15.5h-3V4.4h3v6.8
		L45.8,4.4z M60.6,15.5h-3v-4.3H54v4.3h-3V4.4h3v4.4h3.7V4.4h3V15.5z M67.3,11.4h-1.2v4.1h-3V4.4h3v4.2h1l2.4-4.2h3.7l-3.6,5.3
		l4,5.8h-3.9L67.3,11.4z M81.2,15.5c-0.1-0.3-0.2-0.6-0.3-1c-0.7,0.8-1.6,1.2-2.8,1.2c-1.1,0-2-0.3-2.7-0.9
		c-0.7-0.6-1.1-1.4-1.1-2.4c0-1.2,0.4-2.1,1.3-2.7c0.9-0.6,2.1-0.9,3.8-0.9h1.4V8.1c0-0.5-0.1-0.9-0.4-1.2c-0.3-0.3-0.7-0.5-1.2-0.5
		c-0.5,0-0.9,0.1-1.2,0.4c-0.3,0.2-0.4,0.6-0.4,1h-3c0-0.6,0.2-1.2,0.6-1.8c0.4-0.5,1-1,1.7-1.3c0.7-0.3,1.5-0.5,2.4-0.5
		c1.4,0,2.5,0.3,3.3,1c0.8,0.7,1.2,1.6,1.2,2.9v4.8c0,1.1,0.2,1.8,0.4,2.4v0.2H81.2z M78.7,13.4c0.4,0,0.8-0.1,1.2-0.3
		c0.4-0.2,0.6-0.4,0.8-0.8v-1.9h-1.1c-1.5,0-2.3,0.5-2.4,1.5l0,0.2c0,0.4,0.1,0.7,0.4,0.9C77.9,13.3,78.3,13.4,78.7,13.4z
		 M100.9,15.5h-3V6.8h-3.7v8.7h-3V4.4h9.6V15.5z M113.1,10c0,1.7-0.4,3.1-1.2,4.1c-0.8,1-1.8,1.5-3.1,1.5c-1.1,0-2-0.4-2.7-1.2v5.2
		h-3V4.4h2.8l0.1,1.1c0.7-0.9,1.7-1.3,2.8-1.3c1.4,0,2.4,0.5,3.2,1.5c0.8,1,1.1,2.4,1.1,4.2V10z M110.2,9.8c0-1-0.2-1.8-0.6-2.4
		c-0.4-0.6-0.9-0.8-1.6-0.8c-0.9,0-1.6,0.4-1.9,1.1v4.5c0.4,0.7,1,1.1,1.9,1.1C109.5,13.3,110.2,12.1,110.2,9.8z M121.4,15.5
		c-0.1-0.3-0.2-0.6-0.3-1c-0.7,0.8-1.7,1.2-2.8,1.2c-1.1,0-2-0.3-2.7-0.9c-0.7-0.6-1.1-1.4-1.1-2.4c0-1.2,0.4-2.1,1.3-2.7
		c0.9-0.6,2.1-0.9,3.8-0.9h1.4V8.1c0-0.5-0.1-0.9-0.4-1.2s-0.7-0.5-1.2-0.5c-0.5,0-0.9,0.1-1.2,0.4c-0.3,0.2-0.4,0.6-0.4,1h-3
		c0-0.6,0.2-1.2,0.6-1.8c0.4-0.5,1-1,1.7-1.3c0.7-0.3,1.5-0.5,2.4-0.5c1.4,0,2.4,0.3,3.2,1c0.8,0.7,1.2,1.6,1.2,2.9v4.8
		c0,1.1,0.2,1.8,0.4,2.4v0.2H121.4z M118.9,13.4c0.4,0,0.8-0.1,1.2-0.3c0.4-0.2,0.6-0.4,0.8-0.8v-1.9h-1.1c-1.5,0-2.3,0.5-2.4,1.5
		l0,0.2c0,0.4,0.1,0.7,0.4,0.9C118.1,13.3,118.5,13.4,118.9,13.4z M126.4,15.5V4.4h4.6c1.5,0,2.7,0.3,3.5,0.8
		c0.8,0.5,1.2,1.3,1.2,2.3c0,0.5-0.2,1-0.5,1.4c-0.3,0.4-0.8,0.7-1.5,0.9c0.8,0.2,1.4,0.5,1.9,0.9c0.5,0.4,0.7,1,0.7,1.6
		c0,1-0.4,1.8-1.2,2.4c-0.8,0.5-1.9,0.8-3.4,0.8H126.4z M129.4,10.9v2.2h2.4c1.1,0,1.6-0.4,1.6-1.1c0-0.8-0.5-1.1-1.5-1.1H129.4z
		 M129.4,8.9h1.8c1,0,1.6-0.4,1.6-1c0-0.4-0.1-0.7-0.4-0.9c-0.3-0.2-0.7-0.3-1.3-0.3h-1.7V8.9z M137.6,9.8c0-1.1,0.2-2.1,0.6-2.9
		c0.4-0.9,1-1.5,1.8-2c0.8-0.5,1.7-0.7,2.8-0.7c1.5,0,2.7,0.5,3.7,1.4c0.9,0.9,1.5,2.2,1.6,3.7l0,0.8c0,1.7-0.5,3.1-1.4,4.1
		s-2.2,1.5-3.8,1.5c-1.6,0-2.9-0.5-3.8-1.5c-0.9-1-1.4-2.4-1.4-4.2V9.8z M140.6,10c0,1.1,0.2,1.9,0.6,2.4c0.4,0.5,1,0.8,1.7,0.8
		c0.7,0,1.3-0.3,1.7-0.8c0.4-0.6,0.6-1.4,0.6-2.6c0-1-0.2-1.8-0.6-2.4c-0.4-0.6-1-0.8-1.7-0.8s-1.3,0.3-1.7,0.8
		C140.8,8,140.6,8.9,140.6,10z M154.6,13.3c0.5,0,1-0.1,1.3-0.4c0.3-0.3,0.5-0.7,0.5-1.2h2.8c0,0.8-0.2,1.4-0.6,2.1
		c-0.4,0.6-1,1.1-1.7,1.4c-0.7,0.3-1.5,0.5-2.3,0.5c-1.6,0-2.8-0.5-3.8-1.5c-0.9-1-1.4-2.4-1.4-4.2V9.8c0-1.7,0.5-3.1,1.4-4.1
		c0.9-1,2.1-1.5,3.7-1.5c1.4,0,2.5,0.4,3.3,1.2c0.8,0.8,1.3,1.8,1.3,3.1h-2.8c0-0.6-0.2-1-0.5-1.4c-0.3-0.4-0.8-0.5-1.3-0.5
		c-0.7,0-1.2,0.2-1.6,0.8c-0.3,0.5-0.5,1.3-0.5,2.4v0.3c0,1.1,0.2,2,0.5,2.5C153.4,13,153.9,13.3,154.6,13.3z M165.1,11.3l2.1-6.9
		h3.2l-4.5,12.8l-0.2,0.6c-0.7,1.4-1.8,2.2-3.3,2.2c-0.4,0-0.9-0.1-1.3-0.2v-2.2l0.5,0c0.6,0,1-0.1,1.2-0.3c0.3-0.2,0.5-0.4,0.7-0.9
		l0.3-0.9l-3.9-11.1h3.2L165.1,11.3z M171.6,13.1c0.7-0.7,1.1-1.4,1.4-2.1c0.2-0.7,0.4-1.7,0.4-3l0.1-3.6h8.2v8.7h1.6v5.7h-3v-3.3
		h-6.6v3.3h-3v-5.7H171.6z M175.1,13.1h3.5V6.8h-2.3l0,1.3C176.3,10.2,175.9,11.8,175.1,13.1z M191.4,4.4h3v11.1h-3V8.6l-3.7,6.8h-3
		V4.4h3v6.8L191.4,4.4z M205.9,4.4v11.1h-2.9v-3.8h-1.9l-2.1,3.8h-3l2.4-4.3c-0.7-0.3-1.2-0.7-1.5-1.2c-0.4-0.5-0.5-1.1-0.5-1.8
		c0-1.1,0.4-1.9,1.2-2.6c0.8-0.7,1.9-1,3.3-1.1H205.9z M200.9,9.6h2V6.8H201c-0.5,0-1,0.1-1.3,0.4c-0.3,0.3-0.5,0.6-0.5,1
		c0,0.4,0.2,0.7,0.5,1C200,9.4,200.4,9.6,200.9,9.6z"/>
	<path class="st1" d="M6.7,420.6h1.4v10.7H6.7v-8.2l-5.3,8.2H0v-10.7h1.4v8.2L6.7,420.6z M13.6,430.3c0.5,0,0.9-0.1,1.3-0.4
		c0.4-0.3,0.6-0.7,0.6-1.1h1.3c0,0.5-0.2,0.9-0.5,1.3s-0.7,0.7-1.1,1c-0.5,0.2-1,0.4-1.5,0.4c-1.1,0-1.9-0.4-2.6-1.1
		c-0.6-0.7-1-1.7-1-3v-0.2c0-0.8,0.1-1.5,0.4-2c0.3-0.6,0.7-1.1,1.2-1.4c0.5-0.3,1.1-0.5,1.9-0.5c0.9,0,1.6,0.3,2.2,0.8
		c0.6,0.5,0.9,1.2,0.9,2.1h-1.3c0-0.5-0.2-0.9-0.6-1.3c-0.4-0.3-0.8-0.5-1.3-0.5c-0.7,0-1.2,0.2-1.6,0.7c-0.4,0.5-0.6,1.2-0.6,2.1
		v0.3c0,0.9,0.2,1.6,0.6,2.1C12.4,430.1,12.9,430.3,13.6,430.3z M24.2,424.5h-2.7v6.8h-1.4v-6.8h-2.6v-1.1h6.6V424.5z M25.1,427.3
		c0-0.8,0.1-1.5,0.5-2.1c0.3-0.6,0.7-1.1,1.3-1.4c0.5-0.3,1.2-0.5,1.9-0.5c1.1,0,2,0.4,2.6,1.1c0.7,0.8,1,1.7,1,3v0.1
		c0,0.8-0.1,1.5-0.4,2.1c-0.3,0.6-0.7,1.1-1.3,1.4c-0.6,0.3-1.2,0.5-1.9,0.5c-1.1,0-1.9-0.4-2.6-1.1
		C25.5,429.6,25.1,428.6,25.1,427.3L25.1,427.3z M26.5,427.4c0,0.9,0.2,1.6,0.6,2.1c0.4,0.5,0.9,0.8,1.6,0.8c0.7,0,1.2-0.3,1.6-0.8
		c0.4-0.5,0.6-1.3,0.6-2.3c0-0.9-0.2-1.6-0.6-2.1c-0.4-0.5-1-0.8-1.6-0.8c-0.7,0-1.2,0.3-1.6,0.8C26.7,425.7,26.5,426.4,26.5,427.4z
		 M40,431.3h-1.4v-2.9c-0.6,0.2-1.2,0.2-1.8,0.2c-1,0-1.8-0.2-2.3-0.8c-0.5-0.5-0.8-1.2-0.8-2.2v-2.4h1.4v2.4c0,1.2,0.6,1.8,1.7,1.8
		c0.6,0,1.2-0.1,1.8-0.2v-3.9H40V431.3z M48.7,431.3h-1.4v-3.4h-3.6v3.4h-1.4v-7.9h1.4v3.4h3.6v-3.4h1.4V431.3z M56,423.4h1.4v7.9
		H56v-5.8l-3.6,5.8H51v-7.9h1.4v5.8L56,423.4z M62,427.9h-1v3.4h-1.4v-7.9H61v3.4h0.9l2.7-3.4h1.6l-3.1,3.8l3.4,4.1h-1.7L62,427.9z
		 M67.5,430.6c0-0.2,0.1-0.4,0.2-0.6c0.1-0.1,0.3-0.2,0.6-0.2c0.3,0,0.5,0.1,0.6,0.2c0.1,0.2,0.2,0.4,0.2,0.6c0,0.2-0.1,0.4-0.2,0.6
		c-0.1,0.1-0.4,0.2-0.6,0.2c-0.3,0-0.5-0.1-0.6-0.2C67.6,431,67.5,430.8,67.5,430.6z M67.6,424.1c0-0.2,0.1-0.4,0.2-0.6
		c0.1-0.2,0.4-0.2,0.6-0.2c0.3,0,0.5,0.1,0.6,0.2c0.1,0.2,0.2,0.4,0.2,0.6c0,0.2-0.1,0.4-0.2,0.6c-0.1,0.1-0.4,0.2-0.6,0.2
		c-0.3,0-0.5-0.1-0.6-0.2C67.6,424.5,67.6,424.4,67.6,424.1z M83,427.9c-0.1,1.1-0.5,2-1.2,2.6c-0.7,0.6-1.6,0.9-2.8,0.9
		c-1.3,0-2.3-0.5-3-1.4c-0.8-0.9-1.1-2.1-1.1-3.6v-1c0-1,0.2-1.9,0.5-2.6c0.4-0.8,0.9-1.3,1.5-1.7c0.6-0.4,1.4-0.6,2.3-0.6
		c1.1,0,2,0.3,2.7,1c0.7,0.6,1.1,1.5,1.2,2.6h-1.4c-0.1-0.8-0.4-1.5-0.8-1.8s-1-0.6-1.7-0.6c-0.9,0-1.6,0.3-2.1,1
		c-0.5,0.7-0.8,1.6-0.8,2.8v1c0,1.2,0.2,2.1,0.7,2.8c0.5,0.7,1.2,1,2,1c0.8,0,1.4-0.2,1.8-0.5c0.4-0.4,0.7-1,0.8-1.8H83z
		 M87.3,429.3l1.8-5.9h1.4l-3.2,9.2c-0.5,1.3-1.3,2-2.4,2l-0.3,0l-0.5-0.1v-1.1l0.4,0c0.5,0,0.8-0.1,1.1-0.3c0.3-0.2,0.5-0.5,0.6-1
		l0.3-0.8l-2.8-7.8h1.5L87.3,429.3z M91.7,430.2l0.5-0.6c0.5-0.7,0.8-1.7,0.9-3.1l0.1-3.2h5.1v6.8h1v3.4H98v-2.3h-5.5v2.3h-1.4
		l0-3.4H91.7z M93.3,430.2H97v-5.6h-2.4l-0.1,1.9C94.4,428.1,94,429.3,93.3,430.2z M104.1,431.5c-1.1,0-1.9-0.4-2.6-1.1
		c-0.7-0.7-1-1.7-1-2.8v-0.2c0-0.8,0.2-1.5,0.5-2.1c0.3-0.6,0.7-1.1,1.3-1.5c0.5-0.4,1.1-0.5,1.8-0.5c1,0,1.8,0.3,2.4,1
		c0.6,0.7,0.8,1.6,0.8,2.9v0.6h-5.4c0,0.8,0.2,1.4,0.7,1.9c0.4,0.5,1,0.7,1.7,0.7c0.5,0,0.9-0.1,1.2-0.3c0.3-0.2,0.6-0.5,0.9-0.8
		l0.8,0.6C106.5,430.9,105.5,431.5,104.1,431.5z M104,424.3c-0.5,0-1,0.2-1.4,0.6c-0.4,0.4-0.6,1-0.7,1.7h4v-0.1
		c0-0.7-0.2-1.2-0.6-1.6C105,424.5,104.5,424.3,104,424.3z M112.3,423.8c1,0,1.8,0.3,2.4,1c0.6,0.7,0.9,1.5,0.9,2.6v0.1
		c0,0.7-0.2,1.4-0.4,2c-0.3,0.6-0.7,1-1.2,1.4c-0.5,0.3-1.2,0.5-1.9,0.5c-1.1,0-1.9-0.4-2.6-1.1c-0.7-0.7-1-1.7-1-2.9v-0.7
		c0-1.7,0.3-3,0.9-4c0.6-1,1.5-1.6,2.7-1.8c0.7-0.1,1.1-0.3,1.4-0.5c0.2-0.2,0.4-0.4,0.4-0.7h1.1c0,0.6-0.1,1.1-0.4,1.4
		c-0.3,0.3-0.7,0.6-1.3,0.7l-1,0.2c-0.8,0.2-1.4,0.5-1.8,1c-0.4,0.4-0.7,1-0.8,1.8C110.4,424.2,111.2,423.8,112.3,423.8z M112,424.9
		c-0.7,0-1.2,0.2-1.6,0.7c-0.4,0.5-0.6,1.1-0.6,1.9v0.1c0,0.9,0.2,1.5,0.6,2c0.4,0.5,0.9,0.8,1.6,0.8c0.7,0,1.2-0.2,1.6-0.8
		s0.6-1.2,0.6-2.2c0-0.8-0.2-1.3-0.6-1.8C113.2,425.2,112.7,424.9,112,424.9z M123.6,431.3h-1.4v-3.4h-3.6v3.4h-1.4v-7.9h1.4v3.4
		h3.6v-3.4h1.4V431.3z M127.2,426.1h2.1c0.9,0,1.6,0.2,2.1,0.7c0.5,0.5,0.8,1.1,0.8,1.9c0,0.8-0.3,1.4-0.8,1.9
		c-0.5,0.5-1.3,0.7-2.2,0.7h-3.4v-7.9h1.4V426.1z M135,431.3h-1.4v-7.9h1.4V431.3z M127.2,427.2v3h2c0.5,0,0.9-0.1,1.2-0.4
		c0.3-0.3,0.4-0.6,0.4-1.1c0-0.4-0.1-0.8-0.4-1.1c-0.3-0.3-0.6-0.4-1.1-0.4H127.2z M142.5,423.4h1.4v7.9h-1.4v-5.8l-3.6,5.8h-1.4
		v-7.9h1.4v5.8L142.5,423.4z M142.9,420.5c0,0.6-0.2,1.1-0.6,1.4c-0.4,0.4-0.9,0.5-1.6,0.5c-0.7,0-1.2-0.2-1.6-0.5
		c-0.4-0.4-0.6-0.8-0.6-1.4h1.1c0,0.3,0.1,0.6,0.3,0.8c0.2,0.2,0.4,0.3,0.8,0.3c0.3,0,0.6-0.1,0.8-0.3c0.2-0.2,0.3-0.4,0.3-0.8
		H142.9z M149.7,430.2l0.5-0.6c0.5-0.7,0.8-1.7,0.9-3.1l0.1-3.2h5.1v6.8h1v3.4h-1.4v-2.3h-5.5v2.3h-1.3l0-3.4H149.7z M151.3,430.2
		h3.6v-5.6h-2.4l-0.1,1.9C152.3,428.1,152,429.3,151.3,430.2z M162.1,431.5c-1.1,0-2-0.4-2.6-1.1c-0.7-0.7-1-1.7-1-2.8v-0.2
		c0-0.8,0.1-1.5,0.4-2.1s0.7-1.1,1.3-1.5c0.5-0.4,1.1-0.5,1.8-0.5c1,0,1.8,0.3,2.4,1c0.6,0.7,0.9,1.6,0.9,2.9v0.6h-5.4
		c0,0.8,0.2,1.4,0.7,1.9c0.4,0.5,1,0.7,1.7,0.7c0.5,0,0.9-0.1,1.2-0.3c0.3-0.2,0.6-0.5,0.9-0.8l0.8,0.6
		C164.4,430.9,163.4,431.5,162.1,431.5z M161.9,424.3c-0.5,0-1,0.2-1.4,0.6c-0.4,0.4-0.6,1-0.7,1.7h4v-0.1c0-0.7-0.2-1.2-0.6-1.6
		C162.9,424.5,162.5,424.3,161.9,424.3z M173.2,431.3h-1.4v-6.8h-3.6v6.8h-1.4v-7.9h6.4V431.3z M180.3,431.3
		c-0.1-0.2-0.1-0.4-0.2-0.8c-0.6,0.7-1.4,1-2.3,1c-0.8,0-1.4-0.2-1.9-0.7s-0.8-1-0.8-1.7c0-0.8,0.3-1.5,0.9-1.9
		c0.6-0.5,1.5-0.7,2.6-0.7h1.3v-0.6c0-0.5-0.2-0.8-0.4-1.1c-0.3-0.3-0.7-0.4-1.2-0.4c-0.5,0-0.9,0.1-1.2,0.4
		c-0.3,0.2-0.5,0.5-0.5,0.9h-1.4c0-0.4,0.1-0.8,0.4-1.1c0.3-0.4,0.7-0.7,1.1-0.9c0.5-0.2,1-0.3,1.6-0.3c0.9,0,1.6,0.2,2.1,0.7
		c0.5,0.5,0.8,1.1,0.8,1.9v3.7c0,0.7,0.1,1.3,0.3,1.7v0.1H180.3z M178.1,430.3c0.4,0,0.8-0.1,1.2-0.3c0.4-0.2,0.6-0.5,0.8-0.9v-1.6
		H179c-1.7,0-2.5,0.5-2.5,1.5c0,0.4,0.1,0.8,0.4,1C177.2,430.1,177.6,430.3,178.1,430.3z M190.3,427.4c0,1.2-0.3,2.2-0.8,2.9
		c-0.6,0.7-1.3,1.1-2.2,1.1c-1,0-1.7-0.3-2.3-0.9v3.8h-1.4v-11h1.2l0.1,0.9c0.5-0.7,1.3-1,2.3-1c1,0,1.7,0.4,2.3,1.1
		c0.6,0.7,0.8,1.7,0.8,3V427.4z M188.9,427.3c0-0.9-0.2-1.6-0.6-2.1c-0.4-0.5-0.9-0.8-1.6-0.8c-0.8,0-1.4,0.4-1.8,1.1v3.8
		c0.4,0.7,1,1.1,1.9,1.1c0.7,0,1.2-0.3,1.6-0.8C188.7,429,188.9,428.3,188.9,427.3z M197.9,424.5h-2.7v6.8h-1.4v-6.8h-2.6v-1.1h6.6
		V424.5z M204.1,431.3c-0.1-0.2-0.1-0.4-0.2-0.8c-0.6,0.7-1.4,1-2.3,1c-0.8,0-1.4-0.2-1.9-0.7s-0.8-1-0.8-1.7c0-0.8,0.3-1.5,0.9-1.9
		c0.6-0.5,1.5-0.7,2.6-0.7h1.3v-0.6c0-0.5-0.1-0.8-0.4-1.1c-0.3-0.3-0.7-0.4-1.2-0.4c-0.5,0-0.9,0.1-1.2,0.4
		c-0.3,0.2-0.5,0.5-0.5,0.9h-1.4c0-0.4,0.1-0.8,0.4-1.1c0.3-0.4,0.7-0.7,1.1-0.9c0.5-0.2,1-0.3,1.6-0.3c0.9,0,1.6,0.2,2.1,0.7
		c0.5,0.5,0.8,1.1,0.8,1.9v3.7c0,0.7,0.1,1.3,0.3,1.7v0.1H204.1z M201.8,430.3c0.4,0,0.8-0.1,1.2-0.3c0.4-0.2,0.7-0.5,0.8-0.9v-1.6
		h-1.1c-1.7,0-2.5,0.5-2.5,1.5c0,0.4,0.1,0.8,0.4,1C201,430.1,201.4,430.3,201.8,430.3z M211.9,429.5l2.7-6.1h1.7v7.9h-1.4v-5.8
		l-2.6,5.8h-0.9l-2.6-5.9v5.9h-1.4v-7.9h1.8L211.9,429.5z M221.8,431.5c-1.1,0-1.9-0.4-2.6-1.1c-0.7-0.7-1-1.7-1-2.8v-0.2
		c0-0.8,0.1-1.5,0.4-2.1s0.7-1.1,1.3-1.5c0.5-0.4,1.1-0.5,1.8-0.5c1,0,1.8,0.3,2.4,1c0.6,0.7,0.9,1.6,0.9,2.9v0.6h-5.4
		c0,0.8,0.2,1.4,0.7,1.9c0.4,0.5,1,0.7,1.7,0.7c0.5,0,0.9-0.1,1.2-0.3c0.3-0.2,0.6-0.5,0.9-0.8l0.8,0.6
		C224.1,430.9,223.1,431.5,221.8,431.5z M221.6,424.3c-0.6,0-1,0.2-1.4,0.6c-0.4,0.4-0.6,1-0.7,1.7h4v-0.1c0-0.7-0.2-1.2-0.6-1.6
		C222.6,424.5,222.2,424.3,221.6,424.3z M232.9,431.3h-1.3v-3.4h-3.6v3.4h-1.4v-7.9h1.4v3.4h3.6v-3.4h1.3V431.3z M241,424.5h-2.7
		v6.8h-1.4v-6.8h-2.6v-1.1h6.6V424.5z M252.5,431.3h-1.4v-6.8h-3.6v6.8h-1.4v-7.9h6.4V431.3z M261.4,427.4c0,1.2-0.3,2.2-0.8,2.9
		c-0.5,0.7-1.3,1.1-2.2,1.1c-1,0-1.7-0.3-2.3-0.9v3.8h-1.4v-11h1.2l0.1,0.9c0.6-0.7,1.3-1,2.3-1c0.9,0,1.7,0.4,2.3,1.1
		c0.6,0.7,0.8,1.7,0.8,3V427.4z M260,427.3c0-0.9-0.2-1.6-0.6-2.1c-0.4-0.5-0.9-0.8-1.6-0.8c-0.8,0-1.4,0.4-1.8,1.1v3.8
		c0.4,0.7,1,1.1,1.9,1.1c0.6,0,1.2-0.3,1.5-0.8C259.8,429,260,428.3,260,427.3z M268.2,423.4h1.3v7.9h-1.3v-5.8l-3.7,5.8h-1.4v-7.9
		h1.4v5.8L268.2,423.4z M275.6,431.3v-10.7h3.5c1.2,0,2,0.2,2.6,0.7c0.6,0.5,0.9,1.2,0.9,2.1c0,0.5-0.1,0.9-0.4,1.3
		c-0.3,0.4-0.7,0.7-1.2,0.9c0.6,0.2,1,0.5,1.4,0.9c0.3,0.5,0.5,1,0.5,1.6c0,1-0.3,1.7-0.9,2.3c-0.6,0.6-1.5,0.8-2.6,0.8H275.6z
		 M277.1,426.3v3.8h2.3c0.7,0,1.2-0.2,1.5-0.5c0.4-0.3,0.6-0.8,0.6-1.4c0-1.3-0.7-1.9-2.1-1.9H277.1z M277.1,425.2h2.1
		c0.6,0,1.1-0.1,1.5-0.5s0.5-0.7,0.5-1.2c0-0.6-0.2-1-0.5-1.3c-0.3-0.3-0.9-0.4-1.6-0.4h-2.1V425.2z M292.8,427.9
		c-0.1,1.1-0.5,2-1.2,2.6c-0.7,0.6-1.6,0.9-2.8,0.9c-1.3,0-2.3-0.5-3-1.4c-0.8-0.9-1.1-2.1-1.1-3.6v-1c0-1,0.2-1.9,0.5-2.6
		c0.4-0.8,0.9-1.3,1.5-1.7c0.6-0.4,1.4-0.6,2.3-0.6c1.1,0,2,0.3,2.7,1c0.7,0.6,1.1,1.5,1.2,2.6h-1.4c-0.1-0.8-0.4-1.5-0.8-1.8
		s-1-0.6-1.7-0.6c-0.9,0-1.6,0.3-2.1,1c-0.5,0.7-0.8,1.6-0.8,2.8v1c0,1.2,0.2,2.1,0.7,2.8c0.5,0.7,1.1,1,2,1c0.8,0,1.4-0.2,1.8-0.5
		c0.4-0.4,0.7-1,0.8-1.8H292.8z M299.9,427.1v4.2h-1.4v-10.7h3.9c1.2,0,2.1,0.3,2.8,0.9c0.7,0.6,1,1.4,1,2.4c0,1-0.3,1.8-1,2.4
		c-0.6,0.6-1.6,0.8-2.8,0.8H299.9z M299.9,426h2.5c0.8,0,1.3-0.2,1.7-0.5c0.4-0.4,0.6-0.9,0.6-1.5c0-0.6-0.2-1.1-0.6-1.5
		c-0.4-0.4-1-0.6-1.6-0.6h-2.6V426z M313.2,421.7h0.2c0.8,0,1.5,0.2,2.2,0.6c0.7,0.4,1.2,0.9,1.5,1.5c0.4,0.7,0.6,1.4,0.6,2.2
		s-0.2,1.5-0.6,2.2c-0.4,0.7-0.9,1.2-1.5,1.5c-0.7,0.4-1.4,0.5-2.2,0.6h-0.2v1.4h-1.4v-1.4h-0.2c-0.8,0-1.6-0.2-2.2-0.5
		c-0.7-0.4-1.2-0.9-1.6-1.5c-0.4-0.7-0.6-1.4-0.6-2.2c0-0.8,0.2-1.5,0.6-2.2c0.4-0.6,0.9-1.2,1.6-1.5c0.7-0.4,1.4-0.6,2.2-0.6h0.2
		v-1.5h1.4V421.7z M311.6,422.8c-0.9,0-1.6,0.3-2.2,0.9c-0.5,0.6-0.8,1.3-0.8,2.3c0,1,0.3,1.8,0.8,2.4c0.5,0.6,1.3,0.8,2.2,0.8h0.2
		v-6.4H311.6z M313.2,422.8v6.4h0.2c0.9,0,1.7-0.3,2.2-0.9c0.5-0.6,0.8-1.4,0.8-2.3c0-1-0.3-1.8-0.8-2.3c-0.5-0.6-1.3-0.9-2.2-0.9
		H313.2z"/>
	<path class="st3" d="M26.1,321.4c0,0,39.7,1.1,59.6,2.2c20,1.2,39.8,1.8,59.6,4.8c19.8,2.9,39.9,10.1,59.6,13
		c19.8,2.9,39.7,2.8,59.6,4.4c19.9,1.5,39.6,4.2,59.6,4.8c20,0.6,39.6-1.2,59.6-1.2s39.6,0.3,59.6,1.2c20,1,39.7,3.3,59.6,4.4
		c20,1.1,39.7,1.4,59.6,2.2c20,0.8,39.7,1.7,59.6,2.9c20,1.2,59.6,4.2,59.6,4.2"/>
	<path class="st4" d="M26.1,152.6c0,0,39.8,8.6,59.6,11.2c19.8,2.6,39.9,1.4,59.6,4.7c19.7,3.3,39.6,15.5,59.6,15.3
		s40.9-9.5,59.6-16.5c18.8-6.9,40.9-20.8,59.6-27.7c18.8-6.9,39.7-14.4,59.6-16.2c19.9-1.8,40.4,0.2,59.6,5.5
		c19.3,5.3,40.7,20.9,59.6,27.4c18.9,6.5,40,9.7,59.6,13.7c19.6,4,39.8,8.1,59.6,10.4c19.9,2.3,59.6,3.1,59.6,3.1"/>
	<path class="st2" d="M5.7,123.3c0,0.4-0.1,0.8-0.3,1.1c-0.2,0.3-0.5,0.6-0.9,0.8c0.4,0.2,0.8,0.5,1.1,0.8c0.3,0.4,0.4,0.8,0.4,1.2
		c0,0.7-0.2,1.3-0.8,1.8c-0.5,0.4-1.1,0.6-2,0.6c-0.8,0-1.5-0.2-2-0.7c-0.5-0.4-0.7-1-0.7-1.8c0-0.5,0.1-0.9,0.4-1.2
		c0.2-0.4,0.6-0.6,1-0.8c-0.4-0.2-0.7-0.4-0.9-0.8s-0.3-0.7-0.3-1.1c0-0.7,0.2-1.3,0.7-1.7c0.5-0.4,1.1-0.6,1.8-0.6s1.4,0.2,1.8,0.6
		C5.5,122,5.7,122.6,5.7,123.3z M4.8,127.2c0-0.5-0.1-0.9-0.4-1.2c-0.3-0.3-0.7-0.5-1.2-0.5c-0.5,0-0.9,0.2-1.2,0.5
		c-0.3,0.3-0.5,0.7-0.5,1.2c0,0.5,0.2,0.9,0.4,1.1c0.3,0.3,0.7,0.4,1.2,0.4c0.5,0,0.9-0.1,1.2-0.4S4.8,127.7,4.8,127.2z M3.2,121.8
		c-0.4,0-0.8,0.1-1,0.4c-0.3,0.3-0.4,0.6-0.4,1.1c0,0.4,0.1,0.8,0.4,1c0.3,0.3,0.6,0.4,1,0.4c0.4,0,0.8-0.1,1-0.4
		c0.3-0.3,0.4-0.6,0.4-1c0-0.4-0.1-0.8-0.4-1.1C4,121.9,3.6,121.8,3.2,121.8z M7.8,125.3l0.4-4.3h4.4v1H9.1l-0.3,2.3
		c0.4-0.2,0.9-0.4,1.4-0.4c0.8,0,1.4,0.3,1.9,0.8c0.5,0.5,0.7,1.2,0.7,2.1c0,0.9-0.2,1.6-0.7,2.1c-0.5,0.5-1.1,0.8-2,0.8
		c-0.8,0-1.4-0.2-1.8-0.6c-0.5-0.4-0.8-1-0.8-1.7h1c0.1,0.5,0.2,0.9,0.5,1.1c0.3,0.2,0.6,0.4,1.1,0.4c0.5,0,0.9-0.2,1.2-0.5
		c0.3-0.3,0.4-0.8,0.4-1.4c0-0.6-0.2-1-0.5-1.4c-0.3-0.3-0.7-0.5-1.2-0.5c-0.5,0-0.9,0.1-1.1,0.3l-0.3,0.2L7.8,125.3z M19.4,125.9
		c0,1.3-0.2,2.2-0.6,2.8c-0.4,0.6-1.1,0.9-2,0.9c-0.9,0-1.6-0.3-2-0.9c-0.4-0.6-0.7-1.5-0.7-2.7v-1.5c0-1.2,0.2-2.2,0.7-2.8
		c0.4-0.6,1.1-0.9,2-0.9c0.9,0,1.6,0.3,2,0.9c0.4,0.6,0.7,1.5,0.7,2.7V125.9z M18.3,124.4c0-0.9-0.1-1.6-0.4-2
		c-0.3-0.4-0.7-0.6-1.2-0.6c-0.5,0-1,0.2-1.2,0.6c-0.2,0.4-0.4,1.1-0.4,1.9v1.7c0,0.9,0.1,1.6,0.4,2c0.3,0.4,0.7,0.7,1.2,0.7
		c0.5,0,0.9-0.2,1.2-0.6c0.3-0.4,0.4-1.1,0.4-2V124.4z M26.1,125.9c0,1.3-0.2,2.2-0.6,2.8c-0.4,0.6-1.1,0.9-2,0.9
		c-0.9,0-1.6-0.3-2-0.9c-0.4-0.6-0.7-1.5-0.7-2.7v-1.5c0-1.2,0.2-2.2,0.6-2.8c0.4-0.6,1.1-0.9,2-0.9c0.9,0,1.6,0.3,2,0.9
		c0.4,0.6,0.7,1.5,0.7,2.7V125.9z M25,124.4c0-0.9-0.1-1.6-0.4-2c-0.3-0.4-0.7-0.6-1.2-0.6c-0.6,0-1,0.2-1.2,0.6
		c-0.2,0.4-0.4,1.1-0.4,1.9v1.7c0,0.9,0.1,1.6,0.4,2c0.3,0.4,0.7,0.7,1.2,0.7c0.5,0,0.9-0.2,1.2-0.6c0.3-0.4,0.4-1.1,0.4-2V124.4z"
		/>
	<path class="st2" d="M6.1,151.6l-3.5,7.9H1.4l3.5-7.6H0.3V151h5.8V151.6z M7.8,155.3l0.4-4.3h4.4v1H9.1l-0.3,2.3
		c0.4-0.2,0.9-0.4,1.4-0.4c0.8,0,1.4,0.3,1.9,0.8c0.5,0.5,0.7,1.2,0.7,2.1c0,0.9-0.2,1.6-0.7,2.1c-0.5,0.5-1.1,0.8-2,0.8
		c-0.8,0-1.4-0.2-1.8-0.6c-0.5-0.4-0.8-1-0.8-1.7h1c0.1,0.5,0.2,0.9,0.5,1.1c0.3,0.2,0.6,0.4,1.1,0.4c0.5,0,0.9-0.2,1.2-0.5
		c0.3-0.3,0.4-0.8,0.4-1.4c0-0.6-0.2-1-0.5-1.4c-0.3-0.3-0.7-0.5-1.2-0.5c-0.5,0-0.9,0.1-1.1,0.3l-0.3,0.2L7.8,155.3z M19.4,155.9
		c0,1.3-0.2,2.2-0.6,2.8c-0.4,0.6-1.1,0.9-2,0.9c-0.9,0-1.6-0.3-2-0.9c-0.4-0.6-0.7-1.5-0.7-2.7v-1.4c0-1.2,0.2-2.2,0.7-2.8
		c0.4-0.6,1.1-0.9,2-0.9c0.9,0,1.6,0.3,2,0.9c0.4,0.6,0.7,1.5,0.7,2.7V155.9z M18.3,154.4c0-0.9-0.1-1.6-0.4-2s-0.7-0.6-1.2-0.6
		c-0.5,0-1,0.2-1.2,0.6c-0.2,0.4-0.4,1.1-0.4,1.9v1.7c0,0.9,0.1,1.6,0.4,2c0.3,0.4,0.7,0.7,1.2,0.7c0.5,0,0.9-0.2,1.2-0.6
		c0.3-0.4,0.4-1.1,0.4-2V154.4z M26.1,155.9c0,1.3-0.2,2.2-0.6,2.8c-0.4,0.6-1.1,0.9-2,0.9c-0.9,0-1.6-0.3-2-0.9
		c-0.4-0.6-0.7-1.5-0.7-2.7v-1.4c0-1.2,0.2-2.2,0.6-2.8c0.4-0.6,1.1-0.9,2-0.9c0.9,0,1.6,0.3,2,0.9c0.4,0.6,0.7,1.5,0.7,2.7V155.9z
		 M25,154.4c0-0.9-0.1-1.6-0.4-2c-0.3-0.4-0.7-0.6-1.2-0.6c-0.6,0-1,0.2-1.2,0.6c-0.2,0.4-0.4,1.1-0.4,1.9v1.7c0,0.9,0.1,1.6,0.4,2
		s0.7,0.7,1.2,0.7c0.5,0,0.9-0.2,1.2-0.6c0.3-0.4,0.4-1.1,0.4-2V154.4z"/>
	<path class="st2" d="M4.8,181v0.9H4.6c-0.8,0-1.5,0.3-2,0.8c-0.5,0.5-0.8,1.2-0.9,2c0.5-0.5,1.1-0.8,1.8-0.8c0.8,0,1.3,0.3,1.8,0.8
		c0.5,0.5,0.7,1.2,0.7,2c0,0.9-0.2,1.6-0.7,2.1c-0.5,0.5-1.1,0.8-1.9,0.8c-0.8,0-1.5-0.3-2-0.9s-0.8-1.4-0.8-2.4v-0.4
		c0-1.6,0.3-2.8,1-3.6c0.7-0.8,1.7-1.2,3-1.3H4.8z M3.4,184.9c-0.4,0-0.7,0.1-1,0.3c-0.3,0.2-0.5,0.5-0.6,0.8v0.4
		c0,0.7,0.2,1.3,0.5,1.7c0.3,0.4,0.7,0.6,1.2,0.6c0.5,0,0.9-0.2,1.1-0.5s0.4-0.8,0.4-1.4c0-0.6-0.1-1.1-0.4-1.4S3.9,184.9,3.4,184.9
		z M7.8,185.3l0.4-4.3h4.4v1H9.1l-0.3,2.3c0.4-0.2,0.9-0.4,1.4-0.4c0.8,0,1.4,0.3,1.9,0.8c0.5,0.5,0.7,1.2,0.7,2.1
		c0,0.9-0.2,1.6-0.7,2.1c-0.5,0.5-1.1,0.8-2,0.8c-0.8,0-1.4-0.2-1.8-0.6c-0.5-0.4-0.8-1-0.8-1.7h1c0.1,0.5,0.2,0.9,0.5,1.1
		c0.3,0.2,0.6,0.4,1.1,0.4c0.5,0,0.9-0.2,1.2-0.5c0.3-0.3,0.4-0.8,0.4-1.4c0-0.6-0.2-1-0.5-1.4c-0.3-0.3-0.7-0.5-1.2-0.5
		c-0.5,0-0.9,0.1-1.1,0.3l-0.3,0.2L7.8,185.3z M19.4,185.9c0,1.3-0.2,2.2-0.6,2.8c-0.4,0.6-1.1,0.9-2,0.9c-0.9,0-1.6-0.3-2-0.9
		c-0.4-0.6-0.7-1.5-0.7-2.7v-1.4c0-1.2,0.2-2.2,0.7-2.8c0.4-0.6,1.1-0.9,2-0.9c0.9,0,1.6,0.3,2,0.9c0.4,0.6,0.7,1.5,0.7,2.7V185.9z
		 M18.3,184.4c0-0.9-0.1-1.6-0.4-2s-0.7-0.6-1.2-0.6c-0.5,0-1,0.2-1.2,0.6c-0.2,0.4-0.4,1.1-0.4,1.9v1.7c0,0.9,0.1,1.6,0.4,2
		c0.3,0.4,0.7,0.7,1.2,0.7c0.5,0,0.9-0.2,1.2-0.6c0.3-0.4,0.4-1.1,0.4-2V184.4z M26.1,185.9c0,1.3-0.2,2.2-0.6,2.8
		c-0.4,0.6-1.1,0.9-2,0.9c-0.9,0-1.6-0.3-2-0.9c-0.4-0.6-0.7-1.5-0.7-2.7v-1.4c0-1.2,0.2-2.2,0.6-2.8c0.4-0.6,1.1-0.9,2-0.9
		c0.9,0,1.6,0.3,2,0.9c0.4,0.6,0.7,1.5,0.7,2.7V185.9z M25,184.4c0-0.9-0.1-1.6-0.4-2c-0.3-0.4-0.7-0.6-1.2-0.6
		c-0.6,0-1,0.2-1.2,0.6c-0.2,0.4-0.4,1.1-0.4,1.9v1.7c0,0.9,0.1,1.6,0.4,2s0.7,0.7,1.2,0.7c0.5,0,0.9-0.2,1.2-0.6
		c0.3-0.4,0.4-1.1,0.4-2V184.4z"/>
	<path class="st2" d="M1,215.3l0.4-4.3h4.4v1H2.4l-0.2,2.3c0.4-0.2,0.9-0.4,1.4-0.4c0.8,0,1.4,0.3,1.9,0.8c0.5,0.5,0.7,1.2,0.7,2.1
		c0,0.9-0.2,1.6-0.7,2.1c-0.5,0.5-1.1,0.8-2,0.8c-0.8,0-1.4-0.2-1.9-0.6c-0.5-0.4-0.8-1-0.8-1.7h1c0.1,0.5,0.2,0.9,0.5,1.1
		c0.3,0.2,0.7,0.4,1.1,0.4c0.5,0,0.9-0.2,1.2-0.5c0.3-0.3,0.4-0.8,0.4-1.4c0-0.6-0.1-1-0.5-1.4c-0.3-0.3-0.7-0.5-1.2-0.5
		c-0.5,0-0.9,0.1-1.1,0.3l-0.3,0.2L1,215.3z M7.8,215.3l0.4-4.3h4.4v1H9.1l-0.3,2.3c0.4-0.2,0.9-0.4,1.4-0.4c0.8,0,1.4,0.3,1.9,0.8
		c0.5,0.5,0.7,1.2,0.7,2.1c0,0.9-0.2,1.6-0.7,2.1c-0.5,0.5-1.1,0.8-2,0.8c-0.8,0-1.4-0.2-1.8-0.6c-0.5-0.4-0.8-1-0.8-1.7h1
		c0.1,0.5,0.2,0.9,0.5,1.1c0.3,0.2,0.6,0.4,1.1,0.4c0.5,0,0.9-0.2,1.2-0.5c0.3-0.3,0.4-0.8,0.4-1.4c0-0.6-0.2-1-0.5-1.4
		c-0.3-0.3-0.7-0.5-1.2-0.5c-0.5,0-0.9,0.1-1.1,0.3l-0.3,0.2L7.8,215.3z M19.4,215.9c0,1.3-0.2,2.2-0.6,2.8c-0.4,0.6-1.1,0.9-2,0.9
		c-0.9,0-1.6-0.3-2-0.9c-0.4-0.6-0.7-1.5-0.7-2.7v-1.4c0-1.2,0.2-2.2,0.7-2.8c0.4-0.6,1.1-0.9,2-0.9c0.9,0,1.6,0.3,2,0.9
		c0.4,0.6,0.7,1.5,0.7,2.7V215.9z M18.3,214.4c0-0.9-0.1-1.6-0.4-2s-0.7-0.6-1.2-0.6c-0.5,0-1,0.2-1.2,0.6c-0.2,0.4-0.4,1.1-0.4,1.9
		v1.7c0,0.9,0.1,1.6,0.4,2c0.3,0.4,0.7,0.7,1.2,0.7c0.5,0,0.9-0.2,1.2-0.6c0.3-0.4,0.4-1.1,0.4-2V214.4z M26.1,215.9
		c0,1.3-0.2,2.2-0.6,2.8c-0.4,0.6-1.1,0.9-2,0.9c-0.9,0-1.6-0.3-2-0.9c-0.4-0.6-0.7-1.5-0.7-2.7v-1.4c0-1.2,0.2-2.2,0.6-2.8
		c0.4-0.6,1.1-0.9,2-0.9c0.9,0,1.6,0.3,2,0.9c0.4,0.6,0.7,1.5,0.7,2.7V215.9z M25,214.4c0-0.9-0.1-1.6-0.4-2
		c-0.3-0.4-0.7-0.6-1.2-0.6c-0.6,0-1,0.2-1.2,0.6c-0.2,0.4-0.4,1.1-0.4,1.9v1.7c0,0.9,0.1,1.6,0.4,2c0.3,0.4,0.7,0.7,1.2,0.7
		c0.5,0,0.9-0.2,1.2-0.6c0.3-0.4,0.4-1.1,0.4-2V214.4z"/>
	<path class="st2" d="M5.1,246.7h1.2v0.9H5.1v2H4v-2H0.1V247L4,241h1.2V246.7z M1.4,246.7H4v-4.2l-0.1,0.2L1.4,246.7z M7.8,245.3
		l0.4-4.3h4.4v1H9.1l-0.3,2.3c0.4-0.2,0.9-0.4,1.4-0.4c0.8,0,1.4,0.3,1.9,0.8c0.5,0.5,0.7,1.2,0.7,2.1c0,0.9-0.2,1.6-0.7,2.1
		c-0.5,0.5-1.1,0.8-2,0.8c-0.8,0-1.4-0.2-1.8-0.6c-0.5-0.4-0.8-1-0.8-1.7h1c0.1,0.5,0.2,0.9,0.5,1.1c0.3,0.2,0.6,0.4,1.1,0.4
		c0.5,0,0.9-0.2,1.2-0.5c0.3-0.3,0.4-0.8,0.4-1.4c0-0.6-0.2-1-0.5-1.4c-0.3-0.3-0.7-0.5-1.2-0.5c-0.5,0-0.9,0.1-1.1,0.3l-0.3,0.2
		L7.8,245.3z M19.4,245.9c0,1.3-0.2,2.2-0.6,2.8c-0.4,0.6-1.1,0.9-2,0.9c-0.9,0-1.6-0.3-2-0.9c-0.4-0.6-0.7-1.5-0.7-2.7v-1.4
		c0-1.2,0.2-2.2,0.7-2.8c0.4-0.6,1.1-0.9,2-0.9c0.9,0,1.6,0.3,2,0.9c0.4,0.6,0.7,1.5,0.7,2.7V245.9z M18.3,244.4
		c0-0.9-0.1-1.6-0.4-2s-0.7-0.6-1.2-0.6c-0.5,0-1,0.2-1.2,0.6c-0.2,0.4-0.4,1.1-0.4,1.9v1.7c0,0.9,0.1,1.6,0.4,2
		c0.3,0.4,0.7,0.7,1.2,0.7c0.5,0,0.9-0.2,1.2-0.6c0.3-0.4,0.4-1.1,0.4-2V244.4z M26.1,245.9c0,1.3-0.2,2.2-0.6,2.8
		c-0.4,0.6-1.1,0.9-2,0.9c-0.9,0-1.6-0.3-2-0.9c-0.4-0.6-0.7-1.5-0.7-2.7v-1.4c0-1.2,0.2-2.2,0.6-2.8c0.4-0.6,1.1-0.9,2-0.9
		c0.9,0,1.6,0.3,2,0.9c0.4,0.6,0.7,1.5,0.7,2.7V245.9z M25,244.4c0-0.9-0.1-1.6-0.4-2c-0.3-0.4-0.7-0.6-1.2-0.6
		c-0.6,0-1,0.2-1.2,0.6c-0.2,0.4-0.4,1.1-0.4,1.9v1.7c0,0.9,0.1,1.6,0.4,2s0.7,0.7,1.2,0.7c0.5,0,0.9-0.2,1.2-0.6
		c0.3-0.4,0.4-1.1,0.4-2V244.4z"/>
	<path class="st2" d="M2.1,274.8h0.8c0.5,0,0.9-0.1,1.2-0.4s0.4-0.6,0.4-1.1c0-1-0.5-1.5-1.5-1.5c-0.5,0-0.9,0.1-1.1,0.4
		s-0.4,0.6-0.4,1.1H0.5c0-0.7,0.2-1.2,0.7-1.7c0.5-0.5,1.1-0.7,1.9-0.7c0.8,0,1.4,0.2,1.9,0.6c0.5,0.4,0.7,1,0.7,1.8
		c0,0.4-0.1,0.7-0.4,1.1c-0.2,0.4-0.6,0.6-1,0.8c0.5,0.1,0.8,0.4,1.1,0.7c0.2,0.3,0.4,0.8,0.4,1.3c0,0.8-0.2,1.4-0.8,1.8
		c-0.5,0.5-1.1,0.7-1.9,0.7c-0.8,0-1.5-0.2-2-0.6c-0.5-0.4-0.8-1-0.8-1.7h1.1c0,0.4,0.1,0.8,0.4,1.1c0.3,0.3,0.7,0.4,1.2,0.4
		c0.5,0,0.9-0.1,1.2-0.4c0.3-0.3,0.4-0.7,0.4-1.2c0-0.5-0.1-0.9-0.5-1.1c-0.3-0.3-0.7-0.4-1.3-0.4H2.1V274.8z M7.8,275.3l0.4-4.3
		h4.4v1H9.1l-0.3,2.3c0.4-0.2,0.9-0.4,1.4-0.4c0.8,0,1.4,0.3,1.9,0.8c0.5,0.5,0.7,1.2,0.7,2.1c0,0.9-0.2,1.6-0.7,2.1
		c-0.5,0.5-1.1,0.8-2,0.8c-0.8,0-1.4-0.2-1.8-0.6c-0.5-0.4-0.8-1-0.8-1.7h1c0.1,0.5,0.2,0.9,0.5,1.1c0.3,0.2,0.6,0.4,1.1,0.4
		c0.5,0,0.9-0.2,1.2-0.5c0.3-0.3,0.4-0.8,0.4-1.4c0-0.6-0.2-1-0.5-1.4c-0.3-0.3-0.7-0.5-1.2-0.5c-0.5,0-0.9,0.1-1.1,0.3l-0.3,0.2
		L7.8,275.3z M19.4,275.9c0,1.3-0.2,2.2-0.6,2.8c-0.4,0.6-1.1,0.9-2,0.9c-0.9,0-1.6-0.3-2-0.9c-0.4-0.6-0.7-1.5-0.7-2.7v-1.5
		c0-1.2,0.2-2.2,0.7-2.8c0.4-0.6,1.1-0.9,2-0.9c0.9,0,1.6,0.3,2,0.9c0.4,0.6,0.7,1.5,0.7,2.7V275.9z M18.3,274.5
		c0-0.9-0.1-1.6-0.4-2c-0.3-0.4-0.7-0.6-1.2-0.6c-0.5,0-1,0.2-1.2,0.6c-0.2,0.4-0.4,1.1-0.4,1.9v1.7c0,0.9,0.1,1.6,0.4,2
		c0.3,0.4,0.7,0.7,1.2,0.7c0.5,0,0.9-0.2,1.2-0.6c0.3-0.4,0.4-1.1,0.4-2V274.5z M26.1,275.9c0,1.3-0.2,2.2-0.6,2.8
		c-0.4,0.6-1.1,0.9-2,0.9c-0.9,0-1.6-0.3-2-0.9c-0.4-0.6-0.7-1.5-0.7-2.7v-1.5c0-1.2,0.2-2.2,0.6-2.8c0.4-0.6,1.1-0.9,2-0.9
		c0.9,0,1.6,0.3,2,0.9c0.4,0.6,0.7,1.5,0.7,2.7V275.9z M25,274.5c0-0.9-0.1-1.6-0.4-2c-0.3-0.4-0.7-0.6-1.2-0.6
		c-0.6,0-1,0.2-1.2,0.6c-0.2,0.4-0.4,1.1-0.4,1.9v1.7c0,0.9,0.1,1.6,0.4,2s0.7,0.7,1.2,0.7c0.5,0,0.9-0.2,1.2-0.6
		c0.3-0.4,0.4-1.1,0.4-2V274.5z"/>
	<path class="st2" d="M6.1,309.6H0.5v-0.8l3-3.3c0.4-0.5,0.7-0.9,0.9-1.2c0.2-0.3,0.2-0.6,0.2-1c0-0.4-0.1-0.8-0.4-1.1
		c-0.3-0.3-0.6-0.4-1.1-0.4c-0.5,0-1,0.1-1.3,0.5c-0.3,0.3-0.5,0.7-0.5,1.3H0.4c0-0.8,0.2-1.4,0.8-1.9c0.5-0.5,1.2-0.7,2-0.7
		c0.8,0,1.4,0.2,1.9,0.6c0.5,0.4,0.7,1,0.7,1.7c0,0.8-0.5,1.8-1.6,3l-2.3,2.5h4.3V309.6z M7.8,305.3l0.4-4.3h4.4v1H9.1l-0.3,2.3
		c0.4-0.2,0.9-0.4,1.4-0.4c0.8,0,1.4,0.3,1.9,0.8c0.5,0.5,0.7,1.2,0.7,2.1c0,0.9-0.2,1.6-0.7,2.1c-0.5,0.5-1.1,0.8-2,0.8
		c-0.8,0-1.4-0.2-1.8-0.6c-0.5-0.4-0.8-1-0.8-1.7h1c0.1,0.5,0.2,0.9,0.5,1.1c0.3,0.2,0.6,0.4,1.1,0.4c0.5,0,0.9-0.2,1.2-0.5
		c0.3-0.3,0.4-0.8,0.4-1.4c0-0.6-0.2-1-0.5-1.4c-0.3-0.3-0.7-0.5-1.2-0.5c-0.5,0-0.9,0.1-1.1,0.3l-0.3,0.2L7.8,305.3z M19.4,305.9
		c0,1.3-0.2,2.2-0.6,2.8c-0.4,0.6-1.1,0.9-2,0.9c-0.9,0-1.6-0.3-2-0.9c-0.4-0.6-0.7-1.5-0.7-2.7v-1.5c0-1.2,0.2-2.2,0.7-2.8
		c0.4-0.6,1.1-0.9,2-0.9c0.9,0,1.6,0.3,2,0.9c0.4,0.6,0.7,1.5,0.7,2.7V305.9z M18.3,304.5c0-0.9-0.1-1.6-0.4-2
		c-0.3-0.4-0.7-0.6-1.2-0.6c-0.5,0-1,0.2-1.2,0.6c-0.2,0.4-0.4,1.1-0.4,1.9v1.7c0,0.9,0.1,1.6,0.4,2c0.3,0.4,0.7,0.7,1.2,0.7
		c0.5,0,0.9-0.2,1.2-0.6c0.3-0.4,0.4-1.1,0.4-2V304.5z M26.1,305.9c0,1.3-0.2,2.2-0.6,2.8c-0.4,0.6-1.1,0.9-2,0.9
		c-0.9,0-1.6-0.3-2-0.9c-0.4-0.6-0.7-1.5-0.7-2.7v-1.5c0-1.2,0.2-2.2,0.6-2.8c0.4-0.6,1.1-0.9,2-0.9c0.9,0,1.6,0.3,2,0.9
		c0.4,0.6,0.7,1.5,0.7,2.7V305.9z M25,304.5c0-0.9-0.1-1.6-0.4-2c-0.3-0.4-0.7-0.6-1.2-0.6c-0.6,0-1,0.2-1.2,0.6
		c-0.2,0.4-0.4,1.1-0.4,1.9v1.7c0,0.9,0.1,1.6,0.4,2s0.7,0.7,1.2,0.7c0.5,0,0.9-0.2,1.2-0.6c0.3-0.4,0.4-1.1,0.4-2V304.5z"/>
	<path class="st2" d="M4.1,339.6H3v-7.2l-2.2,0.8v-1L4,331h0.2V339.6z M7.8,335.3l0.4-4.3h4.4v1H9.1l-0.3,2.3
		c0.4-0.2,0.9-0.4,1.4-0.4c0.8,0,1.4,0.3,1.9,0.8c0.5,0.5,0.7,1.2,0.7,2.1c0,0.9-0.2,1.6-0.7,2.1c-0.5,0.5-1.1,0.8-2,0.8
		c-0.8,0-1.4-0.2-1.8-0.6c-0.5-0.4-0.8-1-0.8-1.7h1c0.1,0.5,0.2,0.9,0.5,1.1c0.3,0.2,0.6,0.4,1.1,0.4c0.5,0,0.9-0.2,1.2-0.5
		c0.3-0.3,0.4-0.8,0.4-1.4c0-0.6-0.2-1-0.5-1.4c-0.3-0.3-0.7-0.5-1.2-0.5c-0.5,0-0.9,0.1-1.1,0.3l-0.3,0.2L7.8,335.3z M19.4,335.9
		c0,1.3-0.2,2.2-0.6,2.8c-0.4,0.6-1.1,0.9-2,0.9c-0.9,0-1.6-0.3-2-0.9c-0.4-0.6-0.7-1.5-0.7-2.7v-1.5c0-1.2,0.2-2.2,0.7-2.8
		c0.4-0.6,1.1-0.9,2-0.9c0.9,0,1.6,0.3,2,0.9c0.4,0.6,0.7,1.5,0.7,2.7V335.9z M18.3,334.5c0-0.9-0.1-1.6-0.4-2
		c-0.3-0.4-0.7-0.6-1.2-0.6c-0.5,0-1,0.2-1.2,0.6c-0.2,0.4-0.4,1.1-0.4,1.9v1.7c0,0.9,0.1,1.6,0.4,2c0.3,0.4,0.7,0.7,1.2,0.7
		c0.5,0,0.9-0.2,1.2-0.6c0.3-0.4,0.4-1.1,0.4-2V334.5z M26.1,335.9c0,1.3-0.2,2.2-0.6,2.8c-0.4,0.6-1.1,0.9-2,0.9
		c-0.9,0-1.6-0.3-2-0.9c-0.4-0.6-0.7-1.5-0.7-2.7v-1.5c0-1.2,0.2-2.2,0.6-2.8c0.4-0.6,1.1-0.9,2-0.9c0.9,0,1.6,0.3,2,0.9
		c0.4,0.6,0.7,1.5,0.7,2.7V335.9z M25,334.5c0-0.9-0.1-1.6-0.4-2c-0.3-0.4-0.7-0.6-1.2-0.6c-0.6,0-1,0.2-1.2,0.6
		c-0.2,0.4-0.4,1.1-0.4,1.9v1.7c0,0.9,0.1,1.6,0.4,2s0.7,0.7,1.2,0.7c0.5,0,0.9-0.2,1.2-0.6c0.3-0.4,0.4-1.1,0.4-2V334.5z"/>
	<path class="st2" d="M7.8,365.3l0.4-4.3h4.4v1H9.1l-0.3,2.3c0.4-0.2,0.9-0.4,1.4-0.4c0.8,0,1.4,0.3,1.9,0.8
		c0.5,0.5,0.7,1.2,0.7,2.1c0,0.9-0.2,1.6-0.7,2.1c-0.5,0.5-1.1,0.8-2,0.8c-0.8,0-1.4-0.2-1.8-0.6c-0.5-0.4-0.8-1-0.8-1.7h1
		c0.1,0.5,0.2,0.9,0.5,1.1c0.3,0.2,0.6,0.4,1.1,0.4c0.5,0,0.9-0.2,1.2-0.5c0.3-0.3,0.4-0.8,0.4-1.4c0-0.6-0.2-1-0.5-1.4
		c-0.3-0.3-0.7-0.5-1.2-0.5c-0.5,0-0.9,0.1-1.1,0.3l-0.3,0.2L7.8,365.3z M19.4,365.9c0,1.3-0.2,2.2-0.6,2.8c-0.4,0.6-1.1,0.9-2,0.9
		c-0.9,0-1.6-0.3-2-0.9c-0.4-0.6-0.7-1.5-0.7-2.7v-1.5c0-1.2,0.2-2.2,0.7-2.8c0.4-0.6,1.1-0.9,2-0.9c0.9,0,1.6,0.3,2,0.9
		c0.4,0.6,0.7,1.5,0.7,2.7V365.9z M18.3,364.5c0-0.9-0.1-1.6-0.4-2c-0.3-0.4-0.7-0.6-1.2-0.6c-0.5,0-1,0.2-1.2,0.6
		c-0.2,0.4-0.4,1.1-0.4,1.9v1.7c0,0.9,0.1,1.6,0.4,2c0.3,0.4,0.7,0.7,1.2,0.7c0.5,0,0.9-0.2,1.2-0.6c0.3-0.4,0.4-1.1,0.4-2V364.5z
		 M26.1,365.9c0,1.3-0.2,2.2-0.6,2.8c-0.4,0.6-1.1,0.9-2,0.9c-0.9,0-1.6-0.3-2-0.9c-0.4-0.6-0.7-1.5-0.7-2.7v-1.5
		c0-1.2,0.2-2.2,0.6-2.8c0.4-0.6,1.1-0.9,2-0.9c0.9,0,1.6,0.3,2,0.9c0.4,0.6,0.7,1.5,0.7,2.7V365.9z M25,364.5c0-0.9-0.1-1.6-0.4-2
		c-0.3-0.4-0.7-0.6-1.2-0.6c-0.6,0-1,0.2-1.2,0.6c-0.2,0.4-0.4,1.1-0.4,1.9v1.7c0,0.9,0.1,1.6,0.4,2c0.3,0.4,0.7,0.7,1.2,0.7
		c0.5,0,0.9-0.2,1.2-0.6c0.3-0.4,0.4-1.1,0.4-2V364.5z"/>
	<path class="st2" d="M20.1,379.8h6v1h-6V379.8z"/>
	<path class="st2" d="M20.1,349.8h6v1h-6V349.8z"/>
	<path class="st2" d="M20.1,319.8h6v1h-6V319.8z"/>
	<path class="st2" d="M20.1,289.8h6v1h-6V289.8z"/>
	<path class="st2" d="M20.1,259.8h6v1h-6V259.8z"/>
	<path class="st2" d="M20.1,229.8h6v1h-6V229.8z"/>
	<path class="st2" d="M20.1,199.8h6v1h-6V199.8z"/>
	<path class="st2" d="M20.1,169.8h6v1h-6V169.8z"/>
	<path class="st2" d="M20.1,139.8h6v1h-6V139.8z"/>
	<path class="st2" d="M33.9,393h-5.6v-0.8l3-3.3c0.4-0.5,0.7-0.9,0.9-1.2c0.2-0.3,0.2-0.6,0.2-1c0-0.4-0.1-0.8-0.4-1.1
		c-0.3-0.3-0.6-0.4-1.1-0.4c-0.5,0-1,0.1-1.3,0.5c-0.3,0.3-0.4,0.7-0.4,1.3h-1.1c0-0.8,0.2-1.4,0.8-1.9c0.5-0.5,1.2-0.7,2-0.7
		c0.8,0,1.4,0.2,1.9,0.6c0.5,0.4,0.7,1,0.7,1.7c0,0.8-0.5,1.8-1.6,3l-2.3,2.5h4.3V393z M40.4,389.3c0,1.3-0.2,2.2-0.6,2.8
		c-0.4,0.6-1.1,0.9-2,0.9c-0.9,0-1.6-0.3-2-0.9c-0.4-0.6-0.7-1.5-0.7-2.7V388c0-1.3,0.2-2.2,0.6-2.8c0.4-0.6,1.1-0.9,2-0.9
		c0.9,0,1.6,0.3,2,0.9c0.4,0.6,0.7,1.5,0.7,2.7V389.3z M39.3,387.8c0-0.9-0.1-1.6-0.4-2c-0.3-0.4-0.7-0.6-1.2-0.6
		c-0.6,0-1,0.2-1.2,0.6c-0.2,0.4-0.4,1.1-0.4,1.9v1.7c0,0.9,0.1,1.6,0.4,2s0.7,0.7,1.2,0.7c0.5,0,0.9-0.2,1.2-0.6
		c0.3-0.4,0.4-1.1,0.4-2V387.8z M47.1,389.3c0,1.3-0.2,2.2-0.6,2.8c-0.4,0.6-1.1,0.9-2,0.9c-0.9,0-1.6-0.3-2-0.9
		c-0.4-0.6-0.7-1.5-0.7-2.7V388c0-1.3,0.2-2.2,0.6-2.8c0.4-0.6,1.1-0.9,2-0.9c0.9,0,1.6,0.3,2,0.9s0.7,1.5,0.7,2.7V389.3z M46,387.8
		c0-0.9-0.1-1.6-0.4-2c-0.3-0.4-0.7-0.6-1.2-0.6c-0.6,0-1,0.2-1.2,0.6c-0.2,0.4-0.4,1.1-0.4,1.9v1.7c0,0.9,0.1,1.6,0.4,2
		c0.3,0.4,0.7,0.7,1.2,0.7c0.5,0,0.9-0.2,1.2-0.6c0.3-0.4,0.4-1.1,0.4-2V387.8z M52.6,389.2c-0.2,0.3-0.5,0.5-0.8,0.6
		c-0.3,0.2-0.7,0.2-1,0.2c-0.5,0-0.9-0.1-1.3-0.4c-0.4-0.2-0.6-0.6-0.8-1c-0.2-0.4-0.3-0.9-0.3-1.5c0-0.6,0.1-1.1,0.3-1.5
		s0.5-0.8,0.9-1.1c0.4-0.2,0.9-0.4,1.4-0.4c0.8,0,1.5,0.3,2,0.9c0.5,0.6,0.7,1.5,0.7,2.6v0.3c0,1.7-0.3,2.9-1,3.6
		c-0.7,0.8-1.7,1.2-3,1.2h-0.2V392h0.2c0.9,0,1.6-0.2,2.1-0.7C52.4,390.9,52.6,390.2,52.6,389.2z M51,389.2c0.4,0,0.7-0.1,1-0.3
		c0.3-0.2,0.5-0.5,0.7-0.8v-0.4c0-0.7-0.2-1.3-0.5-1.7c-0.3-0.5-0.7-0.7-1.2-0.7c-0.5,0-0.9,0.2-1.1,0.5c-0.3,0.4-0.4,0.8-0.4,1.4
		c0,0.6,0.1,1.1,0.4,1.4C50.1,389,50.5,389.2,51,389.2z"/>
	<path class="st2" d="M93.5,393h-5.6v-0.8l2.9-3.3c0.4-0.5,0.7-0.9,0.9-1.2c0.2-0.3,0.2-0.6,0.2-1c0-0.4-0.1-0.8-0.4-1.1
		c-0.3-0.3-0.6-0.4-1.1-0.4c-0.5,0-1,0.1-1.2,0.5c-0.3,0.3-0.5,0.7-0.5,1.3h-1.1c0-0.8,0.3-1.4,0.8-1.9c0.5-0.5,1.2-0.7,2-0.7
		c0.8,0,1.4,0.2,1.9,0.6c0.5,0.4,0.7,1,0.7,1.7c0,0.8-0.5,1.8-1.6,3l-2.3,2.5h4.3V393z M100,389.3c0,1.3-0.2,2.2-0.6,2.8
		c-0.4,0.6-1.1,0.9-2,0.9c-0.9,0-1.6-0.3-2-0.9c-0.4-0.6-0.7-1.5-0.7-2.7V388c0-1.3,0.2-2.2,0.6-2.8c0.4-0.6,1.1-0.9,2-0.9
		c0.9,0,1.6,0.3,2,0.9c0.4,0.6,0.7,1.5,0.7,2.7V389.3z M98.9,387.8c0-0.9-0.1-1.6-0.4-2c-0.2-0.4-0.7-0.6-1.2-0.6
		c-0.5,0-1,0.2-1.2,0.6c-0.3,0.4-0.4,1.1-0.4,1.9v1.7c0,0.9,0.1,1.6,0.4,2c0.3,0.4,0.7,0.7,1.2,0.7c0.5,0,0.9-0.2,1.2-0.6
		c0.3-0.4,0.4-1.1,0.4-2V387.8z M105,393h-1.1v-7.2l-2.2,0.8v-1l3.1-1.2h0.2V393z M113.5,389.3c0,1.3-0.2,2.2-0.6,2.8
		c-0.4,0.6-1.1,0.9-2,0.9c-0.9,0-1.6-0.3-2-0.9c-0.4-0.6-0.7-1.5-0.7-2.7V388c0-1.3,0.2-2.2,0.6-2.8c0.4-0.6,1.1-0.9,2-0.9
		c0.9,0,1.6,0.3,2,0.9c0.4,0.6,0.7,1.5,0.7,2.7V389.3z M112.4,387.8c0-0.9-0.1-1.6-0.4-2c-0.3-0.4-0.7-0.6-1.2-0.6
		c-0.6,0-1,0.2-1.2,0.6c-0.2,0.4-0.4,1.1-0.4,1.9v1.7c0,0.9,0.1,1.6,0.4,2c0.3,0.4,0.7,0.7,1.2,0.7c0.5,0,0.9-0.2,1.2-0.6
		c0.3-0.4,0.4-1.1,0.4-2V387.8z"/>
	<path class="st2" d="M153.1,393h-5.6v-0.8l3-3.3c0.4-0.5,0.7-0.9,0.9-1.2c0.2-0.3,0.2-0.6,0.2-1c0-0.4-0.1-0.8-0.4-1.1
		c-0.3-0.3-0.6-0.4-1.1-0.4c-0.5,0-1,0.1-1.3,0.5s-0.4,0.7-0.4,1.3h-1.1c0-0.8,0.2-1.4,0.8-1.9c0.5-0.5,1.2-0.7,2-0.7
		c0.8,0,1.4,0.2,1.9,0.6c0.5,0.4,0.7,1,0.7,1.7c0,0.8-0.5,1.8-1.6,3l-2.3,2.5h4.3V393z M159.6,389.3c0,1.3-0.2,2.2-0.6,2.8
		c-0.4,0.6-1.1,0.9-2,0.9c-0.9,0-1.6-0.3-2-0.9c-0.4-0.6-0.7-1.5-0.7-2.7V388c0-1.3,0.2-2.2,0.7-2.8c0.4-0.6,1.1-0.9,2-0.9
		c0.9,0,1.6,0.3,2,0.9c0.4,0.6,0.7,1.5,0.7,2.7V389.3z M158.6,387.8c0-0.9-0.1-1.6-0.4-2c-0.3-0.4-0.7-0.6-1.2-0.6s-1,0.2-1.2,0.6
		c-0.2,0.4-0.4,1.1-0.4,1.9v1.7c0,0.9,0.1,1.6,0.4,2c0.3,0.4,0.7,0.7,1.2,0.7c0.5,0,0.9-0.2,1.2-0.6c0.3-0.4,0.4-1.1,0.4-2V387.8z
		 M164.6,393h-1.1v-7.2l-2.2,0.8v-1l3.1-1.2h0.2V393z M171.3,393h-1.1v-7.2l-2.2,0.8v-1l3.1-1.2h0.2V393z"/>
	<path class="st2" d="M212.8,393h-5.6v-0.8l2.9-3.3c0.4-0.5,0.7-0.9,0.9-1.2c0.2-0.3,0.2-0.6,0.2-1c0-0.4-0.1-0.8-0.4-1.1
		c-0.3-0.3-0.6-0.4-1.1-0.4c-0.5,0-1,0.1-1.3,0.5s-0.4,0.7-0.4,1.3H207c0-0.8,0.2-1.4,0.8-1.9c0.5-0.5,1.2-0.7,2-0.7
		c0.8,0,1.4,0.2,1.9,0.6c0.5,0.4,0.7,1,0.7,1.7c0,0.8-0.5,1.8-1.6,3l-2.3,2.5h4.3V393z M219.3,389.3c0,1.3-0.2,2.2-0.6,2.8
		c-0.4,0.6-1.1,0.9-2,0.9c-0.9,0-1.6-0.3-2-0.9c-0.4-0.6-0.7-1.5-0.7-2.7V388c0-1.3,0.2-2.2,0.6-2.8c0.4-0.6,1.1-0.9,2-0.9
		s1.6,0.3,2,0.9c0.4,0.6,0.7,1.5,0.7,2.7V389.3z M218.2,387.8c0-0.9-0.1-1.6-0.4-2c-0.3-0.4-0.7-0.6-1.2-0.6c-0.6,0-1,0.2-1.2,0.6
		c-0.2,0.4-0.4,1.1-0.4,1.9v1.7c0,0.9,0.1,1.6,0.4,2c0.3,0.4,0.7,0.7,1.2,0.7c0.5,0,0.9-0.2,1.2-0.6c0.3-0.4,0.4-1.1,0.4-2V387.8z
		 M224.2,393h-1.1v-7.2l-2.2,0.8v-1l3.1-1.2h0.2V393z M233,393h-5.6v-0.8l2.9-3.3c0.4-0.5,0.7-0.9,0.9-1.2c0.2-0.3,0.2-0.6,0.2-1
		c0-0.4-0.1-0.8-0.4-1.1c-0.3-0.3-0.6-0.4-1.1-0.4c-0.5,0-1,0.1-1.3,0.5c-0.3,0.3-0.4,0.7-0.4,1.3h-1.1c0-0.8,0.2-1.4,0.8-1.9
		c0.5-0.5,1.2-0.7,2-0.7c0.8,0,1.4,0.2,1.9,0.6c0.5,0.4,0.7,1,0.7,1.7c0,0.8-0.5,1.8-1.6,3l-2.3,2.5h4.3V393z"/>
	<path class="st2" d="M272.4,393h-5.6v-0.8l2.9-3.3c0.4-0.5,0.7-0.9,0.9-1.2c0.2-0.3,0.2-0.6,0.2-1c0-0.4-0.1-0.8-0.4-1.1
		c-0.3-0.3-0.6-0.4-1.1-0.4c-0.5,0-1,0.1-1.3,0.5c-0.3,0.3-0.4,0.7-0.4,1.3h-1.1c0-0.8,0.3-1.4,0.8-1.9c0.5-0.5,1.2-0.7,2-0.7
		c0.8,0,1.4,0.2,1.9,0.6c0.5,0.4,0.7,1,0.7,1.7c0,0.8-0.5,1.8-1.6,3l-2.3,2.5h4.3V393z M278.9,389.3c0,1.3-0.2,2.2-0.6,2.8
		c-0.4,0.6-1.1,0.9-2,0.9c-0.9,0-1.6-0.3-2-0.9c-0.4-0.6-0.7-1.5-0.7-2.7V388c0-1.3,0.2-2.2,0.6-2.8s1.1-0.9,2-0.9
		c0.9,0,1.6,0.3,2,0.9c0.4,0.6,0.6,1.5,0.7,2.7V389.3z M277.8,387.8c0-0.9-0.1-1.6-0.4-2c-0.2-0.4-0.7-0.6-1.2-0.6s-1,0.2-1.2,0.6
		c-0.3,0.4-0.4,1.1-0.4,1.9v1.7c0,0.9,0.1,1.6,0.4,2c0.3,0.4,0.7,0.7,1.2,0.7c0.5,0,0.9-0.2,1.2-0.6c0.3-0.4,0.4-1.1,0.4-2V387.8z
		 M283.9,393h-1.1v-7.2l-2.2,0.8v-1l3.1-1.2h0.2V393z M288.6,388.2h0.8c0.5,0,0.9-0.1,1.2-0.4c0.3-0.3,0.4-0.6,0.4-1.1
		c0-1-0.5-1.5-1.5-1.5c-0.5,0-0.8,0.1-1.1,0.4s-0.4,0.6-0.4,1.1H287c0-0.7,0.2-1.2,0.7-1.7c0.5-0.4,1.1-0.7,1.9-0.7
		c0.8,0,1.4,0.2,1.9,0.6c0.4,0.4,0.7,1,0.7,1.8c0,0.4-0.1,0.7-0.4,1.1c-0.2,0.4-0.6,0.6-1,0.8c0.5,0.1,0.8,0.4,1.1,0.7
		c0.2,0.3,0.4,0.8,0.4,1.3c0,0.8-0.2,1.4-0.8,1.8c-0.5,0.5-1.1,0.7-2,0.7c-0.8,0-1.4-0.2-1.9-0.7c-0.5-0.4-0.8-1-0.8-1.7h1.1
		c0,0.4,0.1,0.8,0.4,1.1c0.3,0.3,0.7,0.4,1.2,0.4c0.5,0,0.9-0.1,1.2-0.4s0.4-0.7,0.4-1.2c0-0.5-0.1-0.9-0.5-1.1
		c-0.3-0.3-0.7-0.4-1.3-0.4h-0.8V388.2z"/>
	<path class="st2" d="M332,393h-5.6v-0.8l3-3.3c0.4-0.5,0.7-0.9,0.9-1.2c0.2-0.3,0.2-0.6,0.2-1c0-0.4-0.1-0.8-0.4-1.1
		c-0.3-0.3-0.6-0.4-1.1-0.4c-0.5,0-1,0.1-1.3,0.5c-0.3,0.3-0.4,0.7-0.4,1.3h-1.1c0-0.8,0.2-1.4,0.8-1.9c0.5-0.5,1.2-0.7,2-0.7
		c0.8,0,1.4,0.2,1.9,0.6c0.5,0.4,0.7,1,0.7,1.7c0,0.8-0.5,1.8-1.6,3l-2.3,2.5h4.3V393z M338.5,389.3c0,1.3-0.2,2.2-0.6,2.8
		c-0.4,0.6-1.1,0.9-2,0.9c-0.9,0-1.6-0.3-2-0.9c-0.4-0.6-0.7-1.5-0.7-2.7V388c0-1.3,0.2-2.2,0.6-2.8c0.4-0.6,1.1-0.9,2-0.9
		c0.9,0,1.6,0.3,2,0.9c0.4,0.6,0.7,1.5,0.7,2.7V389.3z M337.5,387.8c0-0.9-0.1-1.6-0.4-2c-0.3-0.4-0.7-0.6-1.2-0.6
		c-0.6,0-1,0.2-1.2,0.6c-0.2,0.4-0.4,1.1-0.4,1.9v1.7c0,0.9,0.1,1.6,0.4,2c0.3,0.4,0.7,0.7,1.2,0.7c0.5,0,0.9-0.2,1.2-0.6
		c0.3-0.4,0.4-1.1,0.4-2V387.8z M343.5,393h-1.1v-7.2l-2.2,0.8v-1l3.1-1.2h0.2V393z M351.2,390.1h1.2v0.9h-1.2v2h-1.1v-2h-3.9v-0.6
		l3.8-5.9h1.1V390.1z M347.5,390.1h2.6v-4.2l-0.1,0.2L347.5,390.1z"/>
	<path class="st2" d="M391.7,393h-5.6v-0.8l2.9-3.3c0.4-0.5,0.7-0.9,0.9-1.2c0.2-0.3,0.2-0.6,0.2-1c0-0.4-0.1-0.8-0.4-1.1
		c-0.3-0.3-0.6-0.4-1.1-0.4c-0.5,0-1,0.1-1.2,0.5c-0.3,0.3-0.5,0.7-0.5,1.3h-1.1c0-0.8,0.2-1.4,0.8-1.9c0.5-0.5,1.2-0.7,2-0.7
		c0.8,0,1.4,0.2,1.9,0.6c0.5,0.4,0.7,1,0.7,1.7c0,0.8-0.5,1.8-1.6,3l-2.3,2.5h4.3V393z M398.2,389.3c0,1.3-0.2,2.2-0.6,2.8
		c-0.4,0.6-1.1,0.9-2,0.9c-0.9,0-1.6-0.3-2-0.9c-0.4-0.6-0.7-1.5-0.7-2.7V388c0-1.3,0.2-2.2,0.7-2.8c0.4-0.6,1.1-0.9,2-0.9
		c0.9,0,1.6,0.3,2,0.9c0.4,0.6,0.7,1.5,0.7,2.7V389.3z M397.1,387.8c0-0.9-0.1-1.6-0.4-2c-0.3-0.4-0.7-0.6-1.2-0.6
		c-0.5,0-1,0.2-1.2,0.6c-0.2,0.4-0.4,1.1-0.4,1.9v1.7c0,0.9,0.1,1.6,0.4,2c0.3,0.4,0.7,0.7,1.2,0.7s0.9-0.2,1.2-0.6
		c0.3-0.4,0.4-1.1,0.4-2V387.8z M403.1,393H402v-7.2l-2.2,0.8v-1l3.1-1.2h0.2V393z M406.8,388.7l0.4-4.2h4.4v1h-3.5l-0.3,2.3
		c0.4-0.2,0.9-0.4,1.4-0.4c0.8,0,1.4,0.3,1.8,0.8c0.5,0.5,0.7,1.2,0.7,2.1s-0.2,1.6-0.7,2.1c-0.5,0.5-1.1,0.8-2,0.8
		c-0.8,0-1.4-0.2-1.8-0.6c-0.5-0.4-0.8-1-0.8-1.7h1c0.1,0.5,0.2,0.9,0.5,1.1c0.3,0.2,0.7,0.4,1.1,0.4c0.5,0,0.9-0.2,1.2-0.5
		c0.3-0.3,0.4-0.8,0.4-1.4c0-0.6-0.1-1-0.5-1.4c-0.3-0.4-0.7-0.5-1.2-0.5c-0.5,0-0.8,0.1-1.1,0.3l-0.3,0.2L406.8,388.7z"/>
	<path class="st2" d="M451.3,393h-5.6v-0.8l3-3.3c0.4-0.5,0.7-0.9,0.9-1.2c0.2-0.3,0.2-0.6,0.2-1c0-0.4-0.1-0.8-0.4-1.1
		c-0.3-0.3-0.6-0.4-1.1-0.4c-0.5,0-1,0.1-1.3,0.5c-0.3,0.3-0.4,0.7-0.4,1.3h-1.1c0-0.8,0.2-1.4,0.8-1.9c0.5-0.5,1.2-0.7,2-0.7
		c0.8,0,1.4,0.2,1.9,0.6c0.5,0.4,0.7,1,0.7,1.7c0,0.8-0.5,1.8-1.6,3l-2.3,2.5h4.3V393z M457.8,389.3c0,1.3-0.2,2.2-0.7,2.8
		c-0.4,0.6-1.1,0.9-2,0.9c-0.9,0-1.6-0.3-2-0.9c-0.4-0.6-0.7-1.5-0.7-2.7V388c0-1.3,0.2-2.2,0.6-2.8s1.1-0.9,2-0.9
		c0.9,0,1.6,0.3,2,0.9c0.4,0.6,0.6,1.5,0.7,2.7V389.3z M456.7,387.8c0-0.9-0.1-1.6-0.4-2c-0.2-0.4-0.7-0.6-1.2-0.6s-1,0.2-1.2,0.6
		c-0.3,0.4-0.4,1.1-0.4,1.9v1.7c0,0.9,0.1,1.6,0.4,2c0.3,0.4,0.7,0.7,1.2,0.7c0.5,0,0.9-0.2,1.2-0.6c0.3-0.4,0.4-1.1,0.4-2V387.8z
		 M462.8,393h-1.1v-7.2l-2.2,0.8v-1l3.1-1.2h0.2V393z M470.2,384.4v0.9H470c-0.9,0-1.5,0.3-2,0.8s-0.8,1.2-0.9,2
		c0.5-0.5,1.1-0.8,1.8-0.8c0.7,0,1.3,0.3,1.8,0.8c0.4,0.5,0.7,1.2,0.7,2c0,0.9-0.2,1.6-0.7,2.1c-0.5,0.5-1.1,0.8-1.9,0.8
		s-1.5-0.3-2-0.9c-0.5-0.6-0.8-1.4-0.8-2.4v-0.4c0-1.6,0.3-2.8,1-3.6c0.7-0.8,1.7-1.2,3-1.3H470.2z M468.8,388.3
		c-0.4,0-0.7,0.1-1,0.3c-0.3,0.2-0.5,0.5-0.7,0.8v0.4c0,0.7,0.2,1.3,0.5,1.7c0.3,0.4,0.7,0.6,1.2,0.6c0.5,0,0.9-0.2,1.1-0.5
		c0.3-0.4,0.4-0.8,0.4-1.4c0-0.6-0.1-1.1-0.4-1.4C469.6,388.4,469.2,388.3,468.8,388.3z"/>
	<path class="st2" d="M511,393h-5.6v-0.8l3-3.3c0.4-0.5,0.7-0.9,0.9-1.2c0.2-0.3,0.2-0.6,0.2-1c0-0.4-0.1-0.8-0.4-1.1
		c-0.3-0.3-0.6-0.4-1.1-0.4c-0.5,0-1,0.1-1.3,0.5s-0.5,0.7-0.5,1.3h-1.1c0-0.8,0.2-1.4,0.8-1.9c0.5-0.5,1.2-0.7,2-0.7
		c0.8,0,1.4,0.2,1.9,0.6c0.5,0.4,0.7,1,0.7,1.7c0,0.8-0.5,1.8-1.6,3l-2.3,2.5h4.3V393z M517.5,389.3c0,1.3-0.2,2.2-0.7,2.8
		c-0.4,0.6-1.1,0.9-2,0.9c-0.9,0-1.6-0.3-2-0.9c-0.4-0.6-0.7-1.5-0.7-2.7V388c0-1.3,0.2-2.2,0.6-2.8c0.4-0.6,1.1-0.9,2-0.9
		c0.9,0,1.6,0.3,2,0.9c0.4,0.6,0.7,1.5,0.7,2.7V389.3z M516.4,387.8c0-0.9-0.1-1.6-0.4-2c-0.3-0.4-0.7-0.6-1.2-0.6
		c-0.5,0-1,0.2-1.2,0.6c-0.2,0.4-0.4,1.1-0.4,1.9v1.7c0,0.9,0.1,1.6,0.4,2s0.7,0.7,1.2,0.7c0.5,0,0.9-0.2,1.2-0.6
		c0.3-0.4,0.4-1.1,0.4-2V387.8z M522.4,393h-1.1v-7.2l-2.2,0.8v-1l3.1-1.2h0.2V393z M531.1,385l-3.5,7.9h-1.1l3.5-7.6h-4.6v-0.9h5.8
		V385z"/>
	<path class="st2" d="M570.6,393H565v-0.8l3-3.3c0.4-0.5,0.7-0.9,0.9-1.2c0.2-0.3,0.2-0.6,0.2-1c0-0.4-0.1-0.8-0.4-1.1
		c-0.3-0.3-0.6-0.4-1.1-0.4c-0.5,0-1,0.1-1.2,0.5s-0.5,0.7-0.5,1.3h-1.1c0-0.8,0.3-1.4,0.8-1.9c0.5-0.5,1.2-0.7,2-0.7
		c0.8,0,1.4,0.2,1.9,0.6c0.5,0.4,0.7,1,0.7,1.7c0,0.8-0.5,1.8-1.6,3l-2.3,2.5h4.3V393z M577.1,389.3c0,1.3-0.2,2.2-0.6,2.8
		c-0.4,0.6-1.1,0.9-2,0.9c-0.9,0-1.6-0.3-2-0.9c-0.4-0.6-0.7-1.5-0.7-2.7V388c0-1.3,0.2-2.2,0.6-2.8c0.4-0.6,1.1-0.9,2-0.9
		c0.9,0,1.6,0.3,2,0.9c0.4,0.6,0.7,1.5,0.7,2.7V389.3z M576,387.8c0-0.9-0.1-1.6-0.4-2c-0.3-0.4-0.7-0.6-1.2-0.6
		c-0.6,0-1,0.2-1.2,0.6c-0.3,0.4-0.4,1.1-0.4,1.9v1.7c0,0.9,0.1,1.6,0.4,2c0.3,0.4,0.7,0.7,1.2,0.7c0.5,0,0.9-0.2,1.2-0.6
		c0.2-0.4,0.4-1.1,0.4-2V387.8z M582,393H581v-7.2l-2.2,0.8v-1l3.1-1.2h0.2V393z M590.4,386.6c0,0.4-0.1,0.8-0.3,1.1
		c-0.2,0.3-0.5,0.6-0.9,0.8c0.4,0.2,0.8,0.5,1.1,0.8c0.3,0.4,0.4,0.8,0.4,1.2c0,0.7-0.2,1.3-0.8,1.8s-1.1,0.7-2,0.7s-1.5-0.2-2-0.7
		c-0.5-0.4-0.7-1-0.7-1.8c0-0.5,0.1-0.9,0.4-1.2c0.2-0.4,0.6-0.7,1-0.9c-0.4-0.2-0.7-0.4-0.9-0.8c-0.2-0.3-0.3-0.7-0.3-1.1
		c0-0.7,0.2-1.3,0.7-1.7s1.1-0.6,1.8-0.6s1.4,0.2,1.8,0.6C590.2,385.4,590.4,385.9,590.4,386.6z M589.5,390.6c0-0.5-0.2-0.9-0.5-1.2
		c-0.3-0.3-0.7-0.5-1.2-0.5s-0.9,0.1-1.2,0.5c-0.3,0.3-0.5,0.7-0.5,1.2c0,0.5,0.2,0.9,0.4,1.1c0.3,0.3,0.7,0.4,1.2,0.4
		s0.9-0.1,1.2-0.4C589.4,391.5,589.5,391.1,589.5,390.6z M587.9,385.2c-0.4,0-0.8,0.1-1,0.4c-0.3,0.3-0.4,0.6-0.4,1.1
		c0,0.4,0.1,0.8,0.4,1.1c0.3,0.3,0.6,0.4,1,0.4c0.4,0,0.8-0.1,1-0.4c0.3-0.3,0.4-0.6,0.4-1.1c0-0.4-0.1-0.8-0.4-1.1
		C588.6,385.3,588.3,385.2,587.9,385.2z"/>
	<path class="st2" d="M630.2,393h-5.6v-0.8l3-3.3c0.4-0.5,0.7-0.9,0.9-1.2c0.2-0.3,0.2-0.6,0.2-1c0-0.4-0.1-0.8-0.4-1.1
		c-0.3-0.3-0.6-0.4-1.1-0.4c-0.5,0-1,0.1-1.3,0.5c-0.3,0.3-0.5,0.7-0.5,1.3h-1.1c0-0.8,0.2-1.4,0.8-1.9c0.5-0.5,1.2-0.7,2-0.7
		c0.8,0,1.4,0.2,1.9,0.6c0.5,0.4,0.7,1,0.7,1.7c0,0.8-0.5,1.8-1.6,3l-2.3,2.5h4.3V393z M636.7,389.3c0,1.3-0.2,2.2-0.7,2.8
		c-0.4,0.6-1.1,0.9-2,0.9c-0.9,0-1.6-0.3-2-0.9c-0.4-0.6-0.7-1.5-0.7-2.7V388c0-1.3,0.2-2.2,0.7-2.8c0.4-0.6,1.1-0.9,2-0.9
		c0.9,0,1.6,0.3,2,0.9c0.4,0.6,0.7,1.5,0.7,2.7V389.3z M635.7,387.8c0-0.9-0.1-1.6-0.4-2c-0.3-0.4-0.7-0.6-1.2-0.6
		c-0.6,0-1,0.2-1.2,0.6c-0.2,0.4-0.4,1.1-0.4,1.9v1.7c0,0.9,0.1,1.6,0.4,2c0.3,0.4,0.7,0.7,1.2,0.7c0.5,0,0.9-0.2,1.2-0.6
		c0.3-0.4,0.4-1.1,0.4-2V387.8z M641.7,393h-1.1v-7.2l-2.2,0.8v-1l3.1-1.2h0.2V393z M649,389.2c-0.2,0.3-0.5,0.5-0.8,0.6
		c-0.3,0.2-0.7,0.2-1,0.2c-0.5,0-0.9-0.1-1.3-0.4c-0.4-0.2-0.7-0.6-0.8-1c-0.2-0.4-0.3-0.9-0.3-1.5c0-0.6,0.1-1.1,0.3-1.5
		c0.2-0.5,0.5-0.8,0.9-1.1c0.4-0.2,0.9-0.4,1.4-0.4c0.8,0,1.5,0.3,2,0.9c0.5,0.6,0.7,1.5,0.7,2.6v0.3c0,1.7-0.3,2.9-1,3.6
		c-0.7,0.8-1.7,1.2-3,1.2h-0.2V392h0.2c0.9,0,1.6-0.2,2.1-0.7C648.7,390.9,649,390.2,649,389.2z M647.3,389.2c0.4,0,0.7-0.1,1-0.3
		c0.3-0.2,0.5-0.5,0.7-0.8v-0.4c0-0.7-0.2-1.3-0.5-1.7c-0.3-0.5-0.7-0.7-1.2-0.7c-0.5,0-0.9,0.2-1.2,0.5c-0.3,0.4-0.4,0.8-0.4,1.4
		c0,0.6,0.1,1.1,0.4,1.4C646.5,389,646.9,389.2,647.3,389.2z"/>
	<path class="st2" d="M689.9,393h-5.6v-0.8l2.9-3.3c0.4-0.5,0.7-0.9,0.9-1.2c0.2-0.3,0.2-0.6,0.2-1c0-0.4-0.1-0.8-0.4-1.1
		c-0.3-0.3-0.6-0.4-1.1-0.4c-0.5,0-1,0.1-1.3,0.5c-0.3,0.3-0.5,0.7-0.5,1.3h-1.1c0-0.8,0.2-1.4,0.8-1.9c0.5-0.5,1.2-0.7,2-0.7
		c0.8,0,1.4,0.2,1.9,0.6c0.5,0.4,0.7,1,0.7,1.7c0,0.8-0.5,1.8-1.6,3l-2.3,2.5h4.3V393z M696.4,389.3c0,1.3-0.2,2.2-0.7,2.8
		c-0.4,0.6-1.1,0.9-2,0.9c-0.9,0-1.6-0.3-2-0.9c-0.4-0.6-0.7-1.5-0.7-2.7V388c0-1.3,0.2-2.2,0.7-2.8c0.4-0.6,1.1-0.9,2-0.9
		c0.9,0,1.6,0.3,2,0.9s0.7,1.5,0.7,2.7V389.3z M695.3,387.8c0-0.9-0.1-1.6-0.4-2c-0.3-0.4-0.7-0.6-1.2-0.6c-0.6,0-1,0.2-1.2,0.6
		c-0.2,0.4-0.4,1.1-0.4,1.9v1.7c0,0.9,0.1,1.6,0.4,2c0.3,0.4,0.7,0.7,1.2,0.7c0.5,0,0.9-0.2,1.2-0.6c0.3-0.4,0.4-1.1,0.4-2V387.8z
		 M703.3,393h-5.6v-0.8l2.9-3.3c0.4-0.5,0.7-0.9,0.9-1.2c0.2-0.3,0.2-0.6,0.2-1c0-0.4-0.1-0.8-0.4-1.1c-0.3-0.3-0.6-0.4-1.1-0.4
		c-0.5,0-1,0.1-1.2,0.5c-0.3,0.3-0.5,0.7-0.5,1.3h-1.1c0-0.8,0.3-1.4,0.8-1.9c0.5-0.5,1.2-0.7,2-0.7c0.8,0,1.4,0.2,1.9,0.6
		c0.5,0.4,0.7,1,0.7,1.7c0,0.8-0.5,1.8-1.6,3l-2.3,2.5h4.3V393z M709.8,389.3c0,1.3-0.2,2.2-0.6,2.8c-0.4,0.6-1.1,0.9-2,0.9
		c-0.9,0-1.6-0.3-2-0.9c-0.4-0.6-0.7-1.5-0.7-2.7V388c0-1.3,0.2-2.2,0.7-2.8c0.4-0.6,1.1-0.9,2-0.9c0.9,0,1.6,0.3,2,0.9
		c0.4,0.6,0.6,1.5,0.7,2.7V389.3z M708.8,387.8c0-0.9-0.1-1.6-0.4-2c-0.3-0.4-0.7-0.6-1.2-0.6c-0.6,0-1,0.2-1.2,0.6
		c-0.3,0.4-0.4,1.1-0.4,1.9v1.7c0,0.9,0.1,1.6,0.4,2c0.3,0.4,0.7,0.7,1.2,0.7c0.5,0,0.9-0.2,1.2-0.6c0.3-0.4,0.4-1.1,0.4-2V387.8z"
		/>
	<path class="st2" d="M25.6,380.3h1v6h-1V380.3z"/>
	<path class="st2" d="M85.2,380.3h1v6h-1V380.3z"/>
	<path class="st2" d="M144.9,380.3h1v6h-1V380.3z"/>
	<path class="st2" d="M204.5,380.3h1v6h-1V380.3z"/>
	<path class="st2" d="M264.2,380.3h1v6h-1V380.3z"/>
	<path class="st2" d="M323.8,380.3h1v6h-1V380.3z"/>
	<path class="st2" d="M383.4,380.3h1v6h-1V380.3z"/>
	<path class="st2" d="M443.1,380.3h1v6h-1V380.3z"/>
	<path class="st2" d="M502.7,380.3h1v6h-1V380.3z"/>
	<path class="st2" d="M562.3,380.3h1v6h-1V380.3z"/>
	<path class="st2" d="M622,380.3h1v6h-1V380.3z"/>
	<path class="st2" d="M681.6,380.3h1v6h-1V380.3z"/>
</g>
</svg>
