<?xml version="1.0" encoding="utf-8"?>
<!-- Generator: Adobe Illustrator 23.0.6, SVG Export Plug-In . SVG Version: 6.00 Build 0)  -->
<svg version="1.1" id="Слой_1" xmlns="http://www.w3.org/2000/svg" xmlns:xlink="http://www.w3.org/1999/xlink" x="0px" y="0px"
	 viewBox="0 0 710 435" style="enable-background:new 0 0 710 435;" xml:space="preserve">
<style type="text/css">
	.st0{fill:#FFFFFF;}
	.st1{fill:#494A4D;}
	.st2{fill:#A6A6A6;}
	.st3{fill:none;stroke:#BF381D;stroke-width:2;stroke-linecap:round;}
	.st4{fill:none;stroke:#494A4D;stroke-width:2;stroke-linecap:round;}
	.st5{fill:#BF381D;}
</style>
<path class="st0" d="M0-0.5h710v435H0V-0.5z"/>
<path class="st1" d="M6.6,43.4H1.4v9.5H0V42.2h6.6V43.4z M14.8,49c0,1.2-0.3,2.2-0.8,2.9S12.7,53,11.8,53c-1,0-1.7-0.3-2.3-0.9v3.8
	H8.1v-11h1.2l0.1,0.9c0.6-0.7,1.3-1,2.3-1s1.7,0.4,2.3,1.1c0.6,0.7,0.8,1.7,0.8,3C14.8,48.9,14.8,49,14.8,49z M13.4,48.9
	c0-0.9-0.2-1.6-0.6-2.1c-0.4-0.5-0.9-0.8-1.6-0.8c-0.8,0-1.4,0.4-1.8,1.1v3.8c0.4,0.7,1,1.1,1.9,1.1c0.6,0,1.2-0.3,1.5-0.8
	C13.2,50.6,13.4,49.9,13.4,48.9z M21.4,52.9c-0.1-0.1-0.1-0.4-0.2-0.8c-0.6,0.7-1.4,1-2.3,1c-0.8,0-1.4-0.2-1.9-0.7s-0.8-1-0.8-1.7
	c0-0.8,0.3-1.5,0.9-1.9s1.5-0.7,2.6-0.7H21v-0.6c0-0.5-0.1-0.8-0.4-1.1S19.9,46,19.4,46s-0.9,0.1-1.2,0.4c-0.3,0.2-0.5,0.5-0.5,0.9
	h-1.4c0-0.4,0.1-0.8,0.4-1.1s0.7-0.7,1.1-0.9c0.5-0.2,1-0.3,1.6-0.3c0.9,0,1.6,0.2,2.1,0.7c0.5,0.4,0.8,1.1,0.8,1.9V51
	c0,0.7,0.1,1.3,0.3,1.7v0.1h-1.2V52.9z M19.1,51.8c0.4,0,0.8-0.1,1.2-0.3s0.7-0.5,0.8-0.8V49H20c-1.7,0-2.5,0.5-2.5,1.5
	c0,0.4,0.2,0.8,0.4,1C18.3,51.7,18.7,51.8,19.1,51.8z M31,49.4h-1v3.4h-1.4v-3.4h-1l-2.2,3.4h-1.7l2.8-4.1L24,44.9h1.6l2,3.3h0.9
	v-3.3H30v3.3h0.9l2.1-3.3h1.6L32,48.7l2.8,4.1h-1.7L31,49.4z M36.1,51.8l0.5-0.6c0.5-0.7,0.8-1.7,0.9-3.1l0.1-3.2h5.1v6.8h1v3.4
	h-1.4v-2.3h-5.5v2.3h-1.4v-3.4L36.1,51.8L36.1,51.8z M37.7,51.8h3.6v-5.6h-2.4l-0.1,1.9C38.7,49.7,38.3,50.9,37.7,51.8z M50.1,52.9
	c-0.1-0.1-0.1-0.4-0.2-0.8c-0.6,0.7-1.4,1-2.3,1c-0.8,0-1.4-0.2-1.9-0.7s-0.8-1-0.8-1.7c0-0.8,0.3-1.5,0.9-1.9
	c0.6-0.4,1.5-0.7,2.6-0.7h1.3v-0.6c0-0.5-0.1-0.8-0.4-1.1C49,46.1,48.6,46,48.1,46s-0.9,0.1-1.2,0.4c-0.3,0.2-0.5,0.5-0.5,0.9H45
	c0-0.4,0.1-0.8,0.4-1.1s0.7-0.7,1.1-0.9c0.5-0.2,1-0.3,1.6-0.3c0.9,0,1.6,0.2,2.1,0.7c0.5,0.4,0.8,1.1,0.8,1.9V51
	c0,0.7,0.1,1.3,0.3,1.7v0.1h-1.2V52.9z M47.8,51.8c0.4,0,0.8-0.1,1.2-0.3s0.6-0.5,0.8-0.8V49h-1.1c-1.7,0-2.5,0.5-2.5,1.5
	c0,0.4,0.1,0.8,0.4,1C47,51.7,47.4,51.8,47.8,51.8z M59.8,52.9h-1.4v-3.4h-3.6v3.4h-1.4V45h1.4v3.4h3.6V45h1.4V52.9z M68.9,51.9
	c0.5,0,0.9-0.1,1.3-0.4c0.4-0.3,0.6-0.7,0.6-1.1H72c0,0.4-0.2,0.9-0.5,1.3c-0.3,0.4-0.7,0.7-1.1,1c-0.5,0.2-1,0.4-1.5,0.4
	c-1.1,0-1.9-0.4-2.6-1.1c-0.6-0.7-1-1.7-1-2.9v-0.2c0-0.8,0.1-1.5,0.4-2.1s0.7-1.1,1.2-1.4s1.1-0.5,1.9-0.5c0.9,0,1.6,0.3,2.2,0.8
	s0.9,1.2,0.9,2.1h-1.3c0-0.5-0.2-0.9-0.6-1.3c-0.4-0.3-0.8-0.5-1.3-0.5c-0.7,0-1.2,0.2-1.6,0.7s-0.6,1.2-0.6,2.1v0.3
	c0,0.9,0.2,1.6,0.6,2.1C67.6,51.7,68.2,51.9,68.9,51.9z M76.1,50.9L78,45h1.5l-3.2,9.2c-0.5,1.3-1.3,2-2.4,2h-0.3L73.1,56v-1.1h0.4
	c0.5,0,0.8-0.1,1.1-0.3c0.2-0.2,0.5-0.5,0.6-1l0.3-0.8L72.7,45h1.5L76.1,50.9z M80.6,51.8l0.5-0.6c0.5-0.7,0.8-1.7,0.9-3.1l0.1-3.2
	h5.1v6.8h1v3.4h-1.4v-2.3h-5.5v2.3H80v-3.4L80.6,51.8L80.6,51.8z M82.2,51.8h3.6v-5.6h-2.4l-0.1,1.9C83.2,49.7,82.9,50.9,82.2,51.8z
	 M95.8,44.9v7.9h-1.4v-3.1h-2l-1.9,3.1H89l2-3.3c-0.5-0.2-0.9-0.5-1.2-0.9c-0.3-0.4-0.4-0.8-0.4-1.4c0-0.7,0.3-1.3,0.8-1.8
	c0.5-0.4,1.3-0.7,2.2-0.7h3.4V44.9z M90.8,47.4c0,0.4,0.1,0.7,0.4,0.9s0.6,0.3,1,0.4h2.1v-2.6h-1.9c-0.5,0-0.9,0.1-1.2,0.4
	C91,46.7,90.8,47,90.8,47.4z M103.8,46.1h-2.7v6.8h-1.4v-6.8h-2.6V45h6.6L103.8,46.1L103.8,46.1z M113.2,47.1c0-0.4-0.1-0.7-0.4-0.9
	s-0.7-0.3-1.2-0.3s-0.9,0.1-1.2,0.4c-0.3,0.2-0.5,0.5-0.5,0.9h-1.3c0-0.7,0.3-1.2,0.9-1.7c0.6-0.4,1.3-0.7,2.2-0.7
	c0.9,0,1.6,0.2,2.2,0.6c0.5,0.4,0.8,1,0.8,1.7c0,0.4-0.1,0.7-0.3,1c-0.2,0.3-0.5,0.5-0.9,0.7c0.9,0.3,1.4,0.9,1.4,1.8
	c0,0.7-0.3,1.3-0.8,1.7c-0.6,0.4-1.3,0.6-2.2,0.6c-0.9,0-1.7-0.2-2.3-0.7c-0.6-0.4-0.9-1.1-0.9-1.8h1.4c0,0.4,0.2,0.7,0.5,1
	c0.4,0.3,0.8,0.4,1.3,0.4s0.9-0.1,1.2-0.4c0.3-0.2,0.5-0.6,0.5-0.9c0-0.4-0.1-0.8-0.4-1s-0.7-0.3-1.2-0.3h-1.4v-1.1h1.5
	C112.8,48.2,113.2,47.9,113.2,47.1z M121.4,52.9c-0.1-0.1-0.1-0.4-0.2-0.8c-0.6,0.7-1.4,1-2.3,1c-0.8,0-1.4-0.2-1.9-0.7
	s-0.8-1-0.8-1.7c0-0.8,0.3-1.5,0.9-1.9s1.5-0.7,2.6-0.7h1.3v-0.6c0-0.5-0.1-0.8-0.4-1.1s-0.7-0.4-1.2-0.4s-0.9,0.1-1.2,0.4
	c-0.3,0.2-0.5,0.5-0.5,0.9h-1.4c0-0.4,0.1-0.8,0.4-1.1s0.7-0.7,1.1-0.9c0.5-0.2,1-0.3,1.6-0.3c0.9,0,1.6,0.2,2.2,0.7
	c0.5,0.4,0.8,1.1,0.8,1.9V51c0,0.7,0.1,1.3,0.3,1.7v0.1h-1.3V52.9z M119.1,51.8c0.4,0,0.8-0.1,1.2-0.3s0.7-0.5,0.8-0.8V49H120
	c-1.7,0-2.5,0.5-2.5,1.5c0,0.4,0.1,0.8,0.4,1C118.3,51.7,118.7,51.8,119.1,51.8z M134.8,52.9h-1.4v-3.4h-3.6v3.4h-1.4V45h1.4v3.4
	h3.6V45h1.4V52.9z M141.9,52.9c-0.1-0.1-0.1-0.4-0.2-0.8c-0.6,0.7-1.4,1-2.2,1s-1.4-0.2-1.9-0.7s-0.8-1-0.8-1.7
	c0-0.8,0.3-1.5,0.9-1.9c0.6-0.4,1.5-0.7,2.6-0.7h1.3v-0.6c0-0.5-0.1-0.8-0.4-1.1c-0.3-0.3-0.7-0.4-1.2-0.4s-0.9,0.1-1.2,0.4
	c-0.3,0.2-0.5,0.5-0.5,0.9h-1.4c0-0.4,0.1-0.8,0.4-1.1c0.3-0.4,0.7-0.7,1.1-0.9c0.5-0.2,1-0.3,1.6-0.3c0.9,0,1.6,0.2,2.1,0.7
	c0.5,0.4,0.8,1.1,0.8,1.9V51c0,0.7,0.1,1.3,0.3,1.7v0.1h-1.3V52.9z M139.6,51.8c0.4,0,0.8-0.1,1.2-0.3s0.7-0.5,0.8-0.8V49h-1.1
	c-1.7,0-2.5,0.5-2.5,1.5c0,0.4,0.1,0.8,0.4,1C138.8,51.7,139.2,51.8,139.6,51.8z M148.3,51.9c0.5,0,0.9-0.1,1.3-0.4
	c0.4-0.3,0.6-0.7,0.6-1.1h1.3c0,0.4-0.2,0.9-0.5,1.3c-0.3,0.4-0.7,0.7-1.2,1c-0.5,0.2-1,0.4-1.5,0.4c-1.1,0-1.9-0.4-2.6-1.1
	c-0.6-0.7-0.9-1.7-0.9-2.9v-0.2c0-0.8,0.1-1.5,0.4-2.1c0.3-0.6,0.7-1.1,1.2-1.4s1.2-0.5,1.9-0.5c0.9,0,1.6,0.3,2.2,0.8
	c0.6,0.5,0.9,1.2,0.9,2.1h-1.3c0-0.5-0.2-0.9-0.6-1.3c-0.3-0.3-0.8-0.5-1.3-0.5c-0.7,0-1.2,0.2-1.6,0.7c-0.4,0.5-0.6,1.2-0.6,2.1
	v0.3c0,0.9,0.2,1.6,0.6,2.1C147.1,51.7,147.6,51.9,148.3,51.9z M158.1,44.9h1.4v7.9h-1.4V47l-3.7,5.8h-1.3v-7.9h1.3v5.8L158.1,44.9z
	 M168.2,44.9v7.9h-1.4V46h-2.7l-0.2,3c-0.1,1.4-0.3,2.3-0.7,2.9c-0.4,0.6-0.9,0.9-1.8,0.9H161v-1.2h0.4c0.4,0,0.8-0.3,0.9-0.8
	s0.3-1.3,0.4-2.6l0.1-3.4L168.2,44.9L168.2,44.9z M175.5,44.9h1.4v7.9h-1.4V47l-3.7,5.8h-1.3v-7.9h1.3v5.8L175.5,44.9z M182.3,53
	c-1.1,0-1.9-0.4-2.6-1.1c-0.7-0.7-1-1.7-1-2.8v-0.2c0-0.8,0.2-1.5,0.5-2.1s0.7-1.1,1.3-1.4c0.5-0.4,1.1-0.5,1.8-0.5
	c1,0,1.8,0.3,2.4,1c0.6,0.7,0.9,1.6,0.9,2.9v0.6H180c0,0.8,0.2,1.4,0.7,1.9c0.4,0.5,1,0.7,1.7,0.7c0.5,0,0.9-0.1,1.2-0.3
	s0.6-0.4,0.9-0.8l0.8,0.6C184.6,52.5,183.6,53,182.3,53z M182.1,45.9c-0.5,0-1,0.2-1.4,0.6c-0.4,0.4-0.6,1-0.7,1.7h4v-0.1
	c0-0.7-0.2-1.2-0.6-1.6C183.1,46.1,182.7,45.9,182.1,45.9z M197.1,52.9h-1.4v-6.8h-3.6v6.8h-1.4V45h6.4V52.9z M206,49
	c0,1.2-0.3,2.2-0.8,2.9S203.9,53,203,53c-1,0-1.7-0.3-2.3-0.9v3.8h-1.4v-11h1.2l0.1,0.9c0.6-0.7,1.3-1,2.3-1c0.9,0,1.7,0.4,2.3,1.1
	c0.6,0.7,0.8,1.7,0.8,3L206,49L206,49z M204.6,48.9c0-0.9-0.2-1.6-0.6-2.1c-0.4-0.5-0.9-0.8-1.6-0.8c-0.8,0-1.4,0.4-1.8,1.1v3.8
	c0.4,0.7,1,1.1,1.9,1.1c0.6,0,1.2-0.3,1.6-0.8C204.5,50.6,204.6,49.9,204.6,48.9z M207.4,48.8c0-0.8,0.2-1.5,0.5-2.1
	s0.7-1.1,1.3-1.4c0.5-0.3,1.2-0.5,1.9-0.5c1.1,0,1.9,0.4,2.6,1.1c0.7,0.8,1,1.7,1,3V49c0,0.8-0.1,1.5-0.4,2.1
	c-0.3,0.6-0.7,1.1-1.3,1.4c-0.5,0.3-1.2,0.5-1.9,0.5c-1.1,0-1.9-0.4-2.6-1.1S207.4,50.2,207.4,48.8L207.4,48.8z M208.7,49
	c0,0.9,0.2,1.6,0.6,2.1c0.4,0.5,1,0.8,1.6,0.8c0.7,0,1.2-0.3,1.6-0.8c0.4-0.5,0.6-1.3,0.6-2.3c0-0.9-0.2-1.6-0.6-2.1
	c-0.4-0.5-1-0.8-1.6-0.8c-0.7,0-1.2,0.3-1.6,0.8S208.7,48,208.7,49z M222.2,46.1h-2.7v6.8h-1.3v-6.8h-2.6V45h6.6V46.1z M228.6,44.9
	h1.4v7.9h-1.4V47l-3.7,5.8h-1.4v-7.9h1.4v5.8L228.6,44.9z M232.3,52.9V45h3.1c1.1,0,1.9,0.2,2.4,0.6c0.6,0.4,0.8,0.9,0.8,1.6
	c0,0.4-0.1,0.7-0.3,1s-0.5,0.5-1,0.7c0.5,0.1,0.9,0.3,1.2,0.7c0.3,0.3,0.4,0.7,0.4,1.2c0,0.7-0.3,1.3-0.8,1.7s-1.3,0.6-2.3,0.6h-3.5
	V52.9z M233.6,49.4v2.4h2.2c0.6,0,1-0.1,1.3-0.3s0.4-0.5,0.4-0.9c0-0.8-0.6-1.2-1.7-1.2H233.6z M233.6,48.3h1.8
	c1.3,0,1.9-0.4,1.9-1.1c0-0.7-0.6-1.1-1.8-1.1h-1.9V48.3z M250.9,52.9h-1.4v-6.8h-3.6v6.8h-1.4V45h6.4V52.9z M259.8,49
	c0,1.2-0.3,2.2-0.8,2.9c-0.6,0.7-1.3,1.1-2.2,1.1c-1,0-1.7-0.3-2.3-0.9v3.8h-1.4v-11h1.2l0.1,0.9c0.6-0.7,1.3-1,2.3-1
	c1,0,1.7,0.4,2.3,1.1c0.6,0.7,0.8,1.7,0.8,3L259.8,49L259.8,49z M258.4,48.9c0-0.9-0.2-1.6-0.6-2.1s-0.9-0.8-1.6-0.8
	c-0.8,0-1.4,0.4-1.9,1.1v3.8c0.4,0.7,1,1.1,1.9,1.1c0.7,0,1.2-0.3,1.6-0.8C258.2,50.6,258.4,49.9,258.4,48.9z M264.8,53
	c-1.1,0-2-0.4-2.6-1.1c-0.7-0.7-1-1.7-1-2.8v-0.2c0-0.8,0.1-1.5,0.4-2.1s0.7-1.1,1.3-1.4c0.5-0.4,1.1-0.5,1.8-0.5c1,0,1.8,0.3,2.4,1
	s0.9,1.6,0.9,2.9v0.6h-5.4c0,0.8,0.2,1.4,0.7,1.9s1,0.7,1.7,0.7c0.5,0,0.9-0.1,1.2-0.3c0.3-0.2,0.6-0.4,0.9-0.8l0.8,0.6
	C267.1,52.5,266.1,53,264.8,53z M264.6,45.9c-0.5,0-1,0.2-1.4,0.6c-0.4,0.4-0.6,1-0.7,1.7h4v-0.1c0-0.7-0.2-1.2-0.6-1.6
	C265.6,46.1,265.2,45.9,264.6,45.9z M269.4,51.8l0.5-0.6c0.5-0.7,0.8-1.7,0.9-3.1l0.1-3.2h5.1v6.8h1v3.4h-1.4v-2.3h-5.5v2.3h-1.4
	v-3.4L269.4,51.8L269.4,51.8z M271,51.8h3.6v-5.6h-2.4l-0.1,1.9C272,49.7,271.6,50.9,271,51.8z M281.7,51.9c0.5,0,0.9-0.1,1.3-0.4
	c0.4-0.3,0.6-0.7,0.6-1.1h1.3c0,0.4-0.2,0.9-0.5,1.3c-0.3,0.4-0.7,0.7-1.1,1c-0.5,0.2-1,0.4-1.5,0.4c-1.1,0-1.9-0.4-2.6-1.1
	c-0.6-0.7-1-1.7-1-2.9v-0.2c0-0.8,0.1-1.5,0.4-2.1s0.7-1.1,1.2-1.4c0.5-0.3,1.2-0.5,1.9-0.5c0.9,0,1.6,0.3,2.2,0.8s0.9,1.2,0.9,2.1
	h-1.3c0-0.5-0.2-0.9-0.6-1.3s-0.8-0.5-1.3-0.5c-0.7,0-1.2,0.2-1.6,0.7s-0.6,1.2-0.6,2.1v0.3c0,0.9,0.2,1.6,0.6,2.1
	C280.5,51.7,281,51.9,281.7,51.9z M292.2,46.1h-2.7v6.8h-1.4v-6.8h-2.6V45h6.6v1.1H292.2z M298.5,52.9c-0.1-0.1-0.1-0.4-0.2-0.8
	c-0.6,0.7-1.4,1-2.2,1c-0.8,0-1.4-0.2-1.9-0.7s-0.8-1-0.8-1.7c0-0.8,0.3-1.5,0.9-1.9s1.5-0.7,2.6-0.7h1.3v-0.6
	c0-0.5-0.1-0.8-0.4-1.1s-0.7-0.4-1.3-0.4c-0.5,0-0.9,0.1-1.2,0.4c-0.3,0.2-0.5,0.5-0.5,0.9h-1.4c0-0.4,0.1-0.8,0.4-1.1
	c0.3-0.4,0.7-0.7,1.1-0.9c0.5-0.2,1-0.3,1.6-0.3c0.9,0,1.6,0.2,2.1,0.7c0.5,0.4,0.8,1.1,0.8,1.9V51c0,0.7,0.1,1.3,0.3,1.7v0.1h-1.2
	V52.9z M296.2,51.8c0.4,0,0.8-0.1,1.2-0.3c0.4-0.2,0.7-0.5,0.8-0.8V49h-1.1c-1.7,0-2.5,0.5-2.5,1.5c0,0.4,0.1,0.8,0.4,1
	C295.4,51.7,295.8,51.8,296.2,51.8z M301.9,52.9V45h3.1c1,0,1.9,0.2,2.4,0.6c0.6,0.4,0.9,0.9,0.9,1.6c0,0.4-0.1,0.7-0.3,1
	c-0.2,0.3-0.5,0.5-1,0.7c0.5,0.1,0.9,0.3,1.1,0.7c0.3,0.3,0.4,0.7,0.4,1.2c0,0.7-0.3,1.3-0.8,1.7s-1.3,0.6-2.3,0.6h-3.5V52.9z
	 M303.2,49.4v2.4h2.2c0.6,0,1-0.1,1.3-0.3s0.4-0.5,0.4-0.9c0-0.8-0.6-1.2-1.7-1.2H303.2z M303.2,48.3h1.8c1.3,0,1.9-0.4,1.9-1.1
	c0-0.7-0.6-1.1-1.8-1.1h-1.8v2.2H303.2z M315.4,44.9h1.4v7.9h-1.4V47l-3.7,5.8h-1.4v-7.9h1.4v5.8L315.4,44.9z M324.8,46.1h-2.7v6.8
	h-1.4v-6.8h-2.6V45h6.6v1.1H324.8z M329.4,53c-1.1,0-1.9-0.4-2.6-1.1c-0.7-0.7-1-1.7-1-2.8v-0.2c0-0.8,0.1-1.5,0.5-2.1
	c0.3-0.6,0.7-1.1,1.3-1.4c0.5-0.4,1.1-0.5,1.8-0.5c1,0,1.8,0.3,2.4,1s0.9,1.6,0.9,2.9v0.6h-5.4c0,0.8,0.2,1.4,0.7,1.9s1,0.7,1.7,0.7
	c0.5,0,0.9-0.1,1.2-0.3c0.3-0.2,0.6-0.4,0.9-0.8l0.8,0.6C331.8,52.5,330.8,53,329.4,53z M329.3,45.9c-0.5,0-1,0.2-1.4,0.6
	c-0.4,0.4-0.6,1-0.7,1.7h4v-0.1c0-0.7-0.2-1.2-0.6-1.6C330.3,46.1,329.8,45.9,329.3,45.9z M340.6,44.9v7.9h-1.4V46h-2.7l-0.2,3
	c-0.1,1.4-0.3,2.3-0.7,2.9c-0.4,0.6-1,0.9-1.8,0.9h-0.5v-1.2h0.4c0.4,0,0.8-0.3,0.9-0.8s0.3-1.3,0.4-2.6l0.1-3.4L340.6,44.9
	L340.6,44.9z M346.1,53c-1.1,0-2-0.4-2.6-1.1c-0.7-0.7-1-1.7-1-2.8v-0.2c0-0.8,0.1-1.5,0.5-2.1c0.3-0.6,0.7-1.1,1.3-1.4
	c0.5-0.4,1.1-0.5,1.8-0.5c1,0,1.8,0.3,2.4,1s0.9,1.6,0.9,2.9v0.6H344c0,0.8,0.2,1.4,0.7,1.9s1,0.7,1.7,0.7c0.5,0,0.9-0.1,1.2-0.3
	c0.3-0.2,0.6-0.4,0.9-0.8l0.8,0.6C348.4,52.5,347.4,53,346.1,53z M345.9,45.9c-0.5,0-1,0.2-1.4,0.6c-0.4,0.4-0.6,1-0.7,1.7h4v-0.1
	c0-0.7-0.2-1.2-0.6-1.6C346.9,46.1,346.5,45.9,345.9,45.9z M355.9,44.9h1.4v7.9h-1.4V47l-3.7,5.8h-1.4v-7.9h1.4v5.8L355.9,44.9z
	 M356.2,42.1c0,0.6-0.2,1.1-0.6,1.4c-0.4,0.4-0.9,0.5-1.6,0.5c-0.6,0-1.2-0.2-1.6-0.6c-0.4-0.4-0.6-0.8-0.6-1.4h1.1
	c0,0.4,0.1,0.6,0.3,0.8c0.2,0.2,0.5,0.3,0.8,0.3c0.4,0,0.6-0.1,0.8-0.3c0.2-0.2,0.3-0.5,0.3-0.8L356.2,42.1L356.2,42.1z M363.2,52.9
	V45h3.1c1,0,1.9,0.2,2.4,0.6c0.6,0.4,0.8,0.9,0.8,1.6c0,0.4-0.1,0.7-0.3,1c-0.2,0.3-0.5,0.5-1,0.7c0.5,0.1,0.9,0.3,1.1,0.7
	c0.3,0.3,0.4,0.7,0.4,1.2c0,0.7-0.3,1.3-0.8,1.7s-1.3,0.6-2.3,0.6h-3.4V52.9z M364.6,49.4v2.4h2.2c0.6,0,1-0.1,1.3-0.3
	s0.4-0.5,0.4-0.9c0-0.8-0.6-1.2-1.7-1.2H364.6z M364.6,48.3h1.8c1.3,0,1.9-0.4,1.9-1.1c0-0.7-0.6-1.1-1.8-1.1h-1.9V48.3z
	 M378.2,44.9v7.9h-1.4V46h-2.7l-0.2,3c-0.1,1.4-0.3,2.3-0.7,2.9c-0.4,0.6-1,0.9-1.8,0.9H371v-1.2h0.4c0.4,0,0.8-0.3,0.9-0.8
	s0.3-1.3,0.4-2.6l0.1-3.4L378.2,44.9L378.2,44.9z M385.2,52.9c-0.1-0.1-0.1-0.4-0.2-0.8c-0.6,0.7-1.4,1-2.2,1
	c-0.8,0-1.4-0.2-1.9-0.7s-0.8-1-0.8-1.7c0-0.8,0.3-1.5,0.9-1.9s1.5-0.7,2.6-0.7h1.3v-0.6c0-0.5-0.1-0.8-0.4-1.1s-0.7-0.4-1.3-0.4
	c-0.5,0-0.9,0.1-1.2,0.4c-0.3,0.2-0.5,0.5-0.5,0.9h-1.4c0-0.4,0.1-0.8,0.4-1.1s0.7-0.7,1.1-0.9c0.5-0.2,1-0.3,1.6-0.3
	c0.9,0,1.6,0.2,2.1,0.7c0.5,0.4,0.8,1.1,0.8,1.9V51c0,0.7,0.1,1.3,0.3,1.7v0.1h-1.2V52.9z M383,51.8c0.4,0,0.8-0.1,1.2-0.3
	c0.4-0.2,0.7-0.5,0.8-0.8V49h-1c-1.7,0-2.5,0.5-2.5,1.5c0,0.4,0.1,0.8,0.4,1C382.2,51.7,382.5,51.8,383,51.8z M391.7,51.9
	c0.5,0,0.9-0.1,1.3-0.4c0.4-0.3,0.6-0.7,0.6-1.1h1.3c0,0.4-0.2,0.9-0.5,1.3s-0.7,0.7-1.1,1c-0.5,0.2-1,0.4-1.5,0.4
	c-1.1,0-1.9-0.4-2.6-1.1c-0.6-0.7-1-1.7-1-2.9v-0.2c0-0.8,0.1-1.5,0.4-2.1s0.7-1.1,1.2-1.4s1.2-0.5,1.9-0.5c0.9,0,1.6,0.3,2.2,0.8
	s0.9,1.2,0.9,2.1h-1.3c0-0.5-0.2-0.9-0.6-1.3c-0.4-0.3-0.8-0.5-1.3-0.5c-0.7,0-1.2,0.2-1.6,0.7s-0.6,1.2-0.6,2.1v0.3
	c0,0.9,0.2,1.6,0.6,2.1C390.4,51.7,391,51.9,391.7,51.9z M402.2,46.1h-2.7v6.8h-1.4v-6.8h-2.6V45h6.6v1.1H402.2z M408.7,44.9h1.4
	v7.9h-1.4V47l-3.7,5.8h-1.4v-7.9h1.4v5.8L408.7,44.9z M416,52.9V45h3.1c1,0,1.9,0.2,2.4,0.6c0.6,0.4,0.9,0.9,0.9,1.6
	c0,0.4-0.1,0.7-0.3,1c-0.2,0.3-0.5,0.5-1,0.7c0.5,0.1,0.9,0.3,1.2,0.7c0.3,0.3,0.4,0.7,0.4,1.2c0,0.7-0.3,1.3-0.8,1.7
	s-1.3,0.6-2.3,0.6H416V52.9z M417.4,49.4v2.4h2.2c0.6,0,1-0.1,1.3-0.3s0.4-0.5,0.4-0.9c0-0.8-0.6-1.2-1.7-1.2H417.4z M417.4,48.3
	h1.8c1.3,0,1.9-0.4,1.9-1.1c0-0.7-0.6-1.1-1.8-1.1h-1.9V48.3z M429.7,44.9v6.8h2.9v-6.8h1.4v6.8h2.9v-6.8h1.4v7.9h-9.9v-7.9H429.7z
	 M443.6,53c-1.1,0-2-0.4-2.6-1.1c-0.7-0.7-1-1.7-1-2.8v-0.2c0-0.8,0.2-1.5,0.5-2.1s0.7-1.1,1.3-1.4c0.5-0.4,1.1-0.5,1.8-0.5
	c1,0,1.8,0.3,2.4,1s0.9,1.6,0.9,2.9v0.6h-5.4c0,0.8,0.2,1.4,0.7,1.9c0.4,0.5,1,0.7,1.7,0.7c0.5,0,0.9-0.1,1.2-0.3
	c0.3-0.2,0.6-0.4,0.9-0.8l0.8,0.6C445.9,52.5,445,53,443.6,53z M443.5,45.9c-0.5,0-1,0.2-1.4,0.6c-0.4,0.4-0.6,1-0.7,1.7h4v-0.1
	c0-0.7-0.2-1.2-0.6-1.6C444.5,46.1,444,45.9,443.5,45.9z M451.5,51.9c0.5,0,0.9-0.1,1.3-0.4c0.4-0.3,0.6-0.7,0.6-1.1h1.3
	c0,0.4-0.2,0.9-0.5,1.3c-0.3,0.4-0.7,0.7-1.2,1c-0.5,0.2-1,0.4-1.5,0.4c-1.1,0-1.9-0.4-2.6-1.1c-0.6-0.7-1-1.7-1-2.9v-0.2
	c0-0.8,0.1-1.5,0.4-2.1s0.7-1.1,1.2-1.4s1.2-0.5,1.9-0.5c0.9,0,1.6,0.3,2.2,0.8s0.9,1.2,0.9,2.1h-1.3c0-0.5-0.2-0.9-0.6-1.3
	c-0.3-0.3-0.8-0.5-1.3-0.5c-0.7,0-1.2,0.2-1.6,0.7s-0.6,1.2-0.6,2.1v0.3c0,0.9,0.2,1.6,0.6,2.1C450.2,51.7,450.8,51.9,451.5,51.9z
	 M462,46.1h-2.7v6.8H458v-6.8h-2.6V45h6.6V46.1z M464.8,47.7h2.1c0.9,0,1.6,0.2,2.1,0.7s0.8,1.1,0.8,1.9c0,0.8-0.3,1.4-0.8,1.9
	s-1.3,0.7-2.2,0.7h-3.4V45h1.4V47.7z M464.8,48.8v3h2c0.5,0,0.9-0.1,1.2-0.4c0.3-0.3,0.4-0.6,0.4-1.1c0-0.4-0.1-0.8-0.4-1.1
	s-0.6-0.4-1.1-0.4H464.8z M481.9,49c0,1.2-0.3,2.2-0.8,2.9s-1.3,1.1-2.2,1.1c-1,0-1.7-0.3-2.3-0.9v3.8h-1.3v-11h1.2l0.1,0.9
	c0.5-0.7,1.3-1,2.3-1s1.7,0.4,2.3,1.1c0.5,0.7,0.8,1.7,0.8,3V49H481.9z M480.5,48.9c0-0.9-0.2-1.6-0.6-2.1S479,46,478.3,46
	c-0.8,0-1.4,0.4-1.9,1.1v3.8c0.4,0.7,1,1.1,1.9,1.1c0.6,0,1.2-0.3,1.5-0.8C480.3,50.6,480.5,49.9,480.5,48.9z M488.5,52.9
	c-0.1-0.1-0.1-0.4-0.2-0.8c-0.6,0.7-1.4,1-2.2,1c-0.8,0-1.4-0.2-1.9-0.7c-0.5-0.4-0.8-1-0.8-1.7c0-0.8,0.3-1.5,0.9-1.9
	s1.5-0.7,2.6-0.7h1.3v-0.6c0-0.5-0.1-0.8-0.4-1.1s-0.7-0.4-1.3-0.4c-0.5,0-0.9,0.1-1.2,0.4c-0.3,0.2-0.5,0.5-0.5,0.9h-1.4
	c0-0.4,0.2-0.8,0.4-1.1s0.7-0.7,1.1-0.9c0.5-0.2,1-0.3,1.6-0.3c0.9,0,1.6,0.2,2.1,0.7c0.5,0.4,0.8,1.1,0.8,1.9V51
	c0,0.7,0.1,1.3,0.3,1.7v0.1h-1.2V52.9z M486.2,51.8c0.4,0,0.8-0.1,1.2-0.3c0.4-0.2,0.7-0.5,0.8-0.8V49h-1.1c-1.7,0-2.5,0.5-2.5,1.5
	c0,0.4,0.1,0.8,0.4,1C485.5,51.7,485.8,51.8,486.2,51.8z M496.1,47.1c0-0.4-0.1-0.7-0.4-0.9s-0.7-0.3-1.2-0.3s-0.9,0.1-1.2,0.4
	c-0.3,0.2-0.5,0.5-0.5,0.9h-1.3c0-0.7,0.3-1.2,0.9-1.7c0.6-0.4,1.3-0.7,2.2-0.7c0.9,0,1.7,0.2,2.2,0.6c0.5,0.4,0.8,1,0.8,1.7
	c0,0.4-0.1,0.7-0.3,1c-0.2,0.3-0.5,0.5-0.9,0.7c0.9,0.3,1.4,0.9,1.4,1.8c0,0.7-0.3,1.3-0.8,1.7c-0.6,0.4-1.3,0.6-2.2,0.6
	c-0.9,0-1.7-0.2-2.3-0.7c-0.6-0.4-0.9-1.1-0.9-1.8h1.3c0,0.4,0.2,0.7,0.5,1c0.4,0.3,0.8,0.4,1.3,0.4s0.9-0.1,1.2-0.4
	c0.3-0.2,0.5-0.6,0.5-0.9c0-0.4-0.1-0.8-0.4-1s-0.7-0.3-1.2-0.3h-1.4v-1.1h1.5C495.7,48.2,496.1,47.9,496.1,47.1z M509.1,52.9h-1.4
	V50c-0.6,0.2-1.2,0.2-1.8,0.2c-1,0-1.8-0.3-2.3-0.8s-0.8-1.2-0.8-2.2v-2.4h1.3v2.4c0,1.2,0.6,1.8,1.7,1.8c0.6,0,1.2-0.1,1.8-0.2
	v-3.9h1.4L509.1,52.9L509.1,52.9z M516.2,52.9c-0.1-0.1-0.2-0.4-0.2-0.8c-0.6,0.7-1.4,1-2.2,1s-1.4-0.2-1.9-0.7
	c-0.5-0.4-0.8-1-0.8-1.7c0-0.8,0.3-1.5,0.9-1.9c0.6-0.4,1.5-0.7,2.6-0.7h1.3v-0.6c0-0.5-0.1-0.8-0.4-1.1c-0.3-0.3-0.7-0.4-1.2-0.4
	s-0.9,0.1-1.2,0.4c-0.3,0.2-0.5,0.5-0.5,0.9h-1.4c0-0.4,0.1-0.8,0.4-1.1c0.3-0.4,0.7-0.7,1.1-0.9c0.5-0.2,1-0.3,1.6-0.3
	c0.9,0,1.6,0.2,2.1,0.7c0.5,0.4,0.8,1.1,0.8,1.9V51c0,0.7,0.1,1.3,0.3,1.7v0.1h-1.3V52.9z M513.9,51.8c0.4,0,0.8-0.1,1.2-0.3
	s0.7-0.5,0.8-0.8V49h-1.1c-1.7,0-2.5,0.5-2.5,1.5c0,0.4,0.1,0.8,0.4,1C513.1,51.7,513.5,51.8,513.9,51.8z M520.8,44.9v6.8h2.9v-6.8
	h1.4v6.8h2.9v-6.8h1.4v6.8h1.1l-0.1,3.5h-1.2v-2.4h-9.6v-7.9C519.6,44.9,520.8,44.9,520.8,44.9z M535.1,53c-1.1,0-1.9-0.4-2.6-1.1
	c-0.7-0.7-1-1.7-1-2.8v-0.2c0-0.8,0.2-1.5,0.5-2.1s0.7-1.1,1.2-1.4c0.5-0.4,1.1-0.5,1.8-0.5c1,0,1.8,0.3,2.4,1
	c0.6,0.7,0.9,1.6,0.9,2.9v0.6h-5.4c0,0.8,0.2,1.4,0.7,1.9c0.4,0.5,1,0.7,1.7,0.7c0.5,0,0.9-0.1,1.2-0.3s0.6-0.4,0.9-0.8l0.8,0.6
	C537.4,52.5,536.4,53,535.1,53z M534.9,45.9c-0.5,0-1,0.2-1.4,0.6c-0.4,0.4-0.6,1-0.7,1.7h4v-0.1c0-0.7-0.2-1.2-0.5-1.6
	C536,46.1,535.5,45.9,534.9,45.9z M539.7,55l-0.8-0.5c0.5-0.6,0.7-1.3,0.7-2v-1.2h1.3v1.1c0,0.5-0.1,1-0.4,1.5
	C540.4,54.3,540.1,54.7,539.7,55z M552.4,52.9H551V50c-0.6,0.2-1.2,0.2-1.8,0.2c-1,0-1.7-0.3-2.3-0.8c-0.5-0.5-0.8-1.2-0.8-2.2v-2.4
	h1.4v2.4c0,1.2,0.6,1.8,1.7,1.8c0.6,0,1.2-0.1,1.8-0.2v-3.9h1.4L552.4,52.9L552.4,52.9z M557.9,53c-1.1,0-1.9-0.4-2.6-1.1
	c-0.7-0.7-1-1.7-1-2.8v-0.2c0-0.8,0.2-1.5,0.5-2.1s0.7-1.1,1.3-1.4c0.5-0.4,1.1-0.5,1.8-0.5c1,0,1.8,0.3,2.4,1
	c0.6,0.7,0.9,1.6,0.9,2.9v0.6h-5.4c0,0.8,0.2,1.4,0.7,1.9s1,0.7,1.7,0.7c0.5,0,0.9-0.1,1.2-0.3s0.6-0.4,0.9-0.8l0.8,0.6
	C560.2,52.5,559.2,53,557.9,53z M557.7,45.9c-0.5,0-1,0.2-1.4,0.6c-0.4,0.4-0.6,1-0.7,1.7h4v-0.1c0-0.7-0.2-1.2-0.6-1.6
	C558.7,46.1,558.3,45.9,557.7,45.9z M567.1,51.1l2.7-6.1h1.7v7.9h-1.3v-5.8l-2.6,5.8h-0.9L564,47v5.9h-1.3V45h1.8L567.1,51.1z
	 M583.8,52.9h-1.4v-3.4h-3.6v3.4h-1.4V45h1.4v3.4h3.6V45h1.4V52.9z M590.9,52.9c-0.1-0.1-0.1-0.4-0.2-0.8c-0.6,0.7-1.4,1-2.2,1
	s-1.4-0.2-1.9-0.7s-0.8-1-0.8-1.7c0-0.8,0.3-1.5,0.9-1.9c0.6-0.4,1.5-0.7,2.7-0.7h1.3v-0.6c0-0.5-0.1-0.8-0.4-1.1
	c-0.3-0.3-0.7-0.4-1.3-0.4c-0.5,0-0.9,0.1-1.2,0.4c-0.3,0.2-0.5,0.5-0.5,0.9h-1.4c0-0.4,0.1-0.8,0.4-1.1s0.7-0.7,1.1-0.9
	c0.5-0.2,1-0.3,1.6-0.3c0.9,0,1.6,0.2,2.2,0.7c0.5,0.4,0.8,1.1,0.8,1.9V51c0,0.7,0.1,1.3,0.3,1.7v0.1h-1.4V52.9z M588.7,51.8
	c0.4,0,0.8-0.1,1.2-0.3s0.7-0.5,0.8-0.8V49h-1.1c-1.7,0-2.5,0.5-2.5,1.5c0,0.4,0.1,0.8,0.4,1C587.8,51.7,588.2,51.8,588.7,51.8z
	 M593.8,48.8c0-0.8,0.2-1.5,0.5-2.1s0.7-1.1,1.3-1.4c0.5-0.3,1.2-0.5,1.9-0.5c1.1,0,1.9,0.4,2.6,1.1c0.7,0.8,1,1.7,1,3V49
	c0,0.8-0.2,1.5-0.5,2.1s-0.7,1.1-1.3,1.4c-0.5,0.3-1.2,0.5-1.9,0.5c-1.1,0-1.9-0.4-2.6-1.1S593.8,50.2,593.8,48.8L593.8,48.8z
	 M595.2,49c0,0.9,0.2,1.6,0.6,2.1c0.4,0.5,1,0.8,1.6,0.8c0.7,0,1.2-0.3,1.6-0.8c0.4-0.5,0.6-1.3,0.6-2.3c0-0.9-0.2-1.6-0.6-2.1
	c-0.4-0.5-1-0.8-1.6-0.8c-0.7,0-1.2,0.3-1.6,0.8S595.2,48,595.2,49z M606.2,45.4c1,0,1.8,0.3,2.4,1c0.6,0.7,0.9,1.6,0.9,2.6v0.1
	c0,0.8-0.1,1.4-0.4,2c-0.3,0.6-0.7,1.1-1.2,1.4c-0.5,0.3-1.2,0.5-1.9,0.5c-1.1,0-1.9-0.4-2.6-1.1c-0.7-0.7-1-1.7-1-2.9v-0.7
	c0-1.7,0.3-3,0.9-4c0.6-1,1.5-1.6,2.7-1.8c0.7-0.1,1.1-0.3,1.4-0.4c0.2-0.2,0.3-0.4,0.3-0.7h1.1c0,0.6-0.1,1.1-0.4,1.4
	c-0.3,0.3-0.7,0.6-1.3,0.7l-1,0.2c-0.8,0.2-1.4,0.5-1.8,1c-0.4,0.5-0.7,1.1-0.8,1.8C604.3,45.8,605.2,45.4,606.2,45.4z M605.9,46.5
	c-0.7,0-1.2,0.2-1.6,0.7c-0.4,0.4-0.6,1.1-0.6,1.8v0.1c0,0.8,0.2,1.5,0.6,2c0.4,0.5,0.9,0.7,1.6,0.7c0.7,0,1.2-0.2,1.6-0.7
	c0.4-0.5,0.6-1.2,0.6-2.2c0-0.7-0.2-1.3-0.6-1.8C607.2,46.7,606.6,46.5,605.9,46.5z M610.7,48.8c0-0.8,0.1-1.5,0.4-2.1
	c0.3-0.6,0.7-1.1,1.3-1.4c0.5-0.3,1.2-0.5,1.9-0.5c1.1,0,2,0.4,2.6,1.1c0.7,0.8,1,1.7,1,3V49c0,0.8-0.2,1.5-0.4,2.1
	c-0.3,0.6-0.7,1.1-1.3,1.4c-0.6,0.3-1.2,0.5-1.9,0.5c-1.1,0-2-0.4-2.6-1.1C611,51.1,610.7,50.2,610.7,48.8L610.7,48.8z M612,49
	c0,0.9,0.2,1.6,0.6,2.1c0.4,0.5,0.9,0.8,1.6,0.8c0.7,0,1.2-0.3,1.6-0.8c0.4-0.5,0.6-1.3,0.6-2.3c0-0.9-0.2-1.6-0.6-2.1
	c-0.4-0.5-1-0.8-1.7-0.8s-1.2,0.3-1.6,0.8C612.2,47.2,612,48,612,49z M626.3,49c0,1.2-0.3,2.2-0.8,2.9s-1.3,1.1-2.2,1.1
	c-1,0-1.7-0.3-2.3-0.9v3.8h-1.4v-11h1.2l0.1,0.9c0.6-0.7,1.3-1,2.3-1s1.7,0.4,2.3,1.1c0.6,0.7,0.8,1.7,0.8,3L626.3,49L626.3,49z
	 M624.9,48.9c0-0.9-0.2-1.6-0.6-2.1c-0.4-0.5-0.9-0.8-1.6-0.8c-0.8,0-1.4,0.4-1.8,1.1v3.8c0.4,0.7,1,1.1,1.9,1.1
	c0.6,0,1.2-0.3,1.5-0.8C624.7,50.6,624.9,49.9,624.9,48.9z M627.6,48.8c0-0.8,0.2-1.5,0.4-2.1c0.3-0.6,0.7-1.1,1.3-1.4
	c0.5-0.3,1.2-0.5,1.9-0.5c1.1,0,2,0.4,2.6,1.1c0.7,0.8,1,1.7,1,3V49c0,0.8-0.1,1.5-0.4,2.1c-0.3,0.6-0.7,1.1-1.3,1.4
	c-0.6,0.3-1.2,0.5-1.9,0.5c-1.1,0-1.9-0.4-2.6-1.1C628,51.1,627.6,50.2,627.6,48.8L627.6,48.8z M629,49c0,0.9,0.2,1.6,0.6,2.1
	c0.4,0.5,1,0.8,1.6,0.8s1.2-0.3,1.6-0.8c0.4-0.5,0.6-1.3,0.6-2.3c0-0.9-0.2-1.6-0.6-2.1c-0.4-0.5-1-0.8-1.7-0.8s-1.2,0.3-1.6,0.8
	C629.2,47.2,629,48,629,49z M642.4,46.1h-2.7v6.8h-1.3v-6.8h-2.6V45h6.6V46.1z"/>
<path class="st2" d="M6.7,420.6h1.4v10.7H6.7v-8.2l-5.3,8.2H0v-10.7h1.4v8.2L6.7,420.6z M13.6,430.3c0.5,0,0.9-0.1,1.3-0.4
	c0.4-0.3,0.6-0.7,0.6-1.1h1.3c0,0.5-0.2,0.9-0.5,1.3s-0.7,0.7-1.1,1c-0.5,0.2-1,0.4-1.5,0.4c-1.1,0-1.9-0.4-2.6-1.1
	c-0.6-0.7-1-1.7-1-3v-0.2c0-0.8,0.1-1.5,0.4-2c0.3-0.6,0.7-1.1,1.2-1.4s1.1-0.5,1.9-0.5c0.9,0,1.6,0.3,2.2,0.8
	c0.6,0.5,0.9,1.2,0.9,2.1h-1.3c0-0.5-0.2-0.9-0.6-1.3c-0.4-0.3-0.8-0.5-1.3-0.5c-0.7,0-1.2,0.2-1.6,0.7c-0.4,0.5-0.6,1.2-0.6,2.1
	v0.3c0,0.9,0.2,1.6,0.6,2.1C12.4,430.1,12.9,430.3,13.6,430.3z M24.2,424.5h-2.7v6.8h-1.4v-6.8h-2.6v-1.1h6.6v1.1H24.2z M25.1,427.3
	c0-0.8,0.1-1.5,0.5-2.1c0.3-0.6,0.7-1.1,1.3-1.4c0.5-0.3,1.2-0.5,1.9-0.5c1.1,0,2,0.4,2.6,1.1c0.7,0.8,1,1.7,1,3v0.1
	c0,0.8-0.1,1.5-0.4,2.1c-0.3,0.6-0.7,1.1-1.3,1.4c-0.6,0.3-1.2,0.5-1.9,0.5c-1.1,0-1.9-0.4-2.6-1.1
	C25.5,429.6,25.1,428.6,25.1,427.3L25.1,427.3z M26.5,427.4c0,0.9,0.2,1.6,0.6,2.1s0.9,0.8,1.6,0.8s1.2-0.3,1.6-0.8s0.6-1.3,0.6-2.3
	c0-0.9-0.2-1.6-0.6-2.1s-1-0.8-1.6-0.8c-0.7,0-1.2,0.3-1.6,0.8C26.7,425.7,26.5,426.4,26.5,427.4z M40,431.3h-1.4v-2.9
	c-0.6,0.2-1.2,0.2-1.8,0.2c-1,0-1.8-0.2-2.3-0.8c-0.5-0.5-0.8-1.2-0.8-2.2v-2.4h1.4v2.4c0,1.2,0.6,1.8,1.7,1.8
	c0.6,0,1.2-0.1,1.8-0.2v-3.9H40V431.3z M48.7,431.3h-1.4v-3.4h-3.6v3.4h-1.4v-7.9h1.4v3.4h3.6v-3.4h1.4V431.3z M56,423.4h1.4v7.9H56
	v-5.8l-3.6,5.8H51v-7.9h1.4v5.8L56,423.4z M62,427.9h-1v3.4h-1.4v-7.9H61v3.4h0.9l2.7-3.4h1.6l-3.1,3.8l3.4,4.1h-1.7L62,427.9z
	 M67.5,430.6c0-0.2,0.1-0.4,0.2-0.6c0.1-0.1,0.3-0.2,0.6-0.2c0.3,0,0.5,0.1,0.6,0.2c0.1,0.2,0.2,0.4,0.2,0.6s-0.1,0.4-0.2,0.6
	c-0.1,0.1-0.4,0.2-0.6,0.2c-0.3,0-0.5-0.1-0.6-0.2C67.6,431,67.5,430.8,67.5,430.6z M67.6,424.1c0-0.2,0.1-0.4,0.2-0.6
	s0.4-0.2,0.6-0.2c0.3,0,0.5,0.1,0.6,0.2c0.1,0.2,0.2,0.4,0.2,0.6s-0.1,0.4-0.2,0.6c-0.1,0.1-0.4,0.2-0.6,0.2c-0.3,0-0.5-0.1-0.6-0.2
	C67.6,424.5,67.6,424.4,67.6,424.1z M83,427.9c-0.1,1.1-0.5,2-1.2,2.6s-1.6,0.9-2.8,0.9c-1.3,0-2.3-0.5-3-1.4
	c-0.8-0.9-1.1-2.1-1.1-3.6v-1c0-1,0.2-1.9,0.5-2.6c0.4-0.8,0.9-1.3,1.5-1.7c0.6-0.4,1.4-0.6,2.3-0.6c1.1,0,2,0.3,2.7,1
	c0.7,0.6,1.1,1.5,1.2,2.6h-1.4c-0.1-0.8-0.4-1.5-0.8-1.8s-1-0.6-1.7-0.6c-0.9,0-1.6,0.3-2.1,1s-0.8,1.6-0.8,2.8v1
	c0,1.2,0.2,2.1,0.7,2.8c0.5,0.7,1.2,1,2,1s1.4-0.2,1.8-0.5c0.4-0.4,0.7-1,0.8-1.8L83,427.9L83,427.9z M87.3,429.3l1.8-5.9h1.4
	l-3.2,9.2c-0.5,1.3-1.3,2-2.4,2h-0.3l-0.5-0.1v-1.1h0.4c0.5,0,0.8-0.1,1.1-0.3c0.3-0.2,0.5-0.5,0.6-1l0.3-0.8l-2.8-7.8h1.5
	L87.3,429.3z M91.7,430.2l0.5-0.6c0.5-0.7,0.8-1.7,0.9-3.1l0.1-3.2h5.1v6.8h1v3.4H98v-2.3h-5.5v2.3h-1.4v-3.4h0.6V430.2z
	 M93.3,430.2H97v-5.6h-2.4l-0.1,1.9C94.4,428.1,94,429.3,93.3,430.2z M104.1,431.5c-1.1,0-1.9-0.4-2.6-1.1s-1-1.7-1-2.8v-0.2
	c0-0.8,0.2-1.5,0.5-2.1s0.7-1.1,1.3-1.5c0.5-0.4,1.1-0.5,1.8-0.5c1,0,1.8,0.3,2.4,1s0.8,1.6,0.8,2.9v0.6h-5.4c0,0.8,0.2,1.4,0.7,1.9
	c0.4,0.5,1,0.7,1.7,0.7c0.5,0,0.9-0.1,1.2-0.3c0.3-0.2,0.6-0.5,0.9-0.8l0.8,0.6C106.5,430.9,105.5,431.5,104.1,431.5z M104,424.3
	c-0.5,0-1,0.2-1.4,0.6s-0.6,1-0.7,1.7h4v-0.1c0-0.7-0.2-1.2-0.6-1.6C105,424.5,104.5,424.3,104,424.3z M112.3,423.8
	c1,0,1.8,0.3,2.4,1s0.9,1.5,0.9,2.6v0.1c0,0.7-0.2,1.4-0.4,2c-0.3,0.6-0.7,1-1.2,1.4c-0.5,0.3-1.2,0.5-1.9,0.5
	c-1.1,0-1.9-0.4-2.6-1.1s-1-1.7-1-2.9v-0.7c0-1.7,0.3-3,0.9-4s1.5-1.6,2.7-1.8c0.7-0.1,1.1-0.3,1.4-0.5c0.2-0.2,0.4-0.4,0.4-0.7h1.1
	c0,0.6-0.1,1.1-0.4,1.4s-0.7,0.6-1.3,0.7l-1,0.2c-0.8,0.2-1.4,0.5-1.8,1c-0.4,0.4-0.7,1-0.8,1.8
	C110.4,424.2,111.2,423.8,112.3,423.8z M112,424.9c-0.7,0-1.2,0.2-1.6,0.7s-0.6,1.1-0.6,1.9v0.1c0,0.9,0.2,1.5,0.6,2
	s0.9,0.8,1.6,0.8s1.2-0.2,1.6-0.8s0.6-1.2,0.6-2.2c0-0.8-0.2-1.3-0.6-1.8C113.2,425.2,112.7,424.9,112,424.9z M123.6,431.3h-1.4
	v-3.4h-3.6v3.4h-1.4v-7.9h1.4v3.4h3.6v-3.4h1.4V431.3z M127.2,426.1h2.1c0.9,0,1.6,0.2,2.1,0.7s0.8,1.1,0.8,1.9s-0.3,1.4-0.8,1.9
	s-1.3,0.7-2.2,0.7h-3.4v-7.9h1.4L127.2,426.1L127.2,426.1z M135,431.3h-1.4v-7.9h1.4V431.3z M127.2,427.2v3h2c0.5,0,0.9-0.1,1.2-0.4
	s0.4-0.6,0.4-1.1c0-0.4-0.1-0.8-0.4-1.1c-0.3-0.3-0.6-0.4-1.1-0.4H127.2z M142.5,423.4h1.4v7.9h-1.4v-5.8l-3.6,5.8h-1.4v-7.9h1.4
	v5.8L142.5,423.4z M142.9,420.5c0,0.6-0.2,1.1-0.6,1.4c-0.4,0.4-0.9,0.5-1.6,0.5c-0.7,0-1.2-0.2-1.6-0.5c-0.4-0.4-0.6-0.8-0.6-1.4
	h1.1c0,0.3,0.1,0.6,0.3,0.8c0.2,0.2,0.4,0.3,0.8,0.3c0.3,0,0.6-0.1,0.8-0.3c0.2-0.2,0.3-0.4,0.3-0.8H142.9z M149.7,430.2l0.5-0.6
	c0.5-0.7,0.8-1.7,0.9-3.1l0.1-3.2h5.1v6.8h1v3.4h-1.4v-2.3h-5.5v2.3h-1.3v-3.4h0.6V430.2z M151.3,430.2h3.6v-5.6h-2.4l-0.1,1.9
	C152.3,428.1,152,429.3,151.3,430.2z M162.1,431.5c-1.1,0-2-0.4-2.6-1.1c-0.7-0.7-1-1.7-1-2.8v-0.2c0-0.8,0.1-1.5,0.4-2.1
	s0.7-1.1,1.3-1.5c0.5-0.4,1.1-0.5,1.8-0.5c1,0,1.8,0.3,2.4,1c0.6,0.7,0.9,1.6,0.9,2.9v0.6h-5.4c0,0.8,0.2,1.4,0.7,1.9
	c0.4,0.5,1,0.7,1.7,0.7c0.5,0,0.9-0.1,1.2-0.3c0.3-0.2,0.6-0.5,0.9-0.8l0.8,0.6C164.4,430.9,163.4,431.5,162.1,431.5z M161.9,424.3
	c-0.5,0-1,0.2-1.4,0.6s-0.6,1-0.7,1.7h4v-0.1c0-0.7-0.2-1.2-0.6-1.6C162.9,424.5,162.5,424.3,161.9,424.3z M173.2,431.3h-1.4v-6.8
	h-3.6v6.8h-1.4v-7.9h6.4V431.3z M180.3,431.3c-0.1-0.2-0.1-0.4-0.2-0.8c-0.6,0.7-1.4,1-2.3,1c-0.8,0-1.4-0.2-1.9-0.7s-0.8-1-0.8-1.7
	c0-0.8,0.3-1.5,0.9-1.9c0.6-0.5,1.5-0.7,2.6-0.7h1.3v-0.6c0-0.5-0.2-0.8-0.4-1.1c-0.3-0.3-0.7-0.4-1.2-0.4s-0.9,0.1-1.2,0.4
	c-0.3,0.2-0.5,0.5-0.5,0.9h-1.4c0-0.4,0.1-0.8,0.4-1.1c0.3-0.4,0.7-0.7,1.1-0.9c0.5-0.2,1-0.3,1.6-0.3c0.9,0,1.6,0.2,2.1,0.7
	s0.8,1.1,0.8,1.9v3.7c0,0.7,0.1,1.3,0.3,1.7v0.1h-1.2V431.3z M178.1,430.3c0.4,0,0.8-0.1,1.2-0.3c0.4-0.2,0.6-0.5,0.8-0.9v-1.6H179
	c-1.7,0-2.5,0.5-2.5,1.5c0,0.4,0.1,0.8,0.4,1C177.2,430.1,177.6,430.3,178.1,430.3z M190.3,427.4c0,1.2-0.3,2.2-0.8,2.9
	c-0.6,0.7-1.3,1.1-2.2,1.1c-1,0-1.7-0.3-2.3-0.9v3.8h-1.4v-11h1.2l0.1,0.9c0.5-0.7,1.3-1,2.3-1s1.7,0.4,2.3,1.1s0.8,1.7,0.8,3
	L190.3,427.4L190.3,427.4z M188.9,427.3c0-0.9-0.2-1.6-0.6-2.1c-0.4-0.5-0.9-0.8-1.6-0.8c-0.8,0-1.4,0.4-1.8,1.1v3.8
	c0.4,0.7,1,1.1,1.9,1.1c0.7,0,1.2-0.3,1.6-0.8C188.7,429,188.9,428.3,188.9,427.3z M197.9,424.5h-2.7v6.8h-1.4v-6.8h-2.6v-1.1h6.6
	L197.9,424.5L197.9,424.5z M204.1,431.3c-0.1-0.2-0.1-0.4-0.2-0.8c-0.6,0.7-1.4,1-2.3,1c-0.8,0-1.4-0.2-1.9-0.7s-0.8-1-0.8-1.7
	c0-0.8,0.3-1.5,0.9-1.9c0.6-0.5,1.5-0.7,2.6-0.7h1.3v-0.6c0-0.5-0.1-0.8-0.4-1.1c-0.3-0.3-0.7-0.4-1.2-0.4s-0.9,0.1-1.2,0.4
	c-0.3,0.2-0.5,0.5-0.5,0.9H199c0-0.4,0.1-0.8,0.4-1.1c0.3-0.4,0.7-0.7,1.1-0.9c0.5-0.2,1-0.3,1.6-0.3c0.9,0,1.6,0.2,2.1,0.7
	s0.8,1.1,0.8,1.9v3.7c0,0.7,0.1,1.3,0.3,1.7v0.1h-1.2V431.3z M201.8,430.3c0.4,0,0.8-0.1,1.2-0.3c0.4-0.2,0.7-0.5,0.8-0.9v-1.6h-1.1
	c-1.7,0-2.5,0.5-2.5,1.5c0,0.4,0.1,0.8,0.4,1C201,430.1,201.4,430.3,201.8,430.3z M211.9,429.5l2.7-6.1h1.7v7.9h-1.4v-5.8l-2.6,5.8
	h-0.9l-2.6-5.9v5.9h-1.4v-7.9h1.8L211.9,429.5z M221.8,431.5c-1.1,0-1.9-0.4-2.6-1.1c-0.7-0.7-1-1.7-1-2.8v-0.2
	c0-0.8,0.1-1.5,0.4-2.1s0.7-1.1,1.3-1.5c0.5-0.4,1.1-0.5,1.8-0.5c1,0,1.8,0.3,2.4,1c0.6,0.7,0.9,1.6,0.9,2.9v0.6h-5.4
	c0,0.8,0.2,1.4,0.7,1.9c0.4,0.5,1,0.7,1.7,0.7c0.5,0,0.9-0.1,1.2-0.3c0.3-0.2,0.6-0.5,0.9-0.8l0.8,0.6
	C224.1,430.9,223.1,431.5,221.8,431.5z M221.6,424.3c-0.6,0-1,0.2-1.4,0.6s-0.6,1-0.7,1.7h4v-0.1c0-0.7-0.2-1.2-0.6-1.6
	C222.6,424.5,222.2,424.3,221.6,424.3z M232.9,431.3h-1.3v-3.4H228v3.4h-1.4v-7.9h1.4v3.4h3.6v-3.4h1.3V431.3z M241,424.5h-2.7v6.8
	h-1.4v-6.8h-2.6v-1.1h6.6L241,424.5L241,424.5z M252.5,431.3h-1.4v-6.8h-3.6v6.8h-1.4v-7.9h6.4V431.3z M261.4,427.4
	c0,1.2-0.3,2.2-0.8,2.9c-0.5,0.7-1.3,1.1-2.2,1.1c-1,0-1.7-0.3-2.3-0.9v3.8h-1.4v-11h1.2l0.1,0.9c0.6-0.7,1.3-1,2.3-1
	c0.9,0,1.7,0.4,2.3,1.1c0.6,0.7,0.8,1.7,0.8,3L261.4,427.4L261.4,427.4z M260,427.3c0-0.9-0.2-1.6-0.6-2.1s-0.9-0.8-1.6-0.8
	c-0.8,0-1.4,0.4-1.8,1.1v3.8c0.4,0.7,1,1.1,1.9,1.1c0.6,0,1.2-0.3,1.5-0.8C259.8,429,260,428.3,260,427.3z M268.2,423.4h1.3v7.9
	h-1.3v-5.8l-3.7,5.8h-1.4v-7.9h1.4v5.8L268.2,423.4z M275.6,431.3v-10.7h3.5c1.2,0,2,0.2,2.6,0.7s0.9,1.2,0.9,2.1
	c0,0.5-0.1,0.9-0.4,1.3s-0.7,0.7-1.2,0.9c0.6,0.2,1,0.5,1.4,0.9c0.3,0.5,0.5,1,0.5,1.6c0,1-0.3,1.7-0.9,2.3
	c-0.6,0.6-1.5,0.8-2.6,0.8h-3.8V431.3z M277.1,426.3v3.8h2.3c0.7,0,1.2-0.2,1.5-0.5c0.4-0.3,0.6-0.8,0.6-1.4c0-1.3-0.7-1.9-2.1-1.9
	H277.1z M277.1,425.2h2.1c0.6,0,1.1-0.1,1.5-0.5s0.5-0.7,0.5-1.2c0-0.6-0.2-1-0.5-1.3s-0.9-0.4-1.6-0.4H277v3.4H277.1z M292.8,427.9
	c-0.1,1.1-0.5,2-1.2,2.6s-1.6,0.9-2.8,0.9c-1.3,0-2.3-0.5-3-1.4c-0.8-0.9-1.1-2.1-1.1-3.6v-1c0-1,0.2-1.9,0.5-2.6
	c0.4-0.8,0.9-1.3,1.5-1.7c0.6-0.4,1.4-0.6,2.3-0.6c1.1,0,2,0.3,2.7,1c0.7,0.6,1.1,1.5,1.2,2.6h-1.4c-0.1-0.8-0.4-1.5-0.8-1.8
	s-1-0.6-1.7-0.6c-0.9,0-1.6,0.3-2.1,1s-0.8,1.6-0.8,2.8v1c0,1.2,0.2,2.1,0.7,2.8c0.5,0.7,1.1,1,2,1c0.8,0,1.4-0.2,1.8-0.5
	c0.4-0.4,0.7-1,0.8-1.8L292.8,427.9L292.8,427.9z M299.9,427.1v4.2h-1.4v-10.7h3.9c1.2,0,2.1,0.3,2.8,0.9c0.7,0.6,1,1.4,1,2.4
	s-0.3,1.8-1,2.4c-0.6,0.6-1.6,0.8-2.8,0.8L299.9,427.1L299.9,427.1z M299.9,426h2.5c0.8,0,1.3-0.2,1.7-0.5c0.4-0.4,0.6-0.9,0.6-1.5
	s-0.2-1.1-0.6-1.5s-1-0.6-1.6-0.6h-2.6V426z M313.2,421.7h0.2c0.8,0,1.5,0.2,2.2,0.6s1.2,0.9,1.5,1.5c0.4,0.7,0.6,1.4,0.6,2.2
	s-0.2,1.5-0.6,2.2s-0.9,1.2-1.5,1.5c-0.7,0.4-1.4,0.5-2.2,0.6h-0.2v1.4h-1.4v-1.4h-0.2c-0.8,0-1.6-0.2-2.2-0.5
	c-0.7-0.4-1.2-0.9-1.6-1.5c-0.4-0.7-0.6-1.4-0.6-2.2c0-0.8,0.2-1.5,0.6-2.2c0.4-0.6,0.9-1.2,1.6-1.5c0.7-0.4,1.4-0.6,2.2-0.6h0.2
	v-1.5h1.4V421.7z M311.6,422.8c-0.9,0-1.6,0.3-2.2,0.9c-0.5,0.6-0.8,1.3-0.8,2.3s0.3,1.8,0.8,2.4s1.3,0.8,2.2,0.8h0.2v-6.4
	L311.6,422.8L311.6,422.8z M313.2,422.8v6.4h0.2c0.9,0,1.7-0.3,2.2-0.9s0.8-1.4,0.8-2.3c0-1-0.3-1.8-0.8-2.3
	c-0.5-0.6-1.3-0.9-2.2-0.9L313.2,422.8L313.2,422.8z"/>
<g>
	<path class="st2" d="M542.2,426c0.5,0,0.8-0.1,1-0.4s0.3-0.6,0.3-1.1v-2.3c0-0.5,0.1-0.9,0.2-1.2c0.1-0.4,0.3-0.6,0.6-0.9
		c0.3-0.2,0.6-0.4,1.1-0.6c0.4-0.1,1-0.2,1.6-0.2h0.3v1.9h-0.4c-0.5,0-0.8,0.1-1,0.3c-0.2,0.2-0.2,0.5-0.2,1v2.1
		c0,0.5-0.1,1-0.2,1.4c-0.1,0.4-0.4,0.7-0.9,1c0.4,0.3,0.7,0.6,0.9,1s0.2,0.8,0.2,1.4v2.1c0,0.4,0.1,0.8,0.2,1
		c0.2,0.2,0.5,0.3,1,0.3h0.4v1.9H547c-0.7,0-1.2-0.1-1.6-0.2c-0.4-0.1-0.8-0.3-1.1-0.5s-0.5-0.5-0.6-0.9s-0.2-0.8-0.2-1.2v-2.4
		c0-0.4-0.1-0.8-0.3-1.1s-0.5-0.4-1-0.4L542.2,426L542.2,426z"/>
	<path class="st2" d="M558.9,420.8h2.4l-0.1,13.7h-2.4l0.1-7.5h-4.1v4.6h-2.4v-10.8h2.4v4.1h4.1V420.8L558.9,420.8z"/>
	<path class="st2" d="M571.4,427.5c0,0.6-0.1,1.2-0.3,1.8c-0.2,0.5-0.5,1-0.8,1.4c-0.4,0.4-0.8,0.7-1.3,0.9c-0.5,0.2-1,0.3-1.7,0.3
		c-0.6,0-1.1-0.1-1.6-0.3c-0.5-0.2-0.9-0.5-1.3-0.9c-0.4-0.4-0.6-0.8-0.8-1.4c-0.2-0.5-0.3-1.1-0.3-1.8c0-0.6,0.1-1.2,0.3-1.8
		c0.2-0.5,0.5-1,0.8-1.4c0.4-0.4,0.8-0.7,1.3-0.9c0.5-0.2,1-0.3,1.6-0.3s1.1,0.1,1.6,0.3c0.5,0.2,0.9,0.5,1.3,0.9
		c0.4,0.4,0.6,0.8,0.8,1.4C571.3,426.3,571.4,426.9,571.4,427.5z M569,427.5c0-0.7-0.1-1.3-0.4-1.7c-0.3-0.4-0.7-0.6-1.2-0.6
		s-0.9,0.2-1.2,0.6s-0.4,1-0.4,1.7s0.2,1.3,0.4,1.7c0.3,0.4,0.7,0.6,1.2,0.6s0.9-0.2,1.2-0.6C568.8,428.8,569,428.2,569,427.5z"/>
	<path class="st2" d="M576.7,431.8c-0.3,0-0.6,0-0.9,0c-0.3,0-0.7-0.1-1-0.1s-0.6-0.1-0.9-0.1c-0.3,0-0.5-0.1-0.7-0.1v-7.9
		c0.2,0,0.4-0.1,0.7-0.1s0.6-0.1,0.9-0.1c0.3,0,0.7-0.1,1-0.1s0.6,0,0.9,0c0.7,0,1.2,0.1,1.7,0.2s0.8,0.3,1.1,0.5s0.5,0.5,0.6,0.7
		c0.1,0.3,0.2,0.5,0.2,0.8c0,0.4-0.1,0.7-0.3,1s-0.4,0.5-0.7,0.6c0.1,0.1,0.3,0.1,0.4,0.3c0.2,0.1,0.3,0.2,0.4,0.4
		c0.1,0.2,0.2,0.3,0.3,0.6c0.1,0.2,0.1,0.5,0.1,0.8s-0.1,0.7-0.2,1c-0.1,0.3-0.3,0.6-0.7,0.8s-0.7,0.4-1.2,0.6
		C578.1,431.7,577.5,431.8,576.7,431.8z M576.8,426.6c0.4,0,0.7,0,0.9-0.1s0.4-0.3,0.4-0.6c0-0.3-0.1-0.5-0.4-0.6
		c-0.3-0.1-0.6-0.2-1.1-0.2c-0.1,0-0.3,0-0.6,0c-0.2,0-0.4,0-0.6,0.1v1.5L576.8,426.6L576.8,426.6z M575.5,429.9
		c0.1,0,0.3,0,0.6,0.1c0.2,0,0.5,0,0.7,0c0.5,0,0.9-0.1,1.2-0.2s0.4-0.4,0.4-0.7c0-0.3-0.1-0.6-0.4-0.7c-0.3-0.1-0.7-0.2-1.2-0.2
		h-1.4v1.7H575.5z"/>
	<path class="st2" d="M585.4,423.2c0.7,0,1.3,0.1,1.7,0.2c0.5,0.2,0.8,0.4,1.1,0.7c0.3,0.3,0.5,0.6,0.6,1.1c0.1,0.4,0.2,0.9,0.2,1.4
		v4.8c-0.3,0.1-0.8,0.1-1.4,0.2c-0.6,0.1-1.3,0.1-2.1,0.1c-0.5,0-1,0-1.4-0.1s-0.8-0.2-1.1-0.5c-0.3-0.2-0.6-0.5-0.7-0.8
		c-0.2-0.4-0.2-0.8-0.2-1.3s0.1-0.9,0.3-1.2c0.2-0.3,0.5-0.6,0.8-0.8c0.3-0.2,0.7-0.3,1.1-0.4c0.4-0.1,0.9-0.1,1.3-0.1
		c0.3,0,0.6,0,0.8,0s0.4,0.1,0.6,0.1v-0.2c0-0.4-0.1-0.7-0.4-1c-0.2-0.2-0.7-0.3-1.2-0.3c-0.4,0-0.8,0-1.2,0.1s-0.7,0.1-1,0.2
		l-0.3-1.9c0.1,0,0.3-0.1,0.5-0.1s0.4-0.1,0.7-0.1c0.2,0,0.5-0.1,0.8-0.1C584.9,423.2,585.2,423.2,585.4,423.2z M585.6,430
		c0.2,0,0.4,0,0.7,0c0.2,0,0.4,0,0.5,0v-1.8c-0.1,0-0.2,0-0.4-0.1c-0.2,0-0.4,0-0.5,0c-0.2,0-0.4,0-0.6,0c-0.2,0-0.4,0.1-0.5,0.2
		c-0.2,0.1-0.3,0.2-0.4,0.3c-0.1,0.1-0.1,0.3-0.1,0.5c0,0.4,0.1,0.6,0.4,0.8C584.8,429.9,585.2,430,585.6,430z"/>
	<path class="st2" d="M594.5,428.7c-0.3,0.5-0.6,1-0.9,1.5c-0.3,0.5-0.5,1-0.8,1.4h-2.4c0.3-0.7,0.6-1.3,0.9-1.8s0.6-1,0.9-1.5
		c-0.4-0.2-0.8-0.5-1-0.9c-0.3-0.4-0.4-0.8-0.4-1.3c0-0.9,0.3-1.6,1-2.1s1.6-0.7,2.7-0.7c0.3,0,0.5,0,0.9,0c0.3,0,0.6,0.1,0.9,0.1
		c0.3,0,0.6,0.1,0.9,0.1c0.3,0,0.5,0.1,0.7,0.1v8h-2.3v-2.9L594.5,428.7L594.5,428.7z M595.7,425.1c-0.1,0-0.3,0-0.5,0s-0.4,0-0.6,0
		c-0.6,0-1,0.1-1.2,0.3c-0.2,0.2-0.3,0.4-0.3,0.7c0,0.2,0,0.4,0.1,0.5s0.2,0.2,0.3,0.3c0.1,0.1,0.3,0.1,0.5,0.2c0.2,0,0.3,0,0.5,0
		h1.1v-2H595.7z"/>
	<path class="st2" d="M606.2,424.9c0,0.5-0.2,0.8-0.4,1.1c-0.3,0.2-0.6,0.4-1,0.4s-0.7-0.1-1-0.4c-0.3-0.2-0.5-0.6-0.5-1.1
		s0.2-0.8,0.5-1.1c0.3-0.2,0.6-0.4,1-0.4s0.7,0.1,1,0.4C606.1,424,606.2,424.4,606.2,424.9z M606.2,430.4c0,0.5-0.2,0.8-0.4,1.1
		c-0.3,0.2-0.6,0.4-1,0.4s-0.7-0.1-1-0.4c-0.3-0.2-0.5-0.6-0.5-1.1s0.2-0.8,0.5-1.1c0.3-0.2,0.6-0.4,1-0.4s0.7,0.1,1,0.4
		C606.1,429.6,606.2,429.9,606.2,430.4z"/>
	<path class="st2" d="M610.7,429.5h1.6c0.4-0.7,0.7-1.3,0.9-2s0.4-1.3,0.5-2s0.2-1.4,0.2-2.1s0-1.5,0-2.3v-0.4h7.1v8.7h1.9v5h-2.3
		v-2.9h-7.5v2.9h-2.3v-4.9H610.7z M616.2,422.9c0,0.6-0.1,1.1-0.1,1.7s-0.1,1.2-0.2,1.8c-0.1,0.6-0.2,1.1-0.4,1.7s-0.4,1.1-0.6,1.5
		h3.9v-6.7H616.2z"/>
	<path class="st2" d="M627.3,423.2c0.7,0,1.3,0.1,1.7,0.2c0.5,0.2,0.8,0.4,1.1,0.7c0.3,0.3,0.5,0.6,0.6,1.1c0.1,0.4,0.2,0.9,0.2,1.4
		v4.8c-0.3,0.1-0.8,0.1-1.4,0.2c-0.6,0.1-1.3,0.1-2.2,0.1c-0.5,0-1,0-1.4-0.1s-0.8-0.2-1.1-0.5c-0.3-0.2-0.5-0.5-0.7-0.8
		c-0.2-0.4-0.2-0.8-0.2-1.3s0.1-0.9,0.3-1.2c0.2-0.3,0.4-0.6,0.8-0.8c0.3-0.2,0.7-0.3,1.1-0.4c0.4-0.1,0.9-0.1,1.3-0.1
		c0.3,0,0.6,0,0.8,0s0.4,0.1,0.6,0.1v-0.2c0-0.4-0.1-0.7-0.4-1c-0.2-0.2-0.7-0.3-1.2-0.3c-0.4,0-0.8,0-1.2,0.1s-0.7,0.1-1,0.2
		l-0.3-1.9c0.1,0,0.3-0.1,0.5-0.1s0.4-0.1,0.7-0.1c0.2,0,0.5-0.1,0.8-0.1C626.7,423.2,627,423.2,627.3,423.2z M627.5,430
		c0.2,0,0.4,0,0.7,0c0.2,0,0.4,0,0.5,0v-1.8c-0.1,0-0.2,0-0.4-0.1c-0.2,0-0.4,0-0.5,0c-0.2,0-0.4,0-0.6,0c-0.2,0-0.4,0.1-0.5,0.2
		s-0.2,0.2-0.3,0.3c-0.1,0.1-0.1,0.3-0.1,0.5c0,0.4,0.1,0.6,0.4,0.8C626.7,429.9,627,430,627.5,430z"/>
	<path class="st2" d="M639.7,425.3h-2.6v6.3h-2.3v-6.3h-2.6v-1.9h7.6v1.9H639.7z"/>
	<path class="st2" d="M644.1,423.2c0.7,0,1.3,0.1,1.7,0.2c0.5,0.2,0.8,0.4,1.1,0.7c0.3,0.3,0.5,0.6,0.6,1.1c0.1,0.4,0.2,0.9,0.2,1.4
		v4.8c-0.3,0.1-0.8,0.1-1.4,0.2c-0.6,0.1-1.3,0.1-2.2,0.1c-0.5,0-1,0-1.4-0.1s-0.8-0.2-1.1-0.5c-0.3-0.2-0.6-0.5-0.7-0.8
		c-0.2-0.4-0.2-0.8-0.2-1.3s0.1-0.9,0.3-1.2c0.2-0.3,0.4-0.6,0.8-0.8c0.3-0.2,0.7-0.3,1.1-0.4c0.4-0.1,0.8-0.1,1.3-0.1
		c0.3,0,0.6,0,0.8,0s0.4,0.1,0.6,0.1v-0.2c0-0.4-0.1-0.7-0.4-1c-0.2-0.2-0.7-0.3-1.2-0.3c-0.4,0-0.8,0-1.2,0.1s-0.7,0.1-1,0.2
		l-0.3-1.9c0.1,0,0.3-0.1,0.5-0.1s0.4-0.1,0.7-0.1c0.2,0,0.5-0.1,0.8-0.1C643.5,423.2,643.8,423.2,644.1,423.2z M644.3,430
		c0.2,0,0.4,0,0.7,0c0.2,0,0.4,0,0.5,0v-1.8c-0.1,0-0.2,0-0.4-0.1c-0.2,0-0.4,0-0.5,0c-0.2,0-0.4,0-0.6,0c-0.2,0-0.4,0.1-0.5,0.2
		s-0.2,0.2-0.3,0.3c-0.1,0.1-0.1,0.3-0.1,0.5c0,0.4,0.1,0.6,0.4,0.8C643.5,429.9,643.8,430,644.3,430z"/>
	<path class="st2" d="M649.3,425.9h4.5v2.1h-4.5V425.9z"/>
	<path class="st2" d="M663.2,427.5c0,0.6-0.1,1.2-0.3,1.8c-0.2,0.5-0.5,1-0.8,1.4c-0.4,0.4-0.8,0.7-1.3,0.9
		c-0.5,0.2-1.1,0.3-1.7,0.3c-0.6,0-1.2-0.1-1.6-0.3c-0.5-0.2-0.9-0.5-1.3-0.9c-0.3-0.4-0.6-0.8-0.8-1.4c-0.2-0.5-0.3-1.1-0.3-1.8
		c0-0.6,0.1-1.2,0.3-1.8c0.2-0.5,0.5-1,0.8-1.4c0.4-0.4,0.8-0.7,1.3-0.9c0.5-0.2,1-0.3,1.6-0.3s1.1,0.1,1.6,0.3
		c0.5,0.2,0.9,0.5,1.3,0.9c0.3,0.4,0.6,0.8,0.8,1.4C663,426.3,663.2,426.9,663.2,427.5z M660.8,427.5c0-0.7-0.2-1.3-0.4-1.7
		c-0.3-0.4-0.7-0.6-1.2-0.6s-0.9,0.2-1.2,0.6s-0.4,1-0.4,1.7s0.1,1.3,0.4,1.7c0.3,0.4,0.7,0.6,1.2,0.6s0.9-0.2,1.2-0.6
		C660.6,428.8,660.8,428.2,660.8,427.5z"/>
	<path class="st2" d="M671.7,425.3h-2.6v6.3h-2.3v-6.3h-2.6v-1.9h7.6v1.9H671.7z"/>
	<path class="st2" d="M671.9,429.7h1c0.3-0.4,0.5-0.8,0.7-1.3s0.3-1.1,0.3-1.7c0.1-0.6,0.1-1.2,0.1-1.8c0-0.6,0-1.1,0-1.6h6.4v6.3
		h1.4v4.2h-2v-2.3h-6v2.3h-2L671.9,429.7L671.9,429.7z M678.1,429.7v-4.4h-1.9c0,0.4,0,0.7-0.1,1.1c0,0.4-0.1,0.8-0.1,1.2
		c-0.1,0.4-0.2,0.8-0.3,1.1c-0.1,0.4-0.3,0.7-0.4,1L678.1,429.7L678.1,429.7z"/>
	<path class="st2" d="M682.8,427.6c0-0.7,0.1-1.4,0.3-1.9s0.5-1,0.9-1.4s0.8-0.6,1.2-0.8c0.5-0.2,1-0.3,1.5-0.3
		c1.2,0,2.1,0.4,2.8,1.1s1,1.8,1,3.1c0,0.1,0,0.3,0,0.5s0,0.3,0,0.4h-5.3c0.1,0.5,0.3,0.9,0.7,1.1c0.4,0.3,0.9,0.4,1.6,0.4
		c0.4,0,0.8,0,1.3-0.1s0.7-0.2,1-0.3l0.3,1.9c-0.1,0.1-0.3,0.1-0.5,0.2s-0.4,0.1-0.7,0.2c-0.2,0-0.5,0.1-0.8,0.1s-0.6,0.1-0.9,0.1
		c-0.7,0-1.4-0.1-1.9-0.3c-0.5-0.2-1-0.5-1.3-0.9s-0.6-0.8-0.8-1.3C682.9,428.7,682.8,428.2,682.8,427.6z M688.3,426.7
		c0-0.2,0-0.4-0.1-0.6c0-0.2-0.1-0.3-0.3-0.5c-0.1-0.1-0.3-0.3-0.5-0.4s-0.4-0.1-0.7-0.1s-0.5,0.1-0.7,0.1c-0.2,0.1-0.3,0.2-0.5,0.4
		c-0.1,0.1-0.2,0.3-0.3,0.5s-0.1,0.4-0.2,0.6H688.3L688.3,426.7L688.3,426.7z"/>
	<path class="st2" d="M696,425.3c0,0.3,0,0.6,0,1c0,0.3,0,0.7-0.1,1c0,0.3-0.1,0.7-0.2,1c-0.1,0.3-0.2,0.6-0.3,0.9s-0.3,0.6-0.5,0.9
		s-0.4,0.5-0.7,0.8c-0.3,0.2-0.7,0.4-1.1,0.6c-0.4,0.1-0.9,0.2-1.5,0.3l-0.3-1.9c0.5-0.1,0.9-0.3,1.2-0.5s0.5-0.4,0.7-0.7
		c0.1-0.3,0.2-0.6,0.3-0.9s0.1-0.7,0.1-1.1s0.1-0.8,0.1-1.2c0-0.4,0-0.8,0-1.1v-0.9h6.1v8.2h-2.3v-6.3L696,425.3L696,425.3z"/>
	<path class="st2" d="M710,427.9c-0.5,0-0.8,0.1-1,0.4s-0.3,0.6-0.3,1.1v2.4c0,0.5-0.1,0.8-0.2,1.2c-0.1,0.3-0.3,0.6-0.6,0.9
		c-0.3,0.2-0.6,0.4-1.1,0.5s-1,0.2-1.7,0.2h-0.3v-1.9h0.4c0.5,0,0.8-0.1,0.9-0.3c0.2-0.2,0.2-0.5,0.2-1v-2.1c0-0.5,0.1-1,0.2-1.4
		c0.2-0.4,0.4-0.7,0.9-1c-0.4-0.3-0.7-0.6-0.9-1c-0.1-0.4-0.2-0.8-0.2-1.4v-2.1c0-0.4-0.1-0.8-0.2-1c-0.2-0.2-0.5-0.3-0.9-0.3h-0.4
		v-1.9h0.3c0.7,0,1.2,0.1,1.7,0.2c0.4,0.1,0.8,0.3,1.1,0.6c0.3,0.2,0.5,0.5,0.6,0.9c0.1,0.3,0.2,0.8,0.2,1.2v2.4
		c0,0.4,0.1,0.8,0.3,1.1c0.2,0.3,0.5,0.4,1,0.4V427.9z"/>
</g>
<g>
	<path class="st3" d="M32.8,315.8c0,0,40.4,1.3,60.4,2.6c20,1.4,40.7,2.2,60.4,5.6s40.6,11.9,60.4,15.2c19.7,3.3,40.4,3.3,60.4,5.1
		c19.9,1.8,40.4,4.9,60.4,5.6s40.4-1.4,60.4-1.4s40.4,0.3,60.4,1.4s40.4,3.9,60.4,5.2c20,1.3,40.4,1.6,60.4,2.6s40.4,2,60.4,3.4
		s60.4,4.9,60.4,4.9"/>
	<path class="st4" d="M32.8,118.9c0,0,40.6,10.1,60.4,13.1c19.8,3.1,40.7,1.7,60.4,5.5c19.6,3.8,40.4,18.1,60.4,17.9
		c20-0.2,42-11.4,60.4-19.2c18.4-7.9,42-24.5,60.4-32.3C353,96.1,375.1,87.1,395,85s41.3,0.3,60.4,6.4s41.8,24.6,60.4,32
		c18.6,7.4,40.9,11.4,60.4,16c19.5,4.5,40.5,9.5,60.4,12.1c19.8,2.6,60.4,3.7,60.4,3.7"/>
	<path class="st1" d="M5.9,85c0,0.4-0.1,0.8-0.3,1.1c-0.2,0.3-0.5,0.6-0.9,0.8c0.4,0.2,0.8,0.5,1,0.8C6,88.1,6.1,88.6,6.1,89
		c0,0.7-0.2,1.3-0.7,1.8c-0.5,0.4-1.2,0.7-2,0.7s-1.5-0.2-2-0.7c-0.5-0.4-0.7-1-0.7-1.8c0-0.5,0.1-0.9,0.4-1.2
		c0.2-0.4,0.6-0.7,1-0.8c-0.4-0.2-0.7-0.4-0.9-0.8C1,85.8,0.9,85.4,0.9,85c0-0.7,0.2-1.3,0.7-1.7s1.1-0.6,1.8-0.6s1.4,0.2,1.8,0.6
		C5.7,83.7,5.9,84.3,5.9,85z M5,89c0-0.5-0.1-0.9-0.4-1.2c-0.3-0.3-0.7-0.4-1.2-0.4s-0.9,0.1-1.2,0.4S1.8,88.5,1.8,89
		s0.1,0.9,0.4,1.1c0.3,0.3,0.7,0.4,1.2,0.4s0.9-0.1,1.2-0.4C4.9,89.9,5,89.5,5,89z M3.4,83.6c-0.4,0-0.8,0.1-1,0.4
		C2.1,84.2,2,84.6,2,85s0.1,0.8,0.4,1.1c0.3,0.3,0.6,0.4,1,0.4s0.8-0.1,1-0.4c0.3-0.3,0.4-0.6,0.4-1.1c0-0.4-0.1-0.8-0.4-1.1
		C4.2,83.7,3.8,83.6,3.4,83.6z M10.5,87.1l0.4-4.3h4.4v1h-3.5l-0.3,2.3c0.4-0.2,0.9-0.4,1.4-0.4c0.8,0,1.4,0.3,1.9,0.8
		c0.4,0.5,0.7,1.2,0.7,2.1s-0.2,1.6-0.7,2.1s-1.1,0.8-2,0.8c-0.8,0-1.4-0.2-1.8-0.6c-0.5-0.4-0.8-1-0.8-1.7h1
		c0.1,0.5,0.2,0.9,0.5,1.1s0.6,0.4,1.1,0.4s0.9-0.2,1.2-0.5s0.4-0.8,0.4-1.4s-0.2-1-0.5-1.4c-0.3-0.3-0.7-0.5-1.2-0.5
		s-0.8,0.1-1.1,0.3l-0.3,0.2L10.5,87.1z M22,87.7c0,1.3-0.2,2.2-0.6,2.8c-0.4,0.6-1.1,0.9-2,0.9s-1.6-0.3-2-0.9s-0.7-1.5-0.7-2.7
		v-1.4c0-1.2,0.2-2.2,0.6-2.8c0.4-0.6,1.1-0.9,2-0.9s1.6,0.3,2,0.9s0.6,1.5,0.7,2.7V87.7z M21,86.2c0-0.9-0.1-1.6-0.4-2
		c-0.2-0.4-0.7-0.6-1.2-0.6s-1,0.2-1.2,0.6c-0.3,0.4-0.4,1.1-0.4,1.9v1.7c0,0.9,0.1,1.6,0.4,2s0.7,0.7,1.2,0.7s0.9-0.2,1.2-0.6
		c0.3-0.4,0.4-1.1,0.4-2V86.2z M28.8,87.7c0,1.3-0.2,2.2-0.6,2.8c-0.4,0.6-1.1,0.9-2,0.9s-1.6-0.3-2-0.9s-0.7-1.5-0.7-2.7v-1.4
		c0-1.2,0.2-2.2,0.6-2.8c0.4-0.6,1.1-0.9,2-0.9s1.6,0.3,2,0.9s0.7,1.5,0.7,2.7V87.7z M27.7,86.2c0-0.9-0.1-1.6-0.4-2
		c-0.2-0.4-0.7-0.6-1.2-0.6c-0.6,0-1,0.2-1.2,0.6c-0.3,0.4-0.4,1.1-0.4,1.9v1.7c0,0.9,0.1,1.6,0.4,2s0.7,0.7,1.2,0.7
		s0.9-0.2,1.2-0.6c0.3-0.4,0.4-1.1,0.4-2V86.2z"/>
	<path class="st1" d="M6.3,118.4l-3.5,7.9H1.6l3.5-7.6H0.5v-0.9h5.8V118.4z M10.5,122.1l0.4-4.3h4.4v1h-3.5l-0.3,2.3
		c0.4-0.2,0.9-0.4,1.4-0.4c0.8,0,1.4,0.3,1.9,0.8c0.4,0.5,0.7,1.2,0.7,2.1s-0.2,1.6-0.7,2.1s-1.1,0.8-2,0.8c-0.8,0-1.4-0.2-1.8-0.6
		c-0.5-0.4-0.8-1-0.8-1.7h1c0.1,0.5,0.2,0.9,0.5,1.1s0.6,0.4,1.1,0.4s0.9-0.2,1.2-0.5s0.4-0.8,0.4-1.4s-0.2-1-0.5-1.4
		c-0.3-0.3-0.7-0.5-1.2-0.5s-0.8,0.1-1.1,0.3l-0.3,0.2L10.5,122.1z M22,122.7c0,1.3-0.2,2.2-0.6,2.8c-0.4,0.6-1.1,0.9-2,0.9
		s-1.6-0.3-2-0.9s-0.7-1.5-0.7-2.7v-1.5c0-1.2,0.2-2.2,0.6-2.8c0.4-0.6,1.1-0.9,2-0.9s1.6,0.3,2,0.9s0.6,1.5,0.7,2.7V122.7z
		 M21,121.2c0-0.9-0.1-1.6-0.4-2c-0.2-0.4-0.7-0.6-1.2-0.6s-1,0.2-1.2,0.6c-0.3,0.4-0.4,1.1-0.4,1.9v1.7c0,0.9,0.1,1.6,0.4,2
		s0.7,0.7,1.2,0.7s0.9-0.2,1.2-0.6c0.3-0.4,0.4-1.1,0.4-2V121.2z M28.8,122.7c0,1.3-0.2,2.2-0.6,2.8c-0.4,0.6-1.1,0.9-2,0.9
		s-1.6-0.3-2-0.9s-0.7-1.5-0.7-2.7v-1.5c0-1.2,0.2-2.2,0.6-2.8c0.4-0.6,1.1-0.9,2-0.9s1.6,0.3,2,0.9s0.7,1.5,0.7,2.7V122.7z
		 M27.7,121.2c0-0.9-0.1-1.6-0.4-2c-0.2-0.4-0.7-0.6-1.2-0.6c-0.6,0-1,0.2-1.2,0.6c-0.3,0.4-0.4,1.1-0.4,1.9v1.7
		c0,0.9,0.1,1.6,0.4,2s0.7,0.7,1.2,0.7s0.9-0.2,1.2-0.6c0.3-0.4,0.4-1.1,0.4-2V121.2z"/>
	<path class="st1" d="M5,152.8v0.9H4.8c-0.8,0-1.5,0.3-2,0.8s-0.8,1.2-0.9,2c0.5-0.5,1.1-0.8,1.8-0.8s1.3,0.3,1.8,0.8
		c0.4,0.5,0.7,1.2,0.7,2c0,0.9-0.2,1.6-0.7,2.1s-1.1,0.8-1.9,0.8s-1.5-0.3-2-0.9c-0.5-0.6-0.8-1.4-0.8-2.4v-0.4c0-1.6,0.3-2.8,1-3.6
		s1.7-1.2,3-1.3L5,152.8L5,152.8z M3.6,156.6c-0.4,0-0.7,0.1-1,0.3s-0.5,0.5-0.6,0.8v0.4c0,0.7,0.2,1.3,0.5,1.7s0.7,0.6,1.2,0.6
		s0.9-0.2,1.1-0.5s0.4-0.8,0.4-1.4c0-0.6-0.1-1.1-0.4-1.4S4.1,156.6,3.6,156.6z M10.5,157.1l0.4-4.3h4.4v1h-3.5l-0.3,2.3
		c0.4-0.2,0.9-0.4,1.4-0.4c0.8,0,1.4,0.3,1.9,0.8c0.4,0.5,0.7,1.2,0.7,2.1c0,0.9-0.2,1.6-0.7,2.1s-1.1,0.8-2,0.8
		c-0.8,0-1.4-0.2-1.8-0.6c-0.5-0.4-0.8-1-0.8-1.7h1c0.1,0.5,0.2,0.9,0.5,1.1c0.3,0.2,0.6,0.4,1.1,0.4s0.9-0.2,1.2-0.5
		s0.4-0.8,0.4-1.4c0-0.6-0.2-1-0.5-1.4c-0.3-0.3-0.7-0.5-1.2-0.5s-0.8,0.1-1.1,0.3l-0.3,0.2L10.5,157.1z M22,157.7
		c0,1.3-0.2,2.2-0.6,2.8s-1.1,0.9-2,0.9s-1.6-0.3-2-0.9c-0.4-0.6-0.7-1.5-0.7-2.7v-1.4c0-1.2,0.2-2.2,0.6-2.8s1.1-0.9,2-0.9
		s1.6,0.3,2,0.9c0.4,0.6,0.6,1.5,0.7,2.7V157.7z M21,156.2c0-0.9-0.1-1.6-0.4-2c-0.2-0.4-0.7-0.6-1.2-0.6s-1,0.2-1.2,0.6
		c-0.3,0.4-0.4,1.1-0.4,1.9v1.7c0,0.9,0.1,1.6,0.4,2s0.7,0.7,1.2,0.7s0.9-0.2,1.2-0.6c0.3-0.4,0.4-1.1,0.4-2V156.2z M28.8,157.7
		c0,1.3-0.2,2.2-0.6,2.8s-1.1,0.9-2,0.9s-1.6-0.3-2-0.9c-0.4-0.6-0.7-1.5-0.7-2.7v-1.4c0-1.2,0.2-2.2,0.6-2.8s1.1-0.9,2-0.9
		s1.6,0.3,2,0.9c0.4,0.6,0.7,1.5,0.7,2.7V157.7z M27.7,156.2c0-0.9-0.1-1.6-0.4-2c-0.2-0.4-0.7-0.6-1.2-0.6c-0.6,0-1,0.2-1.2,0.6
		c-0.3,0.4-0.4,1.1-0.4,1.9v1.7c0,0.9,0.1,1.6,0.4,2s0.7,0.7,1.2,0.7s0.9-0.2,1.2-0.6c0.3-0.4,0.4-1.1,0.4-2V156.2z"/>
	<path class="st1" d="M1.3,192.1l0.4-4.3h4.4v1H2.6l-0.3,2.3c0.4-0.2,0.9-0.4,1.4-0.4c0.8,0,1.4,0.3,1.9,0.8s0.7,1.2,0.7,2.1
		c0,0.9-0.2,1.6-0.7,2.1s-1.1,0.8-2,0.8c-0.8,0-1.4-0.2-1.8-0.6c-0.5-0.4-0.8-1-0.8-1.7h1c0.1,0.5,0.2,0.9,0.5,1.1
		c0.3,0.2,0.6,0.4,1.1,0.4s0.9-0.2,1.2-0.5s0.4-0.8,0.4-1.4c0-0.6-0.2-1-0.5-1.4c-0.3-0.3-0.7-0.5-1.2-0.5s-0.9,0.1-1.1,0.3
		l-0.3,0.2L1.3,192.1z M10.5,192.1l0.4-4.3h4.4v1h-3.5l-0.3,2.3c0.4-0.2,0.9-0.4,1.4-0.4c0.8,0,1.4,0.3,1.9,0.8
		c0.4,0.5,0.7,1.2,0.7,2.1c0,0.9-0.2,1.6-0.7,2.1s-1.1,0.8-2,0.8c-0.8,0-1.4-0.2-1.8-0.6c-0.5-0.4-0.8-1-0.8-1.7h1
		c0.1,0.5,0.2,0.9,0.5,1.1c0.3,0.2,0.6,0.4,1.1,0.4s0.9-0.2,1.2-0.5s0.4-0.8,0.4-1.4c0-0.6-0.2-1-0.5-1.4c-0.3-0.3-0.7-0.5-1.2-0.5
		s-0.8,0.1-1.1,0.3l-0.3,0.2L10.5,192.1z M22,192.7c0,1.3-0.2,2.2-0.6,2.8s-1.1,0.9-2,0.9s-1.6-0.3-2-0.9c-0.4-0.6-0.7-1.5-0.7-2.7
		v-1.4c0-1.2,0.2-2.2,0.6-2.8s1.1-0.9,2-0.9s1.6,0.3,2,0.9c0.4,0.6,0.6,1.5,0.7,2.7V192.7z M21,191.2c0-0.9-0.1-1.6-0.4-2
		c-0.2-0.4-0.7-0.6-1.2-0.6s-1,0.2-1.2,0.6c-0.3,0.4-0.4,1.1-0.4,1.9v1.7c0,0.9,0.1,1.6,0.4,2s0.7,0.7,1.2,0.7s0.9-0.2,1.2-0.6
		c0.3-0.4,0.4-1.1,0.4-2V191.2z M28.8,192.7c0,1.3-0.2,2.2-0.6,2.8s-1.1,0.9-2,0.9s-1.6-0.3-2-0.9c-0.4-0.6-0.7-1.5-0.7-2.7v-1.4
		c0-1.2,0.2-2.2,0.6-2.8s1.1-0.9,2-0.9s1.6,0.3,2,0.9c0.4,0.6,0.7,1.5,0.7,2.7V192.7z M27.7,191.2c0-0.9-0.1-1.6-0.4-2
		c-0.2-0.4-0.7-0.6-1.2-0.6c-0.6,0-1,0.2-1.2,0.6c-0.3,0.4-0.4,1.1-0.4,1.9v1.7c0,0.9,0.1,1.6,0.4,2s0.7,0.7,1.2,0.7
		s0.9-0.2,1.2-0.6c0.3-0.4,0.4-1.1,0.4-2V191.2z"/>
	<path class="st1" d="M5.3,228.5h1.2v0.9H5.3v2H4.2v-2H0.4v-0.6l3.8-5.9h1.2L5.3,228.5L5.3,228.5z M1.6,228.5h2.7v-4.2l-0.1,0.2
		L1.6,228.5z M10.5,227.1l0.4-4.3h4.4v1h-3.5l-0.3,2.3c0.4-0.2,0.9-0.4,1.4-0.4c0.8,0,1.4,0.3,1.9,0.8c0.4,0.5,0.7,1.2,0.7,2.1
		c0,0.9-0.2,1.6-0.7,2.1s-1.1,0.8-2,0.8c-0.8,0-1.4-0.2-1.8-0.6c-0.5-0.4-0.8-1-0.8-1.7h1c0.1,0.5,0.2,0.9,0.5,1.1
		c0.3,0.2,0.6,0.4,1.1,0.4s0.9-0.2,1.2-0.5s0.4-0.8,0.4-1.4c0-0.6-0.2-1-0.5-1.4c-0.3-0.3-0.7-0.5-1.2-0.5s-0.8,0.1-1.1,0.3
		l-0.3,0.2L10.5,227.1z M22,227.7c0,1.3-0.2,2.2-0.6,2.8s-1.1,0.9-2,0.9s-1.6-0.3-2-0.9c-0.4-0.6-0.7-1.5-0.7-2.7v-1.4
		c0-1.2,0.2-2.2,0.6-2.8s1.1-0.9,2-0.9s1.6,0.3,2,0.9c0.4,0.6,0.6,1.5,0.7,2.7V227.7z M21,226.2c0-0.9-0.1-1.6-0.4-2
		c-0.2-0.4-0.7-0.6-1.2-0.6s-1,0.2-1.2,0.6c-0.3,0.4-0.4,1.1-0.4,1.9v1.7c0,0.9,0.1,1.6,0.4,2s0.7,0.7,1.2,0.7s0.9-0.2,1.2-0.6
		c0.3-0.4,0.4-1.1,0.4-2V226.2z M28.8,227.7c0,1.3-0.2,2.2-0.6,2.8s-1.1,0.9-2,0.9s-1.6-0.3-2-0.9c-0.4-0.6-0.7-1.5-0.7-2.7v-1.4
		c0-1.2,0.2-2.2,0.6-2.8s1.1-0.9,2-0.9s1.6,0.3,2,0.9c0.4,0.6,0.7,1.5,0.7,2.7V227.7z M27.7,226.2c0-0.9-0.1-1.6-0.4-2
		c-0.2-0.4-0.7-0.6-1.2-0.6c-0.6,0-1,0.2-1.2,0.6c-0.3,0.4-0.4,1.1-0.4,1.9v1.7c0,0.9,0.1,1.6,0.4,2s0.7,0.7,1.2,0.7
		s0.9-0.2,1.2-0.6c0.3-0.4,0.4-1.1,0.4-2V226.2z"/>
	<path class="st1" d="M2.3,261.5h0.8c0.5,0,0.9-0.1,1.2-0.4s0.4-0.6,0.4-1.1c0-1-0.5-1.5-1.5-1.5c-0.5,0-0.8,0.1-1.1,0.4
		s-0.4,0.6-0.4,1.1h-1c0-0.7,0.2-1.2,0.7-1.7s1.1-0.7,1.9-0.7s1.4,0.2,1.9,0.6c0.4,0.4,0.7,1,0.7,1.8c0,0.4-0.1,0.7-0.4,1.1
		c-0.2,0.4-0.6,0.6-1,0.8c0.5,0.1,0.8,0.4,1.1,0.7C5.9,263,6,263.5,6,264c0,0.8-0.2,1.4-0.8,1.8c-0.5,0.5-1.2,0.7-2,0.7
		s-1.5-0.2-2-0.6s-0.8-1-0.8-1.7h1.1c0,0.4,0.1,0.8,0.4,1.1s0.7,0.4,1.2,0.4s0.9-0.1,1.2-0.4s0.4-0.7,0.4-1.2s-0.2-0.9-0.5-1.1
		c-0.3-0.3-0.7-0.4-1.3-0.4H2.3V261.5z M10.5,262l0.4-4.3h4.4v1h-3.5l-0.3,2.3c0.4-0.2,0.9-0.4,1.4-0.4c0.8,0,1.4,0.3,1.9,0.8
		c0.4,0.5,0.7,1.2,0.7,2.1s-0.2,1.6-0.7,2.1s-1.1,0.8-2,0.8c-0.8,0-1.4-0.2-1.8-0.6c-0.5-0.4-0.8-1-0.8-1.7h1
		c0.1,0.5,0.2,0.9,0.5,1.1s0.6,0.4,1.1,0.4s0.9-0.2,1.2-0.5s0.4-0.8,0.4-1.4s-0.2-1-0.5-1.4c-0.3-0.3-0.7-0.5-1.2-0.5
		s-0.8,0.1-1.1,0.3l-0.3,0.2L10.5,262z M22,262.7c0,1.3-0.2,2.2-0.6,2.8c-0.4,0.6-1.1,0.9-2,0.9s-1.6-0.3-2-0.9s-0.7-1.5-0.7-2.7
		v-1.5c0-1.2,0.2-2.2,0.6-2.8c0.4-0.6,1.1-0.9,2-0.9s1.6,0.3,2,0.9s0.6,1.5,0.7,2.7V262.7z M21,261.2c0-0.9-0.1-1.6-0.4-2
		c-0.2-0.4-0.7-0.6-1.2-0.6s-1,0.2-1.2,0.6c-0.3,0.4-0.4,1.1-0.4,1.9v1.7c0,0.9,0.1,1.6,0.4,2s0.7,0.7,1.2,0.7s0.9-0.2,1.2-0.6
		c0.3-0.4,0.4-1.1,0.4-2V261.2z M28.8,262.7c0,1.3-0.2,2.2-0.6,2.8c-0.4,0.6-1.1,0.9-2,0.9s-1.6-0.3-2-0.9s-0.7-1.5-0.7-2.7v-1.5
		c0-1.2,0.2-2.2,0.6-2.8c0.4-0.6,1.1-0.9,2-0.9s1.6,0.3,2,0.9s0.7,1.5,0.7,2.7V262.7z M27.7,261.2c0-0.9-0.1-1.6-0.4-2
		c-0.2-0.4-0.7-0.6-1.2-0.6c-0.6,0-1,0.2-1.2,0.6c-0.3,0.4-0.4,1.1-0.4,1.9v1.7c0,0.9,0.1,1.6,0.4,2s0.7,0.7,1.2,0.7
		s0.9-0.2,1.2-0.6c0.3-0.4,0.4-1.1,0.4-2V261.2z"/>
	<path class="st1" d="M6.4,301.3H0.8v-0.8l2.9-3.3c0.4-0.5,0.7-0.9,0.9-1.2c0.2-0.3,0.2-0.6,0.2-1s-0.1-0.8-0.4-1.1
		c-0.3-0.3-0.6-0.4-1.1-0.4s-1,0.1-1.3,0.5c-0.3,0.3-0.5,0.7-0.5,1.3H0.6c0-0.8,0.2-1.4,0.8-1.9c0.5-0.5,1.2-0.7,2-0.7
		s1.4,0.2,1.9,0.6s0.7,1,0.7,1.7c0,0.8-0.5,1.8-1.6,3l-2.3,2.5h4.3C6.4,300.5,6.4,301.3,6.4,301.3z M10.5,297l0.4-4.3h4.4v1h-3.5
		l-0.3,2.3c0.4-0.2,0.9-0.4,1.4-0.4c0.8,0,1.4,0.3,1.9,0.8c0.4,0.5,0.7,1.2,0.7,2.1s-0.2,1.6-0.7,2.1s-1.1,0.8-2,0.8
		c-0.8,0-1.4-0.2-1.8-0.6c-0.5-0.4-0.8-1-0.8-1.7h1c0.1,0.5,0.2,0.9,0.5,1.1s0.6,0.4,1.1,0.4s0.9-0.2,1.2-0.5s0.4-0.8,0.4-1.4
		s-0.2-1-0.5-1.4c-0.3-0.3-0.7-0.5-1.2-0.5s-0.8,0.1-1.1,0.3l-0.3,0.2L10.5,297z M22,297.7c0,1.3-0.2,2.2-0.6,2.8
		c-0.4,0.6-1.1,0.9-2,0.9s-1.6-0.3-2-0.9s-0.7-1.5-0.7-2.7v-1.5c0-1.2,0.2-2.2,0.6-2.8c0.4-0.6,1.1-0.9,2-0.9s1.6,0.3,2,0.9
		s0.6,1.5,0.7,2.7V297.7z M21,296.2c0-0.9-0.1-1.6-0.4-2c-0.2-0.4-0.7-0.6-1.2-0.6s-1,0.2-1.2,0.6c-0.3,0.4-0.4,1.1-0.4,1.9v1.7
		c0,0.9,0.1,1.6,0.4,2s0.7,0.7,1.2,0.7s0.9-0.2,1.2-0.6c0.3-0.4,0.4-1.1,0.4-2V296.2z M28.8,297.7c0,1.3-0.2,2.2-0.6,2.8
		c-0.4,0.6-1.1,0.9-2,0.9s-1.6-0.3-2-0.9s-0.7-1.5-0.7-2.7v-1.5c0-1.2,0.2-2.2,0.6-2.8c0.4-0.6,1.1-0.9,2-0.9s1.6,0.3,2,0.9
		s0.7,1.5,0.7,2.7V297.7z M27.7,296.2c0-0.9-0.1-1.6-0.4-2c-0.2-0.4-0.7-0.6-1.2-0.6c-0.6,0-1,0.2-1.2,0.6c-0.3,0.4-0.4,1.1-0.4,1.9
		v1.7c0,0.9,0.1,1.6,0.4,2s0.7,0.7,1.2,0.7s0.9-0.2,1.2-0.6c0.3-0.4,0.4-1.1,0.4-2V296.2z"/>
	<path class="st1" d="M4.3,336.3H3.2v-7.2L1,329.9v-1l3.1-1.2h0.2C4.3,327.7,4.3,336.3,4.3,336.3z M10.5,332l0.4-4.3h4.4v1h-3.5
		l-0.3,2.3c0.4-0.2,0.9-0.4,1.4-0.4c0.8,0,1.4,0.3,1.9,0.8c0.4,0.5,0.7,1.2,0.7,2.1s-0.2,1.6-0.7,2.1s-1.1,0.8-2,0.8
		c-0.8,0-1.4-0.2-1.8-0.6c-0.5-0.4-0.8-1-0.8-1.7h1c0.1,0.5,0.2,0.9,0.5,1.1s0.6,0.4,1.1,0.4s0.9-0.2,1.2-0.5s0.4-0.8,0.4-1.4
		s-0.2-1-0.5-1.4c-0.3-0.3-0.7-0.5-1.2-0.5s-0.8,0.1-1.1,0.3l-0.3,0.2L10.5,332z M22,332.7c0,1.3-0.2,2.2-0.6,2.8
		c-0.4,0.6-1.1,0.9-2,0.9s-1.6-0.3-2-0.9s-0.7-1.5-0.7-2.7v-1.5c0-1.2,0.2-2.2,0.6-2.8c0.4-0.6,1.1-0.9,2-0.9s1.6,0.3,2,0.9
		s0.6,1.5,0.7,2.7V332.7z M21,331.2c0-0.9-0.1-1.6-0.4-2c-0.2-0.4-0.7-0.6-1.2-0.6s-1,0.2-1.2,0.6c-0.3,0.4-0.4,1.1-0.4,1.9v1.7
		c0,0.9,0.1,1.6,0.4,2s0.7,0.7,1.2,0.7s0.9-0.2,1.2-0.6c0.3-0.4,0.4-1.1,0.4-2V331.2z M28.8,332.7c0,1.3-0.2,2.2-0.6,2.8
		c-0.4,0.6-1.1,0.9-2,0.9s-1.6-0.3-2-0.9s-0.7-1.5-0.7-2.7v-1.5c0-1.2,0.2-2.2,0.6-2.8c0.4-0.6,1.1-0.9,2-0.9s1.6,0.3,2,0.9
		s0.7,1.5,0.7,2.7V332.7z M27.7,331.2c0-0.9-0.1-1.6-0.4-2c-0.2-0.4-0.7-0.6-1.2-0.6c-0.6,0-1,0.2-1.2,0.6c-0.3,0.4-0.4,1.1-0.4,1.9
		v1.7c0,0.9,0.1,1.6,0.4,2s0.7,0.7,1.2,0.7s0.9-0.2,1.2-0.6c0.3-0.4,0.4-1.1,0.4-2V331.2z"/>
	<path class="st1" d="M10.5,367l0.4-4.3h4.4v1h-3.5l-0.3,2.3c0.4-0.2,0.9-0.4,1.4-0.4c0.8,0,1.4,0.3,1.9,0.8
		c0.4,0.5,0.7,1.2,0.7,2.1s-0.2,1.6-0.7,2.1s-1.1,0.8-2,0.8c-0.8,0-1.4-0.2-1.8-0.6c-0.5-0.4-0.8-1-0.8-1.7h1
		c0.1,0.5,0.2,0.9,0.5,1.1s0.6,0.4,1.1,0.4s0.9-0.2,1.2-0.5s0.4-0.8,0.4-1.4s-0.2-1-0.5-1.4c-0.3-0.3-0.7-0.5-1.2-0.5
		s-0.8,0.1-1.1,0.3l-0.3,0.2L10.5,367z M22,367.7c0,1.3-0.2,2.2-0.6,2.8c-0.4,0.6-1.1,0.9-2,0.9s-1.6-0.3-2-0.9s-0.7-1.5-0.7-2.7
		v-1.5c0-1.2,0.2-2.2,0.6-2.8c0.4-0.6,1.1-0.9,2-0.9s1.6,0.3,2,0.9s0.6,1.5,0.7,2.7V367.7z M21,366.2c0-0.9-0.1-1.6-0.4-2
		c-0.2-0.4-0.7-0.6-1.2-0.6s-1,0.2-1.2,0.6c-0.3,0.4-0.4,1.1-0.4,1.9v1.7c0,0.9,0.1,1.6,0.4,2s0.7,0.7,1.2,0.7s0.9-0.2,1.2-0.6
		c0.3-0.4,0.4-1.1,0.4-2V366.2z M28.8,367.7c0,1.3-0.2,2.2-0.6,2.8c-0.4,0.6-1.1,0.9-2,0.9s-1.6-0.3-2-0.9s-0.7-1.5-0.7-2.7v-1.5
		c0-1.2,0.2-2.2,0.6-2.8c0.4-0.6,1.1-0.9,2-0.9s1.6,0.3,2,0.9s0.7,1.5,0.7,2.7V367.7z M27.7,366.2c0-0.9-0.1-1.6-0.4-2
		c-0.2-0.4-0.7-0.6-1.2-0.6c-0.6,0-1,0.2-1.2,0.6c-0.3,0.4-0.4,1.1-0.4,1.9v1.7c0,0.9,0.1,1.6,0.4,2s0.7,0.7,1.2,0.7
		s0.9-0.2,1.2-0.6c0.3-0.4,0.4-1.1,0.4-2V366.2z"/>
	<path class="st1" d="M25.7,399.2h-5.6v-0.8l2.9-3.3c0.4-0.5,0.7-0.9,0.9-1.2c0.2-0.3,0.2-0.6,0.2-1s-0.1-0.8-0.4-1.1
		c-0.3-0.3-0.6-0.4-1.1-0.4s-1,0.1-1.3,0.5c-0.3,0.3-0.4,0.7-0.4,1.3H20c0-0.8,0.3-1.4,0.8-1.9s1.2-0.7,2-0.7s1.4,0.2,1.9,0.6
		s0.7,1,0.7,1.7c0,0.8-0.5,1.8-1.6,3l-2.3,2.5h4.3L25.7,399.2L25.7,399.2z M32.2,395.6c0,1.3-0.2,2.2-0.6,2.8
		c-0.4,0.6-1.1,0.9-2,0.9s-1.6-0.3-2-0.9s-0.7-1.5-0.7-2.7v-1.4c0-1.3,0.2-2.2,0.7-2.8c0.4-0.6,1.1-0.9,2-0.9s1.6,0.3,2,0.9
		s0.7,1.5,0.7,2.7L32.2,395.6L32.2,395.6z M31.1,394.1c0-0.9-0.1-1.6-0.4-2c-0.2-0.4-0.7-0.6-1.2-0.6s-1,0.2-1.2,0.6
		c-0.3,0.4-0.4,1.1-0.4,1.9v1.7c0,0.9,0.1,1.6,0.4,2s0.7,0.7,1.2,0.7s0.9-0.2,1.2-0.6c0.3-0.4,0.4-1.1,0.4-2V394.1z M39,395.6
		c0,1.3-0.2,2.2-0.7,2.8c-0.4,0.6-1.1,0.9-2,0.9s-1.6-0.3-2-0.9s-0.7-1.5-0.7-2.7v-1.4c0-1.3,0.2-2.2,0.6-2.8c0.4-0.6,1.1-0.9,2-0.9
		s1.6,0.3,2,0.9s0.7,1.5,0.7,2.7v1.4H39z M37.9,394.1c0-0.9-0.1-1.6-0.4-2c-0.3-0.4-0.7-0.6-1.2-0.6s-1,0.2-1.2,0.6
		s-0.4,1.1-0.4,1.9v1.7c0,0.9,0.1,1.6,0.4,2c0.3,0.4,0.7,0.7,1.2,0.7s0.9-0.2,1.2-0.6s0.4-1.1,0.4-2V394.1z M44.5,395.5
		c-0.2,0.3-0.5,0.5-0.8,0.6c-0.3,0.2-0.7,0.2-1,0.2c-0.5,0-0.9-0.1-1.3-0.4c-0.4-0.2-0.6-0.6-0.8-1s-0.3-0.9-0.3-1.5
		s0.1-1.1,0.3-1.5c0.2-0.5,0.5-0.8,0.9-1.1c0.4-0.2,0.9-0.4,1.4-0.4c0.8,0,1.5,0.3,2,0.9s0.7,1.5,0.7,2.6v0.3c0,1.7-0.3,2.9-1,3.6
		c-0.7,0.8-1.6,1.2-3,1.2h-0.2v-0.9h0.2c0.9,0,1.6-0.2,2.1-0.7C44.2,397.1,44.5,396.4,44.5,395.5z M42.8,395.5c0.4,0,0.7-0.1,1-0.3
		c0.3-0.2,0.5-0.5,0.7-0.8V394c0-0.7-0.1-1.3-0.5-1.7c-0.3-0.5-0.7-0.7-1.2-0.7s-0.9,0.2-1.1,0.5c-0.3,0.4-0.4,0.8-0.4,1.4
		s0.1,1.1,0.4,1.4S42.4,395.5,42.8,395.5z"/>
	<path class="st1" d="M86,399.2h-5.6v-0.8l3-3.3c0.4-0.5,0.7-0.9,0.9-1.2c0.2-0.3,0.2-0.6,0.2-1s-0.1-0.8-0.4-1.1
		c-0.3-0.3-0.6-0.4-1.1-0.4s-1,0.1-1.2,0.5c-0.3,0.3-0.5,0.7-0.5,1.3h-1.1c0-0.8,0.3-1.4,0.8-1.9s1.2-0.7,2-0.7s1.4,0.2,1.9,0.6
		s0.7,1,0.7,1.7c0,0.8-0.5,1.8-1.6,3l-2.3,2.5H86V399.2z M92.5,395.6c0,1.3-0.2,2.2-0.7,2.8c-0.4,0.6-1.1,0.9-2,0.9s-1.6-0.3-2-0.9
		s-0.7-1.5-0.7-2.7v-1.4c0-1.3,0.2-2.2,0.6-2.8c0.4-0.6,1.1-0.9,2-0.9s1.6,0.3,2,0.9s0.7,1.5,0.7,2.7L92.5,395.6L92.5,395.6z
		 M91.4,394.1c0-0.9-0.1-1.6-0.4-2c-0.2-0.4-0.7-0.6-1.2-0.6s-1,0.2-1.2,0.6c-0.3,0.4-0.4,1.1-0.4,1.9v1.7c0,0.9,0.1,1.6,0.4,2
		s0.7,0.7,1.2,0.7s0.9-0.2,1.2-0.6c0.3-0.4,0.4-1.1,0.4-2V394.1z M97.5,399.2h-1.1V392l-2.2,0.8v-1l3.1-1.2h0.2V399.2z M106,395.6
		c0,1.3-0.2,2.2-0.6,2.8c-0.4,0.6-1.1,0.9-2,0.9s-1.6-0.3-2-0.9s-0.7-1.5-0.7-2.7v-1.4c0-1.3,0.2-2.2,0.7-2.8c0.4-0.6,1.1-0.9,2-0.9
		s1.6,0.3,2,0.9s0.7,1.5,0.7,2.7L106,395.6L106,395.6z M104.9,394.1c0-0.9-0.1-1.6-0.4-2s-0.7-0.6-1.2-0.6s-1,0.2-1.2,0.6
		s-0.4,1.1-0.4,1.9v1.7c0,0.9,0.1,1.6,0.4,2s0.7,0.7,1.2,0.7s0.9-0.2,1.2-0.6c0.3-0.4,0.4-1.1,0.4-2V394.1z"/>
	<path class="st1" d="M147.3,399.2h-5.6v-0.8l3-3.3c0.4-0.5,0.7-0.9,0.9-1.2c0.2-0.3,0.2-0.6,0.2-1s-0.1-0.8-0.4-1.1
		c-0.3-0.3-0.6-0.4-1.1-0.4s-1,0.1-1.3,0.5s-0.4,0.7-0.4,1.3h-1.1c0-0.8,0.2-1.4,0.8-1.9c0.5-0.5,1.2-0.7,2-0.7s1.4,0.2,1.9,0.6
		s0.7,1,0.7,1.7c0,0.8-0.5,1.8-1.6,3l-2.3,2.5h4.3L147.3,399.2L147.3,399.2z M153.8,395.6c0,1.3-0.2,2.2-0.6,2.8
		c-0.4,0.6-1.1,0.9-2,0.9s-1.6-0.3-2-0.9s-0.7-1.5-0.7-2.7v-1.4c0-1.3,0.2-2.2,0.7-2.8c0.4-0.6,1.1-0.9,2-0.9s1.6,0.3,2,0.9
		s0.7,1.5,0.7,2.7L153.8,395.6L153.8,395.6z M152.7,394.1c0-0.9-0.1-1.6-0.4-2c-0.3-0.4-0.7-0.6-1.2-0.6s-1,0.2-1.2,0.6
		s-0.4,1.1-0.4,1.9v1.7c0,0.9,0.1,1.6,0.4,2c0.3,0.4,0.7,0.7,1.2,0.7s0.9-0.2,1.2-0.6s0.4-1.1,0.4-2V394.1z M158.7,399.2h-1.1V392
		l-2.2,0.8v-1l3.1-1.2h0.2V399.2z M165.5,399.2h-1.1V392l-2.2,0.8v-1l3.1-1.2h0.2V399.2z"/>
	<path class="st1" d="M206.6,399.2H201v-0.8l3-3.3c0.4-0.5,0.7-0.9,0.9-1.2c0.2-0.3,0.2-0.6,0.2-1s-0.1-0.8-0.4-1.1
		c-0.3-0.3-0.6-0.4-1.1-0.4s-1,0.1-1.3,0.5s-0.4,0.7-0.4,1.3h-1.1c0-0.8,0.2-1.4,0.8-1.9c0.5-0.5,1.2-0.7,2-0.7s1.4,0.2,1.9,0.6
		s0.7,1,0.7,1.7c0,0.8-0.5,1.8-1.6,3l-2.3,2.5h4.3L206.6,399.2L206.6,399.2z M213.1,395.6c0,1.3-0.2,2.2-0.7,2.8
		c-0.4,0.6-1.1,0.9-2,0.9s-1.6-0.3-2-0.9s-0.7-1.5-0.7-2.7v-1.4c0-1.3,0.2-2.2,0.6-2.8c0.4-0.6,1.1-0.9,2-0.9s1.6,0.3,2,0.9
		s0.7,1.5,0.7,2.7L213.1,395.6L213.1,395.6z M212.1,394.1c0-0.9-0.1-1.6-0.4-2c-0.3-0.4-0.7-0.6-1.2-0.6s-1,0.2-1.2,0.6
		s-0.4,1.1-0.4,1.9v1.7c0,0.9,0.1,1.6,0.4,2c0.3,0.4,0.7,0.7,1.2,0.7s0.9-0.2,1.2-0.6s0.4-1.1,0.4-2V394.1z M218.1,399.2H217V392
		l-2.2,0.8v-1l3.1-1.2h0.2V399.2z M226.9,399.2h-5.6v-0.8l3-3.3c0.4-0.5,0.7-0.9,0.9-1.2c0.2-0.3,0.2-0.6,0.2-1s-0.1-0.8-0.4-1.1
		c-0.3-0.3-0.6-0.4-1.1-0.4s-1,0.1-1.2,0.5c-0.3,0.3-0.5,0.7-0.5,1.3h-1.1c0-0.8,0.2-1.4,0.8-1.9c0.5-0.5,1.2-0.7,2-0.7
		s1.4,0.2,1.9,0.6s0.7,1,0.7,1.7c0,0.8-0.5,1.8-1.6,3l-2.3,2.5h4.3L226.9,399.2L226.9,399.2z"/>
	<path class="st1" d="M267.2,399.2h-5.6v-0.8l2.9-3.3c0.4-0.5,0.7-0.9,0.9-1.2c0.2-0.3,0.2-0.6,0.2-1s-0.1-0.8-0.4-1.1
		c-0.3-0.3-0.6-0.4-1.1-0.4s-1,0.1-1.2,0.5c-0.3,0.3-0.5,0.7-0.5,1.3h-1.1c0-0.8,0.3-1.4,0.8-1.9s1.2-0.7,2-0.7s1.4,0.2,1.9,0.6
		s0.7,1,0.7,1.7c0,0.8-0.5,1.8-1.6,3l-2.3,2.5h4.3v0.8H267.2z M273.7,395.6c0,1.3-0.2,2.2-0.6,2.8c-0.4,0.6-1.1,0.9-2,0.9
		s-1.6-0.3-2-0.9s-0.7-1.5-0.7-2.7v-1.4c0-1.3,0.2-2.2,0.6-2.8c0.4-0.6,1.1-0.9,2-0.9s1.6,0.3,2,0.9s0.6,1.5,0.7,2.7V395.6z
		 M272.6,394.1c0-0.9-0.1-1.6-0.4-2s-0.7-0.6-1.2-0.6c-0.6,0-1,0.2-1.2,0.6c-0.3,0.4-0.4,1.1-0.4,1.9v1.7c0,0.9,0.1,1.6,0.4,2
		s0.7,0.7,1.2,0.7s0.9-0.2,1.2-0.6c0.3-0.4,0.4-1.1,0.4-2V394.1z M278.6,399.2h-1.1V392l-2.2,0.8v-1l3.1-1.2h0.2V399.2z
		 M283.4,394.4h0.8c0.5,0,0.9-0.1,1.2-0.4c0.3-0.3,0.4-0.6,0.4-1.1c0-1-0.5-1.5-1.5-1.5c-0.5,0-0.9,0.1-1.1,0.4s-0.4,0.6-0.4,1.1
		h-1.1c0-0.7,0.2-1.2,0.7-1.7c0.5-0.4,1.1-0.7,1.9-0.7s1.4,0.2,1.9,0.6s0.7,1,0.7,1.8c0,0.4-0.1,0.7-0.4,1.1c-0.2,0.4-0.6,0.6-1,0.8
		c0.5,0.1,0.8,0.4,1.1,0.7c0.2,0.3,0.4,0.8,0.4,1.3c0,0.8-0.2,1.4-0.8,1.8c-0.5,0.5-1.1,0.7-2,0.7c-0.8,0-1.4-0.2-1.9-0.7
		c-0.5-0.4-0.8-1-0.8-1.7h1.1c0,0.4,0.1,0.8,0.4,1.1c0.3,0.3,0.7,0.4,1.2,0.4s0.9-0.1,1.2-0.4c0.3-0.3,0.4-0.7,0.4-1.2
		s-0.1-0.9-0.5-1.1c-0.3-0.3-0.7-0.4-1.3-0.4h-0.8v-0.9H283.4z"/>
	<path class="st1" d="M327.3,399.2h-5.6v-0.8l3-3.3c0.4-0.5,0.7-0.9,0.9-1.2c0.2-0.3,0.2-0.6,0.2-1s-0.1-0.8-0.4-1.1
		c-0.3-0.3-0.6-0.4-1.1-0.4s-1,0.1-1.3,0.5c-0.3,0.3-0.4,0.7-0.4,1.3h-1.1c0-0.8,0.3-1.4,0.8-1.9s1.2-0.7,2-0.7s1.4,0.2,1.9,0.6
		s0.7,1,0.7,1.7c0,0.8-0.5,1.8-1.6,3l-2.3,2.5h4.3V399.2z M333.8,395.6c0,1.3-0.2,2.2-0.6,2.8c-0.4,0.6-1.1,0.9-2,0.9
		s-1.6-0.3-2-0.9s-0.7-1.5-0.7-2.7v-1.4c0-1.3,0.2-2.2,0.6-2.8c0.4-0.6,1.1-0.9,2-0.9s1.6,0.3,2,0.9s0.7,1.5,0.7,2.7V395.6z
		 M332.7,394.1c0-0.9-0.1-1.6-0.4-2c-0.2-0.4-0.7-0.6-1.2-0.6c-0.6,0-1,0.2-1.2,0.6c-0.3,0.4-0.4,1.1-0.4,1.9v1.7
		c0,0.9,0.1,1.6,0.4,2s0.7,0.7,1.2,0.7s0.9-0.2,1.2-0.6c0.3-0.4,0.4-1.1,0.4-2V394.1z M338.7,399.2h-1.1V392l-2.2,0.8v-1l3.1-1.2
		h0.2V399.2z M346.5,396.3h1.2v0.9h-1.2v2h-1.1v-2h-3.9v-0.6l3.8-5.9h1.2V396.3z M342.7,396.3h2.7v-4.2l-0.1,0.2L342.7,396.3z"/>
	<path class="st1" d="M387.7,399.2h-5.6v-0.8l3-3.3c0.4-0.5,0.7-0.9,0.9-1.2c0.2-0.3,0.2-0.6,0.2-1s-0.1-0.8-0.4-1.1
		c-0.3-0.3-0.6-0.4-1.1-0.4s-1,0.1-1.3,0.5c-0.3,0.3-0.4,0.7-0.4,1.3h-1c0-0.8,0.2-1.4,0.8-1.9c0.5-0.5,1.2-0.7,2-0.7
		s1.4,0.2,1.9,0.6s0.7,1,0.7,1.7c0,0.8-0.5,1.8-1.6,3l-2.3,2.5h4.3L387.7,399.2L387.7,399.2z M394.2,395.6c0,1.3-0.2,2.2-0.6,2.8
		c-0.4,0.6-1.1,0.9-2,0.9s-1.6-0.3-2-0.9s-0.7-1.5-0.7-2.7v-1.4c0-1.3,0.2-2.2,0.7-2.8c0.4-0.6,1.1-0.9,2-0.9s1.6,0.3,2,0.9
		s0.7,1.5,0.7,2.7v1.4H394.2z M393.2,394.1c0-0.9-0.1-1.6-0.4-2s-0.7-0.6-1.2-0.6c-0.6,0-1,0.2-1.2,0.6s-0.4,1.1-0.4,1.9v1.7
		c0,0.9,0.1,1.6,0.4,2s0.7,0.7,1.2,0.7s0.9-0.2,1.2-0.6c0.3-0.4,0.4-1.1,0.4-2V394.1z M399.2,399.2h-1.1V392l-2.2,0.8v-1l3.1-1.2
		h0.2V399.2z M402.9,394.9l0.4-4.2h4.4v1h-3.4L404,394c0.4-0.2,0.9-0.4,1.4-0.4c0.8,0,1.4,0.3,1.8,0.8c0.5,0.5,0.7,1.2,0.7,2.1
		s-0.2,1.6-0.7,2.1s-1.1,0.8-2,0.8c-0.8,0-1.4-0.2-1.8-0.6c-0.5-0.4-0.8-1-0.8-1.7h1c0.1,0.5,0.2,0.9,0.5,1.1s0.7,0.4,1.1,0.4
		c0.5,0,0.9-0.2,1.2-0.5c0.3-0.3,0.4-0.8,0.4-1.4s-0.2-1-0.5-1.4s-0.7-0.5-1.2-0.5s-0.8,0.1-1.1,0.3l-0.3,0.2L402.9,394.9z"/>
	<path class="st1" d="M448.2,399.2h-5.6v-0.8l2.9-3.3c0.4-0.5,0.7-0.9,0.9-1.2c0.2-0.3,0.2-0.6,0.2-1s-0.1-0.8-0.4-1.1
		c-0.3-0.3-0.6-0.4-1.1-0.4s-1,0.1-1.3,0.5c-0.3,0.3-0.4,0.7-0.4,1.3h-1.1c0-0.8,0.3-1.4,0.8-1.9s1.2-0.7,2-0.7s1.4,0.2,1.9,0.6
		s0.7,1,0.7,1.7c0,0.8-0.5,1.8-1.6,3l-2.3,2.5h4.3v0.8H448.2z M454.6,395.6c0,1.3-0.2,2.2-0.6,2.8c-0.4,0.6-1.1,0.9-2,0.9
		s-1.6-0.3-2-0.9s-0.7-1.5-0.7-2.7v-1.4c0-1.3,0.2-2.2,0.6-2.8c0.4-0.6,1.1-0.9,2-0.9s1.6,0.3,2,0.9s0.7,1.5,0.7,2.7V395.6z
		 M453.6,394.1c0-0.9-0.1-1.6-0.4-2c-0.2-0.4-0.7-0.6-1.2-0.6s-1,0.2-1.2,0.6c-0.3,0.4-0.4,1.1-0.4,1.9v1.7c0,0.9,0.1,1.6,0.4,2
		s0.7,0.7,1.2,0.7s0.9-0.2,1.2-0.6c0.3-0.4,0.4-1.1,0.4-2V394.1z M459.6,399.2h-1.1V392l-2.2,0.8v-1l3.1-1.2h0.2V399.2z M467,390.7
		v0.9h-0.2c-0.9,0-1.5,0.3-2,0.8s-0.8,1.2-0.9,2c0.4-0.5,1.1-0.8,1.8-0.8c0.8,0,1.3,0.3,1.8,0.8c0.4,0.5,0.7,1.2,0.7,2
		c0,0.9-0.2,1.6-0.7,2.1s-1.1,0.8-1.9,0.8s-1.5-0.3-2-0.9s-0.8-1.4-0.8-2.4v-0.4c0-1.6,0.3-2.8,1-3.6c0.7-0.8,1.7-1.2,3-1.3H467z
		 M465.6,394.5c-0.4,0-0.7,0.1-1,0.3c-0.3,0.2-0.5,0.5-0.6,0.8v0.4c0,0.7,0.1,1.3,0.5,1.7c0.3,0.4,0.7,0.6,1.2,0.6s0.9-0.2,1.2-0.5
		c0.3-0.4,0.4-0.8,0.4-1.4s-0.1-1.1-0.4-1.4C466.5,394.7,466.1,394.5,465.6,394.5z"/>
	<path class="st1" d="M508.5,399.2h-5.6v-0.8l3-3.3c0.4-0.5,0.7-0.9,0.9-1.2c0.2-0.3,0.2-0.6,0.2-1s-0.1-0.8-0.4-1.1
		c-0.3-0.3-0.6-0.4-1.1-0.4s-1,0.1-1.3,0.5c-0.3,0.3-0.5,0.7-0.5,1.3h-1.1c0-0.8,0.2-1.4,0.8-1.9c0.5-0.5,1.2-0.7,2-0.7
		s1.4,0.2,1.9,0.6s0.7,1,0.7,1.7c0,0.8-0.5,1.8-1.6,3l-2.3,2.5h4.3v0.8H508.5z M515,395.6c0,1.3-0.2,2.2-0.7,2.8
		c-0.4,0.6-1.1,0.9-2,0.9c-0.9,0-1.6-0.3-2-0.9s-0.7-1.5-0.7-2.7v-1.4c0-1.3,0.2-2.2,0.7-2.8c0.4-0.6,1.1-0.9,2-0.9
		c0.9,0,1.6,0.3,2,0.9s0.7,1.5,0.7,2.7V395.6z M513.9,394.1c0-0.9-0.1-1.6-0.4-2c-0.3-0.4-0.7-0.6-1.2-0.6c-0.6,0-1,0.2-1.2,0.6
		s-0.4,1.1-0.4,1.9v1.7c0,0.9,0.1,1.6,0.4,2s0.7,0.7,1.2,0.7s0.9-0.2,1.2-0.6s0.4-1.1,0.4-2V394.1z M519.9,399.2h-1.1V392l-2.2,0.8
		v-1l3.1-1.2h0.2V399.2z M528.6,391.3l-3.5,7.9H524l3.5-7.6h-4.6v-0.9h5.8v0.6H528.6z"/>
	<path class="st1" d="M568.9,399.2h-5.6v-0.8l3-3.3c0.4-0.5,0.7-0.9,0.9-1.2c0.2-0.3,0.2-0.6,0.2-1s-0.1-0.8-0.4-1.1
		c-0.3-0.3-0.6-0.4-1.1-0.4s-1,0.1-1.3,0.5s-0.5,0.7-0.5,1.3H563c0-0.8,0.2-1.4,0.8-1.9c0.5-0.5,1.2-0.7,2-0.7s1.4,0.2,1.9,0.6
		s0.7,1,0.7,1.7c0,0.8-0.5,1.8-1.6,3l-2.3,2.5h4.3L568.9,399.2L568.9,399.2z M575.4,395.6c0,1.3-0.2,2.2-0.6,2.8
		c-0.4,0.6-1.1,0.9-2,0.9s-1.6-0.3-2-0.9s-0.7-1.5-0.7-2.7v-1.4c0-1.3,0.2-2.2,0.7-2.8c0.4-0.6,1.1-0.9,2-0.9s1.6,0.3,2,0.9
		s0.7,1.5,0.7,2.7v1.4H575.4z M574.3,394.1c0-0.9-0.1-1.6-0.4-2c-0.3-0.4-0.7-0.6-1.2-0.6s-1,0.2-1.2,0.6s-0.4,1.1-0.4,1.9v1.7
		c0,0.9,0.1,1.6,0.4,2c0.3,0.4,0.7,0.7,1.2,0.7s0.9-0.2,1.2-0.6s0.4-1.1,0.4-2V394.1z M580.4,399.2h-1.1V392l-2.2,0.8v-1l3.1-1.2
		h0.2V399.2z M588.7,392.9c0,0.4-0.1,0.8-0.3,1.1c-0.2,0.3-0.5,0.6-0.9,0.8c0.4,0.2,0.8,0.5,1.1,0.8c0.3,0.4,0.4,0.8,0.4,1.2
		c0,0.7-0.2,1.3-0.7,1.8c-0.5,0.4-1.2,0.7-2,0.7s-1.5-0.2-2-0.7c-0.5-0.4-0.7-1-0.7-1.8c0-0.5,0.1-0.9,0.4-1.2
		c0.3-0.4,0.6-0.7,1-0.9c-0.4-0.2-0.7-0.4-0.9-0.8c-0.2-0.3-0.3-0.7-0.3-1.1c0-0.7,0.2-1.3,0.7-1.7c0.5-0.4,1.1-0.6,1.8-0.6
		s1.4,0.2,1.8,0.6C588.5,391.6,588.7,392.2,588.7,392.9z M587.8,396.9c0-0.5-0.1-0.9-0.5-1.2c-0.3-0.3-0.7-0.5-1.2-0.5
		s-0.9,0.1-1.2,0.5c-0.3,0.3-0.4,0.7-0.4,1.2s0.1,0.9,0.4,1.1c0.3,0.3,0.7,0.4,1.2,0.4s0.9-0.1,1.2-0.4
		C587.7,397.7,587.8,397.4,587.8,396.9z M586.2,391.5c-0.4,0-0.8,0.1-1,0.4c-0.3,0.3-0.4,0.6-0.4,1.1c0,0.4,0.1,0.8,0.4,1.1
		c0.3,0.3,0.6,0.4,1,0.4s0.8-0.1,1-0.4s0.4-0.6,0.4-1.1c0-0.4-0.1-0.8-0.4-1.1C587,391.6,586.6,391.5,586.2,391.5z"/>
	<path class="st1" d="M629.3,399.2h-5.6v-0.8l3-3.3c0.4-0.5,0.7-0.9,0.9-1.2c0.2-0.3,0.2-0.6,0.2-1s-0.1-0.8-0.4-1.1
		c-0.3-0.3-0.6-0.4-1.1-0.4s-1,0.1-1.3,0.5c-0.3,0.3-0.5,0.7-0.5,1.3h-1.1c0-0.8,0.2-1.4,0.8-1.9c0.5-0.5,1.2-0.7,2-0.7
		s1.4,0.2,1.9,0.6s0.7,1,0.7,1.7c0,0.8-0.5,1.8-1.6,3l-2.3,2.5h4.3L629.3,399.2L629.3,399.2z M635.8,395.6c0,1.3-0.2,2.2-0.6,2.8
		c-0.4,0.6-1.1,0.9-2,0.9s-1.6-0.3-2-0.9s-0.7-1.5-0.7-2.7v-1.4c0-1.3,0.2-2.2,0.7-2.8c0.4-0.6,1.1-0.9,2-0.9s1.6,0.3,2,0.9
		s0.7,1.5,0.7,2.7v1.4H635.8z M634.8,394.1c0-0.9-0.1-1.6-0.4-2c-0.3-0.4-0.7-0.6-1.2-0.6c-0.6,0-1,0.2-1.2,0.6s-0.4,1.1-0.4,1.9
		v1.7c0,0.9,0.1,1.6,0.4,2c0.3,0.4,0.7,0.7,1.2,0.7s0.9-0.2,1.2-0.6s0.4-1.1,0.4-2V394.1z M640.8,399.2h-1.1V392l-2.2,0.8v-1
		l3.1-1.2h0.2V399.2z M648.1,395.5c-0.2,0.3-0.5,0.5-0.8,0.6c-0.3,0.2-0.7,0.2-1,0.2c-0.5,0-0.9-0.1-1.3-0.4s-0.7-0.6-0.8-1
		c-0.2-0.4-0.3-0.9-0.3-1.5s0.1-1.1,0.3-1.5s0.5-0.8,0.9-1.1c0.4-0.2,0.9-0.4,1.4-0.4c0.8,0,1.5,0.3,2,0.9s0.7,1.5,0.7,2.6v0.3
		c0,1.7-0.3,2.9-1,3.6c-0.7,0.8-1.7,1.2-3,1.2H645v-0.9h0.2c0.9,0,1.6-0.2,2.1-0.7C647.8,397.1,648.1,396.4,648.1,395.5z
		 M646.5,395.5c0.4,0,0.7-0.1,1-0.3c0.3-0.2,0.5-0.5,0.7-0.8V394c0-0.7-0.2-1.3-0.5-1.7c-0.3-0.5-0.7-0.7-1.2-0.7s-0.9,0.2-1.2,0.5
		c-0.3,0.4-0.4,0.8-0.4,1.4s0.1,1.1,0.4,1.4C645.6,395.3,646,395.5,646.5,395.5z"/>
	<path class="st1" d="M689.7,399.2h-5.6v-0.8l3-3.3c0.4-0.5,0.7-0.9,0.9-1.2c0.2-0.3,0.2-0.6,0.2-1s-0.1-0.8-0.4-1.1
		c-0.3-0.3-0.6-0.4-1.1-0.4s-1,0.1-1.3,0.5s-0.5,0.7-0.5,1.3h-1.1c0-0.8,0.2-1.4,0.8-1.9c0.5-0.5,1.2-0.7,2-0.7s1.4,0.2,1.9,0.6
		s0.7,1,0.7,1.7c0,0.8-0.5,1.8-1.6,3l-2.3,2.5h4.3L689.7,399.2L689.7,399.2z M696.2,395.6c0,1.3-0.2,2.2-0.7,2.8
		c-0.4,0.6-1.1,0.9-2,0.9s-1.6-0.3-2-0.9s-0.7-1.5-0.7-2.7v-1.4c0-1.3,0.2-2.2,0.6-2.8c0.4-0.6,1.1-0.9,2-0.9s1.6,0.3,2,0.9
		s0.7,1.5,0.7,2.7v1.4H696.2z M695.1,394.1c0-0.9-0.1-1.6-0.4-2c-0.3-0.4-0.7-0.6-1.2-0.6c-0.6,0-1,0.2-1.2,0.6s-0.4,1.1-0.4,1.9
		v1.7c0,0.9,0.1,1.6,0.4,2s0.7,0.7,1.2,0.7s0.9-0.2,1.2-0.6s0.4-1.1,0.4-2V394.1z M703.1,399.2h-5.6v-0.8l3-3.3
		c0.4-0.5,0.7-0.9,0.9-1.2c0.2-0.3,0.2-0.6,0.2-1s-0.1-0.8-0.4-1.1c-0.3-0.3-0.6-0.4-1.1-0.4s-1,0.1-1.3,0.5
		c-0.3,0.3-0.5,0.7-0.5,1.3h-1.1c0-0.8,0.2-1.4,0.8-1.9c0.5-0.5,1.2-0.7,2-0.7s1.4,0.2,1.9,0.6s0.7,1,0.7,1.7c0,0.8-0.5,1.8-1.6,3
		l-2.3,2.5h4.3L703.1,399.2L703.1,399.2z M709.6,395.6c0,1.3-0.2,2.2-0.7,2.8c-0.4,0.6-1.1,0.9-2,0.9s-1.6-0.3-2-0.9
		s-0.7-1.5-0.7-2.7v-1.4c0-1.3,0.2-2.2,0.7-2.8c0.4-0.6,1.1-0.9,2-0.9s1.6,0.3,2,0.9s0.7,1.5,0.7,2.7V395.6z M708.5,394.1
		c0-0.9-0.1-1.6-0.4-2c-0.3-0.4-0.7-0.6-1.2-0.6s-1,0.2-1.2,0.6s-0.4,1.1-0.4,1.9v1.7c0,0.9,0.1,1.6,0.4,2s0.7,0.7,1.2,0.7
		s0.9-0.2,1.2-0.6s0.4-1.1,0.4-2V394.1z"/>
</g>
<g>
	<path class="st1" d="M35.7,114c0.5,0,0.9-0.1,1.3-0.4s0.6-0.7,0.6-1.1h1.3c0,0.5-0.2,0.9-0.5,1.3s-0.7,0.7-1.2,1
		c-0.5,0.2-1,0.4-1.5,0.4c-1.1,0-1.9-0.4-2.6-1.1c-0.6-0.7-1-1.7-1-3v-0.2c0-0.8,0.1-1.5,0.4-2.1s0.7-1.1,1.2-1.4s1.2-0.5,1.9-0.5
		c0.9,0,1.6,0.3,2.2,0.8s0.9,1.2,0.9,2.1h-1.3c0-0.5-0.2-0.9-0.6-1.3c-0.3-0.3-0.8-0.5-1.3-0.5c-0.7,0-1.2,0.2-1.6,0.7
		c-0.4,0.5-0.6,1.2-0.6,2.1v0.3c0,0.9,0.2,1.6,0.6,2.1S35,114,35.7,114z"/>
	<path class="st1" d="M46.3,108.1h-2.7v6.8h-1.4v-6.8h-2.6V107h6.6v1.1H46.3z"/>
	<path class="st1" d="M47.6,114.3c0-0.2,0.1-0.4,0.2-0.6c0.1-0.2,0.3-0.2,0.6-0.2s0.5,0.1,0.6,0.2c0.1,0.2,0.2,0.4,0.2,0.6
		s-0.1,0.4-0.2,0.6c-0.1,0.2-0.4,0.2-0.6,0.2s-0.5-0.1-0.6-0.2C47.7,114.7,47.6,114.5,47.6,114.3z"/>
	<path class="st1" d="M57.1,109h1c0.6,0,1.1-0.2,1.5-0.5s0.5-0.8,0.5-1.3c0-1.2-0.6-1.9-1.9-1.9c-0.6,0-1.1,0.2-1.4,0.5
		s-0.5,0.8-0.5,1.3H55c0-0.8,0.3-1.5,0.9-2.1s1.4-0.8,2.4-0.8s1.8,0.3,2.4,0.8s0.9,1.3,0.9,2.2c0,0.5-0.1,0.9-0.5,1.3
		c-0.3,0.4-0.7,0.8-1.2,1c0.6,0.2,1,0.5,1.4,0.9s0.5,1,0.5,1.6c0,1-0.3,1.7-0.9,2.3s-1.4,0.8-2.4,0.8s-1.8-0.3-2.4-0.8
		c-0.6-0.5-0.9-1.3-0.9-2.1h1.4c0,0.6,0.2,1,0.5,1.3s0.9,0.5,1.5,0.5c0.7,0,1.2-0.2,1.5-0.5s0.5-0.8,0.5-1.5c0-0.6-0.2-1.1-0.6-1.4
		s-0.9-0.5-1.6-0.5h-1V109H57.1z"/>
	<path class="st1" d="M68,115h-1.4v-9l-2.7,1v-1.2l3.9-1.5H68V115z"/>
	<path class="st1" d="M78.4,107.1c0,0.5-0.1,1-0.4,1.4s-0.7,0.7-1.1,1c0.6,0.2,1,0.6,1.3,1s0.5,1,0.5,1.6c0,0.9-0.3,1.7-0.9,2.2
		s-1.4,0.8-2.5,0.8c-1,0-1.8-0.3-2.5-0.8c-0.6-0.5-0.9-1.3-0.9-2.2c0-0.6,0.2-1.1,0.5-1.6s0.8-0.8,1.3-1.1c-0.5-0.2-0.8-0.6-1.1-1
		s-0.4-0.9-0.4-1.4c0-0.9,0.3-1.6,0.9-2.1s1.3-0.8,2.3-0.8c0.9,0,1.7,0.3,2.3,0.8C78.2,105.5,78.4,106.2,78.4,107.1z M77.3,112.1
		c0-0.6-0.2-1.1-0.6-1.5s-0.9-0.6-1.5-0.6s-1.1,0.2-1.5,0.6s-0.6,0.9-0.6,1.5s0.2,1.1,0.5,1.4c0.4,0.3,0.9,0.5,1.5,0.5
		s1.1-0.2,1.5-0.5C77.2,113.1,77.3,112.7,77.3,112.1z M75.3,105.3c-0.5,0-1,0.2-1.3,0.5s-0.5,0.8-0.5,1.3s0.2,1,0.5,1.3
		s0.8,0.5,1.3,0.5s1-0.2,1.3-0.5s0.5-0.8,0.5-1.3s-0.2-1-0.5-1.3S75.8,105.3,75.3,105.3z"/>
</g>
<g>
	<path class="st5" d="M35.7,310.6c0.5,0,0.9-0.1,1.3-0.4s0.6-0.7,0.6-1.1h1.3c0,0.5-0.2,0.9-0.5,1.3s-0.7,0.7-1.2,1
		c-0.5,0.2-1,0.4-1.5,0.4c-1.1,0-1.9-0.4-2.6-1.1c-0.6-0.7-1-1.7-1-3v-0.2c0-0.8,0.1-1.5,0.4-2.1s0.7-1.1,1.2-1.4s1.2-0.5,1.9-0.5
		c0.9,0,1.6,0.3,2.2,0.8s0.9,1.2,0.9,2.1h-1.3c0-0.5-0.2-0.9-0.6-1.3c-0.3-0.3-0.8-0.5-1.3-0.5c-0.7,0-1.2,0.2-1.6,0.7
		c-0.4,0.5-0.6,1.2-0.6,2.1v0.3c0,0.9,0.2,1.6,0.6,2.1S35,310.6,35.7,310.6z"/>
	<path class="st5" d="M46.3,304.7h-2.7v6.8h-1.4v-6.8h-2.6v-1.1h6.6v1.1H46.3z"/>
	<path class="st5" d="M47.6,310.9c0-0.2,0.1-0.4,0.2-0.6c0.1-0.2,0.3-0.2,0.6-0.2s0.5,0.1,0.6,0.2c0.1,0.2,0.2,0.4,0.2,0.6
		s-0.1,0.4-0.2,0.6c-0.1,0.2-0.4,0.2-0.6,0.2s-0.5-0.1-0.6-0.2C47.7,311.3,47.6,311.1,47.6,310.9z"/>
	<path class="st5" d="M62.1,311.6h-7v-1l3.7-4.1c0.5-0.6,0.9-1.1,1.1-1.5c0.2-0.4,0.3-0.8,0.3-1.2c0-0.6-0.2-1-0.5-1.4
		s-0.8-0.5-1.3-0.5c-0.7,0-1.2,0.2-1.6,0.6c-0.4,0.4-0.6,0.9-0.6,1.6h-1.4c0-1,0.3-1.8,0.9-2.4c0.6-0.6,1.5-0.9,2.5-0.9
		s1.8,0.3,2.4,0.8c0.6,0.5,0.9,1.2,0.9,2.1c0,1-0.7,2.3-2,3.8l-2.9,3.1H62L62.1,311.6L62.1,311.6z"/>
	<path class="st5" d="M70,303.7c0,0.5-0.1,1-0.4,1.4s-0.7,0.7-1.1,1c0.6,0.2,1,0.6,1.3,1s0.5,1,0.5,1.6c0,0.9-0.3,1.7-0.9,2.2
		s-1.4,0.8-2.5,0.8c-1,0-1.8-0.3-2.5-0.8c-0.6-0.5-0.9-1.3-0.9-2.2c0-0.6,0.2-1.1,0.5-1.6c0.3-0.5,0.8-0.8,1.3-1.1
		c-0.5-0.2-0.8-0.6-1.1-1s-0.4-0.9-0.4-1.4c0-0.9,0.3-1.6,0.9-2.1s1.3-0.8,2.3-0.8c0.9,0,1.7,0.3,2.3,0.8
		C69.7,302.1,70,302.8,70,303.7z M68.9,308.7c0-0.6-0.2-1.1-0.6-1.5s-0.9-0.6-1.5-0.6s-1.1,0.2-1.5,0.6s-0.6,0.9-0.6,1.5
		s0.2,1.1,0.5,1.4c0.4,0.3,0.9,0.5,1.5,0.5s1.1-0.2,1.5-0.5C68.7,309.7,68.9,309.3,68.9,308.7z M66.9,301.9c-0.5,0-1,0.2-1.3,0.5
		s-0.5,0.8-0.5,1.3s0.2,1,0.5,1.3s0.8,0.5,1.3,0.5s1-0.2,1.3-0.5s0.5-0.8,0.5-1.3s-0.2-1-0.5-1.3S67.4,301.9,66.9,301.9z"/>
	<path class="st5" d="M77.3,300.9v1.2H77c-1.1,0-1.9,0.3-2.5,0.9s-1,1.5-1.1,2.6c0.6-0.6,1.3-1,2.3-1c0.9,0,1.7,0.3,2.2,1
		c0.6,0.7,0.8,1.5,0.8,2.5c0,1.1-0.3,2-0.9,2.6s-1.4,1-2.4,1s-1.8-0.4-2.5-1.2c-0.6-0.8-1-1.8-1-3V307c0-2,0.4-3.5,1.3-4.5
		c0.8-1,2.1-1.6,3.7-1.6H77.3z M75.5,305.7c-0.5,0-0.9,0.1-1.3,0.4s-0.7,0.6-0.8,1v0.5c0,0.9,0.2,1.6,0.6,2.1s0.9,0.8,1.5,0.8
		s1.1-0.2,1.4-0.7s0.5-1,0.5-1.8c0-0.7-0.2-1.3-0.5-1.8C76.6,305.9,76.1,305.7,75.5,305.7z"/>
	<path class="st5" d="M90.2,311.6h-1.4v-2.9c-0.6,0.2-1.2,0.2-1.8,0.2c-1,0-1.7-0.3-2.3-0.8c-0.5-0.5-0.8-1.2-0.8-2.2v-2.4h1.4v2.4
		c0,1.2,0.6,1.8,1.7,1.8c0.6,0,1.2-0.1,1.8-0.2v-3.9h1.4C90.2,303.6,90.2,311.6,90.2,311.6z"/>
	<path class="st5" d="M92.4,310.9c0-0.2,0.1-0.4,0.2-0.6s0.3-0.2,0.6-0.2s0.5,0.1,0.6,0.2c0.1,0.2,0.2,0.4,0.2,0.6s-0.1,0.4-0.2,0.6
		s-0.4,0.2-0.6,0.2s-0.5-0.1-0.6-0.2C92.5,311.3,92.4,311.1,92.4,310.9z"/>
	<path class="st5" d="M101.9,305.6h1c0.6,0,1.1-0.2,1.5-0.5s0.5-0.8,0.5-1.3c0-1.2-0.6-1.9-1.9-1.9c-0.6,0-1.1,0.2-1.4,0.5
		s-0.5,0.8-0.5,1.3h-1.4c0-0.8,0.3-1.5,0.9-2.1s1.4-0.8,2.4-0.8s1.8,0.3,2.4,0.8s0.9,1.3,0.9,2.2c0,0.5-0.1,0.9-0.5,1.3
		c-0.3,0.4-0.7,0.8-1.2,1c0.6,0.2,1,0.5,1.4,0.9s0.5,1,0.5,1.6c0,1-0.3,1.7-0.9,2.3s-1.4,0.8-2.4,0.8s-1.8-0.3-2.4-0.8
		s-0.9-1.3-0.9-2.1h1.4c0,0.6,0.2,1,0.5,1.3s0.9,0.5,1.5,0.5c0.7,0,1.2-0.2,1.5-0.5s0.5-0.8,0.5-1.5c0-0.6-0.2-1.1-0.6-1.4
		s-0.9-0.5-1.6-0.5h-1v-1.1H101.9z"/>
</g>
<path class="st1" d="M6.2,4.9l3.1-5.4h3L7.9,6.9l4.6,7.5h-3L6.2,8.9L3,14.4H0l4.6-7.5L0.1-0.5h3L6.2,4.9z M23.9,9
	c0,1.7-0.4,3.1-1.2,4.1c-0.8,1-1.8,1.5-3.1,1.5c-1.2,0-2.2-0.4-2.9-1.2v5.3h-2.5V3.3h2.3l0.1,1.1c0.7-0.9,1.7-1.3,3-1.3
	c1.4,0,2.4,0.5,3.2,1.5c0.8,1,1.1,2.4,1.1,4.2V9z M21.4,8.8c0-1.1-0.2-2-0.7-2.6c-0.4-0.6-1.1-1-1.9-1c-1,0-1.8,0.4-2.2,1.3v4.9
	c0.4,0.9,1.2,1.3,2.2,1.3c0.8,0,1.4-0.3,1.9-1C21.2,11.1,21.4,10.1,21.4,8.8z M29.9,10.9l2.2-7.5h2.7l-4.4,12.8
	c-0.7,1.9-1.8,2.8-3.4,2.8c-0.4,0-0.8-0.1-1.2-0.2v-1.9l0.5,0c0.6,0,1.1-0.1,1.4-0.3c0.3-0.2,0.6-0.6,0.8-1.2l0.4-0.9L24.8,3.3h2.7
	L29.9,10.9z M45.6,14.4h-2.5V5.3h-4.3v9.1h-2.5V3.3h9.3V14.4z M52.2,10h-1.3v4.4h-2.5V3.3h2.5v4.4H52l3.1-4.4h3.1l-4,5.3l4.4,5.8
	h-3.2L52.2,10z M59.4,8.8c0-1.1,0.2-2.1,0.6-2.9c0.4-0.9,1-1.5,1.8-2s1.7-0.7,2.7-0.7c1.5,0,2.7,0.5,3.6,1.4c0.9,1,1.4,2.2,1.5,3.8
	l0,0.6c0,1.1-0.2,2.1-0.6,2.9c-0.4,0.9-1,1.5-1.8,2c-0.8,0.5-1.7,0.7-2.7,0.7c-1.6,0-2.8-0.5-3.8-1.6c-0.9-1-1.4-2.4-1.4-4.2V8.8z
	 M61.9,9c0,1.1,0.2,2,0.7,2.7c0.5,0.6,1.1,1,2,1c0.8,0,1.5-0.3,2-1s0.7-1.6,0.7-2.9c0-1.1-0.2-2-0.7-2.7c-0.5-0.6-1.1-1-2-1
	c-0.8,0-1.5,0.3-1.9,1C62.1,6.7,61.9,7.7,61.9,9z M76.4,12.6c0.6,0,1.1-0.2,1.5-0.5s0.6-0.8,0.7-1.3h2.3c0,0.7-0.2,1.3-0.6,1.9
	c-0.4,0.6-0.9,1.1-1.6,1.4s-1.4,0.5-2.2,0.5c-1.6,0-2.8-0.5-3.7-1.5c-0.9-1-1.4-2.4-1.4-4.2V8.7c0-1.7,0.5-3,1.4-4.1
	c0.9-1,2.1-1.5,3.7-1.5c1.3,0,2.4,0.4,3.2,1.1c0.8,0.8,1.3,1.8,1.3,3h-2.3c0-0.6-0.2-1.2-0.6-1.6c-0.4-0.4-0.9-0.6-1.6-0.6
	c-0.8,0-1.4,0.3-1.9,0.9c-0.4,0.6-0.7,1.5-0.7,2.7v0.4c0,1.2,0.2,2.1,0.7,2.7C74.9,12.4,75.6,12.6,76.4,12.6z M91.6,5.3H88v9.1h-2.5
	V5.3h-3.6v-2h9.6V5.3z M95.9,6.9h2.4c0.9,0,1.7,0.2,2.4,0.5c0.7,0.3,1.2,0.8,1.5,1.3c0.4,0.6,0.5,1.2,0.5,2c0,1.1-0.4,2.1-1.2,2.7
	c-0.8,0.7-1.9,1-3.2,1h-5V3.3h2.5V6.9z M95.9,8.9v3.6h2.4c0.6,0,1.1-0.2,1.4-0.5c0.3-0.3,0.5-0.7,0.5-1.3s-0.2-1-0.5-1.3
	C99.4,9,99,8.9,98.4,8.9H95.9z M118.4,6.4c0,0.5-0.2,1-0.4,1.4c-0.3,0.4-0.7,0.7-1.3,1c1.3,0.4,1.9,1.3,1.9,2.6c0,1-0.4,1.8-1.2,2.4
	c-0.8,0.6-1.9,0.9-3.3,0.9c-0.8,0-1.6-0.1-2.3-0.4c-0.7-0.3-1.2-0.7-1.6-1.2s-0.6-1.1-0.6-1.9h2.5c0,0.4,0.2,0.8,0.6,1.1
	c0.4,0.3,0.9,0.5,1.5,0.5c0.6,0,1.1-0.1,1.4-0.4c0.4-0.3,0.5-0.7,0.5-1.1c0-0.5-0.2-0.9-0.5-1.2c-0.3-0.2-0.8-0.4-1.4-0.4h-1.8V7.9
	h1.8c1.1,0,1.7-0.5,1.7-1.4c0-0.5-0.2-0.8-0.5-1.1c-0.3-0.3-0.8-0.4-1.3-0.4c-0.6,0-1,0.1-1.4,0.4c-0.4,0.3-0.6,0.6-0.6,1h-2.5
	c0-1,0.4-1.8,1.2-2.4c0.8-0.6,1.9-0.9,3.1-0.9c1.4,0,2.4,0.3,3.2,0.8C118,4.5,118.4,5.3,118.4,6.4z M127.4,14.4
	c-0.1-0.2-0.2-0.6-0.3-1c-0.8,0.8-1.8,1.2-2.9,1.2c-1.1,0-2-0.3-2.7-1c-0.7-0.6-1.1-1.4-1.1-2.4c0-1.2,0.4-2.1,1.3-2.7
	c0.9-0.6,2.1-1,3.8-1h1.5V6.9c0-0.6-0.2-1-0.5-1.4c-0.3-0.3-0.8-0.5-1.5-0.5c-0.6,0-1,0.1-1.4,0.4c-0.4,0.3-0.5,0.7-0.5,1.1h-2.5
	c0-0.6,0.2-1.2,0.6-1.7s0.9-0.9,1.6-1.2c0.7-0.3,1.5-0.4,2.3-0.4c1.3,0,2.3,0.3,3.1,1c0.8,0.6,1.2,1.6,1.2,2.8v5
	c0,1,0.1,1.8,0.4,2.4v0.2H127.4z M124.6,12.6c0.5,0,0.9-0.1,1.4-0.4c0.4-0.2,0.8-0.6,1-1V9.2h-1.3c-0.9,0-1.6,0.2-2.1,0.5
	c-0.5,0.3-0.7,0.8-0.7,1.4c0,0.5,0.2,0.9,0.5,1.1C123.7,12.5,124.1,12.6,124.6,12.6z M136,10h-1.3v4.4h-2.5V3.3h2.5v4.4h1.1l3.1-4.4
	h3.1l-4,5.3l4.3,5.8h-3.2L136,10z M143.3,8.8c0-1.1,0.2-2.1,0.6-2.9c0.4-0.9,1-1.5,1.8-2s1.7-0.7,2.7-0.7c1.5,0,2.7,0.5,3.7,1.4
	c0.9,1,1.4,2.2,1.5,3.8l0,0.6c0,1.1-0.2,2.1-0.6,2.9c-0.4,0.9-1,1.5-1.8,2c-0.8,0.5-1.7,0.7-2.7,0.7c-1.6,0-2.8-0.5-3.8-1.6
	c-0.9-1-1.4-2.4-1.4-4.2V8.8z M145.8,9c0,1.1,0.2,2,0.7,2.7c0.5,0.6,1.1,1,2,1c0.8,0,1.5-0.3,2-1s0.7-1.6,0.7-2.9
	c0-1.1-0.2-2-0.7-2.7c-0.5-0.6-1.1-1-2-1c-0.8,0-1.4,0.3-1.9,1C146,6.7,145.8,7.7,145.8,9z M165.1,14.4h-2.5V9.9h-4.3v4.5h-2.5V3.3
	h2.5V8h4.3V3.3h2.5V14.4z M174.4,14.4c-0.1-0.2-0.2-0.6-0.3-1c-0.8,0.8-1.8,1.2-2.9,1.2c-1.1,0-2-0.3-2.7-1
	c-0.7-0.6-1.1-1.4-1.1-2.4c0-1.2,0.4-2.1,1.3-2.7c0.9-0.6,2.1-1,3.8-1h1.5V6.9c0-0.6-0.2-1-0.5-1.4C173.2,5.2,172.7,5,172,5
	c-0.6,0-1,0.1-1.4,0.4c-0.4,0.3-0.5,0.7-0.5,1.1h-2.5c0-0.6,0.2-1.2,0.6-1.7c0.4-0.5,0.9-0.9,1.6-1.2s1.5-0.4,2.3-0.4
	c1.3,0,2.3,0.3,3.1,1c0.8,0.6,1.2,1.6,1.2,2.8v5c0,1,0.1,1.8,0.4,2.4v0.2H174.4z M171.6,12.6c0.5,0,1-0.1,1.4-0.4
	c0.4-0.2,0.8-0.6,1-1V9.2h-1.3c-0.9,0-1.6,0.2-2.1,0.5c-0.5,0.3-0.7,0.8-0.7,1.4c0,0.5,0.2,0.9,0.5,1.1
	C170.7,12.5,171.1,12.6,171.6,12.6z"/>
</svg>
