<?xml version="1.0" encoding="utf-8"?>
<!-- Generator: Adobe Illustrator 23.0.6, SVG Export Plug-In . SVG Version: 6.00 Build 0)  -->
<svg version="1.1" id="Слой_1" xmlns="http://www.w3.org/2000/svg" xmlns:xlink="http://www.w3.org/1999/xlink" x="0px" y="0px"
	 viewBox="0 0 710 435" style="enable-background:new 0 0 710 435;" xml:space="preserve">
<style type="text/css">
	.st0{fill:#FFFFFF;}
	.st1{fill:#494A4D;}
	.st2{fill:#A6A6A6;}
	.st3{fill:none;stroke:#BF381D;stroke-width:2;stroke-linecap:round;}
	.st4{fill:none;stroke:#00ABE5;stroke-width:2;stroke-linecap:round;}
</style>
<g>
	<path class="st0" d="M0-0.5h710v435H0V-0.5z"/>
	<path class="st1" d="M14.9,19.1h-2.5v-3.7H2.6v3.7H0.1L0,13.4h1.2c0.6-0.6,1.1-1.4,1.4-2.5C3,9.8,3.2,8.5,3.3,7.1l0.4-6.6h9.4v12.8
		H15L14.9,19.1z M4.1,13.4h6.4V2.6H6.2L5.9,6.8C5.7,9.6,5.1,11.8,4.1,13.4z M20.6,11.9l2.3-7.5h2.7l-4.4,12.8
		c-0.7,1.9-1.8,2.8-3.4,2.8c-0.4,0-0.8-0.1-1.2-0.2v-1.9l0.5,0c0.6,0,1.1-0.1,1.4-0.3s0.6-0.6,0.8-1.1l0.4-1l-3.9-11h2.7L20.6,11.9z
		 M32.2,5c1.4,0,2.5,0.5,3.3,1.4c0.8,0.9,1.3,2.2,1.3,3.8v0.1c0,1.6-0.5,2.9-1.4,3.9s-2.1,1.5-3.7,1.5c-1.5,0-2.8-0.5-3.7-1.5
		c-0.9-1-1.4-2.4-1.4-4.1V9.3c0-2.4,0.4-4.3,1.3-5.7C28.7,2.2,30,1.3,31.7,1c0.9-0.2,1.6-0.4,1.8-0.6c0.3-0.2,0.4-0.5,0.4-0.9h2
		c0,0.7-0.1,1.2-0.3,1.7c-0.2,0.4-0.6,0.8-1,1.1c-0.5,0.3-1.3,0.5-2.4,0.8c-1,0.2-1.8,0.6-2.4,1.2c-0.5,0.6-0.9,1.3-1.1,2.3
		C29.7,5.5,30.8,5,32.2,5z M31.7,7c-0.8,0-1.4,0.3-1.9,0.8c-0.5,0.5-0.7,1.4-0.7,2.5c0,1.1,0.2,1.9,0.7,2.5c0.5,0.6,1.1,0.9,1.9,0.9
		c0.8,0,1.5-0.3,1.9-0.9c0.5-0.6,0.7-1.5,0.7-2.7c0-1-0.2-1.7-0.7-2.3C33.2,7.2,32.5,7,31.7,7z M45.6,4.4h2.5v11.1h-2.5V8l-4.4,7.4
		h-2.5V4.4h2.5v7.4L45.6,4.4z M60.2,15.4h-2.5V11h-4.3v4.5h-2.5V4.4h2.5V9h4.3V4.4h2.5V15.4z M66.8,11.1h-1.3v4.4H63V4.4h2.5v4.4
		h1.1l3.1-4.4h3.1l-4,5.3l4.4,5.8h-3.2L66.8,11.1z M81.1,15.4c-0.1-0.2-0.2-0.6-0.3-1c-0.8,0.8-1.8,1.2-2.9,1.2
		c-1.1,0-2-0.3-2.7-0.9c-0.7-0.6-1.1-1.4-1.1-2.4c0-1.2,0.4-2.1,1.3-2.7c0.9-0.6,2.1-0.9,3.8-0.9h1.5V7.9c0-0.6-0.2-1-0.5-1.4
		C79.9,6.2,79.4,6,78.8,6c-0.6,0-1,0.1-1.4,0.4c-0.4,0.3-0.6,0.6-0.6,1.1h-2.5c0-0.6,0.2-1.2,0.6-1.7c0.4-0.5,0.9-0.9,1.6-1.2
		c0.7-0.3,1.5-0.5,2.3-0.5c1.3,0,2.3,0.3,3.1,1c0.8,0.7,1.2,1.6,1.2,2.8v5c0,1,0.1,1.8,0.4,2.4v0.2H81.1z M78.4,13.6
		c0.5,0,1-0.1,1.4-0.4c0.4-0.2,0.8-0.6,1-1v-2.1h-1.3c-0.9,0-1.6,0.2-2.1,0.5c-0.5,0.3-0.7,0.8-0.7,1.4c0,0.5,0.2,0.9,0.5,1.1
		C77.4,13.5,77.8,13.6,78.4,13.6z M100.5,15.4H98V6.4h-4.3v9.1h-2.5V4.4h9.3V15.4z M112.8,10c0,1.7-0.4,3.1-1.2,4.1
		c-0.8,1-1.8,1.5-3.1,1.5c-1.2,0-2.2-0.4-2.9-1.2v5.3h-2.5V4.4h2.3l0.1,1.1c0.7-0.9,1.7-1.3,3-1.3c1.3,0,2.4,0.5,3.2,1.5
		c0.8,1,1.2,2.4,1.2,4.2V10z M110.3,9.8c0-1.1-0.2-2-0.7-2.6c-0.4-0.7-1.1-1-1.9-1c-1,0-1.8,0.4-2.2,1.3v4.9
		c0.5,0.9,1.2,1.3,2.2,1.3c0.8,0,1.4-0.3,1.9-1S110.3,11.1,110.3,9.8z M121.6,15.4c-0.1-0.2-0.2-0.6-0.3-1c-0.8,0.8-1.8,1.2-2.9,1.2
		c-1.1,0-2-0.3-2.7-0.9c-0.7-0.6-1.1-1.4-1.1-2.4c0-1.2,0.4-2.1,1.3-2.7c0.9-0.6,2.1-0.9,3.8-0.9h1.5V7.9c0-0.6-0.2-1-0.5-1.4
		c-0.3-0.3-0.8-0.5-1.5-0.5c-0.6,0-1,0.1-1.4,0.4c-0.4,0.3-0.6,0.6-0.6,1.1h-2.5c0-0.6,0.2-1.2,0.6-1.7c0.4-0.5,0.9-0.9,1.6-1.2
		c0.7-0.3,1.5-0.5,2.3-0.5c1.3,0,2.3,0.3,3.1,1c0.8,0.7,1.2,1.6,1.2,2.8v5c0,1,0.1,1.8,0.4,2.4v0.2H121.6z M118.8,13.6
		c0.5,0,1-0.1,1.4-0.4c0.4-0.2,0.8-0.6,1-1v-2.1h-1.3c-0.9,0-1.6,0.2-2.1,0.5c-0.5,0.3-0.7,0.8-0.7,1.4c0,0.5,0.2,0.9,0.5,1.1
		C117.9,13.5,118.3,13.6,118.8,13.6z M126.5,15.4V4.4h4.5c1.5,0,2.7,0.3,3.5,0.8c0.8,0.5,1.2,1.3,1.2,2.3c0,0.5-0.2,1-0.5,1.4
		c-0.3,0.4-0.8,0.7-1.4,0.9c0.7,0.1,1.3,0.5,1.7,0.9c0.4,0.4,0.6,1,0.6,1.6c0,1-0.4,1.8-1.1,2.4c-0.8,0.5-1.9,0.8-3.3,0.8H126.5z
		 M129,10.7v2.8h2.7c1.3,0,1.9-0.5,1.9-1.4c0-0.9-0.6-1.4-1.9-1.4H129z M129,8.9h2.1c1.4,0,2.1-0.4,2.1-1.2c0-0.9-0.7-1.3-2-1.3H129
		V8.9z M137.8,9.8c0-1.1,0.2-2.1,0.7-2.9c0.4-0.9,1-1.5,1.8-2s1.7-0.7,2.7-0.7c1.5,0,2.7,0.5,3.6,1.4c0.9,1,1.4,2.2,1.5,3.8l0,0.6
		c0,1.1-0.2,2.1-0.6,2.9s-1,1.5-1.8,2s-1.7,0.7-2.7,0.7c-1.6,0-2.8-0.5-3.8-1.6c-0.9-1.1-1.4-2.4-1.4-4.2V9.8z M140.3,10
		c0,1.1,0.2,2,0.7,2.7c0.5,0.6,1.1,1,2,1c0.8,0,1.5-0.3,2-1c0.5-0.7,0.7-1.6,0.7-2.9c0-1.1-0.2-2-0.7-2.7c-0.5-0.7-1.1-1-2-1
		c-0.8,0-1.5,0.3-1.9,1C140.5,7.8,140.3,8.7,140.3,10z M154.8,13.7c0.6,0,1.1-0.2,1.6-0.5c0.4-0.4,0.6-0.8,0.7-1.3h2.4
		c0,0.7-0.2,1.3-0.7,1.9c-0.4,0.6-0.9,1.1-1.6,1.4c-0.7,0.3-1.4,0.5-2.2,0.5c-1.6,0-2.8-0.5-3.7-1.5c-0.9-1-1.4-2.4-1.4-4.2V9.7
		c0-1.7,0.4-3,1.4-4.1c0.9-1,2.1-1.5,3.7-1.5c1.3,0,2.4,0.4,3.2,1.2s1.3,1.8,1.3,3H157c0-0.6-0.2-1.2-0.6-1.6
		c-0.4-0.4-0.9-0.6-1.6-0.6c-0.8,0-1.4,0.3-1.9,0.9c-0.4,0.6-0.7,1.5-0.7,2.7v0.4c0,1.2,0.2,2.1,0.6,2.7
		C153.3,13.4,153.9,13.7,154.8,13.7z M165.1,11.9l2.2-7.5h2.7l-4.4,12.8c-0.7,1.9-1.8,2.8-3.4,2.8c-0.4,0-0.8-0.1-1.2-0.2v-1.9
		l0.5,0c0.6,0,1.1-0.1,1.4-0.3c0.3-0.2,0.6-0.6,0.8-1.1l0.4-1l-3.9-11h2.7L165.1,11.9z M171.5,13.5c0.7-0.8,1.2-1.5,1.4-2.2
		c0.2-0.7,0.4-1.6,0.4-2.7l0.1-4.2h7.7v9.1h1.5v5.3h-2.5v-3.3h-7.1v3.3h-2.5l0-5.3H171.5z M174.4,13.5h4.2v-7h-2.8l-0.1,2.1
		C175.7,10.6,175.2,12.3,174.4,13.5z M191.4,4.4h2.5v11.1h-2.5V8l-4.4,7.4h-2.5V4.4h2.5v7.4L191.4,4.4z M205.4,4.4v11.1h-2.5v-4.1
		h-2.3l-2.4,4.1h-2.6l2.6-4.5c-0.7-0.3-1.2-0.7-1.6-1.2c-0.4-0.5-0.5-1.1-0.5-1.8c0-1,0.4-1.9,1.2-2.5c0.8-0.7,1.9-1,3.2-1H205.4z
		 M198.6,8c0,0.5,0.2,0.8,0.5,1.1c0.3,0.3,0.8,0.4,1.3,0.4h2.4V6.3h-2.3c-0.6,0-1.1,0.1-1.5,0.5C198.8,7.1,198.6,7.5,198.6,8z"/>
	<path class="st1" d="M3.3,47.5H2v4.8H0.6V41.6H2v4.7h1.1l3.7-4.7h1.8l-4.1,5.2l4.4,5.5H7.2L3.3,47.5z M9.6,48.3
		c0-0.8,0.2-1.5,0.5-2.1c0.3-0.6,0.7-1.1,1.3-1.4c0.5-0.3,1.2-0.5,1.9-0.5c1.1,0,2,0.4,2.6,1.1c0.7,0.8,1,1.7,1,3v0.1
		c0,0.8-0.1,1.5-0.4,2.1c-0.3,0.6-0.7,1.1-1.3,1.4c-0.6,0.3-1.2,0.5-1.9,0.5c-1.1,0-1.9-0.4-2.6-1.1C9.9,50.6,9.6,49.6,9.6,48.3
		L9.6,48.3z M11,48.4c0,0.9,0.2,1.6,0.6,2.1s0.9,0.8,1.6,0.8c0.7,0,1.2-0.3,1.6-0.8c0.4-0.5,0.6-1.3,0.6-2.3c0-0.9-0.2-1.6-0.6-2.1
		c-0.4-0.5-1-0.8-1.6-0.8c-0.7,0-1.2,0.3-1.6,0.8S11,47.4,11,48.4z M25,44.4v7.9h-1.4v-6.8H21l-0.2,3c-0.1,1.4-0.3,2.3-0.7,2.9
		c-0.4,0.6-1,0.9-1.8,0.9h-0.5v-1.2l0.4,0c0.4-0.1,0.8-0.3,1-0.8c0.2-0.5,0.3-1.3,0.4-2.6l0.1-3.4H25z M32.3,44.4h1.4v7.9h-1.4v-5.8
		l-3.7,5.8h-1.4v-7.9h1.4v5.8L32.3,44.4z M41.8,52.3h-1.4v-2.9c-0.6,0.2-1.2,0.2-1.8,0.2c-1,0-1.8-0.2-2.3-0.8
		c-0.5-0.5-0.8-1.2-0.8-2.2v-2.4h1.4v2.4c0,1.2,0.6,1.8,1.7,1.8c0.6,0,1.2-0.1,1.8-0.2v-3.9h1.4V52.3z M47.3,52.5
		c-1.1,0-2-0.4-2.6-1.1c-0.7-0.7-1-1.6-1-2.8v-0.2c0-0.8,0.1-1.5,0.5-2.1c0.3-0.6,0.7-1.1,1.3-1.5c0.5-0.3,1.1-0.5,1.8-0.5
		c1,0,1.8,0.3,2.4,1c0.6,0.7,0.9,1.7,0.9,2.9v0.6H45c0,0.8,0.2,1.4,0.7,1.9c0.4,0.5,1,0.7,1.7,0.7c0.5,0,0.9-0.1,1.2-0.3
		c0.3-0.2,0.6-0.5,0.9-0.8l0.8,0.6C49.6,51.9,48.6,52.5,47.3,52.5z M47.1,45.4c-0.5,0-1,0.2-1.4,0.6c-0.4,0.4-0.6,1-0.7,1.7h4v-0.1
		c0-0.7-0.2-1.2-0.6-1.6C48.1,45.5,47.7,45.4,47.1,45.4z M55.1,51.4c0.5,0,0.9-0.2,1.3-0.4c0.4-0.3,0.6-0.7,0.6-1.1h1.3
		c0,0.5-0.2,0.9-0.5,1.3c-0.3,0.4-0.7,0.7-1.2,1c-0.5,0.2-1,0.4-1.5,0.4c-1.1,0-1.9-0.4-2.6-1.1c-0.6-0.7-1-1.7-1-3v-0.2
		c0-0.8,0.2-1.4,0.4-2.1s0.7-1.1,1.2-1.4s1.1-0.5,1.9-0.5c0.9,0,1.6,0.3,2.2,0.8c0.6,0.5,0.9,1.2,0.9,2.1H57c0-0.5-0.2-0.9-0.6-1.3
		c-0.4-0.3-0.8-0.5-1.3-0.5c-0.7,0-1.2,0.2-1.6,0.8c-0.4,0.5-0.6,1.2-0.6,2.1v0.2c0,0.9,0.2,1.6,0.6,2.1
		C53.9,51.1,54.4,51.4,55.1,51.4z M65.7,45.5H63v6.8h-1.4v-6.8h-2.6v-1.1h6.6V45.5z M67.1,52.3v-7.9h3.1c1.1,0,1.9,0.2,2.4,0.6
		c0.6,0.4,0.8,0.9,0.8,1.6c0,0.4-0.1,0.7-0.3,1c-0.2,0.3-0.5,0.5-1,0.7c0.5,0.1,0.9,0.3,1.1,0.7c0.3,0.3,0.4,0.7,0.4,1.2
		c0,0.7-0.3,1.3-0.8,1.7c-0.5,0.4-1.3,0.6-2.3,0.6H67.1z M68.5,48.8v2.4h2.2c0.6,0,1-0.1,1.3-0.3c0.3-0.2,0.4-0.5,0.4-0.9
		c0-0.8-0.6-1.2-1.8-1.2H68.5z M68.5,47.8h1.8c1.3,0,1.9-0.4,1.9-1.1c0-0.7-0.6-1.1-1.8-1.2h-1.9V47.8z M75.2,48.3
		c0-0.8,0.1-1.5,0.5-2.1c0.3-0.6,0.7-1.1,1.3-1.4c0.5-0.3,1.2-0.5,1.9-0.5c1.1,0,2,0.4,2.6,1.1c0.7,0.8,1,1.7,1,3v0.1
		c0,0.8-0.2,1.5-0.4,2.1c-0.3,0.6-0.7,1.1-1.3,1.4c-0.5,0.3-1.2,0.5-1.9,0.5c-1.1,0-2-0.4-2.6-1.1C75.5,50.6,75.2,49.6,75.2,48.3
		L75.2,48.3z M76.6,48.4c0,0.9,0.2,1.6,0.6,2.1s1,0.8,1.6,0.8c0.7,0,1.2-0.3,1.6-0.8c0.4-0.5,0.6-1.3,0.6-2.3c0-0.9-0.2-1.6-0.6-2.1
		c-0.4-0.5-1-0.8-1.7-0.8c-0.7,0-1.2,0.3-1.6,0.8S76.6,47.4,76.6,48.4z M93,45.5h-3.7v6.8h-1.4v-7.9h5V45.5z M100.8,48.4
		c0,1.2-0.3,2.2-0.8,2.9c-0.6,0.7-1.3,1.1-2.2,1.1c-1,0-1.7-0.3-2.3-0.9v3.8h-1.4v-11h1.2l0.1,0.9c0.6-0.7,1.3-1,2.3-1
		c0.9,0,1.7,0.4,2.3,1.1c0.5,0.7,0.8,1.7,0.8,3V48.4z M99.5,48.3c0-0.9-0.2-1.6-0.6-2.1c-0.4-0.5-0.9-0.8-1.6-0.8
		c-0.8,0-1.4,0.4-1.8,1.1v3.8c0.4,0.7,1,1.1,1.9,1.1c0.6,0,1.2-0.3,1.6-0.8C99.3,50.1,99.5,49.3,99.5,48.3z M107.4,52.3
		c-0.1-0.2-0.1-0.4-0.2-0.8c-0.6,0.7-1.4,1-2.2,1c-0.8,0-1.4-0.2-1.9-0.7c-0.5-0.4-0.8-1-0.8-1.7c0-0.8,0.3-1.5,0.9-1.9
		c0.6-0.5,1.5-0.7,2.6-0.7h1.3v-0.6c0-0.5-0.1-0.9-0.4-1.1c-0.3-0.3-0.7-0.4-1.2-0.4c-0.5,0-0.9,0.1-1.2,0.4
		c-0.3,0.2-0.5,0.5-0.5,0.9h-1.4c0-0.4,0.1-0.8,0.4-1.1c0.3-0.4,0.7-0.7,1.1-0.9c0.5-0.2,1-0.3,1.6-0.3c0.9,0,1.6,0.2,2.2,0.7
		c0.5,0.5,0.8,1.1,0.8,1.9v3.7c0,0.7,0.1,1.3,0.3,1.7v0.1H107.4z M105.2,51.3c0.4,0,0.8-0.1,1.2-0.3s0.7-0.5,0.8-0.9v-1.6h-1.1
		c-1.7,0-2.5,0.5-2.5,1.4c0,0.4,0.1,0.8,0.4,1S104.7,51.3,105.2,51.3z M117,48.9h-0.9v3.4h-1.4v-3.4h-1l-2.2,3.4h-1.7l2.8-4.1
		l-2.6-3.8h1.6l2,3.3h0.9v-3.3h1.4v3.3h0.9l2.1-3.3h1.6l-2.6,3.8l2.8,4.1h-1.7L117,48.9z M122.1,51.2l0.5-0.6
		c0.5-0.7,0.8-1.7,0.9-3.1l0.1-3.2h5.1v6.8h1v3.4h-1.3v-2.3h-5.5v2.3h-1.4l0-3.4H122.1z M123.7,51.2h3.6v-5.6h-2.4l-0.1,1.9
		C124.8,49.1,124.4,50.3,123.7,51.2z M136.1,52.3c-0.1-0.2-0.1-0.4-0.2-0.8c-0.6,0.7-1.4,1-2.3,1c-0.8,0-1.4-0.2-1.9-0.7
		c-0.5-0.4-0.8-1-0.8-1.7c0-0.8,0.3-1.5,0.9-1.9c0.6-0.5,1.5-0.7,2.7-0.7h1.3v-0.6c0-0.5-0.1-0.9-0.4-1.1s-0.7-0.4-1.2-0.4
		c-0.5,0-0.9,0.1-1.2,0.4c-0.3,0.2-0.5,0.5-0.5,0.9h-1.4c0-0.4,0.1-0.8,0.4-1.1s0.7-0.7,1.1-0.9c0.5-0.2,1-0.3,1.6-0.3
		c0.9,0,1.6,0.2,2.1,0.7c0.5,0.5,0.8,1.1,0.8,1.9v3.7c0,0.7,0.1,1.3,0.3,1.7v0.1H136.1z M133.9,51.3c0.4,0,0.8-0.1,1.2-0.3
		c0.4-0.2,0.7-0.5,0.8-0.9v-1.6h-1.1c-1.7,0-2.5,0.5-2.5,1.4c0,0.4,0.1,0.8,0.4,1C133.1,51.2,133.4,51.3,133.9,51.3z M145.9,52.3
		h-1.4v-3.4h-3.6v3.4h-1.4v-7.9h1.4v3.4h3.6v-3.4h1.4V52.3z M151.4,48.3c0-0.8,0.2-1.5,0.5-2.1c0.3-0.6,0.7-1.1,1.3-1.4
		c0.5-0.3,1.2-0.5,1.9-0.5c1.1,0,1.9,0.4,2.6,1.1c0.7,0.8,1,1.7,1,3v0.1c0,0.8-0.1,1.5-0.4,2.1c-0.3,0.6-0.7,1.1-1.3,1.4
		c-0.5,0.3-1.2,0.5-1.9,0.5c-1.1,0-1.9-0.4-2.6-1.1C151.7,50.6,151.4,49.6,151.4,48.3L151.4,48.3z M152.8,48.4
		c0,0.9,0.2,1.6,0.6,2.1c0.4,0.5,1,0.8,1.6,0.8c0.7,0,1.2-0.3,1.6-0.8c0.4-0.5,0.6-1.3,0.6-2.3c0-0.9-0.2-1.6-0.6-2.1
		c-0.4-0.5-1-0.8-1.6-0.8c-0.7,0-1.2,0.3-1.6,0.8C153,46.7,152.8,47.4,152.8,48.4z M163.5,51.4c0.5,0,0.9-0.2,1.3-0.4
		c0.4-0.3,0.6-0.7,0.6-1.1h1.3c0,0.5-0.2,0.9-0.5,1.3c-0.3,0.4-0.7,0.7-1.1,1c-0.5,0.2-1,0.4-1.5,0.4c-1.1,0-1.9-0.4-2.6-1.1
		c-0.6-0.7-1-1.7-1-3v-0.2c0-0.8,0.1-1.4,0.4-2.1c0.3-0.6,0.7-1.1,1.2-1.4s1.1-0.5,1.9-0.5c0.9,0,1.6,0.3,2.2,0.8
		c0.6,0.5,0.9,1.2,0.9,2.1h-1.3c0-0.5-0.2-0.9-0.6-1.3c-0.4-0.3-0.8-0.5-1.3-0.5c-0.7,0-1.2,0.2-1.6,0.8c-0.4,0.5-0.6,1.2-0.6,2.1
		v0.2c0,0.9,0.2,1.6,0.6,2.1C162.3,51.1,162.8,51.4,163.5,51.4z M170.8,50.3l1.8-5.9h1.4l-3.2,9.1c-0.5,1.3-1.3,2-2.3,2l-0.3,0
		l-0.5-0.1v-1.1l0.4,0c0.5,0,0.8-0.1,1.1-0.3c0.3-0.2,0.5-0.5,0.6-1l0.3-0.8l-2.8-7.8h1.5L170.8,50.3z M181.6,48.9h-0.9v3.4h-1.4
		v-3.4h-0.9l-2.2,3.4h-1.7l2.8-4.1l-2.6-3.8h1.6l2,3.3h0.9v-3.3h1.4v3.3h0.9l2.1-3.3h1.6l-2.6,3.8l2.8,4.1h-1.7L181.6,48.9z
		 M186.7,51.2l0.5-0.6c0.5-0.7,0.8-1.7,0.9-3.1l0.1-3.2h5.1v6.8h1v3.4h-1.4v-2.3h-5.5v2.3h-1.4v-3.4H186.7z M188.3,51.2h3.6v-5.6
		h-2.4l-0.1,1.9C189.3,49.1,188.9,50.3,188.3,51.2z M199.1,52.5c-1.1,0-1.9-0.4-2.6-1.1c-0.7-0.7-1-1.6-1-2.8v-0.2
		c0-0.8,0.2-1.5,0.4-2.1c0.3-0.6,0.7-1.1,1.3-1.5c0.5-0.3,1.1-0.5,1.8-0.5c1,0,1.8,0.3,2.4,1c0.6,0.7,0.9,1.7,0.9,2.9v0.6h-5.4
		c0,0.8,0.2,1.4,0.7,1.9c0.4,0.5,1,0.7,1.7,0.7c0.5,0,0.9-0.1,1.2-0.3c0.3-0.2,0.6-0.5,0.9-0.8l0.8,0.6
		C201.4,51.9,200.4,52.5,199.1,52.5z M198.9,45.4c-0.6,0-1,0.2-1.4,0.6c-0.4,0.4-0.6,1-0.7,1.7h4v-0.1c0-0.7-0.2-1.2-0.6-1.6
		C199.9,45.5,199.5,45.4,198.9,45.4z M210.2,52.3h-1.4v-3.4h-3.6v3.4h-1.4v-7.9h1.4v3.4h3.6v-3.4h1.4V52.3z M218.9,52.3h-1.4v-3.4
		h-3.6v3.4h-1.4v-7.9h1.4v3.4h3.6v-3.4h1.4V52.3z M222.5,47.1h2.1c0.9,0,1.6,0.2,2.1,0.7c0.5,0.5,0.8,1.1,0.8,1.9
		c0,0.8-0.3,1.4-0.8,1.9c-0.5,0.5-1.3,0.7-2.2,0.7h-3.4v-7.9h1.4V47.1z M230.3,52.3H229v-7.9h1.4V52.3z M222.5,48.2v3h2
		c0.5,0,0.9-0.1,1.2-0.4c0.3-0.3,0.4-0.6,0.4-1.1c0-0.4-0.1-0.8-0.4-1.1c-0.3-0.3-0.6-0.4-1.1-0.4H222.5z M235.4,47.3l1.8-2.9h1.6
		l-2.6,3.9l2.7,4h-1.6l-1.8-3l-1.8,3H232l2.7-4l-2.6-3.9h1.6L235.4,47.3z M248.2,46.6c0-0.4-0.1-0.7-0.4-0.9
		c-0.3-0.2-0.7-0.3-1.2-0.3c-0.5,0-0.9,0.1-1.2,0.4s-0.5,0.5-0.5,0.9h-1.3c0-0.7,0.3-1.2,0.9-1.7c0.6-0.4,1.3-0.7,2.2-0.7
		c0.9,0,1.7,0.2,2.2,0.6c0.5,0.4,0.8,1,0.8,1.7c0,0.3-0.1,0.7-0.3,1c-0.2,0.3-0.5,0.5-0.9,0.7c0.9,0.3,1.4,0.9,1.4,1.8
		c0,0.7-0.3,1.3-0.8,1.7c-0.6,0.4-1.3,0.6-2.2,0.6c-0.9,0-1.7-0.2-2.3-0.7c-0.6-0.4-0.9-1.1-0.9-1.8h1.3c0,0.4,0.2,0.7,0.5,1
		c0.3,0.3,0.8,0.4,1.3,0.4c0.5,0,0.9-0.1,1.2-0.4c0.3-0.2,0.5-0.5,0.5-0.9c0-0.4-0.1-0.8-0.4-0.9c-0.3-0.2-0.7-0.3-1.2-0.3h-1.4
		v-1.1h1.5C247.7,47.7,248.2,47.3,248.2,46.6z M256.4,52.3c-0.1-0.2-0.1-0.4-0.2-0.8c-0.6,0.7-1.4,1-2.3,1c-0.8,0-1.4-0.2-1.9-0.7
		c-0.5-0.4-0.8-1-0.8-1.7c0-0.8,0.3-1.5,0.9-1.9c0.6-0.5,1.5-0.7,2.7-0.7h1.3v-0.6c0-0.5-0.2-0.9-0.4-1.1s-0.7-0.4-1.2-0.4
		c-0.5,0-0.9,0.1-1.2,0.4c-0.3,0.2-0.5,0.5-0.5,0.9h-1.4c0-0.4,0.1-0.8,0.4-1.1s0.7-0.7,1.1-0.9c0.5-0.2,1-0.3,1.6-0.3
		c0.9,0,1.6,0.2,2.1,0.7c0.5,0.5,0.8,1.1,0.8,1.9v3.7c0,0.7,0.1,1.3,0.3,1.7v0.1H256.4z M254.1,51.3c0.4,0,0.8-0.1,1.2-0.3
		s0.6-0.5,0.8-0.9v-1.6h-1.1c-1.7,0-2.5,0.5-2.5,1.4c0,0.4,0.1,0.8,0.4,1C253.3,51.2,253.6,51.3,254.1,51.3z M269.8,52.3h-1.3v-3.4
		h-3.6v3.4h-1.4v-7.9h1.4v3.4h3.6v-3.4h1.3V52.3z M276.9,52.3c-0.1-0.2-0.1-0.4-0.2-0.8c-0.6,0.7-1.4,1-2.3,1
		c-0.8,0-1.4-0.2-1.9-0.7c-0.5-0.4-0.8-1-0.8-1.7c0-0.8,0.3-1.5,0.9-1.9c0.6-0.5,1.5-0.7,2.6-0.7h1.3v-0.6c0-0.5-0.1-0.9-0.4-1.1
		c-0.3-0.3-0.7-0.4-1.2-0.4c-0.5,0-0.9,0.1-1.2,0.4c-0.3,0.2-0.5,0.5-0.5,0.9h-1.4c0-0.4,0.1-0.8,0.4-1.1c0.3-0.4,0.7-0.7,1.1-0.9
		c0.5-0.2,1-0.3,1.6-0.3c0.9,0,1.6,0.2,2.1,0.7c0.5,0.5,0.8,1.1,0.8,1.9v3.7c0,0.7,0.1,1.3,0.3,1.7v0.1H276.9z M274.6,51.3
		c0.4,0,0.8-0.1,1.2-0.3c0.4-0.2,0.7-0.5,0.8-0.9v-1.6h-1.1c-1.7,0-2.5,0.5-2.5,1.4c0,0.4,0.1,0.8,0.4,1S274.2,51.3,274.6,51.3z
		 M283.3,51.4c0.5,0,0.9-0.2,1.3-0.4c0.4-0.3,0.6-0.7,0.6-1.1h1.3c0,0.5-0.2,0.9-0.5,1.3c-0.3,0.4-0.7,0.7-1.2,1
		c-0.5,0.2-1,0.4-1.5,0.4c-1.1,0-1.9-0.4-2.6-1.1c-0.6-0.7-0.9-1.7-0.9-3v-0.2c0-0.8,0.1-1.4,0.4-2.1s0.7-1.1,1.2-1.4
		s1.2-0.5,1.9-0.5c0.9,0,1.6,0.3,2.2,0.8c0.6,0.5,0.9,1.2,0.9,2.1h-1.3c0-0.5-0.2-0.9-0.6-1.3c-0.4-0.3-0.8-0.5-1.3-0.5
		c-0.7,0-1.2,0.2-1.6,0.8c-0.4,0.5-0.6,1.2-0.6,2.1v0.2c0,0.9,0.2,1.6,0.6,2.1C282.1,51.1,282.6,51.4,283.3,51.4z M293.1,44.4h1.4
		v7.9h-1.4v-5.8l-3.7,5.8h-1.4v-7.9h1.4v5.8L293.1,44.4z M303.1,44.4v7.9h-1.4v-6.8h-2.7l-0.2,3c-0.1,1.4-0.3,2.3-0.7,2.9
		c-0.4,0.6-0.9,0.9-1.8,0.9h-0.5v-1.2l0.4,0c0.4-0.1,0.8-0.3,0.9-0.8c0.2-0.5,0.3-1.3,0.4-2.6l0.1-3.4H303.1z M310.4,44.4h1.4v7.9
		h-1.4v-5.8l-3.6,5.8h-1.4v-7.9h1.4v5.8L310.4,44.4z M317.3,52.5c-1.1,0-2-0.4-2.6-1.1c-0.7-0.7-1-1.6-1-2.8v-0.2
		c0-0.8,0.1-1.5,0.5-2.1c0.3-0.6,0.7-1.1,1.3-1.5c0.5-0.3,1.1-0.5,1.8-0.5c1,0,1.8,0.3,2.4,1c0.6,0.7,0.9,1.7,0.9,2.9v0.6H315
		c0,0.8,0.2,1.4,0.7,1.9c0.4,0.5,1,0.7,1.7,0.7c0.5,0,0.9-0.1,1.2-0.3c0.3-0.2,0.6-0.5,0.9-0.8l0.8,0.6
		C319.6,51.9,318.6,52.5,317.3,52.5z M317.1,45.4c-0.5,0-1,0.2-1.4,0.6c-0.4,0.4-0.6,1-0.7,1.7h4v-0.1c0-0.7-0.2-1.2-0.6-1.6
		C318.1,45.5,317.7,45.4,317.1,45.4z M332.1,52.3h-1.4v-6.8h-3.7v6.8h-1.4v-7.9h6.4V52.3z M341,48.4c0,1.2-0.3,2.2-0.8,2.9
		c-0.6,0.7-1.3,1.1-2.2,1.1c-1,0-1.7-0.3-2.3-0.9v3.8h-1.4v-11h1.2l0.1,0.9c0.5-0.7,1.3-1,2.3-1c1,0,1.7,0.4,2.3,1.1
		c0.5,0.7,0.8,1.7,0.8,3V48.4z M339.6,48.3c0-0.9-0.2-1.6-0.6-2.1c-0.4-0.5-0.9-0.8-1.6-0.8c-0.8,0-1.4,0.4-1.8,1.1v3.8
		c0.4,0.7,1,1.1,1.9,1.1c0.6,0,1.2-0.3,1.5-0.8C339.4,50.1,339.6,49.3,339.6,48.3z M342.4,48.3c0-0.8,0.1-1.5,0.5-2.1
		c0.3-0.6,0.7-1.1,1.3-1.4c0.6-0.3,1.2-0.5,1.9-0.5c1.1,0,2,0.4,2.6,1.1c0.7,0.8,1,1.7,1,3v0.1c0,0.8-0.1,1.5-0.4,2.1
		c-0.3,0.6-0.7,1.1-1.3,1.4c-0.6,0.3-1.2,0.5-1.9,0.5c-1.1,0-1.9-0.4-2.6-1.1C342.7,50.6,342.4,49.6,342.4,48.3L342.4,48.3z
		 M343.7,48.4c0,0.9,0.2,1.6,0.6,2.1s1,0.8,1.6,0.8c0.7,0,1.2-0.3,1.6-0.8c0.4-0.5,0.6-1.3,0.6-2.3c0-0.9-0.2-1.6-0.6-2.1
		c-0.4-0.5-1-0.8-1.6-0.8c-0.7,0-1.2,0.3-1.6,0.8C343.9,46.7,343.7,47.4,343.7,48.4z M357.1,45.5h-2.7v6.8h-1.3v-6.8h-2.6v-1.1h6.6
		V45.5z M363.6,44.4h1.4v7.9h-1.4v-5.8l-3.7,5.8h-1.4v-7.9h1.4v5.8L363.6,44.4z M367.2,52.3v-7.9h3.1c1.1,0,1.9,0.2,2.4,0.6
		s0.9,0.9,0.9,1.6c0,0.4-0.1,0.7-0.3,1c-0.2,0.3-0.6,0.5-1,0.7c0.5,0.1,0.9,0.3,1.2,0.7s0.4,0.7,0.4,1.2c0,0.7-0.3,1.3-0.8,1.7
		c-0.5,0.4-1.3,0.6-2.3,0.6H367.2z M368.6,48.8v2.4h2.2c0.6,0,1-0.1,1.3-0.3c0.3-0.2,0.4-0.5,0.4-0.9c0-0.8-0.6-1.2-1.7-1.2H368.6z
		 M368.6,47.8h1.8c1.3,0,1.9-0.4,1.9-1.1c0-0.7-0.6-1.1-1.8-1.2h-1.9V47.8z M385.9,52.3h-1.4v-6.8h-3.6v6.8h-1.4v-7.9h6.4V52.3z
		 M394.8,48.4c0,1.2-0.3,2.2-0.8,2.9c-0.5,0.7-1.3,1.1-2.2,1.1c-1,0-1.7-0.3-2.3-0.9v3.8h-1.3v-11h1.2l0.1,0.9c0.5-0.7,1.3-1,2.3-1
		c1,0,1.7,0.4,2.3,1.1c0.6,0.7,0.8,1.7,0.8,3V48.4z M393.4,48.3c0-0.9-0.2-1.6-0.6-2.1c-0.4-0.5-0.9-0.8-1.6-0.8
		c-0.8,0-1.4,0.4-1.9,1.1v3.8c0.4,0.7,1,1.1,1.9,1.1c0.6,0,1.2-0.3,1.6-0.8C393.2,50.1,393.4,49.3,393.4,48.3z M399.8,52.5
		c-1.1,0-1.9-0.4-2.6-1.1c-0.7-0.7-1-1.6-1-2.8v-0.2c0-0.8,0.1-1.5,0.4-2.1c0.3-0.6,0.7-1.1,1.3-1.5c0.5-0.3,1.1-0.5,1.8-0.5
		c1,0,1.8,0.3,2.4,1c0.6,0.7,0.9,1.7,0.9,2.9v0.6h-5.4c0,0.8,0.2,1.4,0.7,1.9c0.4,0.5,1,0.7,1.7,0.7c0.5,0,0.9-0.1,1.2-0.3
		c0.3-0.2,0.6-0.5,0.9-0.8l0.8,0.6C402.1,51.9,401.1,52.5,399.8,52.5z M399.6,45.4c-0.5,0-1,0.2-1.4,0.6c-0.4,0.4-0.6,1-0.7,1.7h4
		v-0.1c0-0.7-0.2-1.2-0.6-1.6C400.6,45.5,400.2,45.4,399.6,45.4z M404.4,51.2l0.5-0.6c0.5-0.7,0.8-1.7,0.9-3.1l0.1-3.2h5.1v6.8h1
		v3.4h-1.4v-2.3h-5.5v2.3h-1.4l0-3.4H404.4z M406,51.2h3.6v-5.6h-2.4l-0.1,1.9C407,49.1,406.6,50.3,406,51.2z M416.7,51.4
		c0.5,0,0.9-0.2,1.3-0.4c0.4-0.3,0.6-0.7,0.6-1.1h1.3c0,0.5-0.2,0.9-0.5,1.3s-0.7,0.7-1.1,1c-0.5,0.2-1,0.4-1.5,0.4
		c-1.1,0-1.9-0.4-2.6-1.1c-0.6-0.7-1-1.7-1-3v-0.2c0-0.8,0.1-1.4,0.4-2.1c0.3-0.6,0.7-1.1,1.2-1.4s1.2-0.5,1.9-0.5
		c0.9,0,1.6,0.3,2.2,0.8c0.6,0.5,0.9,1.2,0.9,2.1h-1.3c0-0.5-0.2-0.9-0.6-1.3c-0.4-0.3-0.8-0.5-1.3-0.5c-0.7,0-1.2,0.2-1.6,0.8
		c-0.4,0.5-0.6,1.2-0.6,2.1v0.2c0,0.9,0.2,1.6,0.6,2.1C415.4,51.1,416,51.4,416.7,51.4z M427.2,45.5h-2.7v6.8h-1.4v-6.8h-2.6v-1.1
		h6.6V45.5z M433.4,52.3c-0.1-0.2-0.1-0.4-0.2-0.8c-0.6,0.7-1.4,1-2.2,1c-0.8,0-1.4-0.2-1.9-0.7c-0.5-0.4-0.8-1-0.8-1.7
		c0-0.8,0.3-1.5,0.9-1.9c0.6-0.5,1.5-0.7,2.6-0.7h1.3v-0.6c0-0.5-0.1-0.9-0.4-1.1c-0.3-0.3-0.7-0.4-1.3-0.4c-0.5,0-0.9,0.1-1.2,0.4
		c-0.3,0.2-0.5,0.5-0.5,0.9h-1.4c0-0.4,0.1-0.8,0.4-1.1c0.3-0.4,0.7-0.7,1.1-0.9c0.5-0.2,1-0.3,1.6-0.3c0.9,0,1.6,0.2,2.1,0.7
		c0.5,0.5,0.8,1.1,0.8,1.9v3.7c0,0.7,0.1,1.3,0.3,1.7v0.1H433.4z M431.2,51.3c0.4,0,0.8-0.1,1.2-0.3c0.4-0.2,0.7-0.5,0.8-0.9v-1.6
		h-1.1c-1.7,0-2.5,0.5-2.5,1.4c0,0.4,0.1,0.8,0.4,1C430.4,51.2,430.7,51.3,431.2,51.3z M436.8,52.3v-7.9h3.1c1.1,0,1.9,0.2,2.4,0.6
		c0.6,0.4,0.9,0.9,0.9,1.6c0,0.4-0.1,0.7-0.3,1c-0.2,0.3-0.5,0.5-1,0.7c0.5,0.1,0.9,0.3,1.2,0.7s0.4,0.7,0.4,1.2
		c0,0.7-0.3,1.3-0.8,1.7c-0.5,0.4-1.3,0.6-2.3,0.6H436.8z M438.2,48.8v2.4h2.2c0.6,0,1-0.1,1.3-0.3c0.3-0.2,0.4-0.5,0.4-0.9
		c0-0.8-0.6-1.2-1.7-1.2H438.2z M438.2,47.8h1.8c1.3,0,1.9-0.4,1.9-1.1c0-0.7-0.6-1.1-1.8-1.2h-1.9V47.8z M450.4,44.4h1.4v7.9h-1.4
		v-5.8l-3.7,5.8h-1.3v-7.9h1.3v5.8L450.4,44.4z M459.8,45.5h-2.6v6.8h-1.4v-6.8h-2.6v-1.1h6.6V45.5z M464.4,52.5
		c-1.1,0-1.9-0.4-2.6-1.1c-0.7-0.7-1-1.6-1-2.8v-0.2c0-0.8,0.1-1.5,0.4-2.1c0.3-0.6,0.7-1.1,1.3-1.5c0.5-0.3,1.1-0.5,1.8-0.5
		c1,0,1.8,0.3,2.4,1c0.6,0.7,0.9,1.7,0.9,2.9v0.6h-5.4c0,0.8,0.2,1.4,0.7,1.9c0.4,0.5,1,0.7,1.7,0.7c0.5,0,0.9-0.1,1.2-0.3
		c0.3-0.2,0.6-0.5,0.9-0.8l0.8,0.6C466.8,51.9,465.8,52.5,464.4,52.5z M464.2,45.4c-0.5,0-1,0.2-1.4,0.6c-0.4,0.4-0.6,1-0.7,1.7h4
		v-0.1c0-0.7-0.2-1.2-0.6-1.6C465.3,45.5,464.8,45.4,464.2,45.4z M475.6,44.4v7.9h-1.4v-6.8h-2.7l-0.2,3c-0.1,1.4-0.3,2.3-0.7,2.9
		c-0.4,0.6-0.9,0.9-1.8,0.9h-0.5v-1.2l0.4,0c0.4-0.1,0.8-0.3,0.9-0.8c0.2-0.5,0.3-1.3,0.4-2.6l0.1-3.4H475.6z M481,52.5
		c-1.1,0-2-0.4-2.6-1.1c-0.7-0.7-1-1.6-1-2.8v-0.2c0-0.8,0.1-1.5,0.4-2.1c0.3-0.6,0.7-1.1,1.3-1.5c0.5-0.3,1.1-0.5,1.8-0.5
		c1,0,1.8,0.3,2.4,1c0.6,0.7,0.9,1.7,0.9,2.9v0.6h-5.4c0,0.8,0.2,1.4,0.7,1.9c0.4,0.5,1,0.7,1.7,0.7c0.5,0,0.9-0.1,1.2-0.3
		c0.3-0.2,0.6-0.5,0.9-0.8l0.8,0.6C483.4,51.9,482.4,52.5,481,52.5z M480.9,45.4c-0.5,0-1,0.2-1.4,0.6c-0.4,0.4-0.6,1-0.7,1.7h4
		v-0.1c0-0.7-0.2-1.2-0.6-1.6S481.4,45.4,480.9,45.4z M490.8,44.4h1.3v7.9h-1.3v-5.8l-3.7,5.8h-1.3v-7.9h1.3v5.8L490.8,44.4z
		 M491.2,41.5c0,0.6-0.2,1.1-0.6,1.4c-0.4,0.4-0.9,0.5-1.6,0.5c-0.6,0-1.2-0.2-1.6-0.5c-0.4-0.4-0.6-0.8-0.6-1.4h1.1
		c0,0.3,0.1,0.6,0.3,0.8c0.2,0.2,0.5,0.3,0.8,0.3c0.3,0,0.6-0.1,0.8-0.3c0.2-0.2,0.3-0.5,0.3-0.8H491.2z M498.2,52.3v-7.9h3.1
		c1.1,0,1.9,0.2,2.4,0.6c0.6,0.4,0.8,0.9,0.8,1.6c0,0.4-0.1,0.7-0.3,1c-0.2,0.3-0.5,0.5-1,0.7c0.5,0.1,0.9,0.3,1.2,0.7
		s0.4,0.7,0.4,1.2c0,0.7-0.3,1.3-0.8,1.7c-0.5,0.4-1.3,0.6-2.3,0.6H498.2z M499.5,48.8v2.4h2.2c0.6,0,1-0.1,1.3-0.3
		c0.3-0.2,0.4-0.5,0.4-0.9c0-0.8-0.6-1.2-1.7-1.2H499.5z M499.5,47.8h1.8c1.3,0,1.9-0.4,1.9-1.1c0-0.7-0.6-1.1-1.8-1.2h-1.9V47.8z
		 M513.1,44.4v7.9h-1.4v-6.8h-2.7l-0.2,3c-0.1,1.4-0.3,2.3-0.7,2.9c-0.4,0.6-0.9,0.9-1.8,0.9h-0.5v-1.2l0.4,0c0.4-0.1,0.8-0.3,1-0.8
		c0.2-0.5,0.3-1.3,0.4-2.6l0.1-3.4H513.1z M520.2,52.3c-0.1-0.2-0.1-0.4-0.2-0.8c-0.6,0.7-1.4,1-2.2,1c-0.8,0-1.4-0.2-1.9-0.7
		c-0.5-0.4-0.8-1-0.8-1.7c0-0.8,0.3-1.5,0.9-1.9c0.6-0.5,1.5-0.7,2.6-0.7h1.3v-0.6c0-0.5-0.1-0.9-0.4-1.1c-0.3-0.3-0.7-0.4-1.3-0.4
		c-0.5,0-0.9,0.1-1.2,0.4c-0.3,0.2-0.5,0.5-0.5,0.9h-1.4c0-0.4,0.1-0.8,0.4-1.1c0.3-0.4,0.7-0.7,1.1-0.9c0.5-0.2,1-0.3,1.6-0.3
		c0.9,0,1.6,0.2,2.1,0.7c0.5,0.5,0.8,1.1,0.8,1.9v3.7c0,0.7,0.1,1.3,0.3,1.7v0.1H520.2z M518,51.3c0.4,0,0.8-0.1,1.2-0.3
		c0.4-0.2,0.7-0.5,0.8-0.9v-1.6h-1.1c-1.7,0-2.5,0.5-2.5,1.4c0,0.4,0.1,0.8,0.4,1C517.2,51.2,517.5,51.3,518,51.3z M526.7,51.4
		c0.5,0,0.9-0.2,1.3-0.4c0.4-0.3,0.6-0.7,0.6-1.1h1.3c0,0.5-0.2,0.9-0.5,1.3c-0.3,0.4-0.7,0.7-1.2,1c-0.5,0.2-1,0.4-1.5,0.4
		c-1.1,0-1.9-0.4-2.6-1.1c-0.6-0.7-1-1.7-1-3v-0.2c0-0.8,0.1-1.4,0.4-2.1c0.3-0.6,0.7-1.1,1.2-1.4c0.5-0.3,1.2-0.5,1.9-0.5
		c0.9,0,1.6,0.3,2.2,0.8c0.6,0.5,0.9,1.2,0.9,2.1h-1.3c0-0.5-0.2-0.9-0.6-1.3c-0.3-0.3-0.8-0.5-1.3-0.5c-0.7,0-1.2,0.2-1.6,0.8
		c-0.4,0.5-0.6,1.2-0.6,2.1v0.2c0,0.9,0.2,1.6,0.6,2.1C525.4,51.1,526,51.4,526.7,51.4z M537.2,45.5h-2.7v6.8h-1.3v-6.8h-2.6v-1.1
		h6.6V45.5z M543.7,44.4h1.4v7.9h-1.4v-5.8l-3.7,5.8h-1.3v-7.9h1.3v5.8L543.7,44.4z M551,52.3v-7.9h3.1c1.1,0,1.9,0.2,2.4,0.6
		c0.6,0.4,0.9,0.9,0.9,1.6c0,0.4-0.1,0.7-0.3,1c-0.2,0.3-0.5,0.5-1,0.7c0.5,0.1,0.9,0.3,1.2,0.7c0.3,0.3,0.4,0.7,0.4,1.2
		c0,0.7-0.3,1.3-0.8,1.7c-0.5,0.4-1.3,0.6-2.3,0.6H551z M552.4,48.8v2.4h2.2c0.6,0,1-0.1,1.3-0.3c0.3-0.2,0.4-0.5,0.4-0.9
		c0-0.8-0.6-1.2-1.7-1.2H552.4z M552.4,47.8h1.8c1.3,0,1.9-0.4,1.9-1.1c0-0.7-0.6-1.1-1.8-1.2h-1.8V47.8z M564.7,44.4v6.8h2.9v-6.8
		h1.4v6.8h2.9v-6.8h1.4v7.9h-9.9v-7.9H564.7z M578.6,52.5c-1.1,0-1.9-0.4-2.6-1.1c-0.7-0.7-1-1.6-1-2.8v-0.2c0-0.8,0.2-1.5,0.5-2.1
		c0.3-0.6,0.7-1.1,1.3-1.5c0.5-0.3,1.1-0.5,1.8-0.5c1,0,1.8,0.3,2.4,1c0.6,0.7,0.9,1.7,0.9,2.9v0.6h-5.4c0,0.8,0.2,1.4,0.7,1.9
		c0.4,0.5,1,0.7,1.7,0.7c0.5,0,0.9-0.1,1.2-0.3c0.3-0.2,0.6-0.5,0.9-0.8l0.8,0.6C580.9,51.9,579.9,52.5,578.6,52.5z M578.4,45.4
		c-0.5,0-1,0.2-1.4,0.6c-0.4,0.4-0.6,1-0.7,1.7h4v-0.1c0-0.7-0.2-1.2-0.5-1.6C579.5,45.5,579,45.4,578.4,45.4z M586.4,51.4
		c0.5,0,0.9-0.2,1.3-0.4c0.4-0.3,0.6-0.7,0.6-1.1h1.3c0,0.5-0.2,0.9-0.5,1.3c-0.3,0.4-0.7,0.7-1.2,1c-0.5,0.2-1,0.4-1.5,0.4
		c-1.1,0-1.9-0.4-2.6-1.1s-0.9-1.7-0.9-3v-0.2c0-0.8,0.1-1.4,0.4-2.1c0.3-0.6,0.7-1.1,1.2-1.4c0.5-0.3,1.2-0.5,1.9-0.5
		c0.9,0,1.6,0.3,2.2,0.8c0.6,0.5,0.9,1.2,0.9,2.1h-1.3c0-0.5-0.2-0.9-0.6-1.3c-0.3-0.3-0.8-0.5-1.3-0.5c-0.7,0-1.2,0.2-1.6,0.8
		c-0.4,0.5-0.6,1.2-0.6,2.1v0.2c0,0.9,0.2,1.6,0.6,2.1C585.2,51.1,585.7,51.4,586.4,51.4z M597,45.5h-2.7v6.8H593v-6.8h-2.6v-1.1
		h6.6V45.5z M599.8,47.1h2.1c0.9,0,1.6,0.2,2.1,0.7c0.5,0.5,0.8,1.1,0.8,1.9c0,0.8-0.3,1.4-0.8,1.9c-0.5,0.5-1.3,0.7-2.2,0.7h-3.3
		v-7.9h1.3V47.1z M599.8,48.2v3h2c0.5,0,0.9-0.1,1.2-0.4c0.3-0.3,0.4-0.6,0.4-1.1c0-0.4-0.1-0.8-0.4-1.1s-0.7-0.4-1.1-0.4H599.8z
		 M616.9,48.4c0,1.2-0.3,2.2-0.8,2.9c-0.6,0.7-1.3,1.1-2.2,1.1c-1,0-1.7-0.3-2.3-0.9v3.8h-1.4v-11h1.2l0.1,0.9c0.6-0.7,1.3-1,2.3-1
		c0.9,0,1.7,0.4,2.3,1.1c0.5,0.7,0.8,1.7,0.8,3V48.4z M615.5,48.3c0-0.9-0.2-1.6-0.6-2.1c-0.4-0.5-0.9-0.8-1.6-0.8
		c-0.8,0-1.4,0.4-1.8,1.1v3.8c0.4,0.7,1,1.1,1.9,1.1c0.7,0,1.2-0.3,1.5-0.8C615.3,50.1,615.5,49.3,615.5,48.3z M623.5,52.3
		c-0.1-0.2-0.1-0.4-0.2-0.8c-0.6,0.7-1.4,1-2.2,1c-0.8,0-1.4-0.2-1.9-0.7c-0.5-0.4-0.8-1-0.8-1.7c0-0.8,0.3-1.5,0.9-1.9
		c0.6-0.5,1.5-0.7,2.7-0.7h1.3v-0.6c0-0.5-0.1-0.9-0.4-1.1c-0.3-0.3-0.7-0.4-1.2-0.4c-0.5,0-0.9,0.1-1.2,0.4
		c-0.3,0.2-0.5,0.5-0.5,0.9h-1.4c0-0.4,0.1-0.8,0.4-1.1s0.7-0.7,1.1-0.9c0.5-0.2,1-0.3,1.6-0.3c0.9,0,1.6,0.2,2.1,0.7
		c0.5,0.5,0.8,1.1,0.8,1.9v3.7c0,0.7,0.1,1.3,0.3,1.7v0.1H623.5z M621.2,51.3c0.4,0,0.8-0.1,1.2-0.3s0.7-0.5,0.8-0.9v-1.6h-1.1
		c-1.7,0-2.5,0.5-2.5,1.4c0,0.4,0.1,0.8,0.4,1S620.8,51.3,621.2,51.3z M631.1,46.6c0-0.4-0.2-0.7-0.4-0.9s-0.7-0.3-1.2-0.3
		c-0.5,0-0.9,0.1-1.2,0.4s-0.5,0.5-0.5,0.9h-1.3c0-0.7,0.3-1.2,0.9-1.7c0.6-0.4,1.3-0.7,2.2-0.7c0.9,0,1.7,0.2,2.2,0.6
		c0.5,0.4,0.8,1,0.8,1.7c0,0.3-0.1,0.7-0.3,1c-0.2,0.3-0.5,0.5-0.9,0.7c0.9,0.3,1.4,0.9,1.4,1.8c0,0.7-0.3,1.3-0.8,1.7
		c-0.6,0.4-1.3,0.6-2.2,0.6c-0.9,0-1.7-0.2-2.3-0.7c-0.6-0.4-0.9-1.1-0.9-1.8h1.3c0,0.4,0.2,0.7,0.5,1c0.3,0.3,0.8,0.4,1.3,0.4
		c0.5,0,0.9-0.1,1.2-0.4c0.3-0.2,0.5-0.5,0.5-0.9c0-0.4-0.1-0.8-0.4-0.9c-0.3-0.2-0.7-0.3-1.2-0.3h-1.3v-1.1h1.5
		C630.6,47.7,631.1,47.3,631.1,46.6z M3.8,61.5c1,0,1.8,0.3,2.4,1c0.6,0.7,0.9,1.5,0.9,2.6v0.1c0,0.7-0.1,1.4-0.4,2s-0.7,1-1.2,1.4
		c-0.5,0.3-1.2,0.5-1.9,0.5c-1.1,0-1.9-0.4-2.6-1.1c-0.6-0.7-1-1.7-1-2.9v-0.7c0-1.7,0.3-3,0.9-4c0.6-1,1.5-1.6,2.7-1.8
		c0.7-0.1,1.1-0.3,1.4-0.4c0.2-0.2,0.4-0.4,0.4-0.7h1.1c0,0.6-0.1,1.1-0.4,1.4c-0.3,0.4-0.7,0.6-1.3,0.7l-1,0.2
		C3,60.2,2.4,60.5,2,61S1.3,62,1.2,62.8C1.9,61.9,2.8,61.5,3.8,61.5z M3.5,62.6c-0.7,0-1.2,0.2-1.6,0.7c-0.4,0.4-0.6,1.1-0.6,1.9
		v0.1c0,0.8,0.2,1.5,0.6,2c0.4,0.5,0.9,0.8,1.6,0.8c0.7,0,1.2-0.2,1.6-0.8c0.4-0.5,0.6-1.2,0.6-2.2c0-0.8-0.2-1.4-0.6-1.8
		C4.7,62.9,4.2,62.6,3.5,62.6z M8.2,65c0-0.8,0.1-1.5,0.5-2.1c0.3-0.6,0.7-1.1,1.3-1.4c0.5-0.3,1.2-0.5,1.9-0.5c1.1,0,2,0.4,2.6,1.1
		c0.7,0.8,1,1.7,1,3v0.1c0,0.8-0.1,1.5-0.4,2.1c-0.3,0.6-0.7,1.1-1.3,1.4c-0.5,0.4-1.2,0.5-1.9,0.5c-1.1,0-1.9-0.4-2.6-1.1
		c-0.7-0.8-1-1.7-1-3V65z M9.6,65.1c0,0.9,0.2,1.6,0.6,2.1s1,0.8,1.6,0.8c0.7,0,1.2-0.3,1.6-0.8c0.4-0.5,0.6-1.3,0.6-2.3
		c0-0.9-0.2-1.6-0.6-2.1c-0.4-0.5-1-0.8-1.6-0.8c-0.7,0-1.2,0.3-1.6,0.8S9.6,64.1,9.6,65.1z M23.7,61.1V69h-1.4v-6.8h-2.7l-0.2,3
		c-0.1,1.4-0.3,2.3-0.7,2.9c-0.4,0.6-1,0.9-1.8,0.9h-0.5v-1.2l0.4,0c0.4,0,0.8-0.3,0.9-0.8c0.2-0.4,0.3-1.3,0.4-2.5l0.1-3.4H23.7z
		 M27.3,63.8h2.1c0.9,0,1.6,0.2,2.1,0.7c0.5,0.5,0.8,1.1,0.8,1.9s-0.3,1.4-0.8,1.9c-0.5,0.5-1.3,0.7-2.2,0.7H26v-7.9h1.4V63.8z
		 M27.3,64.9v3h2c0.5,0,0.9-0.1,1.2-0.4c0.3-0.3,0.4-0.6,0.4-1.1c0-0.4-0.1-0.8-0.4-1.1c-0.3-0.3-0.6-0.4-1.1-0.4H27.3z M35.5,61.1
		v6.8h2.9v-6.8h1.4v6.8h2.9v-6.8H44V69h-9.9v-7.9H35.5z M49.4,69.2c-1.1,0-1.9-0.4-2.6-1.1c-0.7-0.7-1-1.7-1-2.8V65
		c0-0.8,0.1-1.5,0.4-2.1c0.3-0.6,0.7-1.1,1.3-1.4c0.5-0.4,1.1-0.5,1.8-0.5c1,0,1.8,0.3,2.4,1c0.6,0.7,0.9,1.6,0.9,2.9v0.6h-5.4
		c0,0.8,0.2,1.4,0.7,1.9s1,0.7,1.7,0.7c0.5,0,0.9-0.1,1.2-0.3c0.3-0.2,0.6-0.5,0.9-0.8l0.8,0.7C51.7,68.6,50.7,69.2,49.4,69.2z
		 M49.2,62.1c-0.6,0-1,0.2-1.4,0.6c-0.4,0.4-0.6,1-0.7,1.7h4v-0.1c0-0.7-0.2-1.2-0.6-1.6C50.2,62.2,49.8,62.1,49.2,62.1z"/>
	<path class="st2" d="M6.7,420.6h1.4v10.7H6.7v-8.2l-5.3,8.2H0v-10.7h1.4v8.2L6.7,420.6z M13.6,430.3c0.5,0,0.9-0.1,1.3-0.4
		c0.4-0.3,0.6-0.7,0.6-1.1h1.3c0,0.5-0.2,0.9-0.5,1.3s-0.7,0.7-1.1,1c-0.5,0.2-1,0.4-1.5,0.4c-1.1,0-1.9-0.4-2.6-1.1
		c-0.6-0.7-1-1.7-1-3v-0.2c0-0.8,0.1-1.5,0.4-2c0.3-0.6,0.7-1.1,1.2-1.4c0.5-0.3,1.1-0.5,1.9-0.5c0.9,0,1.6,0.3,2.2,0.8
		c0.6,0.5,0.9,1.2,0.9,2.1h-1.3c0-0.5-0.2-0.9-0.6-1.3c-0.4-0.3-0.8-0.5-1.3-0.5c-0.7,0-1.2,0.2-1.6,0.7c-0.4,0.5-0.6,1.2-0.6,2.1
		v0.3c0,0.9,0.2,1.6,0.6,2.1C12.4,430.1,12.9,430.3,13.6,430.3z M24.2,424.5h-2.7v6.8h-1.4v-6.8h-2.6v-1.1h6.6V424.5z M25.1,427.3
		c0-0.8,0.1-1.5,0.5-2.1c0.3-0.6,0.7-1.1,1.3-1.4c0.5-0.3,1.2-0.5,1.9-0.5c1.1,0,2,0.4,2.6,1.1c0.7,0.8,1,1.7,1,3v0.1
		c0,0.8-0.1,1.5-0.4,2.1c-0.3,0.6-0.7,1.1-1.3,1.4c-0.6,0.3-1.2,0.5-1.9,0.5c-1.1,0-1.9-0.4-2.6-1.1
		C25.5,429.6,25.1,428.6,25.1,427.3L25.1,427.3z M26.5,427.4c0,0.9,0.2,1.6,0.6,2.1c0.4,0.5,0.9,0.8,1.6,0.8c0.7,0,1.2-0.3,1.6-0.8
		c0.4-0.5,0.6-1.3,0.6-2.3c0-0.9-0.2-1.6-0.6-2.1c-0.4-0.5-1-0.8-1.6-0.8c-0.7,0-1.2,0.3-1.6,0.8C26.7,425.7,26.5,426.4,26.5,427.4z
		 M40,431.3h-1.4v-2.9c-0.6,0.2-1.2,0.2-1.8,0.2c-1,0-1.8-0.2-2.3-0.8c-0.5-0.5-0.8-1.2-0.8-2.2v-2.4h1.4v2.4c0,1.2,0.6,1.8,1.7,1.8
		c0.6,0,1.2-0.1,1.8-0.2v-3.9H40V431.3z M48.7,431.3h-1.4v-3.4h-3.6v3.4h-1.4v-7.9h1.4v3.4h3.6v-3.4h1.4V431.3z M56,423.4h1.4v7.9
		H56v-5.8l-3.6,5.8H51v-7.9h1.4v5.8L56,423.4z M62,427.9h-1v3.4h-1.4v-7.9H61v3.4h0.9l2.7-3.4h1.6l-3.1,3.8l3.4,4.1h-1.7L62,427.9z
		 M67.5,430.6c0-0.2,0.1-0.4,0.2-0.6c0.1-0.1,0.3-0.2,0.6-0.2c0.3,0,0.5,0.1,0.6,0.2c0.1,0.2,0.2,0.4,0.2,0.6c0,0.2-0.1,0.4-0.2,0.6
		c-0.1,0.1-0.4,0.2-0.6,0.2c-0.3,0-0.5-0.1-0.6-0.2C67.6,431,67.5,430.8,67.5,430.6z M67.6,424.1c0-0.2,0.1-0.4,0.2-0.6
		c0.1-0.2,0.4-0.2,0.6-0.2c0.3,0,0.5,0.1,0.6,0.2c0.1,0.2,0.2,0.4,0.2,0.6c0,0.2-0.1,0.4-0.2,0.6c-0.1,0.1-0.4,0.2-0.6,0.2
		c-0.3,0-0.5-0.1-0.6-0.2C67.6,424.5,67.6,424.4,67.6,424.1z M83,427.9c-0.1,1.1-0.5,2-1.2,2.6c-0.7,0.6-1.6,0.9-2.8,0.9
		c-1.3,0-2.3-0.5-3-1.4c-0.8-0.9-1.1-2.1-1.1-3.6v-1c0-1,0.2-1.9,0.5-2.6c0.4-0.8,0.9-1.3,1.5-1.7c0.6-0.4,1.4-0.6,2.3-0.6
		c1.1,0,2,0.3,2.7,1c0.7,0.6,1.1,1.5,1.2,2.6h-1.4c-0.1-0.8-0.4-1.5-0.8-1.8s-1-0.6-1.7-0.6c-0.9,0-1.6,0.3-2.1,1
		c-0.5,0.7-0.8,1.6-0.8,2.8v1c0,1.2,0.2,2.1,0.7,2.8c0.5,0.7,1.2,1,2,1c0.8,0,1.4-0.2,1.8-0.5c0.4-0.4,0.7-1,0.8-1.8H83z
		 M87.3,429.3l1.8-5.9h1.4l-3.2,9.2c-0.5,1.3-1.3,2-2.4,2l-0.3,0l-0.5-0.1v-1.1l0.4,0c0.5,0,0.8-0.1,1.1-0.3c0.3-0.2,0.5-0.5,0.6-1
		l0.3-0.8l-2.8-7.8h1.5L87.3,429.3z M91.7,430.2l0.5-0.6c0.5-0.7,0.8-1.7,0.9-3.1l0.1-3.2h5.1v6.8h1v3.4H98v-2.3h-5.5v2.3h-1.4
		l0-3.4H91.7z M93.3,430.2H97v-5.6h-2.4l-0.1,1.9C94.4,428.1,94,429.3,93.3,430.2z M104.1,431.5c-1.1,0-1.9-0.4-2.6-1.1
		c-0.7-0.7-1-1.7-1-2.8v-0.2c0-0.8,0.2-1.5,0.5-2.1c0.3-0.6,0.7-1.1,1.3-1.5c0.5-0.4,1.1-0.5,1.8-0.5c1,0,1.8,0.3,2.4,1
		c0.6,0.7,0.8,1.6,0.8,2.9v0.6h-5.4c0,0.8,0.2,1.4,0.7,1.9c0.4,0.5,1,0.7,1.7,0.7c0.5,0,0.9-0.1,1.2-0.3c0.3-0.2,0.6-0.5,0.9-0.8
		l0.8,0.6C106.5,430.9,105.5,431.5,104.1,431.5z M104,424.3c-0.5,0-1,0.2-1.4,0.6c-0.4,0.4-0.6,1-0.7,1.7h4v-0.1
		c0-0.7-0.2-1.2-0.6-1.6C105,424.5,104.5,424.3,104,424.3z M112.3,423.8c1,0,1.8,0.3,2.4,1c0.6,0.7,0.9,1.5,0.9,2.6v0.1
		c0,0.7-0.2,1.4-0.4,2c-0.3,0.6-0.7,1-1.2,1.4c-0.5,0.3-1.2,0.5-1.9,0.5c-1.1,0-1.9-0.4-2.6-1.1c-0.7-0.7-1-1.7-1-2.9v-0.7
		c0-1.7,0.3-3,0.9-4c0.6-1,1.5-1.6,2.7-1.8c0.7-0.1,1.1-0.3,1.4-0.5c0.2-0.2,0.4-0.4,0.4-0.7h1.1c0,0.6-0.1,1.1-0.4,1.4
		c-0.3,0.3-0.7,0.6-1.3,0.7l-1,0.2c-0.8,0.2-1.4,0.5-1.8,1c-0.4,0.4-0.7,1-0.8,1.8C110.4,424.2,111.2,423.8,112.3,423.8z M112,424.9
		c-0.7,0-1.2,0.2-1.6,0.7c-0.4,0.5-0.6,1.1-0.6,1.9v0.1c0,0.9,0.2,1.5,0.6,2c0.4,0.5,0.9,0.8,1.6,0.8c0.7,0,1.2-0.2,1.6-0.8
		s0.6-1.2,0.6-2.2c0-0.8-0.2-1.3-0.6-1.8C113.2,425.2,112.7,424.9,112,424.9z M123.6,431.3h-1.4v-3.4h-3.6v3.4h-1.4v-7.9h1.4v3.4
		h3.6v-3.4h1.4V431.3z M127.2,426.1h2.1c0.9,0,1.6,0.2,2.1,0.7c0.5,0.5,0.8,1.1,0.8,1.9c0,0.8-0.3,1.4-0.8,1.9
		c-0.5,0.5-1.3,0.7-2.2,0.7h-3.4v-7.9h1.4V426.1z M135,431.3h-1.4v-7.9h1.4V431.3z M127.2,427.2v3h2c0.5,0,0.9-0.1,1.2-0.4
		c0.3-0.3,0.4-0.6,0.4-1.1c0-0.4-0.1-0.8-0.4-1.1c-0.3-0.3-0.6-0.4-1.1-0.4H127.2z M142.5,423.4h1.4v7.9h-1.4v-5.8l-3.6,5.8h-1.4
		v-7.9h1.4v5.8L142.5,423.4z M142.9,420.5c0,0.6-0.2,1.1-0.6,1.4c-0.4,0.4-0.9,0.5-1.6,0.5c-0.7,0-1.2-0.2-1.6-0.5
		c-0.4-0.4-0.6-0.8-0.6-1.4h1.1c0,0.3,0.1,0.6,0.3,0.8c0.2,0.2,0.4,0.3,0.8,0.3c0.3,0,0.6-0.1,0.8-0.3c0.2-0.2,0.3-0.4,0.3-0.8
		H142.9z M149.7,430.2l0.5-0.6c0.5-0.7,0.8-1.7,0.9-3.1l0.1-3.2h5.1v6.8h1v3.4h-1.4v-2.3h-5.5v2.3h-1.3l0-3.4H149.7z M151.3,430.2
		h3.6v-5.6h-2.4l-0.1,1.9C152.3,428.1,152,429.3,151.3,430.2z M162.1,431.5c-1.1,0-2-0.4-2.6-1.1c-0.7-0.7-1-1.7-1-2.8v-0.2
		c0-0.8,0.1-1.5,0.4-2.1s0.7-1.1,1.3-1.5c0.5-0.4,1.1-0.5,1.8-0.5c1,0,1.8,0.3,2.4,1c0.6,0.7,0.9,1.6,0.9,2.9v0.6h-5.4
		c0,0.8,0.2,1.4,0.7,1.9c0.4,0.5,1,0.7,1.7,0.7c0.5,0,0.9-0.1,1.2-0.3c0.3-0.2,0.6-0.5,0.9-0.8l0.8,0.6
		C164.4,430.9,163.4,431.5,162.1,431.5z M161.9,424.3c-0.5,0-1,0.2-1.4,0.6c-0.4,0.4-0.6,1-0.7,1.7h4v-0.1c0-0.7-0.2-1.2-0.6-1.6
		C162.9,424.5,162.5,424.3,161.9,424.3z M173.2,431.3h-1.4v-6.8h-3.6v6.8h-1.4v-7.9h6.4V431.3z M180.3,431.3
		c-0.1-0.2-0.1-0.4-0.2-0.8c-0.6,0.7-1.4,1-2.3,1c-0.8,0-1.4-0.2-1.9-0.7s-0.8-1-0.8-1.7c0-0.8,0.3-1.5,0.9-1.9
		c0.6-0.5,1.5-0.7,2.6-0.7h1.3v-0.6c0-0.5-0.2-0.8-0.4-1.1c-0.3-0.3-0.7-0.4-1.2-0.4c-0.5,0-0.9,0.1-1.2,0.4
		c-0.3,0.2-0.5,0.5-0.5,0.9h-1.4c0-0.4,0.1-0.8,0.4-1.1c0.3-0.4,0.7-0.7,1.1-0.9c0.5-0.2,1-0.3,1.6-0.3c0.9,0,1.6,0.2,2.1,0.7
		c0.5,0.5,0.8,1.1,0.8,1.9v3.7c0,0.7,0.1,1.3,0.3,1.7v0.1H180.3z M178.1,430.3c0.4,0,0.8-0.1,1.2-0.3c0.4-0.2,0.6-0.5,0.8-0.9v-1.6
		H179c-1.7,0-2.5,0.5-2.5,1.5c0,0.4,0.1,0.8,0.4,1C177.2,430.1,177.6,430.3,178.1,430.3z M190.3,427.4c0,1.2-0.3,2.2-0.8,2.9
		c-0.6,0.7-1.3,1.1-2.2,1.1c-1,0-1.7-0.3-2.3-0.9v3.8h-1.4v-11h1.2l0.1,0.9c0.5-0.7,1.3-1,2.3-1c1,0,1.7,0.4,2.3,1.1
		c0.6,0.7,0.8,1.7,0.8,3V427.4z M188.9,427.3c0-0.9-0.2-1.6-0.6-2.1c-0.4-0.5-0.9-0.8-1.6-0.8c-0.8,0-1.4,0.4-1.8,1.1v3.8
		c0.4,0.7,1,1.1,1.9,1.1c0.7,0,1.2-0.3,1.6-0.8C188.7,429,188.9,428.3,188.9,427.3z M197.9,424.5h-2.7v6.8h-1.4v-6.8h-2.6v-1.1h6.6
		V424.5z M204.1,431.3c-0.1-0.2-0.1-0.4-0.2-0.8c-0.6,0.7-1.4,1-2.3,1c-0.8,0-1.4-0.2-1.9-0.7s-0.8-1-0.8-1.7c0-0.8,0.3-1.5,0.9-1.9
		c0.6-0.5,1.5-0.7,2.6-0.7h1.3v-0.6c0-0.5-0.1-0.8-0.4-1.1c-0.3-0.3-0.7-0.4-1.2-0.4c-0.5,0-0.9,0.1-1.2,0.4
		c-0.3,0.2-0.5,0.5-0.5,0.9h-1.4c0-0.4,0.1-0.8,0.4-1.1c0.3-0.4,0.7-0.7,1.1-0.9c0.5-0.2,1-0.3,1.6-0.3c0.9,0,1.6,0.2,2.1,0.7
		c0.5,0.5,0.8,1.1,0.8,1.9v3.7c0,0.7,0.1,1.3,0.3,1.7v0.1H204.1z M201.8,430.3c0.4,0,0.8-0.1,1.2-0.3c0.4-0.2,0.7-0.5,0.8-0.9v-1.6
		h-1.1c-1.7,0-2.5,0.5-2.5,1.5c0,0.4,0.1,0.8,0.4,1C201,430.1,201.4,430.3,201.8,430.3z M211.9,429.5l2.7-6.1h1.7v7.9h-1.4v-5.8
		l-2.6,5.8h-0.9l-2.6-5.9v5.9h-1.4v-7.9h1.8L211.9,429.5z M221.8,431.5c-1.1,0-1.9-0.4-2.6-1.1c-0.7-0.7-1-1.7-1-2.8v-0.2
		c0-0.8,0.1-1.5,0.4-2.1s0.7-1.1,1.3-1.5c0.5-0.4,1.1-0.5,1.8-0.5c1,0,1.8,0.3,2.4,1c0.6,0.7,0.9,1.6,0.9,2.9v0.6h-5.4
		c0,0.8,0.2,1.4,0.7,1.9c0.4,0.5,1,0.7,1.7,0.7c0.5,0,0.9-0.1,1.2-0.3c0.3-0.2,0.6-0.5,0.9-0.8l0.8,0.6
		C224.1,430.9,223.1,431.5,221.8,431.5z M221.6,424.3c-0.6,0-1,0.2-1.4,0.6c-0.4,0.4-0.6,1-0.7,1.7h4v-0.1c0-0.7-0.2-1.2-0.6-1.6
		C222.6,424.5,222.2,424.3,221.6,424.3z M232.9,431.3h-1.3v-3.4h-3.6v3.4h-1.4v-7.9h1.4v3.4h3.6v-3.4h1.3V431.3z M241,424.5h-2.7
		v6.8h-1.4v-6.8h-2.6v-1.1h6.6V424.5z M252.5,431.3h-1.4v-6.8h-3.6v6.8h-1.4v-7.9h6.4V431.3z M261.4,427.4c0,1.2-0.3,2.2-0.8,2.9
		c-0.5,0.7-1.3,1.1-2.2,1.1c-1,0-1.7-0.3-2.3-0.9v3.8h-1.4v-11h1.2l0.1,0.9c0.6-0.7,1.3-1,2.3-1c0.9,0,1.7,0.4,2.3,1.1
		c0.6,0.7,0.8,1.7,0.8,3V427.4z M260,427.3c0-0.9-0.2-1.6-0.6-2.1c-0.4-0.5-0.9-0.8-1.6-0.8c-0.8,0-1.4,0.4-1.8,1.1v3.8
		c0.4,0.7,1,1.1,1.9,1.1c0.6,0,1.2-0.3,1.5-0.8C259.8,429,260,428.3,260,427.3z M268.2,423.4h1.3v7.9h-1.3v-5.8l-3.7,5.8h-1.4v-7.9
		h1.4v5.8L268.2,423.4z M275.6,431.3v-10.7h3.5c1.2,0,2,0.2,2.6,0.7c0.6,0.5,0.9,1.2,0.9,2.1c0,0.5-0.1,0.9-0.4,1.3
		c-0.3,0.4-0.7,0.7-1.2,0.9c0.6,0.2,1,0.5,1.4,0.9c0.3,0.5,0.5,1,0.5,1.6c0,1-0.3,1.7-0.9,2.3c-0.6,0.6-1.5,0.8-2.6,0.8H275.6z
		 M277.1,426.3v3.8h2.3c0.7,0,1.2-0.2,1.5-0.5c0.4-0.3,0.6-0.8,0.6-1.4c0-1.3-0.7-1.9-2.1-1.9H277.1z M277.1,425.2h2.1
		c0.6,0,1.1-0.1,1.5-0.5s0.5-0.7,0.5-1.2c0-0.6-0.2-1-0.5-1.3c-0.3-0.3-0.9-0.4-1.6-0.4h-2.1V425.2z M292.8,427.9
		c-0.1,1.1-0.5,2-1.2,2.6c-0.7,0.6-1.6,0.9-2.8,0.9c-1.3,0-2.3-0.5-3-1.4c-0.8-0.9-1.1-2.1-1.1-3.6v-1c0-1,0.2-1.9,0.5-2.6
		c0.4-0.8,0.9-1.3,1.5-1.7c0.6-0.4,1.4-0.6,2.3-0.6c1.1,0,2,0.3,2.7,1c0.7,0.6,1.1,1.5,1.2,2.6h-1.4c-0.1-0.8-0.4-1.5-0.8-1.8
		s-1-0.6-1.7-0.6c-0.9,0-1.6,0.3-2.1,1c-0.5,0.7-0.8,1.6-0.8,2.8v1c0,1.2,0.2,2.1,0.7,2.8c0.5,0.7,1.1,1,2,1c0.8,0,1.4-0.2,1.8-0.5
		c0.4-0.4,0.7-1,0.8-1.8H292.8z M299.9,427.1v4.2h-1.4v-10.7h3.9c1.2,0,2.1,0.3,2.8,0.9c0.7,0.6,1,1.4,1,2.4c0,1-0.3,1.8-1,2.4
		c-0.6,0.6-1.6,0.8-2.8,0.8H299.9z M299.9,426h2.5c0.8,0,1.3-0.2,1.7-0.5c0.4-0.4,0.6-0.9,0.6-1.5c0-0.6-0.2-1.1-0.6-1.5
		c-0.4-0.4-1-0.6-1.6-0.6h-2.6V426z M313.2,421.7h0.2c0.8,0,1.5,0.2,2.2,0.6c0.7,0.4,1.2,0.9,1.5,1.5c0.4,0.7,0.6,1.4,0.6,2.2
		s-0.2,1.5-0.6,2.2c-0.4,0.7-0.9,1.2-1.5,1.5c-0.7,0.4-1.4,0.5-2.2,0.6h-0.2v1.4h-1.4v-1.4h-0.2c-0.8,0-1.6-0.2-2.2-0.5
		c-0.7-0.4-1.2-0.9-1.6-1.5c-0.4-0.7-0.6-1.4-0.6-2.2c0-0.8,0.2-1.5,0.6-2.2c0.4-0.6,0.9-1.2,1.6-1.5c0.7-0.4,1.4-0.6,2.2-0.6h0.2
		v-1.5h1.4V421.7z M311.6,422.8c-0.9,0-1.6,0.3-2.2,0.9c-0.5,0.6-0.8,1.3-0.8,2.3c0,1,0.3,1.8,0.8,2.4c0.5,0.6,1.3,0.8,2.2,0.8h0.2
		v-6.4H311.6z M313.2,422.8v6.4h0.2c0.9,0,1.7-0.3,2.2-0.9c0.5-0.6,0.8-1.4,0.8-2.3c0-1-0.3-1.8-0.8-2.3c-0.5-0.6-1.3-0.9-2.2-0.9
		H313.2z"/>
	<path class="st2" d="M542.2,426c0.5,0,0.8-0.1,1-0.4c0.2-0.3,0.3-0.6,0.3-1.1v-2.3c0-0.5,0.1-0.9,0.2-1.2c0.1-0.4,0.3-0.6,0.6-0.9
		c0.3-0.2,0.6-0.4,1.1-0.6c0.4-0.1,1-0.2,1.6-0.2h0.3v1.9h-0.4c-0.5,0-0.8,0.1-1,0.3c-0.2,0.2-0.2,0.5-0.2,1v2.1
		c0,0.5-0.1,1-0.2,1.4c-0.1,0.4-0.4,0.7-0.9,1c0.4,0.3,0.7,0.6,0.9,1c0.2,0.4,0.2,0.8,0.2,1.4v2.1c0,0.4,0.1,0.8,0.2,1
		c0.2,0.2,0.5,0.3,1,0.3h0.4v1.9H547c-0.7,0-1.2-0.1-1.6-0.2c-0.4-0.1-0.8-0.3-1.1-0.5c-0.3-0.2-0.5-0.5-0.6-0.9
		c-0.1-0.4-0.2-0.8-0.2-1.2v-2.4c0-0.4-0.1-0.8-0.3-1.1s-0.5-0.4-1-0.4V426z"/>
	<path class="st2" d="M558.9,420.8h2.4l-0.1,13.7h-2.4l0.1-7.5h-4.1v4.6h-2.4v-10.8h2.4v4.1h4.1V420.8L558.9,420.8z"/>
	<path class="st2" d="M571.4,427.5c0,0.6-0.1,1.2-0.3,1.8c-0.2,0.5-0.5,1-0.8,1.4c-0.4,0.4-0.8,0.7-1.3,0.9c-0.5,0.2-1,0.3-1.7,0.3
		c-0.6,0-1.1-0.1-1.6-0.3c-0.5-0.2-0.9-0.5-1.3-0.9c-0.4-0.4-0.6-0.8-0.8-1.4c-0.2-0.5-0.3-1.1-0.3-1.8c0-0.6,0.1-1.2,0.3-1.8
		c0.2-0.5,0.5-1,0.8-1.4c0.4-0.4,0.8-0.7,1.3-0.9c0.5-0.2,1-0.3,1.6-0.3c0.6,0,1.1,0.1,1.6,0.3c0.5,0.2,0.9,0.5,1.3,0.9
		c0.4,0.4,0.6,0.8,0.8,1.4C571.3,426.3,571.4,426.9,571.4,427.5z M569,427.5c0-0.7-0.1-1.3-0.4-1.7c-0.3-0.4-0.7-0.6-1.2-0.6
		c-0.5,0-0.9,0.2-1.2,0.6c-0.3,0.4-0.4,1-0.4,1.7c0,0.7,0.2,1.3,0.4,1.7c0.3,0.4,0.7,0.6,1.2,0.6c0.5,0,0.9-0.2,1.2-0.6
		C568.8,428.8,569,428.2,569,427.5z"/>
	<path class="st2" d="M576.7,431.8c-0.3,0-0.6,0-0.9,0c-0.3,0-0.7-0.1-1-0.1c-0.3,0-0.6-0.1-0.9-0.1c-0.3,0-0.5-0.1-0.7-0.1v-7.9
		c0.2,0,0.4-0.1,0.7-0.1c0.3,0,0.6-0.1,0.9-0.1c0.3,0,0.7-0.1,1-0.1c0.3,0,0.6,0,0.9,0c0.7,0,1.2,0.1,1.7,0.2
		c0.5,0.1,0.8,0.3,1.1,0.5c0.3,0.2,0.5,0.5,0.6,0.7c0.1,0.3,0.2,0.5,0.2,0.8c0,0.4-0.1,0.7-0.3,1c-0.2,0.3-0.4,0.5-0.7,0.6
		c0.1,0.1,0.3,0.1,0.4,0.3c0.2,0.1,0.3,0.2,0.4,0.4c0.1,0.2,0.2,0.3,0.3,0.6c0.1,0.2,0.1,0.5,0.1,0.8c0,0.3-0.1,0.7-0.2,1
		c-0.1,0.3-0.3,0.6-0.7,0.8s-0.7,0.4-1.2,0.6C578.1,431.7,577.5,431.8,576.7,431.8z M576.8,426.6c0.4,0,0.7,0,0.9-0.1
		c0.2-0.1,0.4-0.3,0.4-0.6c0-0.3-0.1-0.5-0.4-0.6c-0.3-0.1-0.6-0.2-1.1-0.2c-0.1,0-0.3,0-0.6,0c-0.2,0-0.4,0-0.6,0.1v1.5H576.8
		L576.8,426.6z M575.5,429.9c0.1,0,0.3,0,0.6,0.1c0.2,0,0.5,0,0.7,0c0.5,0,0.9-0.1,1.2-0.2c0.3-0.1,0.4-0.4,0.4-0.7
		c0-0.3-0.1-0.6-0.4-0.7c-0.3-0.1-0.7-0.2-1.2-0.2h-1.4V429.9L575.5,429.9z"/>
	<path class="st2" d="M585.4,423.2c0.7,0,1.3,0.1,1.7,0.2c0.5,0.2,0.8,0.4,1.1,0.7c0.3,0.3,0.5,0.6,0.6,1.1c0.1,0.4,0.2,0.9,0.2,1.4
		v4.8c-0.3,0.1-0.8,0.1-1.4,0.2c-0.6,0.1-1.3,0.1-2.1,0.1c-0.5,0-1,0-1.4-0.1c-0.4-0.1-0.8-0.2-1.1-0.5c-0.3-0.2-0.6-0.5-0.7-0.8
		c-0.2-0.4-0.2-0.8-0.2-1.3c0-0.5,0.1-0.9,0.3-1.2c0.2-0.3,0.5-0.6,0.8-0.8c0.3-0.2,0.7-0.3,1.1-0.4c0.4-0.1,0.9-0.1,1.3-0.1
		c0.3,0,0.6,0,0.8,0c0.2,0,0.4,0.1,0.6,0.1v-0.2c0-0.4-0.1-0.7-0.4-1c-0.2-0.2-0.7-0.3-1.2-0.3c-0.4,0-0.8,0-1.2,0.1
		c-0.4,0.1-0.7,0.1-1,0.2l-0.3-1.9c0.1,0,0.3-0.1,0.5-0.1c0.2,0,0.4-0.1,0.7-0.1c0.2,0,0.5-0.1,0.8-0.1
		C584.9,423.2,585.2,423.2,585.4,423.2z M585.6,430c0.2,0,0.4,0,0.7,0c0.2,0,0.4,0,0.5,0v-1.8c-0.1,0-0.2,0-0.4-0.1
		c-0.2,0-0.4,0-0.5,0c-0.2,0-0.4,0-0.6,0c-0.2,0-0.4,0.1-0.5,0.2c-0.2,0.1-0.3,0.2-0.4,0.3c-0.1,0.1-0.1,0.3-0.1,0.5
		c0,0.4,0.1,0.6,0.4,0.8C584.8,429.9,585.2,430,585.6,430z"/>
	<path class="st2" d="M594.5,428.7c-0.3,0.5-0.6,1-0.9,1.5c-0.3,0.5-0.5,1-0.8,1.4h-2.4c0.3-0.7,0.6-1.3,0.9-1.8s0.6-1,0.9-1.5
		c-0.4-0.2-0.8-0.5-1-0.9c-0.3-0.4-0.4-0.8-0.4-1.3c0-0.9,0.3-1.6,1-2.1c0.7-0.5,1.6-0.7,2.7-0.7c0.3,0,0.5,0,0.9,0
		c0.3,0,0.6,0.1,0.9,0.1c0.3,0,0.6,0.1,0.9,0.1c0.3,0,0.5,0.1,0.7,0.1v8h-2.3v-2.9H594.5z M595.7,425.1c-0.1,0-0.3,0-0.5,0
		c-0.2,0-0.4,0-0.6,0c-0.6,0-1,0.1-1.2,0.3c-0.2,0.2-0.3,0.4-0.3,0.7c0,0.2,0,0.4,0.1,0.5c0.1,0.1,0.2,0.2,0.3,0.3
		c0.1,0.1,0.3,0.1,0.5,0.2c0.2,0,0.3,0,0.5,0h1.1V425.1L595.7,425.1z"/>
	<path class="st2" d="M606.2,424.9c0,0.5-0.2,0.8-0.4,1.1c-0.3,0.2-0.6,0.4-1,0.4c-0.4,0-0.7-0.1-1-0.4c-0.3-0.2-0.5-0.6-0.5-1.1
		s0.2-0.8,0.5-1.1c0.3-0.2,0.6-0.4,1-0.4c0.4,0,0.7,0.1,1,0.4C606.1,424,606.2,424.4,606.2,424.9z M606.2,430.4
		c0,0.5-0.2,0.8-0.4,1.1c-0.3,0.2-0.6,0.4-1,0.4c-0.4,0-0.7-0.1-1-0.4c-0.3-0.2-0.5-0.6-0.5-1.1s0.2-0.8,0.5-1.1
		c0.3-0.2,0.6-0.4,1-0.4c0.4,0,0.7,0.1,1,0.4C606.1,429.6,606.2,429.9,606.2,430.4z"/>
	<path class="st2" d="M610.7,429.5h1.6c0.4-0.7,0.7-1.3,0.9-2c0.2-0.7,0.4-1.3,0.5-2c0.1-0.7,0.2-1.4,0.2-2.1c0-0.7,0-1.5,0-2.3
		v-0.4h7.1v8.7h1.9v5h-2.3v-2.9h-7.5v2.9h-2.3V429.5z M616.2,422.9c0,0.6-0.1,1.1-0.1,1.7c0,0.6-0.1,1.2-0.2,1.8
		c-0.1,0.6-0.2,1.1-0.4,1.7c-0.2,0.6-0.4,1.1-0.6,1.5h3.9v-6.7H616.2z"/>
	<path class="st2" d="M627.3,423.2c0.7,0,1.3,0.1,1.7,0.2c0.5,0.2,0.8,0.4,1.1,0.7c0.3,0.3,0.5,0.6,0.6,1.1c0.1,0.4,0.2,0.9,0.2,1.4
		v4.8c-0.3,0.1-0.8,0.1-1.4,0.2c-0.6,0.1-1.3,0.1-2.2,0.1c-0.5,0-1,0-1.4-0.1c-0.4-0.1-0.8-0.2-1.1-0.5c-0.3-0.2-0.5-0.5-0.7-0.8
		c-0.2-0.4-0.2-0.8-0.2-1.3c0-0.5,0.1-0.9,0.3-1.2c0.2-0.3,0.4-0.6,0.8-0.8c0.3-0.2,0.7-0.3,1.1-0.4c0.4-0.1,0.9-0.1,1.3-0.1
		c0.3,0,0.6,0,0.8,0c0.2,0,0.4,0.1,0.6,0.1v-0.2c0-0.4-0.1-0.7-0.4-1c-0.2-0.2-0.7-0.3-1.2-0.3c-0.4,0-0.8,0-1.2,0.1
		c-0.4,0.1-0.7,0.1-1,0.2l-0.3-1.9c0.1,0,0.3-0.1,0.5-0.1c0.2,0,0.4-0.1,0.7-0.1c0.2,0,0.5-0.1,0.8-0.1
		C626.7,423.2,627,423.2,627.3,423.2z M627.5,430c0.2,0,0.4,0,0.7,0c0.2,0,0.4,0,0.5,0v-1.8c-0.1,0-0.2,0-0.4-0.1
		c-0.2,0-0.4,0-0.5,0c-0.2,0-0.4,0-0.6,0c-0.2,0-0.4,0.1-0.5,0.2c-0.1,0.1-0.2,0.2-0.3,0.3c-0.1,0.1-0.1,0.3-0.1,0.5
		c0,0.4,0.1,0.6,0.4,0.8C626.7,429.9,627,430,627.5,430z"/>
	<path class="st2" d="M639.7,425.3h-2.6v6.3h-2.3v-6.3h-2.6v-1.9h7.6V425.3L639.7,425.3z"/>
	<path class="st2" d="M644.1,423.2c0.7,0,1.3,0.1,1.7,0.2c0.5,0.2,0.8,0.4,1.1,0.7c0.3,0.3,0.5,0.6,0.6,1.1c0.1,0.4,0.2,0.9,0.2,1.4
		v4.8c-0.3,0.1-0.8,0.1-1.4,0.2c-0.6,0.1-1.3,0.1-2.2,0.1c-0.5,0-1,0-1.4-0.1c-0.4-0.1-0.8-0.2-1.1-0.5c-0.3-0.2-0.6-0.5-0.7-0.8
		c-0.2-0.4-0.2-0.8-0.2-1.3c0-0.5,0.1-0.9,0.3-1.2c0.2-0.3,0.4-0.6,0.8-0.8c0.3-0.2,0.7-0.3,1.1-0.4c0.4-0.1,0.8-0.1,1.3-0.1
		c0.3,0,0.6,0,0.8,0c0.2,0,0.4,0.1,0.6,0.1v-0.2c0-0.4-0.1-0.7-0.4-1c-0.2-0.2-0.7-0.3-1.2-0.3c-0.4,0-0.8,0-1.2,0.1
		c-0.4,0.1-0.7,0.1-1,0.2l-0.3-1.9c0.1,0,0.3-0.1,0.5-0.1c0.2,0,0.4-0.1,0.7-0.1c0.2,0,0.5-0.1,0.8-0.1
		C643.5,423.2,643.8,423.2,644.1,423.2z M644.3,430c0.2,0,0.4,0,0.7,0c0.2,0,0.4,0,0.5,0v-1.8c-0.1,0-0.2,0-0.4-0.1
		c-0.2,0-0.4,0-0.5,0c-0.2,0-0.4,0-0.6,0c-0.2,0-0.4,0.1-0.5,0.2c-0.1,0.1-0.2,0.2-0.3,0.3c-0.1,0.1-0.1,0.3-0.1,0.5
		c0,0.4,0.1,0.6,0.4,0.8C643.5,429.9,643.8,430,644.3,430z"/>
	<path class="st2" d="M649.3,425.9h4.5v2.1h-4.5V425.9z"/>
	<path class="st2" d="M663.2,427.5c0,0.6-0.1,1.2-0.3,1.8c-0.2,0.5-0.5,1-0.8,1.4c-0.4,0.4-0.8,0.7-1.3,0.9
		c-0.5,0.2-1.1,0.3-1.7,0.3c-0.6,0-1.2-0.1-1.6-0.3c-0.5-0.2-0.9-0.5-1.3-0.9c-0.3-0.4-0.6-0.8-0.8-1.4c-0.2-0.5-0.3-1.1-0.3-1.8
		c0-0.6,0.1-1.2,0.3-1.8c0.2-0.5,0.5-1,0.8-1.4c0.4-0.4,0.8-0.7,1.3-0.9c0.5-0.2,1-0.3,1.6-0.3c0.6,0,1.1,0.1,1.6,0.3
		c0.5,0.2,0.9,0.5,1.3,0.9c0.3,0.4,0.6,0.8,0.8,1.4C663,426.3,663.2,426.9,663.2,427.5z M660.8,427.5c0-0.7-0.2-1.3-0.4-1.7
		c-0.3-0.4-0.7-0.6-1.2-0.6c-0.5,0-0.9,0.2-1.2,0.6c-0.3,0.4-0.4,1-0.4,1.7c0,0.7,0.1,1.3,0.4,1.7c0.3,0.4,0.7,0.6,1.2,0.6
		c0.5,0,0.9-0.2,1.2-0.6C660.6,428.8,660.8,428.2,660.8,427.5z"/>
	<path class="st2" d="M671.7,425.3h-2.6v6.3h-2.3v-6.3h-2.6v-1.9h7.6V425.3z"/>
	<path class="st2" d="M671.9,429.7h1c0.3-0.4,0.5-0.8,0.7-1.3c0.2-0.5,0.3-1.1,0.3-1.7c0.1-0.6,0.1-1.2,0.1-1.8c0-0.6,0-1.1,0-1.6
		h6.4v6.3h1.4v4.2h-2v-2.3h-6v2.3h-2V429.7z M678.1,429.7v-4.4h-1.9c0,0.4,0,0.7-0.1,1.1c0,0.4-0.1,0.8-0.1,1.2
		c-0.1,0.4-0.2,0.8-0.3,1.1c-0.1,0.4-0.3,0.7-0.4,1H678.1L678.1,429.7z"/>
	<path class="st2" d="M682.8,427.6c0-0.7,0.1-1.4,0.3-1.9c0.2-0.5,0.5-1,0.9-1.4c0.4-0.4,0.8-0.6,1.2-0.8c0.5-0.2,1-0.3,1.5-0.3
		c1.2,0,2.1,0.4,2.8,1.1c0.7,0.7,1,1.8,1,3.1c0,0.1,0,0.3,0,0.5s0,0.3,0,0.4h-5.3c0.1,0.5,0.3,0.9,0.7,1.1c0.4,0.3,0.9,0.4,1.6,0.4
		c0.4,0,0.8,0,1.3-0.1s0.7-0.2,1-0.3l0.3,1.9c-0.1,0.1-0.3,0.1-0.5,0.2c-0.2,0.1-0.4,0.1-0.7,0.2c-0.2,0-0.5,0.1-0.8,0.1
		s-0.6,0.1-0.9,0.1c-0.7,0-1.4-0.1-1.9-0.3c-0.5-0.2-1-0.5-1.3-0.9s-0.6-0.8-0.8-1.3C682.9,428.7,682.8,428.2,682.8,427.6z
		 M688.3,426.7c0-0.2,0-0.4-0.1-0.6c0-0.2-0.1-0.3-0.3-0.5c-0.1-0.1-0.3-0.3-0.5-0.4c-0.2-0.1-0.4-0.1-0.7-0.1
		c-0.3,0-0.5,0.1-0.7,0.1c-0.2,0.1-0.3,0.2-0.5,0.4c-0.1,0.1-0.2,0.3-0.3,0.5c-0.1,0.2-0.1,0.4-0.2,0.6H688.3L688.3,426.7
		L688.3,426.7z"/>
	<path class="st2" d="M696,425.3c0,0.3,0,0.6,0,1c0,0.3,0,0.7-0.1,1c0,0.3-0.1,0.7-0.2,1c-0.1,0.3-0.2,0.6-0.3,0.9
		c-0.1,0.3-0.3,0.6-0.5,0.9c-0.2,0.3-0.4,0.5-0.7,0.8c-0.3,0.2-0.7,0.4-1.1,0.6c-0.4,0.1-0.9,0.2-1.5,0.3l-0.3-1.9
		c0.5-0.1,0.9-0.3,1.2-0.5c0.3-0.2,0.5-0.4,0.7-0.7c0.1-0.3,0.2-0.6,0.3-0.9c0.1-0.3,0.1-0.7,0.1-1.1c0-0.4,0.1-0.8,0.1-1.2
		c0-0.4,0-0.8,0-1.1v-0.9h6.1v8.2h-2.3v-6.3H696z"/>
	<path class="st2" d="M710,427.9c-0.5,0-0.8,0.1-1,0.4c-0.2,0.3-0.3,0.6-0.3,1.1v2.4c0,0.5-0.1,0.8-0.2,1.2
		c-0.1,0.3-0.3,0.6-0.6,0.9c-0.3,0.2-0.6,0.4-1.1,0.5c-0.5,0.1-1,0.2-1.7,0.2h-0.3v-1.9h0.4c0.5,0,0.8-0.1,0.9-0.3
		c0.2-0.2,0.2-0.5,0.2-1v-2.1c0-0.5,0.1-1,0.2-1.4c0.2-0.4,0.4-0.7,0.9-1c-0.4-0.3-0.7-0.6-0.9-1c-0.1-0.4-0.2-0.8-0.2-1.4v-2.1
		c0-0.4-0.1-0.8-0.2-1c-0.2-0.2-0.5-0.3-0.9-0.3h-0.4v-1.9h0.3c0.7,0,1.2,0.1,1.7,0.2c0.4,0.1,0.8,0.3,1.1,0.6
		c0.3,0.2,0.5,0.5,0.6,0.9c0.1,0.3,0.2,0.8,0.2,1.2v2.4c0,0.4,0.1,0.8,0.3,1.1c0.2,0.3,0.5,0.4,1,0.4V427.9z"/>
	<path class="st3" d="M30,326.1c0,0,40.7,1.2,60.6,2.4s40.9,2,60.6,5.2c19.8,3.1,40.9,11,60.6,14.1c19.8,3.1,40.7,3.1,60.6,4.8
		c19.9,1.6,40.6,4.5,60.6,5.2c20,0.6,40.6-1.3,60.6-1.3s40.6,0.3,60.6,1.3c20,1,40.7,3.6,60.6,4.8c20,1.2,40.7,1.5,60.6,2.4
		c20,0.9,40.7,1.9,60.6,3.1c20,1.3,60.6,4.6,60.6,4.6"/>
	<path class="st4" d="M30,143.3c0,0,40.8,9.4,60.6,12.2c19.8,2.8,40.9,1.6,60.6,5.1c19.7,3.5,40.6,16.8,60.6,16.6
		c20-0.2,42-10.5,60.6-17.9c18.6-7.3,42-22.7,60.6-30c18.6-7.3,40.7-15.6,60.6-17.5c19.9-1.9,41.4,0.3,60.6,5.9
		c19.2,5.7,41.9,22.8,60.6,29.7c18.8,6.9,41.1,10.6,60.6,14.8c19.5,4.2,40.8,8.9,60.6,11.3c19.8,2.4,60.6,3.4,60.6,3.4"/>
	<path class="st1" d="M5.7,111.6c0,0.4-0.1,0.8-0.3,1.1c-0.2,0.3-0.5,0.6-0.9,0.8c0.4,0.2,0.8,0.5,1.1,0.8c0.3,0.4,0.4,0.8,0.4,1.2
		c0,0.7-0.2,1.3-0.8,1.8c-0.5,0.4-1.1,0.7-2,0.7c-0.8,0-1.5-0.2-2-0.7c-0.5-0.4-0.7-1-0.7-1.8c0-0.5,0.1-0.9,0.4-1.2
		c0.2-0.4,0.6-0.7,1-0.8c-0.4-0.2-0.7-0.4-0.9-0.8c-0.2-0.3-0.3-0.7-0.3-1.1c0-0.7,0.2-1.3,0.7-1.7c0.5-0.4,1.1-0.6,1.8-0.6
		c0.8,0,1.4,0.2,1.8,0.6C5.4,110.4,5.7,110.9,5.7,111.6z M4.8,115.6c0-0.5-0.1-0.9-0.4-1.2C4,114.2,3.6,114,3.1,114
		c-0.5,0-0.9,0.1-1.2,0.4c-0.3,0.3-0.4,0.7-0.4,1.2c0,0.5,0.1,0.9,0.4,1.1c0.3,0.3,0.7,0.4,1.2,0.4c0.5,0,0.9-0.1,1.2-0.4
		S4.8,116.1,4.8,115.6z M3.1,110.2c-0.4,0-0.8,0.1-1,0.4c-0.3,0.3-0.4,0.6-0.4,1.1c0,0.4,0.1,0.8,0.4,1c0.3,0.3,0.6,0.4,1,0.4
		c0.4,0,0.8-0.1,1-0.4c0.2-0.3,0.4-0.6,0.4-1c0-0.4-0.1-0.8-0.4-1.1C3.9,110.3,3.6,110.2,3.1,110.2z M7.7,113.7l0.4-4.2h4.4v1H9.1
		l-0.2,2.3c0.4-0.2,0.9-0.4,1.4-0.4c0.8,0,1.4,0.2,1.9,0.8c0.5,0.5,0.7,1.2,0.7,2.1c0,0.9-0.2,1.6-0.7,2.1c-0.5,0.5-1.1,0.8-2,0.8
		c-0.8,0-1.4-0.2-1.8-0.6c-0.5-0.4-0.8-1-0.8-1.7h1c0.1,0.5,0.2,0.8,0.5,1.1s0.7,0.4,1.1,0.4c0.5,0,0.9-0.2,1.2-0.5
		c0.3-0.3,0.4-0.8,0.4-1.4c0-0.6-0.1-1-0.5-1.4c-0.3-0.4-0.7-0.5-1.2-0.5c-0.5,0-0.8,0.1-1.1,0.3l-0.3,0.2L7.7,113.7z M19.3,114.3
		c0,1.3-0.2,2.2-0.6,2.8s-1.1,0.9-2,0.9c-0.9,0-1.6-0.3-2-0.9c-0.4-0.6-0.7-1.5-0.7-2.7V113c0-1.2,0.2-2.2,0.6-2.8
		c0.4-0.6,1.1-0.9,2-0.9c0.9,0,1.6,0.3,2,0.9c0.4,0.6,0.7,1.5,0.7,2.7V114.3z M18.2,112.8c0-0.9-0.1-1.6-0.4-2s-0.7-0.6-1.2-0.6
		c-0.6,0-1,0.2-1.2,0.6c-0.2,0.4-0.4,1.1-0.4,1.9v1.7c0,0.9,0.1,1.6,0.4,2c0.3,0.4,0.7,0.7,1.2,0.7c0.5,0,0.9-0.2,1.2-0.6
		c0.3-0.4,0.4-1.1,0.4-2V112.8z M26,114.3c0,1.3-0.2,2.2-0.6,2.8s-1.1,0.9-2,0.9c-0.9,0-1.6-0.3-2-0.9c-0.4-0.6-0.7-1.5-0.7-2.7V113
		c0-1.2,0.2-2.2,0.6-2.8c0.4-0.6,1.1-0.9,2-0.9c0.9,0,1.6,0.3,2,0.9c0.4,0.6,0.7,1.5,0.7,2.7V114.3z M25,112.8c0-0.9-0.1-1.6-0.4-2
		c-0.3-0.4-0.7-0.6-1.2-0.6c-0.6,0-1,0.2-1.2,0.6c-0.2,0.4-0.4,1.1-0.4,1.9v1.7c0,0.9,0.1,1.6,0.4,2c0.3,0.4,0.7,0.7,1.2,0.7
		c0.5,0,0.9-0.2,1.2-0.6c0.3-0.4,0.4-1.1,0.4-2V112.8z"/>
	<path class="st1" d="M6,142.5l-3.5,7.9H1.3l3.5-7.6H0.2v-0.9H6V142.5z M7.7,146.2l0.4-4.2h4.4v1H9.1l-0.2,2.3
		c0.4-0.2,0.9-0.4,1.4-0.4c0.8,0,1.4,0.2,1.9,0.8c0.5,0.5,0.7,1.2,0.7,2.1c0,0.9-0.2,1.6-0.7,2.1c-0.5,0.5-1.1,0.8-2,0.8
		c-0.8,0-1.4-0.2-1.8-0.6c-0.5-0.4-0.8-1-0.8-1.7h1c0.1,0.5,0.2,0.9,0.5,1.1s0.7,0.4,1.1,0.4c0.5,0,0.9-0.2,1.2-0.5
		c0.3-0.3,0.4-0.8,0.4-1.4c0-0.6-0.1-1-0.5-1.4c-0.3-0.4-0.7-0.5-1.2-0.5c-0.5,0-0.8,0.1-1.1,0.3l-0.3,0.2L7.7,146.2z M19.3,146.8
		c0,1.3-0.2,2.2-0.6,2.8s-1.1,0.9-2,0.9c-0.9,0-1.6-0.3-2-0.9c-0.4-0.6-0.7-1.5-0.7-2.7v-1.4c0-1.2,0.2-2.2,0.6-2.8
		c0.4-0.6,1.1-0.9,2-0.9c0.9,0,1.6,0.3,2,0.9c0.4,0.6,0.7,1.5,0.7,2.7V146.8z M18.2,145.3c0-0.9-0.1-1.6-0.4-2
		c-0.3-0.4-0.7-0.6-1.2-0.6c-0.6,0-1,0.2-1.2,0.6c-0.2,0.4-0.4,1.1-0.4,1.9v1.7c0,0.9,0.1,1.6,0.4,2c0.3,0.4,0.7,0.7,1.2,0.7
		c0.5,0,0.9-0.2,1.2-0.6c0.3-0.4,0.4-1.1,0.4-2V145.3z M26,146.8c0,1.3-0.2,2.2-0.6,2.8s-1.1,0.9-2,0.9c-0.9,0-1.6-0.3-2-0.9
		c-0.4-0.6-0.7-1.5-0.7-2.7v-1.4c0-1.2,0.2-2.2,0.6-2.8c0.4-0.6,1.1-0.9,2-0.9c0.9,0,1.6,0.3,2,0.9s0.7,1.5,0.7,2.7V146.8z
		 M25,145.3c0-0.9-0.1-1.6-0.4-2c-0.3-0.4-0.7-0.6-1.2-0.6c-0.6,0-1,0.2-1.2,0.6c-0.2,0.4-0.4,1.1-0.4,1.9v1.7c0,0.9,0.1,1.6,0.4,2
		c0.3,0.4,0.7,0.7,1.2,0.7c0.5,0,0.9-0.2,1.2-0.6s0.4-1.1,0.4-2V145.3z"/>
	<path class="st1" d="M4.7,174.4v0.9H4.5c-0.8,0-1.5,0.3-2,0.8c-0.5,0.5-0.8,1.2-0.9,2.1c0.4-0.5,1.1-0.8,1.8-0.8
		c0.7,0,1.3,0.3,1.8,0.8c0.5,0.5,0.7,1.2,0.7,2c0,0.9-0.2,1.6-0.7,2.1c-0.5,0.5-1.1,0.8-1.9,0.8c-0.8,0-1.5-0.3-2-0.9
		c-0.5-0.6-0.8-1.4-0.8-2.4v-0.4c0-1.6,0.3-2.8,1-3.6c0.7-0.8,1.7-1.3,3-1.3H4.7z M3.3,178.3c-0.4,0-0.7,0.1-1,0.3s-0.5,0.5-0.6,0.8
		v0.4c0,0.7,0.2,1.3,0.5,1.7c0.3,0.4,0.7,0.6,1.2,0.6c0.5,0,0.9-0.2,1.2-0.5s0.4-0.8,0.4-1.4c0-0.6-0.1-1.1-0.4-1.4
		C4.2,178.4,3.8,178.3,3.3,178.3z M7.7,178.7l0.4-4.2h4.4v1H9.1l-0.2,2.3c0.4-0.2,0.9-0.4,1.4-0.4c0.8,0,1.4,0.2,1.9,0.8
		c0.5,0.5,0.7,1.2,0.7,2.1c0,0.9-0.2,1.6-0.7,2.1c-0.5,0.5-1.1,0.8-2,0.8c-0.8,0-1.4-0.2-1.8-0.6c-0.5-0.4-0.8-1-0.8-1.7h1
		c0.1,0.5,0.2,0.9,0.5,1.1s0.7,0.4,1.1,0.4c0.5,0,0.9-0.2,1.2-0.5c0.3-0.3,0.4-0.8,0.4-1.4c0-0.6-0.1-1-0.5-1.4
		c-0.3-0.3-0.7-0.5-1.2-0.5c-0.5,0-0.8,0.1-1.1,0.3l-0.3,0.2L7.7,178.7z M19.3,179.3c0,1.3-0.2,2.2-0.6,2.8s-1.1,0.9-2,0.9
		c-0.9,0-1.6-0.3-2-0.9c-0.4-0.6-0.7-1.5-0.7-2.7V178c0-1.2,0.2-2.2,0.6-2.8c0.4-0.6,1.1-0.9,2-0.9c0.9,0,1.6,0.3,2,0.9
		c0.4,0.6,0.7,1.5,0.7,2.7V179.3z M18.2,177.8c0-0.9-0.1-1.6-0.4-2c-0.3-0.4-0.7-0.6-1.2-0.6c-0.6,0-1,0.2-1.2,0.6
		c-0.2,0.4-0.4,1.1-0.4,1.9v1.7c0,0.9,0.1,1.6,0.4,2c0.3,0.4,0.7,0.7,1.2,0.7c0.5,0,0.9-0.2,1.2-0.6c0.3-0.4,0.4-1.1,0.4-2V177.8z
		 M26,179.3c0,1.3-0.2,2.2-0.6,2.8s-1.1,0.9-2,0.9c-0.9,0-1.6-0.3-2-0.9c-0.4-0.6-0.7-1.5-0.7-2.7V178c0-1.2,0.2-2.2,0.6-2.8
		c0.4-0.6,1.1-0.9,2-0.9c0.9,0,1.6,0.3,2,0.9c0.4,0.6,0.7,1.5,0.7,2.7V179.3z M25,177.8c0-0.9-0.1-1.6-0.4-2
		c-0.3-0.4-0.7-0.6-1.2-0.6c-0.6,0-1,0.2-1.2,0.6c-0.2,0.4-0.4,1.1-0.4,1.9v1.7c0,0.9,0.1,1.6,0.4,2c0.3,0.4,0.7,0.7,1.2,0.7
		c0.5,0,0.9-0.2,1.2-0.6s0.4-1.1,0.4-2V177.8z"/>
	<path class="st1" d="M1,211.2l0.4-4.2h4.4v1H2.3l-0.3,2.3c0.4-0.2,0.9-0.4,1.4-0.4c0.8,0,1.4,0.2,1.9,0.8c0.5,0.5,0.7,1.2,0.7,2.1
		c0,0.9-0.2,1.6-0.7,2.1c-0.5,0.5-1.1,0.8-2,0.8c-0.8,0-1.4-0.2-1.9-0.6c-0.5-0.4-0.8-1-0.8-1.7h1c0.1,0.5,0.2,0.8,0.5,1.1
		c0.3,0.2,0.6,0.4,1.1,0.4c0.5,0,0.9-0.2,1.2-0.5c0.3-0.3,0.4-0.8,0.4-1.4c0-0.6-0.2-1-0.5-1.4c-0.3-0.3-0.7-0.5-1.2-0.5
		c-0.5,0-0.8,0.1-1.1,0.3l-0.3,0.2L1,211.2z M7.7,211.2l0.4-4.2h4.4v1H9.1l-0.2,2.3c0.4-0.2,0.9-0.4,1.4-0.4c0.8,0,1.4,0.2,1.9,0.8
		c0.5,0.5,0.7,1.2,0.7,2.1c0,0.9-0.2,1.6-0.7,2.1c-0.5,0.5-1.1,0.8-2,0.8c-0.8,0-1.4-0.2-1.8-0.6c-0.5-0.4-0.8-1-0.8-1.7h1
		c0.1,0.5,0.2,0.8,0.5,1.1s0.7,0.4,1.1,0.4c0.5,0,0.9-0.2,1.2-0.5c0.3-0.3,0.4-0.8,0.4-1.4c0-0.6-0.1-1-0.5-1.4
		c-0.3-0.3-0.7-0.5-1.2-0.5c-0.5,0-0.8,0.1-1.1,0.3l-0.3,0.2L7.7,211.2z M19.3,211.8c0,1.3-0.2,2.2-0.6,2.8s-1.1,0.9-2,0.9
		c-0.9,0-1.6-0.3-2-0.9c-0.4-0.6-0.7-1.5-0.7-2.7v-1.5c0-1.2,0.2-2.2,0.6-2.8c0.4-0.6,1.1-0.9,2-0.9c0.9,0,1.6,0.3,2,0.9
		c0.4,0.6,0.7,1.5,0.7,2.7V211.8z M18.2,210.3c0-0.9-0.1-1.6-0.4-2c-0.3-0.4-0.7-0.6-1.2-0.6c-0.6,0-1,0.2-1.2,0.6
		c-0.2,0.4-0.4,1.1-0.4,1.9v1.7c0,0.9,0.1,1.6,0.4,2s0.7,0.7,1.2,0.7c0.5,0,0.9-0.2,1.2-0.6c0.3-0.4,0.4-1.1,0.4-2V210.3z M26,211.8
		c0,1.3-0.2,2.2-0.6,2.8s-1.1,0.9-2,0.9c-0.9,0-1.6-0.3-2-0.9c-0.4-0.6-0.7-1.5-0.7-2.7v-1.5c0-1.2,0.2-2.2,0.6-2.8
		c0.4-0.6,1.1-0.9,2-0.9c0.9,0,1.6,0.3,2,0.9c0.4,0.6,0.7,1.5,0.7,2.7V211.8z M25,210.3c0-0.9-0.1-1.6-0.4-2
		c-0.3-0.4-0.7-0.6-1.2-0.6c-0.6,0-1,0.2-1.2,0.6c-0.2,0.4-0.4,1.1-0.4,1.9v1.7c0,0.9,0.1,1.6,0.4,2c0.3,0.4,0.7,0.7,1.2,0.7
		c0.5,0,0.9-0.2,1.2-0.6s0.4-1.1,0.4-2V210.3z"/>
	<path class="st1" d="M5.1,245.1h1.2v0.9H5.1v2H4v-2H0.1v-0.6l3.8-5.9h1.1V245.1z M1.3,245.1H4v-4.2l-0.1,0.2L1.3,245.1z M7.7,243.7
		l0.4-4.2h4.4v1H9.1l-0.2,2.3c0.4-0.2,0.9-0.4,1.4-0.4c0.8,0,1.4,0.2,1.9,0.8c0.5,0.5,0.7,1.2,0.7,2.1c0,0.9-0.2,1.6-0.7,2.1
		c-0.5,0.5-1.1,0.8-2,0.8c-0.8,0-1.4-0.2-1.8-0.6c-0.5-0.4-0.8-1-0.8-1.7h1c0.1,0.5,0.2,0.9,0.5,1.1s0.7,0.4,1.1,0.4
		c0.5,0,0.9-0.2,1.2-0.5c0.3-0.3,0.4-0.8,0.4-1.4c0-0.6-0.1-1-0.5-1.4c-0.3-0.3-0.7-0.5-1.2-0.5c-0.5,0-0.8,0.1-1.1,0.3l-0.3,0.2
		L7.7,243.7z M19.3,244.3c0,1.3-0.2,2.2-0.6,2.8s-1.1,0.9-2,0.9c-0.9,0-1.6-0.3-2-0.9c-0.4-0.6-0.7-1.5-0.7-2.7V243
		c0-1.2,0.2-2.2,0.6-2.8c0.4-0.6,1.1-0.9,2-0.9c0.9,0,1.6,0.3,2,0.9c0.4,0.6,0.7,1.5,0.7,2.7V244.3z M18.2,242.8
		c0-0.9-0.1-1.6-0.4-2c-0.3-0.4-0.7-0.6-1.2-0.6c-0.6,0-1,0.2-1.2,0.6c-0.2,0.4-0.4,1.1-0.4,1.9v1.7c0,0.9,0.1,1.6,0.4,2
		c0.3,0.4,0.7,0.7,1.2,0.7c0.5,0,0.9-0.2,1.2-0.6c0.3-0.4,0.4-1.1,0.4-2V242.8z M26,244.3c0,1.3-0.2,2.2-0.6,2.8s-1.1,0.9-2,0.9
		c-0.9,0-1.6-0.3-2-0.9c-0.4-0.6-0.7-1.5-0.7-2.7V243c0-1.2,0.2-2.2,0.6-2.8c0.4-0.6,1.1-0.9,2-0.9c0.9,0,1.6,0.3,2,0.9
		c0.4,0.6,0.7,1.5,0.7,2.7V244.3z M25,242.8c0-0.9-0.1-1.6-0.4-2c-0.3-0.4-0.7-0.6-1.2-0.6c-0.6,0-1,0.2-1.2,0.6
		c-0.2,0.4-0.4,1.1-0.4,1.9v1.7c0,0.9,0.1,1.6,0.4,2c0.3,0.4,0.7,0.7,1.2,0.7c0.5,0,0.9-0.2,1.2-0.6s0.4-1.1,0.4-2V242.8z"/>
	<path class="st1" d="M2.1,275.7h0.8c0.5,0,0.9-0.1,1.2-0.4c0.3-0.3,0.4-0.6,0.4-1.1c0-1-0.5-1.5-1.5-1.5c-0.5,0-0.8,0.1-1.1,0.4
		c-0.3,0.3-0.4,0.6-0.4,1.1H0.4c0-0.7,0.2-1.2,0.7-1.7c0.5-0.5,1.1-0.7,1.9-0.7c0.8,0,1.4,0.2,1.9,0.6c0.5,0.4,0.7,1,0.7,1.8
		c0,0.4-0.1,0.7-0.4,1.1c-0.2,0.4-0.6,0.6-1,0.8c0.5,0.1,0.8,0.4,1.1,0.7c0.3,0.3,0.4,0.8,0.4,1.3c0,0.8-0.2,1.4-0.8,1.8
		c-0.5,0.4-1.2,0.7-2,0.7s-1.5-0.2-2-0.7c-0.5-0.4-0.8-1-0.8-1.7h1.1c0,0.4,0.1,0.8,0.4,1.1c0.3,0.3,0.7,0.4,1.2,0.4
		c0.5,0,0.9-0.1,1.2-0.4c0.3-0.3,0.4-0.7,0.4-1.2c0-0.5-0.1-0.9-0.5-1.1c-0.3-0.3-0.7-0.4-1.3-0.4H2.1V275.7z M7.7,276.2l0.4-4.2
		h4.4v1H9.1l-0.2,2.3c0.4-0.2,0.9-0.4,1.4-0.4c0.8,0,1.4,0.2,1.9,0.8c0.5,0.5,0.7,1.2,0.7,2.1c0,0.9-0.2,1.6-0.7,2.1
		c-0.5,0.5-1.1,0.8-2,0.8c-0.8,0-1.4-0.2-1.8-0.6c-0.5-0.4-0.8-1-0.8-1.7h1c0.1,0.5,0.2,0.9,0.5,1.1s0.7,0.4,1.1,0.4
		c0.5,0,0.9-0.2,1.2-0.5c0.3-0.3,0.4-0.8,0.4-1.4c0-0.6-0.1-1-0.5-1.4c-0.3-0.4-0.7-0.5-1.2-0.5c-0.5,0-0.8,0.1-1.1,0.3l-0.3,0.2
		L7.7,276.2z M19.3,276.8c0,1.3-0.2,2.2-0.6,2.8c-0.4,0.6-1.1,0.9-2,0.9c-0.9,0-1.6-0.3-2-0.9c-0.4-0.6-0.7-1.5-0.7-2.7v-1.4
		c0-1.2,0.2-2.2,0.6-2.8c0.4-0.6,1.1-0.9,2-0.9c0.9,0,1.6,0.3,2,0.9c0.4,0.6,0.7,1.5,0.7,2.7V276.8z M18.2,275.3
		c0-0.9-0.1-1.6-0.4-2c-0.3-0.4-0.7-0.6-1.2-0.6c-0.6,0-1,0.2-1.2,0.6c-0.2,0.4-0.4,1.1-0.4,1.9v1.7c0,0.9,0.1,1.6,0.4,2
		c0.3,0.4,0.7,0.7,1.2,0.7c0.5,0,0.9-0.2,1.2-0.6c0.3-0.4,0.4-1.1,0.4-2V275.3z M26,276.8c0,1.3-0.2,2.2-0.6,2.8
		c-0.4,0.6-1.1,0.9-2,0.9c-0.9,0-1.6-0.3-2-0.9c-0.4-0.6-0.7-1.5-0.7-2.7v-1.4c0-1.2,0.2-2.2,0.6-2.8c0.4-0.6,1.1-0.9,2-0.9
		c0.9,0,1.6,0.3,2,0.9s0.7,1.5,0.7,2.7V276.8z M25,275.3c0-0.9-0.1-1.6-0.4-2c-0.3-0.4-0.7-0.6-1.2-0.6c-0.6,0-1,0.2-1.2,0.6
		c-0.2,0.4-0.4,1.1-0.4,1.9v1.7c0,0.9,0.1,1.6,0.4,2c0.3,0.4,0.7,0.7,1.2,0.7c0.5,0,0.9-0.2,1.2-0.6s0.4-1.1,0.4-2V275.3z"/>
	<path class="st1" d="M6.1,313H0.5v-0.8l3-3.3c0.4-0.5,0.7-0.9,0.9-1.2c0.2-0.3,0.2-0.6,0.2-1c0-0.4-0.1-0.8-0.4-1.1
		c-0.3-0.3-0.6-0.4-1.1-0.4c-0.5,0-1,0.1-1.3,0.5c-0.3,0.3-0.5,0.7-0.5,1.3H0.3c0-0.8,0.2-1.4,0.8-1.9c0.5-0.5,1.2-0.7,2-0.7
		c0.8,0,1.4,0.2,1.9,0.6c0.5,0.4,0.7,1,0.7,1.7c0,0.8-0.5,1.8-1.6,3l-2.3,2.5h4.3V313z M7.7,308.7l0.4-4.2h4.4v1H9.1l-0.2,2.3
		c0.4-0.2,0.9-0.4,1.4-0.4c0.8,0,1.4,0.2,1.9,0.8c0.5,0.5,0.7,1.2,0.7,2.1c0,0.9-0.2,1.6-0.7,2.1c-0.5,0.5-1.1,0.8-2,0.8
		c-0.8,0-1.4-0.2-1.8-0.6c-0.5-0.4-0.8-1-0.8-1.7h1c0.1,0.5,0.2,0.9,0.5,1.1s0.7,0.4,1.1,0.4c0.5,0,0.9-0.2,1.2-0.5
		c0.3-0.3,0.4-0.8,0.4-1.4c0-0.6-0.1-1-0.5-1.4c-0.3-0.4-0.7-0.5-1.2-0.5c-0.5,0-0.8,0.1-1.1,0.3l-0.3,0.2L7.7,308.7z M19.3,309.3
		c0,1.3-0.2,2.2-0.6,2.8c-0.4,0.6-1.1,0.9-2,0.9c-0.9,0-1.6-0.3-2-0.9c-0.4-0.6-0.7-1.5-0.7-2.7V308c0-1.2,0.2-2.2,0.6-2.8
		c0.4-0.6,1.1-0.9,2-0.9c0.9,0,1.6,0.3,2,0.9c0.4,0.6,0.7,1.5,0.7,2.7V309.3z M18.2,307.8c0-0.9-0.1-1.6-0.4-2
		c-0.3-0.4-0.7-0.6-1.2-0.6c-0.6,0-1,0.2-1.2,0.6c-0.2,0.4-0.4,1.1-0.4,1.9v1.7c0,0.9,0.1,1.6,0.4,2c0.3,0.4,0.7,0.7,1.2,0.7
		c0.5,0,0.9-0.2,1.2-0.6c0.3-0.4,0.4-1.1,0.4-2V307.8z M26,309.3c0,1.3-0.2,2.2-0.6,2.8c-0.4,0.6-1.1,0.9-2,0.9
		c-0.9,0-1.6-0.3-2-0.9c-0.4-0.6-0.7-1.5-0.7-2.7V308c0-1.2,0.2-2.2,0.6-2.8c0.4-0.6,1.1-0.9,2-0.9c0.9,0,1.6,0.3,2,0.9
		s0.7,1.5,0.7,2.7V309.3z M25,307.8c0-0.9-0.1-1.6-0.4-2c-0.3-0.4-0.7-0.6-1.2-0.6c-0.6,0-1,0.2-1.2,0.6c-0.2,0.4-0.4,1.1-0.4,1.9
		v1.7c0,0.9,0.1,1.6,0.4,2c0.3,0.4,0.7,0.7,1.2,0.7c0.5,0,0.9-0.2,1.2-0.6s0.4-1.1,0.4-2V307.8z"/>
	<path class="st1" d="M4,345.5H3v-7.2L0.8,339v-1l3.1-1.2H4V345.5z M7.7,341.2l0.4-4.2h4.4v1H9.1l-0.2,2.3c0.4-0.2,0.9-0.4,1.4-0.4
		c0.8,0,1.4,0.2,1.9,0.8c0.5,0.5,0.7,1.2,0.7,2.1c0,0.9-0.2,1.6-0.7,2.1c-0.5,0.5-1.1,0.8-2,0.8c-0.8,0-1.4-0.2-1.8-0.6
		c-0.5-0.4-0.8-1-0.8-1.7h1c0.1,0.5,0.2,0.9,0.5,1.1s0.7,0.4,1.1,0.4c0.5,0,0.9-0.2,1.2-0.5c0.3-0.3,0.4-0.8,0.4-1.4
		c0-0.6-0.1-1-0.5-1.4c-0.3-0.4-0.7-0.5-1.2-0.5c-0.5,0-0.8,0.1-1.1,0.3l-0.3,0.2L7.7,341.2z M19.3,341.8c0,1.3-0.2,2.2-0.6,2.8
		c-0.4,0.6-1.1,0.9-2,0.9c-0.9,0-1.6-0.3-2-0.9c-0.4-0.6-0.7-1.5-0.7-2.7v-1.4c0-1.2,0.2-2.2,0.6-2.8c0.4-0.6,1.1-0.9,2-0.9
		c0.9,0,1.6,0.3,2,0.9c0.4,0.6,0.7,1.5,0.7,2.7V341.8z M18.2,340.3c0-0.9-0.1-1.6-0.4-2c-0.3-0.4-0.7-0.6-1.2-0.6
		c-0.6,0-1,0.2-1.2,0.6c-0.2,0.4-0.4,1.1-0.4,1.9v1.7c0,0.9,0.1,1.6,0.4,2c0.3,0.4,0.7,0.7,1.2,0.7c0.5,0,0.9-0.2,1.2-0.6
		c0.3-0.4,0.4-1.1,0.4-2V340.3z M26,341.8c0,1.3-0.2,2.2-0.6,2.8c-0.4,0.6-1.1,0.9-2,0.9c-0.9,0-1.6-0.3-2-0.9
		c-0.4-0.6-0.7-1.5-0.7-2.7v-1.4c0-1.2,0.2-2.2,0.6-2.8c0.4-0.6,1.1-0.9,2-0.9c0.9,0,1.6,0.3,2,0.9s0.7,1.5,0.7,2.7V341.8z
		 M25,340.3c0-0.9-0.1-1.6-0.4-2c-0.3-0.4-0.7-0.6-1.2-0.6c-0.6,0-1,0.2-1.2,0.6c-0.2,0.4-0.4,1.1-0.4,1.9v1.7c0,0.9,0.1,1.6,0.4,2
		c0.3,0.4,0.7,0.7,1.2,0.7c0.5,0,0.9-0.2,1.2-0.6s0.4-1.1,0.4-2V340.3z"/>
	<path class="st1" d="M7.7,373.7l0.4-4.2h4.4v1H9.1l-0.2,2.3c0.4-0.2,0.9-0.4,1.4-0.4c0.8,0,1.4,0.2,1.9,0.8
		c0.5,0.5,0.7,1.2,0.7,2.1c0,0.9-0.2,1.6-0.7,2.1c-0.5,0.5-1.1,0.8-2,0.8c-0.8,0-1.4-0.2-1.8-0.6c-0.5-0.4-0.8-1-0.8-1.7h1
		c0.1,0.5,0.2,0.8,0.5,1.1s0.7,0.4,1.1,0.4c0.5,0,0.9-0.2,1.2-0.5c0.3-0.3,0.4-0.8,0.4-1.4c0-0.6-0.1-1-0.5-1.4
		c-0.3-0.3-0.7-0.5-1.2-0.5c-0.5,0-0.8,0.1-1.1,0.3l-0.3,0.2L7.7,373.7z M19.3,374.3c0,1.3-0.2,2.2-0.6,2.8s-1.1,0.9-2,0.9
		c-0.9,0-1.6-0.3-2-0.9c-0.4-0.6-0.7-1.5-0.7-2.7V373c0-1.2,0.2-2.2,0.6-2.8c0.4-0.6,1.1-0.9,2-0.9c0.9,0,1.6,0.3,2,0.9
		c0.4,0.6,0.7,1.5,0.7,2.7V374.3z M18.2,372.8c0-0.9-0.1-1.6-0.4-2c-0.3-0.4-0.7-0.6-1.2-0.6c-0.6,0-1,0.2-1.2,0.6
		c-0.2,0.4-0.4,1.1-0.4,1.9v1.7c0,0.9,0.1,1.6,0.4,2s0.7,0.7,1.2,0.7c0.5,0,0.9-0.2,1.2-0.6c0.3-0.4,0.4-1.1,0.4-2V372.8z M26,374.3
		c0,1.3-0.2,2.2-0.6,2.8s-1.1,0.9-2,0.9c-0.9,0-1.6-0.3-2-0.9c-0.4-0.6-0.7-1.5-0.7-2.7V373c0-1.2,0.2-2.2,0.6-2.8
		c0.4-0.6,1.1-0.9,2-0.9c0.9,0,1.6,0.3,2,0.9c0.4,0.6,0.7,1.5,0.7,2.7V374.3z M25,372.8c0-0.9-0.1-1.6-0.4-2
		c-0.3-0.4-0.7-0.6-1.2-0.6c-0.6,0-1,0.2-1.2,0.6c-0.2,0.4-0.4,1.1-0.4,1.9v1.7c0,0.9,0.1,1.6,0.4,2c0.3,0.4,0.7,0.7,1.2,0.7
		c0.5,0,0.9-0.2,1.2-0.6s0.4-1.1,0.4-2V372.8z"/>
	<path class="st1" d="M23,404.6h-5.6v-0.8l3-3.3c0.4-0.5,0.7-0.9,0.9-1.2c0.2-0.3,0.2-0.6,0.2-1c0-0.5-0.1-0.8-0.4-1.1
		c-0.3-0.3-0.6-0.4-1.1-0.4c-0.5,0-1,0.2-1.3,0.5c-0.3,0.3-0.4,0.7-0.4,1.3h-1.1c0-0.8,0.2-1.4,0.8-1.9c0.5-0.5,1.2-0.7,2-0.7
		c0.8,0,1.4,0.2,1.9,0.6c0.5,0.4,0.7,1,0.7,1.7c0,0.8-0.5,1.8-1.6,3l-2.3,2.5H23V404.6z M29.5,400.9c0,1.3-0.2,2.2-0.6,2.8
		c-0.4,0.6-1.1,0.9-2,0.9c-0.9,0-1.6-0.3-2-0.9c-0.4-0.6-0.7-1.5-0.7-2.7v-1.4c0-1.2,0.2-2.2,0.7-2.8c0.4-0.6,1.1-0.9,2-0.9
		c0.9,0,1.6,0.3,2,0.9c0.4,0.6,0.7,1.5,0.7,2.7V400.9z M28.4,399.5c0-0.9-0.1-1.6-0.4-2c-0.3-0.4-0.7-0.6-1.2-0.6
		c-0.6,0-1,0.2-1.2,0.6c-0.2,0.4-0.4,1.1-0.4,1.9v1.7c0,0.9,0.1,1.6,0.4,2.1c0.3,0.4,0.7,0.6,1.2,0.6c0.5,0,0.9-0.2,1.2-0.6
		c0.3-0.4,0.4-1.1,0.4-2V399.5z M36.2,400.9c0,1.3-0.2,2.2-0.7,2.8c-0.4,0.6-1.1,0.9-2,0.9c-0.9,0-1.6-0.3-2-0.9
		c-0.4-0.6-0.7-1.5-0.7-2.7v-1.4c0-1.2,0.2-2.2,0.6-2.8c0.4-0.6,1.1-0.9,2-0.9s1.6,0.3,2,0.9c0.4,0.6,0.7,1.5,0.7,2.7V400.9z
		 M35.1,399.5c0-0.9-0.1-1.6-0.4-2c-0.3-0.4-0.7-0.6-1.2-0.6c-0.5,0-1,0.2-1.2,0.6c-0.2,0.4-0.4,1.1-0.4,1.9v1.7
		c0,0.9,0.1,1.6,0.4,2.1c0.3,0.4,0.7,0.6,1.2,0.6c0.5,0,0.9-0.2,1.2-0.6c0.3-0.4,0.4-1.1,0.4-2V399.5z M41.8,400.8
		c-0.2,0.3-0.5,0.5-0.8,0.6c-0.3,0.2-0.7,0.2-1,0.2c-0.5,0-0.9-0.1-1.3-0.4c-0.4-0.2-0.7-0.6-0.9-1c-0.2-0.4-0.3-0.9-0.3-1.4
		c0-0.6,0.1-1.1,0.3-1.5c0.2-0.5,0.5-0.8,0.9-1.1c0.4-0.2,0.9-0.4,1.4-0.4c0.8,0,1.5,0.3,2,1c0.5,0.6,0.7,1.5,0.7,2.6v0.3
		c0,1.7-0.3,2.9-1,3.6c-0.7,0.8-1.6,1.2-3,1.2h-0.2v-0.9h0.2c0.9,0,1.6-0.2,2.1-0.7C41.5,402.5,41.7,401.8,41.8,400.8z M40.1,400.8
		c0.4,0,0.7-0.1,1-0.3c0.3-0.2,0.5-0.5,0.7-0.8v-0.4c0-0.7-0.2-1.3-0.5-1.7c-0.3-0.4-0.7-0.7-1.2-0.7c-0.5,0-0.9,0.2-1.2,0.5
		c-0.3,0.4-0.4,0.8-0.4,1.5c0,0.6,0.1,1.1,0.4,1.4C39.3,400.6,39.6,400.8,40.1,400.8z"/>
	<path class="st1" d="M83.6,404.6H78v-0.8l3-3.3c0.4-0.5,0.7-0.9,0.9-1.2c0.2-0.3,0.2-0.6,0.2-1c0-0.5-0.1-0.8-0.4-1.1
		c-0.3-0.3-0.6-0.4-1.1-0.4c-0.5,0-1,0.2-1.3,0.5c-0.3,0.3-0.4,0.7-0.4,1.3h-1.1c0-0.8,0.2-1.4,0.8-1.9c0.5-0.5,1.2-0.7,2-0.7
		c0.8,0,1.4,0.2,1.9,0.6c0.5,0.4,0.7,1,0.7,1.7c0,0.8-0.5,1.8-1.6,3l-2.3,2.5h4.3V404.6z M90.1,400.9c0,1.3-0.2,2.2-0.6,2.8
		c-0.4,0.6-1.1,0.9-2,0.9c-0.9,0-1.6-0.3-2-0.9c-0.4-0.6-0.7-1.5-0.7-2.7v-1.4c0-1.2,0.2-2.2,0.6-2.8s1.1-0.9,2-0.9
		c0.9,0,1.6,0.3,2,0.9c0.4,0.6,0.6,1.5,0.7,2.7V400.9z M89,399.5c0-0.9-0.1-1.6-0.4-2c-0.3-0.4-0.7-0.6-1.2-0.6s-1,0.2-1.2,0.6
		c-0.3,0.4-0.4,1.1-0.4,1.9v1.7c0,0.9,0.1,1.6,0.4,2.1c0.3,0.4,0.7,0.6,1.2,0.6c0.5,0,0.9-0.2,1.2-0.6c0.3-0.4,0.4-1.1,0.4-2V399.5z
		 M95,404.6h-1.1v-7.2l-2.2,0.8v-1l3.1-1.2H95V404.6z M103.6,400.9c0,1.3-0.2,2.2-0.7,2.8c-0.4,0.6-1.1,0.9-2,0.9
		c-0.9,0-1.6-0.3-2-0.9c-0.4-0.6-0.7-1.5-0.7-2.7v-1.4c0-1.2,0.2-2.2,0.6-2.8c0.4-0.6,1.1-0.9,2-0.9c0.9,0,1.6,0.3,2,0.9
		c0.4,0.6,0.7,1.5,0.7,2.7V400.9z M102.5,399.5c0-0.9-0.1-1.6-0.4-2c-0.3-0.4-0.7-0.6-1.2-0.6c-0.6,0-1,0.2-1.2,0.6
		c-0.2,0.4-0.4,1.1-0.4,1.9v1.7c0,0.9,0.1,1.6,0.4,2.1c0.3,0.4,0.7,0.6,1.2,0.6c0.5,0,0.9-0.2,1.2-0.6c0.3-0.4,0.4-1.1,0.4-2V399.5z
		"/>
	<path class="st1" d="M145.1,404.6h-5.6v-0.8l2.9-3.3c0.4-0.5,0.7-0.9,0.9-1.2c0.2-0.3,0.2-0.6,0.2-1c0-0.5-0.1-0.8-0.4-1.1
		c-0.3-0.3-0.6-0.4-1.1-0.4c-0.5,0-1,0.2-1.3,0.5c-0.3,0.3-0.4,0.7-0.4,1.3h-1.1c0-0.8,0.2-1.4,0.8-1.9s1.2-0.7,2-0.7
		c0.8,0,1.4,0.2,1.9,0.6c0.5,0.4,0.7,1,0.7,1.7c0,0.8-0.5,1.8-1.6,3l-2.3,2.5h4.3V404.6z M151.6,400.9c0,1.3-0.2,2.2-0.7,2.8
		c-0.4,0.6-1.1,0.9-2,0.9c-0.9,0-1.6-0.3-2-0.9c-0.4-0.6-0.7-1.5-0.7-2.7v-1.4c0-1.2,0.2-2.2,0.6-2.8c0.4-0.6,1.1-0.9,2-0.9
		c0.9,0,1.6,0.3,2,0.9c0.4,0.6,0.6,1.5,0.7,2.7V400.9z M150.5,399.5c0-0.9-0.1-1.6-0.4-2c-0.3-0.4-0.7-0.6-1.2-0.6s-1,0.2-1.2,0.6
		c-0.3,0.4-0.4,1.1-0.4,1.9v1.7c0,0.9,0.1,1.6,0.4,2.1c0.3,0.4,0.7,0.6,1.2,0.6c0.5,0,0.9-0.2,1.2-0.6c0.3-0.4,0.4-1.1,0.4-2V399.5z
		 M156.6,404.6h-1.1v-7.2l-2.2,0.8v-1l3.1-1.2h0.2V404.6z M163.3,404.6h-1.1v-7.2l-2.2,0.8v-1l3.1-1.2h0.2V404.6z"/>
	<path class="st1" d="M204.7,404.6h-5.6v-0.8l2.9-3.3c0.4-0.5,0.7-0.9,0.9-1.2c0.2-0.3,0.2-0.6,0.2-1c0-0.5-0.1-0.8-0.4-1.1
		c-0.3-0.3-0.6-0.4-1.1-0.4c-0.5,0-0.9,0.2-1.2,0.5c-0.3,0.3-0.4,0.7-0.4,1.3H199c0-0.8,0.3-1.4,0.8-1.9c0.5-0.5,1.2-0.7,2-0.7
		c0.8,0,1.4,0.2,1.9,0.6c0.5,0.4,0.7,1,0.7,1.7c0,0.8-0.5,1.8-1.6,3l-2.3,2.5h4.3V404.6z M211.2,400.9c0,1.3-0.2,2.2-0.6,2.8
		c-0.4,0.6-1.1,0.9-2,0.9c-0.9,0-1.6-0.3-2-0.9c-0.4-0.6-0.7-1.5-0.7-2.7v-1.4c0-1.2,0.2-2.2,0.7-2.8c0.4-0.6,1.1-0.9,2-0.9
		c0.9,0,1.6,0.3,2,0.9c0.4,0.6,0.7,1.5,0.7,2.7V400.9z M210.1,399.5c0-0.9-0.1-1.6-0.4-2c-0.3-0.4-0.7-0.6-1.2-0.6
		c-0.6,0-1,0.2-1.2,0.6c-0.3,0.4-0.4,1.1-0.4,1.9v1.7c0,0.9,0.1,1.6,0.4,2.1c0.3,0.4,0.7,0.6,1.2,0.6c0.5,0,0.9-0.2,1.2-0.6
		c0.3-0.4,0.4-1.1,0.4-2V399.5z M216.2,404.6h-1.1v-7.2l-2.2,0.8v-1l3.1-1.2h0.2V404.6z M224.9,404.6h-5.6v-0.8l3-3.3
		c0.4-0.5,0.7-0.9,0.9-1.2c0.2-0.3,0.2-0.6,0.2-1c0-0.5-0.1-0.8-0.4-1.1c-0.3-0.3-0.6-0.4-1.1-0.4c-0.5,0-1,0.2-1.3,0.5
		c-0.3,0.3-0.4,0.7-0.4,1.3h-1.1c0-0.8,0.2-1.4,0.8-1.9c0.5-0.5,1.2-0.7,2-0.7c0.8,0,1.4,0.2,1.9,0.6c0.5,0.4,0.7,1,0.7,1.7
		c0,0.8-0.5,1.8-1.6,3l-2.3,2.5h4.3V404.6z"/>
	<path class="st1" d="M265.5,404.6h-5.6v-0.8l3-3.3c0.4-0.5,0.7-0.9,0.9-1.2c0.2-0.3,0.2-0.6,0.2-1c0-0.5-0.1-0.8-0.4-1.1
		c-0.3-0.3-0.6-0.4-1.1-0.4c-0.5,0-1,0.2-1.3,0.5c-0.3,0.3-0.5,0.7-0.5,1.3h-1.1c0-0.8,0.2-1.4,0.8-1.9c0.5-0.5,1.2-0.7,2-0.7
		c0.8,0,1.4,0.2,1.9,0.6c0.5,0.4,0.7,1,0.7,1.7c0,0.8-0.5,1.8-1.6,3l-2.3,2.5h4.3V404.6z M272,400.9c0,1.3-0.2,2.2-0.6,2.8
		c-0.4,0.6-1.1,0.9-2,0.9c-0.9,0-1.6-0.3-2-0.9c-0.4-0.6-0.7-1.5-0.7-2.7v-1.4c0-1.2,0.2-2.2,0.6-2.8c0.4-0.6,1.1-0.9,2-0.9
		c0.9,0,1.6,0.3,2,0.9c0.4,0.6,0.7,1.5,0.7,2.7V400.9z M271,399.5c0-0.9-0.1-1.6-0.4-2c-0.3-0.4-0.7-0.6-1.2-0.6s-1,0.2-1.2,0.6
		c-0.2,0.4-0.4,1.1-0.4,1.9v1.7c0,0.9,0.1,1.6,0.4,2.1c0.3,0.4,0.7,0.6,1.2,0.6c0.5,0,0.9-0.2,1.2-0.6c0.3-0.4,0.4-1.1,0.4-2V399.5z
		 M277,404.6h-1.1v-7.2l-2.2,0.8v-1l3.1-1.2h0.2V404.6z M281.7,399.8h0.8c0.5,0,0.9-0.1,1.2-0.4c0.3-0.3,0.4-0.6,0.4-1.1
		c0-1-0.5-1.5-1.5-1.5c-0.5,0-0.8,0.1-1.1,0.4c-0.3,0.3-0.4,0.6-0.4,1.1h-1.1c0-0.7,0.2-1.2,0.7-1.7c0.5-0.4,1.1-0.7,1.9-0.7
		c0.8,0,1.4,0.2,1.9,0.6c0.5,0.4,0.7,1,0.7,1.8c0,0.4-0.1,0.7-0.4,1.1c-0.2,0.3-0.6,0.6-1,0.8c0.5,0.1,0.8,0.4,1.1,0.7
		c0.2,0.3,0.4,0.8,0.4,1.3c0,0.8-0.2,1.4-0.8,1.8c-0.5,0.4-1.1,0.7-2,0.7c-0.8,0-1.4-0.2-2-0.7c-0.5-0.4-0.8-1-0.8-1.7h1.1
		c0,0.4,0.1,0.8,0.4,1.1s0.7,0.4,1.2,0.4c0.5,0,0.9-0.1,1.2-0.4c0.3-0.3,0.4-0.7,0.4-1.2c0-0.5-0.2-0.9-0.5-1.1
		c-0.3-0.3-0.8-0.4-1.3-0.4h-0.8V399.8z"/>
	<path class="st1" d="M325.9,404.6h-5.6v-0.8l2.9-3.3c0.4-0.5,0.7-0.9,0.9-1.2c0.2-0.3,0.2-0.6,0.2-1c0-0.5-0.1-0.8-0.4-1.1
		c-0.3-0.3-0.6-0.4-1.1-0.4c-0.5,0-1,0.2-1.3,0.5c-0.3,0.3-0.4,0.7-0.4,1.3h-1.1c0-0.8,0.2-1.4,0.8-1.9c0.5-0.5,1.2-0.7,2-0.7
		c0.8,0,1.4,0.2,1.9,0.6c0.5,0.4,0.7,1,0.7,1.7c0,0.8-0.5,1.8-1.6,3l-2.3,2.5h4.3V404.6z M332.4,400.9c0,1.3-0.2,2.2-0.6,2.8
		c-0.4,0.6-1.1,0.9-2,0.9c-0.9,0-1.6-0.3-2-0.9c-0.4-0.6-0.7-1.5-0.7-2.7v-1.4c0-1.2,0.2-2.2,0.6-2.8s1.1-0.9,2-0.9
		c0.9,0,1.6,0.3,2,0.9c0.4,0.6,0.6,1.5,0.7,2.7V400.9z M331.3,399.5c0-0.9-0.1-1.6-0.4-2c-0.2-0.4-0.7-0.6-1.2-0.6s-1,0.2-1.2,0.6
		c-0.3,0.4-0.4,1.1-0.4,1.9v1.7c0,0.9,0.1,1.6,0.4,2.1c0.3,0.4,0.7,0.6,1.2,0.6c0.5,0,0.9-0.2,1.2-0.6c0.3-0.4,0.4-1.1,0.4-2V399.5z
		 M337.4,404.6h-1.1v-7.2l-2.2,0.8v-1l3.1-1.2h0.2V404.6z M345.1,401.7h1.2v0.9h-1.2v2H344v-2h-3.9V402l3.8-5.9h1.2V401.7z
		 M341.4,401.7h2.7v-4.2l-0.1,0.2L341.4,401.7z"/>
	<path class="st1" d="M386.6,404.6h-5.6v-0.8l3-3.3c0.4-0.5,0.7-0.9,0.9-1.2c0.2-0.3,0.2-0.6,0.2-1c0-0.5-0.1-0.8-0.4-1.1
		c-0.3-0.3-0.6-0.4-1.1-0.4c-0.5,0-1,0.2-1.3,0.5c-0.3,0.3-0.4,0.7-0.4,1.3h-1.1c0-0.8,0.2-1.4,0.8-1.9s1.2-0.7,2-0.7
		c0.8,0,1.4,0.2,1.9,0.6c0.5,0.4,0.7,1,0.7,1.7c0,0.8-0.5,1.8-1.6,3l-2.3,2.5h4.3V404.6z M393.1,400.9c0,1.3-0.2,2.2-0.6,2.8
		c-0.4,0.6-1.1,0.9-2,0.9c-0.9,0-1.6-0.3-2-0.9c-0.4-0.6-0.7-1.5-0.7-2.7v-1.4c0-1.2,0.2-2.2,0.6-2.8c0.4-0.6,1.1-0.9,2-0.9
		c0.9,0,1.6,0.3,2,0.9c0.4,0.6,0.7,1.5,0.7,2.7V400.9z M392.1,399.5c0-0.9-0.1-1.6-0.4-2c-0.3-0.4-0.7-0.6-1.2-0.6s-1,0.2-1.2,0.6
		c-0.2,0.4-0.4,1.1-0.4,1.9v1.7c0,0.9,0.1,1.6,0.4,2.1c0.3,0.4,0.7,0.6,1.2,0.6c0.5,0,0.9-0.2,1.2-0.6c0.3-0.4,0.4-1.1,0.4-2V399.5z
		 M398.1,404.6H397v-7.2l-2.2,0.8v-1l3.1-1.2h0.2V404.6z M401.8,400.3l0.4-4.2h4.4v1h-3.5l-0.3,2.3c0.4-0.2,0.9-0.4,1.4-0.4
		c0.8,0,1.4,0.3,1.9,0.8s0.7,1.2,0.7,2.1c0,0.9-0.2,1.6-0.7,2.1c-0.5,0.5-1.1,0.8-2,0.8c-0.8,0-1.4-0.2-1.8-0.6
		c-0.5-0.4-0.8-1-0.8-1.7h1c0.1,0.5,0.2,0.9,0.5,1.1s0.6,0.4,1.1,0.4c0.5,0,0.9-0.2,1.2-0.5c0.3-0.3,0.4-0.8,0.4-1.4
		c0-0.6-0.1-1-0.5-1.4c-0.3-0.3-0.7-0.5-1.2-0.5c-0.5,0-0.8,0.1-1.1,0.3l-0.3,0.2L401.8,400.3z"/>
	<path class="st1" d="M447.3,404.6h-5.6v-0.8l3-3.3c0.4-0.5,0.7-0.9,0.9-1.2c0.2-0.3,0.2-0.6,0.2-1c0-0.5-0.1-0.8-0.4-1.1
		c-0.3-0.3-0.6-0.4-1.1-0.4c-0.5,0-1,0.2-1.3,0.5c-0.3,0.3-0.5,0.7-0.5,1.3h-1.1c0-0.8,0.2-1.4,0.8-1.9c0.5-0.5,1.2-0.7,2-0.7
		c0.8,0,1.4,0.2,1.9,0.6c0.5,0.4,0.7,1,0.7,1.7c0,0.8-0.5,1.8-1.6,3l-2.3,2.5h4.3V404.6z M453.8,400.9c0,1.3-0.2,2.2-0.6,2.8
		c-0.4,0.6-1.1,0.9-2,0.9c-0.9,0-1.6-0.3-2-0.9c-0.4-0.6-0.7-1.5-0.7-2.7v-1.4c0-1.2,0.2-2.2,0.6-2.8c0.4-0.6,1.1-0.9,2-0.9
		c0.9,0,1.6,0.3,2,0.9c0.4,0.6,0.7,1.5,0.7,2.7V400.9z M452.8,399.5c0-0.9-0.1-1.6-0.4-2c-0.3-0.4-0.7-0.6-1.2-0.6
		c-0.6,0-1,0.2-1.2,0.6c-0.2,0.4-0.4,1.1-0.4,1.9v1.7c0,0.9,0.1,1.6,0.4,2.1c0.3,0.4,0.7,0.6,1.2,0.6c0.5,0,0.9-0.2,1.2-0.6
		c0.3-0.4,0.4-1.1,0.4-2V399.5z M458.8,404.6h-1.1v-7.2l-2.2,0.8v-1l3.1-1.2h0.2V404.6z M466.2,396v0.9H466c-0.8,0-1.5,0.3-2,0.8
		c-0.5,0.5-0.8,1.2-0.9,2c0.4-0.5,1.1-0.8,1.8-0.8c0.7,0,1.3,0.3,1.8,0.8c0.4,0.5,0.7,1.2,0.7,2c0,0.9-0.2,1.6-0.7,2.1
		c-0.5,0.5-1.1,0.8-1.9,0.8c-0.8,0-1.5-0.3-2-0.9c-0.5-0.6-0.8-1.4-0.8-2.4v-0.4c0-1.6,0.3-2.8,1-3.6c0.7-0.8,1.7-1.3,3-1.3H466.2z
		 M464.8,399.9c-0.4,0-0.7,0.1-1,0.3c-0.3,0.2-0.5,0.5-0.6,0.8v0.4c0,0.7,0.2,1.3,0.5,1.7c0.3,0.4,0.7,0.6,1.2,0.6
		c0.5,0,0.9-0.2,1.1-0.5c0.3-0.4,0.4-0.8,0.4-1.4s-0.1-1.1-0.4-1.4C465.6,400.1,465.3,399.9,464.8,399.9z"/>
	<path class="st1" d="M508,404.6h-5.6v-0.8l3-3.3c0.4-0.5,0.7-0.9,0.9-1.2s0.2-0.6,0.2-1c0-0.5-0.1-0.8-0.4-1.1
		c-0.3-0.3-0.6-0.4-1.1-0.4c-0.5,0-1,0.2-1.3,0.5c-0.3,0.3-0.4,0.7-0.4,1.3h-1.1c0-0.8,0.2-1.4,0.8-1.9c0.5-0.5,1.2-0.7,2-0.7
		c0.8,0,1.4,0.2,1.9,0.6c0.5,0.4,0.7,1,0.7,1.7c0,0.8-0.5,1.8-1.6,3l-2.3,2.5h4.3V404.6z M514.5,400.9c0,1.3-0.2,2.2-0.7,2.8
		c-0.4,0.6-1.1,0.9-2,0.9c-0.9,0-1.6-0.3-2-0.9c-0.4-0.6-0.7-1.5-0.7-2.7v-1.4c0-1.2,0.2-2.2,0.7-2.8c0.4-0.6,1.1-0.9,2-0.9
		s1.6,0.3,2,0.9c0.4,0.6,0.7,1.5,0.7,2.7V400.9z M513.4,399.5c0-0.9-0.1-1.6-0.4-2c-0.3-0.4-0.7-0.6-1.2-0.6c-0.5,0-1,0.2-1.2,0.6
		c-0.2,0.4-0.4,1.1-0.4,1.9v1.7c0,0.9,0.1,1.6,0.4,2.1c0.3,0.4,0.7,0.6,1.2,0.6c0.5,0,0.9-0.2,1.2-0.6c0.3-0.4,0.4-1.1,0.4-2V399.5z
		 M519.4,404.6h-1.1v-7.2l-2.2,0.8v-1l3.1-1.2h0.2V404.6z M528.1,396.7l-3.5,7.9h-1.1l3.5-7.6h-4.6V396h5.8V396.7z"/>
	<path class="st1" d="M568.7,404.6h-5.6v-0.8l3-3.3c0.4-0.5,0.7-0.9,0.9-1.2c0.2-0.3,0.2-0.6,0.2-1c0-0.5-0.1-0.8-0.4-1.1
		c-0.3-0.3-0.6-0.4-1.1-0.4c-0.5,0-1,0.2-1.3,0.5c-0.3,0.3-0.5,0.7-0.5,1.3h-1.1c0-0.8,0.2-1.4,0.8-1.9c0.5-0.5,1.2-0.7,2-0.7
		c0.8,0,1.4,0.2,1.9,0.6c0.5,0.4,0.7,1,0.7,1.7c0,0.8-0.5,1.8-1.6,3l-2.3,2.5h4.3V404.6z M575.2,400.9c0,1.3-0.2,2.2-0.7,2.8
		c-0.4,0.6-1.1,0.9-2,0.9c-0.9,0-1.6-0.3-2-0.9c-0.4-0.6-0.7-1.5-0.7-2.7v-1.4c0-1.2,0.2-2.2,0.6-2.8c0.4-0.6,1.1-0.9,2-0.9
		c0.9,0,1.6,0.3,2,0.9c0.4,0.6,0.7,1.5,0.7,2.7V400.9z M574.1,399.5c0-0.9-0.1-1.6-0.4-2c-0.3-0.4-0.7-0.6-1.2-0.6s-1,0.2-1.2,0.6
		c-0.2,0.4-0.4,1.1-0.4,1.9v1.7c0,0.9,0.1,1.6,0.4,2.1c0.3,0.4,0.7,0.6,1.2,0.6c0.5,0,0.9-0.2,1.2-0.6c0.3-0.4,0.4-1.1,0.4-2V399.5z
		 M580.1,404.6H579v-7.2l-2.2,0.8v-1l3.1-1.2h0.2V404.6z M588.5,398.3c0,0.4-0.1,0.8-0.3,1.1c-0.2,0.3-0.5,0.6-0.9,0.8
		c0.4,0.2,0.8,0.5,1,0.8s0.4,0.8,0.4,1.2c0,0.7-0.2,1.3-0.7,1.8c-0.5,0.4-1.2,0.7-2,0.7c-0.8,0-1.5-0.2-2-0.7
		c-0.5-0.4-0.7-1-0.7-1.8c0-0.5,0.1-0.9,0.4-1.2c0.3-0.4,0.6-0.6,1.1-0.8c-0.4-0.2-0.7-0.5-0.9-0.8c-0.2-0.3-0.3-0.7-0.3-1.1
		c0-0.7,0.2-1.3,0.7-1.7c0.5-0.4,1.1-0.6,1.8-0.6s1.4,0.2,1.8,0.6C588.2,397,588.5,397.6,588.5,398.3z M587.6,402.3
		c0-0.5-0.2-0.9-0.5-1.2c-0.3-0.3-0.7-0.4-1.2-0.4s-0.9,0.1-1.2,0.4c-0.3,0.3-0.4,0.7-0.4,1.2c0,0.5,0.1,0.9,0.4,1.1
		c0.3,0.3,0.7,0.4,1.2,0.4s0.9-0.1,1.2-0.4C587.4,403.1,587.6,402.7,587.6,402.3z M585.9,396.8c-0.4,0-0.8,0.1-1,0.4
		c-0.3,0.3-0.4,0.6-0.4,1.1c0,0.4,0.1,0.8,0.4,1.1c0.3,0.3,0.6,0.4,1,0.4s0.8-0.1,1-0.4c0.3-0.3,0.4-0.6,0.4-1.1
		c0-0.4-0.1-0.8-0.4-1.1C586.7,397,586.3,396.8,585.9,396.8z"/>
	<path class="st1" d="M629.4,404.6h-5.6v-0.8l2.9-3.3c0.4-0.5,0.7-0.9,0.9-1.2c0.2-0.3,0.2-0.6,0.2-1c0-0.5-0.1-0.8-0.4-1.1
		c-0.3-0.3-0.6-0.4-1.1-0.4c-0.5,0-1,0.2-1.3,0.5c-0.3,0.3-0.4,0.7-0.4,1.3h-1.1c0-0.8,0.2-1.4,0.8-1.9s1.2-0.7,2-0.7
		c0.8,0,1.4,0.2,1.9,0.6c0.5,0.4,0.7,1,0.7,1.7c0,0.8-0.5,1.8-1.6,3l-2.3,2.5h4.3V404.6z M635.8,400.9c0,1.3-0.2,2.2-0.6,2.8
		c-0.4,0.6-1.1,0.9-2,0.9c-0.9,0-1.6-0.3-2-0.9c-0.4-0.6-0.7-1.5-0.7-2.7v-1.4c0-1.2,0.2-2.2,0.7-2.8s1.1-0.9,2-0.9
		c0.9,0,1.6,0.3,2,0.9c0.4,0.6,0.6,1.5,0.7,2.7V400.9z M634.8,399.5c0-0.9-0.1-1.6-0.4-2c-0.3-0.4-0.7-0.6-1.2-0.6
		c-0.6,0-1,0.2-1.2,0.6c-0.3,0.4-0.4,1.1-0.4,1.9v1.7c0,0.9,0.1,1.6,0.4,2.1c0.3,0.4,0.7,0.6,1.2,0.6c0.5,0,0.9-0.2,1.2-0.6
		c0.3-0.4,0.4-1.1,0.4-2V399.5z M640.8,404.6h-1.1v-7.2l-2.2,0.8v-1l3.1-1.2h0.2V404.6z M648.1,400.8c-0.2,0.3-0.5,0.5-0.8,0.6
		c-0.3,0.2-0.7,0.2-1,0.2c-0.5,0-0.9-0.1-1.3-0.4c-0.4-0.2-0.6-0.6-0.8-1c-0.2-0.4-0.3-0.9-0.3-1.4c0-0.6,0.1-1.1,0.3-1.5
		c0.2-0.5,0.5-0.8,0.9-1.1c0.4-0.2,0.9-0.4,1.4-0.4c0.8,0,1.5,0.3,2,1c0.5,0.6,0.7,1.5,0.7,2.6v0.3c0,1.7-0.3,2.9-1,3.6
		c-0.7,0.8-1.7,1.2-3,1.2h-0.2v-0.9h0.2c0.9,0,1.6-0.2,2.1-0.7S648.1,401.8,648.1,400.8z M646.5,400.8c0.4,0,0.7-0.1,1-0.3
		c0.3-0.2,0.5-0.5,0.7-0.8v-0.4c0-0.7-0.2-1.3-0.5-1.7c-0.3-0.4-0.7-0.7-1.2-0.7c-0.5,0-0.9,0.2-1.2,0.5c-0.3,0.4-0.4,0.8-0.4,1.5
		c0,0.6,0.1,1.1,0.4,1.4C645.6,400.6,646,400.8,646.5,400.8z"/>
	<path class="st1" d="M689.9,404.6h-5.6v-0.8l3-3.3c0.4-0.5,0.7-0.9,0.9-1.2c0.2-0.3,0.2-0.6,0.2-1c0-0.5-0.1-0.8-0.4-1.1
		c-0.3-0.3-0.6-0.4-1.1-0.4c-0.5,0-0.9,0.2-1.2,0.5c-0.3,0.3-0.4,0.7-0.4,1.3h-1.1c0-0.8,0.2-1.4,0.8-1.9c0.5-0.5,1.2-0.7,2-0.7
		c0.8,0,1.4,0.2,1.9,0.6c0.5,0.4,0.7,1,0.7,1.7c0,0.8-0.5,1.8-1.6,3l-2.3,2.5h4.3V404.6z M696.4,400.9c0,1.3-0.2,2.2-0.6,2.8
		c-0.4,0.6-1.1,0.9-2,0.9c-0.9,0-1.6-0.3-2-0.9c-0.4-0.6-0.7-1.5-0.7-2.7v-1.4c0-1.2,0.2-2.2,0.7-2.8c0.4-0.6,1.1-0.9,2-0.9
		c0.9,0,1.6,0.3,2,0.9c0.4,0.6,0.7,1.5,0.7,2.7V400.9z M695.3,399.5c0-0.9-0.1-1.6-0.4-2c-0.3-0.4-0.7-0.6-1.2-0.6
		c-0.5,0-1,0.2-1.2,0.6c-0.3,0.4-0.4,1.1-0.4,1.9v1.7c0,0.9,0.1,1.6,0.4,2.1c0.3,0.4,0.7,0.6,1.2,0.6s0.9-0.2,1.2-0.6
		c0.3-0.4,0.4-1.1,0.4-2V399.5z M703.4,404.6h-5.6v-0.8l3-3.3c0.4-0.5,0.7-0.9,0.9-1.2c0.2-0.3,0.2-0.6,0.2-1c0-0.5-0.1-0.8-0.4-1.1
		c-0.3-0.3-0.6-0.4-1.1-0.4c-0.5,0-1,0.2-1.3,0.5c-0.3,0.3-0.4,0.7-0.4,1.3h-1.1c0-0.8,0.2-1.4,0.8-1.9c0.5-0.5,1.2-0.7,2-0.7
		c0.8,0,1.4,0.2,1.9,0.6c0.5,0.4,0.7,1,0.7,1.7c0,0.8-0.5,1.8-1.6,3l-2.3,2.5h4.3V404.6z M709.9,400.9c0,1.3-0.2,2.2-0.7,2.8
		c-0.4,0.6-1.1,0.9-2,0.9c-0.9,0-1.6-0.3-2-0.9c-0.4-0.6-0.7-1.5-0.7-2.7v-1.4c0-1.2,0.2-2.2,0.6-2.8s1.1-0.9,2-0.9
		c0.9,0,1.6,0.3,2,0.9c0.4,0.6,0.7,1.5,0.7,2.7V400.9z M708.8,399.5c0-0.9-0.1-1.6-0.4-2c-0.2-0.4-0.7-0.6-1.2-0.6
		c-0.6,0-1,0.2-1.2,0.6c-0.3,0.4-0.4,1.1-0.4,1.9v1.7c0,0.9,0.1,1.6,0.4,2.1c0.3,0.4,0.7,0.6,1.2,0.6c0.5,0,0.9-0.2,1.2-0.6
		c0.3-0.4,0.4-1.1,0.4-2V399.5z"/>
</g>
</svg>
