<?xml version="1.0" encoding="utf-8"?>
<!-- Generator: Adobe Illustrator 23.0.6, SVG Export Plug-In . SVG Version: 6.00 Build 0)  -->
<svg version="1.1" id="Слой_1" xmlns="http://www.w3.org/2000/svg" xmlns:xlink="http://www.w3.org/1999/xlink" x="0px" y="0px"
	 viewBox="0 0 1000 1000" style="enable-background:new 0 0 1000 1000;" xml:space="preserve">
<style type="text/css">
	.st0{fill:#FFFFFF;}
	.st1{fill:#494A4D;}
	.st2{fill:#A6A6A6;}
	.st3{fill:#BF381D;stroke:#FFFFFF;stroke-width:0.15;}
	.st4{fill:#CFCFCF;stroke:#FFFFFF;stroke-width:0.15;}
	.st5{fill:#949494;stroke:#FFFFFF;stroke-width:0.15;}
	.st6{stroke:#FFFFFF;stroke-width:0.15;}
	.st7{fill:#CFCFCF;}
	.st8{fill:#949494;}
	.st9{fill:#BF381D;}
</style>
<path class="st0" d="M145,282.5h710v435H145V282.5z"/>
<path class="st1" d="M157.4,290.6c0,1.5-0.3,2.8-0.8,3.9c-0.5,1.1-1.2,1.9-2.2,2.5c-0.9,0.6-2,0.9-3.2,0.9c-1.2,0-2.3-0.3-3.2-0.9
	c-1-0.6-1.7-1.4-2.2-2.5c-0.5-1.1-0.8-2.4-0.8-3.8v-0.8c0-1.5,0.3-2.7,0.8-3.8c0.5-1.1,1.2-2,2.2-2.6c0.9-0.6,2-0.9,3.2-0.9
	c1.2,0,2.3,0.3,3.2,0.9c0.9,0.6,1.7,1.4,2.2,2.5c0.5,1.1,0.8,2.4,0.8,3.8V290.6z M154.8,289.8c0-1.6-0.3-2.9-0.9-3.8
	c-0.6-0.9-1.5-1.3-2.7-1.3c-1.1,0-2,0.4-2.6,1.3c-0.6,0.9-1,2.1-1,3.7v0.9c0,1.6,0.3,2.9,1,3.8c0.6,0.9,1.5,1.4,2.7,1.4
	c1.1,0,2-0.4,2.6-1.3c0.6-0.9,0.9-2.2,0.9-3.8V289.8z M168.6,297.6h-2.5v-3.7c-0.6,0.2-1.3,0.2-2,0.2c-1.5,0-2.7-0.4-3.5-1.1
	c-0.8-0.7-1.2-1.8-1.2-3.1v-3.4h2.5v3.4c0,0.8,0.2,1.4,0.5,1.7c0.4,0.3,0.9,0.5,1.6,0.5c0.7,0,1.4-0.1,2-0.2v-5.4h2.5V297.6z
	 M175.2,293.2H174v4.4h-2.5v-11.1h2.5v4.4h1.1l3.1-4.4h3.1l-4,5.3l4.3,5.8h-3.2L175.2,293.2z M189.8,286.5h2.5v11.1h-2.5v-7.4
	l-4.3,7.4H183v-11.1h2.5v7.4L189.8,286.5z M209.6,297.6h-2.5v-9.1h-4.3v9.1h-2.5v-11.1h9.3V297.6z M222,292.2c0,1.7-0.4,3.1-1.2,4.1
	c-0.8,1-1.8,1.5-3.1,1.5c-1.2,0-2.2-0.4-2.9-1.2v5.3h-2.5v-15.4h2.3l0.1,1.1c0.7-0.9,1.7-1.3,3-1.3c1.4,0,2.4,0.5,3.2,1.5
	c0.8,1,1.2,2.4,1.2,4.2V292.2z M219.5,292c0-1.1-0.2-2-0.7-2.6s-1.1-1-1.9-1c-1,0-1.8,0.4-2.2,1.3v4.9c0.5,0.9,1.2,1.3,2.2,1.3
	c0.8,0,1.4-0.3,1.9-1C219.3,294.2,219.5,293.3,219.5,292z M230.7,297.6c-0.1-0.2-0.2-0.5-0.3-1c-0.8,0.8-1.8,1.2-2.9,1.2
	c-1.1,0-2-0.3-2.7-0.9c-0.7-0.6-1.1-1.4-1.1-2.4c0-1.2,0.4-2.1,1.3-2.7c0.9-0.6,2.1-1,3.8-1h1.5v-0.7c0-0.6-0.2-1-0.5-1.4
	c-0.3-0.4-0.8-0.5-1.5-0.5c-0.6,0-1,0.1-1.4,0.4c-0.4,0.3-0.5,0.6-0.5,1.1H224c0-0.6,0.2-1.2,0.6-1.7s1-0.9,1.6-1.2
	c0.7-0.3,1.5-0.5,2.3-0.5c1.3,0,2.3,0.3,3.1,1c0.8,0.7,1.2,1.6,1.2,2.8v5c0,1,0.1,1.8,0.4,2.4v0.2H230.7z M228,295.8
	c0.5,0,1-0.1,1.4-0.4c0.4-0.2,0.8-0.6,1-1v-2.1H229c-0.9,0-1.6,0.2-2.1,0.5c-0.5,0.3-0.7,0.8-0.7,1.4c0,0.5,0.2,0.9,0.5,1.1
	C227,295.7,227.4,295.8,228,295.8z M235.6,297.6v-11.1h4.5c1.5,0,2.7,0.3,3.5,0.8c0.8,0.5,1.2,1.3,1.2,2.3c0,0.5-0.2,1-0.5,1.4
	c-0.3,0.4-0.8,0.7-1.4,0.9c0.7,0.2,1.3,0.5,1.7,0.9c0.4,0.4,0.6,1,0.6,1.6c0,1-0.4,1.8-1.1,2.4c-0.8,0.5-1.9,0.8-3.3,0.8H235.6z
	 M238.1,292.9v2.8h2.7c1.3,0,1.9-0.5,1.9-1.4c0-0.9-0.7-1.4-2-1.4H238.1z M238.1,291.1h2.1c1.4,0,2.1-0.4,2.1-1.2
	c0-0.9-0.7-1.3-2-1.3h-2.2V291.1z M246.9,292c0-1.1,0.2-2.1,0.7-2.9c0.4-0.9,1-1.5,1.8-2c0.8-0.5,1.7-0.7,2.7-0.7
	c1.5,0,2.7,0.5,3.6,1.4c0.9,1,1.4,2.2,1.5,3.8l0,0.6c0,1.1-0.2,2.1-0.6,2.9s-1,1.5-1.8,2c-0.8,0.5-1.7,0.7-2.7,0.7
	c-1.6,0-2.8-0.5-3.8-1.6c-0.9-1.1-1.4-2.4-1.4-4.2V292z M249.4,292.2c0,1.1,0.2,2,0.7,2.7c0.5,0.6,1.1,1,2,1c0.8,0,1.5-0.3,2-1
	c0.5-0.7,0.7-1.6,0.7-2.9c0-1.1-0.2-2-0.7-2.7c-0.5-0.7-1.1-1-2-1c-0.8,0-1.5,0.3-1.9,1C249.7,290,249.4,290.9,249.4,292.2z
	 M263.9,295.9c0.6,0,1.1-0.2,1.6-0.5c0.4-0.4,0.6-0.8,0.7-1.3h2.4c0,0.7-0.2,1.3-0.6,1.9c-0.4,0.6-1,1.1-1.6,1.4
	c-0.7,0.3-1.4,0.5-2.2,0.5c-1.6,0-2.8-0.5-3.7-1.5c-0.9-1-1.4-2.4-1.4-4.2v-0.3c0-1.7,0.4-3,1.3-4.1c0.9-1,2.1-1.5,3.7-1.5
	c1.3,0,2.4,0.4,3.2,1.2c0.8,0.8,1.3,1.8,1.3,3h-2.4c0-0.6-0.2-1.2-0.6-1.6c-0.4-0.4-0.9-0.6-1.6-0.6c-0.8,0-1.4,0.3-1.9,0.9
	c-0.4,0.6-0.7,1.5-0.7,2.7v0.4c0,1.2,0.2,2.1,0.6,2.7C262.5,295.5,263.1,295.9,263.9,295.9z M274.2,294.1l2.3-7.5h2.7l-4.4,12.8
	c-0.7,1.9-1.8,2.8-3.4,2.8c-0.4,0-0.8-0.1-1.2-0.2V300l0.5,0c0.6,0,1.1-0.1,1.4-0.3c0.3-0.2,0.6-0.6,0.8-1.2l0.4-1l-3.9-11h2.7
	L274.2,294.1z M280.6,295.6c0.7-0.8,1.2-1.5,1.4-2.2c0.2-0.7,0.4-1.6,0.4-2.7l0.2-4.2h7.7v9.1h1.5v5.3h-2.5v-3.3h-7.1v3.3h-2.5
	l0-5.3H280.6z M283.5,295.6h4.3v-7H285l-0.1,2.1C284.8,292.8,284.4,294.5,283.5,295.6z M300.5,286.5h2.5v11.1h-2.5v-7.4l-4.4,7.4
	h-2.5v-11.1h2.5v7.4L300.5,286.5z M314.5,286.5v11.1h-2.5v-4.1h-2.3l-2.4,4.1h-2.6l2.6-4.5c-0.7-0.3-1.2-0.7-1.6-1.2
	c-0.4-0.5-0.5-1.1-0.5-1.8c0-1,0.4-1.9,1.2-2.5c0.8-0.7,1.9-1,3.2-1H314.5z M307.8,290.1c0,0.5,0.2,0.8,0.5,1.1
	c0.3,0.3,0.8,0.4,1.3,0.4h2.5v-3.2h-2.3c-0.6,0-1.1,0.1-1.5,0.5C307.9,289.3,307.8,289.7,307.8,290.1z"/>
<path class="st1" d="M153.2,327.5c-0.1,1.1-0.5,2-1.2,2.6c-0.7,0.6-1.6,0.9-2.8,0.9c-1.3,0-2.3-0.5-3-1.4c-0.8-0.9-1.1-2.1-1.1-3.6
	v-1c0-1,0.2-1.9,0.5-2.6c0.4-0.8,0.9-1.3,1.5-1.7c0.6-0.4,1.4-0.6,2.2-0.6c1.1,0,2,0.3,2.7,1c0.7,0.6,1.1,1.5,1.2,2.6h-1.4
	c-0.1-0.9-0.4-1.5-0.8-1.9c-0.4-0.4-1-0.6-1.7-0.6c-0.9,0-1.6,0.3-2.1,1c-0.5,0.7-0.8,1.6-0.8,2.8v1c0,1.2,0.2,2.1,0.7,2.8
	c0.5,0.7,1.2,1,2,1c0.8,0,1.4-0.2,1.8-0.5c0.4-0.4,0.7-1,0.8-1.9H153.2z M160,323h1.4v7.9H160v-5.8l-3.6,5.8H155V323h1.4v5.8
	L160,323z M170.1,323v7.9h-1.4v-6.8H166l-0.2,3c-0.1,1.4-0.3,2.3-0.7,2.9c-0.4,0.6-1,0.9-1.8,0.9h-0.5v-1.2l0.4,0
	c0.4,0,0.8-0.3,0.9-0.8c0.2-0.5,0.3-1.3,0.4-2.6l0.1-3.4H170.1z M171.9,326.8c0-0.8,0.1-1.5,0.4-2.1c0.3-0.6,0.7-1.1,1.3-1.4
	c0.5-0.3,1.2-0.5,1.9-0.5c1.1,0,2,0.4,2.6,1.1c0.7,0.8,1,1.7,1,3v0.1c0,0.8-0.1,1.5-0.4,2.1c-0.3,0.6-0.7,1.1-1.3,1.4
	c-0.6,0.3-1.2,0.5-1.9,0.5c-1.1,0-2-0.4-2.6-1.1C172.2,329.1,171.9,328.2,171.9,326.8L171.9,326.8z M173.2,327
	c0,0.9,0.2,1.6,0.6,2.1c0.4,0.5,1,0.8,1.6,0.8s1.2-0.3,1.6-0.8c0.4-0.5,0.6-1.3,0.6-2.3c0-0.9-0.2-1.6-0.6-2.1
	c-0.4-0.5-1-0.8-1.6-0.8c-0.7,0-1.2,0.3-1.6,0.8C173.5,325.2,173.2,326,173.2,327z M180.9,330.9V323h3.1c1.1,0,1.9,0.2,2.4,0.5
	c0.6,0.4,0.9,0.9,0.9,1.6c0,0.4-0.1,0.7-0.3,1c-0.2,0.3-0.5,0.5-1,0.7c0.5,0.1,0.9,0.3,1.2,0.7c0.3,0.3,0.4,0.7,0.4,1.2
	c0,0.7-0.3,1.3-0.8,1.7c-0.5,0.4-1.3,0.6-2.3,0.6H180.9z M182.3,327.4v2.4h2.2c0.6,0,1-0.1,1.3-0.3s0.4-0.5,0.4-0.9
	c0-0.8-0.6-1.2-1.7-1.2H182.3z M182.3,326.3h1.8c1.3,0,1.9-0.4,1.9-1.1s-0.6-1.1-1.8-1.2h-1.9V326.3z M194.5,323h1.4v7.9h-1.4v-5.8
	l-3.7,5.8h-1.4V323h1.4v5.8L194.5,323z M200.5,327.5h-1v3.4h-1.4V323h1.4v3.3h0.9l2.7-3.3h1.6l-3.1,3.8l3.4,4.1h-1.7L200.5,327.5z
	 M205.8,326.8c0-0.8,0.2-1.5,0.5-2.1c0.3-0.6,0.7-1.1,1.3-1.4c0.5-0.3,1.2-0.5,1.9-0.5c1.1,0,2,0.4,2.6,1.1c0.7,0.8,1,1.7,1,3v0.1
	c0,0.8-0.1,1.5-0.4,2.1c-0.3,0.6-0.7,1.1-1.3,1.4c-0.5,0.3-1.2,0.5-1.9,0.5c-1.1,0-1.9-0.4-2.6-1.1
	C206.1,329.1,205.8,328.2,205.8,326.8L205.8,326.8z M207.1,327c0,0.9,0.2,1.6,0.6,2.1c0.4,0.5,1,0.8,1.6,0.8c0.7,0,1.2-0.3,1.6-0.8
	c0.4-0.5,0.6-1.3,0.6-2.3c0-0.9-0.2-1.6-0.6-2.1c-0.4-0.5-1-0.8-1.6-0.8c-0.7,0-1.2,0.3-1.6,0.8C207.3,325.2,207.1,326,207.1,327z
	 M214.8,330.9V323h3.1c1.1,0,1.9,0.2,2.4,0.5c0.6,0.4,0.8,0.9,0.8,1.6c0,0.4-0.1,0.7-0.3,1c-0.2,0.3-0.5,0.5-1,0.7
	c0.5,0.1,0.9,0.3,1.1,0.7c0.3,0.3,0.4,0.7,0.4,1.2c0,0.7-0.3,1.3-0.8,1.7c-0.5,0.4-1.3,0.6-2.3,0.6H214.8z M216.2,327.4v2.4h2.2
	c0.6,0,1-0.1,1.3-0.3s0.4-0.5,0.4-0.9c0-0.8-0.6-1.2-1.8-1.2H216.2z M216.2,326.3h1.8c1.3,0,1.9-0.4,1.9-1.1s-0.6-1.1-1.8-1.2h-1.9
	V326.3z M226.6,326.8c0-0.8,0.2-1.5,0.5-2.1c0.3-0.6,0.7-1.1,1.3-1.4c0.5-0.3,1.2-0.5,1.9-0.5c1.1,0,1.9,0.4,2.6,1.1
	c0.7,0.8,1,1.7,1,3v0.1c0,0.8-0.1,1.5-0.4,2.1c-0.3,0.6-0.7,1.1-1.3,1.4c-0.5,0.3-1.2,0.5-1.9,0.5c-1.1,0-2-0.4-2.6-1.1
	C226.9,329.1,226.6,328.2,226.6,326.8L226.6,326.8z M228,327c0,0.9,0.2,1.6,0.6,2.1c0.4,0.5,1,0.8,1.6,0.8s1.2-0.3,1.6-0.8
	c0.4-0.5,0.6-1.3,0.6-2.3c0-0.9-0.2-1.6-0.6-2.1c-0.4-0.5-1-0.8-1.6-0.8c-0.7,0-1.2,0.3-1.6,0.8C228.2,325.2,228,326,228,327z
	 M242,330.9h-1.4v-6.8H237v6.8h-1.4V323h6.4V330.9z M250.9,327c0,1.2-0.3,2.2-0.8,2.9c-0.5,0.7-1.3,1.1-2.2,1.1
	c-1,0-1.7-0.3-2.3-0.9v3.8h-1.4v-11h1.2l0.1,0.9c0.6-0.7,1.3-1,2.3-1c0.9,0,1.7,0.4,2.3,1.1c0.6,0.7,0.8,1.7,0.8,3V327z
	 M249.5,326.9c0-0.9-0.2-1.6-0.6-2.1c-0.4-0.5-0.9-0.8-1.6-0.8c-0.8,0-1.4,0.4-1.9,1.1v3.8c0.4,0.7,1,1.1,1.9,1.1
	c0.6,0,1.2-0.3,1.6-0.8C249.3,328.6,249.5,327.9,249.5,326.9z M257.5,330.9c-0.1-0.1-0.1-0.4-0.2-0.8c-0.6,0.7-1.4,1-2.2,1
	c-0.8,0-1.4-0.2-1.9-0.7s-0.8-1-0.8-1.7c0-0.8,0.3-1.5,0.9-1.9c0.6-0.5,1.5-0.7,2.6-0.7h1.3v-0.6c0-0.5-0.1-0.9-0.4-1.1
	c-0.3-0.3-0.7-0.4-1.2-0.4c-0.5,0-0.9,0.1-1.2,0.4s-0.5,0.5-0.5,0.9h-1.4c0-0.4,0.1-0.8,0.4-1.1s0.7-0.7,1.1-0.9
	c0.5-0.2,1-0.3,1.6-0.3c0.9,0,1.6,0.2,2.1,0.7c0.5,0.5,0.8,1.1,0.8,1.9v3.7c0,0.7,0.1,1.3,0.3,1.7v0.1H257.5z M255.2,329.8
	c0.4,0,0.8-0.1,1.2-0.3c0.4-0.2,0.6-0.5,0.8-0.9V327h-1.1c-1.7,0-2.5,0.5-2.5,1.5c0,0.4,0.1,0.8,0.4,1
	C254.4,329.7,254.8,329.8,255.2,329.8z M260.9,330.9V323h3.1c1.1,0,1.9,0.2,2.4,0.5c0.6,0.4,0.8,0.9,0.8,1.6c0,0.4-0.1,0.7-0.3,1
	c-0.2,0.3-0.5,0.5-1,0.7c0.5,0.1,0.9,0.3,1.1,0.7c0.3,0.3,0.4,0.7,0.4,1.2c0,0.7-0.3,1.3-0.8,1.7c-0.5,0.4-1.3,0.6-2.3,0.6H260.9z
	 M262.2,327.4v2.4h2.2c0.6,0,1-0.1,1.3-0.3c0.3-0.2,0.4-0.5,0.4-0.9c0-0.8-0.6-1.2-1.7-1.2H262.2z M262.2,326.3h1.8
	c1.3,0,1.9-0.4,1.9-1.1s-0.6-1.1-1.8-1.2h-1.9V326.3z M269.3,329.8l0.5-0.6c0.5-0.7,0.8-1.7,0.9-3.1l0.1-3.2h5.1v6.8h1v3.4h-1.3
	v-2.3H270v2.3h-1.4l0-3.4H269.3z M270.9,329.8h3.6v-5.6h-2.4l-0.1,1.9C271.9,327.7,271.5,328.9,270.9,329.8z M279.9,325.7h2.1
	c0.9,0,1.6,0.2,2.1,0.7c0.5,0.5,0.8,1.1,0.8,1.9c0,0.8-0.3,1.4-0.8,1.9c-0.5,0.5-1.3,0.7-2.2,0.7h-3.4V323h1.4V325.7z M287.6,330.9
	h-1.4V323h1.4V330.9z M279.9,326.8v3h2c0.5,0,0.9-0.1,1.2-0.4c0.3-0.3,0.4-0.6,0.4-1.1c0-0.4-0.1-0.8-0.4-1.1s-0.6-0.4-1.1-0.4
	H279.9z M290.1,330.9V323h3.1c1.1,0,1.9,0.2,2.4,0.5c0.6,0.4,0.9,0.9,0.9,1.6c0,0.4-0.1,0.7-0.3,1c-0.2,0.3-0.5,0.5-1,0.7
	c0.5,0.1,0.9,0.3,1.1,0.7c0.3,0.3,0.4,0.7,0.4,1.2c0,0.7-0.3,1.3-0.8,1.7c-0.5,0.4-1.3,0.6-2.3,0.6H290.1z M291.5,327.4v2.4h2.2
	c0.6,0,1-0.1,1.3-0.3c0.3-0.2,0.4-0.5,0.4-0.9c0-0.8-0.6-1.2-1.7-1.2H291.5z M291.5,326.3h1.8c1.3,0,1.9-0.4,1.9-1.1
	s-0.6-1.1-1.8-1.2h-1.9V326.3z M303.5,330.9c-0.1-0.1-0.1-0.4-0.2-0.8c-0.6,0.7-1.4,1-2.2,1c-0.8,0-1.4-0.2-1.9-0.7s-0.8-1-0.8-1.7
	c0-0.8,0.3-1.5,0.9-1.9c0.6-0.5,1.5-0.7,2.7-0.7h1.3v-0.6c0-0.5-0.1-0.9-0.4-1.1c-0.3-0.3-0.7-0.4-1.2-0.4c-0.5,0-0.9,0.1-1.2,0.4
	c-0.3,0.2-0.5,0.5-0.5,0.9h-1.4c0-0.4,0.1-0.8,0.4-1.1s0.7-0.7,1.1-0.9c0.5-0.2,1-0.3,1.6-0.3c0.9,0,1.6,0.2,2.2,0.7
	c0.5,0.5,0.8,1.1,0.8,1.9v3.7c0,0.7,0.1,1.3,0.3,1.7v0.1H303.5z M301.2,329.8c0.4,0,0.8-0.1,1.2-0.3c0.4-0.2,0.7-0.5,0.8-0.9V327
	h-1.1c-1.7,0-2.5,0.5-2.5,1.5c0,0.4,0.1,0.8,0.4,1C300.4,329.7,300.8,329.8,301.2,329.8z M308.2,326.3h1.9c0.1-1,0.5-1.9,1.1-2.5
	c0.6-0.7,1.5-1,2.5-1c1,0,1.9,0.4,2.5,1.1c0.7,0.7,1,1.6,1.1,2.7v0.4c0,0.8-0.2,1.5-0.5,2.1c-0.3,0.6-0.7,1.1-1.3,1.4
	c-0.6,0.3-1.2,0.5-1.9,0.5c-1,0-1.9-0.3-2.5-1c-0.6-0.7-1-1.5-1.1-2.6h-1.9v3.5h-1.4V323h1.4V326.3z M311.5,327
	c0,0.9,0.2,1.6,0.6,2.1c0.4,0.5,0.9,0.8,1.6,0.8s1.2-0.3,1.6-0.8c0.4-0.5,0.6-1.3,0.6-2.3c0-0.9-0.2-1.6-0.6-2.1
	c-0.4-0.5-1-0.8-1.6-0.8c-0.7,0-1.2,0.3-1.6,0.8C311.7,325.2,311.5,326,311.5,327z M324.9,324h-2.7v6.8h-1.4V324h-2.6V323h6.6V324z
	 M330,330.9V323h3.1c1.1,0,1.9,0.2,2.4,0.5s0.9,0.9,0.9,1.6c0,0.4-0.1,0.7-0.3,1c-0.2,0.3-0.5,0.5-1,0.7c0.5,0.1,0.9,0.3,1.2,0.7
	c0.3,0.3,0.4,0.7,0.4,1.2c0,0.7-0.3,1.3-0.8,1.7c-0.5,0.4-1.3,0.6-2.3,0.6H330z M331.4,327.4v2.4h2.2c0.6,0,1-0.1,1.3-0.3
	s0.4-0.5,0.4-0.9c0-0.8-0.6-1.2-1.7-1.2H331.4z M331.4,326.3h1.8c1.3,0,1.9-0.4,1.9-1.1s-0.6-1.1-1.8-1.2h-1.8V326.3z M346.5,330.9
	h-1.4v-9l-2.7,1v-1.2l3.9-1.5h0.2V330.9z M357.2,326.3c0,1.6-0.3,2.8-0.8,3.5c-0.5,0.8-1.4,1.2-2.5,1.2c-1.1,0-2-0.4-2.5-1.1
	s-0.8-1.9-0.9-3.4v-1.8c0-1.6,0.3-2.7,0.8-3.5c0.5-0.8,1.4-1.2,2.5-1.2c1.2,0,2,0.4,2.5,1.1c0.5,0.7,0.8,1.9,0.8,3.4V326.3z
	 M355.8,324.5c0-1.1-0.2-2-0.5-2.5c-0.3-0.5-0.8-0.8-1.5-0.8c-0.7,0-1.2,0.3-1.5,0.8c-0.3,0.5-0.5,1.3-0.5,2.4v2.2
	c0,1.2,0.2,2,0.5,2.6c0.3,0.6,0.8,0.8,1.5,0.8c0.7,0,1.2-0.3,1.5-0.8c0.3-0.5,0.5-1.3,0.5-2.5V324.5z M369.4,327
	c0,1.2-0.3,2.2-0.8,2.9c-0.6,0.7-1.3,1.1-2.2,1.1c-1,0-1.7-0.3-2.3-0.9v3.8h-1.4v-11h1.2l0.1,0.9c0.6-0.7,1.3-1,2.3-1
	c0.9,0,1.7,0.4,2.3,1.1c0.6,0.7,0.8,1.7,0.8,3V327z M368.1,326.9c0-0.9-0.2-1.6-0.6-2.1c-0.4-0.5-0.9-0.8-1.6-0.8
	c-0.8,0-1.4,0.4-1.9,1.1v3.8c0.4,0.7,1,1.1,1.9,1.1c0.6,0,1.2-0.3,1.5-0.8C367.9,328.6,368.1,327.9,368.1,326.9z M376.1,330.9
	c-0.1-0.1-0.1-0.4-0.2-0.8c-0.6,0.7-1.4,1-2.3,1c-0.8,0-1.4-0.2-1.9-0.7s-0.8-1-0.8-1.7c0-0.8,0.3-1.5,0.9-1.9
	c0.6-0.5,1.5-0.7,2.6-0.7h1.3v-0.6c0-0.5-0.1-0.9-0.4-1.1c-0.3-0.3-0.7-0.4-1.2-0.4c-0.5,0-0.9,0.1-1.2,0.4
	c-0.3,0.2-0.5,0.5-0.5,0.9h-1.4c0-0.4,0.1-0.8,0.4-1.1c0.3-0.4,0.7-0.7,1.1-0.9c0.5-0.2,1-0.3,1.6-0.3c0.9,0,1.6,0.2,2.1,0.7
	c0.5,0.5,0.8,1.1,0.8,1.9v3.7c0,0.7,0.1,1.3,0.3,1.7v0.1H376.1z M373.8,329.8c0.4,0,0.8-0.1,1.2-0.3c0.4-0.2,0.6-0.5,0.8-0.9V327
	h-1.1c-1.7,0-2.5,0.5-2.5,1.5c0,0.4,0.1,0.8,0.4,1C373,329.7,373.4,329.8,373.8,329.8z M383.7,325.1c0-0.4-0.1-0.7-0.4-0.9
	c-0.3-0.2-0.7-0.3-1.2-0.3c-0.5,0-0.9,0.1-1.2,0.4c-0.3,0.2-0.5,0.5-0.5,0.9h-1.3c0-0.7,0.3-1.2,0.9-1.7c0.6-0.4,1.3-0.7,2.2-0.7
	c0.9,0,1.6,0.2,2.2,0.6c0.5,0.4,0.8,1,0.8,1.7c0,0.4-0.1,0.7-0.3,1c-0.2,0.3-0.5,0.5-0.9,0.7c0.9,0.3,1.4,0.9,1.4,1.9
	c0,0.7-0.3,1.3-0.8,1.7c-0.6,0.4-1.3,0.6-2.2,0.6c-0.9,0-1.7-0.2-2.3-0.7c-0.6-0.4-0.9-1.1-0.9-1.8h1.4c0,0.4,0.2,0.7,0.5,1
	c0.3,0.3,0.8,0.4,1.3,0.4c0.5,0,0.9-0.1,1.2-0.4c0.3-0.2,0.5-0.6,0.5-0.9c0-0.4-0.1-0.8-0.4-1c-0.3-0.2-0.7-0.3-1.2-0.3h-1.3v-1.1
	h1.5C383.2,326.2,383.7,325.9,383.7,325.1z M396.6,330.9h-1.4V328c-0.6,0.2-1.2,0.2-1.8,0.2c-1,0-1.7-0.3-2.3-0.8
	c-0.5-0.5-0.8-1.2-0.8-2.2v-2.4h1.4v2.4c0,1.2,0.6,1.8,1.7,1.8c0.6,0,1.2-0.1,1.8-0.2V323h1.4V330.9z M403.7,330.9
	c-0.1-0.1-0.1-0.4-0.2-0.8c-0.6,0.7-1.4,1-2.3,1c-0.8,0-1.4-0.2-1.9-0.7s-0.8-1-0.8-1.7c0-0.8,0.3-1.5,0.9-1.9
	c0.6-0.5,1.5-0.7,2.6-0.7h1.3v-0.6c0-0.5-0.1-0.9-0.4-1.1c-0.3-0.3-0.7-0.4-1.2-0.4c-0.5,0-0.9,0.1-1.2,0.4
	c-0.3,0.2-0.5,0.5-0.5,0.9h-1.4c0-0.4,0.1-0.8,0.4-1.1s0.7-0.7,1.1-0.9c0.5-0.2,1-0.3,1.6-0.3c0.9,0,1.6,0.2,2.1,0.7
	c0.5,0.5,0.8,1.1,0.8,1.9v3.7c0,0.7,0.1,1.3,0.3,1.7v0.1H403.7z M401.5,329.8c0.4,0,0.8-0.1,1.2-0.3c0.4-0.2,0.7-0.5,0.8-0.9V327
	h-1.1c-1.7,0-2.5,0.5-2.5,1.5c0,0.4,0.2,0.8,0.4,1C400.6,329.7,401,329.8,401.5,329.8z M408.4,323v6.8h2.9V323h1.4v6.8h2.9V323h1.4
	v6.8h1.1l-0.1,3.5h-1.2v-2.4H407V323H408.4z M422.7,331c-1.1,0-2-0.4-2.6-1.1c-0.7-0.7-1-1.7-1-2.8v-0.2c0-0.8,0.1-1.5,0.5-2.1
	c0.3-0.6,0.7-1.1,1.3-1.4c0.5-0.4,1.1-0.5,1.8-0.5c1,0,1.8,0.3,2.4,1c0.6,0.7,0.9,1.6,0.9,2.9v0.6h-5.4c0,0.8,0.2,1.4,0.7,1.9
	s1,0.7,1.7,0.7c0.5,0,0.9-0.1,1.2-0.3c0.3-0.2,0.6-0.5,0.9-0.8l0.8,0.6C425,330.5,424,331,422.7,331z M422.5,323.9
	c-0.5,0-1,0.2-1.4,0.6c-0.4,0.4-0.6,1-0.7,1.7h4v-0.1c0-0.7-0.2-1.2-0.6-1.6C423.5,324.1,423.1,323.9,422.5,323.9z M427.3,333
	l-0.8-0.5c0.5-0.6,0.7-1.3,0.7-2v-1.2h1.3v1.1c0,0.5-0.1,1-0.4,1.5C428,332.3,427.6,332.7,427.3,333z M440,330.9h-1.4V328
	c-0.6,0.2-1.2,0.2-1.8,0.2c-1,0-1.8-0.3-2.3-0.8c-0.5-0.5-0.8-1.2-0.8-2.2v-2.4h1.4v2.4c0,1.2,0.6,1.8,1.7,1.8
	c0.6,0,1.2-0.1,1.8-0.2V323h1.4V330.9z M445.4,331c-1.1,0-1.9-0.4-2.6-1.1c-0.7-0.7-1-1.7-1-2.8v-0.2c0-0.8,0.1-1.5,0.5-2.1
	c0.3-0.6,0.7-1.1,1.2-1.4c0.5-0.4,1.1-0.5,1.8-0.5c1,0,1.8,0.3,2.4,1c0.6,0.7,0.9,1.6,0.9,2.9v0.6h-5.4c0,0.8,0.2,1.4,0.7,1.9
	c0.4,0.5,1,0.7,1.7,0.7c0.5,0,0.9-0.1,1.2-0.3c0.3-0.2,0.6-0.5,0.9-0.8l0.8,0.6C447.7,330.5,446.8,331,445.4,331z M445.2,323.9
	c-0.5,0-1,0.2-1.4,0.6c-0.4,0.4-0.6,1-0.7,1.7h4v-0.1c0-0.7-0.2-1.2-0.5-1.6C446.3,324.1,445.8,323.9,445.2,323.9z M454.6,329.1
	l2.7-6.1h1.7v7.9h-1.4v-5.8l-2.6,5.8h-0.9l-2.6-5.9v5.9h-1.4V323h1.8L454.6,329.1z M464.6,326.8c0-0.8,0.1-1.5,0.5-2.1
	c0.3-0.6,0.7-1.1,1.3-1.4c0.5-0.3,1.2-0.5,1.9-0.5c1.1,0,2,0.4,2.6,1.1c0.7,0.8,1,1.7,1,3v0.1c0,0.8-0.1,1.5-0.4,2.1
	c-0.3,0.6-0.7,1.1-1.3,1.4c-0.5,0.3-1.2,0.5-1.9,0.5c-1.1,0-2-0.4-2.6-1.1C464.9,329.1,464.6,328.2,464.6,326.8L464.6,326.8z
	 M465.9,327c0,0.9,0.2,1.6,0.6,2.1c0.4,0.5,1,0.8,1.6,0.8c0.7,0,1.2-0.3,1.6-0.8c0.4-0.5,0.6-1.3,0.6-2.3c0-0.9-0.2-1.6-0.6-2.1
	c-0.4-0.5-1-0.8-1.6-0.8c-0.7,0-1.2,0.3-1.6,0.8C466.1,325.2,465.9,326,465.9,327z M477,323.4c1,0,1.8,0.3,2.4,1
	c0.6,0.7,0.9,1.6,0.9,2.6v0.1c0,0.8-0.1,1.4-0.4,2c-0.3,0.6-0.7,1.1-1.2,1.4c-0.5,0.3-1.2,0.5-1.9,0.5c-1.1,0-1.9-0.4-2.6-1.1
	c-0.6-0.7-1-1.7-1-2.9v-0.7c0-1.7,0.3-3,0.9-4c0.6-1,1.5-1.6,2.7-1.8c0.7-0.1,1.1-0.3,1.4-0.4c0.2-0.2,0.4-0.4,0.4-0.7h1.1
	c0,0.6-0.1,1.1-0.4,1.4c-0.3,0.3-0.7,0.6-1.3,0.7l-1,0.2c-0.8,0.2-1.4,0.5-1.8,1c-0.4,0.5-0.7,1.1-0.8,1.8
	C475,323.8,475.9,323.4,477,323.4z M476.7,324.5c-0.7,0-1.2,0.2-1.6,0.7c-0.4,0.4-0.6,1.1-0.6,1.8v0.1c0,0.9,0.2,1.5,0.6,2
	c0.4,0.5,0.9,0.7,1.6,0.7c0.7,0,1.2-0.2,1.6-0.7c0.4-0.5,0.6-1.2,0.6-2.2c0-0.7-0.2-1.3-0.6-1.8
	C477.9,324.7,477.4,324.5,476.7,324.5z M483.2,325.7h2.1c0.9,0,1.6,0.2,2.1,0.7c0.5,0.5,0.8,1.1,0.8,1.9c0,0.8-0.3,1.4-0.8,1.9
	c-0.5,0.5-1.3,0.7-2.2,0.7h-3.4V323h1.4V325.7z M491,330.9h-1.4V323h1.4V330.9z M483.2,326.8v3h2c0.5,0,0.9-0.1,1.2-0.4
	s0.4-0.6,0.4-1.1c0-0.4-0.1-0.8-0.4-1.1c-0.3-0.3-0.6-0.4-1.1-0.4H483.2z M499.4,330.9H498V328c-0.6,0.2-1.2,0.2-1.8,0.2
	c-1,0-1.8-0.3-2.3-0.8c-0.5-0.5-0.8-1.2-0.8-2.2v-2.4h1.4v2.4c0,1.2,0.6,1.8,1.7,1.8c0.6,0,1.2-0.1,1.8-0.2V323h1.4V330.9z
	 M508,330.9h-1.4v-3.4H503v3.4h-1.4V323h1.4v3.4h3.6V323h1.4V330.9z M511.7,325.7h2.1c0.9,0,1.6,0.2,2.1,0.7
	c0.5,0.5,0.8,1.1,0.8,1.9c0,0.8-0.3,1.4-0.8,1.9c-0.5,0.5-1.3,0.7-2.2,0.7h-3.4V323h1.4V325.7z M519.5,330.9h-1.4V323h1.4V330.9z
	 M511.7,326.8v3h2c0.5,0,0.9-0.1,1.2-0.4c0.3-0.3,0.4-0.6,0.4-1.1c0-0.4-0.1-0.8-0.4-1.1c-0.3-0.3-0.7-0.4-1.1-0.4H511.7z
	 M524.5,325.8l1.8-2.9h1.6l-2.6,3.9l2.7,4h-1.6l-1.8-3l-1.8,3h-1.6l2.7-4l-2.6-3.9h1.6L524.5,325.8z M539.5,323v7.9h-1.4v-6.8h-2.7
	l-0.2,3c-0.1,1.4-0.3,2.3-0.7,2.9c-0.4,0.6-1,0.9-1.8,0.9h-0.5v-1.2l0.4,0c0.4,0,0.8-0.3,0.9-0.8c0.2-0.5,0.3-1.3,0.4-2.6l0.1-3.4
	H539.5z M543.2,326.3h1.9c0.1-1,0.5-1.9,1.1-2.5c0.7-0.7,1.5-1,2.5-1c1,0,1.9,0.4,2.5,1.1c0.7,0.7,1,1.6,1.1,2.7l0,0.4
	c0,0.8-0.2,1.5-0.5,2.1c-0.3,0.6-0.7,1.1-1.3,1.4c-0.6,0.3-1.2,0.5-1.9,0.5c-1,0-1.9-0.3-2.5-1c-0.7-0.7-1-1.5-1.1-2.6h-1.9v3.5
	h-1.4V323h1.4V326.3z M546.4,327c0,0.9,0.2,1.6,0.6,2.1c0.4,0.5,1,0.8,1.7,0.8c0.7,0,1.2-0.3,1.6-0.8c0.4-0.5,0.6-1.3,0.6-2.3
	c0-0.9-0.2-1.6-0.6-2.1c-0.4-0.5-1-0.8-1.6-0.8c-0.7,0-1.2,0.3-1.6,0.8C546.6,325.2,546.4,326,546.4,327z M553.8,329.8l0.5-0.6
	c0.5-0.7,0.8-1.7,0.9-3.1l0.1-3.2h5.1v6.8h1v3.4h-1.4v-2.3h-5.5v2.3h-1.4l0-3.4H553.8z M555.5,329.8h3.6v-5.6h-2.4l-0.1,1.9
	C556.5,327.7,556.1,328.9,555.5,329.8z M566.2,331c-1.1,0-2-0.4-2.6-1.1c-0.7-0.7-1-1.7-1-2.8v-0.2c0-0.8,0.2-1.5,0.5-2.1
	c0.3-0.6,0.7-1.1,1.3-1.4c0.5-0.4,1.1-0.5,1.8-0.5c1,0,1.8,0.3,2.4,1s0.8,1.6,0.8,2.9v0.6H564c0,0.8,0.2,1.4,0.7,1.9
	c0.4,0.5,1,0.7,1.7,0.7c0.5,0,0.9-0.1,1.2-0.3c0.3-0.2,0.6-0.5,0.9-0.8l0.8,0.6C568.6,330.5,567.6,331,566.2,331z M566.1,323.9
	c-0.5,0-1,0.2-1.4,0.6c-0.4,0.4-0.6,1-0.7,1.7h4v-0.1c0-0.7-0.2-1.2-0.6-1.6C567.1,324.1,566.7,323.9,566.1,323.9z M576,323h1.4v7.9
	H576v-5.8l-3.7,5.8H571V323h1.3v5.8L576,323z M576.4,320.1c0,0.6-0.2,1.1-0.6,1.4c-0.4,0.4-0.9,0.5-1.6,0.5c-0.7,0-1.2-0.2-1.6-0.6
	c-0.4-0.4-0.6-0.8-0.6-1.4h1.1c0,0.4,0.1,0.6,0.3,0.8c0.2,0.2,0.5,0.3,0.8,0.3c0.3,0,0.6-0.1,0.8-0.3c0.2-0.2,0.3-0.5,0.3-0.8H576.4
	z"/>
<path class="st2" d="M151.7,703.6h1.4v10.7h-1.4v-8.2l-5.3,8.2H145v-10.7h1.4v8.2L151.7,703.6z M158.6,713.3c0.5,0,0.9-0.1,1.3-0.4
	c0.4-0.3,0.6-0.7,0.6-1.1h1.3c0,0.5-0.2,0.9-0.5,1.3c-0.3,0.4-0.7,0.7-1.1,1c-0.5,0.2-1,0.4-1.5,0.4c-1.1,0-1.9-0.4-2.6-1.1
	c-0.6-0.7-1-1.7-1-3v-0.2c0-0.8,0.1-1.5,0.4-2c0.3-0.6,0.7-1.1,1.2-1.4c0.5-0.3,1.1-0.5,1.9-0.5c0.9,0,1.6,0.3,2.2,0.8
	c0.6,0.5,0.9,1.2,0.9,2.1h-1.3c0-0.5-0.2-0.9-0.6-1.3c-0.4-0.3-0.8-0.5-1.3-0.5c-0.7,0-1.2,0.2-1.6,0.7c-0.4,0.5-0.6,1.2-0.6,2.1
	v0.3c0,0.9,0.2,1.6,0.6,2.1S157.9,713.3,158.6,713.3z M169.2,707.5h-2.7v6.8h-1.4v-6.8h-2.6v-1.1h6.6V707.5z M170.1,710.3
	c0-0.8,0.1-1.5,0.5-2.1c0.3-0.6,0.7-1.1,1.3-1.4c0.5-0.3,1.2-0.5,1.9-0.5c1.1,0,2,0.4,2.6,1.1c0.7,0.8,1,1.7,1,3v0.1
	c0,0.8-0.1,1.5-0.4,2.1c-0.3,0.6-0.7,1.1-1.3,1.4c-0.6,0.3-1.2,0.5-1.9,0.5c-1.1,0-1.9-0.4-2.6-1.1
	C170.5,712.6,170.1,711.6,170.1,710.3L170.1,710.3z M171.5,710.4c0,0.9,0.2,1.6,0.6,2.1c0.4,0.5,0.9,0.8,1.6,0.8
	c0.7,0,1.2-0.3,1.6-0.8c0.4-0.5,0.6-1.3,0.6-2.3c0-0.9-0.2-1.6-0.6-2.1c-0.4-0.5-1-0.8-1.6-0.8c-0.7,0-1.2,0.3-1.6,0.8
	C171.7,708.7,171.5,709.4,171.5,710.4z M185,714.3h-1.4v-2.9c-0.6,0.2-1.2,0.2-1.8,0.2c-1,0-1.8-0.2-2.3-0.8s-0.8-1.2-0.8-2.2v-2.4
	h1.4v2.4c0,1.2,0.6,1.8,1.7,1.8c0.6,0,1.2-0.1,1.8-0.2v-3.9h1.4V714.3z M193.7,714.3h-1.4v-3.4h-3.6v3.4h-1.4v-7.9h1.4v3.4h3.6v-3.4
	h1.4V714.3z M201,706.4h1.4v7.9H201v-5.8l-3.6,5.8H196v-7.9h1.4v5.8L201,706.4z M207,710.9h-1v3.4h-1.4v-7.9h1.4v3.4h0.9l2.7-3.4
	h1.6l-3.1,3.8l3.4,4.1h-1.7L207,710.9z M212.5,713.6c0-0.2,0.1-0.4,0.2-0.6c0.1-0.2,0.3-0.2,0.6-0.2c0.3,0,0.5,0.1,0.6,0.2
	c0.1,0.2,0.2,0.3,0.2,0.6c0,0.2-0.1,0.4-0.2,0.6c-0.1,0.1-0.4,0.2-0.6,0.2c-0.3,0-0.5-0.1-0.6-0.2
	C212.6,714,212.5,713.8,212.5,713.6z M212.6,707.1c0-0.2,0.1-0.4,0.2-0.6c0.1-0.2,0.4-0.2,0.6-0.2c0.3,0,0.5,0.1,0.6,0.2
	c0.1,0.2,0.2,0.4,0.2,0.6s-0.1,0.4-0.2,0.6c-0.1,0.1-0.4,0.2-0.6,0.2c-0.3,0-0.5-0.1-0.6-0.2C212.6,707.5,212.6,707.3,212.6,707.1z
	 M228,710.9c-0.1,1.1-0.5,2-1.2,2.6c-0.7,0.6-1.6,0.9-2.8,0.9c-1.3,0-2.3-0.5-3-1.4c-0.8-0.9-1.1-2.1-1.1-3.6v-1
	c0-1,0.2-1.9,0.5-2.6c0.4-0.8,0.9-1.3,1.5-1.7c0.6-0.4,1.4-0.6,2.3-0.6c1.1,0,2,0.3,2.7,1c0.7,0.6,1.1,1.5,1.2,2.6h-1.4
	c-0.1-0.8-0.4-1.5-0.8-1.8s-1-0.6-1.7-0.6c-0.9,0-1.6,0.3-2.1,1c-0.5,0.7-0.8,1.6-0.8,2.8v1c0,1.2,0.2,2.1,0.7,2.8
	c0.5,0.7,1.2,1,2,1c0.8,0,1.4-0.2,1.8-0.5c0.4-0.3,0.7-1,0.8-1.8H228z M232.3,712.3l1.8-5.9h1.4l-3.2,9.2c-0.5,1.3-1.3,2-2.4,2
	l-0.3,0l-0.5-0.1v-1.1l0.4,0c0.5,0,0.8-0.1,1.1-0.3c0.3-0.2,0.5-0.5,0.6-1l0.3-0.8l-2.8-7.8h1.5L232.3,712.3z M236.7,713.2l0.5-0.6
	c0.5-0.7,0.8-1.7,0.9-3.1l0.1-3.2h5.1v6.8h1v3.4H243v-2.3h-5.5v2.3h-1.4l0-3.4H236.7z M238.3,713.2h3.6v-5.6h-2.4l-0.1,1.9
	C239.4,711.1,239,712.3,238.3,713.2z M249.1,714.5c-1.1,0-1.9-0.4-2.6-1.1c-0.7-0.7-1-1.7-1-2.8v-0.2c0-0.8,0.2-1.5,0.5-2.1
	c0.3-0.6,0.7-1.1,1.3-1.5c0.5-0.3,1.1-0.5,1.8-0.5c1,0,1.8,0.3,2.4,1c0.6,0.7,0.8,1.7,0.8,2.9v0.6h-5.4c0,0.8,0.2,1.4,0.7,1.9
	s1,0.7,1.7,0.7c0.5,0,0.9-0.1,1.2-0.3c0.3-0.2,0.6-0.5,0.9-0.8l0.8,0.6C251.5,713.9,250.5,714.5,249.1,714.5z M249,707.3
	c-0.5,0-1,0.2-1.4,0.6c-0.4,0.4-0.6,1-0.7,1.7h4v-0.1c0-0.7-0.2-1.2-0.6-1.6C250,707.5,249.5,707.3,249,707.3z M257.3,706.8
	c1,0,1.8,0.3,2.4,1c0.6,0.7,0.9,1.5,0.9,2.6v0.1c0,0.7-0.2,1.4-0.4,2c-0.3,0.6-0.7,1-1.2,1.4c-0.5,0.3-1.2,0.5-1.9,0.5
	c-1.1,0-1.9-0.4-2.6-1.1c-0.7-0.7-1-1.7-1-2.9v-0.7c0-1.7,0.3-3,0.9-4c0.6-1,1.5-1.6,2.7-1.8c0.7-0.1,1.1-0.3,1.4-0.4
	c0.2-0.2,0.4-0.4,0.4-0.7h1.1c0,0.6-0.1,1.1-0.4,1.4c-0.3,0.3-0.7,0.6-1.3,0.7l-1,0.2c-0.8,0.2-1.4,0.5-1.8,1
	c-0.4,0.4-0.7,1-0.8,1.8C255.4,707.2,256.2,706.8,257.3,706.8z M257,707.9c-0.7,0-1.2,0.2-1.6,0.7c-0.4,0.5-0.6,1.1-0.6,1.9v0.1
	c0,0.9,0.2,1.5,0.6,2c0.4,0.5,0.9,0.8,1.6,0.8c0.7,0,1.2-0.2,1.6-0.8s0.6-1.2,0.6-2.2c0-0.8-0.2-1.3-0.6-1.8
	C258.2,708.2,257.7,707.9,257,707.9z M268.6,714.3h-1.4v-3.4h-3.6v3.4h-1.4v-7.9h1.4v3.4h3.6v-3.4h1.4V714.3z M272.2,709.1h2.1
	c0.9,0,1.6,0.2,2.1,0.7s0.8,1.1,0.8,1.9s-0.3,1.4-0.8,1.9c-0.5,0.5-1.3,0.7-2.2,0.7h-3.4v-7.9h1.4V709.1z M280,714.3h-1.4v-7.9h1.4
	V714.3z M272.2,710.2v3h2c0.5,0,0.9-0.1,1.2-0.4c0.3-0.3,0.4-0.6,0.4-1.1c0-0.4-0.1-0.8-0.4-1.1c-0.3-0.3-0.6-0.4-1.1-0.4H272.2z
	 M287.5,706.4h1.4v7.9h-1.4v-5.8l-3.7,5.8h-1.4v-7.9h1.4v5.8L287.5,706.4z M287.9,703.5c0,0.6-0.2,1.1-0.6,1.4
	c-0.4,0.4-0.9,0.5-1.6,0.5c-0.7,0-1.2-0.2-1.6-0.5c-0.4-0.4-0.6-0.8-0.6-1.4h1.1c0,0.3,0.1,0.6,0.3,0.8c0.2,0.2,0.5,0.3,0.8,0.3
	c0.3,0,0.6-0.1,0.8-0.3c0.2-0.2,0.3-0.5,0.3-0.8H287.9z M294.7,713.2l0.5-0.6c0.5-0.7,0.8-1.7,0.9-3.1l0.1-3.2h5.1v6.8h1v3.4H301
	v-2.3h-5.5v2.3h-1.3l0-3.4H294.7z M296.3,713.2h3.6v-5.6h-2.4l-0.1,1.9C297.3,711.1,297,712.3,296.3,713.2z M307.1,714.5
	c-1.1,0-2-0.4-2.6-1.1c-0.7-0.7-1-1.7-1-2.8v-0.2c0-0.8,0.1-1.5,0.4-2.1c0.3-0.6,0.7-1.1,1.3-1.5c0.5-0.3,1.1-0.5,1.8-0.5
	c1,0,1.8,0.3,2.4,1c0.6,0.7,0.9,1.7,0.9,2.9v0.6h-5.4c0,0.8,0.2,1.4,0.7,1.9c0.4,0.5,1,0.7,1.7,0.7c0.5,0,0.9-0.1,1.2-0.3
	c0.3-0.2,0.6-0.5,0.9-0.8l0.8,0.6C309.4,713.9,308.4,714.5,307.1,714.5z M306.9,707.3c-0.5,0-1,0.2-1.4,0.6c-0.4,0.4-0.6,1-0.7,1.7
	h4v-0.1c0-0.7-0.2-1.2-0.6-1.6C308,707.5,307.5,707.3,306.9,707.3z M318.2,714.3h-1.4v-6.8h-3.6v6.8h-1.4v-7.9h6.4V714.3z
	 M325.3,714.3c-0.1-0.2-0.1-0.4-0.2-0.8c-0.6,0.7-1.4,1-2.3,1c-0.8,0-1.4-0.2-1.9-0.7c-0.5-0.4-0.8-1-0.8-1.7c0-0.8,0.3-1.5,0.9-1.9
	s1.5-0.7,2.6-0.7h1.3v-0.6c0-0.5-0.1-0.8-0.4-1.1c-0.3-0.3-0.7-0.4-1.2-0.4c-0.5,0-0.9,0.1-1.2,0.4c-0.3,0.2-0.5,0.5-0.5,0.9h-1.4
	c0-0.4,0.1-0.8,0.4-1.1c0.3-0.4,0.7-0.7,1.1-0.9c0.5-0.2,1-0.3,1.6-0.3c0.9,0,1.6,0.2,2.1,0.7c0.5,0.5,0.8,1.1,0.8,1.9v3.7
	c0,0.7,0.1,1.3,0.3,1.7v0.1H325.3z M323.1,713.3c0.4,0,0.8-0.1,1.2-0.3c0.4-0.2,0.6-0.5,0.8-0.9v-1.6H324c-1.7,0-2.5,0.5-2.5,1.5
	c0,0.4,0.1,0.8,0.4,1C322.2,713.2,322.6,713.3,323.1,713.3z M335.3,710.4c0,1.2-0.3,2.2-0.8,2.9c-0.5,0.7-1.3,1.1-2.2,1.1
	c-1,0-1.7-0.3-2.3-0.9v3.8h-1.4v-11h1.2l0.1,0.9c0.5-0.7,1.3-1,2.3-1c1,0,1.7,0.4,2.3,1.1c0.5,0.7,0.8,1.7,0.8,3V710.4z
	 M333.9,710.3c0-0.9-0.2-1.6-0.6-2.1c-0.4-0.5-0.9-0.8-1.6-0.8c-0.8,0-1.4,0.4-1.8,1.1v3.8c0.4,0.7,1,1.1,1.9,1.1
	c0.7,0,1.2-0.3,1.6-0.8C333.7,712,333.9,711.3,333.9,710.3z M342.9,707.5h-2.7v6.8h-1.4v-6.8h-2.6v-1.1h6.6V707.5z M349.1,714.3
	c-0.1-0.2-0.1-0.4-0.2-0.8c-0.6,0.7-1.4,1-2.3,1c-0.8,0-1.4-0.2-1.9-0.7c-0.5-0.4-0.8-1-0.8-1.7c0-0.8,0.3-1.5,0.9-1.9
	c0.6-0.5,1.5-0.7,2.6-0.7h1.3v-0.6c0-0.5-0.1-0.8-0.4-1.1c-0.3-0.3-0.7-0.4-1.2-0.4c-0.5,0-0.9,0.1-1.2,0.4
	c-0.3,0.2-0.5,0.5-0.5,0.9h-1.4c0-0.4,0.1-0.8,0.4-1.1c0.3-0.4,0.7-0.7,1.1-0.9c0.5-0.2,1-0.3,1.6-0.3c0.9,0,1.6,0.2,2.1,0.7
	c0.5,0.5,0.8,1.1,0.8,1.9v3.7c0,0.7,0.1,1.3,0.3,1.7v0.1H349.1z M346.8,713.3c0.4,0,0.8-0.1,1.2-0.3s0.7-0.5,0.8-0.9v-1.6h-1.1
	c-1.7,0-2.5,0.5-2.5,1.5c0,0.4,0.1,0.8,0.4,1C346,713.2,346.4,713.3,346.8,713.3z M356.9,712.5l2.7-6.1h1.7v7.9H360v-5.8l-2.6,5.8
	h-0.9l-2.6-5.9v5.9h-1.4v-7.9h1.8L356.9,712.5z M366.8,714.5c-1.1,0-2-0.4-2.6-1.1c-0.7-0.7-1-1.7-1-2.8v-0.2c0-0.8,0.1-1.5,0.4-2.1
	s0.7-1.1,1.3-1.5s1.1-0.5,1.8-0.5c1,0,1.8,0.3,2.4,1c0.6,0.7,0.9,1.7,0.9,2.9v0.6h-5.4c0,0.8,0.2,1.4,0.7,1.9c0.4,0.5,1,0.7,1.7,0.7
	c0.5,0,0.9-0.1,1.2-0.3c0.3-0.2,0.6-0.5,0.9-0.8l0.8,0.6C369.1,713.9,368.1,714.5,366.8,714.5z M366.6,707.3c-0.6,0-1,0.2-1.4,0.6
	c-0.4,0.4-0.6,1-0.7,1.7h4v-0.1c0-0.7-0.2-1.2-0.6-1.6C367.6,707.5,367.2,707.3,366.6,707.3z M377.9,714.3h-1.4v-3.4h-3.6v3.4h-1.4
	v-7.9h1.4v3.4h3.6v-3.4h1.4V714.3z M386,707.5h-2.7v6.8H382v-6.8h-2.6v-1.1h6.6V707.5z M397.5,714.3h-1.4v-6.8h-3.6v6.8h-1.4v-7.9
	h6.4V714.3z M406.4,710.4c0,1.2-0.3,2.2-0.8,2.9c-0.5,0.7-1.3,1.1-2.2,1.1c-1,0-1.7-0.3-2.3-0.9v3.8h-1.4v-11h1.2l0.1,0.9
	c0.6-0.7,1.3-1,2.3-1c0.9,0,1.7,0.4,2.3,1.1c0.6,0.7,0.8,1.7,0.8,3V710.4z M405,710.3c0-0.9-0.2-1.6-0.6-2.1
	c-0.4-0.5-0.9-0.8-1.6-0.8c-0.8,0-1.4,0.4-1.8,1.1v3.8c0.4,0.7,1,1.1,1.9,1.1c0.6,0,1.2-0.3,1.5-0.8C404.8,712,405,711.3,405,710.3z
	 M413.2,706.4h1.3v7.9h-1.3v-5.8l-3.7,5.8h-1.4v-7.9h1.4v5.8L413.2,706.4z M420.6,714.3v-10.7h3.5c1.2,0,2,0.2,2.6,0.7
	c0.6,0.5,0.9,1.2,0.9,2.1c0,0.5-0.1,0.9-0.4,1.3c-0.3,0.4-0.7,0.7-1.2,0.9c0.6,0.2,1,0.5,1.4,0.9c0.3,0.5,0.5,1,0.5,1.6
	c0,1-0.3,1.7-0.9,2.3c-0.6,0.6-1.5,0.8-2.6,0.8H420.6z M422.1,709.3v3.8h2.3c0.7,0,1.2-0.2,1.5-0.5c0.4-0.3,0.6-0.8,0.6-1.4
	c0-1.3-0.7-1.9-2.1-1.9H422.1z M422.1,708.2h2.1c0.6,0,1.1-0.1,1.5-0.5c0.4-0.3,0.5-0.7,0.5-1.2c0-0.6-0.2-1-0.5-1.3
	c-0.3-0.3-0.9-0.4-1.6-0.4h-2.1V708.2z M437.8,710.9c-0.1,1.1-0.5,2-1.2,2.6c-0.7,0.6-1.6,0.9-2.8,0.9c-1.3,0-2.3-0.5-3-1.4
	c-0.8-0.9-1.1-2.1-1.1-3.6v-1c0-1,0.2-1.9,0.5-2.6c0.4-0.8,0.9-1.3,1.5-1.7c0.6-0.4,1.4-0.6,2.3-0.6c1.1,0,2,0.3,2.7,1
	c0.7,0.6,1.1,1.5,1.2,2.6h-1.4c-0.1-0.8-0.4-1.5-0.8-1.8s-1-0.6-1.7-0.6c-0.9,0-1.6,0.3-2.1,1c-0.5,0.7-0.8,1.6-0.8,2.8v1
	c0,1.2,0.2,2.1,0.7,2.8c0.5,0.7,1.1,1,2,1c0.8,0,1.4-0.2,1.8-0.5c0.4-0.3,0.7-1,0.8-1.8H437.8z M444.9,710.1v4.2h-1.4v-10.7h3.9
	c1.2,0,2.1,0.3,2.8,0.9c0.7,0.6,1,1.4,1,2.4c0,1-0.3,1.8-1,2.4c-0.6,0.5-1.6,0.8-2.8,0.8H444.9z M444.9,709h2.5
	c0.8,0,1.3-0.2,1.7-0.5c0.4-0.4,0.6-0.9,0.6-1.5c0-0.6-0.2-1.1-0.6-1.5c-0.4-0.4-1-0.6-1.6-0.6h-2.6V709z M458.2,704.7h0.2
	c0.8,0,1.5,0.2,2.2,0.6s1.2,0.9,1.5,1.5c0.4,0.7,0.6,1.4,0.6,2.2s-0.2,1.5-0.6,2.2c-0.4,0.7-0.9,1.2-1.5,1.5
	c-0.7,0.4-1.4,0.5-2.2,0.6h-0.2v1.4h-1.4v-1.4h-0.2c-0.8,0-1.6-0.2-2.2-0.5c-0.7-0.4-1.2-0.9-1.6-1.5c-0.4-0.7-0.6-1.4-0.6-2.2
	c0-0.8,0.2-1.5,0.6-2.2c0.4-0.6,0.9-1.2,1.6-1.5c0.7-0.4,1.4-0.6,2.2-0.6h0.2v-1.5h1.4V704.7z M456.6,705.8c-0.9,0-1.6,0.3-2.2,0.9
	c-0.5,0.6-0.8,1.3-0.8,2.3c0,1,0.3,1.8,0.8,2.3c0.5,0.6,1.3,0.8,2.2,0.8h0.2v-6.4H456.6z M458.2,705.8v6.4h0.2
	c0.9,0,1.7-0.3,2.2-0.9c0.5-0.6,0.8-1.4,0.8-2.3c0-1-0.3-1.8-0.8-2.3c-0.5-0.6-1.3-0.9-2.2-0.9H458.2z"/>
<g>
	<path class="st2" d="M687.2,709c0.5,0,0.8-0.1,1-0.4c0.2-0.3,0.3-0.6,0.3-1.1v-2.3c0-0.5,0.1-0.9,0.2-1.2c0.1-0.4,0.3-0.6,0.6-0.9
		c0.3-0.2,0.6-0.4,1.1-0.6c0.4-0.1,1-0.2,1.6-0.2h0.3v1.8h-0.4c-0.5,0-0.8,0.1-1,0.3s-0.2,0.5-0.2,1v2.1c0,0.5-0.1,1-0.2,1.4
		c-0.1,0.4-0.4,0.7-0.9,1c0.4,0.3,0.7,0.6,0.9,1c0.2,0.4,0.2,0.8,0.2,1.4v2.1c0,0.4,0.1,0.8,0.2,1c0.2,0.2,0.5,0.3,1,0.3h0.4v1.9
		H692c-0.7,0-1.2-0.1-1.6-0.2c-0.4-0.1-0.8-0.3-1.1-0.5s-0.5-0.5-0.6-0.9c-0.1-0.4-0.2-0.8-0.2-1.2v-2.4c0-0.4-0.1-0.8-0.3-1.1
		c-0.2-0.3-0.5-0.4-1-0.4V709z"/>
	<path class="st2" d="M703.9,703.8h2.4l-0.1,13.7h-2.4l0.1-7.5h-4.1v4.6h-2.4v-10.8h2.4v4.1h4.1V703.8L703.9,703.8z"/>
	<path class="st2" d="M716.4,710.5c0,0.6-0.1,1.2-0.3,1.8c-0.2,0.5-0.5,1-0.8,1.4c-0.4,0.4-0.8,0.7-1.3,0.9c-0.5,0.2-1,0.3-1.7,0.3
		c-0.6,0-1.1-0.1-1.6-0.3c-0.5-0.2-0.9-0.5-1.3-0.9c-0.4-0.4-0.6-0.8-0.8-1.4c-0.2-0.5-0.3-1.1-0.3-1.8c0-0.7,0.1-1.2,0.3-1.8
		c0.2-0.5,0.5-1,0.8-1.4c0.4-0.4,0.8-0.7,1.3-0.9c0.5-0.2,1-0.3,1.6-0.3c0.6,0,1.1,0.1,1.6,0.3c0.5,0.2,0.9,0.5,1.3,0.9
		c0.4,0.4,0.6,0.8,0.8,1.4C716.3,709.3,716.4,709.8,716.4,710.5z M714,710.5c0-0.7-0.1-1.3-0.4-1.7c-0.3-0.4-0.7-0.6-1.2-0.6
		c-0.5,0-0.9,0.2-1.2,0.6c-0.3,0.4-0.4,1-0.4,1.7c0,0.7,0.2,1.3,0.4,1.7c0.3,0.4,0.7,0.6,1.2,0.6c0.5,0,0.9-0.2,1.2-0.6
		C713.8,711.8,714,711.2,714,710.5z"/>
	<path class="st2" d="M721.7,714.8c-0.3,0-0.6,0-0.9,0c-0.3,0-0.7-0.1-1-0.1c-0.3,0-0.6-0.1-0.9-0.1c-0.3,0-0.5-0.1-0.7-0.1v-7.9
		c0.2,0,0.4-0.1,0.7-0.1c0.3,0,0.6-0.1,0.9-0.1c0.3,0,0.7-0.1,1-0.1c0.3,0,0.6,0,0.9,0c0.7,0,1.2,0.1,1.7,0.2
		c0.5,0.1,0.8,0.3,1.1,0.5c0.3,0.2,0.5,0.5,0.6,0.7c0.1,0.3,0.2,0.5,0.2,0.8c0,0.4-0.1,0.7-0.3,1c-0.2,0.3-0.4,0.5-0.7,0.7
		c0.1,0.1,0.3,0.1,0.4,0.3c0.2,0.1,0.3,0.2,0.4,0.4c0.1,0.2,0.2,0.3,0.3,0.6c0.1,0.2,0.1,0.5,0.1,0.8c0,0.3-0.1,0.7-0.2,1
		c-0.1,0.3-0.3,0.6-0.7,0.8c-0.3,0.2-0.7,0.4-1.2,0.6C723.1,714.7,722.5,714.8,721.7,714.8z M721.8,709.6c0.4,0,0.7,0,0.9-0.2
		c0.2-0.1,0.4-0.3,0.4-0.6c0-0.3-0.1-0.5-0.4-0.6c-0.3-0.1-0.6-0.2-1.1-0.2c-0.1,0-0.3,0-0.6,0c-0.2,0-0.4,0-0.6,0.1v1.5H721.8
		L721.8,709.6z M720.5,712.9c0.1,0,0.3,0,0.6,0c0.2,0,0.5,0,0.7,0c0.5,0,0.9-0.1,1.2-0.2c0.3-0.1,0.4-0.4,0.4-0.7
		c0-0.3-0.1-0.6-0.4-0.7c-0.3-0.1-0.7-0.2-1.2-0.2h-1.4V712.9L720.5,712.9z"/>
	<path class="st2" d="M730.4,706.2c0.7,0,1.3,0.1,1.7,0.2c0.5,0.2,0.8,0.4,1.1,0.7c0.3,0.3,0.5,0.6,0.6,1.1c0.1,0.4,0.2,0.9,0.2,1.4
		v4.8c-0.3,0.1-0.8,0.2-1.4,0.2c-0.6,0.1-1.3,0.2-2.1,0.2c-0.5,0-1,0-1.4-0.1c-0.4-0.1-0.8-0.2-1.1-0.5c-0.3-0.2-0.6-0.5-0.7-0.8
		c-0.2-0.3-0.2-0.8-0.2-1.3c0-0.5,0.1-0.9,0.3-1.2c0.2-0.3,0.5-0.6,0.8-0.8c0.3-0.2,0.7-0.3,1.1-0.4c0.4-0.1,0.9-0.1,1.3-0.1
		c0.3,0,0.6,0,0.8,0c0.2,0,0.4,0.1,0.6,0.1v-0.2c0-0.4-0.1-0.7-0.4-1s-0.7-0.3-1.2-0.3c-0.4,0-0.8,0-1.2,0.1c-0.4,0.1-0.7,0.1-1,0.2
		l-0.3-1.9c0.1,0,0.3-0.1,0.5-0.1c0.2,0,0.4-0.1,0.7-0.1c0.2,0,0.5-0.1,0.8-0.1C729.9,706.2,730.2,706.2,730.4,706.2z M730.6,713
		c0.2,0,0.4,0,0.7,0c0.2,0,0.4,0,0.5,0v-1.8c-0.1,0-0.2,0-0.4-0.1c-0.2,0-0.4,0-0.5,0c-0.2,0-0.4,0-0.6,0c-0.2,0-0.4,0.1-0.5,0.2
		c-0.2,0.1-0.3,0.2-0.4,0.3c-0.1,0.1-0.1,0.3-0.1,0.5c0,0.4,0.1,0.6,0.4,0.8C729.8,712.9,730.2,713,730.6,713z"/>
	<path class="st2" d="M739.5,711.7c-0.3,0.5-0.6,1-0.9,1.5c-0.3,0.5-0.5,1-0.8,1.4h-2.4c0.3-0.7,0.6-1.3,0.9-1.8s0.6-1,0.9-1.5
		c-0.4-0.2-0.8-0.5-1-0.9c-0.3-0.4-0.4-0.8-0.4-1.3c0-0.9,0.3-1.6,1-2.1c0.7-0.5,1.6-0.7,2.7-0.7c0.3,0,0.5,0,0.9,0
		c0.3,0,0.6,0.1,0.9,0.1c0.3,0,0.6,0.1,0.9,0.1c0.3,0,0.5,0.1,0.7,0.2v8h-2.3v-2.9H739.5z M740.7,708.1c-0.1,0-0.3,0-0.5,0
		c-0.2,0-0.4,0-0.6,0c-0.6,0-1,0.1-1.2,0.3c-0.2,0.2-0.3,0.4-0.3,0.7c0,0.2,0,0.4,0.1,0.5c0.1,0.1,0.2,0.2,0.3,0.3
		c0.1,0.1,0.3,0.1,0.5,0.2c0.2,0,0.3,0,0.5,0h1.1V708.1L740.7,708.1z"/>
	<path class="st2" d="M751.2,707.8c0,0.5-0.2,0.8-0.4,1.1c-0.3,0.2-0.6,0.4-1,0.4c-0.4,0-0.7-0.1-1-0.4c-0.3-0.2-0.5-0.6-0.5-1.1
		c0-0.5,0.2-0.8,0.5-1.1c0.3-0.2,0.6-0.4,1-0.4c0.4,0,0.7,0.1,1,0.4C751.1,707,751.2,707.4,751.2,707.8z M751.2,713.4
		c0,0.5-0.2,0.8-0.4,1.1c-0.3,0.2-0.6,0.4-1,0.4c-0.4,0-0.7-0.1-1-0.4c-0.3-0.2-0.5-0.6-0.5-1.1s0.2-0.8,0.5-1.1
		c0.3-0.2,0.6-0.4,1-0.4c0.4,0,0.7,0.1,1,0.4C751.1,712.6,751.2,712.9,751.2,713.4z"/>
	<path class="st2" d="M755.7,712.5h1.6c0.4-0.7,0.7-1.3,0.9-2c0.2-0.7,0.4-1.3,0.5-2c0.1-0.7,0.2-1.4,0.2-2.1c0-0.7,0-1.5,0-2.3
		v-0.4h7.1v8.7h1.9v5h-2.3v-2.9h-7.5v2.9h-2.3V712.5z M761.2,705.9c0,0.6-0.1,1.1-0.1,1.7c0,0.6-0.1,1.2-0.2,1.8
		c-0.1,0.6-0.2,1.1-0.4,1.7c-0.2,0.5-0.4,1.1-0.6,1.5h3.9v-6.7H761.2z"/>
	<path class="st2" d="M772.3,706.2c0.7,0,1.3,0.1,1.7,0.2c0.5,0.2,0.8,0.4,1.1,0.7c0.3,0.3,0.5,0.6,0.6,1.1c0.1,0.4,0.2,0.9,0.2,1.4
		v4.8c-0.3,0.1-0.8,0.2-1.4,0.2s-1.3,0.2-2.2,0.2c-0.5,0-1,0-1.4-0.1c-0.4-0.1-0.8-0.2-1.1-0.5c-0.3-0.2-0.5-0.5-0.7-0.8
		c-0.2-0.3-0.2-0.8-0.2-1.3c0-0.5,0.1-0.9,0.3-1.2c0.2-0.3,0.4-0.6,0.8-0.8c0.3-0.2,0.7-0.3,1.1-0.4c0.4-0.1,0.9-0.1,1.3-0.1
		c0.3,0,0.6,0,0.8,0c0.2,0,0.4,0.1,0.6,0.1v-0.2c0-0.4-0.1-0.7-0.4-1s-0.7-0.3-1.2-0.3c-0.4,0-0.8,0-1.2,0.1c-0.4,0.1-0.7,0.1-1,0.2
		l-0.3-1.9c0.1,0,0.3-0.1,0.5-0.1c0.2,0,0.4-0.1,0.7-0.1c0.2,0,0.5-0.1,0.8-0.1C771.7,706.2,772,706.2,772.3,706.2z M772.5,713
		c0.2,0,0.4,0,0.7,0c0.2,0,0.4,0,0.5,0v-1.8c-0.1,0-0.2,0-0.4-0.1c-0.2,0-0.4,0-0.5,0c-0.2,0-0.4,0-0.6,0c-0.2,0-0.4,0.1-0.5,0.2
		c-0.1,0.1-0.2,0.2-0.3,0.3c-0.1,0.1-0.1,0.3-0.1,0.5c0,0.4,0.1,0.6,0.4,0.8C771.7,712.9,772,713,772.5,713z"/>
	<path class="st2" d="M784.7,708.3h-2.6v6.3h-2.3v-6.3h-2.6v-1.9h7.6V708.3L784.7,708.3z"/>
	<path class="st2" d="M789.1,706.2c0.7,0,1.3,0.1,1.7,0.2c0.5,0.2,0.8,0.4,1.1,0.7c0.3,0.3,0.5,0.6,0.6,1.1c0.1,0.4,0.2,0.9,0.2,1.4
		v4.8c-0.3,0.1-0.8,0.2-1.4,0.2s-1.3,0.2-2.2,0.2c-0.5,0-1,0-1.4-0.1c-0.4-0.1-0.8-0.2-1.1-0.5c-0.3-0.2-0.6-0.5-0.7-0.8
		c-0.2-0.3-0.2-0.8-0.2-1.3c0-0.5,0.1-0.9,0.3-1.2c0.2-0.3,0.4-0.6,0.8-0.8c0.3-0.2,0.7-0.3,1.1-0.4c0.4-0.1,0.8-0.1,1.3-0.1
		c0.3,0,0.6,0,0.8,0c0.2,0,0.4,0.1,0.6,0.1v-0.2c0-0.4-0.1-0.7-0.4-1c-0.2-0.2-0.7-0.3-1.2-0.3c-0.4,0-0.8,0-1.2,0.1
		c-0.4,0.1-0.7,0.1-1,0.2l-0.3-1.9c0.1,0,0.3-0.1,0.5-0.1c0.2,0,0.4-0.1,0.7-0.1c0.2,0,0.5-0.1,0.8-0.1
		C788.5,706.2,788.8,706.2,789.1,706.2z M789.3,713c0.2,0,0.4,0,0.7,0c0.2,0,0.4,0,0.5,0v-1.8c-0.1,0-0.2,0-0.4-0.1
		c-0.2,0-0.4,0-0.5,0c-0.2,0-0.4,0-0.6,0c-0.2,0-0.4,0.1-0.5,0.2c-0.1,0.1-0.2,0.2-0.3,0.3c-0.1,0.1-0.1,0.3-0.1,0.5
		c0,0.4,0.1,0.6,0.4,0.8C788.5,712.9,788.8,713,789.3,713z"/>
	<path class="st2" d="M794.3,708.9h4.5v2.1h-4.5V708.9z"/>
	<path class="st2" d="M808.2,710.5c0,0.6-0.1,1.2-0.3,1.8c-0.2,0.5-0.5,1-0.8,1.4c-0.4,0.4-0.8,0.7-1.3,0.9
		c-0.5,0.2-1.1,0.3-1.7,0.3c-0.6,0-1.2-0.1-1.6-0.3c-0.5-0.2-0.9-0.5-1.3-0.9c-0.3-0.4-0.6-0.8-0.8-1.4c-0.2-0.5-0.3-1.1-0.3-1.8
		c0-0.7,0.1-1.2,0.3-1.8c0.2-0.5,0.5-1,0.8-1.4c0.4-0.4,0.8-0.7,1.3-0.9c0.5-0.2,1-0.3,1.6-0.3c0.6,0,1.1,0.1,1.6,0.3
		c0.5,0.2,0.9,0.5,1.3,0.9c0.3,0.4,0.6,0.8,0.8,1.4C808,709.3,808.2,709.8,808.2,710.5z M805.8,710.5c0-0.7-0.2-1.3-0.4-1.7
		c-0.3-0.4-0.7-0.6-1.2-0.6c-0.5,0-0.9,0.2-1.2,0.6c-0.3,0.4-0.4,1-0.4,1.7c0,0.7,0.1,1.3,0.4,1.7c0.3,0.4,0.7,0.6,1.2,0.6
		c0.5,0,0.9-0.2,1.2-0.6C805.6,711.8,805.8,711.2,805.8,710.5z"/>
	<path class="st2" d="M816.7,708.3h-2.6v6.3h-2.3v-6.3h-2.6v-1.9h7.6V708.3z"/>
	<path class="st2" d="M816.9,712.7h1c0.3-0.4,0.5-0.8,0.7-1.3c0.2-0.5,0.3-1.1,0.3-1.7c0.1-0.6,0.1-1.2,0.1-1.8c0-0.6,0-1.1,0-1.6
		h6.4v6.3h1.4v4.2h-2v-2.3h-6v2.3h-2V712.7z M823.1,712.7v-4.4h-1.9c0,0.4,0,0.7-0.1,1.1c0,0.4-0.1,0.8-0.1,1.2
		c-0.1,0.4-0.2,0.8-0.3,1.1c-0.1,0.4-0.3,0.7-0.4,1H823.1L823.1,712.7z"/>
	<path class="st2" d="M827.8,710.6c0-0.7,0.1-1.4,0.3-1.9c0.2-0.5,0.5-1,0.9-1.4c0.4-0.4,0.8-0.6,1.2-0.8c0.5-0.2,1-0.3,1.5-0.3
		c1.2,0,2.1,0.4,2.8,1.1c0.7,0.7,1,1.8,1,3.1c0,0.1,0,0.3,0,0.4c0,0.2,0,0.3,0,0.4h-5.3c0.1,0.5,0.3,0.8,0.7,1.1
		c0.4,0.3,0.9,0.4,1.6,0.4c0.4,0,0.8,0,1.3-0.1c0.4-0.1,0.7-0.2,1-0.3l0.3,1.9c-0.1,0.1-0.3,0.1-0.5,0.2c-0.2,0.1-0.4,0.1-0.7,0.2
		c-0.2,0-0.5,0.1-0.8,0.1c-0.3,0-0.6,0-0.9,0c-0.7,0-1.4-0.1-1.9-0.3c-0.5-0.2-1-0.5-1.3-0.9s-0.6-0.8-0.8-1.3
		C827.9,711.7,827.8,711.2,827.8,710.6z M833.3,709.7c0-0.2,0-0.4-0.1-0.6c0-0.2-0.1-0.3-0.3-0.5c-0.1-0.1-0.3-0.3-0.5-0.4
		c-0.2-0.1-0.4-0.1-0.7-0.1c-0.3,0-0.5,0.1-0.7,0.1c-0.2,0.1-0.3,0.2-0.5,0.3c-0.1,0.1-0.2,0.3-0.3,0.5c-0.1,0.2-0.1,0.4-0.2,0.6
		H833.3L833.3,709.7L833.3,709.7z"/>
	<path class="st2" d="M841,708.3c0,0.3,0,0.6,0,1c0,0.3,0,0.7-0.1,1c0,0.3-0.1,0.7-0.2,1c-0.1,0.3-0.2,0.6-0.3,0.9
		c-0.1,0.3-0.3,0.6-0.5,0.9c-0.2,0.3-0.4,0.6-0.7,0.8c-0.3,0.2-0.7,0.4-1.1,0.6c-0.4,0.1-0.9,0.2-1.5,0.3l-0.3-1.9
		c0.5-0.1,0.9-0.3,1.2-0.5c0.3-0.2,0.5-0.4,0.7-0.7c0.1-0.3,0.2-0.6,0.3-0.9c0.1-0.3,0.1-0.7,0.1-1.1c0-0.4,0.1-0.8,0.1-1.2
		c0-0.4,0-0.8,0-1.1v-0.9h6.1v8.2h-2.3v-6.3H841z"/>
	<path class="st2" d="M855,710.9c-0.5,0-0.8,0.1-1,0.4c-0.2,0.3-0.3,0.6-0.3,1.1v2.4c0,0.5-0.1,0.8-0.2,1.2
		c-0.1,0.3-0.3,0.6-0.6,0.9c-0.3,0.2-0.6,0.4-1.1,0.5c-0.5,0.1-1,0.2-1.7,0.2h-0.3v-1.9h0.4c0.5,0,0.8-0.1,0.9-0.3
		c0.2-0.2,0.2-0.5,0.2-1v-2.1c0-0.5,0.1-1,0.2-1.4c0.2-0.4,0.4-0.7,0.9-1c-0.4-0.3-0.7-0.6-0.9-1c-0.1-0.4-0.2-0.8-0.2-1.4v-2.1
		c0-0.4-0.1-0.8-0.2-1s-0.5-0.3-0.9-0.3h-0.4v-1.8h0.3c0.7,0,1.2,0.1,1.7,0.2c0.4,0.1,0.8,0.3,1.1,0.6c0.3,0.2,0.5,0.5,0.6,0.9
		c0.1,0.3,0.2,0.8,0.2,1.2v2.4c0,0.4,0.1,0.8,0.3,1.1c0.2,0.3,0.5,0.4,1,0.4V710.9z"/>
</g>
<g>
	<path class="st3" d="M439.3,523L439.3,523c0,0.6-0.1,1.1-0.1,1.7l0,0l10.5,0.8c0.1-0.6,0.1-1.2,0.1-1.9L439.3,523z"/>
	<path class="st4" d="M439.1,524.7c-4.8,64.4-58.5,115.1-124.1,115.1c-10.5,0-20.8-1.3-30.5-3.8l0,0l-2.6,10.1
		c10.9,2.8,22,4.1,33.1,4.1c28,0,55.7-8.7,78.9-25.4c32.3-23.3,52.7-59.6,55.8-99.4L439.1,524.7z"/>
	<path class="st5" d="M211.4,584.3l-8.7,5.8c18.6,27.9,46.8,47.9,79.3,56.1l2.6-10.1l0,0C254.1,628.4,228.2,609.7,211.4,584.3z"/>
	<path class="st6" d="M315,380.3c-40.1,0-79.1,17.9-105.3,50.5c-36.8,45.9-39.7,110.3-7.1,159.3l8.7-5.8l0,0
		c-13.2-19.8-20.9-43.5-20.9-69c0-68.8,55.7-124.5,124.5-124.5s124.5,55.7,124.5,124.5c0,2.6-0.1,5.1-0.2,7.7l0,0l10.5,0.6
		c3.6-58.7-31.2-113-86-134.2C347.8,383.3,331.3,380.3,315,380.3z"/>
	<path class="st1" d="M274.4,679.5h-1.1v-7.6h-4.2v7.6h-1.1V671h6.5V679.5z M276,676.3c0-0.6,0.1-1.2,0.4-1.7c0.2-0.5,0.6-0.9,1-1.1
		c0.4-0.3,0.9-0.4,1.5-0.4c0.9,0,1.6,0.3,2.1,0.9c0.5,0.6,0.8,1.4,0.8,2.4v0.1c0,0.6-0.1,1.2-0.4,1.7c-0.2,0.5-0.6,0.9-1,1.2
		c-0.4,0.3-0.9,0.4-1.5,0.4c-0.9,0-1.6-0.3-2.1-0.9C276.3,678.2,276,677.4,276,676.3L276,676.3z M277.1,676.5c0,0.7,0.2,1.3,0.5,1.7
		c0.3,0.4,0.8,0.6,1.3,0.6s1-0.2,1.3-0.7c0.3-0.4,0.5-1,0.5-1.8c0-0.7-0.2-1.3-0.5-1.7c-0.3-0.4-0.8-0.7-1.3-0.7
		c-0.5,0-1,0.2-1.3,0.6C277.2,675,277.1,675.7,277.1,676.5z M286.2,679.5v-6.3h2.5c0.9,0,1.5,0.1,1.9,0.4c0.5,0.3,0.7,0.7,0.7,1.3
		c0,0.3-0.1,0.6-0.3,0.8c-0.2,0.2-0.4,0.4-0.8,0.5c0.4,0.1,0.7,0.3,0.9,0.5c0.2,0.3,0.4,0.6,0.4,0.9c0,0.6-0.2,1-0.6,1.3
		c-0.4,0.3-1,0.5-1.8,0.5H286.2z M287.3,676.8v1.9h1.8c0.5,0,0.8-0.1,1-0.3c0.2-0.2,0.3-0.4,0.3-0.7c0-0.6-0.5-0.9-1.4-0.9H287.3z
		 M287.3,675.9h1.4c1,0,1.5-0.3,1.5-0.9c0-0.6-0.5-0.9-1.4-0.9h-1.5V675.9z M295.5,678.8c0.4,0,0.7-0.1,1-0.4
		c0.3-0.2,0.5-0.5,0.5-0.9h1c0,0.4-0.1,0.7-0.4,1c-0.2,0.3-0.5,0.6-0.9,0.8c-0.4,0.2-0.8,0.3-1.2,0.3c-0.9,0-1.5-0.3-2.1-0.9
		c-0.5-0.6-0.8-1.4-0.8-2.4v-0.2c0-0.6,0.1-1.2,0.3-1.7c0.2-0.5,0.5-0.8,1-1.1c0.4-0.3,0.9-0.4,1.5-0.4c0.7,0,1.3,0.2,1.8,0.6
		c0.5,0.4,0.7,1,0.8,1.7h-1c0-0.4-0.2-0.8-0.5-1c-0.3-0.3-0.6-0.4-1-0.4c-0.5,0-1,0.2-1.3,0.6c-0.3,0.4-0.5,1-0.5,1.7v0.2
		c0,0.7,0.1,1.3,0.5,1.7C294.5,678.6,294.9,678.8,295.5,678.8z M301.9,679.7c-0.9,0-1.6-0.3-2.1-0.8c-0.5-0.6-0.8-1.3-0.8-2.3v-0.2
		c0-0.6,0.1-1.2,0.4-1.7c0.2-0.5,0.6-0.9,1-1.2c0.4-0.3,0.9-0.4,1.4-0.4c0.8,0,1.5,0.3,1.9,0.8c0.5,0.5,0.7,1.3,0.7,2.3v0.5H300
		c0,0.6,0.2,1.1,0.6,1.5c0.3,0.4,0.8,0.6,1.3,0.6c0.4,0,0.7-0.1,1-0.2c0.3-0.2,0.5-0.4,0.7-0.6l0.7,0.5
		C303.7,679.3,302.9,679.7,301.9,679.7z M301.7,674c-0.4,0-0.8,0.2-1.1,0.5c-0.3,0.3-0.5,0.8-0.5,1.3h3.2v-0.1c0-0.5-0.2-1-0.5-1.3
		C302.5,674.1,302.2,674,301.7,674z M309.2,678.1l2.2-4.9h1.4v6.3h-1.1v-4.6l-2.1,4.6h-0.8l-2.1-4.7v4.7h-1.1v-6.3h1.4L309.2,678.1z
		 M320,678.8c0.4,0,0.7-0.1,1-0.4c0.3-0.2,0.5-0.5,0.5-0.9h1c0,0.4-0.1,0.7-0.4,1c-0.2,0.3-0.5,0.6-0.9,0.8
		c-0.4,0.2-0.8,0.3-1.2,0.3c-0.9,0-1.5-0.3-2.1-0.9c-0.5-0.6-0.8-1.4-0.8-2.4v-0.2c0-0.6,0.1-1.2,0.3-1.7c0.2-0.5,0.5-0.8,1-1.1
		c0.4-0.3,0.9-0.4,1.5-0.4c0.7,0,1.3,0.2,1.8,0.6c0.5,0.4,0.7,1,0.8,1.7h-1c0-0.4-0.2-0.8-0.5-1c-0.3-0.3-0.6-0.4-1-0.4
		c-0.5,0-1,0.2-1.3,0.6c-0.3,0.4-0.5,1-0.5,1.7v0.2c0,0.7,0.1,1.3,0.5,1.7C319,678.6,319.4,678.8,320,678.8z M328.5,674.1h-2.1v5.5
		h-1.1v-5.5h-2.1v-0.9h5.3V674.1z M333.4,679.5c-0.1-0.1-0.1-0.3-0.1-0.7c-0.5,0.5-1.1,0.8-1.8,0.8c-0.6,0-1.1-0.2-1.5-0.5
		c-0.4-0.4-0.6-0.8-0.6-1.4c0-0.7,0.2-1.2,0.8-1.5c0.5-0.4,1.2-0.5,2.1-0.5h1.1v-0.5c0-0.4-0.1-0.7-0.3-0.9c-0.2-0.2-0.6-0.3-1-0.3
		c-0.4,0-0.7,0.1-1,0.3c-0.3,0.2-0.4,0.4-0.4,0.7h-1.1c0-0.3,0.1-0.6,0.3-0.9c0.2-0.3,0.5-0.5,0.9-0.7c0.4-0.2,0.8-0.3,1.3-0.3
		c0.7,0,1.3,0.2,1.7,0.6c0.4,0.4,0.6,0.9,0.6,1.5v2.9c0,0.6,0.1,1,0.2,1.4v0.1H333.4z M331.6,678.7c0.3,0,0.7-0.1,1-0.3
		c0.3-0.2,0.5-0.4,0.7-0.7v-1.3h-0.9c-1.3,0-2,0.4-2,1.2c0,0.3,0.1,0.6,0.3,0.8C331,678.6,331.3,678.7,331.6,678.7z M340.7,674.1
		h-2.1v5.5h-1.1v-5.5h-2.1v-0.9h5.3V674.1z M343,675.4h1.7c0.7,0,1.3,0.2,1.7,0.6c0.4,0.4,0.6,0.9,0.6,1.5s-0.2,1.1-0.7,1.5
		c-0.4,0.4-1,0.6-1.7,0.6h-2.7v-6.3h1.1V675.4z M343,676.3v2.4h1.6c0.4,0,0.7-0.1,0.9-0.3c0.2-0.2,0.3-0.5,0.3-0.9
		c0-0.3-0.1-0.6-0.3-0.9c-0.2-0.2-0.5-0.3-0.9-0.3H343z M353.2,673.2v6.3h-1.1v-2.5h-1.6l-1.5,2.5h-1.2l1.6-2.6
		c-0.4-0.1-0.7-0.4-0.9-0.7c-0.2-0.3-0.3-0.7-0.3-1.1c0-0.6,0.2-1,0.6-1.4c0.4-0.4,1-0.5,1.7-0.5H353.2z M349.2,675.2
		c0,0.3,0.1,0.6,0.3,0.8c0.2,0.2,0.5,0.3,0.8,0.3h1.7v-2.1h-1.6c-0.4,0-0.7,0.1-1,0.3C349.3,674.6,349.2,674.8,349.2,675.2z
		 M358.5,678.1l2.2-4.9h1.3v6.3H361v-4.6l-2.1,4.6h-0.8l-2.1-4.7v4.7H355v-6.3h1.4L358.5,678.1z"/>
	<path class="st7" d="M362.2,602.1h-5.6v-0.8l2.9-3.3c0.4-0.5,0.7-0.9,0.9-1.2c0.2-0.3,0.2-0.6,0.2-1c0-0.4-0.1-0.8-0.4-1.1
		c-0.3-0.3-0.6-0.4-1.1-0.4c-0.5,0-1,0.2-1.2,0.5c-0.3,0.3-0.5,0.7-0.5,1.3h-1.1c0-0.8,0.2-1.4,0.8-1.9c0.5-0.5,1.2-0.7,2-0.7
		c0.8,0,1.4,0.2,1.9,0.6c0.5,0.4,0.7,1,0.7,1.7c0,0.8-0.5,1.8-1.6,3l-2.3,2.5h4.3V602.1z M368.8,594.2l-3.5,7.9h-1.1l3.5-7.6h-4.6
		v-0.9h5.8V594.2z M370.1,603.8l-0.6-0.4c0.4-0.5,0.6-1,0.6-1.6v-1h1.1v0.9c0,0.4-0.1,0.8-0.3,1.2
		C370.7,603.2,370.4,603.6,370.1,603.8z M377.9,594.2l-3.5,7.9h-1.1l3.5-7.6h-4.6v-0.9h5.8V594.2z M383.7,599.2h1.2v0.9h-1.2v2h-1.1
		v-2h-3.9v-0.6l3.8-5.9h1.2V599.2z M380,599.2h2.7V595l-0.1,0.2L380,599.2z M385.8,595.2c0-0.5,0.2-0.9,0.5-1.3
		c0.3-0.3,0.8-0.5,1.3-0.5c0.5,0,0.9,0.2,1.3,0.5c0.3,0.3,0.5,0.8,0.5,1.3v0.4c0,0.5-0.2,0.9-0.5,1.3c-0.3,0.3-0.7,0.5-1.2,0.5
		c-0.5,0-0.9-0.2-1.3-0.5c-0.3-0.3-0.5-0.8-0.5-1.3V595.2z M386.6,595.7c0,0.3,0.1,0.5,0.3,0.8c0.2,0.2,0.4,0.3,0.7,0.3
		c0.3,0,0.5-0.1,0.7-0.3s0.3-0.5,0.3-0.8v-0.4c0-0.3-0.1-0.6-0.2-0.8c-0.2-0.2-0.4-0.3-0.7-0.3s-0.5,0.1-0.7,0.3
		c-0.2,0.2-0.2,0.5-0.2,0.8V595.7z M390,600c0-0.5,0.2-0.9,0.5-1.3c0.3-0.3,0.7-0.5,1.2-0.5c0.5,0,0.9,0.2,1.3,0.5
		c0.3,0.3,0.5,0.8,0.5,1.3v0.4c0,0.5-0.2,0.9-0.5,1.3c-0.3,0.3-0.8,0.5-1.2,0.5c-0.5,0-0.9-0.2-1.3-0.5c-0.3-0.3-0.5-0.8-0.5-1.3
		V600z M390.8,600.5c0,0.3,0.1,0.6,0.2,0.8c0.2,0.2,0.4,0.3,0.7,0.3c0.3,0,0.5-0.1,0.7-0.3c0.2-0.2,0.2-0.5,0.2-0.8V600
		c0-0.3-0.1-0.6-0.2-0.8c-0.2-0.2-0.4-0.3-0.7-0.3c-0.3,0-0.5,0.1-0.7,0.3c-0.2,0.2-0.3,0.5-0.3,0.8V600.5z M387.8,601.5l-0.6-0.4
		l4.2-6.7l0.6,0.4L387.8,601.5z"/>
	<path class="st8" d="M240.8,602.6h-1.1v-7.2l-2.2,0.8v-1l3.1-1.2h0.2V602.6z M247.5,602.6h-1.1v-7.2l-2.2,0.8v-1l3.1-1.2h0.2V602.6
		z M250.7,604.3l-0.6-0.4c0.4-0.5,0.6-1,0.6-1.6v-1h1.1v0.9c0,0.4-0.1,0.8-0.3,1.2C251.3,603.7,251,604,250.7,604.3z M258.5,594.7
		l-3.5,7.9h-1.1l3.5-7.6h-4.6v-0.9h5.8V594.7z M263.3,602.6h-1.1v-7.2l-2.2,0.8v-1l3.1-1.2h0.2V602.6z M266.4,595.7
		c0-0.5,0.2-0.9,0.5-1.3c0.3-0.3,0.7-0.5,1.3-0.5s0.9,0.2,1.3,0.5c0.3,0.3,0.5,0.8,0.5,1.3v0.4c0,0.5-0.2,0.9-0.5,1.3
		c-0.3,0.3-0.7,0.5-1.2,0.5c-0.5,0-0.9-0.2-1.3-0.5c-0.3-0.3-0.5-0.8-0.5-1.3V595.7z M267.2,596.2c0,0.3,0.1,0.6,0.3,0.8
		c0.2,0.2,0.4,0.3,0.7,0.3c0.3,0,0.5-0.1,0.7-0.3c0.2-0.2,0.2-0.5,0.2-0.8v-0.4c0-0.3-0.1-0.6-0.2-0.8c-0.2-0.2-0.4-0.3-0.7-0.3
		s-0.5,0.1-0.7,0.3c-0.2,0.2-0.2,0.5-0.2,0.8V596.2z M270.5,600.5c0-0.5,0.2-0.9,0.5-1.3c0.3-0.3,0.8-0.5,1.3-0.5s0.9,0.2,1.3,0.5
		c0.3,0.3,0.5,0.8,0.5,1.3v0.4c0,0.5-0.2,0.9-0.5,1.3c-0.3,0.3-0.7,0.5-1.2,0.5s-0.9-0.2-1.3-0.5c-0.3-0.3-0.5-0.8-0.5-1.3V600.5z
		 M271.4,601c0,0.3,0.1,0.6,0.3,0.8c0.2,0.2,0.4,0.3,0.7,0.3c0.3,0,0.5-0.1,0.7-0.3c0.2-0.2,0.2-0.4,0.2-0.8v-0.4
		c0-0.3-0.1-0.6-0.3-0.8c-0.2-0.2-0.4-0.3-0.7-0.3c-0.3,0-0.5,0.1-0.7,0.3c-0.2,0.2-0.3,0.5-0.3,0.8V601z M268.4,602l-0.6-0.4
		l4.2-6.7l0.6,0.4L268.4,602z"/>
	<path d="M274.1,411.2v0.9h-0.2c-0.8,0-1.5,0.3-2,0.8c-0.5,0.5-0.8,1.2-0.9,2c0.5-0.5,1.1-0.8,1.8-0.8c0.7,0,1.3,0.3,1.8,0.8
		c0.4,0.5,0.7,1.2,0.7,2c0,0.9-0.2,1.6-0.7,2.1c-0.5,0.5-1.1,0.8-1.9,0.8s-1.5-0.3-2-0.9c-0.5-0.6-0.8-1.4-0.8-2.4v-0.4
		c0-1.6,0.3-2.8,1-3.6c0.7-0.8,1.7-1.3,3-1.3H274.1z M272.7,415c-0.4,0-0.7,0.1-1,0.3c-0.3,0.2-0.5,0.5-0.6,0.8v0.4
		c0,0.7,0.2,1.3,0.5,1.7c0.3,0.4,0.7,0.6,1.2,0.6c0.5,0,0.9-0.2,1.1-0.5c0.3-0.4,0.4-0.8,0.4-1.4c0-0.6-0.1-1.1-0.4-1.4
		C273.5,415.2,273.2,415,272.7,415z M282,416.1c0,1.3-0.2,2.2-0.6,2.8c-0.4,0.6-1.1,0.9-2,0.9c-0.9,0-1.6-0.3-2-0.9
		c-0.4-0.6-0.7-1.5-0.7-2.7v-1.5c0-1.2,0.2-2.2,0.6-2.8c0.4-0.6,1.1-0.9,2-0.9c0.9,0,1.6,0.3,2,0.9c0.4,0.6,0.7,1.5,0.7,2.7V416.1z
		 M280.9,414.6c0-0.9-0.1-1.6-0.4-2c-0.3-0.4-0.7-0.6-1.2-0.6c-0.6,0-1,0.2-1.2,0.6c-0.3,0.4-0.4,1.1-0.4,1.9v1.7
		c0,0.9,0.1,1.6,0.4,2.1c0.3,0.4,0.7,0.6,1.2,0.6s0.9-0.2,1.2-0.6c0.3-0.4,0.4-1.1,0.4-2V414.6z M283.4,421.4l-0.6-0.4
		c0.4-0.5,0.6-1,0.6-1.6v-1h1.1v0.9c0,0.4-0.1,0.8-0.3,1.2C284,420.9,283.7,421.2,283.4,421.4z M287.3,415h0.8
		c0.5,0,0.9-0.1,1.2-0.4c0.3-0.3,0.4-0.6,0.4-1.1c0-1-0.5-1.5-1.5-1.5c-0.5,0-0.8,0.1-1.1,0.4c-0.3,0.3-0.4,0.6-0.4,1.1h-1.1
		c0-0.7,0.2-1.2,0.7-1.7c0.5-0.4,1.1-0.7,1.9-0.7c0.8,0,1.4,0.2,1.9,0.6c0.5,0.4,0.7,1,0.7,1.8c0,0.4-0.1,0.7-0.4,1.1
		c-0.2,0.3-0.6,0.6-1,0.8c0.5,0.1,0.8,0.4,1.1,0.7c0.2,0.4,0.4,0.8,0.4,1.3c0,0.8-0.2,1.4-0.8,1.8c-0.5,0.4-1.2,0.7-2,0.7
		s-1.5-0.2-2-0.6c-0.5-0.4-0.8-1-0.8-1.7h1.1c0,0.5,0.1,0.8,0.4,1.1c0.3,0.3,0.7,0.4,1.2,0.4c0.5,0,0.9-0.1,1.2-0.4
		c0.3-0.3,0.4-0.7,0.4-1.2c0-0.5-0.2-0.9-0.5-1.2c-0.3-0.3-0.7-0.4-1.3-0.4h-0.8V415z M294,415h0.8c0.5,0,0.9-0.1,1.2-0.4
		c0.3-0.3,0.4-0.6,0.4-1.1c0-1-0.5-1.5-1.5-1.5c-0.5,0-0.8,0.1-1.1,0.4c-0.3,0.3-0.4,0.6-0.4,1.1h-1.1c0-0.7,0.2-1.2,0.7-1.7
		c0.5-0.4,1.1-0.7,1.9-0.7c0.8,0,1.4,0.2,1.9,0.6c0.5,0.4,0.7,1,0.7,1.8c0,0.4-0.1,0.7-0.4,1.1c-0.2,0.3-0.6,0.6-1,0.8
		c0.5,0.1,0.8,0.4,1.1,0.7c0.2,0.4,0.4,0.8,0.4,1.3c0,0.8-0.2,1.4-0.8,1.8c-0.5,0.4-1.2,0.7-2,0.7s-1.5-0.2-2-0.6
		c-0.5-0.4-0.8-1-0.8-1.7h1.1c0,0.5,0.1,0.8,0.4,1.1c0.3,0.3,0.7,0.4,1.2,0.4c0.5,0,0.9-0.1,1.2-0.4c0.3-0.3,0.4-0.7,0.4-1.2
		c0-0.5-0.2-0.9-0.5-1.2c-0.3-0.3-0.8-0.4-1.3-0.4H294V415z M299.1,412.9c0-0.5,0.2-0.9,0.5-1.3c0.3-0.3,0.8-0.5,1.3-0.5
		c0.5,0,0.9,0.2,1.3,0.5c0.3,0.3,0.5,0.8,0.5,1.3v0.4c0,0.5-0.2,0.9-0.5,1.3c-0.3,0.3-0.7,0.5-1.2,0.5c-0.5,0-0.9-0.2-1.3-0.5
		c-0.3-0.3-0.5-0.8-0.5-1.3V412.9z M299.9,413.3c0,0.3,0.1,0.6,0.3,0.8c0.2,0.2,0.4,0.3,0.7,0.3c0.3,0,0.5-0.1,0.7-0.3
		c0.2-0.2,0.3-0.5,0.3-0.8v-0.4c0-0.3-0.1-0.6-0.2-0.8c-0.2-0.2-0.4-0.3-0.7-0.3s-0.5,0.1-0.7,0.3c-0.2,0.2-0.2,0.4-0.2,0.8V413.3z
		 M303.2,417.6c0-0.5,0.2-0.9,0.5-1.3c0.3-0.3,0.7-0.5,1.2-0.5c0.5,0,0.9,0.2,1.3,0.5c0.3,0.3,0.5,0.8,0.5,1.3v0.4
		c0,0.5-0.2,0.9-0.5,1.3c-0.3,0.3-0.8,0.5-1.2,0.5c-0.5,0-0.9-0.2-1.3-0.5c-0.3-0.3-0.5-0.8-0.5-1.3V417.6z M304.1,418.1
		c0,0.3,0.1,0.6,0.2,0.8c0.2,0.2,0.4,0.3,0.7,0.3c0.3,0,0.5-0.1,0.7-0.3c0.2-0.2,0.2-0.5,0.2-0.8v-0.4c0-0.3-0.1-0.6-0.2-0.8
		c-0.2-0.2-0.4-0.3-0.7-0.3c-0.3,0-0.5,0.1-0.7,0.3c-0.2,0.2-0.3,0.5-0.3,0.8V418.1z M301.1,419.1l-0.6-0.4l4.2-6.7l0.6,0.4
		L301.1,419.1z"/>
</g>
<g>
	<path class="st9" d="M809.5,515.3c0,5.8-0.4,11.5-1.2,17.1l0,0l10.4,1.4c0.8-6.1,1.3-12.3,1.3-18.5H809.5z"/>
	<path class="st7" d="M808.3,532.4C800,593.1,748,639.8,685,639.8c-54,0-100-34.4-117.3-82.6l0,0l-9.8,3.5
		c19.3,54.1,70.6,89.5,127,89.5c4.6,0,9.3-0.2,14-0.7c61.8-6.4,111.3-54.2,119.8-115.8L808.3,532.4z"/>
	<path class="st8" d="M685,380.3c-35.1,0-69.6,13.7-95.3,39.4c-37,36.9-49.4,91.9-31.8,141.1l9.8-3.5l0,0
		c-4.7-13.1-7.2-27.2-7.2-41.9c0-68.8,55.7-124.5,124.5-124.5c14.9,0,29.1,2.6,42.3,7.4l0,0l3.6-9.8
		C715.9,382.9,700.4,380.3,685,380.3z"/>
	<path d="M730.9,388.3l-3.6,9.8l0,0c47.9,17.3,82.2,63.2,82.2,117.1H820C820,458.4,784.4,407.7,730.9,388.3z"/>
	<path class="st1" d="M658.1,678.8c0.4,0,0.7-0.1,1-0.3c0.3-0.2,0.5-0.5,0.5-0.9h1c0,0.4-0.1,0.7-0.4,1c-0.2,0.3-0.5,0.6-0.9,0.8
		c-0.4,0.2-0.8,0.3-1.2,0.3c-0.9,0-1.5-0.3-2.1-0.9s-0.8-1.4-0.8-2.4v-0.2c0-0.6,0.1-1.2,0.3-1.6c0.2-0.5,0.5-0.9,1-1.1
		c0.4-0.3,0.9-0.4,1.5-0.4c0.7,0,1.3,0.2,1.8,0.6c0.5,0.4,0.7,1,0.8,1.7h-1c0-0.4-0.2-0.8-0.5-1c-0.3-0.3-0.6-0.4-1-0.4
		c-0.5,0-1,0.2-1.3,0.6c-0.3,0.4-0.5,1-0.5,1.7v0.2c0,0.7,0.2,1.3,0.5,1.7C657.1,678.6,657.5,678.8,658.1,678.8z M666.6,674.1h-2.1
		v5.5h-1.1v-5.5h-2.1v-0.9h5.3V674.1z M667.6,679c0-0.2,0-0.3,0.2-0.5c0.1-0.1,0.3-0.2,0.5-0.2c0.2,0,0.4,0.1,0.5,0.2
		c0.1,0.1,0.2,0.3,0.2,0.5c0,0.2-0.1,0.3-0.2,0.5c-0.1,0.1-0.3,0.2-0.5,0.2c-0.2,0-0.4-0.1-0.5-0.2
		C667.7,679.3,667.6,679.2,667.6,679z M679.2,679.6h-5.6v-0.8l3-3.3c0.4-0.5,0.7-0.9,0.9-1.2c0.2-0.3,0.2-0.6,0.2-1
		c0-0.4-0.1-0.8-0.4-1.1c-0.3-0.3-0.6-0.4-1.1-0.4c-0.5,0-1,0.1-1.3,0.5c-0.3,0.3-0.5,0.7-0.5,1.3h-1.1c0-0.8,0.2-1.4,0.8-1.9
		c0.5-0.5,1.2-0.7,2-0.7c0.8,0,1.4,0.2,1.9,0.6c0.5,0.4,0.7,1,0.7,1.7c0,0.8-0.5,1.8-1.6,3l-2.3,2.5h4.3V679.6z M685.5,673.3
		c0,0.4-0.1,0.8-0.3,1.1c-0.2,0.3-0.5,0.6-0.9,0.8c0.4,0.2,0.8,0.5,1,0.8c0.3,0.4,0.4,0.8,0.4,1.2c0,0.7-0.2,1.3-0.7,1.8
		c-0.5,0.4-1.2,0.7-2,0.7c-0.8,0-1.5-0.2-2-0.7c-0.5-0.4-0.7-1-0.7-1.8c0-0.5,0.1-0.9,0.4-1.2c0.2-0.4,0.6-0.7,1-0.9
		c-0.4-0.2-0.7-0.5-0.9-0.8c-0.2-0.3-0.3-0.7-0.3-1.1c0-0.7,0.2-1.3,0.7-1.7c0.5-0.4,1.1-0.6,1.8-0.6s1.4,0.2,1.8,0.6
		C685.3,672,685.5,672.5,685.5,673.3z M684.7,677.2c0-0.5-0.2-0.9-0.5-1.2c-0.3-0.3-0.7-0.5-1.2-0.5s-0.9,0.2-1.2,0.5
		c-0.3,0.3-0.4,0.7-0.4,1.2s0.1,0.9,0.4,1.1c0.3,0.3,0.7,0.4,1.2,0.4c0.5,0,0.9-0.1,1.2-0.4C684.5,678.1,684.7,677.7,684.7,677.2z
		 M683,671.8c-0.4,0-0.8,0.1-1,0.4c-0.3,0.3-0.4,0.6-0.4,1.1c0,0.4,0.1,0.8,0.4,1c0.3,0.3,0.6,0.4,1,0.4c0.4,0,0.8-0.1,1-0.4
		c0.3-0.3,0.4-0.6,0.4-1s-0.1-0.8-0.4-1.1C683.8,672,683.4,671.8,683,671.8z M691.4,671v0.9h-0.2c-0.8,0-1.5,0.3-2,0.8
		c-0.5,0.5-0.8,1.2-0.9,2c0.4-0.5,1.1-0.8,1.8-0.8c0.7,0,1.3,0.3,1.8,0.8c0.4,0.5,0.7,1.2,0.7,2c0,0.9-0.2,1.6-0.7,2.1
		c-0.5,0.5-1.1,0.8-1.9,0.8c-0.8,0-1.5-0.3-2-0.9c-0.5-0.6-0.8-1.4-0.8-2.4v-0.4c0-1.6,0.3-2.8,1-3.6s1.7-1.2,3-1.3H691.4z
		 M689.9,674.9c-0.4,0-0.7,0.1-1,0.3c-0.3,0.2-0.5,0.5-0.7,0.8v0.4c0,0.7,0.2,1.3,0.5,1.7c0.3,0.4,0.7,0.6,1.2,0.6
		c0.5,0,0.9-0.2,1.2-0.5c0.3-0.4,0.4-0.8,0.4-1.4c0-0.6-0.1-1.1-0.4-1.4C690.8,675.1,690.4,674.9,689.9,674.9z M701.7,679.6h-1.1
		v-2.3c-0.5,0.1-1,0.2-1.5,0.2c-0.8,0-1.4-0.2-1.8-0.6c-0.4-0.4-0.6-1-0.6-1.7v-1.9h1.1v1.9c0,0.9,0.5,1.4,1.4,1.4
		c0.5,0,1-0.1,1.5-0.2v-3.2h1.1V679.6z M703.5,679c0-0.2,0.1-0.3,0.2-0.5c0.1-0.1,0.3-0.2,0.5-0.2c0.2,0,0.4,0.1,0.5,0.2
		c0.1,0.1,0.2,0.3,0.2,0.5c0,0.2-0.1,0.3-0.2,0.5c-0.1,0.1-0.3,0.2-0.5,0.2c-0.2,0-0.4-0.1-0.5-0.2
		C703.5,679.3,703.5,679.2,703.5,679z M711,674.8h0.8c0.5,0,0.9-0.1,1.2-0.4c0.3-0.3,0.4-0.6,0.4-1.1c0-1-0.5-1.5-1.5-1.5
		c-0.5,0-0.8,0.1-1.1,0.4c-0.3,0.3-0.4,0.6-0.4,1.1h-1.1c0-0.7,0.2-1.2,0.7-1.7c0.5-0.4,1.1-0.7,1.9-0.7c0.8,0,1.4,0.2,1.9,0.6
		c0.5,0.4,0.7,1,0.7,1.8c0,0.4-0.1,0.7-0.4,1.1c-0.2,0.4-0.6,0.6-1,0.8c0.5,0.1,0.8,0.4,1.1,0.7c0.3,0.3,0.4,0.8,0.4,1.3
		c0,0.8-0.2,1.4-0.8,1.8c-0.5,0.4-1.1,0.7-1.9,0.7c-0.8,0-1.5-0.2-2-0.7c-0.5-0.4-0.8-1-0.8-1.7h1.1c0,0.5,0.1,0.8,0.4,1.1
		c0.3,0.3,0.7,0.4,1.2,0.4c0.5,0,0.9-0.1,1.2-0.4c0.3-0.3,0.4-0.7,0.4-1.2c0-0.5-0.2-0.9-0.5-1.1c-0.3-0.3-0.8-0.4-1.3-0.4H711
		V674.8z"/>
	<path class="st7" d="M681.9,618h1.2v0.9h-1.2v2h-1.1v-2h-3.9v-0.6l3.8-5.9h1.2V618z M678.2,618h2.7v-4.2l-0.1,0.2L678.2,618z
		 M689.7,620.8h-5.6v-0.8l3-3.3c0.4-0.5,0.7-0.9,0.9-1.2c0.2-0.3,0.2-0.6,0.2-1c0-0.4-0.1-0.8-0.4-1.1c-0.3-0.3-0.6-0.4-1.1-0.4
		c-0.5,0-1,0.2-1.3,0.5c-0.3,0.3-0.5,0.7-0.5,1.3h-1.1c0-0.8,0.2-1.4,0.8-1.9c0.5-0.5,1.2-0.7,2-0.7c0.8,0,1.4,0.2,1.9,0.6
		s0.7,1,0.7,1.7c0,0.8-0.5,1.8-1.6,3l-2.3,2.5h4.3V620.8z M690.9,622.5l-0.6-0.4c0.4-0.5,0.6-1,0.6-1.6v-1h1.1v0.9
		c0,0.4-0.1,0.8-0.3,1.2C691.4,622,691.2,622.3,690.9,622.5z M694.7,616h0.8c0.5,0,0.9-0.1,1.2-0.4c0.3-0.3,0.4-0.6,0.4-1.1
		c0-1-0.5-1.5-1.5-1.5c-0.5,0-0.9,0.1-1.1,0.4c-0.3,0.3-0.4,0.6-0.4,1.1h-1.1c0-0.7,0.2-1.2,0.7-1.7c0.5-0.5,1.1-0.7,1.9-0.7
		c0.8,0,1.4,0.2,1.9,0.6c0.5,0.4,0.7,1,0.7,1.8c0,0.4-0.1,0.7-0.4,1.1c-0.2,0.3-0.6,0.6-1,0.8c0.5,0.2,0.8,0.4,1.1,0.7
		c0.3,0.3,0.4,0.8,0.4,1.2c0,0.8-0.2,1.4-0.8,1.8s-1.2,0.7-2,0.7s-1.5-0.2-2-0.7s-0.8-1-0.8-1.7h1.1c0,0.5,0.1,0.8,0.4,1.1
		c0.3,0.3,0.7,0.4,1.2,0.4c0.5,0,0.9-0.1,1.2-0.4c0.3-0.3,0.4-0.7,0.4-1.2c0-0.5-0.2-0.9-0.5-1.1c-0.3-0.3-0.7-0.4-1.3-0.4h-0.8V616
		z M700.4,616.6l0.4-4.3h4.4v1h-3.5l-0.2,2.3c0.4-0.2,0.9-0.4,1.4-0.4c0.8,0,1.4,0.3,1.8,0.8c0.5,0.5,0.7,1.2,0.7,2.1
		c0,0.9-0.2,1.6-0.7,2.1c-0.5,0.5-1.1,0.8-2,0.8c-0.8,0-1.4-0.2-1.8-0.6c-0.5-0.4-0.8-1-0.8-1.7h1c0.1,0.5,0.2,0.9,0.5,1.1
		c0.3,0.2,0.7,0.4,1.1,0.4c0.5,0,0.9-0.2,1.2-0.5c0.3-0.3,0.4-0.8,0.4-1.4c0-0.6-0.1-1-0.5-1.4c-0.3-0.3-0.7-0.5-1.2-0.5
		c-0.5,0-0.9,0.1-1.1,0.3l-0.3,0.2L700.4,616.6z M706.5,614c0-0.5,0.2-0.9,0.5-1.3c0.3-0.3,0.7-0.5,1.2-0.5c0.5,0,0.9,0.2,1.3,0.5
		c0.3,0.3,0.5,0.8,0.5,1.3v0.4c0,0.5-0.2,0.9-0.5,1.3c-0.3,0.3-0.7,0.5-1.2,0.5c-0.5,0-0.9-0.2-1.2-0.5c-0.3-0.3-0.5-0.8-0.5-1.3
		V614z M707.3,614.4c0,0.3,0.1,0.6,0.2,0.8c0.2,0.2,0.4,0.3,0.7,0.3c0.3,0,0.5-0.1,0.7-0.3c0.2-0.2,0.2-0.5,0.2-0.8V614
		c0-0.3-0.1-0.5-0.2-0.8c-0.2-0.2-0.4-0.3-0.7-0.3c-0.3,0-0.5,0.1-0.7,0.3c-0.2,0.2-0.2,0.5-0.2,0.8V614.4z M710.7,618.8
		c0-0.5,0.2-0.9,0.5-1.3c0.3-0.3,0.8-0.5,1.3-0.5s0.9,0.2,1.3,0.5c0.3,0.3,0.5,0.8,0.5,1.3v0.4c0,0.5-0.2,0.9-0.5,1.3
		c-0.3,0.3-0.7,0.5-1.2,0.5s-0.9-0.2-1.3-0.5c-0.3-0.3-0.5-0.8-0.5-1.3V618.8z M711.5,619.2c0,0.3,0.1,0.6,0.3,0.8
		c0.2,0.2,0.4,0.3,0.7,0.3c0.3,0,0.5-0.1,0.7-0.3c0.2-0.2,0.2-0.4,0.2-0.8v-0.4c0-0.3-0.1-0.6-0.2-0.8c-0.2-0.2-0.4-0.3-0.7-0.3
		s-0.5,0.1-0.7,0.3c-0.2,0.2-0.3,0.5-0.3,0.8V619.2z M708.5,620.2l-0.6-0.4l4.2-6.7l0.6,0.4L708.5,620.2z"/>
	<path class="st8" d="M595.8,441.3h0.8c0.5,0,0.9-0.1,1.2-0.4s0.4-0.6,0.4-1.1c0-1-0.5-1.5-1.5-1.5c-0.5,0-0.8,0.1-1.1,0.4
		c-0.3,0.3-0.4,0.6-0.4,1.1h-1.1c0-0.7,0.2-1.2,0.7-1.7c0.5-0.4,1.1-0.7,1.9-0.7c0.8,0,1.4,0.2,1.9,0.6c0.4,0.4,0.7,1,0.7,1.8
		c0,0.4-0.1,0.7-0.4,1.1c-0.2,0.4-0.6,0.6-1,0.8c0.5,0.1,0.8,0.4,1.1,0.7c0.2,0.3,0.4,0.8,0.4,1.3c0,0.8-0.2,1.4-0.8,1.8
		c-0.5,0.4-1.2,0.7-2,0.7s-1.5-0.2-2-0.6c-0.5-0.4-0.8-1-0.8-1.7h1.1c0,0.4,0.1,0.8,0.4,1.1c0.3,0.3,0.7,0.4,1.2,0.4
		c0.5,0,0.9-0.1,1.2-0.4c0.3-0.3,0.4-0.7,0.4-1.2c0-0.5-0.2-0.9-0.5-1.1c-0.3-0.3-0.7-0.4-1.3-0.4h-0.8V441.3z M601.5,441.9l0.4-4.3
		h4.4v1h-3.5l-0.3,2.3c0.4-0.2,0.9-0.4,1.4-0.4c0.8,0,1.4,0.3,1.9,0.8c0.5,0.5,0.7,1.2,0.7,2.1s-0.2,1.6-0.7,2.1
		c-0.5,0.5-1.1,0.8-2,0.8c-0.8,0-1.4-0.2-1.8-0.6c-0.5-0.4-0.8-1-0.8-1.7h1c0.1,0.5,0.2,0.9,0.5,1.1c0.3,0.2,0.6,0.4,1.1,0.4
		c0.5,0,0.9-0.2,1.2-0.5c0.3-0.3,0.4-0.8,0.4-1.4c0-0.6-0.1-1-0.5-1.4c-0.3-0.3-0.7-0.5-1.2-0.5c-0.5,0-0.8,0.1-1.1,0.3l-0.3,0.2
		L601.5,441.9z M607.8,447.8l-0.6-0.4c0.4-0.5,0.6-1,0.6-1.6v-1h1.1v0.9c0,0.4-0.1,0.8-0.3,1.2C608.3,447.3,608.1,447.6,607.8,447.8
		z M614.2,442.4c-0.2,0.3-0.5,0.5-0.8,0.6c-0.3,0.2-0.7,0.2-1,0.2c-0.5,0-0.9-0.1-1.3-0.4c-0.4-0.2-0.7-0.6-0.9-1
		c-0.2-0.4-0.3-0.9-0.3-1.5c0-0.6,0.1-1.1,0.3-1.5c0.2-0.5,0.5-0.8,0.9-1.1c0.4-0.2,0.9-0.4,1.4-0.4c0.9,0,1.5,0.3,2,0.9
		c0.5,0.6,0.7,1.5,0.7,2.6v0.3c0,1.7-0.3,2.9-1,3.6c-0.6,0.8-1.6,1.1-3,1.2h-0.2v-0.9h0.2c0.9,0,1.6-0.2,2.1-0.7
		C613.9,444.1,614.2,443.4,614.2,442.4z M612.5,442.4c0.4,0,0.7-0.1,1-0.3c0.3-0.2,0.5-0.5,0.7-0.8v-0.4c0-0.7-0.2-1.3-0.5-1.7
		c-0.3-0.4-0.7-0.7-1.2-0.7c-0.5,0-0.9,0.2-1.2,0.5c-0.3,0.4-0.4,0.8-0.4,1.4c0,0.6,0.1,1.1,0.4,1.4
		C611.7,442.2,612.1,442.4,612.5,442.4z M622,439.8c0,0.4-0.1,0.8-0.3,1.1c-0.2,0.3-0.5,0.6-0.9,0.8c0.4,0.2,0.8,0.5,1.1,0.8
		c0.3,0.4,0.4,0.8,0.4,1.2c0,0.7-0.2,1.3-0.8,1.8c-0.5,0.4-1.2,0.6-2,0.6c-0.8,0-1.5-0.2-2-0.7c-0.5-0.4-0.7-1-0.7-1.8
		c0-0.5,0.1-0.9,0.4-1.2c0.2-0.4,0.6-0.7,1-0.8c-0.4-0.2-0.7-0.5-0.9-0.8c-0.2-0.3-0.3-0.7-0.3-1.1c0-0.7,0.2-1.3,0.7-1.7
		c0.5-0.4,1.1-0.6,1.8-0.6s1.4,0.2,1.8,0.6C621.7,438.5,622,439.1,622,439.8z M621.1,443.8c0-0.5-0.2-0.9-0.5-1.2
		c-0.3-0.3-0.7-0.5-1.2-0.5s-0.9,0.2-1.2,0.5c-0.3,0.3-0.5,0.7-0.5,1.2c0,0.5,0.2,0.9,0.4,1.1c0.3,0.3,0.7,0.4,1.2,0.4
		s0.9-0.1,1.2-0.4C620.9,444.7,621.1,444.3,621.1,443.8z M619.4,438.4c-0.4,0-0.8,0.1-1,0.4c-0.3,0.3-0.4,0.6-0.4,1.1
		c0,0.4,0.1,0.8,0.4,1.1c0.3,0.3,0.6,0.4,1,0.4c0.4,0,0.8-0.1,1-0.4c0.3-0.3,0.4-0.6,0.4-1.1c0-0.4-0.1-0.8-0.4-1.1
		C620.2,438.5,619.9,438.4,619.4,438.4z M623.4,439.2c0-0.5,0.2-0.9,0.5-1.3c0.3-0.3,0.7-0.5,1.2-0.5c0.5,0,0.9,0.2,1.3,0.5
		c0.3,0.3,0.5,0.8,0.5,1.3v0.4c0,0.5-0.2,0.9-0.5,1.3c-0.3,0.3-0.7,0.5-1.2,0.5c-0.5,0-0.9-0.2-1.3-0.5c-0.3-0.3-0.5-0.8-0.5-1.3
		V439.2z M624.2,439.7c0,0.3,0.1,0.5,0.2,0.8c0.2,0.2,0.4,0.3,0.7,0.3c0.3,0,0.5-0.1,0.7-0.3c0.2-0.2,0.2-0.5,0.2-0.8v-0.4
		c0-0.3-0.1-0.6-0.2-0.8c-0.2-0.2-0.4-0.3-0.7-0.3c-0.3,0-0.5,0.1-0.7,0.3c-0.2,0.2-0.2,0.5-0.2,0.8V439.7z M627.6,444
		c0-0.5,0.2-0.9,0.5-1.3c0.3-0.3,0.8-0.5,1.3-0.5c0.5,0,0.9,0.2,1.3,0.5c0.3,0.3,0.5,0.8,0.5,1.3v0.4c0,0.5-0.2,0.9-0.5,1.3
		c-0.3,0.3-0.7,0.5-1.2,0.5c-0.5,0-0.9-0.2-1.3-0.5c-0.3-0.3-0.5-0.8-0.5-1.3V444z M628.4,444.5c0,0.3,0.1,0.6,0.3,0.8
		c0.2,0.2,0.4,0.3,0.7,0.3c0.3,0,0.5-0.1,0.7-0.3c0.2-0.2,0.2-0.5,0.2-0.8V444c0-0.3-0.1-0.6-0.2-0.8c-0.2-0.2-0.4-0.3-0.7-0.3
		c-0.3,0-0.5,0.1-0.7,0.3c-0.2,0.2-0.3,0.5-0.3,0.8V444.5z M625.4,445.5l-0.6-0.4l4.2-6.7l0.6,0.4L625.4,445.5z"/>
	<path d="M754,459.8h-1.1v-7.2l-2.2,0.8v-1l3.1-1.2h0.2V459.8z M761.3,456.1c-0.2,0.3-0.5,0.5-0.8,0.6c-0.3,0.2-0.7,0.2-1,0.2
		c-0.5,0-0.9-0.1-1.3-0.4c-0.4-0.2-0.7-0.6-0.9-1s-0.3-0.9-0.3-1.5c0-0.6,0.1-1.1,0.3-1.5c0.2-0.5,0.5-0.8,0.9-1.1
		c0.4-0.2,0.9-0.4,1.4-0.4c0.8,0,1.5,0.3,2,0.9c0.5,0.6,0.7,1.5,0.7,2.6v0.3c0,1.7-0.3,2.9-1,3.6c-0.7,0.8-1.7,1.2-3,1.2h-0.2v-0.9
		h0.2c0.9,0,1.6-0.2,2.1-0.7C761,457.8,761.2,457.1,761.3,456.1z M759.6,456.1c0.4,0,0.7-0.1,1-0.3c0.3-0.2,0.5-0.5,0.7-0.8v-0.4
		c0-0.7-0.2-1.3-0.5-1.7c-0.3-0.5-0.7-0.7-1.2-0.7c-0.5,0-0.9,0.2-1.2,0.6c-0.3,0.4-0.4,0.8-0.4,1.4c0,0.6,0.1,1.1,0.4,1.4
		C758.8,455.9,759.2,456.1,759.6,456.1z M764,461.5l-0.6-0.4c0.4-0.5,0.6-1,0.6-1.6v-1h1.1v0.9c0,0.4-0.1,0.8-0.3,1.2
		C764.5,461,764.2,461.3,764,461.5z M770.8,457h1.2v0.9h-1.2v2h-1.1v-2h-3.9v-0.6l3.8-5.9h1.2V457z M767.1,457h2.7v-4.2l-0.1,0.2
		L767.1,457z M778.1,453.5c0,0.4-0.1,0.8-0.3,1.1c-0.2,0.3-0.5,0.6-0.9,0.8c0.4,0.2,0.8,0.5,1.1,0.8c0.3,0.4,0.4,0.8,0.4,1.2
		c0,0.7-0.2,1.3-0.8,1.8c-0.5,0.4-1.1,0.7-2,0.7c-0.8,0-1.5-0.2-2-0.7c-0.5-0.4-0.7-1-0.7-1.8c0-0.5,0.1-0.9,0.4-1.2
		c0.3-0.4,0.6-0.7,1-0.9c-0.4-0.2-0.7-0.4-0.9-0.8c-0.2-0.3-0.3-0.7-0.3-1.1c0-0.7,0.2-1.3,0.7-1.7c0.5-0.4,1.1-0.6,1.8-0.6
		c0.8,0,1.4,0.2,1.8,0.6C777.9,452.2,778.1,452.8,778.1,453.5z M777.3,457.5c0-0.5-0.2-0.9-0.5-1.2c-0.3-0.3-0.7-0.4-1.2-0.4
		s-0.9,0.1-1.2,0.4c-0.3,0.3-0.4,0.7-0.4,1.2c0,0.5,0.1,0.9,0.4,1.1c0.3,0.3,0.7,0.4,1.2,0.4s0.9-0.1,1.2-0.4S777.3,458,777.3,457.5
		z M775.6,452.1c-0.4,0-0.8,0.1-1,0.4c-0.3,0.3-0.4,0.6-0.4,1.1c0,0.4,0.1,0.8,0.4,1.1s0.6,0.4,1,0.4s0.8-0.1,1-0.4
		c0.3-0.3,0.4-0.6,0.4-1.1c0-0.4-0.1-0.8-0.4-1.1C776.4,452.2,776,452.1,775.6,452.1z M779.6,453c0-0.5,0.2-0.9,0.5-1.3
		c0.3-0.3,0.8-0.5,1.3-0.5c0.5,0,0.9,0.2,1.3,0.5c0.3,0.3,0.5,0.8,0.5,1.3v0.4c0,0.5-0.2,0.9-0.5,1.3c-0.3,0.3-0.8,0.5-1.2,0.5
		c-0.5,0-0.9-0.2-1.3-0.5c-0.3-0.3-0.5-0.8-0.5-1.3V453z M780.4,453.4c0,0.3,0.1,0.6,0.3,0.8c0.2,0.2,0.4,0.3,0.7,0.3
		c0.3,0,0.5-0.1,0.7-0.3c0.2-0.2,0.3-0.5,0.3-0.8V453c0-0.3-0.1-0.6-0.3-0.8c-0.2-0.2-0.4-0.3-0.7-0.3c-0.3,0-0.5,0.1-0.7,0.3
		c-0.2,0.2-0.2,0.5-0.2,0.8V453.4z M783.8,457.8c0-0.5,0.2-0.9,0.5-1.3c0.3-0.3,0.7-0.5,1.2-0.5c0.5,0,0.9,0.2,1.3,0.5
		c0.3,0.3,0.5,0.8,0.5,1.3v0.4c0,0.5-0.2,0.9-0.5,1.3c-0.3,0.3-0.8,0.5-1.2,0.5c-0.5,0-0.9-0.2-1.3-0.5c-0.3-0.3-0.5-0.8-0.5-1.3
		V457.8z M784.6,458.2c0,0.3,0.1,0.6,0.2,0.8c0.2,0.2,0.4,0.3,0.7,0.3c0.3,0,0.5-0.1,0.7-0.3c0.2-0.2,0.2-0.5,0.2-0.8v-0.4
		c0-0.3-0.1-0.6-0.2-0.8c-0.2-0.2-0.4-0.3-0.7-0.3c-0.3,0-0.5,0.1-0.7,0.3c-0.2,0.2-0.3,0.5-0.3,0.8V458.2z M781.6,459.2l-0.6-0.4
		l4.2-6.7l0.6,0.4L781.6,459.2z"/>
</g>
<path class="st9" d="M440,358.5c0-0.8,0.1-1.5,0.5-2.1c0.3-0.6,0.7-1.1,1.3-1.4c0.5-0.3,1.2-0.5,1.9-0.5c1.1,0,1.9,0.4,2.6,1.1
	c0.7,0.8,1,1.7,1,3v0.1c0,0.8-0.1,1.5-0.4,2.1c-0.3,0.6-0.7,1.1-1.3,1.4c-0.5,0.3-1.2,0.5-1.9,0.5c-1.1,0-1.9-0.4-2.6-1.1
	S440,359.8,440,358.5L440,358.5z M441.4,358.6c0,0.9,0.2,1.6,0.6,2.1c0.4,0.5,1,0.8,1.6,0.8c0.7,0,1.2-0.3,1.6-0.8
	c0.4-0.5,0.6-1.3,0.6-2.3c0-0.9-0.2-1.6-0.6-2.1c-0.4-0.5-1-0.8-1.6-0.8c-0.7,0-1.2,0.3-1.6,0.8S441.4,357.6,441.4,358.6z
	 M455.4,362.5H454v-6.8h-3.6v6.8H449v-7.9h6.4V362.5z M464.3,358.6c0,1.2-0.3,2.2-0.8,2.9c-0.5,0.7-1.3,1.1-2.2,1.1
	c-1,0-1.7-0.3-2.3-0.9v3.8h-1.4v-11h1.2l0.1,0.9c0.6-0.7,1.3-1,2.3-1c1,0,1.7,0.4,2.3,1.1c0.6,0.7,0.8,1.7,0.8,3V358.6z
	 M462.9,358.5c0-0.9-0.2-1.6-0.6-2.1c-0.4-0.5-0.9-0.8-1.6-0.8c-0.8,0-1.4,0.4-1.8,1.1v3.8c0.4,0.7,1,1.1,1.9,1.1
	c0.6,0,1.2-0.2,1.5-0.8C462.7,360.3,462.9,359.5,462.9,358.5z M470.9,362.5c-0.1-0.2-0.1-0.4-0.2-0.8c-0.6,0.7-1.4,1-2.3,1
	c-0.8,0-1.4-0.2-1.9-0.7c-0.5-0.5-0.8-1-0.8-1.7c0-0.8,0.3-1.5,0.9-1.9c0.6-0.5,1.5-0.7,2.6-0.7h1.3v-0.6c0-0.5-0.2-0.9-0.4-1.1
	c-0.3-0.3-0.7-0.4-1.2-0.4c-0.5,0-0.9,0.1-1.2,0.4c-0.3,0.2-0.5,0.5-0.5,0.9h-1.4c0-0.4,0.1-0.8,0.4-1.1s0.7-0.7,1.1-0.9
	c0.5-0.2,1-0.3,1.6-0.3c0.9,0,1.6,0.2,2.1,0.7c0.5,0.5,0.8,1.1,0.8,1.9v3.6c0,0.7,0.1,1.3,0.3,1.7v0.1H470.9z M468.6,361.5
	c0.4,0,0.8-0.1,1.2-0.3s0.7-0.5,0.8-0.9v-1.6h-1.1c-1.7,0-2.5,0.5-2.5,1.5c0,0.4,0.2,0.8,0.4,1S468.2,361.5,468.6,361.5z
	 M474.3,362.5v-7.9h3.1c1.1,0,1.9,0.2,2.4,0.6c0.6,0.4,0.8,0.9,0.8,1.6c0,0.4-0.1,0.7-0.3,1c-0.2,0.3-0.5,0.5-1,0.7
	c0.5,0.1,0.9,0.3,1.2,0.7c0.3,0.3,0.4,0.7,0.4,1.2c0,0.7-0.3,1.3-0.8,1.7c-0.5,0.4-1.3,0.6-2.3,0.6H474.3z M475.6,359v2.4h2.2
	c0.6,0,1-0.1,1.3-0.3c0.3-0.2,0.4-0.5,0.4-0.9c0-0.8-0.6-1.2-1.8-1.2H475.6z M475.6,358h1.8c1.3,0,1.9-0.4,1.9-1.1
	c0-0.8-0.6-1.1-1.8-1.1h-1.9V358z M482.6,361.4l0.5-0.6c0.5-0.7,0.8-1.7,0.9-3.1l0.1-3.2h5.1v6.8h1v3.4h-1.4v-2.3h-5.5v2.3H482v-3.4
	H482.6z M484.2,361.4h3.6v-5.6h-2.4l-0.1,1.9C485.3,359.3,484.9,360.5,484.2,361.4z M496.7,362.5c-0.1-0.2-0.1-0.4-0.2-0.8
	c-0.6,0.7-1.4,1-2.3,1c-0.8,0-1.4-0.2-1.9-0.7c-0.5-0.5-0.8-1-0.8-1.7c0-0.8,0.3-1.5,0.9-1.9c0.6-0.5,1.5-0.7,2.6-0.7h1.3v-0.6
	c0-0.5-0.1-0.9-0.4-1.1c-0.3-0.3-0.7-0.4-1.2-0.4c-0.5,0-0.9,0.1-1.2,0.4c-0.3,0.2-0.5,0.5-0.5,0.9h-1.4c0-0.4,0.1-0.8,0.4-1.1
	s0.7-0.7,1.1-0.9c0.5-0.2,1-0.3,1.6-0.3c0.9,0,1.6,0.2,2.1,0.7c0.5,0.5,0.8,1.1,0.8,1.9v3.6c0,0.7,0.1,1.3,0.3,1.7v0.1H496.7z
	 M494.4,361.5c0.4,0,0.8-0.1,1.2-0.3s0.7-0.5,0.8-0.9v-1.6h-1.1c-1.7,0-2.5,0.5-2.5,1.5c0,0.4,0.1,0.8,0.4,1S494,361.5,494.4,361.5z
	 M506.4,362.5H505v-3.4h-3.6v3.4H500v-7.9h1.4v3.4h3.6v-3.4h1.4V362.5z M508.2,358.5c0-0.8,0.1-1.5,0.5-2.1c0.3-0.6,0.7-1.1,1.3-1.4
	c0.5-0.3,1.2-0.5,1.9-0.5c1.1,0,2,0.4,2.6,1.1c0.7,0.8,1,1.7,1,3v0.1c0,0.8-0.1,1.5-0.4,2.1c-0.3,0.6-0.7,1.1-1.3,1.4
	c-0.5,0.3-1.2,0.5-1.9,0.5c-1.1,0-1.9-0.4-2.6-1.1C508.5,360.8,508.2,359.8,508.2,358.5L508.2,358.5z M509.6,358.6
	c0,0.9,0.2,1.6,0.6,2.1c0.4,0.5,1,0.8,1.6,0.8c0.7,0,1.2-0.3,1.6-0.8c0.4-0.5,0.6-1.3,0.6-2.3c0-0.9-0.2-1.6-0.6-2.1
	c-0.4-0.5-1-0.8-1.7-0.8c-0.7,0-1.2,0.3-1.6,0.8C509.8,356.9,509.6,357.6,509.6,358.6z"/>
<path class="st7" d="M443.5,381.8l1.8-5.9h1.5l-3.2,9.1c-0.5,1.3-1.3,2-2.4,2l-0.3,0l-0.5-0.1v-1.1l0.4,0c0.5,0,0.8-0.1,1.1-0.3
	c0.3-0.2,0.5-0.5,0.6-1l0.3-0.8l-2.8-7.8h1.5L443.5,381.8z M451.1,382.9c0.5,0,0.9-0.1,1.3-0.4c0.4-0.3,0.6-0.7,0.6-1.1h1.3
	c0,0.5-0.2,0.9-0.5,1.3c-0.3,0.4-0.7,0.7-1.2,1c-0.5,0.2-1,0.4-1.5,0.4c-1.1,0-1.9-0.4-2.6-1.1c-0.6-0.7-1-1.7-1-3v-0.2
	c0-0.8,0.1-1.5,0.4-2.1c0.3-0.6,0.7-1.1,1.2-1.4c0.5-0.3,1.2-0.5,1.9-0.5c0.9,0,1.6,0.3,2.2,0.8s0.9,1.2,0.9,2.1H453
	c0-0.5-0.2-0.9-0.6-1.3c-0.3-0.3-0.8-0.5-1.3-0.5c-0.7,0-1.2,0.2-1.6,0.7s-0.6,1.2-0.6,2.1v0.3c0,0.9,0.2,1.6,0.6,2.1
	C449.9,382.6,450.4,382.9,451.1,382.9z M462.3,375.9v7.9H461V377h-2.7l-0.2,3c-0.1,1.4-0.3,2.3-0.7,2.9c-0.4,0.6-1,0.9-1.8,0.9h-0.5
	v-1.2l0.4,0c0.4-0.1,0.8-0.3,0.9-0.8c0.2-0.5,0.3-1.3,0.4-2.6l0.1-3.4H462.3z M464.1,379.8c0-0.8,0.1-1.5,0.5-2.1
	c0.3-0.6,0.7-1.1,1.3-1.4c0.5-0.3,1.2-0.5,1.9-0.5c1.1,0,2,0.4,2.6,1.1c0.7,0.8,1,1.7,1,3v0.1c0,0.8-0.1,1.5-0.4,2.1
	c-0.3,0.6-0.7,1.1-1.3,1.4c-0.6,0.3-1.2,0.5-1.9,0.5c-1.1,0-1.9-0.4-2.6-1.1C464.5,382.1,464.1,381.1,464.1,379.8L464.1,379.8z
	 M465.5,379.9c0,0.9,0.2,1.6,0.6,2.1c0.4,0.5,0.9,0.8,1.6,0.8s1.2-0.3,1.6-0.8c0.4-0.5,0.6-1.3,0.6-2.3c0-0.9-0.2-1.6-0.6-2.1
	c-0.4-0.5-1-0.8-1.6-0.8c-0.7,0-1.2,0.3-1.6,0.8C465.7,378.2,465.5,378.9,465.5,379.9z M473.2,383.8v-7.9h3.1c1.1,0,1.9,0.2,2.4,0.5
	c0.6,0.4,0.9,0.9,0.9,1.6c0,0.4-0.1,0.7-0.3,1c-0.2,0.3-0.6,0.5-1,0.7c0.5,0.1,0.9,0.3,1.1,0.6c0.3,0.3,0.4,0.7,0.4,1.2
	c0,0.7-0.3,1.3-0.8,1.7c-0.5,0.4-1.3,0.6-2.3,0.6H473.2z M474.5,380.3v2.4h2.2c0.6,0,1-0.1,1.3-0.3s0.4-0.5,0.4-0.9
	c0-0.8-0.6-1.2-1.7-1.2H474.5z M474.5,379.2h1.8c1.3,0,1.9-0.4,1.9-1.1s-0.6-1.1-1.8-1.1h-1.9V379.2z M488.1,383.8h-1.3v-3.4h-3.6
	v3.4h-1.4v-7.9h1.4v3.4h3.6v-3.4h1.3V383.8z M491.7,378.6h2.1c0.9,0,1.6,0.2,2.1,0.7c0.5,0.4,0.8,1.1,0.8,1.9c0,0.8-0.3,1.4-0.8,1.9
	c-0.5,0.5-1.3,0.7-2.2,0.7h-3.4v-7.9h1.4V378.6z M499.5,383.8h-1.4v-7.9h1.4V383.8z M491.7,379.7v3h2c0.5,0,0.9-0.1,1.2-0.4
	s0.4-0.6,0.4-1.1c0-0.4-0.1-0.8-0.4-1.1s-0.6-0.4-1.1-0.4H491.7z M507,375.9h1.4v7.9H507V378l-3.6,5.8H502v-7.9h1.4v5.8L507,375.9z
	 M507.4,373c0,0.6-0.2,1.1-0.6,1.4c-0.4,0.4-0.9,0.5-1.6,0.5c-0.7,0-1.2-0.2-1.6-0.5c-0.4-0.4-0.6-0.8-0.6-1.4h1.1
	c0,0.4,0.1,0.6,0.3,0.8c0.2,0.2,0.5,0.3,0.8,0.3c0.3,0,0.6-0.1,0.8-0.3s0.3-0.5,0.3-0.8H507.4z M517.5,382.9c0.5,0,0.9-0.1,1.3-0.4
	c0.4-0.3,0.6-0.7,0.6-1.1h1.3c0,0.5-0.2,0.9-0.5,1.3c-0.3,0.4-0.7,0.7-1.2,1c-0.5,0.2-1,0.4-1.5,0.4c-1.1,0-1.9-0.4-2.6-1.1
	s-1-1.7-1-3v-0.2c0-0.8,0.1-1.5,0.4-2.1c0.3-0.6,0.7-1.1,1.2-1.4c0.5-0.3,1.1-0.5,1.9-0.5c0.9,0,1.6,0.3,2.2,0.8
	c0.6,0.5,0.9,1.2,0.9,2.1h-1.3c0-0.5-0.2-0.9-0.6-1.3c-0.3-0.3-0.8-0.5-1.3-0.5c-0.7,0-1.2,0.2-1.6,0.7c-0.4,0.5-0.6,1.2-0.6,2.1
	v0.3c0,0.9,0.2,1.6,0.6,2.1C516.2,382.6,516.8,382.9,517.5,382.9z M528.8,379.9c0,1.2-0.3,2.2-0.8,2.9c-0.5,0.7-1.3,1.1-2.2,1.1
	c-1,0-1.7-0.3-2.3-0.9v3.8h-1.3v-11h1.2l0.1,0.9c0.5-0.7,1.3-1,2.3-1c1,0,1.7,0.4,2.3,1.1s0.8,1.7,0.8,3V379.9z M527.5,379.8
	c0-0.9-0.2-1.6-0.6-2.1c-0.4-0.5-0.9-0.8-1.6-0.8c-0.8,0-1.4,0.4-1.9,1.1v3.8c0.4,0.7,1,1.1,1.9,1.1c0.6,0,1.2-0.3,1.5-0.8
	C527.3,381.6,527.5,380.8,527.5,379.8z M530.2,379.8c0-0.8,0.2-1.5,0.5-2.1c0.3-0.6,0.7-1.1,1.3-1.4c0.5-0.3,1.2-0.5,1.9-0.5
	c1.1,0,1.9,0.4,2.6,1.1c0.7,0.8,1,1.7,1,3v0.1c0,0.8-0.2,1.5-0.5,2.1c-0.3,0.6-0.7,1.1-1.3,1.4s-1.2,0.5-1.9,0.5
	c-1.1,0-1.9-0.4-2.6-1.1C530.5,382.1,530.2,381.1,530.2,379.8L530.2,379.8z M531.5,379.9c0,0.9,0.2,1.6,0.6,2.1
	c0.4,0.5,1,0.8,1.6,0.8c0.7,0,1.2-0.3,1.6-0.8c0.4-0.5,0.6-1.3,0.6-2.3c0-0.9-0.2-1.6-0.6-2.1c-0.4-0.5-1-0.8-1.6-0.8
	c-0.7,0-1.2,0.3-1.6,0.8C531.8,378.2,531.5,378.9,531.5,379.9z M541.6,380.4h-1v3.4h-1.4v-7.9h1.4v3.4h0.9l2.7-3.4h1.6l-3.1,3.8
	l3.4,4.1h-1.7L541.6,380.4z"/>
<path class="st8" d="M441.4,396.2v6.8h2.9v-6.8h1.4v6.8h2.9v-6.8h1.4v7.9H440v-7.9H441.4z M457.9,397.3h-2.7v6.8h-1.3v-6.8h-2.6
	v-1.1h6.6V397.3z M465.9,400.2c0,1.2-0.3,2.2-0.8,2.9c-0.6,0.7-1.3,1.1-2.2,1.1c-1,0-1.7-0.3-2.3-0.9v3.8h-1.4v-11h1.2l0.1,0.9
	c0.6-0.7,1.3-1,2.3-1c0.9,0,1.7,0.4,2.3,1.1c0.6,0.7,0.8,1.7,0.8,3V400.2z M464.6,400.1c0-0.9-0.2-1.6-0.6-2.1
	c-0.4-0.5-0.9-0.8-1.6-0.8c-0.8,0-1.4,0.4-1.8,1.1v3.8c0.4,0.7,1,1.1,1.9,1.1c0.7,0,1.2-0.3,1.6-0.8
	C464.4,401.9,464.6,401.1,464.6,400.1z M472.5,404.1c-0.1-0.1-0.1-0.4-0.2-0.8c-0.6,0.6-1.4,1-2.3,1c-0.8,0-1.4-0.2-1.9-0.7
	c-0.5-0.4-0.8-1-0.8-1.7c0-0.8,0.3-1.5,0.9-1.9c0.6-0.5,1.5-0.7,2.6-0.7h1.3v-0.6c0-0.5-0.1-0.8-0.4-1.1c-0.3-0.3-0.7-0.4-1.2-0.4
	c-0.5,0-0.9,0.1-1.2,0.4c-0.3,0.2-0.5,0.5-0.5,0.9h-1.4c0-0.4,0.1-0.8,0.4-1.1c0.3-0.4,0.7-0.7,1.1-0.9c0.5-0.2,1-0.3,1.6-0.3
	c0.9,0,1.6,0.2,2.1,0.7c0.5,0.4,0.8,1.1,0.8,1.9v3.6c0,0.7,0.1,1.3,0.3,1.7v0.1H472.5z M470.3,403.1c0.4,0,0.8-0.1,1.2-0.3
	s0.7-0.5,0.8-0.9v-1.6h-1.1c-1.7,0-2.5,0.5-2.5,1.4c0,0.4,0.1,0.8,0.4,1C469.5,403,469.8,403.1,470.3,403.1z M475.5,400.3
	c0-1.3,0.3-2.4,0.8-3.1c0.5-0.8,1.2-1.1,2.1-1.1c0.4,0,0.8,0.1,1.1,0.2v-3.4h1.4v3.4c0.3-0.2,0.7-0.3,1.2-0.3c0.9,0,1.6,0.4,2.1,1.1
	c0.5,0.8,0.8,1.8,0.8,3.3c0,1.2-0.2,2.1-0.8,2.8c-0.5,0.7-1.2,1-2.1,1c-0.5,0-0.9-0.1-1.2-0.2v3.1h-1.4V404
	c-0.3,0.1-0.7,0.2-1.1,0.2c-0.9,0-1.6-0.4-2.1-1c-0.5-0.7-0.8-1.6-0.8-2.8V400.3z M483.6,400.3c0-1-0.2-1.8-0.5-2.3
	c-0.3-0.6-0.8-0.8-1.4-0.8c-0.3,0-0.6,0-0.8,0.1v5.7c0.2,0.1,0.5,0.1,0.8,0.1c0.6,0,1.1-0.2,1.4-0.7
	C483.4,402,483.6,401.3,483.6,400.3z M476.9,400.4c0,0.9,0.2,1.6,0.5,2c0.3,0.5,0.8,0.7,1.4,0.7c0.3,0,0.5,0,0.8-0.1v-5.8
	c-0.2-0.1-0.5-0.1-0.8-0.1c-0.6,0-1.1,0.3-1.4,0.8S476.9,399.3,476.9,400.4z"/>
<path d="M446.6,415.6H444v6.8h-1.4v-6.8H440v-1.1h6.6V415.6z M449.4,417.9h1.9c0.1-1,0.5-1.9,1.1-2.5c0.6-0.6,1.5-1,2.4-1
	c1,0,1.9,0.4,2.5,1.1c0.7,0.7,1,1.6,1.1,2.7l0,0.4c0,0.8-0.2,1.5-0.5,2.1s-0.7,1.1-1.3,1.4c-0.6,0.3-1.2,0.5-1.9,0.5
	c-1,0-1.9-0.3-2.5-1c-0.6-0.7-1-1.5-1.1-2.6h-1.9v3.5h-1.4v-7.9h1.4V417.9z M452.7,418.6c0,0.9,0.2,1.6,0.6,2.1s1,0.8,1.6,0.8
	s1.2-0.3,1.6-0.8c0.4-0.5,0.6-1.3,0.6-2.3c0-0.9-0.2-1.6-0.6-2.1s-1-0.8-1.6-0.8c-0.7,0-1.2,0.3-1.6,0.8
	C452.9,416.8,452.7,417.6,452.7,418.6z M466.9,418.6c0,1.2-0.3,2.2-0.8,2.9c-0.6,0.7-1.3,1.1-2.2,1.1c-1,0-1.7-0.3-2.3-0.9v3.8h-1.4
	v-11h1.2l0.1,0.9c0.5-0.7,1.3-1,2.3-1c1,0,1.7,0.4,2.3,1.1c0.6,0.7,0.8,1.7,0.8,3V418.6z M465.5,418.4c0-0.9-0.2-1.6-0.6-2.1
	c-0.4-0.5-0.9-0.8-1.6-0.8c-0.8,0-1.4,0.4-1.9,1.1v3.8c0.4,0.7,1,1.1,1.9,1.1c0.6,0,1.2-0.3,1.5-0.8
	C465.3,420.2,465.5,419.4,465.5,418.4z M470.1,417.2h2.1c0.9,0,1.6,0.2,2.1,0.7c0.5,0.4,0.8,1.1,0.8,1.9c0,0.8-0.3,1.4-0.8,1.9
	c-0.5,0.5-1.3,0.7-2.2,0.7h-3.4v-7.9h1.4V417.2z M470.1,418.4v3h2c0.5,0,0.9-0.1,1.2-0.4c0.3-0.3,0.4-0.6,0.4-1.1
	c0-0.4-0.1-0.8-0.4-1.1s-0.6-0.4-1.1-0.4H470.1z M481.3,420.6l2.7-6.1h1.7v7.9h-1.4v-5.8l-2.6,5.8h-0.9l-2.6-5.9v5.9h-1.4v-7.9h1.8
	L481.3,420.6z M492.8,422.4c-0.1-0.2-0.2-0.4-0.2-0.8c-0.6,0.6-1.4,1-2.3,1c-0.8,0-1.4-0.2-1.9-0.7c-0.5-0.4-0.8-1-0.8-1.7
	c0-0.8,0.3-1.5,0.9-1.9c0.6-0.5,1.5-0.7,2.7-0.7h1.3V417c0-0.5-0.1-0.9-0.4-1.1s-0.7-0.4-1.2-0.4c-0.5,0-0.9,0.1-1.2,0.4
	c-0.3,0.2-0.5,0.5-0.5,0.9h-1.4c0-0.4,0.1-0.8,0.4-1.1s0.7-0.7,1.1-0.9c0.5-0.2,1-0.3,1.6-0.3c0.9,0,1.6,0.2,2.1,0.7
	c0.5,0.5,0.8,1.1,0.8,1.9v3.7c0,0.7,0.1,1.3,0.3,1.7v0.1H492.8z M490.5,421.4c0.4,0,0.8-0.1,1.2-0.3s0.6-0.5,0.8-0.9v-1.6h-1.1
	c-1.7,0-2.5,0.5-2.5,1.5c0,0.4,0.1,0.8,0.4,1C489.7,421.3,490.1,421.4,490.5,421.4z M504.9,414.5h1.4v7.9h-1.4v-5.8l-3.6,5.8h-1.4
	v-7.9h1.4v5.8L504.9,414.5z M512,421.3l0.5-0.6c0.5-0.7,0.8-1.7,0.9-3.1l0.1-3.2h5.1v6.8h1v3.4h-1.4v-2.3h-5.5v2.3h-1.4l0-3.4H512z
	 M513.7,421.3h3.6v-5.6h-2.4l-0.1,1.9C514.7,419.2,514.3,420.5,513.7,421.3z M527.8,418.6c0,1.2-0.3,2.2-0.8,2.9
	c-0.6,0.7-1.3,1.1-2.2,1.1c-1,0-1.7-0.3-2.3-0.9v3.8h-1.4v-11h1.2l0.1,0.9c0.6-0.7,1.3-1,2.3-1c1,0,1.7,0.4,2.3,1.1
	c0.6,0.7,0.8,1.7,0.8,3V418.6z M526.5,418.4c0-0.9-0.2-1.6-0.6-2.1c-0.4-0.5-0.9-0.8-1.6-0.8c-0.8,0-1.4,0.4-1.8,1.1v3.8
	c0.4,0.7,1,1.1,1.9,1.1c0.6,0,1.2-0.3,1.5-0.8C526.3,420.2,526.5,419.4,526.5,418.4z M532.2,420.5l1.8-5.9h1.5l-3.2,9.1
	c-0.5,1.3-1.3,2-2.4,2l-0.3,0l-0.5-0.1v-1.1l0.4,0c0.5,0,0.8-0.1,1.1-0.3c0.3-0.2,0.5-0.5,0.6-1l0.3-0.8l-2.8-7.8h1.5L532.2,420.5z
	 M541.8,415.6h-3.6v6.8h-1.4v-7.9h5V415.6z M542.6,418.4c0-0.8,0.2-1.5,0.5-2.1c0.3-0.6,0.7-1.1,1.3-1.4c0.5-0.3,1.2-0.5,1.9-0.5
	c1.1,0,2,0.4,2.6,1.1c0.7,0.8,1,1.8,1,3v0.1c0,0.8-0.2,1.5-0.4,2.1c-0.3,0.6-0.7,1.1-1.3,1.4s-1.2,0.5-1.9,0.5
	c-1.1,0-1.9-0.4-2.6-1.1C542.9,420.7,542.6,419.7,542.6,418.4L542.6,418.4z M544,418.6c0,0.9,0.2,1.6,0.6,2.1c0.4,0.5,1,0.8,1.6,0.8
	c0.7,0,1.2-0.3,1.6-0.8c0.4-0.5,0.6-1.3,0.6-2.3c0-0.9-0.2-1.6-0.6-2.1c-0.4-0.5-1-0.8-1.6-0.8c-0.7,0-1.2,0.3-1.6,0.8
	C544.2,416.8,544,417.6,544,418.6z M554.8,422.6c-1.1,0-2-0.4-2.6-1.1c-0.7-0.7-1-1.6-1-2.8v-0.2c0-0.8,0.2-1.5,0.5-2.1
	c0.3-0.6,0.7-1.1,1.3-1.4c0.5-0.4,1.1-0.5,1.8-0.5c1,0,1.8,0.3,2.4,1s0.9,1.6,0.9,2.9v0.6h-5.4c0,0.8,0.2,1.4,0.7,1.9
	c0.4,0.5,1,0.7,1.7,0.7c0.5,0,0.9-0.1,1.2-0.3c0.3-0.2,0.6-0.4,0.9-0.8l0.8,0.6C557.1,422.1,556.1,422.6,554.8,422.6z M554.6,415.5
	c-0.5,0-1,0.2-1.4,0.6c-0.4,0.4-0.6,1-0.7,1.7h4v-0.1c0-0.7-0.2-1.2-0.5-1.6C555.7,415.7,555.2,415.5,554.6,415.5z"/>
<path class="st9" d="M390.4,522.9c0,2.1-0.4,3.8-1.2,4.8c-0.8,1.1-2,1.6-3.7,1.6c-1.6,0-2.8-0.5-3.6-1.6c-0.8-1.1-1.2-2.6-1.3-4.7
	v-2.6c0-2.1,0.4-3.8,1.2-4.8c0.8-1.1,2-1.6,3.7-1.6c1.6,0,2.9,0.5,3.7,1.6c0.8,1,1.2,2.6,1.2,4.7L390.4,522.9L390.4,522.9z
	 M387.9,520.1c0-1.4-0.2-2.4-0.6-3.1c-0.4-0.7-1-1-1.8-1s-1.4,0.3-1.8,0.9c-0.4,0.6-0.6,1.6-0.6,2.9v3.4c0,1.4,0.2,2.4,0.6,3.1
	c0.4,0.7,1,1,1.8,1s1.4-0.3,1.8-1c0.4-0.6,0.6-1.6,0.6-3V520.1z M393.1,532.6l-1.3-0.8c0.4-0.6,0.7-1.2,0.8-1.6
	c0.1-0.5,0.2-0.9,0.2-1.4v-1.9h2.2v1.8c0,0.7-0.2,1.5-0.5,2.2C394.1,531.5,393.7,532.1,393.1,532.6z M407.2,529.2h-10v-1.7l5-5.4
	c0.7-0.8,1.2-1.5,1.5-2s0.5-1.1,0.5-1.6c0-0.7-0.2-1.3-0.6-1.7s-0.9-0.7-1.6-0.7c-0.8,0-1.4,0.2-1.9,0.7c-0.4,0.5-0.7,1.2-0.7,2
	h-2.5c0-0.9,0.2-1.7,0.6-2.5c0.4-0.7,1-1.3,1.8-1.7s1.7-0.6,2.7-0.6c1.5,0,2.6,0.4,3.4,1.1c0.8,0.7,1.3,1.7,1.3,3
	c0,0.7-0.2,1.5-0.6,2.3s-1.1,1.8-2.1,2.8l-3.7,3.9h6.9L407.2,529.2L407.2,529.2z M419.2,529.2h-10v-1.7l5-5.4c0.7-0.8,1.2-1.5,1.5-2
	s0.5-1.1,0.5-1.6c0-0.7-0.2-1.3-0.6-1.7s-0.9-0.7-1.6-0.7c-0.8,0-1.4,0.2-1.9,0.7c-0.4,0.5-0.7,1.2-0.7,2h-2.5
	c0-0.9,0.2-1.7,0.6-2.5c0.4-0.7,1-1.3,1.8-1.7s1.7-0.6,2.7-0.6c1.5,0,2.6,0.4,3.4,1.1c0.8,0.7,1.2,1.7,1.2,3c0,0.7-0.2,1.5-0.6,2.3
	s-1.1,1.8-2.1,2.8l-3.7,3.9h6.9v2.1H419.2z M421,517.2c0-0.9,0.3-1.6,0.9-2.2c0.6-0.6,1.4-0.9,2.3-0.9c1,0,1.7,0.3,2.3,0.9
	c0.6,0.6,0.9,1.3,0.9,2.3v0.7c0,0.9-0.3,1.6-0.9,2.2c-0.6,0.6-1.3,0.9-2.3,0.9c-0.9,0-1.7-0.3-2.3-0.9c-0.6-0.6-0.9-1.3-0.9-2.3
	V517.2z M422.7,517.9c0,0.5,0.1,0.9,0.4,1.1c0.3,0.3,0.6,0.4,1,0.4s0.8-0.1,1-0.4c0.3-0.3,0.4-0.7,0.4-1.2V517
	c0-0.5-0.1-0.8-0.4-1.1s-0.6-0.5-1-0.5s-0.8,0.1-1,0.5c-0.3,0.3-0.4,0.7-0.4,1.2V517.9z M428.1,525.6c0-0.9,0.3-1.7,0.9-2.2
	c0.6-0.6,1.4-0.8,2.3-0.8s1.7,0.3,2.3,0.8c0.6,0.6,0.9,1.3,0.9,2.3v0.7c0,0.9-0.3,1.6-0.9,2.2s-1.3,0.9-2.3,0.9s-1.7-0.3-2.3-0.9
	c-0.6-0.6-0.9-1.3-0.9-2.3V525.6z M429.9,526.4c0,0.5,0.1,0.8,0.4,1.2c0.3,0.3,0.6,0.4,1,0.4s0.8-0.1,1-0.4c0.2-0.3,0.4-0.7,0.4-1.2
	v-0.8c0-0.5-0.1-0.9-0.4-1.2s-0.6-0.4-1-0.4s-0.8,0.2-1,0.4c-0.3,0.3-0.4,0.7-0.4,1.2V526.4z M424.6,528.1l-1.3-0.7l7.3-11.7
	l1.3,0.7L424.6,528.1z"/>
<path class="st9" d="M761.2,529.4h-10v-1.7l5-5.4c0.7-0.8,1.2-1.5,1.5-2s0.5-1.1,0.5-1.6c0-0.7-0.2-1.3-0.6-1.7
	c-0.4-0.4-0.9-0.7-1.6-0.7c-0.8,0-1.4,0.2-1.9,0.7c-0.4,0.5-0.7,1.2-0.7,2h-2.5c0-0.9,0.2-1.7,0.6-2.4c0.4-0.7,1-1.3,1.8-1.7
	s1.7-0.6,2.7-0.6c1.5,0,2.6,0.4,3.4,1.1c0.8,0.7,1.2,1.7,1.2,3c0,0.7-0.2,1.5-0.6,2.3c-0.4,0.8-1.1,1.8-2.1,2.8l-3.7,3.9h6.9
	L761.2,529.4L761.2,529.4z M763.7,532.7l-1.4-0.8c0.4-0.6,0.7-1.2,0.8-1.6c0.2-0.5,0.2-0.9,0.2-1.4V527h2.2v1.8
	c0,0.7-0.2,1.5-0.5,2.2S764.2,532.2,763.7,532.7z M774.5,529.4H772v-12l-3.7,1.3v-2.1l5.8-2.1h0.3v14.9H774.5z M786.8,523.1
	c-0.8,0.9-1.8,1.3-2.9,1.3c-1.3,0-2.4-0.5-3.1-1.4s-1.2-2.1-1.2-3.6c0-1,0.2-1.9,0.6-2.7c0.4-0.8,1-1.4,1.7-1.9
	c0.7-0.4,1.6-0.7,2.5-0.7c1.5,0,2.7,0.6,3.6,1.7c0.9,1.1,1.3,2.6,1.3,4.5v0.7c0,2.7-0.6,4.7-1.8,6.2c-1.2,1.4-3,2.1-5.5,2.1h-0.3
	v-2.1h0.4c1.5,0,2.6-0.4,3.4-1.1C786.2,525.6,786.7,524.5,786.8,523.1z M784.4,522.5c0.5,0,1-0.1,1.4-0.4c0.4-0.3,0.8-0.7,1-1.2v-1
	c0-1.1-0.2-2-0.7-2.7c-0.4-0.7-1-1-1.8-1c-0.7,0-1.3,0.3-1.7,0.9c-0.4,0.6-0.6,1.3-0.6,2.2s0.2,1.7,0.7,2.3S783.6,522.5,784.4,522.5
	z M791.5,517.3c0-0.9,0.3-1.6,0.9-2.2c0.6-0.6,1.3-0.9,2.3-0.9s1.7,0.3,2.3,0.9c0.6,0.6,0.9,1.3,0.9,2.3v0.7c0,0.9-0.3,1.6-0.9,2.2
	c-0.6,0.6-1.3,0.9-2.3,0.9c-0.9,0-1.7-0.3-2.3-0.8c-0.6-0.6-0.9-1.3-0.9-2.3V517.3z M793.3,518.1c0,0.5,0.1,0.9,0.4,1.1
	c0.3,0.3,0.6,0.4,1,0.4s0.8-0.1,1-0.4c0.3-0.3,0.4-0.7,0.4-1.2v-0.8c0-0.5-0.1-0.8-0.4-1.1c-0.3-0.3-0.6-0.4-1-0.4s-0.8,0.1-1,0.4
	c-0.3,0.3-0.4,0.7-0.4,1.2V518.1z M798.7,525.7c0-0.9,0.3-1.7,0.9-2.2c0.6-0.6,1.4-0.9,2.3-0.9c0.9,0,1.7,0.3,2.3,0.9
	c0.6,0.6,0.9,1.3,0.9,2.3v0.7c0,0.9-0.3,1.6-0.9,2.2c-0.6,0.6-1.3,0.9-2.3,0.9s-1.7-0.3-2.3-0.9c-0.6-0.6-0.9-1.3-0.9-2.3V525.7z
	 M800.5,526.5c0,0.5,0.1,0.8,0.4,1.1c0.3,0.3,0.6,0.5,1,0.5s0.8-0.1,1-0.4c0.2-0.3,0.4-0.7,0.4-1.2v-0.8c0-0.5-0.1-0.9-0.4-1.2
	c-0.3-0.3-0.6-0.4-1-0.4s-0.8,0.2-1,0.4c-0.3,0.3-0.4,0.7-0.4,1.2V526.5z M795.2,528.2l-1.3-0.7l7.3-11.7l1.3,0.7L795.2,528.2z"/>
</svg>
