<?xml version="1.0" encoding="utf-8"?>
<!-- Generator: Adobe Illustrator 23.0.6, SVG Export Plug-In . SVG Version: 6.00 Build 0)  -->
<svg version="1.1" id="Слой_1" xmlns="http://www.w3.org/2000/svg" xmlns:xlink="http://www.w3.org/1999/xlink" x="0px" y="0px"
	 viewBox="0 0 710 435.1" style="enable-background:new 0 0 710 435.1;" xml:space="preserve">
<style type="text/css">
	.st0{fill:#FFFFFF;}
	.st1{fill:#494A4D;}
	.st2{fill:#A6A6A6;}
	.st3{fill:#BF381D;stroke:#FFFFFF;stroke-width:0.15;}
	.st4{fill:#CFCFCF;stroke:#FFFFFF;stroke-width:0.15;}
	.st5{fill:#949494;stroke:#FFFFFF;stroke-width:0.15;}
	.st6{stroke:#FFFFFF;stroke-width:0.15;}
	.st7{fill:#CFCFCF;}
	.st8{fill:#949494;}
	.st9{fill:#BF381D;}
</style>
<path class="st0" d="M0,0h710v435H0V0z"/>
<path class="st1" d="M12.4,8.1c0,1.5-0.3,2.8-0.8,3.9s-1.2,1.9-2.2,2.5c-0.9,0.6-2,0.9-3.2,0.9S3.9,15.1,3,14.5
	c-1-0.6-1.7-1.4-2.2-2.5S0,9.6,0,8.2V7.4c0-1.5,0.3-2.7,0.8-3.8C1.3,2.5,2,1.6,3,1c0.9-0.6,2-0.9,3.2-0.9S8.5,0.4,9.4,1
	s1.7,1.4,2.2,2.5s0.8,2.4,0.8,3.8V8.1z M9.8,7.3c0-1.6-0.3-2.9-0.9-3.8C8.3,2.6,7.4,2.2,6.2,2.2c-1.1,0-2,0.4-2.6,1.3s-1,2.1-1,3.7
	v0.9c0,1.6,0.3,2.9,1,3.8c0.6,0.9,1.5,1.4,2.7,1.4c1.1,0,2-0.4,2.6-1.3s0.9-2.2,0.9-3.8V7.3z M23.6,15.1h-2.5v-3.7
	c-0.6,0.2-1.3,0.2-2,0.2c-1.5,0-2.7-0.4-3.5-1.1s-1.2-1.8-1.2-3.1V4h2.5v3.4c0,0.8,0.2,1.4,0.5,1.7c0.4,0.3,0.9,0.5,1.6,0.5
	c0.7,0,1.4-0.1,2-0.2V4h2.5L23.6,15.1L23.6,15.1z M30.2,10.7H29v4.4h-2.5V4H29v4.4h1.1L33.2,4h3.1l-4,5.3l4.3,5.8h-3.2L30.2,10.7z
	 M44.8,4h2.5v11.1h-2.5V7.7l-4.3,7.4H38V4h2.5v7.4L44.8,4z M64.6,15.1h-2.5V6h-4.3v9.1h-2.5V4h9.3V15.1z M77,9.7
	c0,1.7-0.4,3.1-1.2,4.1s-1.8,1.5-3.1,1.5c-1.2,0-2.2-0.4-2.9-1.2v5.3h-2.5V4h2.3l0.1,1.1c0.7-0.9,1.7-1.3,3-1.3
	c1.4,0,2.4,0.5,3.2,1.5s1.2,2.4,1.2,4.2v0.2H77z M74.5,9.5c0-1.1-0.2-2-0.7-2.6s-1.1-1-1.9-1c-1,0-1.8,0.4-2.2,1.3v4.9
	c0.5,0.9,1.2,1.3,2.2,1.3c0.8,0,1.4-0.3,1.9-1C74.3,11.7,74.5,10.8,74.5,9.5z M85.7,15.1c-0.1-0.2-0.2-0.5-0.3-1
	c-0.8,0.8-1.8,1.2-2.9,1.2c-1.1,0-2-0.3-2.7-0.9S78.7,13,78.7,12c0-1.2,0.4-2.1,1.3-2.7c0.9-0.6,2.1-1,3.8-1h1.5V7.6
	c0-0.6-0.2-1-0.5-1.4S84,5.7,83.3,5.7c-0.6,0-1,0.1-1.4,0.4s-0.5,0.6-0.5,1.1H79c0-0.6,0.2-1.2,0.6-1.7s1-0.9,1.6-1.2
	c0.7-0.3,1.5-0.5,2.3-0.5c1.3,0,2.3,0.3,3.1,1s1.2,1.6,1.2,2.8v5c0,1,0.1,1.8,0.4,2.4v0.2L85.7,15.1L85.7,15.1z M83,13.3
	c0.5,0,1-0.1,1.4-0.4c0.4-0.2,0.8-0.6,1-1V9.8H84c-0.9,0-1.6,0.2-2.1,0.5s-0.7,0.8-0.7,1.4c0,0.5,0.2,0.9,0.5,1.1
	C82,13.2,82.4,13.3,83,13.3z M90.6,15.1V4h4.5c1.5,0,2.7,0.3,3.5,0.8s1.2,1.3,1.2,2.3c0,0.5-0.2,1-0.5,1.4s-0.8,0.7-1.4,0.9
	c0.7,0.2,1.3,0.5,1.7,0.9s0.6,1,0.6,1.6c0,1-0.4,1.8-1.1,2.4c-0.8,0.5-1.9,0.8-3.3,0.8L90.6,15.1L90.6,15.1z M93.1,10.4v2.8h2.7
	c1.3,0,1.9-0.5,1.9-1.4s-0.7-1.4-2-1.4H93.1z M93.1,8.6h2.1c1.4,0,2.1-0.4,2.1-1.2c0-0.9-0.7-1.3-2-1.3h-2.2L93.1,8.6L93.1,8.6z
	 M101.9,9.5c0-1.1,0.2-2.1,0.7-2.9c0.4-0.9,1-1.5,1.8-2s1.7-0.7,2.7-0.7c1.5,0,2.7,0.5,3.6,1.4c0.9,1,1.4,2.2,1.5,3.8v0.6
	c0,1.1-0.2,2.1-0.6,2.9s-1,1.5-1.8,2s-1.7,0.7-2.7,0.7c-1.6,0-2.8-0.5-3.8-1.6C102.4,12.6,101.9,11.3,101.9,9.5L101.9,9.5L101.9,9.5
	z M104.4,9.7c0,1.1,0.2,2,0.7,2.7c0.5,0.6,1.1,1,2,1c0.8,0,1.5-0.3,2-1s0.7-1.6,0.7-2.9c0-1.1-0.2-2-0.7-2.7s-1.1-1-2-1
	c-0.8,0-1.5,0.3-1.9,1C104.7,7.5,104.4,8.4,104.4,9.7z M118.9,13.4c0.6,0,1.1-0.2,1.6-0.5c0.4-0.4,0.6-0.8,0.7-1.3h2.4
	c0,0.7-0.2,1.3-0.6,1.9s-1,1.1-1.6,1.4c-0.7,0.3-1.4,0.5-2.2,0.5c-1.6,0-2.8-0.5-3.7-1.5c-0.9-1-1.4-2.4-1.4-4.2V9.4
	c0-1.7,0.4-3,1.3-4.1c0.9-1,2.1-1.5,3.7-1.5c1.3,0,2.4,0.4,3.2,1.2c0.8,0.8,1.3,1.8,1.3,3h-2.4c0-0.6-0.2-1.2-0.6-1.6
	s-0.9-0.6-1.6-0.6c-0.8,0-1.4,0.3-1.9,0.9c-0.4,0.6-0.7,1.5-0.7,2.7v0.4c0,1.2,0.2,2.1,0.6,2.7C117.5,13,118.1,13.4,118.9,13.4z
	 M129.2,11.6l2.3-7.5h2.7l-4.4,12.8c-0.7,1.9-1.8,2.8-3.4,2.8c-0.4,0-0.8-0.1-1.2-0.2v-2h0.5c0.6,0,1.1-0.1,1.4-0.3
	c0.3-0.2,0.6-0.6,0.8-1.2l0.4-1l-3.9-11h2.7L129.2,11.6z M135.6,13.1c0.7-0.8,1.2-1.5,1.4-2.2c0.2-0.7,0.4-1.6,0.4-2.7l0.2-4.2h7.7
	v9.1h1.5v5.3h-2.5v-3.3h-7.1v3.3h-2.5v-5.3L135.6,13.1L135.6,13.1z M138.5,13.1h4.3v-7H140l-0.1,2.1C139.8,10.3,139.4,12,138.5,13.1
	z M155.5,4h2.5v11.1h-2.5V7.7l-4.4,7.4h-2.5V4h2.5v7.4L155.5,4z M169.5,4v11.1H167V11h-2.3l-2.4,4.1h-2.6l2.6-4.5
	c-0.7-0.3-1.2-0.7-1.6-1.2s-0.5-1.1-0.5-1.8c0-1,0.4-1.9,1.2-2.5c0.8-0.7,1.9-1,3.2-1h4.9V4z M162.8,7.6c0,0.5,0.2,0.8,0.5,1.1
	c0.3,0.3,0.8,0.4,1.3,0.4h2.5V5.9h-2.3c-0.6,0-1.1,0.1-1.5,0.5S162.8,7.2,162.8,7.6z"/>
<path class="st1" d="M8.2,45c-0.1,1.1-0.5,2-1.2,2.6s-1.6,0.9-2.8,0.9c-1.3,0-2.3-0.5-3-1.4c-0.8-0.9-1.1-2.1-1.1-3.6v-1
	c0-1,0.2-1.9,0.5-2.6c0.4-0.8,0.9-1.3,1.5-1.7c0.6-0.4,1.4-0.6,2.2-0.6c1.1,0,2,0.3,2.7,1c0.7,0.6,1.1,1.5,1.2,2.6H6.8
	c-0.1-0.9-0.4-1.5-0.8-1.9c-0.4-0.4-1-0.6-1.7-0.6c-0.9,0-1.6,0.3-2.1,1s-0.8,1.6-0.8,2.8v1c0,1.2,0.2,2.1,0.7,2.8
	c0.5,0.7,1.2,1,2,1s1.4-0.2,1.8-0.5c0.4-0.4,0.7-1,0.8-1.9h1.5V45z M15,40.5h1.4v7.9H15v-5.8l-3.6,5.8H10v-7.9h1.4v5.8L15,40.5z
	 M25.1,40.5v7.9h-1.4v-6.8H21l-0.2,3c-0.1,1.4-0.3,2.3-0.7,2.9s-1,0.9-1.8,0.9h-0.5v-1.2h0.4c0.4,0,0.8-0.3,0.9-0.8
	c0.2-0.5,0.3-1.3,0.4-2.6l0.1-3.4h5.5V40.5z M26.9,44.3c0-0.8,0.1-1.5,0.4-2.1c0.3-0.6,0.7-1.1,1.3-1.4c0.5-0.3,1.2-0.5,1.9-0.5
	c1.1,0,2,0.4,2.6,1.1c0.7,0.8,1,1.7,1,3v0.1c0,0.8-0.1,1.5-0.4,2.1c-0.3,0.6-0.7,1.1-1.3,1.4s-1.2,0.5-1.9,0.5c-1.1,0-2-0.4-2.6-1.1
	C27.2,46.6,26.9,45.7,26.9,44.3L26.9,44.3z M28.2,44.5c0,0.9,0.2,1.6,0.6,2.1c0.4,0.5,1,0.8,1.6,0.8s1.2-0.3,1.6-0.8
	c0.4-0.5,0.6-1.3,0.6-2.3c0-0.9-0.2-1.6-0.6-2.1c-0.4-0.5-1-0.8-1.6-0.8c-0.7,0-1.2,0.3-1.6,0.8C28.5,42.7,28.2,43.5,28.2,44.5z
	 M35.9,48.4v-7.9H39c1.1,0,1.9,0.2,2.4,0.5c0.6,0.4,0.9,0.9,0.9,1.6c0,0.4-0.1,0.7-0.3,1s-0.5,0.5-1,0.7c0.5,0.1,0.9,0.3,1.2,0.7
	c0.3,0.3,0.4,0.7,0.4,1.2c0,0.7-0.3,1.3-0.8,1.7c-0.5,0.4-1.3,0.6-2.3,0.6h-3.6V48.4z M37.3,44.9v2.4h2.2c0.6,0,1-0.1,1.3-0.3
	s0.4-0.5,0.4-0.9c0-0.8-0.6-1.2-1.7-1.2H37.3z M37.3,43.8h1.8c1.3,0,1.9-0.4,1.9-1.1s-0.6-1.1-1.8-1.2h-1.9V43.8z M49.5,40.5h1.4
	v7.9h-1.4v-5.8l-3.7,5.8h-1.4v-7.9h1.4v5.8L49.5,40.5z M55.5,45h-1v3.4h-1.4v-7.9h1.4v3.3h0.9l2.7-3.3h1.6l-3.1,3.8l3.4,4.1h-1.7
	L55.5,45z M60.8,44.3c0-0.8,0.2-1.5,0.5-2.1s0.7-1.1,1.3-1.4c0.5-0.3,1.2-0.5,1.9-0.5c1.1,0,2,0.4,2.6,1.1c0.7,0.8,1,1.7,1,3v0.1
	c0,0.8-0.1,1.5-0.4,2.1c-0.3,0.6-0.7,1.1-1.3,1.4c-0.5,0.3-1.2,0.5-1.9,0.5c-1.1,0-1.9-0.4-2.6-1.1C61.1,46.6,60.8,45.7,60.8,44.3
	L60.8,44.3z M62.1,44.5c0,0.9,0.2,1.6,0.6,2.1c0.4,0.5,1,0.8,1.6,0.8c0.7,0,1.2-0.3,1.6-0.8c0.4-0.5,0.6-1.3,0.6-2.3
	c0-0.9-0.2-1.6-0.6-2.1c-0.4-0.5-1-0.8-1.6-0.8c-0.7,0-1.2,0.3-1.6,0.8S62.1,43.5,62.1,44.5z M69.8,48.4v-7.9h3.1
	c1.1,0,1.9,0.2,2.4,0.5c0.6,0.4,0.8,0.9,0.8,1.6c0,0.4-0.1,0.7-0.3,1s-0.5,0.5-1,0.7c0.5,0.1,0.9,0.3,1.1,0.7
	c0.3,0.3,0.4,0.7,0.4,1.2c0,0.7-0.3,1.3-0.8,1.7c-0.5,0.4-1.3,0.6-2.3,0.6h-3.4V48.4z M71.2,44.9v2.4h2.2c0.6,0,1-0.1,1.3-0.3
	s0.4-0.5,0.4-0.9c0-0.8-0.6-1.2-1.8-1.2H71.2z M71.2,43.8H73c1.3,0,1.9-0.4,1.9-1.1s-0.6-1.1-1.8-1.2h-1.9V43.8z M81.6,44.3
	c0-0.8,0.2-1.5,0.5-2.1s0.7-1.1,1.3-1.4c0.5-0.3,1.2-0.5,1.9-0.5c1.1,0,1.9,0.4,2.6,1.1c0.7,0.8,1,1.7,1,3v0.1
	c0,0.8-0.1,1.5-0.4,2.1c-0.3,0.6-0.7,1.1-1.3,1.4c-0.5,0.3-1.2,0.5-1.9,0.5c-1.1,0-2-0.4-2.6-1.1C81.9,46.6,81.6,45.7,81.6,44.3
	L81.6,44.3z M83,44.5c0,0.9,0.2,1.6,0.6,2.1c0.4,0.5,1,0.8,1.6,0.8s1.2-0.3,1.6-0.8c0.4-0.5,0.6-1.3,0.6-2.3c0-0.9-0.2-1.6-0.6-2.1
	c-0.4-0.5-1-0.8-1.6-0.8c-0.7,0-1.2,0.3-1.6,0.8S83,43.5,83,44.5z M97,48.4h-1.4v-6.8H92v6.8h-1.4v-7.9H97V48.4z M105.9,44.5
	c0,1.2-0.3,2.2-0.8,2.9c-0.5,0.7-1.3,1.1-2.2,1.1c-1,0-1.7-0.3-2.3-0.9v3.8h-1.4v-11h1.2l0.1,0.9c0.6-0.7,1.3-1,2.3-1
	c0.9,0,1.7,0.4,2.3,1.1s0.8,1.7,0.8,3L105.9,44.5L105.9,44.5z M104.5,44.4c0-0.9-0.2-1.6-0.6-2.1c-0.4-0.5-0.9-0.8-1.6-0.8
	c-0.8,0-1.4,0.4-1.9,1.1v3.8c0.4,0.7,1,1.1,1.9,1.1c0.6,0,1.2-0.3,1.6-0.8C104.3,46.1,104.5,45.4,104.5,44.4z M112.5,48.4
	c-0.1-0.1-0.1-0.4-0.2-0.8c-0.6,0.7-1.4,1-2.2,1s-1.4-0.2-1.9-0.7s-0.8-1-0.8-1.7c0-0.8,0.3-1.5,0.9-1.9c0.6-0.5,1.5-0.7,2.6-0.7
	h1.3V43c0-0.5-0.1-0.9-0.4-1.1c-0.3-0.3-0.7-0.4-1.2-0.4c-0.5,0-0.9,0.1-1.2,0.4s-0.5,0.5-0.5,0.9h-1.4c0-0.4,0.1-0.8,0.4-1.1
	s0.7-0.7,1.1-0.9c0.5-0.2,1-0.3,1.6-0.3c0.9,0,1.6,0.2,2.1,0.7s0.8,1.1,0.8,1.9v3.7c0,0.7,0.1,1.3,0.3,1.7v0.1h-1.3V48.4z
	 M110.2,47.3c0.4,0,0.8-0.1,1.2-0.3c0.4-0.2,0.6-0.5,0.8-0.9v-1.6h-1.1c-1.7,0-2.5,0.5-2.5,1.5c0,0.4,0.1,0.8,0.4,1
	C109.4,47.2,109.8,47.3,110.2,47.3z M115.9,48.4v-7.9h3.1c1.1,0,1.9,0.2,2.4,0.5c0.6,0.4,0.8,0.9,0.8,1.6c0,0.4-0.1,0.7-0.3,1
	c-0.2,0.3-0.5,0.5-1,0.7c0.5,0.1,0.9,0.3,1.1,0.7c0.3,0.3,0.4,0.7,0.4,1.2c0,0.7-0.3,1.3-0.8,1.7c-0.5,0.4-1.3,0.6-2.3,0.6h-3.4
	V48.4z M117.2,44.9v2.4h2.2c0.6,0,1-0.1,1.3-0.3c0.3-0.2,0.4-0.5,0.4-0.9c0-0.8-0.6-1.2-1.7-1.2H117.2z M117.2,43.8h1.8
	c1.3,0,1.9-0.4,1.9-1.1s-0.6-1.1-1.8-1.2h-1.9V43.8z M124.3,47.3l0.5-0.6c0.5-0.7,0.8-1.7,0.9-3.1l0.1-3.2h5.1v6.8h1v3.4h-1.3v-2.3
	H125v2.3h-1.4v-3.4h0.7V47.3z M125.9,47.3h3.6v-5.6h-2.4l-0.1,1.9C126.9,45.2,126.5,46.4,125.9,47.3z M134.9,43.2h2.1
	c0.9,0,1.6,0.2,2.1,0.7s0.8,1.1,0.8,1.9s-0.3,1.4-0.8,1.9s-1.3,0.7-2.2,0.7h-3.4v-7.9h1.4V43.2z M142.6,48.4h-1.4v-7.9h1.4V48.4z
	 M134.9,44.3v3h2c0.5,0,0.9-0.1,1.2-0.4c0.3-0.3,0.4-0.6,0.4-1.1c0-0.4-0.1-0.8-0.4-1.1s-0.6-0.4-1.1-0.4H134.9z M145.1,48.4v-7.9
	h3.1c1.1,0,1.9,0.2,2.4,0.5c0.6,0.4,0.9,0.9,0.9,1.6c0,0.4-0.1,0.7-0.3,1c-0.2,0.3-0.5,0.5-1,0.7c0.5,0.1,0.9,0.3,1.1,0.7
	c0.3,0.3,0.4,0.7,0.4,1.2c0,0.7-0.3,1.3-0.8,1.7c-0.5,0.4-1.3,0.6-2.3,0.6h-3.5V48.4z M146.5,44.9v2.4h2.2c0.6,0,1-0.1,1.3-0.3
	c0.3-0.2,0.4-0.5,0.4-0.9c0-0.8-0.6-1.2-1.7-1.2H146.5z M146.5,43.8h1.8c1.3,0,1.9-0.4,1.9-1.1s-0.6-1.1-1.8-1.2h-1.9V43.8z
	 M158.5,48.4c-0.1-0.1-0.1-0.4-0.2-0.8c-0.6,0.7-1.4,1-2.2,1c-0.8,0-1.4-0.2-1.9-0.7s-0.8-1-0.8-1.7c0-0.8,0.3-1.5,0.9-1.9
	c0.6-0.5,1.5-0.7,2.7-0.7h1.3V43c0-0.5-0.1-0.9-0.4-1.1c-0.3-0.3-0.7-0.4-1.2-0.4s-0.9,0.1-1.2,0.4c-0.3,0.2-0.5,0.5-0.5,0.9h-1.4
	c0-0.4,0.1-0.8,0.4-1.1s0.7-0.7,1.1-0.9c0.5-0.2,1-0.3,1.6-0.3c0.9,0,1.6,0.2,2.2,0.7c0.5,0.5,0.8,1.1,0.8,1.9v3.7
	c0,0.7,0.1,1.3,0.3,1.7v0.1h-1.5V48.4z M156.2,47.3c0.4,0,0.8-0.1,1.2-0.3c0.4-0.2,0.7-0.5,0.8-0.9v-1.6h-1.1
	c-1.7,0-2.5,0.5-2.5,1.5c0,0.4,0.1,0.8,0.4,1C155.4,47.2,155.8,47.3,156.2,47.3z M163.2,43.8h1.9c0.1-1,0.5-1.9,1.1-2.5
	c0.6-0.7,1.5-1,2.5-1s1.9,0.4,2.5,1.1c0.7,0.7,1,1.6,1.1,2.7v0.4c0,0.8-0.2,1.5-0.5,2.1s-0.7,1.1-1.3,1.4c-0.6,0.3-1.2,0.5-1.9,0.5
	c-1,0-1.9-0.3-2.5-1s-1-1.5-1.1-2.6h-1.9v3.5h-1.4v-7.9h1.4L163.2,43.8L163.2,43.8z M166.5,44.5c0,0.9,0.2,1.6,0.6,2.1
	s0.9,0.8,1.6,0.8s1.2-0.3,1.6-0.8s0.6-1.3,0.6-2.3c0-0.9-0.2-1.6-0.6-2.1s-1-0.8-1.6-0.8c-0.7,0-1.2,0.3-1.6,0.8
	S166.5,43.5,166.5,44.5z M179.9,41.5h-2.7v6.8h-1.4v-6.8h-2.6v-1h6.6v1H179.9z M185,48.4v-7.9h3.1c1.1,0,1.9,0.2,2.4,0.5
	s0.9,0.9,0.9,1.6c0,0.4-0.1,0.7-0.3,1c-0.2,0.3-0.5,0.5-1,0.7c0.5,0.1,0.9,0.3,1.2,0.7c0.3,0.3,0.4,0.7,0.4,1.2
	c0,0.7-0.3,1.3-0.8,1.7c-0.5,0.4-1.3,0.6-2.3,0.6H185V48.4z M186.4,44.9v2.4h2.2c0.6,0,1-0.1,1.3-0.3s0.4-0.5,0.4-0.9
	c0-0.8-0.6-1.2-1.7-1.2H186.4z M186.4,43.8h1.8c1.3,0,1.9-0.4,1.9-1.1s-0.6-1.1-1.8-1.2h-1.8v2.3H186.4z M201.5,48.4h-1.4v-9l-2.7,1
	v-1.2l3.9-1.5h0.2V48.4z M212.2,43.8c0,1.6-0.3,2.8-0.8,3.5c-0.5,0.8-1.4,1.2-2.5,1.2s-2-0.4-2.5-1.1s-0.8-1.9-0.9-3.4v-1.8
	c0-1.6,0.3-2.7,0.8-3.5s1.4-1.2,2.5-1.2c1.2,0,2,0.4,2.5,1.1s0.8,1.9,0.8,3.4v1.8H212.2z M210.8,42c0-1.1-0.2-2-0.5-2.5
	s-0.8-0.8-1.5-0.8s-1.2,0.3-1.5,0.8s-0.5,1.3-0.5,2.4v2.2c0,1.2,0.2,2,0.5,2.6s0.8,0.8,1.5,0.8s1.2-0.3,1.5-0.8s0.5-1.3,0.5-2.5V42z
	 M224.4,44.5c0,1.2-0.3,2.2-0.8,2.9c-0.6,0.7-1.3,1.1-2.2,1.1c-1,0-1.7-0.3-2.3-0.9v3.8h-1.4v-11h1.2l0.1,0.9c0.6-0.7,1.3-1,2.3-1
	c0.9,0,1.7,0.4,2.3,1.1c0.6,0.7,0.8,1.7,0.8,3V44.5z M223.1,44.4c0-0.9-0.2-1.6-0.6-2.1s-0.9-0.8-1.6-0.8c-0.8,0-1.4,0.4-1.9,1.1
	v3.8c0.4,0.7,1,1.1,1.9,1.1c0.6,0,1.2-0.3,1.5-0.8C222.9,46.1,223.1,45.4,223.1,44.4z M231.1,48.4c-0.1-0.1-0.1-0.4-0.2-0.8
	c-0.6,0.7-1.4,1-2.3,1c-0.8,0-1.4-0.2-1.9-0.7s-0.8-1-0.8-1.7c0-0.8,0.3-1.5,0.9-1.9c0.6-0.5,1.5-0.7,2.6-0.7h1.3V43
	c0-0.5-0.1-0.9-0.4-1.1c-0.3-0.3-0.7-0.4-1.2-0.4s-0.9,0.1-1.2,0.4c-0.3,0.2-0.5,0.5-0.5,0.9H226c0-0.4,0.1-0.8,0.4-1.1
	c0.3-0.4,0.7-0.7,1.1-0.9c0.5-0.2,1-0.3,1.6-0.3c0.9,0,1.6,0.2,2.1,0.7s0.8,1.1,0.8,1.9v3.7c0,0.7,0.1,1.3,0.3,1.7v0.1h-1.2V48.4z
	 M228.8,47.3c0.4,0,0.8-0.1,1.2-0.3c0.4-0.2,0.6-0.5,0.8-0.9v-1.6h-1.1c-1.7,0-2.5,0.5-2.5,1.5c0,0.4,0.1,0.8,0.4,1
	C228,47.2,228.4,47.3,228.8,47.3z M238.7,42.6c0-0.4-0.1-0.7-0.4-0.9c-0.3-0.2-0.7-0.3-1.2-0.3s-0.9,0.1-1.2,0.4
	c-0.3,0.2-0.5,0.5-0.5,0.9h-1.3c0-0.7,0.3-1.2,0.9-1.7c0.6-0.4,1.3-0.7,2.2-0.7c0.9,0,1.6,0.2,2.2,0.6c0.5,0.4,0.8,1,0.8,1.7
	c0,0.4-0.1,0.7-0.3,1c-0.2,0.3-0.5,0.5-0.9,0.7c0.9,0.3,1.4,0.9,1.4,1.9c0,0.7-0.3,1.3-0.8,1.7c-0.6,0.4-1.3,0.6-2.2,0.6
	c-0.9,0-1.7-0.2-2.3-0.7c-0.6-0.4-0.9-1.1-0.9-1.8h1.4c0,0.4,0.2,0.7,0.5,1s0.8,0.4,1.3,0.4s0.9-0.1,1.2-0.4
	c0.3-0.2,0.5-0.6,0.5-0.9c0-0.4-0.1-0.8-0.4-1s-0.7-0.3-1.2-0.3h-1.3v-1.1h1.5C238.2,43.7,238.7,43.4,238.7,42.6z M251.6,48.4h-1.4
	v-2.9c-0.6,0.2-1.2,0.2-1.8,0.2c-1,0-1.7-0.3-2.3-0.8c-0.5-0.5-0.8-1.2-0.8-2.2v-2.4h1.4v2.4c0,1.2,0.6,1.8,1.7,1.8
	c0.6,0,1.2-0.1,1.8-0.2v-3.8h1.4L251.6,48.4L251.6,48.4z M258.7,48.4c-0.1-0.1-0.1-0.4-0.2-0.8c-0.6,0.7-1.4,1-2.3,1
	c-0.8,0-1.4-0.2-1.9-0.7s-0.8-1-0.8-1.7c0-0.8,0.3-1.5,0.9-1.9c0.6-0.5,1.5-0.7,2.6-0.7h1.3V43c0-0.5-0.1-0.9-0.4-1.1
	c-0.3-0.3-0.7-0.4-1.2-0.4s-0.9,0.1-1.2,0.4c-0.3,0.2-0.5,0.5-0.5,0.9h-1.4c0-0.4,0.1-0.8,0.4-1.1s0.7-0.7,1.1-0.9
	c0.5-0.2,1-0.3,1.6-0.3c0.9,0,1.6,0.2,2.1,0.7s0.8,1.1,0.8,1.9v3.7c0,0.7,0.1,1.3,0.3,1.7v0.1h-1.2V48.4z M256.5,47.3
	c0.4,0,0.8-0.1,1.2-0.3c0.4-0.2,0.7-0.5,0.8-0.9v-1.6h-1.1c-1.7,0-2.5,0.5-2.5,1.5c0,0.4,0.2,0.8,0.4,1
	C255.6,47.2,256,47.3,256.5,47.3z M263.4,40.5v6.8h2.9v-6.8h1.4v6.8h2.9v-6.8h1.4v6.8h1.1l-0.1,3.5h-1.2v-2.4H262v-7.9H263.4z
	 M277.7,48.5c-1.1,0-2-0.4-2.6-1.1c-0.7-0.7-1-1.7-1-2.8v-0.2c0-0.8,0.1-1.5,0.5-2.1c0.3-0.6,0.7-1.1,1.3-1.4
	c0.5-0.4,1.1-0.5,1.8-0.5c1,0,1.8,0.3,2.4,1s0.9,1.6,0.9,2.9v0.6h-5.4c0,0.8,0.2,1.4,0.7,1.9s1,0.7,1.7,0.7c0.5,0,0.9-0.1,1.2-0.3
	c0.3-0.2,0.6-0.5,0.9-0.8l0.8,0.6C280,48,279,48.5,277.7,48.5z M277.5,41.4c-0.5,0-1,0.2-1.4,0.6s-0.6,1-0.7,1.7h4v-0.1
	c0-0.7-0.2-1.2-0.6-1.6C278.5,41.6,278.1,41.4,277.5,41.4z M282.3,50.5l-0.8-0.5c0.5-0.6,0.7-1.3,0.7-2v-1.2h1.3v1.1
	c0,0.5-0.1,1-0.4,1.5C283,49.8,282.6,50.2,282.3,50.5z M295,48.4h-1.4v-2.9c-0.6,0.2-1.2,0.2-1.8,0.2c-1,0-1.8-0.3-2.3-0.8
	s-0.8-1.2-0.8-2.2v-2.4h1.4v2.4c0,1.2,0.6,1.8,1.7,1.8c0.6,0,1.2-0.1,1.8-0.2v-3.8h1.4L295,48.4L295,48.4z M300.4,48.5
	c-1.1,0-1.9-0.4-2.6-1.1s-1-1.7-1-2.8v-0.2c0-0.8,0.1-1.5,0.5-2.1c0.3-0.6,0.7-1.1,1.2-1.4c0.5-0.4,1.1-0.5,1.8-0.5
	c1,0,1.8,0.3,2.4,1s0.9,1.6,0.9,2.9v0.6h-5.4c0,0.8,0.2,1.4,0.7,1.9c0.4,0.5,1,0.7,1.7,0.7c0.5,0,0.9-0.1,1.2-0.3
	c0.3-0.2,0.6-0.5,0.9-0.8l0.8,0.6C302.7,48,301.8,48.5,300.4,48.5z M300.2,41.4c-0.5,0-1,0.2-1.4,0.6s-0.6,1-0.7,1.7h4v-0.1
	c0-0.7-0.2-1.2-0.5-1.6C301.3,41.6,300.8,41.4,300.2,41.4z M309.6,46.6l2.7-6.1h1.7v7.9h-1.4v-5.8l-2.6,5.8h-0.9l-2.6-5.9v5.9h-1.4
	v-7.9h1.8L309.6,46.6z M319.6,44.3c0-0.8,0.1-1.5,0.5-2.1c0.3-0.6,0.7-1.1,1.3-1.4c0.5-0.3,1.2-0.5,1.9-0.5c1.1,0,2,0.4,2.6,1.1
	c0.7,0.8,1,1.7,1,3v0.1c0,0.8-0.1,1.5-0.4,2.1s-0.7,1.1-1.3,1.4c-0.5,0.3-1.2,0.5-1.9,0.5c-1.1,0-2-0.4-2.6-1.1
	C319.9,46.6,319.6,45.7,319.6,44.3L319.6,44.3z M320.9,44.5c0,0.9,0.2,1.6,0.6,2.1s1,0.8,1.6,0.8c0.7,0,1.2-0.3,1.6-0.8
	s0.6-1.3,0.6-2.3c0-0.9-0.2-1.6-0.6-2.1s-1-0.8-1.6-0.8c-0.7,0-1.2,0.3-1.6,0.8S320.9,43.5,320.9,44.5z M332,40.9c1,0,1.8,0.3,2.4,1
	s0.9,1.6,0.9,2.6v0.1c0,0.8-0.1,1.4-0.4,2s-0.7,1.1-1.2,1.4s-1.2,0.5-1.9,0.5c-1.1,0-1.9-0.4-2.6-1.1c-0.6-0.7-1-1.7-1-2.9v-0.7
	c0-1.7,0.3-3,0.9-4s1.5-1.6,2.7-1.8c0.7-0.1,1.1-0.3,1.4-0.4c0.2-0.2,0.4-0.4,0.4-0.7h1.1c0,0.6-0.1,1.1-0.4,1.4s-0.7,0.6-1.3,0.7
	l-1,0.2c-0.8,0.2-1.4,0.5-1.8,1s-0.7,1.1-0.8,1.8C330,41.3,330.9,40.9,332,40.9z M331.7,42c-0.7,0-1.2,0.2-1.6,0.7
	c-0.4,0.4-0.6,1.1-0.6,1.8v0.1c0,0.9,0.2,1.5,0.6,2s0.9,0.7,1.6,0.7s1.2-0.2,1.6-0.7s0.6-1.2,0.6-2.2c0-0.7-0.2-1.3-0.6-1.8
	C332.9,42.2,332.4,42,331.7,42z M338.2,43.2h2.1c0.9,0,1.6,0.2,2.1,0.7s0.8,1.1,0.8,1.9s-0.3,1.4-0.8,1.9s-1.3,0.7-2.2,0.7h-3.4
	v-7.9h1.4V43.2z M346,48.4h-1.4v-7.9h1.4V48.4z M338.2,44.3v3h2c0.5,0,0.9-0.1,1.2-0.4s0.4-0.6,0.4-1.1c0-0.4-0.1-0.8-0.4-1.1
	c-0.3-0.3-0.6-0.4-1.1-0.4H338.2z M354.4,48.4H353v-2.9c-0.6,0.2-1.2,0.2-1.8,0.2c-1,0-1.8-0.3-2.3-0.8s-0.8-1.2-0.8-2.2v-2.4h1.4
	v2.4c0,1.2,0.6,1.8,1.7,1.8c0.6,0,1.2-0.1,1.8-0.2v-3.8h1.4L354.4,48.4L354.4,48.4z M363,48.4h-1.4V45H358v3.4h-1.4v-7.9h1.4v3.4
	h3.6v-3.4h1.4V48.4z M366.7,43.2h2.1c0.9,0,1.6,0.2,2.1,0.7s0.8,1.1,0.8,1.9s-0.3,1.4-0.8,1.9s-1.3,0.7-2.2,0.7h-3.4v-7.9h1.4
	L366.7,43.2L366.7,43.2z M374.5,48.4h-1.4v-7.9h1.4V48.4z M366.7,44.3v3h2c0.5,0,0.9-0.1,1.2-0.4s0.4-0.6,0.4-1.1
	c0-0.4-0.1-0.8-0.4-1.1c-0.3-0.3-0.7-0.4-1.1-0.4H366.7z M379.5,43.3l1.8-2.9h1.6l-2.6,3.9l2.7,4h-1.6l-1.8-3l-1.8,3h-1.6l2.7-4
	l-2.6-3.9h1.6L379.5,43.3z M394.5,40.5v7.9h-1.4v-6.8h-2.7l-0.2,3c-0.1,1.4-0.3,2.3-0.7,2.9s-1,0.9-1.8,0.9h-0.5v-1.2h0.4
	c0.4,0,0.8-0.3,0.9-0.8c0.2-0.5,0.3-1.3,0.4-2.6l0.1-3.4h5.5V40.5z M398.2,43.8h1.9c0.1-1,0.5-1.9,1.1-2.5c0.7-0.7,1.5-1,2.5-1
	s1.9,0.4,2.5,1.1c0.7,0.7,1,1.6,1.1,2.7v0.4c0,0.8-0.2,1.5-0.5,2.1s-0.7,1.1-1.3,1.4s-1.2,0.5-1.9,0.5c-1,0-1.9-0.3-2.5-1
	c-0.7-0.7-1-1.5-1.1-2.6h-1.9v3.5h-1.4v-7.9h1.4v3.3H398.2z M401.4,44.5c0,0.9,0.2,1.6,0.6,2.1c0.4,0.5,1,0.8,1.7,0.8
	s1.2-0.3,1.6-0.8c0.4-0.5,0.6-1.3,0.6-2.3c0-0.9-0.2-1.6-0.6-2.1c-0.4-0.5-1-0.8-1.6-0.8c-0.7,0-1.2,0.3-1.6,0.8
	C401.6,42.7,401.4,43.5,401.4,44.5z M408.8,47.3l0.5-0.6c0.5-0.7,0.8-1.7,0.9-3.1l0.1-3.2h5.1v6.8h1v3.4H415v-2.3h-5.5v2.3h-1.4
	v-3.4h0.7V47.3z M410.5,47.3h3.6v-5.6h-2.4l-0.1,1.9C411.5,45.2,411.1,46.4,410.5,47.3z M421.2,48.5c-1.1,0-2-0.4-2.6-1.1
	c-0.7-0.7-1-1.7-1-2.8v-0.2c0-0.8,0.2-1.5,0.5-2.1s0.7-1.1,1.3-1.4c0.5-0.4,1.1-0.5,1.8-0.5c1,0,1.8,0.3,2.4,1s0.8,1.6,0.8,2.9v0.6
	H419c0,0.8,0.2,1.4,0.7,1.9c0.4,0.5,1,0.7,1.7,0.7c0.5,0,0.9-0.1,1.2-0.3c0.3-0.2,0.6-0.5,0.9-0.8l0.8,0.6
	C423.6,48,422.6,48.5,421.2,48.5z M421.1,41.4c-0.5,0-1,0.2-1.4,0.6s-0.6,1-0.7,1.7h4v-0.1c0-0.7-0.2-1.2-0.6-1.6
	C422.1,41.6,421.7,41.4,421.1,41.4z M431,40.5h1.4v7.9H431v-5.8l-3.7,5.8H426v-7.9h1.3v5.8L431,40.5z M431.4,37.6
	c0,0.6-0.2,1.1-0.6,1.4c-0.4,0.4-0.9,0.5-1.6,0.5c-0.7,0-1.2-0.2-1.6-0.6c-0.4-0.4-0.6-0.8-0.6-1.4h1.1c0,0.4,0.1,0.6,0.3,0.8
	c0.2,0.2,0.5,0.3,0.8,0.3s0.6-0.1,0.8-0.3c0.2-0.2,0.3-0.5,0.3-0.8h1.1V37.6z"/>
<path class="st2" d="M6.7,421.1h1.4v10.7H6.7v-8.2l-5.3,8.2H0v-10.7h1.4v8.2L6.7,421.1z M13.6,430.8c0.5,0,0.9-0.1,1.3-0.4
	c0.4-0.3,0.6-0.7,0.6-1.1h1.3c0,0.5-0.2,0.9-0.5,1.3c-0.3,0.4-0.7,0.7-1.1,1c-0.5,0.2-1,0.4-1.5,0.4c-1.1,0-1.9-0.4-2.6-1.1
	c-0.6-0.7-1-1.7-1-3v-0.2c0-0.8,0.1-1.5,0.4-2c0.3-0.6,0.7-1.1,1.2-1.4c0.5-0.3,1.1-0.5,1.9-0.5c0.9,0,1.6,0.3,2.2,0.8
	c0.6,0.5,0.9,1.2,0.9,2.1h-1.3c0-0.5-0.2-0.9-0.6-1.3c-0.4-0.3-0.8-0.5-1.3-0.5c-0.7,0-1.2,0.2-1.6,0.7c-0.4,0.5-0.6,1.2-0.6,2.1
	v0.3c0,0.9,0.2,1.6,0.6,2.1S12.9,430.8,13.6,430.8z M24.2,425h-2.7v6.8h-1.4V425h-2.6v-1.1h6.6L24.2,425L24.2,425z M25.1,427.8
	c0-0.8,0.1-1.5,0.5-2.1c0.3-0.6,0.7-1.1,1.3-1.4c0.5-0.3,1.2-0.5,1.9-0.5c1.1,0,2,0.4,2.6,1.1c0.7,0.8,1,1.7,1,3v0.1
	c0,0.8-0.1,1.5-0.4,2.1c-0.3,0.6-0.7,1.1-1.3,1.4c-0.6,0.3-1.2,0.5-1.9,0.5c-1.1,0-1.9-0.4-2.6-1.1
	C25.5,430.1,25.1,429.1,25.1,427.8L25.1,427.8z M26.5,427.9c0,0.9,0.2,1.6,0.6,2.1c0.4,0.5,0.9,0.8,1.6,0.8c0.7,0,1.2-0.3,1.6-0.8
	c0.4-0.5,0.6-1.3,0.6-2.3c0-0.9-0.2-1.6-0.6-2.1c-0.4-0.5-1-0.8-1.6-0.8c-0.7,0-1.2,0.3-1.6,0.8C26.7,426.2,26.5,426.9,26.5,427.9z
	 M40,431.8h-1.4v-2.9c-0.6,0.2-1.2,0.2-1.8,0.2c-1,0-1.8-0.2-2.3-0.8s-0.8-1.2-0.8-2.2v-2.4h1.4v2.4c0,1.2,0.6,1.8,1.7,1.8
	c0.6,0,1.2-0.1,1.8-0.2v-3.9H40L40,431.8L40,431.8z M48.7,431.8h-1.4v-3.4h-3.6v3.4h-1.4v-7.9h1.4v3.4h3.6v-3.4h1.4V431.8z
	 M56,423.9h1.4v7.9H56V426l-3.6,5.8H51v-7.9h1.4v5.8L56,423.9z M62,428.4h-1v3.4h-1.4v-7.9H61v3.4h0.9l2.7-3.4h1.6l-3.1,3.8l3.4,4.1
	h-1.7L62,428.4z M67.5,431.1c0-0.2,0.1-0.4,0.2-0.6c0.1-0.2,0.3-0.2,0.6-0.2s0.5,0.1,0.6,0.2c0.1,0.2,0.2,0.3,0.2,0.6
	c0,0.2-0.1,0.4-0.2,0.6c-0.1,0.1-0.4,0.2-0.6,0.2c-0.3,0-0.5-0.1-0.6-0.2C67.6,431.5,67.5,431.3,67.5,431.1z M67.6,424.6
	c0-0.2,0.1-0.4,0.2-0.6c0.1-0.2,0.4-0.2,0.6-0.2c0.3,0,0.5,0.1,0.6,0.2c0.1,0.2,0.2,0.4,0.2,0.6s-0.1,0.4-0.2,0.6
	c-0.1,0.1-0.4,0.2-0.6,0.2c-0.3,0-0.5-0.1-0.6-0.2C67.6,425,67.6,424.8,67.6,424.6z M83,428.4c-0.1,1.1-0.5,2-1.2,2.6
	s-1.6,0.9-2.8,0.9c-1.3,0-2.3-0.5-3-1.4c-0.8-0.9-1.1-2.1-1.1-3.6v-1c0-1,0.2-1.9,0.5-2.6c0.4-0.8,0.9-1.3,1.5-1.7s1.4-0.6,2.3-0.6
	c1.1,0,2,0.3,2.7,1c0.7,0.6,1.1,1.5,1.2,2.6h-1.4c-0.1-0.8-0.4-1.5-0.8-1.8s-1-0.6-1.7-0.6c-0.9,0-1.6,0.3-2.1,1s-0.8,1.6-0.8,2.8v1
	c0,1.2,0.2,2.1,0.7,2.8s1.2,1,2,1s1.4-0.2,1.8-0.5c0.4-0.3,0.7-1,0.8-1.8H83V428.4z M87.3,429.8l1.8-5.9h1.4l-3.2,9.2
	c-0.5,1.3-1.3,2-2.4,2h-0.3l-0.5-0.1v-1.1h0.4c0.5,0,0.8-0.1,1.1-0.3s0.5-0.5,0.6-1l0.3-0.8l-2.8-7.8h1.5L87.3,429.8z M91.7,430.7
	l0.5-0.6c0.5-0.7,0.8-1.7,0.9-3.1l0.1-3.2h5.1v6.8h1v3.4H98v-2.3h-5.5v2.3h-1.4v-3.4L91.7,430.7L91.7,430.7z M93.3,430.7h3.6v-5.6
	h-2.4l-0.1,1.9C94.4,428.6,94,429.8,93.3,430.7z M104.1,432c-1.1,0-1.9-0.4-2.6-1.1c-0.7-0.7-1-1.7-1-2.8v-0.2
	c0-0.8,0.2-1.5,0.5-2.1s0.7-1.1,1.3-1.5c0.5-0.3,1.1-0.5,1.8-0.5c1,0,1.8,0.3,2.4,1c0.6,0.7,0.8,1.7,0.8,2.9v0.6h-5.4
	c0,0.8,0.2,1.4,0.7,1.9s1,0.7,1.7,0.7c0.5,0,0.9-0.1,1.2-0.3s0.6-0.5,0.9-0.8l0.8,0.6C106.5,431.4,105.5,432,104.1,432z M104,424.8
	c-0.5,0-1,0.2-1.4,0.6c-0.4,0.4-0.6,1-0.7,1.7h4V427c0-0.7-0.2-1.2-0.6-1.6C105,425,104.5,424.8,104,424.8z M112.3,424.3
	c1,0,1.8,0.3,2.4,1s0.9,1.5,0.9,2.6v0.1c0,0.7-0.2,1.4-0.4,2c-0.3,0.6-0.7,1-1.2,1.4c-0.5,0.3-1.2,0.5-1.9,0.5
	c-1.1,0-1.9-0.4-2.6-1.1c-0.7-0.7-1-1.7-1-2.9v-0.7c0-1.7,0.3-3,0.9-4c0.6-1,1.5-1.6,2.7-1.8c0.7-0.1,1.1-0.3,1.4-0.4
	c0.2-0.2,0.4-0.4,0.4-0.7h1.1c0,0.6-0.1,1.1-0.4,1.4c-0.3,0.3-0.7,0.6-1.3,0.7l-1,0.2c-0.8,0.2-1.4,0.5-1.8,1
	c-0.4,0.4-0.7,1-0.8,1.8C110.4,424.7,111.2,424.3,112.3,424.3z M112,425.4c-0.7,0-1.2,0.2-1.6,0.7c-0.4,0.5-0.6,1.1-0.6,1.9v0.1
	c0,0.9,0.2,1.5,0.6,2c0.4,0.5,0.9,0.8,1.6,0.8s1.2-0.2,1.6-0.8s0.6-1.2,0.6-2.2c0-0.8-0.2-1.3-0.6-1.8
	C113.2,425.7,112.7,425.4,112,425.4z M123.6,431.8h-1.4v-3.4h-3.6v3.4h-1.4v-7.9h1.4v3.4h3.6v-3.4h1.4V431.8z M127.2,426.6h2.1
	c0.9,0,1.6,0.2,2.1,0.7s0.8,1.1,0.8,1.9s-0.3,1.4-0.8,1.9s-1.3,0.7-2.2,0.7h-3.4v-7.9h1.4V426.6z M135,431.8h-1.4v-7.9h1.4V431.8z
	 M127.2,427.7v3h2c0.5,0,0.9-0.1,1.2-0.4c0.3-0.3,0.4-0.6,0.4-1.1c0-0.4-0.1-0.8-0.4-1.1s-0.6-0.4-1.1-0.4H127.2z M142.5,423.9h1.4
	v7.9h-1.4V426l-3.7,5.8h-1.4v-7.9h1.4v5.8L142.5,423.9z M142.9,421c0,0.6-0.2,1.1-0.6,1.4c-0.4,0.4-0.9,0.5-1.6,0.5
	s-1.2-0.2-1.6-0.5c-0.4-0.4-0.6-0.8-0.6-1.4h1.1c0,0.3,0.1,0.6,0.3,0.8c0.2,0.2,0.5,0.3,0.8,0.3s0.6-0.1,0.8-0.3
	c0.2-0.2,0.3-0.5,0.3-0.8H142.9z M149.7,430.7l0.5-0.6c0.5-0.7,0.8-1.7,0.9-3.1l0.1-3.2h5.1v6.8h1v3.4H156v-2.3h-5.5v2.3h-1.3v-3.4
	L149.7,430.7L149.7,430.7z M151.3,430.7h3.6v-5.6h-2.4l-0.1,1.9C152.3,428.6,152,429.8,151.3,430.7z M162.1,432
	c-1.1,0-2-0.4-2.6-1.1c-0.7-0.7-1-1.7-1-2.8v-0.2c0-0.8,0.1-1.5,0.4-2.1s0.7-1.1,1.3-1.5c0.5-0.3,1.1-0.5,1.8-0.5c1,0,1.8,0.3,2.4,1
	s0.9,1.7,0.9,2.9v0.6h-5.4c0,0.8,0.2,1.4,0.7,1.9c0.4,0.5,1,0.7,1.7,0.7c0.5,0,0.9-0.1,1.2-0.3c0.3-0.2,0.6-0.5,0.9-0.8l0.8,0.6
	C164.4,431.4,163.4,432,162.1,432z M161.9,424.8c-0.5,0-1,0.2-1.4,0.6c-0.4,0.4-0.6,1-0.7,1.7h4V427c0-0.7-0.2-1.2-0.6-1.6
	C163,425,162.5,424.8,161.9,424.8z M173.2,431.8h-1.4V425h-3.6v6.8h-1.4v-7.9h6.4V431.8z M180.3,431.8c-0.1-0.2-0.1-0.4-0.2-0.8
	c-0.6,0.7-1.4,1-2.3,1c-0.8,0-1.4-0.2-1.9-0.7c-0.5-0.4-0.8-1-0.8-1.7c0-0.8,0.3-1.5,0.9-1.9s1.5-0.7,2.6-0.7h1.3v-0.6
	c0-0.5-0.1-0.8-0.4-1.1s-0.7-0.4-1.2-0.4s-0.9,0.1-1.2,0.4c-0.3,0.2-0.5,0.5-0.5,0.9h-1.4c0-0.4,0.1-0.8,0.4-1.1
	c0.3-0.4,0.7-0.7,1.1-0.9c0.5-0.2,1-0.3,1.6-0.3c0.9,0,1.6,0.2,2.1,0.7s0.8,1.1,0.8,1.9v3.7c0,0.7,0.1,1.3,0.3,1.7v0.1h-1.2V431.8z
	 M178.1,430.8c0.4,0,0.8-0.1,1.2-0.3c0.4-0.2,0.6-0.5,0.8-0.9V428H179c-1.7,0-2.5,0.5-2.5,1.5c0,0.4,0.1,0.8,0.4,1
	C177.2,430.7,177.6,430.8,178.1,430.8z M190.3,427.9c0,1.2-0.3,2.2-0.8,2.9s-1.3,1.1-2.2,1.1c-1,0-1.7-0.3-2.3-0.9v3.8h-1.4v-11h1.2
	l0.1,0.9c0.5-0.7,1.3-1,2.3-1s1.7,0.4,2.3,1.1c0.5,0.7,0.8,1.7,0.8,3V427.9z M188.9,427.8c0-0.9-0.2-1.6-0.6-2.1s-0.9-0.8-1.6-0.8
	c-0.8,0-1.4,0.4-1.8,1.1v3.8c0.4,0.7,1,1.1,1.9,1.1c0.7,0,1.2-0.3,1.6-0.8C188.7,429.5,188.9,428.8,188.9,427.8z M197.9,425h-2.7
	v6.8h-1.4V425h-2.6v-1.1h6.6v1.1H197.9z M204.1,431.8c-0.1-0.2-0.1-0.4-0.2-0.8c-0.6,0.7-1.4,1-2.3,1c-0.8,0-1.4-0.2-1.9-0.7
	c-0.5-0.4-0.8-1-0.8-1.7c0-0.8,0.3-1.5,0.9-1.9c0.6-0.5,1.5-0.7,2.6-0.7h1.3v-0.6c0-0.5-0.1-0.8-0.4-1.1s-0.7-0.4-1.2-0.4
	s-0.9,0.1-1.2,0.4c-0.3,0.2-0.5,0.5-0.5,0.9H199c0-0.4,0.1-0.8,0.4-1.1c0.3-0.4,0.7-0.7,1.1-0.9c0.5-0.2,1-0.3,1.6-0.3
	c0.9,0,1.6,0.2,2.1,0.7s0.8,1.1,0.8,1.9v3.7c0,0.7,0.1,1.3,0.3,1.7v0.1h-1.2V431.8z M201.8,430.8c0.4,0,0.8-0.1,1.2-0.3
	s0.7-0.5,0.8-0.9V428h-1.1c-1.7,0-2.5,0.5-2.5,1.5c0,0.4,0.1,0.8,0.4,1C201,430.7,201.4,430.8,201.8,430.8z M211.9,430l2.7-6.1h1.7
	v7.9H215V426l-2.6,5.8h-0.9l-2.6-5.9v5.9h-1.4v-7.9h1.8L211.9,430z M221.8,432c-1.1,0-2-0.4-2.6-1.1c-0.7-0.7-1-1.7-1-2.8v-0.2
	c0-0.8,0.1-1.5,0.4-2.1s0.7-1.1,1.3-1.5s1.1-0.5,1.8-0.5c1,0,1.8,0.3,2.4,1s0.9,1.7,0.9,2.9v0.6h-5.4c0,0.8,0.2,1.4,0.7,1.9
	c0.4,0.5,1,0.7,1.7,0.7c0.5,0,0.9-0.1,1.2-0.3c0.3-0.2,0.6-0.5,0.9-0.8l0.8,0.6C224.1,431.4,223.1,432,221.8,432z M221.6,424.8
	c-0.6,0-1,0.2-1.4,0.6c-0.4,0.4-0.6,1-0.7,1.7h4V427c0-0.7-0.2-1.2-0.6-1.6C222.6,425,222.2,424.8,221.6,424.8z M232.9,431.8h-1.4
	v-3.4h-3.6v3.4h-1.4v-7.9h1.4v3.4h3.6v-3.4h1.4V431.8z M241,425h-2.7v6.8H237V425h-2.6v-1.1h6.6V425z M252.5,431.8h-1.4V425h-3.6
	v6.8h-1.4v-7.9h6.4V431.8z M261.4,427.9c0,1.2-0.3,2.2-0.8,2.9s-1.3,1.1-2.2,1.1c-1,0-1.7-0.3-2.3-0.9v3.8h-1.4v-11h1.2l0.1,0.9
	c0.6-0.7,1.3-1,2.3-1c0.9,0,1.7,0.4,2.3,1.1c0.6,0.7,0.8,1.7,0.8,3V427.9z M260,427.8c0-0.9-0.2-1.6-0.6-2.1s-0.9-0.8-1.6-0.8
	c-0.8,0-1.4,0.4-1.8,1.1v3.8c0.4,0.7,1,1.1,1.9,1.1c0.6,0,1.2-0.3,1.5-0.8C259.8,429.5,260,428.8,260,427.8z M268.2,423.9h1.3v7.9
	h-1.3V426l-3.7,5.8h-1.4v-7.9h1.4v5.8L268.2,423.9z M275.6,431.8v-10.7h3.5c1.2,0,2,0.2,2.6,0.7s0.9,1.2,0.9,2.1
	c0,0.5-0.1,0.9-0.4,1.3c-0.3,0.4-0.7,0.7-1.2,0.9c0.6,0.2,1,0.5,1.4,0.9c0.3,0.5,0.5,1,0.5,1.6c0,1-0.3,1.7-0.9,2.3
	s-1.5,0.8-2.6,0.8h-3.8V431.8z M277.1,426.8v3.8h2.3c0.7,0,1.2-0.2,1.5-0.5c0.4-0.3,0.6-0.8,0.6-1.4c0-1.3-0.7-1.9-2.1-1.9
	L277.1,426.8L277.1,426.8z M277.1,425.7h2.1c0.6,0,1.1-0.1,1.5-0.5c0.4-0.3,0.5-0.7,0.5-1.2c0-0.6-0.2-1-0.5-1.3s-0.9-0.4-1.6-0.4
	H277v3.4H277.1z M292.8,428.4c-0.1,1.1-0.5,2-1.2,2.6s-1.6,0.9-2.8,0.9c-1.3,0-2.3-0.5-3-1.4c-0.8-0.9-1.1-2.1-1.1-3.6v-1
	c0-1,0.2-1.9,0.5-2.6c0.4-0.8,0.9-1.3,1.5-1.7s1.4-0.6,2.3-0.6c1.1,0,2,0.3,2.7,1c0.7,0.6,1.1,1.5,1.2,2.6h-1.4
	c-0.1-0.8-0.4-1.5-0.8-1.8s-1-0.6-1.7-0.6c-0.9,0-1.6,0.3-2.1,1s-0.8,1.6-0.8,2.8v1c0,1.2,0.2,2.1,0.7,2.8s1.1,1,2,1
	c0.8,0,1.4-0.2,1.8-0.5s0.7-1,0.8-1.8h1.4V428.4z M299.9,427.6v4.2h-1.4v-10.7h3.9c1.2,0,2.1,0.3,2.8,0.9c0.7,0.6,1,1.4,1,2.4
	s-0.3,1.8-1,2.4c-0.6,0.5-1.6,0.8-2.8,0.8L299.9,427.6L299.9,427.6z M299.9,426.5h2.5c0.8,0,1.3-0.2,1.7-0.5
	c0.4-0.4,0.6-0.9,0.6-1.5s-0.2-1.1-0.6-1.5s-1-0.6-1.6-0.6h-2.6V426.5z M313.2,422.2h0.2c0.8,0,1.5,0.2,2.2,0.6s1.2,0.9,1.5,1.5
	c0.4,0.7,0.6,1.4,0.6,2.2s-0.2,1.5-0.6,2.2s-0.9,1.2-1.5,1.5c-0.7,0.4-1.4,0.5-2.2,0.6h-0.2v1.4h-1.4v-1.4h-0.2
	c-0.8,0-1.6-0.2-2.2-0.5c-0.7-0.4-1.2-0.9-1.6-1.5c-0.4-0.7-0.6-1.4-0.6-2.2s0.2-1.5,0.6-2.2c0.4-0.6,0.9-1.2,1.6-1.5
	c0.7-0.4,1.4-0.6,2.2-0.6h0.2v-1.5h1.4V422.2z M311.6,423.3c-0.9,0-1.6,0.3-2.2,0.9c-0.5,0.6-0.8,1.3-0.8,2.3s0.3,1.8,0.8,2.3
	c0.5,0.6,1.3,0.8,2.2,0.8h0.2v-6.4h-0.2V423.3z M313.2,423.3v6.4h0.2c0.9,0,1.7-0.3,2.2-0.9c0.5-0.6,0.8-1.4,0.8-2.3
	c0-1-0.3-1.8-0.8-2.3c-0.5-0.6-1.3-0.9-2.2-0.9H313.2z"/>
<g>
	<path class="st2" d="M542.2,426.5c0.5,0,0.8-0.1,1-0.4c0.2-0.3,0.3-0.6,0.3-1.1v-2.3c0-0.5,0.1-0.9,0.2-1.2
		c0.1-0.4,0.3-0.6,0.6-0.9c0.3-0.2,0.6-0.4,1.1-0.6c0.4-0.1,1-0.2,1.6-0.2h0.3v1.8h-0.4c-0.5,0-0.8,0.1-1,0.3s-0.2,0.5-0.2,1v2.1
		c0,0.5-0.1,1-0.2,1.4c-0.1,0.4-0.4,0.7-0.9,1c0.4,0.3,0.7,0.6,0.9,1s0.2,0.8,0.2,1.4v2.1c0,0.4,0.1,0.8,0.2,1
		c0.2,0.2,0.5,0.3,1,0.3h0.4v1.9H547c-0.7,0-1.2-0.1-1.6-0.2c-0.4-0.1-0.8-0.3-1.1-0.5s-0.5-0.5-0.6-0.9s-0.2-0.8-0.2-1.2v-2.4
		c0-0.4-0.1-0.8-0.3-1.1s-0.5-0.4-1-0.4L542.2,426.5L542.2,426.5z"/>
	<path class="st2" d="M558.9,421.3h2.4l-0.1,13.7h-2.4l0.1-7.5h-4.1v4.6h-2.4v-10.8h2.4v4.1h4.1V421.3L558.9,421.3z"/>
	<path class="st2" d="M571.4,428c0,0.6-0.1,1.2-0.3,1.8c-0.2,0.5-0.5,1-0.8,1.4c-0.4,0.4-0.8,0.7-1.3,0.9s-1,0.3-1.7,0.3
		c-0.6,0-1.1-0.1-1.6-0.3s-0.9-0.5-1.3-0.9c-0.4-0.4-0.6-0.8-0.8-1.4c-0.2-0.5-0.3-1.1-0.3-1.8s0.1-1.2,0.3-1.8
		c0.2-0.5,0.5-1,0.8-1.4c0.4-0.4,0.8-0.7,1.3-0.9s1-0.3,1.6-0.3s1.1,0.1,1.6,0.3s0.9,0.5,1.3,0.9c0.4,0.4,0.6,0.8,0.8,1.4
		C571.3,426.8,571.4,427.3,571.4,428z M569,428c0-0.7-0.1-1.3-0.4-1.7c-0.3-0.4-0.7-0.6-1.2-0.6s-0.9,0.2-1.2,0.6
		c-0.3,0.4-0.4,1-0.4,1.7s0.2,1.3,0.4,1.7c0.3,0.4,0.7,0.6,1.2,0.6s0.9-0.2,1.2-0.6C568.8,429.3,569,428.7,569,428z"/>
	<path class="st2" d="M576.7,432.3c-0.3,0-0.6,0-0.9,0c-0.3,0-0.7-0.1-1-0.1s-0.6-0.1-0.9-0.1c-0.3,0-0.5-0.1-0.7-0.1v-7.9
		c0.2,0,0.4-0.1,0.7-0.1s0.6-0.1,0.9-0.1c0.3,0,0.7-0.1,1-0.1s0.6,0,0.9,0c0.7,0,1.2,0.1,1.7,0.2c0.5,0.1,0.8,0.3,1.1,0.5
		s0.5,0.5,0.6,0.7c0.1,0.3,0.2,0.5,0.2,0.8c0,0.4-0.1,0.7-0.3,1s-0.4,0.5-0.7,0.7c0.1,0.1,0.3,0.1,0.4,0.3c0.2,0.1,0.3,0.2,0.4,0.4
		c0.1,0.2,0.2,0.3,0.3,0.6c0.1,0.2,0.1,0.5,0.1,0.8s-0.1,0.7-0.2,1c-0.1,0.3-0.3,0.6-0.7,0.8c-0.3,0.2-0.7,0.4-1.2,0.6
		C578.1,432.2,577.5,432.3,576.7,432.3z M576.8,427.1c0.4,0,0.7,0,0.9-0.2c0.2-0.1,0.4-0.3,0.4-0.6s-0.1-0.5-0.4-0.6
		c-0.3-0.1-0.6-0.2-1.1-0.2c-0.1,0-0.3,0-0.6,0c-0.2,0-0.4,0-0.6,0.1v1.5H576.8L576.8,427.1z M575.5,430.4c0.1,0,0.3,0,0.6,0
		c0.2,0,0.5,0,0.7,0c0.5,0,0.9-0.1,1.2-0.2c0.3-0.1,0.4-0.4,0.4-0.7s-0.1-0.6-0.4-0.7c-0.3-0.1-0.7-0.2-1.2-0.2h-1.4v1.8H575.5z"/>
	<path class="st2" d="M585.4,423.7c0.7,0,1.3,0.1,1.7,0.2c0.5,0.2,0.8,0.4,1.1,0.7s0.5,0.6,0.6,1.1c0.1,0.4,0.2,0.9,0.2,1.4v4.8
		c-0.3,0.1-0.8,0.2-1.4,0.2c-0.6,0.1-1.3,0.2-2.1,0.2c-0.5,0-1,0-1.4-0.1s-0.8-0.2-1.1-0.5c-0.3-0.2-0.6-0.5-0.7-0.8
		c-0.2-0.3-0.2-0.8-0.2-1.3s0.1-0.9,0.3-1.2s0.5-0.6,0.8-0.8s0.7-0.3,1.1-0.4c0.4-0.1,0.9-0.1,1.3-0.1c0.3,0,0.6,0,0.8,0
		s0.4,0.1,0.6,0.1V427c0-0.4-0.1-0.7-0.4-1s-0.7-0.3-1.2-0.3c-0.4,0-0.8,0-1.2,0.1s-0.7,0.1-1,0.2l-0.3-1.9c0.1,0,0.3-0.1,0.5-0.1
		s0.4-0.1,0.7-0.1c0.2,0,0.5-0.1,0.8-0.1C584.9,423.7,585.2,423.7,585.4,423.7z M585.6,430.5c0.2,0,0.4,0,0.7,0c0.2,0,0.4,0,0.5,0
		v-1.8c-0.1,0-0.2,0-0.4-0.1c-0.2,0-0.4,0-0.5,0c-0.2,0-0.4,0-0.6,0c-0.2,0-0.4,0.1-0.5,0.2c-0.2,0.1-0.3,0.2-0.4,0.3
		c-0.1,0.1-0.1,0.3-0.1,0.5c0,0.4,0.1,0.6,0.4,0.8C584.8,430.4,585.2,430.5,585.6,430.5z"/>
	<path class="st2" d="M594.5,429.2c-0.3,0.5-0.6,1-0.9,1.5c-0.3,0.5-0.5,1-0.8,1.4h-2.4c0.3-0.7,0.6-1.3,0.9-1.8s0.6-1,0.9-1.5
		c-0.4-0.2-0.8-0.5-1-0.9c-0.3-0.4-0.4-0.8-0.4-1.3c0-0.9,0.3-1.6,1-2.1s1.6-0.7,2.7-0.7c0.3,0,0.5,0,0.9,0c0.3,0,0.6,0.1,0.9,0.1
		c0.3,0,0.6,0.1,0.9,0.1c0.3,0,0.5,0.1,0.7,0.2v8h-2.3v-2.9L594.5,429.2L594.5,429.2z M595.7,425.6c-0.1,0-0.3,0-0.5,0s-0.4,0-0.6,0
		c-0.6,0-1,0.1-1.2,0.3s-0.3,0.4-0.3,0.7c0,0.2,0,0.4,0.1,0.5s0.2,0.2,0.3,0.3s0.3,0.1,0.5,0.2c0.2,0,0.3,0,0.5,0h1.1v-2H595.7z"/>
	<path class="st2" d="M606.2,425.3c0,0.5-0.2,0.8-0.4,1.1c-0.3,0.2-0.6,0.4-1,0.4s-0.7-0.1-1-0.4c-0.3-0.2-0.5-0.6-0.5-1.1
		s0.2-0.8,0.5-1.1c0.3-0.2,0.6-0.4,1-0.4s0.7,0.1,1,0.4C606.1,424.5,606.2,424.9,606.2,425.3z M606.2,430.9c0,0.5-0.2,0.8-0.4,1.1
		c-0.3,0.2-0.6,0.4-1,0.4s-0.7-0.1-1-0.4c-0.3-0.2-0.5-0.6-0.5-1.1s0.2-0.8,0.5-1.1c0.3-0.2,0.6-0.4,1-0.4s0.7,0.1,1,0.4
		C606.1,430.1,606.2,430.4,606.2,430.9z"/>
	<path class="st2" d="M610.7,430h1.6c0.4-0.7,0.7-1.3,0.9-2s0.4-1.3,0.5-2s0.2-1.4,0.2-2.1c0-0.7,0-1.5,0-2.3v-0.4h7.1v8.7h1.9v5
		h-2.3V432h-7.5v2.9h-2.3V430H610.7z M616.2,423.4c0,0.6-0.1,1.1-0.1,1.7c0,0.6-0.1,1.2-0.2,1.8c-0.1,0.6-0.2,1.1-0.4,1.7
		c-0.2,0.5-0.4,1.1-0.6,1.5h3.9v-6.7H616.2z"/>
	<path class="st2" d="M627.3,423.7c0.7,0,1.3,0.1,1.7,0.2c0.5,0.2,0.8,0.4,1.1,0.7s0.5,0.6,0.6,1.1c0.1,0.4,0.2,0.9,0.2,1.4v4.8
		c-0.3,0.1-0.8,0.2-1.4,0.2s-1.3,0.2-2.2,0.2c-0.5,0-1,0-1.4-0.1s-0.8-0.2-1.1-0.5c-0.3-0.2-0.5-0.5-0.7-0.8s-0.2-0.8-0.2-1.3
		s0.1-0.9,0.3-1.2s0.4-0.6,0.8-0.8c0.3-0.2,0.7-0.3,1.1-0.4c0.4-0.1,0.9-0.1,1.3-0.1c0.3,0,0.6,0,0.8,0s0.4,0.1,0.6,0.1V427
		c0-0.4-0.1-0.7-0.4-1s-0.7-0.3-1.2-0.3c-0.4,0-0.8,0-1.2,0.1s-0.7,0.1-1,0.2l-0.3-1.9c0.1,0,0.3-0.1,0.5-0.1s0.4-0.1,0.7-0.1
		c0.2,0,0.5-0.1,0.8-0.1C626.7,423.7,627,423.7,627.3,423.7z M627.5,430.5c0.2,0,0.4,0,0.7,0c0.2,0,0.4,0,0.5,0v-1.8
		c-0.1,0-0.2,0-0.4-0.1c-0.2,0-0.4,0-0.5,0c-0.2,0-0.4,0-0.6,0c-0.2,0-0.4,0.1-0.5,0.2c-0.1,0.1-0.2,0.2-0.3,0.3s-0.1,0.3-0.1,0.5
		c0,0.4,0.1,0.6,0.4,0.8C626.7,430.4,627,430.5,627.5,430.5z"/>
	<path class="st2" d="M639.7,425.8h-2.6v6.3h-2.3v-6.3h-2.6v-1.9h7.6v1.9H639.7z"/>
	<path class="st2" d="M644.1,423.7c0.7,0,1.3,0.1,1.7,0.2c0.5,0.2,0.8,0.4,1.1,0.7s0.5,0.6,0.6,1.1c0.1,0.4,0.2,0.9,0.2,1.4v4.8
		c-0.3,0.1-0.8,0.2-1.4,0.2s-1.3,0.2-2.2,0.2c-0.5,0-1,0-1.4-0.1s-0.8-0.2-1.1-0.5c-0.3-0.2-0.6-0.5-0.7-0.8
		c-0.2-0.3-0.2-0.8-0.2-1.3s0.1-0.9,0.3-1.2s0.4-0.6,0.8-0.8c0.3-0.2,0.7-0.3,1.1-0.4c0.4-0.1,0.8-0.1,1.3-0.1c0.3,0,0.6,0,0.8,0
		s0.4,0.1,0.6,0.1V427c0-0.4-0.1-0.7-0.4-1c-0.2-0.2-0.7-0.3-1.2-0.3c-0.4,0-0.8,0-1.2,0.1s-0.7,0.1-1,0.2l-0.3-1.9
		c0.1,0,0.3-0.1,0.5-0.1s0.4-0.1,0.7-0.1c0.2,0,0.5-0.1,0.8-0.1C643.5,423.7,643.8,423.7,644.1,423.7z M644.3,430.5
		c0.2,0,0.4,0,0.7,0c0.2,0,0.4,0,0.5,0v-1.8c-0.1,0-0.2,0-0.4-0.1c-0.2,0-0.4,0-0.5,0c-0.2,0-0.4,0-0.6,0c-0.2,0-0.4,0.1-0.5,0.2
		c-0.1,0.1-0.2,0.2-0.3,0.3s-0.1,0.3-0.1,0.5c0,0.4,0.1,0.6,0.4,0.8C643.5,430.4,643.8,430.5,644.3,430.5z"/>
	<path class="st2" d="M649.3,426.4h4.5v2.1h-4.5V426.4z"/>
	<path class="st2" d="M663.2,428c0,0.6-0.1,1.2-0.3,1.8c-0.2,0.5-0.5,1-0.8,1.4c-0.4,0.4-0.8,0.7-1.3,0.9s-1.1,0.3-1.7,0.3
		c-0.6,0-1.2-0.1-1.6-0.3c-0.5-0.2-0.9-0.5-1.3-0.9c-0.3-0.4-0.6-0.8-0.8-1.4c-0.2-0.5-0.3-1.1-0.3-1.8s0.1-1.2,0.3-1.8
		c0.2-0.5,0.5-1,0.8-1.4c0.4-0.4,0.8-0.7,1.3-0.9s1-0.3,1.6-0.3s1.1,0.1,1.6,0.3s0.9,0.5,1.3,0.9c0.3,0.4,0.6,0.8,0.8,1.4
		C663,426.8,663.2,427.3,663.2,428z M660.8,428c0-0.7-0.2-1.3-0.4-1.7c-0.3-0.4-0.7-0.6-1.2-0.6s-0.9,0.2-1.2,0.6
		c-0.3,0.4-0.4,1-0.4,1.7s0.1,1.3,0.4,1.7c0.3,0.4,0.7,0.6,1.2,0.6s0.9-0.2,1.2-0.6C660.6,429.3,660.8,428.7,660.8,428z"/>
	<path class="st2" d="M671.7,425.8h-2.6v6.3h-2.3v-6.3h-2.6v-1.9h7.6v1.9H671.7z"/>
	<path class="st2" d="M671.9,430.2h1c0.3-0.4,0.5-0.8,0.7-1.3s0.3-1.1,0.3-1.7c0.1-0.6,0.1-1.2,0.1-1.8s0-1.1,0-1.6h6.4v6.3h1.4v4.2
		h-2V432h-6v2.3h-2L671.9,430.2L671.9,430.2z M678.1,430.2v-4.4h-1.9c0,0.4,0,0.7-0.1,1.1c0,0.4-0.1,0.8-0.1,1.2
		c-0.1,0.4-0.2,0.8-0.3,1.1c-0.1,0.4-0.3,0.7-0.4,1L678.1,430.2L678.1,430.2z"/>
	<path class="st2" d="M682.8,428.1c0-0.7,0.1-1.4,0.3-1.9s0.5-1,0.9-1.4s0.8-0.6,1.2-0.8c0.5-0.2,1-0.3,1.5-0.3
		c1.2,0,2.1,0.4,2.8,1.1c0.7,0.7,1,1.8,1,3.1c0,0.1,0,0.3,0,0.4c0,0.2,0,0.3,0,0.4h-5.3c0.1,0.5,0.3,0.8,0.7,1.1s0.9,0.4,1.6,0.4
		c0.4,0,0.8,0,1.3-0.1c0.4-0.1,0.7-0.2,1-0.3l0.3,1.9c-0.1,0.1-0.3,0.1-0.5,0.2c-0.2,0.1-0.4,0.1-0.7,0.2c-0.2,0-0.5,0.1-0.8,0.1
		s-0.6,0-0.9,0c-0.7,0-1.4-0.1-1.9-0.3s-1-0.5-1.3-0.9s-0.6-0.8-0.8-1.3C682.9,429.2,682.8,428.7,682.8,428.1z M688.3,427.2
		c0-0.2,0-0.4-0.1-0.6c0-0.2-0.1-0.3-0.3-0.5c-0.1-0.1-0.3-0.3-0.5-0.4c-0.2-0.1-0.4-0.1-0.7-0.1s-0.5,0.1-0.7,0.1
		c-0.2,0.1-0.3,0.2-0.5,0.3c-0.1,0.1-0.2,0.3-0.3,0.5s-0.1,0.4-0.2,0.6h3.3V427.2L688.3,427.2z"/>
	<path class="st2" d="M696,425.8c0,0.3,0,0.6,0,1c0,0.3,0,0.7-0.1,1c0,0.3-0.1,0.7-0.2,1c-0.1,0.3-0.2,0.6-0.3,0.9
		c-0.1,0.3-0.3,0.6-0.5,0.9c-0.2,0.3-0.4,0.6-0.7,0.8s-0.7,0.4-1.1,0.6c-0.4,0.1-0.9,0.2-1.5,0.3l-0.3-1.9c0.5-0.1,0.9-0.3,1.2-0.5
		s0.5-0.4,0.7-0.7c0.1-0.3,0.2-0.6,0.3-0.9c0.1-0.3,0.1-0.7,0.1-1.1c0-0.4,0.1-0.8,0.1-1.2s0-0.8,0-1.1V424h6.1v8.2h-2.3v-6.3
		L696,425.8L696,425.8z"/>
	<path class="st2" d="M710,428.4c-0.5,0-0.8,0.1-1,0.4c-0.2,0.3-0.3,0.6-0.3,1.1v2.4c0,0.5-0.1,0.8-0.2,1.2
		c-0.1,0.3-0.3,0.6-0.6,0.9c-0.3,0.2-0.6,0.4-1.1,0.5s-1,0.2-1.7,0.2h-0.3v-1.9h0.4c0.5,0,0.8-0.1,0.9-0.3c0.2-0.2,0.2-0.5,0.2-1
		v-2.1c0-0.5,0.1-1,0.2-1.4c0.2-0.4,0.4-0.7,0.9-1c-0.4-0.3-0.7-0.6-0.9-1c-0.1-0.4-0.2-0.8-0.2-1.4v-2.1c0-0.4-0.1-0.8-0.2-1
		s-0.5-0.3-0.9-0.3h-0.4v-1.8h0.3c0.7,0,1.2,0.1,1.7,0.2c0.4,0.1,0.8,0.3,1.1,0.6c0.3,0.2,0.5,0.5,0.6,0.9c0.1,0.3,0.2,0.8,0.2,1.2
		v2.4c0,0.4,0.1,0.8,0.3,1.1s0.5,0.4,1,0.4V428.4z"/>
</g>
<g>
	<path class="st3" d="M294.3,240.5L294.3,240.5c0,0.6-0.1,1.1-0.1,1.7l0,0l10.5,0.8c0.1-0.6,0.1-1.2,0.1-1.9L294.3,240.5z"/>
	<path class="st4" d="M294.1,242.2c-4.8,64.4-58.5,115.1-124.1,115.1c-10.5,0-20.8-1.3-30.5-3.8l0,0l-2.6,10.1
		c10.9,2.8,22,4.1,33.1,4.1c28,0,55.7-8.7,78.9-25.4c32.3-23.3,52.7-59.6,55.8-99.4L294.1,242.2z"/>
	<path class="st5" d="M66.4,301.8l-8.7,5.8c18.6,27.9,46.8,47.9,79.3,56.1l2.6-10.1l0,0C109.1,345.9,83.2,327.2,66.4,301.8z"/>
	<path class="st6" d="M170,97.8c-40.1,0-79.1,17.9-105.3,50.5C27.9,194.2,25,258.6,57.6,307.6l8.7-5.8l0,0
		c-13.2-19.8-20.9-43.5-20.9-69c0-68.8,55.7-124.5,124.5-124.5S294.4,164,294.4,232.8c0,2.6-0.1,5.1-0.2,7.7l0,0l10.5,0.6
		c3.6-58.7-31.2-113-86-134.2C202.8,100.8,186.3,97.8,170,97.8z"/>
	<path class="st1" d="M129.4,397h-1.1v-7.6h-4.2v7.6H123v-8.5h6.5L129.4,397L129.4,397z M131,393.8c0-0.6,0.1-1.2,0.4-1.7
		c0.2-0.5,0.6-0.9,1-1.1c0.4-0.3,0.9-0.4,1.5-0.4c0.9,0,1.6,0.3,2.1,0.9c0.5,0.6,0.8,1.4,0.8,2.4v0.1c0,0.6-0.1,1.2-0.4,1.7
		c-0.2,0.5-0.6,0.9-1,1.2s-0.9,0.4-1.5,0.4c-0.9,0-1.6-0.3-2.1-0.9C131.3,395.7,131,394.9,131,393.8L131,393.8z M132.1,394
		c0,0.7,0.2,1.3,0.5,1.7s0.8,0.6,1.3,0.6s1-0.2,1.3-0.7c0.3-0.4,0.5-1,0.5-1.8c0-0.7-0.2-1.3-0.5-1.7s-0.8-0.7-1.3-0.7
		s-1,0.2-1.3,0.6C132.2,392.5,132.1,393.2,132.1,394z M141.2,397v-6.3h2.5c0.9,0,1.5,0.1,1.9,0.4c0.5,0.3,0.7,0.7,0.7,1.3
		c0,0.3-0.1,0.6-0.3,0.8c-0.2,0.2-0.4,0.4-0.8,0.5c0.4,0.1,0.7,0.3,0.9,0.5c0.2,0.3,0.4,0.6,0.4,0.9c0,0.6-0.2,1-0.6,1.3
		s-1,0.5-1.8,0.5L141.2,397L141.2,397z M142.3,394.3v1.9h1.8c0.5,0,0.8-0.1,1-0.3s0.3-0.4,0.3-0.7c0-0.6-0.5-0.9-1.4-0.9H142.3z
		 M142.3,393.4h1.4c1,0,1.5-0.3,1.5-0.9c0-0.6-0.5-0.9-1.4-0.9h-1.5V393.4z M150.5,396.3c0.4,0,0.7-0.1,1-0.4
		c0.3-0.2,0.5-0.5,0.5-0.9h1c0,0.4-0.1,0.7-0.4,1c-0.2,0.3-0.5,0.6-0.9,0.8s-0.8,0.3-1.2,0.3c-0.9,0-1.5-0.3-2.1-0.9
		c-0.5-0.6-0.8-1.4-0.8-2.4v-0.2c0-0.6,0.1-1.2,0.3-1.7c0.2-0.5,0.5-0.8,1-1.1c0.4-0.3,0.9-0.4,1.5-0.4c0.7,0,1.3,0.2,1.8,0.6
		c0.5,0.4,0.7,1,0.8,1.7h-1c0-0.4-0.2-0.8-0.5-1c-0.3-0.3-0.6-0.4-1-0.4c-0.5,0-1,0.2-1.3,0.6c-0.3,0.4-0.5,1-0.5,1.7v0.2
		c0,0.7,0.1,1.3,0.5,1.7C149.5,396.1,149.9,396.3,150.5,396.3z M156.9,397.2c-0.9,0-1.6-0.3-2.1-0.8c-0.5-0.6-0.8-1.3-0.8-2.3v-0.2
		c0-0.6,0.1-1.2,0.4-1.7c0.2-0.5,0.6-0.9,1-1.2s0.9-0.4,1.4-0.4c0.8,0,1.5,0.3,1.9,0.8c0.5,0.5,0.7,1.3,0.7,2.3v0.5H155
		c0,0.6,0.2,1.1,0.6,1.5c0.3,0.4,0.8,0.6,1.3,0.6c0.4,0,0.7-0.1,1-0.2c0.3-0.2,0.5-0.4,0.7-0.6l0.7,0.5
		C158.7,396.8,157.9,397.2,156.9,397.2z M156.7,391.5c-0.4,0-0.8,0.2-1.1,0.5c-0.3,0.3-0.5,0.8-0.5,1.3h3.2v-0.1
		c0-0.5-0.2-1-0.5-1.3C157.5,391.6,157.2,391.5,156.7,391.5z M164.2,395.6l2.2-4.9h1.4v6.3h-1.1v-4.6l-2.1,4.6h-0.8l-2.1-4.7v4.7
		h-1.1v-6.3h1.4L164.2,395.6z M175,396.3c0.4,0,0.7-0.1,1-0.4c0.3-0.2,0.5-0.5,0.5-0.9h1c0,0.4-0.1,0.7-0.4,1
		c-0.2,0.3-0.5,0.6-0.9,0.8s-0.8,0.3-1.2,0.3c-0.9,0-1.5-0.3-2.1-0.9c-0.5-0.6-0.8-1.4-0.8-2.4v-0.2c0-0.6,0.1-1.2,0.3-1.7
		c0.2-0.5,0.5-0.8,1-1.1c0.4-0.3,0.9-0.4,1.5-0.4c0.7,0,1.3,0.2,1.8,0.6c0.5,0.4,0.7,1,0.8,1.7h-1c0-0.4-0.2-0.8-0.5-1
		c-0.3-0.3-0.6-0.4-1-0.4c-0.5,0-1,0.2-1.3,0.6c-0.3,0.4-0.5,1-0.5,1.7v0.2c0,0.7,0.1,1.3,0.5,1.7C174,396.1,174.4,396.3,175,396.3z
		 M183.5,391.6h-2.1v5.5h-1.1v-5.5h-2.1v-0.9h5.3L183.5,391.6L183.5,391.6z M188.4,397c-0.1-0.1-0.1-0.3-0.1-0.7
		c-0.5,0.5-1.1,0.8-1.8,0.8c-0.6,0-1.1-0.2-1.5-0.5c-0.4-0.4-0.6-0.8-0.6-1.4c0-0.7,0.2-1.2,0.8-1.5c0.5-0.4,1.2-0.5,2.1-0.5h1.1
		v-0.5c0-0.4-0.1-0.7-0.3-0.9c-0.2-0.2-0.6-0.3-1-0.3s-0.7,0.1-1,0.3s-0.4,0.4-0.4,0.7h-1.1c0-0.3,0.1-0.6,0.3-0.9
		c0.2-0.3,0.5-0.5,0.9-0.7s0.8-0.3,1.3-0.3c0.7,0,1.3,0.2,1.7,0.6c0.4,0.4,0.6,0.9,0.6,1.5v2.9c0,0.6,0.1,1,0.2,1.4v0.1L188.4,397
		L188.4,397z M186.6,396.2c0.3,0,0.7-0.1,1-0.3s0.5-0.4,0.7-0.7v-1.3h-0.9c-1.3,0-2,0.4-2,1.2c0,0.3,0.1,0.6,0.3,0.8
		C186,396.1,186.3,396.2,186.6,396.2z M195.7,391.6h-2.1v5.5h-1.1v-5.5h-2.1v-0.9h5.3L195.7,391.6L195.7,391.6z M198,392.9h1.7
		c0.7,0,1.3,0.2,1.7,0.6c0.4,0.4,0.6,0.9,0.6,1.5s-0.2,1.1-0.7,1.5c-0.4,0.4-1,0.6-1.7,0.6h-2.7v-6.3h1.1V392.9z M198,393.8v2.4h1.6
		c0.4,0,0.7-0.1,0.9-0.3c0.2-0.2,0.3-0.5,0.3-0.9c0-0.3-0.1-0.6-0.3-0.9c-0.2-0.2-0.5-0.3-0.9-0.3H198z M208.2,390.7v6.3h-1.1v-2.5
		h-1.6L204,397h-1.2l1.6-2.6c-0.4-0.1-0.7-0.4-0.9-0.7c-0.2-0.3-0.3-0.7-0.3-1.1c0-0.6,0.2-1,0.6-1.4s1-0.5,1.7-0.5H208.2z
		 M204.2,392.7c0,0.3,0.1,0.6,0.3,0.8c0.2,0.2,0.5,0.3,0.8,0.3h1.7v-2.1h-1.6c-0.4,0-0.7,0.1-1,0.3
		C204.3,392.1,204.2,392.3,204.2,392.7z M213.5,395.6l2.2-4.9h1.3v6.3h-1v-4.6l-2.1,4.6h-0.8l-2.1-4.7v4.7h-1v-6.3h1.4L213.5,395.6z
		"/>
	<path class="st7" d="M217.2,319.6h-5.6v-0.8l2.9-3.3c0.4-0.5,0.7-0.9,0.9-1.2c0.2-0.3,0.2-0.6,0.2-1s-0.1-0.8-0.4-1.1
		s-0.6-0.4-1.1-0.4s-1,0.2-1.2,0.5c-0.3,0.3-0.5,0.7-0.5,1.3h-1.1c0-0.8,0.2-1.4,0.8-1.9c0.5-0.5,1.2-0.7,2-0.7s1.4,0.2,1.9,0.6
		c0.5,0.4,0.7,1,0.7,1.7c0,0.8-0.5,1.8-1.6,3l-2.3,2.5h4.3v0.8H217.2z M223.8,311.7l-3.5,7.9h-1.1l3.5-7.6h-4.6v-0.9h5.8
		L223.8,311.7L223.8,311.7z M225.1,321.3l-0.6-0.4c0.4-0.5,0.6-1,0.6-1.6v-1h1.1v0.9c0,0.4-0.1,0.8-0.3,1.2
		C225.7,320.7,225.4,321.1,225.1,321.3z M232.9,311.7l-3.5,7.9h-1.1l3.5-7.6h-4.6v-0.9h5.8L232.9,311.7L232.9,311.7z M238.7,316.7
		h1.2v0.9h-1.2v2h-1.1v-2h-3.9V317l3.8-5.9h1.2V316.7z M235,316.7h2.7v-4.2l-0.1,0.2L235,316.7z M240.8,312.7c0-0.5,0.2-0.9,0.5-1.3
		c0.3-0.3,0.8-0.5,1.3-0.5s0.9,0.2,1.3,0.5c0.3,0.3,0.5,0.8,0.5,1.3v0.4c0,0.5-0.2,0.9-0.5,1.3c-0.3,0.3-0.7,0.5-1.2,0.5
		s-0.9-0.2-1.3-0.5c-0.3-0.3-0.5-0.8-0.5-1.3L240.8,312.7L240.8,312.7z M241.6,313.2c0,0.3,0.1,0.5,0.3,0.8c0.2,0.2,0.4,0.3,0.7,0.3
		c0.3,0,0.5-0.1,0.7-0.3s0.3-0.5,0.3-0.8v-0.4c0-0.3-0.1-0.6-0.2-0.8c-0.2-0.2-0.4-0.3-0.7-0.3s-0.5,0.1-0.7,0.3s-0.2,0.5-0.2,0.8
		v0.4H241.6z M245,317.5c0-0.5,0.2-0.9,0.5-1.3c0.3-0.3,0.7-0.5,1.2-0.5s0.9,0.2,1.3,0.5c0.3,0.3,0.5,0.8,0.5,1.3v0.4
		c0,0.5-0.2,0.9-0.5,1.3c-0.3,0.3-0.8,0.5-1.2,0.5c-0.5,0-0.9-0.2-1.3-0.5c-0.3-0.3-0.5-0.8-0.5-1.3V317.5z M245.8,318
		c0,0.3,0.1,0.6,0.2,0.8c0.2,0.2,0.4,0.3,0.7,0.3c0.3,0,0.5-0.1,0.7-0.3s0.2-0.5,0.2-0.8v-0.5c0-0.3-0.1-0.6-0.2-0.8
		c-0.2-0.2-0.4-0.3-0.7-0.3c-0.3,0-0.5,0.1-0.7,0.3s-0.3,0.5-0.3,0.8L245.8,318L245.8,318z M242.8,319l-0.6-0.4l4.2-6.7l0.6,0.4
		L242.8,319z"/>
	<path class="st8" d="M95.8,320.1h-1.1v-7.2l-2.2,0.8v-1l3.1-1.2h0.2V320.1z M102.5,320.1h-1.1v-7.2l-2.2,0.8v-1l3.1-1.2h0.2V320.1z
		 M105.7,321.8l-0.6-0.4c0.4-0.5,0.6-1,0.6-1.6v-1h1.1v0.9c0,0.4-0.1,0.8-0.3,1.2C106.3,321.2,106,321.5,105.7,321.8z M113.5,312.2
		l-3.5,7.9h-1.1l3.5-7.6h-4.6v-0.9h5.8L113.5,312.2L113.5,312.2z M118.3,320.1h-1.1v-7.2l-2.2,0.8v-1l3.1-1.2h0.2V320.1z
		 M121.4,313.2c0-0.5,0.2-0.9,0.5-1.3c0.3-0.3,0.7-0.5,1.3-0.5s0.9,0.2,1.3,0.5c0.3,0.3,0.5,0.8,0.5,1.3v0.4c0,0.5-0.2,0.9-0.5,1.3
		c-0.3,0.3-0.7,0.5-1.2,0.5s-0.9-0.2-1.3-0.5c-0.3-0.3-0.5-0.8-0.5-1.3L121.4,313.2L121.4,313.2z M122.2,313.7
		c0,0.3,0.1,0.6,0.3,0.8c0.2,0.2,0.4,0.3,0.7,0.3c0.3,0,0.5-0.1,0.7-0.3s0.2-0.5,0.2-0.8v-0.4c0-0.3-0.1-0.6-0.2-0.8
		c-0.2-0.2-0.4-0.3-0.7-0.3s-0.5,0.1-0.7,0.3s-0.2,0.5-0.2,0.8L122.2,313.7L122.2,313.7z M125.5,318c0-0.5,0.2-0.9,0.5-1.3
		c0.3-0.3,0.8-0.5,1.3-0.5s0.9,0.2,1.3,0.5c0.3,0.3,0.5,0.8,0.5,1.3v0.4c0,0.5-0.2,0.9-0.5,1.3c-0.3,0.3-0.7,0.5-1.2,0.5
		s-0.9-0.2-1.3-0.5c-0.3-0.3-0.5-0.8-0.5-1.3L125.5,318L125.5,318z M126.4,318.5c0,0.3,0.1,0.6,0.3,0.8c0.2,0.2,0.4,0.3,0.7,0.3
		c0.3,0,0.5-0.1,0.7-0.3s0.2-0.4,0.2-0.8v-0.4c0-0.3-0.1-0.6-0.3-0.8c-0.2-0.2-0.4-0.3-0.7-0.3c-0.3,0-0.5,0.1-0.7,0.3
		s-0.3,0.5-0.3,0.8L126.4,318.5L126.4,318.5z M123.4,319.5l-0.6-0.4l4.2-6.7l0.6,0.4L123.4,319.5z"/>
	<path d="M129.1,128.7v0.9h-0.2c-0.8,0-1.5,0.3-2,0.8s-0.8,1.2-0.9,2c0.5-0.5,1.1-0.8,1.8-0.8c0.7,0,1.3,0.3,1.8,0.8
		c0.4,0.5,0.7,1.2,0.7,2c0,0.9-0.2,1.6-0.7,2.1s-1.1,0.8-1.9,0.8s-1.5-0.3-2-0.9s-0.8-1.4-0.8-2.4v-0.4c0-1.6,0.3-2.8,1-3.6
		c0.7-0.8,1.7-1.3,3-1.3H129.1z M127.7,132.5c-0.4,0-0.7,0.1-1,0.3c-0.3,0.2-0.5,0.5-0.6,0.8v0.4c0,0.7,0.2,1.3,0.5,1.7
		c0.3,0.4,0.7,0.6,1.2,0.6s0.9-0.2,1.1-0.5c0.3-0.4,0.4-0.8,0.4-1.4s-0.1-1.1-0.4-1.4C128.5,132.7,128.2,132.5,127.7,132.5z
		 M137,133.6c0,1.3-0.2,2.2-0.6,2.8c-0.4,0.6-1.1,0.9-2,0.9s-1.6-0.3-2-0.9s-0.7-1.5-0.7-2.7v-1.5c0-1.2,0.2-2.2,0.6-2.8
		c0.4-0.6,1.1-0.9,2-0.9s1.6,0.3,2,0.9s0.7,1.5,0.7,2.7V133.6z M135.9,132.1c0-0.9-0.1-1.6-0.4-2s-0.7-0.6-1.2-0.6
		c-0.6,0-1,0.2-1.2,0.6c-0.3,0.4-0.4,1.1-0.4,1.9v1.7c0,0.9,0.1,1.6,0.4,2.1c0.3,0.4,0.7,0.6,1.2,0.6s0.9-0.2,1.2-0.6
		c0.3-0.4,0.4-1.1,0.4-2V132.1z M138.4,138.9l-0.6-0.4c0.4-0.5,0.6-1,0.6-1.6v-1h1.1v0.9c0,0.4-0.1,0.8-0.3,1.2
		C139,138.4,138.7,138.7,138.4,138.9z M142.3,132.5h0.8c0.5,0,0.9-0.1,1.2-0.4c0.3-0.3,0.4-0.6,0.4-1.1c0-1-0.5-1.5-1.5-1.5
		c-0.5,0-0.8,0.1-1.1,0.4c-0.3,0.3-0.4,0.6-0.4,1.1h-1.1c0-0.7,0.2-1.2,0.7-1.7c0.5-0.4,1.1-0.7,1.9-0.7s1.4,0.2,1.9,0.6
		s0.7,1,0.7,1.8c0,0.4-0.1,0.7-0.4,1.1c-0.2,0.3-0.6,0.6-1,0.8c0.5,0.1,0.8,0.4,1.1,0.7c0.2,0.4,0.4,0.8,0.4,1.3
		c0,0.8-0.2,1.4-0.8,1.8c-0.5,0.4-1.2,0.7-2,0.7s-1.5-0.2-2-0.6s-0.8-1-0.8-1.7h1.1c0,0.5,0.1,0.8,0.4,1.1c0.3,0.3,0.7,0.4,1.2,0.4
		s0.9-0.1,1.2-0.4c0.3-0.3,0.4-0.7,0.4-1.2s-0.2-0.9-0.5-1.2c-0.3-0.3-0.7-0.4-1.3-0.4H142v-0.9H142.3z M149,132.5h0.8
		c0.5,0,0.9-0.1,1.2-0.4c0.3-0.3,0.4-0.6,0.4-1.1c0-1-0.5-1.5-1.5-1.5c-0.5,0-0.8,0.1-1.1,0.4c-0.3,0.3-0.4,0.6-0.4,1.1h-1.1
		c0-0.7,0.2-1.2,0.7-1.7c0.5-0.4,1.1-0.7,1.9-0.7s1.4,0.2,1.9,0.6s0.7,1,0.7,1.8c0,0.4-0.1,0.7-0.4,1.1c-0.2,0.3-0.6,0.6-1,0.8
		c0.5,0.1,0.8,0.4,1.1,0.7c0.2,0.4,0.4,0.8,0.4,1.3c0,0.8-0.2,1.4-0.8,1.8c-0.5,0.4-1.2,0.7-2,0.7s-1.5-0.2-2-0.6s-0.8-1-0.8-1.7
		h1.1c0,0.5,0.1,0.8,0.4,1.1c0.3,0.3,0.7,0.4,1.2,0.4s0.9-0.1,1.2-0.4c0.3-0.3,0.4-0.7,0.4-1.2s-0.2-0.9-0.5-1.2
		c-0.3-0.3-0.8-0.4-1.3-0.4H149V132.5z M154.1,130.4c0-0.5,0.2-0.9,0.5-1.3c0.3-0.3,0.8-0.5,1.3-0.5s0.9,0.2,1.3,0.5
		c0.3,0.3,0.5,0.8,0.5,1.3v0.4c0,0.5-0.2,0.9-0.5,1.3c-0.3,0.3-0.7,0.5-1.2,0.5s-0.9-0.2-1.3-0.5c-0.3-0.3-0.5-0.8-0.5-1.3
		L154.1,130.4L154.1,130.4z M154.9,130.8c0,0.3,0.1,0.6,0.3,0.8c0.2,0.2,0.4,0.3,0.7,0.3c0.3,0,0.5-0.1,0.7-0.3
		c0.2-0.2,0.3-0.5,0.3-0.8v-0.4c0-0.3-0.1-0.6-0.2-0.8c-0.2-0.2-0.4-0.3-0.7-0.3s-0.5,0.1-0.7,0.3c-0.2,0.2-0.2,0.4-0.2,0.8v0.4
		H154.9z M158.2,135.1c0-0.5,0.2-0.9,0.5-1.3c0.3-0.3,0.7-0.5,1.2-0.5s0.9,0.2,1.3,0.5c0.3,0.3,0.5,0.8,0.5,1.3v0.4
		c0,0.5-0.2,0.9-0.5,1.3c-0.3,0.3-0.8,0.5-1.2,0.5c-0.5,0-0.9-0.2-1.3-0.5c-0.3-0.3-0.5-0.8-0.5-1.3V135.1z M159.1,135.6
		c0,0.3,0.1,0.6,0.2,0.8c0.2,0.2,0.4,0.3,0.7,0.3c0.3,0,0.5-0.1,0.7-0.3c0.2-0.2,0.2-0.5,0.2-0.8v-0.4c0-0.3-0.1-0.6-0.2-0.8
		c-0.2-0.2-0.4-0.3-0.7-0.3c-0.3,0-0.5,0.1-0.7,0.3c-0.2,0.2-0.3,0.5-0.3,0.8L159.1,135.6L159.1,135.6z M156.1,136.6l-0.6-0.4
		l4.2-6.7l0.6,0.4L156.1,136.6z"/>
</g>
<g>
	<path class="st9" d="M664.5,232.8c0,5.8-0.4,11.5-1.2,17.1l0,0l10.4,1.4c0.8-6.1,1.3-12.3,1.3-18.5H664.5z"/>
	<path class="st7" d="M663.3,249.9C655,310.6,603,357.3,540,357.3c-54,0-100-34.4-117.3-82.6l0,0l-9.8,3.5
		c19.3,54.1,70.6,89.5,127,89.5c4.6,0,9.3-0.2,14-0.7c61.8-6.4,111.3-54.2,119.8-115.8L663.3,249.9z"/>
	<path class="st8" d="M540,97.8c-35.1,0-69.6,13.7-95.3,39.4c-37,36.9-49.4,91.9-31.8,141.1l9.8-3.5l0,0
		c-4.7-13.1-7.2-27.2-7.2-41.9c0-68.8,55.7-124.5,124.5-124.5c14.9,0,29.1,2.6,42.3,7.4l0,0l3.6-9.8
		C570.9,100.4,555.4,97.8,540,97.8z"/>
	<path d="M585.9,105.8l-3.6,9.8l0,0c47.9,17.3,82.2,63.2,82.2,117.1H675C675,175.9,639.4,125.2,585.9,105.8z"/>
	<path class="st1" d="M513.1,396.3c0.4,0,0.7-0.1,1-0.3s0.5-0.5,0.5-0.9h1c0,0.4-0.1,0.7-0.4,1c-0.2,0.3-0.5,0.6-0.9,0.8
		s-0.8,0.3-1.2,0.3c-0.9,0-1.5-0.3-2.1-0.9s-0.8-1.4-0.8-2.4v-0.2c0-0.6,0.1-1.2,0.3-1.6c0.2-0.5,0.5-0.9,1-1.1
		c0.4-0.3,0.9-0.4,1.5-0.4c0.7,0,1.3,0.2,1.8,0.6c0.5,0.4,0.7,1,0.8,1.7h-1c0-0.4-0.2-0.8-0.5-1c-0.3-0.3-0.6-0.4-1-0.4
		c-0.5,0-1,0.2-1.3,0.6c-0.3,0.4-0.5,1-0.5,1.7v0.2c0,0.7,0.2,1.3,0.5,1.7C512.1,396.1,512.5,396.3,513.1,396.3z M521.6,391.6h-2.1
		v5.5h-1.1v-5.5h-2.1v-0.9h5.3L521.6,391.6L521.6,391.6z M522.6,396.5c0-0.2,0-0.3,0.2-0.5c0.1-0.1,0.3-0.2,0.5-0.2s0.4,0.1,0.5,0.2
		c0.1,0.1,0.2,0.3,0.2,0.5s-0.1,0.3-0.2,0.5c-0.1,0.1-0.3,0.2-0.5,0.2s-0.4-0.1-0.5-0.2C522.7,396.8,522.6,396.7,522.6,396.5z
		 M534.2,397.1h-5.6v-0.8l3-3.3c0.4-0.5,0.7-0.9,0.9-1.2s0.2-0.6,0.2-1s-0.1-0.8-0.4-1.1c-0.3-0.3-0.6-0.4-1.1-0.4s-1,0.1-1.3,0.5
		c-0.3,0.3-0.5,0.7-0.5,1.3h-1.1c0-0.8,0.2-1.4,0.8-1.9c0.5-0.5,1.2-0.7,2-0.7s1.4,0.2,1.9,0.6c0.5,0.4,0.7,1,0.7,1.7
		c0,0.8-0.5,1.8-1.6,3l-2.3,2.5h4.3L534.2,397.1L534.2,397.1z M540.5,390.8c0,0.4-0.1,0.8-0.3,1.1s-0.5,0.6-0.9,0.8
		c0.4,0.2,0.8,0.5,1,0.8c0.3,0.4,0.4,0.8,0.4,1.2c0,0.7-0.2,1.3-0.7,1.8c-0.5,0.4-1.2,0.7-2,0.7s-1.5-0.2-2-0.7
		c-0.5-0.4-0.7-1-0.7-1.8c0-0.5,0.1-0.9,0.4-1.2c0.2-0.4,0.6-0.7,1-0.9c-0.4-0.2-0.7-0.5-0.9-0.8s-0.3-0.7-0.3-1.1
		c0-0.7,0.2-1.3,0.7-1.7s1.1-0.6,1.8-0.6s1.4,0.2,1.8,0.6C540.3,389.5,540.5,390,540.5,390.8z M539.7,394.7c0-0.5-0.2-0.9-0.5-1.2
		s-0.7-0.5-1.2-0.5s-0.9,0.2-1.2,0.5s-0.4,0.7-0.4,1.2s0.1,0.9,0.4,1.1c0.3,0.3,0.7,0.4,1.2,0.4s0.9-0.1,1.2-0.4
		C539.5,395.6,539.7,395.2,539.7,394.7z M538,389.3c-0.4,0-0.8,0.1-1,0.4c-0.3,0.3-0.4,0.6-0.4,1.1c0,0.4,0.1,0.8,0.4,1
		c0.3,0.3,0.6,0.4,1,0.4s0.8-0.1,1-0.4c0.3-0.3,0.4-0.6,0.4-1s-0.1-0.8-0.4-1.1C538.8,389.5,538.4,389.3,538,389.3z M546.4,388.5
		v0.9h-0.2c-0.8,0-1.5,0.3-2,0.8s-0.8,1.2-0.9,2c0.4-0.5,1.1-0.8,1.8-0.8s1.3,0.3,1.8,0.8c0.4,0.5,0.7,1.2,0.7,2
		c0,0.9-0.2,1.6-0.7,2.1s-1.1,0.8-1.9,0.8c-0.8,0-1.5-0.3-2-0.9c-0.5-0.6-0.8-1.4-0.8-2.4v-0.4c0-1.6,0.3-2.8,1-3.6s1.7-1.2,3-1.3
		L546.4,388.5L546.4,388.5z M544.9,392.4c-0.4,0-0.7,0.1-1,0.3s-0.5,0.5-0.7,0.8v0.4c0,0.7,0.2,1.3,0.5,1.7s0.7,0.6,1.2,0.6
		s0.9-0.2,1.2-0.5c0.3-0.4,0.4-0.8,0.4-1.4c0-0.6-0.1-1.1-0.4-1.4C545.8,392.6,545.4,392.4,544.9,392.4z M556.7,397.1h-1.1v-2.3
		c-0.5,0.1-1,0.2-1.5,0.2c-0.8,0-1.4-0.2-1.8-0.6c-0.4-0.4-0.6-1-0.6-1.7v-1.9h1.1v1.9c0,0.9,0.5,1.4,1.4,1.4c0.5,0,1-0.1,1.5-0.2
		v-3.2h1.1v6.4H556.7z M558.5,396.5c0-0.2,0.1-0.3,0.2-0.5c0.1-0.1,0.3-0.2,0.5-0.2s0.4,0.1,0.5,0.2c0.1,0.1,0.2,0.3,0.2,0.5
		s-0.1,0.3-0.2,0.5c-0.1,0.1-0.3,0.2-0.5,0.2s-0.4-0.1-0.5-0.2C558.5,396.8,558.5,396.7,558.5,396.5z M566,392.3h0.8
		c0.5,0,0.9-0.1,1.2-0.4c0.3-0.3,0.4-0.6,0.4-1.1c0-1-0.5-1.5-1.5-1.5c-0.5,0-0.8,0.1-1.1,0.4c-0.3,0.3-0.4,0.6-0.4,1.1h-1.1
		c0-0.7,0.2-1.2,0.7-1.7c0.5-0.4,1.1-0.7,1.9-0.7c0.8,0,1.4,0.2,1.9,0.6c0.5,0.4,0.7,1,0.7,1.8c0,0.4-0.1,0.7-0.4,1.1
		c-0.2,0.4-0.6,0.6-1,0.8c0.5,0.1,0.8,0.4,1.1,0.7s0.4,0.8,0.4,1.3c0,0.8-0.2,1.4-0.8,1.8c-0.5,0.4-1.1,0.7-1.9,0.7
		c-0.8,0-1.5-0.2-2-0.7c-0.5-0.4-0.8-1-0.8-1.7h1.1c0,0.5,0.1,0.8,0.4,1.1c0.3,0.3,0.7,0.4,1.2,0.4s0.9-0.1,1.2-0.4
		c0.3-0.3,0.4-0.7,0.4-1.2s-0.2-0.9-0.5-1.1c-0.3-0.3-0.8-0.4-1.3-0.4H566V392.3z"/>
	<path class="st7" d="M536.9,335.5h1.2v0.9h-1.2v2h-1.1v-2h-3.9v-0.6l3.8-5.9h1.2V335.5z M533.2,335.5h2.7v-4.2l-0.1,0.2
		L533.2,335.5z M544.7,338.3h-5.6v-0.8l3-3.3c0.4-0.5,0.7-0.9,0.9-1.2s0.2-0.6,0.2-1s-0.1-0.8-0.4-1.1c-0.3-0.3-0.6-0.4-1.1-0.4
		s-1,0.2-1.3,0.5s-0.5,0.7-0.5,1.3h-1.1c0-0.8,0.2-1.4,0.8-1.9c0.5-0.5,1.2-0.7,2-0.7s1.4,0.2,1.9,0.6s0.7,1,0.7,1.7
		c0,0.8-0.5,1.8-1.6,3l-2.3,2.5h4.3L544.7,338.3L544.7,338.3z M545.9,340l-0.6-0.4c0.4-0.5,0.6-1,0.6-1.6v-1h1.1v0.9
		c0,0.4-0.1,0.8-0.3,1.2C546.4,339.5,546.2,339.8,545.9,340z M549.7,333.5h0.8c0.5,0,0.9-0.1,1.2-0.4c0.3-0.3,0.4-0.6,0.4-1.1
		c0-1-0.5-1.5-1.5-1.5c-0.5,0-0.9,0.1-1.1,0.4c-0.3,0.3-0.4,0.6-0.4,1.1H548c0-0.7,0.2-1.2,0.7-1.7s1.1-0.7,1.9-0.7
		c0.8,0,1.4,0.2,1.9,0.6c0.5,0.4,0.7,1,0.7,1.8c0,0.4-0.1,0.7-0.4,1.1c-0.2,0.3-0.6,0.6-1,0.8c0.5,0.2,0.8,0.4,1.1,0.7
		s0.4,0.8,0.4,1.2c0,0.8-0.2,1.4-0.8,1.8s-1.2,0.7-2,0.7s-1.5-0.2-2-0.7s-0.8-1-0.8-1.7h1.1c0,0.5,0.1,0.8,0.4,1.1
		c0.3,0.3,0.7,0.4,1.2,0.4s0.9-0.1,1.2-0.4c0.3-0.3,0.4-0.7,0.4-1.2s-0.2-0.9-0.5-1.1c-0.3-0.3-0.7-0.4-1.3-0.4h-0.8v-0.8H549.7z
		 M555.4,334.1l0.4-4.3h4.4v1h-3.5l-0.2,2.3c0.4-0.2,0.9-0.4,1.4-0.4c0.8,0,1.4,0.3,1.8,0.8c0.5,0.5,0.7,1.2,0.7,2.1
		c0,0.9-0.2,1.6-0.7,2.1s-1.1,0.8-2,0.8c-0.8,0-1.4-0.2-1.8-0.6c-0.5-0.4-0.8-1-0.8-1.7h1c0.1,0.5,0.2,0.9,0.5,1.1
		c0.3,0.2,0.7,0.4,1.1,0.4c0.5,0,0.9-0.2,1.2-0.5s0.4-0.8,0.4-1.4c0-0.6-0.1-1-0.5-1.4c-0.3-0.3-0.7-0.5-1.2-0.5s-0.9,0.1-1.1,0.3
		l-0.3,0.2L555.4,334.1z M561.5,331.5c0-0.5,0.2-0.9,0.5-1.3c0.3-0.3,0.7-0.5,1.2-0.5s0.9,0.2,1.3,0.5c0.3,0.3,0.5,0.8,0.5,1.3v0.4
		c0,0.5-0.2,0.9-0.5,1.3c-0.3,0.3-0.7,0.5-1.2,0.5s-0.9-0.2-1.2-0.5s-0.5-0.8-0.5-1.3L561.5,331.5L561.5,331.5z M562.3,331.9
		c0,0.3,0.1,0.6,0.2,0.8c0.2,0.2,0.4,0.3,0.7,0.3s0.5-0.1,0.7-0.3s0.2-0.5,0.2-0.8v-0.4c0-0.3-0.1-0.5-0.2-0.8
		c-0.2-0.2-0.4-0.3-0.7-0.3s-0.5,0.1-0.7,0.3s-0.2,0.5-0.2,0.8V331.9z M565.7,336.3c0-0.5,0.2-0.9,0.5-1.3c0.3-0.3,0.8-0.5,1.3-0.5
		s0.9,0.2,1.3,0.5c0.3,0.3,0.5,0.8,0.5,1.3v0.4c0,0.5-0.2,0.9-0.5,1.3c-0.3,0.3-0.7,0.5-1.2,0.5s-0.9-0.2-1.3-0.5
		c-0.3-0.3-0.5-0.8-0.5-1.3L565.7,336.3L565.7,336.3z M566.5,336.7c0,0.3,0.1,0.6,0.3,0.8s0.4,0.3,0.7,0.3s0.5-0.1,0.7-0.3
		s0.2-0.4,0.2-0.8v-0.4c0-0.3-0.1-0.6-0.2-0.8c-0.2-0.2-0.4-0.3-0.7-0.3s-0.5,0.1-0.7,0.3s-0.3,0.5-0.3,0.8V336.7z M563.5,337.7
		l-0.6-0.4l4.2-6.7l0.6,0.4L563.5,337.7z"/>
	<path class="st8" d="M450.8,158.8h0.8c0.5,0,0.9-0.1,1.2-0.4s0.4-0.6,0.4-1.1c0-1-0.5-1.5-1.5-1.5c-0.5,0-0.8,0.1-1.1,0.4
		s-0.4,0.6-0.4,1.1h-1.1c0-0.7,0.2-1.2,0.7-1.7c0.5-0.4,1.1-0.7,1.9-0.7c0.8,0,1.4,0.2,1.9,0.6c0.4,0.4,0.7,1,0.7,1.8
		c0,0.4-0.1,0.7-0.4,1.1c-0.2,0.4-0.6,0.6-1,0.8c0.5,0.1,0.8,0.4,1.1,0.7c0.2,0.3,0.4,0.8,0.4,1.3c0,0.8-0.2,1.4-0.8,1.8
		c-0.5,0.4-1.2,0.7-2,0.7s-1.5-0.2-2-0.6s-0.8-1-0.8-1.7h1.1c0,0.4,0.1,0.8,0.4,1.1c0.3,0.3,0.7,0.4,1.2,0.4s0.9-0.1,1.2-0.4
		s0.4-0.7,0.4-1.2s-0.2-0.9-0.5-1.1c-0.3-0.3-0.7-0.4-1.3-0.4h-0.8v-1H450.8z M456.5,159.4l0.4-4.3h4.4v1h-3.5l-0.3,2.3
		c0.4-0.2,0.9-0.4,1.4-0.4c0.8,0,1.4,0.3,1.9,0.8s0.7,1.2,0.7,2.1s-0.2,1.6-0.7,2.1s-1.1,0.8-2,0.8c-0.8,0-1.4-0.2-1.8-0.6
		c-0.5-0.4-0.8-1-0.8-1.7h1c0.1,0.5,0.2,0.9,0.5,1.1s0.6,0.4,1.1,0.4s0.9-0.2,1.2-0.5s0.4-0.8,0.4-1.4s-0.1-1-0.5-1.4
		c-0.3-0.3-0.7-0.5-1.2-0.5s-0.8,0.1-1.1,0.3l-0.3,0.2L456.5,159.4z M462.8,165.3l-0.6-0.4c0.4-0.5,0.6-1,0.6-1.6v-1h1.1v0.9
		c0,0.4-0.1,0.8-0.3,1.2C463.3,164.8,463.1,165.1,462.8,165.3z M469.2,159.9c-0.2,0.3-0.5,0.5-0.8,0.6c-0.3,0.2-0.7,0.2-1,0.2
		c-0.5,0-0.9-0.1-1.3-0.4c-0.4-0.2-0.7-0.6-0.9-1s-0.3-0.9-0.3-1.5s0.1-1.1,0.3-1.5c0.2-0.5,0.5-0.8,0.9-1.1
		c0.4-0.2,0.9-0.4,1.4-0.4c0.9,0,1.5,0.3,2,0.9s0.7,1.5,0.7,2.6v0.3c0,1.7-0.3,2.9-1,3.6c-0.6,0.8-1.6,1.1-3,1.2H466v-0.9h0.2
		c0.9,0,1.6-0.2,2.1-0.7C468.9,161.6,469.2,160.9,469.2,159.9z M467.5,159.9c0.4,0,0.7-0.1,1-0.3c0.3-0.2,0.5-0.5,0.7-0.8v-0.4
		c0-0.7-0.2-1.3-0.5-1.7c-0.3-0.4-0.7-0.7-1.2-0.7s-0.9,0.2-1.2,0.5c-0.3,0.4-0.4,0.8-0.4,1.4s0.1,1.1,0.4,1.4
		C466.7,159.7,467.1,159.9,467.5,159.9z M477,157.3c0,0.4-0.1,0.8-0.3,1.1c-0.2,0.3-0.5,0.6-0.9,0.8c0.4,0.2,0.8,0.5,1.1,0.8
		c0.3,0.4,0.4,0.8,0.4,1.2c0,0.7-0.2,1.3-0.8,1.8c-0.5,0.4-1.2,0.6-2,0.6s-1.5-0.2-2-0.7c-0.5-0.4-0.7-1-0.7-1.8
		c0-0.5,0.1-0.9,0.4-1.2c0.2-0.4,0.6-0.7,1-0.8c-0.4-0.2-0.7-0.5-0.9-0.8s-0.3-0.7-0.3-1.1c0-0.7,0.2-1.3,0.7-1.7
		c0.5-0.4,1.1-0.6,1.8-0.6s1.4,0.2,1.8,0.6C476.7,156,477,156.6,477,157.3z M476.1,161.3c0-0.5-0.2-0.9-0.5-1.2
		c-0.3-0.3-0.7-0.5-1.2-0.5s-0.9,0.2-1.2,0.5s-0.5,0.7-0.5,1.2s0.2,0.9,0.4,1.1c0.3,0.3,0.7,0.4,1.2,0.4s0.9-0.1,1.2-0.4
		C475.9,162.2,476.1,161.8,476.1,161.3z M474.4,155.9c-0.4,0-0.8,0.1-1,0.4c-0.3,0.3-0.4,0.6-0.4,1.1c0,0.4,0.1,0.8,0.4,1.1
		c0.3,0.3,0.6,0.4,1,0.4s0.8-0.1,1-0.4c0.3-0.3,0.4-0.6,0.4-1.1c0-0.4-0.1-0.8-0.4-1.1C475.2,156,474.9,155.9,474.4,155.9z
		 M478.4,156.7c0-0.5,0.2-0.9,0.5-1.3c0.3-0.3,0.7-0.5,1.2-0.5s0.9,0.2,1.3,0.5c0.3,0.3,0.5,0.8,0.5,1.3v0.4c0,0.5-0.2,0.9-0.5,1.3
		c-0.3,0.3-0.7,0.5-1.2,0.5s-0.9-0.2-1.3-0.5c-0.3-0.3-0.5-0.8-0.5-1.3V156.7z M479.2,157.2c0,0.3,0.1,0.5,0.2,0.8
		c0.2,0.2,0.4,0.3,0.7,0.3s0.5-0.1,0.7-0.3c0.2-0.2,0.2-0.5,0.2-0.8v-0.4c0-0.3-0.1-0.6-0.2-0.8c-0.2-0.2-0.4-0.3-0.7-0.3
		s-0.5,0.1-0.7,0.3c-0.2,0.2-0.2,0.5-0.2,0.8V157.2z M482.6,161.5c0-0.5,0.2-0.9,0.5-1.3c0.3-0.3,0.8-0.5,1.3-0.5s0.9,0.2,1.3,0.5
		c0.3,0.3,0.5,0.8,0.5,1.3v0.4c0,0.5-0.2,0.9-0.5,1.3c-0.3,0.3-0.7,0.5-1.2,0.5s-0.9-0.2-1.3-0.5c-0.3-0.3-0.5-0.8-0.5-1.3
		L482.6,161.5L482.6,161.5z M483.4,162c0,0.3,0.1,0.6,0.3,0.8c0.2,0.2,0.4,0.3,0.7,0.3s0.5-0.1,0.7-0.3c0.2-0.2,0.2-0.5,0.2-0.8
		v-0.5c0-0.3-0.1-0.6-0.2-0.8c-0.2-0.2-0.4-0.3-0.7-0.3s-0.5,0.1-0.7,0.3c-0.2,0.2-0.3,0.5-0.3,0.8V162z M480.4,163l-0.6-0.4
		l4.2-6.7l0.6,0.4L480.4,163z"/>
	<path d="M609,177.3h-1.1v-7.2l-2.2,0.8v-1l3.1-1.2h0.2V177.3z M616.3,173.6c-0.2,0.3-0.5,0.5-0.8,0.6c-0.3,0.2-0.7,0.2-1,0.2
		c-0.5,0-0.9-0.1-1.3-0.4c-0.4-0.2-0.7-0.6-0.9-1s-0.3-0.9-0.3-1.5s0.1-1.1,0.3-1.5c0.2-0.5,0.5-0.8,0.9-1.1
		c0.4-0.2,0.9-0.4,1.4-0.4c0.8,0,1.5,0.3,2,0.9s0.7,1.5,0.7,2.6v0.3c0,1.7-0.3,2.9-1,3.6c-0.7,0.8-1.7,1.2-3,1.2h-0.2v-0.9h0.2
		c0.9,0,1.6-0.2,2.1-0.7C616,175.3,616.2,174.6,616.3,173.6z M614.6,173.6c0.4,0,0.7-0.1,1-0.3c0.3-0.2,0.5-0.5,0.7-0.8v-0.4
		c0-0.7-0.2-1.3-0.5-1.7c-0.3-0.5-0.7-0.7-1.2-0.7s-0.9,0.2-1.2,0.6s-0.4,0.8-0.4,1.4s0.1,1.1,0.4,1.4
		C613.8,173.4,614.2,173.6,614.6,173.6z M619,179l-0.6-0.4c0.4-0.5,0.6-1,0.6-1.6v-1h1.1v0.9c0,0.4-0.1,0.8-0.3,1.2
		C619.5,178.5,619.2,178.8,619,179z M625.8,174.5h1.2v0.9h-1.2v2h-1.1v-2h-3.9v-0.6l3.8-5.9h1.2V174.5z M622.1,174.5h2.7v-4.2
		l-0.1,0.2L622.1,174.5z M633.1,171c0,0.4-0.1,0.8-0.3,1.1c-0.2,0.3-0.5,0.6-0.9,0.8c0.4,0.2,0.8,0.5,1.1,0.8
		c0.3,0.4,0.4,0.8,0.4,1.2c0,0.7-0.2,1.3-0.8,1.8c-0.5,0.4-1.1,0.7-2,0.7c-0.8,0-1.5-0.2-2-0.7c-0.5-0.4-0.7-1-0.7-1.8
		c0-0.5,0.1-0.9,0.4-1.2c0.3-0.4,0.6-0.7,1-0.9c-0.4-0.2-0.7-0.4-0.9-0.8c-0.2-0.3-0.3-0.7-0.3-1.1c0-0.7,0.2-1.3,0.7-1.7
		c0.5-0.4,1.1-0.6,1.8-0.6c0.8,0,1.4,0.2,1.8,0.6C632.9,169.7,633.1,170.3,633.1,171z M632.3,175c0-0.5-0.2-0.9-0.5-1.2
		c-0.3-0.3-0.7-0.4-1.2-0.4s-0.9,0.1-1.2,0.4s-0.4,0.7-0.4,1.2s0.1,0.9,0.4,1.1c0.3,0.3,0.7,0.4,1.2,0.4s0.9-0.1,1.2-0.4
		S632.3,175.5,632.3,175z M630.6,169.6c-0.4,0-0.8,0.1-1,0.4c-0.3,0.3-0.4,0.6-0.4,1.1c0,0.4,0.1,0.8,0.4,1.1s0.6,0.4,1,0.4
		s0.8-0.1,1-0.4c0.3-0.3,0.4-0.6,0.4-1.1c0-0.4-0.1-0.8-0.4-1.1C631.4,169.7,631,169.6,630.6,169.6z M634.6,170.5
		c0-0.5,0.2-0.9,0.5-1.3c0.3-0.3,0.8-0.5,1.3-0.5s0.9,0.2,1.3,0.5c0.3,0.3,0.5,0.8,0.5,1.3v0.4c0,0.5-0.2,0.9-0.5,1.3
		c-0.3,0.3-0.8,0.5-1.2,0.5c-0.5,0-0.9-0.2-1.3-0.5c-0.3-0.3-0.5-0.8-0.5-1.3L634.6,170.5L634.6,170.5z M635.4,170.9
		c0,0.3,0.1,0.6,0.3,0.8c0.2,0.2,0.4,0.3,0.7,0.3s0.5-0.1,0.7-0.3c0.2-0.2,0.3-0.5,0.3-0.8v-0.4c0-0.3-0.1-0.6-0.3-0.8
		c-0.2-0.2-0.4-0.3-0.7-0.3s-0.5,0.1-0.7,0.3c-0.2,0.2-0.2,0.5-0.2,0.8L635.4,170.9L635.4,170.9z M638.8,175.3
		c0-0.5,0.2-0.9,0.5-1.3c0.3-0.3,0.7-0.5,1.2-0.5s0.9,0.2,1.3,0.5c0.3,0.3,0.5,0.8,0.5,1.3v0.4c0,0.5-0.2,0.9-0.5,1.3
		c-0.3,0.3-0.8,0.5-1.2,0.5c-0.5,0-0.9-0.2-1.3-0.5c-0.3-0.3-0.5-0.8-0.5-1.3V175.3z M639.6,175.7c0,0.3,0.1,0.6,0.2,0.8
		c0.2,0.2,0.4,0.3,0.7,0.3s0.5-0.1,0.7-0.3c0.2-0.2,0.2-0.5,0.2-0.8v-0.4c0-0.3-0.1-0.6-0.2-0.8c-0.2-0.2-0.4-0.3-0.7-0.3
		s-0.5,0.1-0.7,0.3c-0.2,0.2-0.3,0.5-0.3,0.8L639.6,175.7L639.6,175.7z M636.6,176.7l-0.6-0.4l4.2-6.7l0.6,0.4L636.6,176.7z"/>
</g>
<path class="st9" d="M295,76c0-0.8,0.1-1.5,0.5-2.1c0.3-0.6,0.7-1.1,1.3-1.4c0.5-0.3,1.2-0.5,1.9-0.5c1.1,0,1.9,0.4,2.6,1.1
	c0.7,0.8,1,1.7,1,3v0.1c0,0.8-0.1,1.5-0.4,2.1s-0.7,1.1-1.3,1.4c-0.5,0.3-1.2,0.5-1.9,0.5c-1.1,0-1.9-0.4-2.6-1.1S295,77.3,295,76
	L295,76z M296.4,76.1c0,0.9,0.2,1.6,0.6,2.1s1,0.8,1.6,0.8c0.7,0,1.2-0.3,1.6-0.8s0.6-1.3,0.6-2.3c0-0.9-0.2-1.6-0.6-2.1
	s-1-0.8-1.6-0.8c-0.7,0-1.2,0.3-1.6,0.8S296.4,75.1,296.4,76.1z M310.4,80H309v-6.8h-3.6V80H304v-7.9h6.4V80z M319.3,76.1
	c0,1.2-0.3,2.2-0.8,2.9c-0.5,0.7-1.3,1.1-2.2,1.1c-1,0-1.7-0.3-2.3-0.9V83h-1.4V72h1.2l0.1,0.9c0.6-0.7,1.3-1,2.3-1s1.7,0.4,2.3,1.1
	c0.6,0.7,0.8,1.7,0.8,3V76.1z M317.9,76c0-0.9-0.2-1.6-0.6-2.1s-0.9-0.8-1.6-0.8c-0.8,0-1.4,0.4-1.8,1.1V78c0.4,0.7,1,1.1,1.9,1.1
	c0.6,0,1.2-0.2,1.5-0.8C317.7,77.8,317.9,77,317.9,76z M325.9,80c-0.1-0.2-0.1-0.4-0.2-0.8c-0.6,0.7-1.4,1-2.3,1
	c-0.8,0-1.4-0.2-1.9-0.7s-0.8-1-0.8-1.7c0-0.8,0.3-1.5,0.9-1.9c0.6-0.5,1.5-0.7,2.6-0.7h1.3v-0.6c0-0.5-0.2-0.9-0.4-1.1
	c-0.3-0.3-0.7-0.4-1.2-0.4s-0.9,0.1-1.2,0.4c-0.3,0.2-0.5,0.5-0.5,0.9h-1.4c0-0.4,0.1-0.8,0.4-1.1s0.7-0.7,1.1-0.9
	c0.5-0.2,1-0.3,1.6-0.3c0.9,0,1.6,0.2,2.1,0.7s0.8,1.1,0.8,1.9v3.6c0,0.7,0.1,1.3,0.3,1.7v0.1h-1.2V80z M323.6,79
	c0.4,0,0.8-0.1,1.2-0.3s0.7-0.5,0.8-0.9v-1.6h-1.1c-1.7,0-2.5,0.5-2.5,1.5c0,0.4,0.2,0.8,0.4,1S323.2,79,323.6,79z M329.3,80v-7.9
	h3.1c1.1,0,1.9,0.2,2.4,0.6c0.6,0.4,0.8,0.9,0.8,1.6c0,0.4-0.1,0.7-0.3,1c-0.2,0.3-0.5,0.5-1,0.7c0.5,0.1,0.9,0.3,1.2,0.7
	c0.3,0.3,0.4,0.7,0.4,1.2c0,0.7-0.3,1.3-0.8,1.7c-0.5,0.4-1.3,0.6-2.3,0.6h-3.5V80z M330.6,76.5v2.4h2.2c0.6,0,1-0.1,1.3-0.3
	c0.3-0.2,0.4-0.5,0.4-0.9c0-0.8-0.6-1.2-1.8-1.2H330.6z M330.6,75.5h1.8c1.3,0,1.9-0.4,1.9-1.1c0-0.8-0.6-1.1-1.8-1.1h-1.9V75.5z
	 M337.6,78.9l0.5-0.6c0.5-0.7,0.8-1.7,0.9-3.1l0.1-3.2h5.1v6.8h1v3.4h-1.4v-2.3h-5.5v2.3H337v-3.4h0.6V78.9z M339.2,78.9h3.6v-5.6
	h-2.4l-0.1,1.9C340.3,76.8,339.9,78,339.2,78.9z M351.7,80c-0.1-0.2-0.1-0.4-0.2-0.8c-0.6,0.7-1.4,1-2.3,1c-0.8,0-1.4-0.2-1.9-0.7
	s-0.8-1-0.8-1.7c0-0.8,0.3-1.5,0.9-1.9c0.6-0.5,1.5-0.7,2.6-0.7h1.3v-0.6c0-0.5-0.1-0.9-0.4-1.1c-0.3-0.3-0.7-0.4-1.2-0.4
	s-0.9,0.1-1.2,0.4c-0.3,0.2-0.5,0.5-0.5,0.9h-1.4c0-0.4,0.1-0.8,0.4-1.1s0.7-0.7,1.1-0.9c0.5-0.2,1-0.3,1.6-0.3
	c0.9,0,1.6,0.2,2.1,0.7s0.8,1.1,0.8,1.9v3.6c0,0.7,0.1,1.3,0.3,1.7v0.1h-1.2V80z M349.4,79c0.4,0,0.8-0.1,1.2-0.3s0.7-0.5,0.8-0.9
	v-1.6h-1.1c-1.7,0-2.5,0.5-2.5,1.5c0,0.4,0.1,0.8,0.4,1S349,79,349.4,79z M361.4,80H360v-3.4h-3.6V80H355v-7.9h1.4v3.4h3.6v-3.4h1.4
	V80z M363.2,76c0-0.8,0.1-1.5,0.5-2.1c0.3-0.6,0.7-1.1,1.3-1.4c0.5-0.3,1.2-0.5,1.9-0.5c1.1,0,2,0.4,2.6,1.1c0.7,0.8,1,1.7,1,3v0.1
	c0,0.8-0.1,1.5-0.4,2.1c-0.3,0.6-0.7,1.1-1.3,1.4c-0.5,0.3-1.2,0.5-1.9,0.5c-1.1,0-1.9-0.4-2.6-1.1C363.5,78.3,363.2,77.3,363.2,76
	L363.2,76z M364.6,76.1c0,0.9,0.2,1.6,0.6,2.1s1,0.8,1.6,0.8c0.7,0,1.2-0.3,1.6-0.8s0.6-1.3,0.6-2.3c0-0.9-0.2-1.6-0.6-2.1
	c-0.4-0.5-1-0.8-1.7-0.8s-1.2,0.3-1.6,0.8C364.8,74.4,364.6,75.1,364.6,76.1z"/>
<path class="st7" d="M298.5,99.3l1.8-5.9h1.5l-3.2,9.1c-0.5,1.3-1.3,2-2.4,2h-0.3l-0.5-0.1v-1.1h0.4c0.5,0,0.8-0.1,1.1-0.3
	c0.3-0.2,0.5-0.5,0.6-1l0.3-0.8l-2.8-7.8h1.5L298.5,99.3z M306.1,100.4c0.5,0,0.9-0.1,1.3-0.4s0.6-0.7,0.6-1.1h1.3
	c0,0.5-0.2,0.9-0.5,1.3s-0.7,0.7-1.2,1c-0.5,0.2-1,0.4-1.5,0.4c-1.1,0-1.9-0.4-2.6-1.1c-0.6-0.7-1-1.7-1-3v-0.2
	c0-0.8,0.1-1.5,0.4-2.1s0.7-1.1,1.2-1.4s1.2-0.5,1.9-0.5c0.9,0,1.6,0.3,2.2,0.8s0.9,1.2,0.9,2.1H308c0-0.5-0.2-0.9-0.6-1.3
	c-0.3-0.3-0.8-0.5-1.3-0.5c-0.7,0-1.2,0.2-1.6,0.7s-0.6,1.2-0.6,2.1v0.3c0,0.9,0.2,1.6,0.6,2.1C304.9,100.1,305.4,100.4,306.1,100.4
	z M317.3,93.4v7.9H316v-6.8h-2.7l-0.2,3c-0.1,1.4-0.3,2.3-0.7,2.9c-0.4,0.6-1,0.9-1.8,0.9h-0.5v-1.2h0.4c0.4-0.1,0.8-0.3,0.9-0.8
	c0.2-0.5,0.3-1.3,0.4-2.6l0.1-3.4h5.4V93.4z M319.1,97.3c0-0.8,0.1-1.5,0.5-2.1c0.3-0.6,0.7-1.1,1.3-1.4c0.5-0.3,1.2-0.5,1.9-0.5
	c1.1,0,2,0.4,2.6,1.1c0.7,0.8,1,1.7,1,3v0.1c0,0.8-0.1,1.5-0.4,2.1s-0.7,1.1-1.3,1.4c-0.6,0.3-1.2,0.5-1.9,0.5
	c-1.1,0-1.9-0.4-2.6-1.1C319.5,99.6,319.1,98.6,319.1,97.3L319.1,97.3z M320.5,97.4c0,0.9,0.2,1.6,0.6,2.1s0.9,0.8,1.6,0.8
	s1.2-0.3,1.6-0.8s0.6-1.3,0.6-2.3c0-0.9-0.2-1.6-0.6-2.1s-1-0.8-1.6-0.8c-0.7,0-1.2,0.3-1.6,0.8C320.7,95.7,320.5,96.4,320.5,97.4z
	 M328.2,101.3v-7.9h3.1c1.1,0,1.9,0.2,2.4,0.5c0.6,0.4,0.9,0.9,0.9,1.6c0,0.4-0.1,0.7-0.3,1c-0.2,0.3-0.6,0.5-1,0.7
	c0.5,0.1,0.9,0.3,1.1,0.6c0.3,0.3,0.4,0.7,0.4,1.2c0,0.7-0.3,1.3-0.8,1.7c-0.5,0.4-1.3,0.6-2.3,0.6L328.2,101.3L328.2,101.3z
	 M329.5,97.8v2.4h2.2c0.6,0,1-0.1,1.3-0.3s0.4-0.5,0.4-0.9c0-0.8-0.6-1.2-1.7-1.2H329.5z M329.5,96.7h1.8c1.3,0,1.9-0.4,1.9-1.1
	s-0.6-1.1-1.8-1.1h-1.9V96.7z M343.1,101.3h-1.3v-3.4h-3.6v3.4h-1.4v-7.9h1.4v3.4h3.6v-3.4h1.3V101.3z M346.7,96.1h2.1
	c0.9,0,1.6,0.2,2.1,0.7c0.5,0.4,0.8,1.1,0.8,1.9s-0.3,1.4-0.8,1.9s-1.3,0.7-2.2,0.7h-3.4v-7.9h1.4V96.1z M354.5,101.3h-1.4v-7.9h1.4
	V101.3z M346.7,97.2v3h2c0.5,0,0.9-0.1,1.2-0.4s0.4-0.6,0.4-1.1c0-0.4-0.1-0.8-0.4-1.1s-0.6-0.4-1.1-0.4H346.7z M362,93.4h1.4v7.9
	H362v-5.8l-3.6,5.8H357v-7.9h1.4v5.8L362,93.4z M362.4,90.5c0,0.6-0.2,1.1-0.6,1.4c-0.4,0.4-0.9,0.5-1.6,0.5s-1.2-0.2-1.6-0.5
	c-0.4-0.4-0.6-0.8-0.6-1.4h1.1c0,0.4,0.1,0.6,0.3,0.8c0.2,0.2,0.5,0.3,0.8,0.3s0.6-0.1,0.8-0.3s0.3-0.5,0.3-0.8H362.4z M372.5,100.4
	c0.5,0,0.9-0.1,1.3-0.4c0.4-0.3,0.6-0.7,0.6-1.1h1.3c0,0.5-0.2,0.9-0.5,1.3s-0.7,0.7-1.2,1c-0.5,0.2-1,0.4-1.5,0.4
	c-1.1,0-1.9-0.4-2.6-1.1s-1-1.7-1-3v-0.2c0-0.8,0.1-1.5,0.4-2.1c0.3-0.6,0.7-1.1,1.2-1.4s1.1-0.5,1.9-0.5c0.9,0,1.6,0.3,2.2,0.8
	c0.6,0.5,0.9,1.2,0.9,2.1h-1.3c0-0.5-0.2-0.9-0.6-1.3c-0.3-0.3-0.8-0.5-1.3-0.5c-0.7,0-1.2,0.2-1.6,0.7c-0.4,0.5-0.6,1.2-0.6,2.1
	v0.3c0,0.9,0.2,1.6,0.6,2.1C371.2,100.1,371.8,100.4,372.5,100.4z M383.8,97.4c0,1.2-0.3,2.2-0.8,2.9c-0.5,0.7-1.3,1.1-2.2,1.1
	c-1,0-1.7-0.3-2.3-0.9v3.8h-1.3v-11h1.2l0.1,0.9c0.5-0.7,1.3-1,2.3-1s1.7,0.4,2.3,1.1s0.8,1.7,0.8,3L383.8,97.4L383.8,97.4z
	 M382.5,97.3c0-0.9-0.2-1.6-0.6-2.1c-0.4-0.5-0.9-0.8-1.6-0.8c-0.8,0-1.4,0.4-1.9,1.1v3.8c0.4,0.7,1,1.1,1.9,1.1
	c0.6,0,1.2-0.3,1.5-0.8C382.3,99.1,382.5,98.3,382.5,97.3z M385.2,97.3c0-0.8,0.2-1.5,0.5-2.1s0.7-1.1,1.3-1.4
	c0.5-0.3,1.2-0.5,1.9-0.5c1.1,0,1.9,0.4,2.6,1.1c0.7,0.8,1,1.7,1,3v0.1c0,0.8-0.2,1.5-0.5,2.1s-0.7,1.1-1.3,1.4s-1.2,0.5-1.9,0.5
	c-1.1,0-1.9-0.4-2.6-1.1C385.5,99.6,385.2,98.6,385.2,97.3L385.2,97.3z M386.5,97.4c0,0.9,0.2,1.6,0.6,2.1c0.4,0.5,1,0.8,1.6,0.8
	c0.7,0,1.2-0.3,1.6-0.8c0.4-0.5,0.6-1.3,0.6-2.3c0-0.9-0.2-1.6-0.6-2.1c-0.4-0.5-1-0.8-1.6-0.8c-0.7,0-1.2,0.3-1.6,0.8
	C386.8,95.7,386.5,96.4,386.5,97.4z M396.6,97.9h-1v3.4h-1.4v-7.9h1.4v3.4h0.9l2.7-3.4h1.6l-3.1,3.8l3.4,4.1h-1.7L396.6,97.9z"/>
<path class="st8" d="M296.4,113.7v6.8h2.9v-6.8h1.4v6.8h2.9v-6.8h1.4v7.9h-10v-7.9H296.4z M312.9,114.8h-2.7v6.8h-1.3v-6.8h-2.6
	v-1.1h6.6V114.8z M320.9,117.7c0,1.2-0.3,2.2-0.8,2.9c-0.6,0.7-1.3,1.1-2.2,1.1c-1,0-1.7-0.3-2.3-0.9v3.8h-1.4v-11h1.2l0.1,0.9
	c0.6-0.7,1.3-1,2.3-1c0.9,0,1.7,0.4,2.3,1.1c0.6,0.7,0.8,1.7,0.8,3V117.7z M319.6,117.6c0-0.9-0.2-1.6-0.6-2.1s-0.9-0.8-1.6-0.8
	c-0.8,0-1.4,0.4-1.8,1.1v3.8c0.4,0.7,1,1.1,1.9,1.1c0.7,0,1.2-0.3,1.6-0.8C319.4,119.4,319.6,118.6,319.6,117.6z M327.5,121.6
	c-0.1-0.1-0.1-0.4-0.2-0.8c-0.6,0.6-1.4,1-2.3,1c-0.8,0-1.4-0.2-1.9-0.7c-0.5-0.4-0.8-1-0.8-1.7c0-0.8,0.3-1.5,0.9-1.9
	c0.6-0.5,1.5-0.7,2.6-0.7h1.3v-0.6c0-0.5-0.1-0.8-0.4-1.1c-0.3-0.3-0.7-0.4-1.2-0.4s-0.9,0.1-1.2,0.4c-0.3,0.2-0.5,0.5-0.5,0.9h-1.4
	c0-0.4,0.1-0.8,0.4-1.1c0.3-0.4,0.7-0.7,1.1-0.9c0.5-0.2,1-0.3,1.6-0.3c0.9,0,1.6,0.2,2.1,0.7c0.5,0.4,0.8,1.1,0.8,1.9v3.6
	c0,0.7,0.1,1.3,0.3,1.7v0.1h-1.2V121.6z M325.3,120.6c0.4,0,0.8-0.1,1.2-0.3s0.7-0.5,0.8-0.9v-1.6h-1.1c-1.7,0-2.5,0.5-2.5,1.4
	c0,0.4,0.1,0.8,0.4,1C324.5,120.5,324.8,120.6,325.3,120.6z M330.5,117.8c0-1.3,0.3-2.4,0.8-3.1c0.5-0.8,1.2-1.1,2.1-1.1
	c0.4,0,0.8,0.1,1.1,0.2v-3.4h1.4v3.4c0.3-0.2,0.7-0.3,1.2-0.3c0.9,0,1.6,0.4,2.1,1.1c0.5,0.8,0.8,1.8,0.8,3.3c0,1.2-0.2,2.1-0.8,2.8
	c-0.5,0.7-1.2,1-2.1,1c-0.5,0-0.9-0.1-1.2-0.2v3.1h-1.4v-3.1c-0.3,0.1-0.7,0.2-1.1,0.2c-0.9,0-1.6-0.4-2.1-1
	c-0.5-0.7-0.8-1.6-0.8-2.8V117.8z M338.6,117.8c0-1-0.2-1.8-0.5-2.3c-0.3-0.6-0.8-0.8-1.4-0.8c-0.3,0-0.6,0-0.8,0.1v5.7
	c0.2,0.1,0.5,0.1,0.8,0.1c0.6,0,1.1-0.2,1.4-0.7C338.4,119.5,338.6,118.8,338.6,117.8z M331.9,117.9c0,0.9,0.2,1.6,0.5,2
	c0.3,0.5,0.8,0.7,1.4,0.7c0.3,0,0.5,0,0.8-0.1v-5.8c-0.2-0.1-0.5-0.1-0.8-0.1c-0.6,0-1.1,0.3-1.4,0.8S331.9,116.8,331.9,117.9z"/>
<path d="M301.6,133.1H299v6.8h-1.4v-6.8H295V132h6.6V133.1z M304.4,135.4h1.9c0.1-1,0.5-1.9,1.1-2.5s1.5-1,2.4-1
	c1,0,1.9,0.4,2.5,1.1c0.7,0.7,1,1.6,1.1,2.7v0.4c0,0.8-0.2,1.5-0.5,2.1s-0.7,1.1-1.3,1.4c-0.6,0.3-1.2,0.5-1.9,0.5
	c-1,0-1.9-0.3-2.5-1s-1-1.5-1.1-2.6h-1.9v3.5h-1.4v-7.9h1.4v3.3H304.4z M307.7,136.1c0,0.9,0.2,1.6,0.6,2.1s1,0.8,1.6,0.8
	s1.2-0.3,1.6-0.8s0.6-1.3,0.6-2.3c0-0.9-0.2-1.6-0.6-2.1s-1-0.8-1.6-0.8c-0.7,0-1.2,0.3-1.6,0.8
	C307.9,134.3,307.7,135.1,307.7,136.1z M321.9,136.1c0,1.2-0.3,2.2-0.8,2.9c-0.6,0.7-1.3,1.1-2.2,1.1c-1,0-1.7-0.3-2.3-0.9v3.8h-1.4
	v-11h1.2l0.1,0.9c0.5-0.7,1.3-1,2.3-1s1.7,0.4,2.3,1.1c0.6,0.7,0.8,1.7,0.8,3V136.1z M320.5,135.9c0-0.9-0.2-1.6-0.6-2.1
	s-0.9-0.8-1.6-0.8c-0.8,0-1.4,0.4-1.9,1.1v3.8c0.4,0.7,1,1.1,1.9,1.1c0.6,0,1.2-0.3,1.5-0.8C320.3,137.7,320.5,136.9,320.5,135.9z
	 M325.1,134.7h2.1c0.9,0,1.6,0.2,2.1,0.7c0.5,0.4,0.8,1.1,0.8,1.9s-0.3,1.4-0.8,1.9s-1.3,0.7-2.2,0.7h-3.4V132h1.4V134.7z
	 M325.1,135.9v3h2c0.5,0,0.9-0.1,1.2-0.4c0.3-0.3,0.4-0.6,0.4-1.1c0-0.4-0.1-0.8-0.4-1.1s-0.6-0.4-1.1-0.4H325.1z M336.3,138.1
	l2.7-6.1h1.7v7.9h-1.4v-5.8l-2.6,5.8h-0.9l-2.6-5.9v5.9h-1.4V132h1.8L336.3,138.1z M347.8,139.9c-0.1-0.2-0.2-0.4-0.2-0.8
	c-0.6,0.6-1.4,1-2.3,1c-0.8,0-1.4-0.2-1.9-0.7c-0.5-0.4-0.8-1-0.8-1.7c0-0.8,0.3-1.5,0.9-1.9c0.6-0.5,1.5-0.7,2.7-0.7h1.3v-0.6
	c0-0.5-0.1-0.9-0.4-1.1s-0.7-0.4-1.2-0.4s-0.9,0.1-1.2,0.4c-0.3,0.2-0.5,0.5-0.5,0.9h-1.4c0-0.4,0.1-0.8,0.4-1.1s0.7-0.7,1.1-0.9
	c0.5-0.2,1-0.3,1.6-0.3c0.9,0,1.6,0.2,2.1,0.7s0.8,1.1,0.8,1.9v3.7c0,0.7,0.1,1.3,0.3,1.7v0.1h-1.3V139.9z M345.5,138.9
	c0.4,0,0.8-0.1,1.2-0.3s0.6-0.5,0.8-0.9v-1.6h-1.1c-1.7,0-2.5,0.5-2.5,1.5c0,0.4,0.1,0.8,0.4,1C344.7,138.8,345.1,138.9,345.5,138.9
	z M359.9,132h1.4v7.9h-1.4v-5.8l-3.6,5.8h-1.4V132h1.4v5.8L359.9,132z M367,138.8l0.5-0.6c0.5-0.7,0.8-1.7,0.9-3.1l0.1-3.2h5.1v6.8
	h1v3.4h-1.4v-2.3h-5.5v2.3h-1.4v-3.4h0.7V138.8z M368.7,138.8h3.6v-5.6h-2.4l-0.1,1.9C369.7,136.7,369.3,138,368.7,138.8z
	 M382.8,136.1c0,1.2-0.3,2.2-0.8,2.9c-0.6,0.7-1.3,1.1-2.2,1.1c-1,0-1.7-0.3-2.3-0.9v3.8h-1.4v-11h1.2l0.1,0.9c0.6-0.7,1.3-1,2.3-1
	s1.7,0.4,2.3,1.1s0.8,1.7,0.8,3L382.8,136.1L382.8,136.1z M381.5,135.9c0-0.9-0.2-1.6-0.6-2.1c-0.4-0.5-0.9-0.8-1.6-0.8
	c-0.8,0-1.4,0.4-1.8,1.1v3.8c0.4,0.7,1,1.1,1.9,1.1c0.6,0,1.2-0.3,1.5-0.8C381.3,137.7,381.5,136.9,381.5,135.9z M387.2,138l1.8-5.9
	h1.5l-3.2,9.1c-0.5,1.3-1.3,2-2.4,2h-0.3l-0.5-0.1V142h0.4c0.5,0,0.8-0.1,1.1-0.3c0.3-0.2,0.5-0.5,0.6-1l0.3-0.8l-2.8-7.8h1.5
	L387.2,138z M396.8,133.1h-3.6v6.8h-1.4V132h5V133.1z M397.6,135.9c0-0.8,0.2-1.5,0.5-2.1s0.7-1.1,1.3-1.4c0.5-0.3,1.2-0.5,1.9-0.5
	c1.1,0,2,0.4,2.6,1.1c0.7,0.8,1,1.8,1,3v0.1c0,0.8-0.2,1.5-0.4,2.1c-0.3,0.6-0.7,1.1-1.3,1.4s-1.2,0.5-1.9,0.5
	c-1.1,0-1.9-0.4-2.6-1.1C397.9,138.2,397.6,137.2,397.6,135.9L397.6,135.9z M399,136.1c0,0.9,0.2,1.6,0.6,2.1c0.4,0.5,1,0.8,1.6,0.8
	c0.7,0,1.2-0.3,1.6-0.8c0.4-0.5,0.6-1.3,0.6-2.3c0-0.9-0.2-1.6-0.6-2.1c-0.4-0.5-1-0.8-1.6-0.8c-0.7,0-1.2,0.3-1.6,0.8
	C399.2,134.3,399,135.1,399,136.1z M409.8,140.1c-1.1,0-2-0.4-2.6-1.1c-0.7-0.7-1-1.6-1-2.8V136c0-0.8,0.2-1.5,0.5-2.1
	s0.7-1.1,1.3-1.4c0.5-0.4,1.1-0.5,1.8-0.5c1,0,1.8,0.3,2.4,1s0.9,1.6,0.9,2.9v0.6h-5.4c0,0.8,0.2,1.4,0.7,1.9c0.4,0.5,1,0.7,1.7,0.7
	c0.5,0,0.9-0.1,1.2-0.3c0.3-0.2,0.6-0.4,0.9-0.8l0.8,0.6C412.1,139.6,411.1,140.1,409.8,140.1z M409.6,133c-0.5,0-1,0.2-1.4,0.6
	s-0.6,1-0.7,1.7h4v-0.1c0-0.7-0.2-1.2-0.5-1.6C410.7,133.2,410.2,133,409.6,133z"/>
<path class="st9" d="M245.4,240.4c0,2.1-0.4,3.8-1.2,4.8c-0.8,1.1-2,1.6-3.7,1.6c-1.6,0-2.8-0.5-3.6-1.6c-0.8-1.1-1.2-2.6-1.3-4.7
	v-2.6c0-2.1,0.4-3.8,1.2-4.8c0.8-1.1,2-1.6,3.7-1.6c1.6,0,2.9,0.5,3.7,1.6c0.8,1,1.2,2.6,1.2,4.7L245.4,240.4L245.4,240.4z
	 M242.9,237.6c0-1.4-0.2-2.4-0.6-3.1c-0.4-0.7-1-1-1.8-1s-1.4,0.3-1.8,0.9c-0.4,0.6-0.6,1.6-0.6,2.9v3.4c0,1.4,0.2,2.4,0.6,3.1
	c0.4,0.7,1,1,1.8,1s1.4-0.3,1.8-1c0.4-0.6,0.6-1.6,0.6-3V237.6z M248.1,250.1l-1.3-0.8c0.4-0.6,0.7-1.2,0.8-1.6
	c0.1-0.5,0.2-0.9,0.2-1.4v-1.9h2.2v1.8c0,0.7-0.2,1.5-0.5,2.2C249.1,249,248.7,249.6,248.1,250.1z M262.2,246.7h-10V245l5-5.4
	c0.7-0.8,1.2-1.5,1.5-2s0.5-1.1,0.5-1.6c0-0.7-0.2-1.3-0.6-1.7s-0.9-0.7-1.6-0.7c-0.8,0-1.4,0.2-1.9,0.7c-0.4,0.5-0.7,1.2-0.7,2
	h-2.5c0-0.9,0.2-1.7,0.6-2.5c0.4-0.7,1-1.3,1.8-1.7s1.7-0.6,2.7-0.6c1.5,0,2.6,0.4,3.4,1.1c0.8,0.7,1.3,1.7,1.3,3
	c0,0.7-0.2,1.5-0.6,2.3s-1.1,1.8-2.1,2.8l-3.7,3.9h6.9L262.2,246.7L262.2,246.7z M274.2,246.7h-10V245l5-5.4c0.7-0.8,1.2-1.5,1.5-2
	s0.5-1.1,0.5-1.6c0-0.7-0.2-1.3-0.6-1.7s-0.9-0.7-1.6-0.7c-0.8,0-1.4,0.2-1.9,0.7c-0.4,0.5-0.7,1.2-0.7,2h-2.5
	c0-0.9,0.2-1.7,0.6-2.5c0.4-0.7,1-1.3,1.8-1.7s1.7-0.6,2.7-0.6c1.5,0,2.6,0.4,3.4,1.1c0.8,0.7,1.2,1.7,1.2,3c0,0.7-0.2,1.5-0.6,2.3
	s-1.1,1.8-2.1,2.8l-3.7,3.9h6.9v2.1L274.2,246.7L274.2,246.7z M276,234.7c0-0.9,0.3-1.6,0.9-2.2c0.6-0.6,1.4-0.9,2.3-0.9
	c1,0,1.7,0.3,2.3,0.9c0.6,0.6,0.9,1.3,0.9,2.3v0.7c0,0.9-0.3,1.6-0.9,2.2c-0.6,0.6-1.3,0.9-2.3,0.9c-0.9,0-1.7-0.3-2.3-0.9
	c-0.6-0.6-0.9-1.3-0.9-2.3V234.7z M277.7,235.4c0,0.5,0.1,0.9,0.4,1.1c0.3,0.3,0.6,0.4,1,0.4s0.8-0.1,1-0.4c0.3-0.3,0.4-0.7,0.4-1.2
	v-0.8c0-0.5-0.1-0.8-0.4-1.1s-0.6-0.5-1-0.5s-0.8,0.1-1,0.5c-0.3,0.3-0.4,0.7-0.4,1.2V235.4z M283.1,243.1c0-0.9,0.3-1.7,0.9-2.2
	c0.6-0.6,1.4-0.8,2.3-0.8s1.7,0.3,2.3,0.8c0.6,0.6,0.9,1.3,0.9,2.3v0.7c0,0.9-0.3,1.6-0.9,2.2s-1.3,0.9-2.3,0.9s-1.7-0.3-2.3-0.9
	c-0.6-0.6-0.9-1.3-0.9-2.3V243.1z M284.9,243.9c0,0.5,0.1,0.8,0.4,1.2c0.3,0.3,0.6,0.4,1,0.4s0.8-0.1,1-0.4c0.2-0.3,0.4-0.7,0.4-1.2
	v-0.8c0-0.5-0.1-0.9-0.4-1.2s-0.6-0.4-1-0.4s-0.8,0.2-1,0.4c-0.3,0.3-0.4,0.7-0.4,1.2V243.9z M279.6,245.6l-1.3-0.7l7.3-11.7
	l1.3,0.7L279.6,245.6z"/>
<path class="st9" d="M616.2,246.9h-10v-1.7l5-5.4c0.7-0.8,1.2-1.5,1.5-2s0.5-1.1,0.5-1.6c0-0.7-0.2-1.3-0.6-1.7
	c-0.4-0.4-0.9-0.7-1.6-0.7c-0.8,0-1.4,0.2-1.9,0.7c-0.4,0.5-0.7,1.2-0.7,2h-2.5c0-0.9,0.2-1.7,0.6-2.4c0.4-0.7,1-1.3,1.8-1.7
	s1.7-0.6,2.7-0.6c1.5,0,2.6,0.4,3.4,1.1c0.8,0.7,1.2,1.7,1.2,3c0,0.7-0.2,1.5-0.6,2.3c-0.4,0.8-1.1,1.8-2.1,2.8l-3.7,3.9h6.9
	L616.2,246.9L616.2,246.9z M618.7,250.2l-1.4-0.8c0.4-0.6,0.7-1.2,0.8-1.6c0.2-0.5,0.2-0.9,0.2-1.4v-1.9h2.2v1.8
	c0,0.7-0.2,1.5-0.5,2.2S619.2,249.7,618.7,250.2z M629.5,246.9H627v-12l-3.7,1.3v-2.1l5.8-2.1h0.3v14.9L629.5,246.9L629.5,246.9z
	 M641.8,240.6c-0.8,0.9-1.8,1.3-2.9,1.3c-1.3,0-2.4-0.5-3.1-1.4s-1.2-2.1-1.2-3.6c0-1,0.2-1.9,0.6-2.7c0.4-0.8,1-1.4,1.7-1.9
	c0.7-0.4,1.6-0.7,2.5-0.7c1.5,0,2.7,0.6,3.6,1.7c0.9,1.1,1.3,2.6,1.3,4.5v0.7c0,2.7-0.6,4.7-1.8,6.2c-1.2,1.4-3,2.1-5.5,2.1h-0.3
	v-2.1h0.4c1.5,0,2.6-0.4,3.4-1.1C641.2,243.1,641.7,242,641.8,240.6z M639.4,240c0.5,0,1-0.1,1.4-0.4c0.4-0.3,0.8-0.7,1-1.2v-1
	c0-1.1-0.2-2-0.7-2.7c-0.4-0.7-1-1-1.8-1c-0.7,0-1.3,0.3-1.7,0.9c-0.4,0.6-0.6,1.3-0.6,2.2s0.2,1.7,0.7,2.3S638.6,240,639.4,240z
	 M646.5,234.8c0-0.9,0.3-1.6,0.9-2.2c0.6-0.6,1.3-0.9,2.3-0.9s1.7,0.3,2.3,0.9c0.6,0.6,0.9,1.3,0.9,2.3v0.7c0,0.9-0.3,1.6-0.9,2.2
	c-0.6,0.6-1.3,0.9-2.3,0.9c-0.9,0-1.7-0.3-2.3-0.8c-0.6-0.6-0.9-1.3-0.9-2.3V234.8z M648.3,235.6c0,0.5,0.1,0.9,0.4,1.1
	c0.3,0.3,0.6,0.4,1,0.4s0.8-0.1,1-0.4c0.3-0.3,0.4-0.7,0.4-1.2v-0.8c0-0.5-0.1-0.8-0.4-1.1c-0.3-0.3-0.6-0.4-1-0.4s-0.8,0.1-1,0.4
	c-0.3,0.3-0.4,0.7-0.4,1.2V235.6z M653.7,243.2c0-0.9,0.3-1.7,0.9-2.2c0.6-0.6,1.4-0.9,2.3-0.9c0.9,0,1.7,0.3,2.3,0.9
	c0.6,0.6,0.9,1.3,0.9,2.3v0.7c0,0.9-0.3,1.6-0.9,2.2c-0.6,0.6-1.3,0.9-2.3,0.9s-1.7-0.3-2.3-0.9c-0.6-0.6-0.9-1.3-0.9-2.3V243.2z
	 M655.5,244c0,0.5,0.1,0.8,0.4,1.1c0.3,0.3,0.6,0.5,1,0.5s0.8-0.1,1-0.4c0.2-0.3,0.4-0.7,0.4-1.2v-0.8c0-0.5-0.1-0.9-0.4-1.2
	c-0.3-0.3-0.6-0.4-1-0.4s-0.8,0.2-1,0.4c-0.3,0.3-0.4,0.7-0.4,1.2V244z M650.2,245.7l-1.3-0.7l7.3-11.7l1.3,0.7L650.2,245.7z"/>
</svg>
